<svg width="133" height="21" viewBox="0 0 133 21" fill="none" xmlns="http://www.w3.org/2000/svg">
<path d="M7.66908 13.1445C6.31506 13.1142 5.02671 12.5551 4.07982 11.5868C3.13293 10.6185 2.60274 9.31805 2.60274 7.96379C2.60274 6.60952 3.13293 5.30907 4.07982 4.34079C5.02671 3.37252 6.31506 2.81336 7.66908 2.78302H10.6219V0.441731H7.66908C6.66874 0.423134 5.67472 0.604088 4.74511 0.974017C3.81551 1.34395 2.96896 1.89543 2.25494 2.59625C1.54093 3.29706 0.97376 4.13314 0.586587 5.05564C0.199414 5.97814 0 6.96855 0 7.96899C0 8.96943 0.199414 9.95984 0.586587 10.8823C0.97376 11.8048 1.54093 12.6409 2.25494 13.3417C2.96896 14.0425 3.81551 14.594 4.74511 14.964C5.67472 15.3339 6.66874 15.5148 7.66908 15.4962H10.6219V13.155L7.66908 13.1445Z" fill="#BE262A"/>
<path d="M15.2419 0.4375H12.2891V2.7918H15.2419C16.5959 2.82214 17.8843 3.38129 18.8312 4.34957C19.7781 5.31785 20.3083 6.6183 20.3083 7.97256C20.3083 9.32683 19.7781 10.6273 18.8312 11.5956C17.8843 12.5638 16.5959 13.123 15.2419 13.1533H12.2917V15.4946V20.3151L15.0624 15.4972H15.2419C17.2142 15.4606 19.0933 14.6514 20.4751 13.2437C21.8569 11.8361 22.6311 9.94242 22.6311 7.96996C22.6311 5.9975 21.8569 4.10382 20.4751 2.69618C19.0933 1.28853 17.2142 0.479367 15.2419 0.442703" fill="#BE262A"/>
<path d="M32.6665 12.9131C32.3963 13.2387 32.0456 13.488 31.6493 13.6363C31.1522 13.8528 30.6149 13.9618 30.0727 13.9562C29.2683 13.9762 28.4744 13.7707 27.7807 13.3631C27.143 12.9809 26.6283 12.4238 26.2977 11.758C25.9603 11.0522 25.7852 10.2797 25.7852 9.49737C25.7852 8.71501 25.9603 7.94258 26.2977 7.23672C26.6283 6.56947 27.1428 6.01072 27.7807 5.62643C28.4754 5.2218 29.2689 5.01825 30.0727 5.0385C30.6086 5.02683 31.1408 5.12971 31.6337 5.34027C32.0411 5.5081 32.3991 5.77664 32.6743 6.1207V2.02344H34.9742V13.7689H32.6743L32.6665 12.9131ZM32.1228 7.7492C31.6582 7.31467 31.0458 7.07294 30.4096 7.07294C29.7734 7.07294 29.161 7.31467 28.6964 7.7492C28.2671 8.22676 28.0412 8.8531 28.0668 9.49477C28.0486 10.1287 28.2803 10.7445 28.712 11.2091C28.9307 11.4375 29.1956 11.6167 29.489 11.7347C29.7824 11.8527 30.0976 11.9067 30.4135 11.8933C30.7288 11.9106 31.0442 11.8621 31.3398 11.7511C31.6354 11.64 31.9047 11.4687 32.1306 11.2481C32.3475 11.0107 32.5149 10.7325 32.623 10.4296C32.7311 10.1268 32.7777 9.80544 32.7602 9.48436C32.7871 8.84109 32.5579 8.21337 32.1228 7.7388" fill="#090909"/>
<path d="M37.921 13.3714C37.226 12.988 36.6445 12.4281 36.2352 11.7481C35.8284 11.0761 35.6133 10.3055 35.6133 9.51997C35.6133 8.73442 35.8284 7.96386 36.2352 7.29184C36.6445 6.61186 37.226 6.05192 37.921 5.66854C38.6294 5.26816 39.4306 5.06093 40.2443 5.06761C41.0639 5.05956 41.8713 5.26678 42.5858 5.66854C43.2842 6.05278 43.8706 6.61223 44.2872 7.29184C44.6974 7.96267 44.9144 8.73369 44.9144 9.51997C44.9144 10.3062 44.6974 11.0773 44.2872 11.7481C43.8706 12.4277 43.2842 12.9872 42.5858 13.3714C41.8711 13.7723 41.0637 13.9786 40.2443 13.9697C39.4308 13.9773 38.6296 13.771 37.921 13.3714ZM39.0631 7.42191C38.705 7.62979 38.4101 7.931 38.2098 8.29339C38.0005 8.66472 37.8928 9.08466 37.8976 9.51086C37.8898 9.94719 37.9947 10.3781 38.202 10.7622C38.3986 11.1247 38.6911 11.4262 39.0475 11.6336C39.4121 11.8417 39.8246 11.9511 40.2443 11.9511C40.664 11.9511 41.0765 11.8417 41.441 11.6336C41.7972 11.4224 42.0894 11.1185 42.2866 10.7544C42.497 10.374 42.6046 9.94545 42.5988 9.51086C42.6035 9.08466 42.4959 8.66472 42.2866 8.29339C42.134 8.02363 41.9295 7.78684 41.6847 7.59673C41.44 7.40663 41.16 7.26699 40.8608 7.18593C40.5617 7.10486 40.2495 7.08398 39.9422 7.12449C39.635 7.16499 39.3388 7.26609 39.0709 7.42191" fill="#090909"/>
<path d="M47.731 13.3893C47.0336 13.0035 46.4476 12.4444 46.0295 11.766C45.6193 11.0927 45.4023 10.3196 45.4023 9.53132C45.4023 8.74301 45.6193 7.9699 46.0295 7.29669C46.4543 6.61539 47.0465 6.05423 47.7496 5.66669C48.4528 5.27916 49.2435 5.07816 50.0464 5.08286C50.9076 5.06656 51.7563 5.29034 52.4975 5.72913C53.2387 6.16791 53.843 6.80438 54.2429 7.56723L52.1433 8.38929C51.9255 7.99746 51.61 7.66858 51.2276 7.43456C50.8695 7.22459 50.4615 7.11496 50.0464 7.11719C49.7356 7.10753 49.4262 7.16347 49.1384 7.28135C48.8506 7.39924 48.5909 7.57642 48.3762 7.80136C47.9486 8.27355 47.7118 8.88781 47.7118 9.52482C47.7118 10.1618 47.9486 10.7761 48.3762 11.2483C48.5928 11.4729 48.854 11.6498 49.1429 11.7676C49.4319 11.8854 49.7423 11.9416 50.0542 11.9324C50.4936 11.9431 50.9274 11.8328 51.3083 11.6135C51.6891 11.3941 52.0023 11.0743 52.2136 10.689L54.1882 11.4694C53.3696 13.1482 51.9916 13.9867 50.0542 13.985C49.2353 13.993 48.4283 13.7877 47.7128 13.3893" fill="#090909"/>
<path d="M63.6916 5.2261V16.5189H61.3917V12.8769C61.1159 13.2203 60.758 13.4887 60.3511 13.6574C59.858 13.8675 59.3259 13.9703 58.7901 13.9591C57.9863 13.9801 57.1925 13.7765 56.498 13.3712C55.86 12.9864 55.3447 12.4278 55.0125 11.7609C54.6751 11.0555 54.5 10.2835 54.5 9.50156C54.5 8.71963 54.6751 7.94762 55.0125 7.24221C55.3447 6.57528 55.86 6.01673 56.498 5.63192C57.1923 5.22575 57.986 5.02124 58.7901 5.0414C59.3371 5.03217 59.8799 5.13947 60.3823 5.35617C60.7778 5.50604 61.1281 5.75508 61.3995 6.07937V5.2261H63.6916ZM60.8558 7.73649C60.6296 7.51626 60.3603 7.34525 60.0648 7.23422C59.7693 7.12318 59.4539 7.07453 59.1387 7.09133C58.8228 7.07822 58.5077 7.13244 58.2144 7.2504C57.921 7.36836 57.6561 7.54735 57.4372 7.77551C57.0034 8.24196 56.7714 8.86097 56.792 9.49766C56.7657 10.1402 56.9916 10.7676 57.4216 11.2458C57.8862 11.6804 58.4986 11.9221 59.1348 11.9221C59.771 11.9221 60.3834 11.6804 60.848 11.2458C61.2823 10.7697 61.5113 10.1416 61.4854 9.49766C61.5027 9.177 61.456 8.8561 61.3479 8.5537C61.2398 8.25131 61.0725 7.9735 60.8558 7.73649Z" fill="#090909"/>
<path d="M64.6784 10.3043V5.25488H67.0199V10.3043C67.0199 10.9165 67.1734 11.35 67.4803 11.605C67.819 11.8796 68.2467 12.0203 68.6823 12.0004C68.9006 11.9992 69.1164 11.9539 69.3167 11.8672C69.517 11.7805 69.6976 11.6541 69.8478 11.4957C70.1912 11.1575 70.3447 10.5826 70.3135 9.76317V5.25488H72.655V13.7694H70.3135V13.0306C70.0271 13.3266 69.6801 13.5573 69.2963 13.707C68.8944 13.8681 68.4649 13.9494 68.0319 13.9463C65.7945 13.9463 64.6758 12.7323 64.6758 10.3043" fill="#090909"/>
<path d="M75.9639 5.23926H73.6328V13.7694H75.9639V5.23926Z" fill="#090909"/>
<path d="M80.2702 10.7231C80.2601 11.0369 80.3234 11.3486 80.4549 11.6336C80.5798 11.8756 80.8686 11.9978 81.3264 11.9978C81.5237 11.9983 81.7209 11.9879 81.917 11.9666V13.9255C81.5716 13.9654 81.2241 13.9863 80.8764 13.9879C80.3348 14.0011 79.7938 13.9461 79.266 13.824C78.8841 13.7317 78.5465 13.509 78.3112 13.1945C78.0592 12.796 77.9399 12.3279 77.9703 11.8574V7.12014H76.9297V5.08322H77.9703V2.80176H80.2702V5.08322H81.9717V7.12014H80.2624L80.2702 10.7231Z" fill="#090909"/>
<path d="M84.5382 16.811L86.016 13.299L82.3477 5.09668H85.0377L87.1971 10.5337L89.1848 5.09668H91.8722L87.1034 16.811H84.5382Z" fill="#090909"/>
<path d="M76.0938 3.07709C76.0938 2.81983 76.0175 2.56835 75.8746 2.35445C75.7317 2.14054 75.5285 1.97383 75.2908 1.87538C75.0531 1.77693 74.7916 1.75117 74.5392 1.80136C74.2869 1.85155 74.0551 1.97543 73.8732 2.15734C73.6913 2.33925 73.5674 2.57101 73.5172 2.82333C73.467 3.07564 73.4928 3.33717 73.5912 3.57485C73.6897 3.81252 73.8564 4.01567 74.0703 4.15859C74.2842 4.30152 74.5357 4.3778 74.793 4.3778C75.138 4.3778 75.4689 4.24077 75.7128 3.99683C75.9568 3.7529 76.0938 3.42206 76.0938 3.07709Z" fill="#BE262A"/>
<path d="M99.1471 8.41261C98.9852 8.06117 98.7402 7.75444 98.4332 7.51893C98.1261 7.28342 97.7663 7.12621 97.3849 7.0609C97.0035 6.99558 96.6119 7.02412 96.244 7.14406C95.8761 7.26399 95.5429 7.4717 95.2733 7.74925C95.0481 7.97953 94.8715 8.25271 94.754 8.55257C94.6364 8.85243 94.5804 9.17286 94.5891 9.49481C94.5804 9.81989 94.6364 10.1435 94.7538 10.4467C94.8713 10.7499 95.0479 11.0268 95.2733 11.2612C95.5464 11.534 95.8812 11.737 96.2493 11.8529C96.6175 11.9688 97.0082 11.9943 97.3883 11.9272C97.7684 11.8601 98.1267 11.7023 98.4329 11.4673C98.7391 11.2322 98.9841 10.9268 99.1471 10.577L101.228 11.1857C100.899 12.0353 100.315 12.7626 99.5573 13.269C98.7995 13.7754 97.9042 14.0363 96.993 14.0161C96.3957 14.0293 95.802 13.9213 95.2476 13.6987C94.6932 13.4761 94.1896 13.1435 93.7673 12.721C93.345 12.2984 93.0127 11.7947 92.7904 11.2403C92.5681 10.6858 92.4605 10.092 92.474 9.49481C92.4594 8.89784 92.566 8.30411 92.7872 7.74942C93.0083 7.19473 93.3396 6.69058 93.7609 6.26736C94.1822 5.84414 94.6848 5.51062 95.2385 5.28691C95.7922 5.0632 96.3855 4.95394 96.9826 4.96571C97.8932 4.94782 98.7876 5.20822 99.5463 5.71212C100.305 6.21602 100.892 6.93941 101.228 7.78567L99.1471 8.41261Z" fill="#BE262A"/>
<path d="M102.527 13.7694V0H104.58V13.7694H102.527Z" fill="#BE262A"/>
<path d="M107.426 1.19629C107.771 1.19629 108.102 1.33333 108.346 1.57726C108.59 1.82119 108.727 2.15204 108.727 2.49701C108.727 2.84198 108.59 3.17282 108.346 3.41675C108.102 3.66069 107.771 3.79773 107.426 3.79773C107.081 3.79773 106.75 3.66069 106.506 3.41675C106.262 3.17282 106.125 2.84198 106.125 2.49701C106.125 2.15204 106.262 1.82119 106.506 1.57726C106.75 1.33333 107.081 1.19629 107.426 1.19629ZM106.401 13.769V5.22592H108.451V13.769H106.401Z" fill="#BE262A"/>
<path d="M110.273 5.2264H112.324V6.26698C112.609 5.85419 112.994 5.51912 113.442 5.29203C113.889 5.06494 114.387 4.95298 114.889 4.96626C115.334 4.95321 115.777 5.03063 116.192 5.19383C116.606 5.35704 116.984 5.60264 117.3 5.91578C117.618 6.22236 117.868 6.59165 118.034 7.00013C118.201 7.40861 118.281 7.84731 118.268 8.28829V13.7513H116.218V8.88923C116.227 8.63145 116.183 8.37458 116.089 8.13439C115.995 7.8942 115.853 7.67577 115.672 7.49254C115.49 7.3093 115.273 7.16514 115.034 7.06891C114.794 6.97267 114.538 6.9264 114.28 6.93294C114.023 6.9326 113.768 6.98297 113.531 7.08116C113.293 7.17935 113.078 7.32344 112.896 7.50516C112.714 7.68689 112.57 7.90268 112.472 8.14018C112.374 8.37769 112.323 8.63223 112.324 8.88923V13.7695H110.273V5.2264Z" fill="#BE262A"/>
<path d="M121.117 1.19629C121.462 1.19629 121.793 1.33333 122.037 1.57726C122.281 1.82119 122.418 2.15204 122.418 2.49701C122.418 2.84198 122.281 3.17282 122.037 3.41675C121.793 3.66069 121.462 3.79773 121.117 3.79773C120.772 3.79773 120.441 3.66069 120.197 3.41675C119.953 3.17282 119.816 2.84198 119.816 2.49701C119.816 2.15204 119.953 1.82119 120.197 1.57726C120.441 1.33333 120.772 1.19629 121.117 1.19629ZM120.092 13.769V5.22592H122.142V13.769H120.092Z" fill="#BE262A"/>
<path d="M130.327 8.41347C130.144 7.99375 129.841 7.6378 129.456 7.3909C129.07 7.144 128.62 7.0173 128.162 7.0269C127.844 7.02566 127.53 7.08914 127.237 7.21347C126.945 7.33781 126.68 7.52039 126.461 7.7501C126.236 7.98039 126.059 8.25357 125.941 8.55343C125.824 8.85329 125.768 9.17371 125.777 9.49567C125.768 9.82075 125.824 10.1443 125.941 10.4476C126.059 10.7508 126.235 11.0277 126.461 11.262C126.734 11.5349 127.069 11.7378 127.437 11.8538C127.805 11.9697 128.196 11.9952 128.576 11.928C128.956 11.8609 129.314 11.7031 129.62 11.4681C129.927 11.2331 130.172 10.9277 130.335 10.5779L132.416 11.1866C132.033 12.1777 131.314 13.0027 130.385 13.5174C129.455 14.0321 128.375 14.2037 127.331 14.0022C126.288 13.8007 125.349 13.239 124.678 12.4152C124.007 11.5914 123.647 10.558 123.661 9.49567C123.647 8.89936 123.753 8.30629 123.974 7.75214C124.195 7.19798 124.525 6.69419 124.946 6.27108C125.366 5.84797 125.868 5.51429 126.421 5.2901C126.973 5.06592 127.566 4.95586 128.162 4.96657C129.07 4.95 129.961 5.20987 130.718 5.71168C131.474 6.21349 132.06 6.93349 132.398 7.77612L130.327 8.41347Z" fill="#BE262A"/>
</svg>
