<svg width="160" height="160" viewBox="0 0 160 160" fill="none" xmlns="http://www.w3.org/2000/svg">
<path d="M23.9272 47.8523C25.5024 47.3403 26.3643 45.6482 25.8523 44.0729C25.3404 42.4977 23.6482 41.6356 22.0729 42.1477C20.4976 42.6596 19.6357 44.3517 20.1477 45.9271C20.6597 47.5024 22.3517 48.3643 23.9272 47.8523Z" fill="#EAEEF9"/>
<path d="M28.618 37.9016C29.6682 37.5602 30.2429 36.4321 29.9015 35.3819C29.5602 34.3317 28.4322 33.7572 27.382 34.0984C26.3318 34.4398 25.7571 35.5679 26.0985 36.6181C26.4398 37.6683 27.5679 38.2428 28.618 37.9016Z" fill="#EAEEF9"/>
<path d="M144.536 54.8218C146.37 53.1452 146.498 50.299 144.821 48.4644C143.146 46.6297 140.299 46.5016 138.464 48.1782C136.63 49.8548 136.502 52.701 138.179 54.5356C139.854 56.3703 142.701 56.4984 144.536 54.8218Z" fill="#EAEEF9"/>
<path d="M145.349 37.4764C146.165 36.7313 146.221 35.4662 145.477 34.6508C144.731 33.8355 143.465 33.7785 142.651 34.5236C141.836 35.2687 141.778 36.5338 142.524 37.3492C143.268 38.1645 144.534 38.2215 145.349 37.4764Z" fill="#EAEEF9"/>
<path opacity="0.1" d="M79.9999 140C110.928 140 136 114.928 136 84C136 53.0721 110.928 28 79.9999 28C49.072 28 24 53.0721 24 84C24 114.928 49.072 140 79.9999 140Z" fill="#1B4A52"/>
<path d="M49.8398 61.1745V67.3892V117.107C49.8398 119.409 51.6706 121.25 53.8446 121.25H133.942C136.23 121.25 137.946 119.409 137.946 117.107V67.3892V61.4045C137.946 58.9878 136.002 57.0312 133.598 57.0312H53.8446L49.8398 61.1745Z" fill="white"/>
<g filter="url(#filter0_d_2648_24461)">
<path d="M27.1836 55.6501V63.0158V121.71C27.1836 124.358 29.3577 126.544 31.9894 126.544H126.618C129.251 126.544 131.425 124.358 131.425 121.71V63.0158V55.8803C131.425 53.0031 129.136 50.8164 126.39 50.8164H31.9894L27.1836 55.6501Z" fill="white"/>
</g>
<path d="M100.415 60.714H27.1836V55.6501C27.1836 53.0031 29.3577 50.8164 31.9894 50.8164H126.618C129.251 50.8164 131.425 53.0031 131.425 55.6501V60.714H115.29H100.415Z" fill="#1B4A52"/>
<path d="M33.3637 57.6092C34.2484 57.6092 34.9656 56.8879 34.9656 55.9979C34.9656 55.1081 34.2484 54.3867 33.3637 54.3867C32.479 54.3867 31.7617 55.1081 31.7617 55.9979C31.7617 56.8879 32.479 57.6092 33.3637 57.6092Z" fill="white"/>
<path d="M37.9418 57.6092C38.8264 57.6092 39.5437 56.8879 39.5437 55.9979C39.5437 55.1081 38.8264 54.3867 37.9418 54.3867C37.057 54.3867 36.3398 55.1081 36.3398 55.9979C36.3398 56.8879 37.057 57.6092 37.9418 57.6092Z" fill="white"/>
<path d="M42.6332 57.6092C43.518 57.6092 44.2351 56.8879 44.2351 55.9979C44.2351 55.1081 43.518 54.3867 42.6332 54.3867C41.7484 54.3867 41.0312 55.1081 41.0312 55.9979C41.0312 56.8879 41.7484 57.6092 42.6332 57.6092Z" fill="white"/>
<path d="M74.8993 89.1429L56.2482 89.0278C55.4471 89.0278 54.875 88.3372 54.875 87.6468C54.875 86.8411 55.5616 86.2656 56.2482 86.2656L74.8993 86.3807C75.7003 86.3807 76.2724 87.0713 76.2724 87.7618C76.2724 88.4523 75.7003 89.1429 74.8993 89.1429Z" fill="#FFF5F5"/>
<path d="M119.182 89.1429L97.67 89.0278C96.869 89.0278 96.2969 88.3372 96.2969 87.6468C96.2969 86.8411 96.9835 86.2656 97.67 86.2656L119.067 86.3807C119.868 86.3807 120.44 87.0713 120.44 87.7618C120.555 88.4523 119.983 89.1429 119.182 89.1429Z" fill="#FFF5F5"/>
<path d="M104.877 116.186L83.3652 116.071C82.5643 116.071 81.9922 115.38 81.9922 114.69C81.9922 113.884 82.6788 113.309 83.3652 113.309L104.877 113.424C105.678 113.424 106.25 114.114 106.25 114.805C106.25 115.61 105.564 116.186 104.877 116.186Z" fill="url(#paint0_linear_2648_24461)"/>
<path d="M91.606 89.0257L81.1933 88.9106C80.3924 88.9106 79.8203 88.2201 79.8203 87.5295C79.8203 86.7239 80.5068 86.1484 81.1933 86.1484L91.606 86.2635C92.4069 86.2635 92.979 86.9541 92.979 87.6446C93.0935 88.4502 92.4069 89.0257 91.606 89.0257Z" fill="#1B4A52"/>
<path d="M48.8129 88.9106H41.1465C40.3454 88.9106 39.7734 88.22 39.7734 87.5295C39.7734 86.7239 40.3454 86.1484 41.1465 86.1484H48.8129C49.6138 86.1484 50.186 86.839 50.186 87.5295C50.186 88.3351 49.6138 88.9106 48.8129 88.9106Z" fill="#1B4A52"/>
<path d="M78.5633 98.1193L67.3497 98.0042C66.5487 98.0042 65.9766 97.3138 65.9766 96.6232C65.9766 95.8177 66.6631 95.2422 67.3497 95.2422L78.5633 95.3573C79.3643 95.3573 79.9364 96.0477 79.9364 96.7383C80.0509 97.4289 79.3643 98.1193 78.5633 98.1193Z" fill="url(#paint1_linear_2648_24461)"/>
<path d="M113.345 98.3495L84.8536 98.0042C84.0526 98.0042 83.4805 97.3138 83.4805 96.6232C83.4805 95.8177 84.1671 95.2422 84.8536 95.2422L113.345 95.5875C114.146 95.5875 114.718 96.2779 114.718 96.9685C114.718 97.659 114.032 98.3495 113.345 98.3495Z" fill="#FFF5F5"/>
<path d="M59.9121 98.0042H41.1465C40.3454 98.0042 39.7734 97.3138 39.7734 96.6232C39.7734 95.8177 40.4599 95.2422 41.1465 95.2422H59.9121C60.7131 95.2422 61.2852 95.9328 61.2852 96.6232C61.2852 97.3138 60.7131 98.0042 59.9121 98.0042Z" fill="#FFF5F5"/>
<path d="M93.324 107.096L67.3497 106.981C66.5487 106.981 65.9766 106.29 65.9766 105.6C65.9766 104.794 66.6631 104.219 67.3497 104.219L93.4385 104.334C94.2395 104.334 94.8115 105.024 94.8115 105.715C94.8115 106.521 94.1251 107.096 93.324 107.096Z" fill="#1B4A52"/>
<path d="M59.9121 106.981H41.1465C40.3454 106.981 39.7734 106.29 39.7734 105.6C39.7734 104.794 40.4599 104.219 41.1465 104.219H59.9121C60.7131 104.219 61.2852 104.909 61.2852 105.6C61.2852 106.29 60.7131 106.981 59.9121 106.981Z" fill="#FFF5F5"/>
<path d="M76.1567 116.072L61.8536 115.957C61.0526 115.957 60.4805 115.267 60.4805 114.576C60.4805 113.771 61.167 113.195 61.8536 113.195L76.1567 113.31C76.9576 113.31 77.5298 114.001 77.5298 114.691C77.5298 115.497 76.9576 116.072 76.1567 116.072Z" fill="#FFF5F5"/>
<path d="M52.7034 115.957H41.1465C40.3454 115.957 39.7734 115.267 39.7734 114.576C39.7734 113.771 40.4599 113.195 41.1465 113.195H52.7034C53.5043 113.195 54.0764 113.886 54.0764 114.576C54.1909 115.382 53.5043 115.957 52.7034 115.957Z" fill="url(#paint2_linear_2648_24461)"/>
<path d="M93.7817 75.2149L41.1465 74.9847C40.3454 74.9847 39.7734 74.2941 39.7734 73.6037C39.7734 72.798 40.4599 72.2227 41.1465 72.2227L93.7817 72.4528C94.5827 72.4528 95.1549 73.1433 95.1549 73.8339C95.1549 74.6394 94.5827 75.2149 93.7817 75.2149Z" fill="url(#paint3_linear_2648_24461)"/>
<path d="M142.535 123.27C140.227 134.578 129.036 141.962 117.729 139.539C106.422 137.231 99.0378 126.039 101.461 114.73C103.768 103.422 114.96 96.0376 126.267 98.4608C130.305 99.2686 133.997 101.23 136.882 104.23C141.843 109.192 144.035 116.346 142.535 123.27Z" fill="#00B5D5"/>
<path d="M114.062 119.913C114.062 119.913 124.023 131.287 129.172 136.466C129.172 136.466 133.06 134.387 135.222 132.274C137.286 130.257 138.727 127.622 138.727 127.622L129.969 118.672H120.715L114.062 119.913Z" fill="#0DAECB"/>
<path fill-rule="evenodd" clip-rule="evenodd" d="M122 110.75C122.828 110.75 123.5 111.422 123.5 112.25V117.5H128.75C129.578 117.5 130.25 118.172 130.25 119C130.25 119.828 129.578 120.5 128.75 120.5H123.5V125.75C123.5 126.578 122.828 127.25 122 127.25C121.172 127.25 120.5 126.578 120.5 125.75V120.5H115.25C114.422 120.5 113.75 119.828 113.75 119C113.75 118.172 114.422 117.5 115.25 117.5H120.5V112.25C120.5 111.422 121.172 110.75 122 110.75Z" fill="white"/>
<path d="M115 26C116.105 26 117 25.1046 117 24C117 22.8955 116.105 22 115 22C113.895 22 113 22.8955 113 24C113 25.1046 113.895 26 115 26Z" fill="url(#paint4_linear_2648_24461)"/>
<path d="M18.0625 109.168C19.1671 109.168 20.0625 108.272 20.0625 107.168C20.0625 106.063 19.1671 105.168 18.0625 105.168C16.958 105.168 16.0625 106.063 16.0625 107.168C16.0625 108.272 16.958 109.168 18.0625 109.168Z" fill="url(#paint5_linear_2648_24461)"/>
<defs>
<filter id="filter0_d_2648_24461" x="25.1836" y="50.8164" width="112.242" height="83.7275" filterUnits="userSpaceOnUse" color-interpolation-filters="sRGB">
<feFlood flood-opacity="0" result="BackgroundImageFix"/>
<feColorMatrix in="SourceAlpha" type="matrix" values="0 0 0 0 0 0 0 0 0 0 0 0 0 0 0 0 0 0 127 0" result="hardAlpha"/>
<feOffset dx="2" dy="4"/>
<feGaussianBlur stdDeviation="2"/>
<feComposite in2="hardAlpha" operator="out"/>
<feColorMatrix type="matrix" values="0 0 0 0 0.0666667 0 0 0 0 0.0941176 0 0 0 0 0.152941 0 0 0 0.08 0"/>
<feBlend mode="normal" in2="BackgroundImageFix" result="effect1_dropShadow_2648_24461"/>
<feBlend mode="normal" in="SourceGraphic" in2="effect1_dropShadow_2648_24461" result="shape"/>
</filter>
<linearGradient id="paint0_linear_2648_24461" x1="81.9864" y1="114.713" x2="106.25" y2="114.713" gradientUnits="userSpaceOnUse">
<stop stop-color="#FF66A9"/>
<stop offset="1" stop-color="#F53689"/>
</linearGradient>
<linearGradient id="paint1_linear_2648_24461" x1="65.9819" y1="96.6292" x2="80.0048" y2="96.6292" gradientUnits="userSpaceOnUse">
<stop stop-color="#FF66A9"/>
<stop offset="1" stop-color="#F53689"/>
</linearGradient>
<linearGradient id="paint2_linear_2648_24461" x1="39.762" y1="114.534" x2="54.1479" y2="114.534" gradientUnits="userSpaceOnUse">
<stop stop-color="#FF66A9"/>
<stop offset="1" stop-color="#F53689"/>
</linearGradient>
<linearGradient id="paint3_linear_2648_24461" x1="40.5321" y1="73.6223" x2="57.9198" y2="97.296" gradientUnits="userSpaceOnUse">
<stop stop-color="#252424"/>
<stop offset="1" stop-color="#424242"/>
</linearGradient>
<linearGradient id="paint4_linear_2648_24461" x1="113.101" y1="23.9714" x2="116.982" y2="23.9714" gradientUnits="userSpaceOnUse">
<stop stop-color="#FF66A9"/>
<stop offset="1" stop-color="#F53689"/>
</linearGradient>
<linearGradient id="paint5_linear_2648_24461" x1="16.1618" y1="107.157" x2="20.0421" y2="107.157" gradientUnits="userSpaceOnUse">
<stop stop-color="#FF66A9"/>
<stop offset="1" stop-color="#F53689"/>
</linearGradient>
</defs>
</svg>
