<svg width="37" height="33" viewBox="0 0 37 33" fill="none" xmlns="http://www.w3.org/2000/svg">
<path opacity="0.4" d="M14.9534 31.6472L16.2827 28.8222C16.498 28.3726 16.5226 27.8574 16.3512 27.39C16.1798 26.9226 15.8263 26.5411 15.3685 26.3295C13.3037 25.412 11.761 24.2502 10.7403 22.8441C9.4482 21.0639 8.76644 18.6957 8.69502 15.7395H14.066C14.5616 15.7334 15.0344 15.5344 15.3806 15.1862C15.7268 14.838 15.918 14.369 15.9122 13.8825V2.58526C15.918 2.09897 15.727 1.63029 15.3812 1.28212C15.0354 0.933952 14.563 0.734747 14.0678 0.728241H2.84403C2.34853 0.734379 1.87578 0.933422 1.52966 1.28163C1.18354 1.62984 0.992378 2.09873 0.998173 2.58526L0.998173 11.4667C0.998173 15.8135 1.37862 19.2419 2.13952 21.7518C2.93506 24.322 4.38766 26.6494 6.35891 28.5122C8.15438 30.2186 10.2526 31.5881 12.5499 32.5533C12.7818 32.6545 13.0328 32.7069 13.2867 32.707C13.6386 32.7054 13.9827 32.6047 14.2781 32.4168C14.5735 32.229 14.8079 31.9619 14.9534 31.6472ZM35.4913 31.6394L36.8166 28.8222C37.032 28.3726 37.0566 27.8574 36.8852 27.39C36.7137 26.9225 36.3602 26.5411 35.9024 26.3295C33.838 25.412 32.2955 24.2502 31.275 22.8441C29.9829 21.0639 29.3012 18.6957 29.2297 15.7395H34.6022C35.0975 15.7331 35.5701 15.534 35.916 15.1858C36.2619 14.8376 36.453 14.3688 36.4472 13.8825L36.4472 2.58526C36.453 2.09887 36.2619 1.63011 35.916 1.28192C35.5701 0.933739 35.0975 0.7346 34.6022 0.728241H23.3785C22.8829 0.734306 22.4101 0.933315 22.0639 1.28153C21.7177 1.62975 21.5265 2.09868 21.5323 2.58526L21.5323 11.4667C21.5323 15.8478 21.9128 19.2848 22.6737 21.7779C23.4778 24.342 24.9395 26.6602 26.9185 28.5102C28.7109 30.2062 30.7981 31.5731 33.0814 32.5463C33.3135 32.6486 33.565 32.7016 33.8194 32.7017C34.1723 32.7 34.5174 32.5991 34.8137 32.4108C35.11 32.2225 35.3451 31.9548 35.4913 31.6394Z" fill="#B1CBCF"/>
<path d="M17.4127 22.2243L17.8874 21.2083C17.9643 21.0466 17.9731 20.8613 17.9118 20.6932C17.8506 20.5251 17.7244 20.3879 17.5609 20.3118C16.8235 19.9818 16.2726 19.564 15.9081 19.0583C15.4467 18.4181 15.2032 17.5664 15.1777 16.5031H17.0958C17.2727 16.501 17.4416 16.4294 17.5652 16.3042C17.6888 16.1789 17.7571 16.0103 17.7551 15.8353V11.7723C17.7571 11.5974 17.6889 11.4288 17.5654 11.3036C17.4419 11.1784 17.2732 11.1067 17.0964 11.1044H13.0882C12.9113 11.1066 12.7424 11.1782 12.6188 11.3034C12.4952 11.4287 12.427 11.5973 12.429 11.7723V14.9664C12.429 16.5298 12.5649 17.7628 12.8366 18.6654C13.1207 19.5898 13.6395 20.4269 14.3434 21.0968C14.9846 21.7105 15.7339 22.2031 16.5543 22.5502C16.6372 22.5866 16.7268 22.6054 16.8174 22.6055C16.9431 22.6049 17.066 22.5687 17.1715 22.5011C17.277 22.4335 17.3607 22.3375 17.4127 22.2243ZM24.7471 22.2215L25.2204 21.2083C25.2973 21.0466 25.3061 20.8613 25.2449 20.6932C25.1836 20.5251 25.0574 20.3879 24.8939 20.3118C24.1566 19.9818 23.6058 19.564 23.2414 19.0583C22.7799 18.4181 22.5365 17.5664 22.511 16.5031H24.4296C24.6065 16.5009 24.7752 16.4292 24.8987 16.304C25.0223 16.1788 25.0905 16.0102 25.0884 15.8353V11.7723C25.0905 11.5973 25.0223 11.4288 24.8987 11.3035C24.7752 11.1783 24.6065 11.1067 24.4296 11.1044H20.4214C20.2444 11.1066 20.0756 11.1782 19.9519 11.3034C19.8283 11.4286 19.76 11.5973 19.7621 11.7723V14.9664C19.7621 16.5421 19.898 17.7782 20.1697 18.6748C20.4569 19.597 20.9789 20.4308 21.6856 21.0961C22.3257 21.706 23.0711 22.1977 23.8865 22.5477C23.9694 22.5845 24.0592 22.6035 24.15 22.6036C24.276 22.603 24.3993 22.5666 24.5051 22.4989C24.6109 22.4312 24.6949 22.3349 24.7471 22.2215Z" fill="#00B5D5"/>
</svg>
