<svg width="56" height="56" viewBox="0 0 56 56" fill="none" xmlns="http://www.w3.org/2000/svg">
<g clip-path="url(#clip0_1145_9269)">
<path d="M30.8233 46.34C30.6204 46.341 30.4203 46.293 30.2399 46.2C27.1436 44.7074 24.3754 42.6134 22.0966 40.04C21.8919 39.7899 21.78 39.4766 21.78 39.1533C21.78 38.8301 21.8919 38.5168 22.0966 38.2667C22.3766 37.94 28.5366 30.6133 36.4233 30.6133C37.4197 30.6194 38.4128 30.7289 39.3866 30.94C39.5659 30.9813 39.7353 31.0575 39.8852 31.1643C40.035 31.2711 40.1623 31.4063 40.2598 31.5624C40.3574 31.7184 40.4232 31.8921 40.4535 32.0736C40.4838 32.2551 40.4781 32.4408 40.4366 32.62C40.3477 32.9754 40.1273 33.2839 39.8198 33.4831C39.5123 33.6823 39.1407 33.7575 38.7799 33.6933C32.6899 32.3167 27.1133 37.0767 25.0833 39.1533C26.9174 41.0181 29.0557 42.5568 31.4066 43.7033C31.574 43.7811 31.7243 43.8911 31.849 44.0271C31.9736 44.1632 32.0702 44.3225 32.1331 44.496C32.196 44.6695 32.2239 44.8536 32.2154 45.038C32.2068 45.2223 32.1619 45.4031 32.0833 45.57C31.9681 45.8048 31.7884 46.0019 31.5652 46.1382C31.3421 46.2746 31.0847 46.3446 30.8233 46.34Z" fill="#FF6961"/>
<path d="M36.4233 47.6467C35.9333 47.6467 35.4666 47.6467 34.9766 47.6467C34.6053 47.6033 34.2664 47.4143 34.0345 47.1211C33.8026 46.8279 33.6967 46.4546 33.74 46.0833C33.7833 45.712 33.9723 45.3731 34.2655 45.1412C34.5587 44.9093 34.932 44.8033 35.3033 44.8467H36.4233C41.51 44.8467 45.9666 40.9267 47.7633 39.1067C46.2229 37.5248 44.4626 36.1731 42.5366 35.0933C42.213 34.9158 41.9725 34.6176 41.8676 34.2636C41.7627 33.9096 41.8019 33.5285 41.9766 33.2033C42.0645 33.04 42.184 32.8957 42.3281 32.779C42.4723 32.6622 42.6382 32.5753 42.8162 32.5232C42.9942 32.4711 43.1808 32.4549 43.3651 32.4755C43.5495 32.4961 43.7279 32.5532 43.89 32.6433C46.4796 34.0949 48.8001 35.9814 50.75 38.22C50.9547 38.4701 51.0665 38.7834 51.0665 39.1067C51.0665 39.4299 50.9547 39.7432 50.75 39.9933C50.4933 40.32 44.3333 47.6467 36.4233 47.6467Z" fill="#FF6961"/>
<path d="M33.4367 42.0233C33.0722 42.0172 32.7229 41.8758 32.4567 41.6267C31.6523 40.8358 31.1009 39.8238 30.8725 38.7191C30.6442 37.6144 30.7491 36.4667 31.1741 35.4217C31.5991 34.3768 32.3249 33.4816 33.2595 32.8498C34.1941 32.2181 35.2953 31.8782 36.4234 31.8733C37.2721 31.8703 38.1103 32.0619 38.8734 32.4333C39.0477 32.5074 39.2052 32.616 39.3364 32.7527C39.4675 32.8893 39.5696 33.0512 39.6363 33.2284C39.7031 33.4057 39.7332 33.5946 39.7248 33.7839C39.7164 33.9731 39.6698 34.1586 39.5876 34.3293C39.5054 34.5 39.3895 34.6522 39.2468 34.7767C39.1041 34.9013 38.9376 34.9956 38.7574 35.0539C38.5772 35.1122 38.387 35.1334 38.1984 35.1161C38.0098 35.0988 37.8267 35.0434 37.6601 34.9533C37.2752 34.7651 36.8518 34.6692 36.4234 34.6733C35.6601 34.6795 34.9301 34.987 34.3926 35.529C33.855 36.0709 33.5534 36.8033 33.5534 37.5667C33.5519 37.9494 33.6276 38.3285 33.7759 38.6813C33.9242 39.0341 34.1422 39.3533 34.4167 39.62C34.5472 39.7501 34.6508 39.9046 34.7215 40.0748C34.7921 40.245 34.8285 40.4274 34.8285 40.6117C34.8285 40.7959 34.7921 40.9784 34.7215 41.1485C34.6508 41.3187 34.5472 41.4733 34.4167 41.6033C34.2903 41.736 34.1383 41.8417 33.9698 41.9139C33.8014 41.9861 33.62 42.0233 33.4367 42.0233Z" fill="#FF6961"/>
<path d="M37.7767 43.68C37.4393 43.6726 37.1159 43.5436 36.8661 43.3167C36.6162 43.0899 36.4567 42.7804 36.417 42.4453C36.3772 42.1101 36.4599 41.7719 36.6497 41.4929C36.8395 41.2138 37.1237 41.0127 37.45 40.9266C38.1903 40.7419 38.8277 40.2723 39.2234 39.62C39.4199 39.2984 39.5501 38.9407 39.6062 38.568C39.6623 38.1953 39.6432 37.8152 39.55 37.45C39.4657 37.085 39.5287 36.7015 39.7252 36.3827C39.9218 36.0638 40.2361 35.8353 40.6 35.7466C40.9588 35.6621 41.3365 35.7225 41.651 35.9148C41.9655 36.107 42.1916 36.4155 42.28 36.7733C42.635 38.245 42.3916 39.7974 41.6034 41.09C41.2188 41.7257 40.7111 42.2781 40.1101 42.7149C39.509 43.1516 38.8268 43.4639 38.1034 43.6333C37.999 43.6716 37.8877 43.6875 37.7767 43.68Z" fill="#FF6961"/>
<path d="M23.9634 20.7667C22.4487 20.7667 20.9681 20.3172 19.709 19.4752C18.4499 18.6332 17.469 17.4366 16.8904 16.0367C16.3118 14.6369 16.1616 13.0969 16.4588 11.6117C16.756 10.1264 17.4873 8.76278 18.5599 7.69338C19.6326 6.62398 20.9985 5.89691 22.4846 5.60425C23.9708 5.31158 25.5103 5.46648 26.9084 6.04932C28.3064 6.63216 29.5001 7.61674 30.3382 8.87839C31.1764 10.14 31.6213 11.622 31.6167 13.1367C31.6105 15.1624 30.8015 17.1031 29.3668 18.5333C27.9322 19.9636 25.9891 20.7667 23.9634 20.7667ZM23.9634 8.28336C23.0035 8.28336 22.0651 8.568 21.267 9.10129C20.4689 9.63458 19.8468 10.3926 19.4795 11.2794C19.1121 12.1662 19.016 13.1421 19.2033 14.0835C19.3905 15.025 19.8528 15.8898 20.5315 16.5685C21.2103 17.2473 22.0751 17.7095 23.0165 17.8968C23.958 18.084 24.9338 17.9879 25.8207 17.6206C26.7075 17.2533 27.4655 16.6312 27.9988 15.8331C28.532 15.0349 28.8167 14.0966 28.8167 13.1367C28.8167 11.8495 28.3054 10.615 27.3952 9.70487C26.485 8.79469 25.2505 8.28336 23.9634 8.28336Z" fill="#1B4A52"/>
<path d="M19.1101 43.82H18.8067C14.1592 42.8398 9.90058 40.5199 6.55674 37.1466C6.37226 36.9701 6.2415 36.7449 6.17957 36.4972C6.11763 36.2495 6.12705 35.9893 6.20674 35.7467C6.87067 32.6466 8.3359 29.7749 10.4562 27.418C12.5766 25.061 15.2779 23.3013 18.2907 22.3144C21.3035 21.3274 24.5224 21.1477 27.6263 21.7933C30.7302 22.4388 33.6106 23.887 35.9801 25.9933C36.2491 26.2465 36.411 26.593 36.4327 26.9618C36.4544 27.3306 36.3342 27.6937 36.0967 27.9767C35.9745 28.1151 35.8261 28.228 35.6601 28.3089C35.4941 28.3897 35.3137 28.4369 35.1294 28.4478C34.945 28.4586 34.7603 28.4329 34.586 28.372C34.4116 28.3112 34.251 28.2165 34.1134 28.0933C32.1531 26.3517 29.7787 25.142 27.2174 24.58C24.6561 24.018 21.9934 24.1223 19.484 24.8831C16.9745 25.6439 14.7022 27.0357 12.8842 28.9255C11.0661 30.8152 9.76327 33.1397 9.10007 35.6767C11.9758 38.3714 15.5344 40.2274 19.3901 41.0433C19.5706 41.0792 19.742 41.151 19.8943 41.2543C20.0466 41.3577 20.1766 41.4905 20.2767 41.6449C20.3767 41.7994 20.4448 41.9723 20.4769 42.1536C20.509 42.3348 20.5044 42.5206 20.4634 42.7C20.3956 43.0112 20.2255 43.2906 19.9801 43.4937C19.7348 43.6967 19.4284 43.8116 19.1101 43.82Z" fill="#1B4A52"/>
<path d="M28.9566 50.4C28.6822 50.4021 28.4137 50.3207 28.1866 50.1666C27.8776 49.962 27.6624 49.6433 27.588 49.2803C27.5137 48.9173 27.5863 48.5396 27.7899 48.23L41.9999 26.6933C42.0959 26.5289 42.2243 26.3857 42.3774 26.2726C42.5306 26.1595 42.7051 26.0788 42.8905 26.0355C43.0759 25.9921 43.2681 25.9871 43.4555 26.0206C43.6429 26.054 43.8215 26.1254 43.9804 26.2303C44.1393 26.3351 44.2751 26.4713 44.3796 26.6304C44.4841 26.7896 44.555 26.9684 44.588 27.1558C44.621 27.3433 44.6155 27.5356 44.5717 27.7208C44.5279 27.9061 44.4468 28.0805 44.3333 28.2333L30.0766 49.77C29.9538 49.9568 29.788 50.1115 29.5932 50.2211C29.3983 50.3307 29.18 50.392 28.9566 50.4Z" fill="#FF6961"/>
</g>
<defs>
<clipPath id="clip0_1145_9269">
<rect width="56" height="56" fill="white"/>
</clipPath>
</defs>
</svg>
