<svg width="56" height="56" viewBox="0 0 56 56" fill="none" xmlns="http://www.w3.org/2000/svg">
<g clip-path="url(#clip0_1138_9355)">
<path d="M48.0899 26.8567H32.6666C32.2953 26.8567 31.9392 26.7092 31.6767 26.4466C31.4141 26.1841 31.2666 25.828 31.2666 25.4567V13.3467C31.2666 13.1639 31.3029 12.9829 31.3736 12.8144C31.4442 12.6458 31.5477 12.493 31.678 12.3649C31.8083 12.2367 31.9629 12.1358 32.1326 12.068C32.3023 12.0002 32.4839 11.9669 32.6666 11.97H48.0899C48.2727 11.9669 48.4542 12.0002 48.6239 12.068C48.7937 12.1358 48.9482 12.2367 49.0785 12.3649C49.2088 12.493 49.3123 12.6458 49.383 12.8144C49.4536 12.9829 49.49 13.1639 49.4899 13.3467V25.55C49.4662 25.9049 49.3083 26.2374 49.0483 26.4801C48.7883 26.7228 48.4456 26.8574 48.0899 26.8567ZM34.0899 24.0567H46.6666V14.7233H34.0666L34.0899 24.0567Z" fill="#FF6961"/>
<path d="M45.4766 12.8567C45.2927 12.8567 45.1107 12.8205 44.9408 12.7501C44.771 12.6797 44.6166 12.5766 44.4866 12.4466C44.3566 12.3166 44.2535 12.1623 44.1832 11.9924C44.1128 11.8226 44.0766 11.6405 44.0766 11.4567C44.0766 10.4046 43.6587 9.39571 42.9148 8.65181C42.1709 7.90792 41.162 7.49 40.1099 7.49C39.0579 7.49 38.049 7.90792 37.3051 8.65181C36.5612 9.39571 36.1433 10.4046 36.1433 11.4567C36.1433 11.828 35.9958 12.1841 35.7332 12.4466C35.4707 12.7092 35.1146 12.8567 34.7433 12.8567C34.372 12.8567 34.0159 12.7092 33.7533 12.4466C33.4908 12.1841 33.3433 11.828 33.3433 11.4567C33.3433 9.66204 34.0562 7.94091 35.3252 6.67191C36.5942 5.40292 38.3153 4.69 40.1099 4.69C41.9046 4.69 43.6257 5.40292 44.8947 6.67191C46.1637 7.94091 46.8766 9.66204 46.8766 11.4567C46.8766 11.6405 46.8404 11.8226 46.77 11.9924C46.6997 12.1623 46.5965 12.3166 46.4665 12.4466C46.3365 12.5766 46.1822 12.6797 46.0124 12.7501C45.8425 12.8205 45.6604 12.8567 45.4766 12.8567Z" fill="#FF6961"/>
<path d="M40.3902 21.3033C41.4083 21.3033 42.2335 20.478 42.2335 19.46C42.2335 18.4419 41.4083 17.6166 40.3902 17.6166C39.3722 17.6166 38.5469 18.4419 38.5469 19.46C38.5469 20.478 39.3722 21.3033 40.3902 21.3033Z" fill="#FF6961"/>
<path d="M44.5198 49.6066C44.2747 49.6028 44.0343 49.5387 43.8198 49.42L34.1365 43.75H9.86983C8.57646 43.75 7.33606 43.2362 6.42151 42.3216C5.50695 41.4071 4.99316 40.1667 4.99316 38.8733V24.15C4.99316 22.8566 5.50695 21.6162 6.42151 20.7017C7.33606 19.7871 8.57646 19.2733 9.86983 19.2733H27.4165C27.7878 19.2733 28.1439 19.4208 28.4065 19.6834C28.669 19.9459 28.8165 20.302 28.8165 20.6733C28.8165 21.0446 28.669 21.4007 28.4065 21.6633C28.1439 21.9258 27.7878 22.0733 27.4165 22.0733H9.86983C9.31907 22.0733 8.79086 22.2921 8.40141 22.6816C8.01196 23.071 7.79316 23.5992 7.79316 24.15V38.8733C7.79316 39.4241 8.01196 39.9523 8.40141 40.3417C8.79086 40.7312 9.31907 40.95 9.86983 40.95H34.5098C34.7554 40.9508 34.9965 41.0151 35.2098 41.1366L41.4398 44.7766L37.9165 37.03C37.8422 36.8443 37.8027 36.6466 37.7998 36.4466V29.4466C37.7998 29.0753 37.9473 28.7193 38.2099 28.4567C38.4724 28.1942 38.8285 28.0466 39.1998 28.0466C39.5711 28.0466 39.9272 28.1942 40.1898 28.4567C40.4523 28.7193 40.5998 29.0753 40.5998 29.4466V36.19L45.8032 47.67C45.9209 47.945 45.9504 48.2498 45.8877 48.5423C45.8251 48.8348 45.6732 49.1007 45.4532 49.3033C45.1889 49.5137 44.8574 49.6215 44.5198 49.6066Z" fill="#1B4A52"/>
<path d="M26.7865 28.8634H11.3165C10.9452 28.8634 10.5891 28.7159 10.3266 28.4533C10.064 28.1908 9.9165 27.8347 9.9165 27.4634C9.9165 27.092 10.064 26.736 10.3266 26.4734C10.5891 26.2109 10.9452 26.0634 11.3165 26.0634H26.7865C27.1578 26.0634 27.5139 26.2109 27.7765 26.4734C28.039 26.736 28.1865 27.092 28.1865 27.4634C28.1865 27.8347 28.039 28.1908 27.7765 28.4533C27.5139 28.7159 27.1578 28.8634 26.7865 28.8634Z" fill="#1B4A52"/>
<path d="M32.4098 35.91H11.4098C11.0385 35.91 10.6824 35.7625 10.4198 35.4999C10.1573 35.2374 10.0098 34.8813 10.0098 34.51C10.0098 34.1387 10.1573 33.7826 10.4198 33.52C10.6824 33.2575 11.0385 33.11 11.4098 33.11H32.4098C32.7811 33.11 33.1372 33.2575 33.3997 33.52C33.6623 33.7826 33.8098 34.1387 33.8098 34.51C33.8098 34.8813 33.6623 35.2374 33.3997 35.4999C33.1372 35.7625 32.7811 35.91 32.4098 35.91Z" fill="#1B4A52"/>
</g>
<defs>
<clipPath id="clip0_1138_9355">
<rect width="56" height="56" fill="white"/>
</clipPath>
</defs>
</svg>
