<svg width="56" height="56" viewBox="0 0 56 56" fill="none" xmlns="http://www.w3.org/2000/svg">
<circle opacity="0.1" cx="28" cy="28" r="28" fill="#1B4A52"/>
<path d="M25.2402 36.2251C22.8669 36.2251 20.5468 35.5213 18.5734 34.2027C16.6 32.8842 15.0619 31.01 14.1537 28.8173C13.2454 26.6246 13.0078 24.2118 13.4708 21.884C13.9338 19.5562 15.0767 17.418 16.755 15.7398C18.4332 14.0616 20.5714 12.9187 22.8991 12.4557C25.2269 11.9927 27.6397 12.2303 29.8324 13.1385C32.0251 14.0468 33.8993 15.5849 35.2179 17.5583C36.5364 19.5316 37.2402 21.8517 37.2402 24.2251C37.2428 26.3355 36.6781 28.4078 35.6052 30.2251C35.5647 30.3552 35.4951 30.4743 35.4017 30.5735C35.3084 30.6728 35.1938 30.7496 35.0665 30.7981C34.9391 30.8465 34.8025 30.8655 34.6668 30.8535C34.5311 30.8415 34.3999 30.7988 34.283 30.7287C34.1662 30.6587 34.0668 30.563 33.9924 30.4489C33.9179 30.3348 33.8703 30.2053 33.8532 30.0701C33.8361 29.935 33.8499 29.7977 33.8936 29.6686C33.9372 29.5396 34.0096 29.4221 34.1052 29.3251C35.353 27.2057 35.7904 24.706 35.3366 22.2888C34.8827 19.8717 33.5683 17.7008 31.6368 16.1784C29.7053 14.6559 27.2875 13.885 24.8312 14.0083C22.3749 14.1317 20.0465 15.1409 18.2772 16.8492C16.5079 18.5575 15.4176 20.8491 15.2082 23.2995C14.9988 25.75 15.6844 28.1933 17.1382 30.1771C18.592 32.1608 20.7153 33.5505 23.1151 34.0889C25.5148 34.6272 28.0284 34.2777 30.1902 33.1051C30.3993 32.9928 30.6443 32.9676 30.8718 33.035C31.0994 33.1024 31.2911 33.257 31.4052 33.4651C31.5183 33.6764 31.5439 33.9237 31.4765 34.1537C31.4092 34.3837 31.2544 34.5781 31.0452 34.6951C29.2711 35.6887 27.2736 36.2152 25.2402 36.2251Z" fill="#1B4A52"/>
<path d="M25.5852 24.54C24.8211 24.5311 24.0768 24.2963 23.446 23.865C22.8152 23.4337 22.3262 22.8254 22.0407 22.1166C21.7551 21.4078 21.6857 20.6304 21.8413 19.8823C21.9969 19.1342 22.3705 18.4489 22.9149 17.9127C23.4594 17.3766 24.1504 17.0137 24.9009 16.8696C25.6513 16.7256 26.4276 16.807 27.1318 17.1035C27.8361 17.4 28.4368 17.8983 28.8583 18.5357C29.2798 19.173 29.5031 19.9209 29.5002 20.685C29.4983 21.1958 29.3952 21.7011 29.1971 22.1719C28.9989 22.6426 28.7095 23.0695 28.3455 23.4278C27.9816 23.7862 27.5503 24.069 27.0766 24.2599C26.6028 24.4508 26.096 24.546 25.5852 24.54ZM25.5852 18.54C25.2996 18.5157 25.012 18.5509 24.7407 18.6434C24.4694 18.736 24.2203 18.884 24.0091 19.0779C23.7979 19.2717 23.6294 19.5074 23.514 19.7699C23.3987 20.0323 23.3392 20.3159 23.3392 20.6025C23.3392 20.8892 23.3987 21.1728 23.514 21.4352C23.6294 21.6977 23.7979 21.9333 24.0091 22.1272C24.2203 22.3211 24.4694 22.469 24.7407 22.5616C25.012 22.6542 25.2996 22.6894 25.5852 22.665C26.1019 22.6209 26.5832 22.3845 26.9339 22.0026C27.2846 21.6207 27.4792 21.1211 27.4792 20.6025C27.4792 20.084 27.2846 19.5844 26.9339 19.2024C26.5832 18.8205 26.1019 18.5841 25.5852 18.54Z" fill="#1B4A52"/>
<path d="M17.8002 33.3148H17.6202C17.5038 33.2915 17.3931 33.2455 17.2945 33.1793C17.196 33.1131 17.1115 33.028 17.046 32.929C16.9805 32.83 16.9352 32.7191 16.9127 32.6025C16.8903 32.4859 16.8911 32.3661 16.9152 32.2498C17.277 30.4143 18.2121 28.741 19.5859 27.471C20.9596 26.2011 22.7011 25.3999 24.5593 25.1831C26.4175 24.9662 28.2966 25.3449 29.9259 26.2644C31.5551 27.1839 32.8504 28.5969 33.6252 30.2998C33.7146 30.515 33.717 30.7565 33.632 30.9735C33.547 31.1904 33.3811 31.366 33.1693 31.4631C32.9575 31.5603 32.7162 31.5715 32.4963 31.4944C32.2764 31.4173 32.095 31.2579 31.9902 31.0498C31.3734 29.6965 30.3445 28.5728 29.0505 27.8396C27.7566 27.1064 26.2639 26.8012 24.786 26.9677C23.3081 27.1341 21.9207 27.7636 20.8222 28.7663C19.7237 29.7689 18.9705 31.0932 18.6702 32.5498C18.6413 32.7606 18.5375 32.9539 18.3777 33.0944C18.2179 33.2349 18.0129 33.3132 17.8002 33.3148Z" fill="#1B4A52"/>
<path d="M36.2649 41.8649C34.9678 41.8649 33.6999 41.4801 32.6216 40.7591C31.5433 40.0382 30.7032 39.0135 30.2075 37.8149C29.7118 36.6163 29.5829 35.2975 29.837 34.0255C30.0912 32.7536 30.717 31.5856 31.6352 30.6695C32.5534 29.7534 33.7228 29.1302 34.9954 28.879C36.2679 28.6278 37.5863 28.7597 38.7839 29.2582C39.9814 29.7566 41.0041 30.5991 41.7225 31.679C42.441 32.759 42.8229 34.0278 42.82 35.3249C42.816 37.0608 42.1236 38.7242 40.8947 39.9503C39.6659 41.1763 38.0008 41.8649 36.2649 41.8649ZM36.2649 30.5699C35.3245 30.5699 34.4052 30.8488 33.6232 31.3712C32.8413 31.8937 32.2318 32.6364 31.8719 33.5052C31.512 34.3741 31.4178 35.3302 31.6013 36.2525C31.7848 37.1749 32.2377 38.0222 32.9027 38.6872C33.5677 39.3522 34.4149 39.805 35.3373 39.9885C36.2597 40.172 37.2158 40.0778 38.0846 39.7179C38.9535 39.358 39.6961 38.7486 40.2186 37.9666C40.7411 37.1847 41.0199 36.2653 41.0199 35.3249C41.0199 34.0638 40.519 32.8543 39.6272 31.9626C38.7355 31.0709 37.526 30.5699 36.2649 30.5699Z" fill="#FF6961"/>
<path d="M36.2651 33.615C36.1483 33.617 36.0323 33.5955 35.924 33.5518C35.8157 33.508 35.7173 33.4429 35.6347 33.3603C35.5521 33.2777 35.4871 33.1793 35.4433 33.0711C35.3995 32.9628 35.378 32.8468 35.3801 32.73V32.535C35.3636 32.4081 35.3743 32.2791 35.4116 32.1567C35.449 32.0343 35.512 31.9212 35.5964 31.8251C35.6809 31.7289 35.7849 31.6519 35.9015 31.5991C36.0181 31.5463 36.1446 31.519 36.2726 31.519C36.4005 31.519 36.5271 31.5463 36.6436 31.5991C36.7602 31.6519 36.8642 31.7289 36.9487 31.8251C37.0332 31.9212 37.0962 32.0343 37.1335 32.1567C37.1708 32.2791 37.1816 32.4081 37.1651 32.535V32.73C37.1651 32.8475 37.1417 32.9638 37.0963 33.0722C37.0509 33.1805 36.9843 33.2788 36.9006 33.3611C36.8168 33.4435 36.7175 33.5084 36.6084 33.552C36.4992 33.5956 36.3825 33.617 36.2651 33.615Z" fill="#FF6961"/>
<path d="M36.2651 38.715C36.1476 38.715 36.0312 38.6917 35.9229 38.6463C35.8145 38.6008 35.7163 38.5343 35.6339 38.4505C35.5515 38.3668 35.4867 38.2674 35.4431 38.1583C35.3995 38.0492 35.3781 37.9325 35.3801 37.815V35.325C35.3636 35.1981 35.3743 35.0691 35.4116 34.9467C35.449 34.8243 35.512 34.7112 35.5964 34.6151C35.6809 34.5189 35.7849 34.4419 35.9015 34.3891C36.0181 34.3364 36.1446 34.3091 36.2726 34.3091C36.4005 34.3091 36.5271 34.3364 36.6436 34.3891C36.7602 34.4419 36.8642 34.5189 36.9487 34.6151C37.0332 34.7112 37.0962 34.8243 37.1335 34.9467C37.1708 35.0691 37.1816 35.1981 37.1651 35.325V37.815C37.1651 37.9332 37.1418 38.0502 37.0966 38.1594C37.0513 38.2686 36.985 38.3679 36.9015 38.4514C36.8179 38.535 36.7187 38.6013 36.6095 38.6465C36.5003 38.6917 36.3832 38.715 36.2651 38.715Z" fill="#FF6961"/>
</svg>
