<svg width="56" height="56" viewBox="0 0 56 56" fill="none" xmlns="http://www.w3.org/2000/svg">
<circle opacity="0.1" cx="28" cy="28" r="28" fill="#B8A7FF"/>
<g clip-path="url(#clip0_292_5306)">
<path d="M39.8248 37.8699C39.7066 37.8699 39.5896 37.8466 39.4804 37.8014C39.3712 37.7562 39.272 37.6899 39.1884 37.6063C39.1048 37.5227 39.0385 37.4235 38.9933 37.3143C38.9481 37.2051 38.9248 37.0881 38.9248 36.9699V22.1949C38.9248 21.9562 39.0196 21.7273 39.1884 21.5585C39.3572 21.3897 39.5861 21.2949 39.8248 21.2949C40.0635 21.2949 40.2924 21.3897 40.4612 21.5585C40.63 21.7273 40.7248 21.9562 40.7248 22.1949V36.9699C40.7248 37.2086 40.63 37.4375 40.4612 37.6063C40.2924 37.7751 40.0635 37.8699 39.8248 37.8699Z" fill="#FF6961"/>
<path d="M39.8248 43.0002C39.5861 43.0002 39.3572 42.9054 39.1884 42.7366C39.0196 42.5678 38.9248 42.3389 38.9248 42.1002V39.2652C38.9248 39.0265 39.0196 38.7976 39.1884 38.6288C39.3572 38.4601 39.5861 38.3652 39.8248 38.3652C40.0635 38.3652 40.2924 38.4601 40.4612 38.6288C40.63 38.7976 40.7248 39.0265 40.7248 39.2652V42.1002C40.7248 42.3389 40.63 42.5678 40.4612 42.7366C40.2924 42.9054 40.0635 43.0002 39.8248 43.0002Z" fill="#FF6961"/>
<path d="M27 30.0699C26.8765 30.0666 26.7546 30.0412 26.64 29.9949L12.6 23.7849C12.4317 23.7235 12.2851 23.614 12.1784 23.47C12.0717 23.326 12.0097 23.1539 12 22.9749C12.0009 22.8038 12.049 22.6362 12.1389 22.4907C12.2289 22.3451 12.3573 22.2272 12.51 22.1499L26.55 15.2949C26.6671 15.239 26.7952 15.21 26.925 15.21C27.0548 15.21 27.1829 15.239 27.3 15.2949L41.34 21.2949C41.495 21.3682 41.6272 21.4824 41.7223 21.625C41.8175 21.7677 41.872 21.9336 41.88 22.1049C41.8805 22.2745 41.8347 22.441 41.7475 22.5864C41.6602 22.7318 41.5349 22.8506 41.385 22.9299L27.345 29.9049C27.2448 29.9867 27.1265 30.0433 27 30.0699ZM15.105 22.9149L27 28.1649L38.91 22.2399L27 17.0949L15.105 22.9149Z" fill="#1B4A52"/>
<path d="M27.0001 39.385C22.7401 39.385 18.9901 37.75 17.1601 35.065C17.0546 34.9157 16.997 34.7378 16.9951 34.555V25.15C16.9951 24.9113 17.0899 24.6824 17.2587 24.5136C17.4275 24.3448 17.6564 24.25 17.8951 24.25C18.1338 24.25 18.3627 24.3448 18.5315 24.5136C18.7003 24.6824 18.7951 24.9113 18.7951 25.15V34.27C19.8267 35.4024 21.0997 36.2883 22.52 36.8621C23.9403 37.4359 25.4714 37.683 27.0001 37.585H27.3001C30.7951 37.585 33.7801 36.265 35.1751 34.285V25.15C35.1751 24.9113 35.2699 24.6824 35.4387 24.5136C35.6075 24.3448 35.8364 24.25 36.0751 24.25C36.3138 24.25 36.5427 24.3448 36.7115 24.5136C36.8803 24.6824 36.9751 24.9113 36.9751 25.15V34.555C36.9735 34.7263 36.9213 34.8933 36.8251 35.035C35.1901 37.63 31.5601 39.295 27.3301 39.385H27.0001Z" fill="#1B4A52"/>
<path d="M39.825 40.5698C39.5848 40.5727 39.3532 40.4811 39.18 40.3148L37.995 39.1298C37.8291 38.959 37.7363 38.7303 37.7363 38.4923C37.7363 38.2542 37.8291 38.0255 37.995 37.8548L39.18 36.6698C39.3507 36.5039 39.5794 36.4111 39.8175 36.4111C40.0555 36.4111 40.2842 36.5039 40.455 36.6698L41.64 37.8548C41.7257 37.9373 41.7939 38.0363 41.8405 38.1459C41.8871 38.2554 41.9111 38.3732 41.9111 38.4923C41.9111 38.6113 41.8871 38.7291 41.8405 38.8386C41.7939 38.9482 41.7257 39.0472 41.64 39.1298L40.455 40.3148C40.3719 40.3967 40.2735 40.4614 40.1654 40.5052C40.0573 40.5489 39.9416 40.5709 39.825 40.5698Z" fill="#FF6961"/>
</g>
<defs>
<clipPath id="clip0_292_5306">
<rect width="36" height="36" fill="white" transform="translate(9 10)"/>
</clipPath>
</defs>
</svg>
