<svg width="56" height="56" viewBox="0 0 56 56" fill="none" xmlns="http://www.w3.org/2000/svg">
<circle opacity="0.1" cx="28" cy="28" r="28" fill="#E2504B"/>
<path d="M32.4216 18C32.6367 18 32.8514 18.0205 33.0632 18.058C33.3837 18.1146 33.7049 18.1692 34.0202 18.2488C37.2024 19.0366 39.5815 21.7763 39.948 25.0634C40.1842 27.1307 39.6098 29.2093 38.3476 30.8551C37.0853 32.501 35.2352 33.5837 33.1924 33.8721C32.8589 33.9181 32.5223 33.9384 32.1856 33.9328C31.978 33.9328 31.865 33.996 31.7619 34.1781C30.8977 35.7079 30.0231 37.2323 29.1514 38.7566C29.1123 38.825 29.0074 38.796 29.0074 38.7172V31.7124C29.0074 31.5732 29.1203 31.4604 29.2595 31.4604C30.2286 31.4604 31.1987 31.4604 32.1699 31.4604C34.8262 31.4564 37.193 29.3264 37.4909 26.6723C37.8288 23.6585 35.8631 21.0363 32.8925 20.5471C32.6329 20.5064 32.3705 20.4861 32.1077 20.4863C31.488 20.4824 30.8682 20.4823 30.2419 20.4829C29.556 20.4835 29 19.9278 29 19.2419C29 18.556 29.556 18 30.2419 18H32.4216Z" fill="#E2504B"/>
<path d="M25.7548 18C26.4425 18 27 18.5575 27 19.2452C27 19.9329 26.4425 20.4904 25.7548 20.4904H23.9119C21.1187 20.4904 18.7191 22.682 18.4837 25.4468C18.2374 28.333 20.1248 30.8763 22.9081 31.3982C23.2304 31.4577 23.5572 31.4889 23.8848 31.4915C24.3467 31.4969 24.8087 31.4984 25.2727 31.4983C26.2155 31.4982 26.9798 32.2603 26.9798 33.2032V33.915C26.9798 33.9358 26.9768 33.9707 26.9562 33.969C25.4101 33.9395 23.8532 34.1272 22.319 33.8258C19.0472 33.1831 16.486 30.4008 16.0659 27.0486C15.5271 22.7698 18.3473 18.8762 22.5357 18.1168C22.6848 18.0898 22.8345 18.0664 22.9841 18.0431C23.167 18.0147 23.3517 18 23.5368 18H25.7548Z" fill="#E2504B"/>
</svg>
