<svg width="56" height="56" viewBox="0 0 56 56" fill="none" xmlns="http://www.w3.org/2000/svg">
<path d="M37.21 41.0799H17.5C16.4045 41.0919 15.349 40.6693 14.5645 39.9045C13.7801 39.1398 13.3308 38.0953 13.3149 36.9999V19.7949C13.3169 19.248 13.4268 18.7068 13.6384 18.2025C13.85 17.6982 14.159 17.2405 14.5478 16.8559C14.9366 16.4713 15.3975 16.1672 15.9041 15.9611C16.4107 15.755 16.9531 15.6509 17.5 15.6549H38.1099C39.2067 15.6588 40.2574 16.0963 41.033 16.8718C41.8085 17.6474 42.246 18.6981 42.25 19.7949V36.0999C42.248 36.7584 42.1159 37.41 41.8612 38.0172C41.6065 38.6245 41.2341 39.1754 40.7657 39.6382C40.2973 40.101 39.742 40.4667 39.1318 40.7141C38.5216 40.9615 37.8684 41.0858 37.21 41.0799ZM17.5 17.4999C17.1927 17.4999 16.8884 17.5604 16.6045 17.678C16.3206 17.7956 16.0626 17.968 15.8453 18.1853C15.628 18.4026 15.4557 18.6605 15.3381 18.9444C15.2205 19.2283 15.16 19.5326 15.16 19.8399V36.9999C15.1718 37.6113 15.424 38.1934 15.862 38.6202C16.3 39.0469 16.8885 39.284 17.5 39.2799H37.255C38.0997 39.2799 38.9101 38.9453 39.5089 38.3494C40.1076 37.7535 40.446 36.9447 40.4499 36.0999V19.7949C40.4441 19.4876 40.3778 19.1844 40.2547 18.9028C40.1317 18.6211 39.9544 18.3664 39.7329 18.1533C39.5114 17.9402 39.2501 17.7728 38.9639 17.6607C38.6778 17.5486 38.3722 17.4939 38.0649 17.4999H17.5Z" fill="#1B4A52"/>
<path d="M41.305 24.3249H14.215C13.9763 24.3249 13.7474 24.2301 13.5786 24.0613C13.4098 23.8925 13.3149 23.6636 13.3149 23.4249C13.3149 23.1862 13.4098 22.9573 13.5786 22.7885C13.7474 22.6197 13.9763 22.5249 14.215 22.5249H41.305C41.5436 22.5249 41.7726 22.6197 41.9413 22.7885C42.1101 22.9573 42.205 23.1862 42.205 23.4249C42.205 23.6636 42.1101 23.8925 41.9413 24.0613C41.7726 24.2301 41.5436 24.3249 41.305 24.3249Z" fill="#1B4A52"/>
<path d="M21.4899 19.8702C21.2512 19.8702 21.0223 19.7754 20.8535 19.6066C20.6847 19.4378 20.5898 19.2089 20.5898 18.9702V14.1402C20.5898 13.9015 20.6847 13.6726 20.8535 13.5038C21.0223 13.3351 21.2512 13.2402 21.4899 13.2402C21.7285 13.2402 21.9575 13.3351 22.1262 13.5038C22.295 13.6726 22.3899 13.9015 22.3899 14.1402V19.0002C22.3821 19.2337 22.2838 19.455 22.1158 19.6173C21.9479 19.7797 21.7234 19.8704 21.4899 19.8702Z" fill="#1B4A52"/>
<path d="M33.2198 20.0499C32.9811 20.0499 32.7522 19.9551 32.5834 19.7863C32.4146 19.6175 32.3198 19.3886 32.3198 19.1499V14.3199C32.3198 14.0812 32.4146 13.8523 32.5834 13.6835C32.7522 13.5147 32.9811 13.4199 33.2198 13.4199C33.4585 13.4199 33.6874 13.5147 33.8562 13.6835C34.025 13.8523 34.1198 14.0812 34.1198 14.3199V19.1499C34.1198 19.3886 34.025 19.6175 33.8562 19.7863C33.6874 19.9551 33.4585 20.0499 33.2198 20.0499Z" fill="#1B4A52"/>
<path d="M30.8502 36.4598C30.7036 36.4607 30.5591 36.4246 30.4302 36.3548L28.0002 35.0648L25.5702 36.3548C25.4254 36.4421 25.2594 36.4882 25.0902 36.4882C24.9211 36.4882 24.7551 36.4421 24.6102 36.3548C24.4772 36.2565 24.3743 36.1229 24.3133 35.9691C24.2523 35.8153 24.2357 35.6475 24.2653 35.4848L24.7302 32.7698L22.7502 30.8498C22.6446 30.73 22.5721 30.5846 22.5401 30.4281C22.508 30.2716 22.5175 30.1095 22.5676 29.9578C22.6176 29.8061 22.7065 29.6702 22.8254 29.5635C22.9443 29.4568 23.089 29.3832 23.2452 29.3498L25.9752 28.9598L27.1902 26.4848C27.2657 26.335 27.3815 26.2093 27.5247 26.1218C27.6678 26.0343 27.8325 25.9886 28.0002 25.9898C28.168 25.9886 28.3327 26.0343 28.4758 26.1218C28.6189 26.2093 28.7348 26.335 28.8103 26.4848L30.0252 28.9598L32.7553 29.3498C32.9115 29.3832 33.0562 29.4568 33.1751 29.5635C33.294 29.6702 33.3828 29.8061 33.4329 29.9578C33.4829 30.1095 33.4924 30.2716 33.4604 30.4281C33.4284 30.5846 33.3559 30.73 33.2502 30.8498L31.2702 32.7698L31.7502 35.4848C31.7731 35.6487 31.7518 35.8158 31.6885 35.9687C31.6252 36.1216 31.5222 36.2549 31.3903 36.3548C31.2256 36.4453 31.0368 36.482 30.8502 36.4598ZM28.0002 33.1598C28.1471 33.1568 28.2921 33.193 28.4202 33.2648L29.6652 33.9098L29.5002 32.4998C29.4766 32.3565 29.4874 32.2097 29.5318 32.0715C29.5761 31.9333 29.6527 31.8076 29.7553 31.7048L30.7602 30.7298L29.3803 30.5198C29.2338 30.4992 29.0945 30.4434 28.9743 30.3572C28.8541 30.271 28.7567 30.1569 28.6902 30.0248L28.0752 28.7798L27.4603 30.0248C27.3938 30.1569 27.2963 30.271 27.1761 30.3572C27.056 30.4434 26.9167 30.4992 26.7702 30.5198L25.3903 30.7298L26.3952 31.7048C26.501 31.8053 26.5798 31.9308 26.6243 32.0697C26.6689 32.2086 26.6778 32.3565 26.6502 32.4998L26.4102 33.8798L27.6552 33.2348C27.7635 33.1852 27.8812 33.1596 28.0002 33.1598Z" fill="#FF6961"/>
<circle opacity="0.1" cx="28" cy="28" r="28" fill="#1B4A52"/>
</svg>
