<svg width="56" height="56" viewBox="0 0 56 56" fill="none" xmlns="http://www.w3.org/2000/svg">
<circle opacity="0.1" cx="28" cy="28" r="28" fill="#00B5D5"/>
<g clip-path="url(#clip0_292_5318)">
<path d="M19.9002 34.2851C19.0114 34.2871 18.131 34.1131 17.3098 33.7733C16.4885 33.4335 15.7427 32.9345 15.1152 32.3051C14.4866 31.6768 13.9879 30.9309 13.6477 30.1098C13.3074 29.2888 13.1323 28.4088 13.1323 27.5201C13.1323 26.6313 13.3074 25.7513 13.6477 24.9303C13.9879 24.1092 14.4866 23.3633 15.1152 22.735L22.9002 14.965C23.5276 14.3347 24.273 13.8341 25.0938 13.4918C25.9147 13.1496 26.7949 12.9723 27.6843 12.9702C28.5736 12.9681 29.4547 13.1412 30.2771 13.4797C31.0996 13.8181 31.8473 14.3152 32.4777 14.9425C33.108 15.5699 33.6086 16.3153 33.9509 17.1362C34.2932 17.9571 34.4704 18.8373 34.4725 19.7266C34.4746 20.616 34.3015 21.497 33.9631 22.3195C33.6247 23.142 33.1276 23.8897 32.5002 24.5201L24.6852 32.3051C24.0577 32.9345 23.3118 33.4335 22.4906 33.7733C21.6693 34.1131 20.7889 34.2871 19.9002 34.2851ZM27.6852 14.785C27.0293 14.7861 26.3804 14.9195 25.7773 15.1772C25.1741 15.435 24.6292 15.8118 24.1752 16.285L16.3902 24.0851C15.9189 24.5407 15.5435 25.0859 15.2859 25.6887C15.0283 26.2914 14.8938 26.9396 14.8902 27.5951C14.8912 28.2509 15.0246 28.8999 15.2824 29.503C15.5401 30.1061 15.9169 30.651 16.3902 31.1051C17.336 32.0074 18.593 32.5108 19.9002 32.5108C21.2074 32.5108 22.4643 32.0074 23.4102 31.1051L31.1952 23.3351C31.6637 22.8774 32.0374 22.3318 32.2948 21.7295C32.5522 21.1272 32.6883 20.48 32.6952 19.8251C32.6952 18.5083 32.1721 17.2454 31.241 16.3143C30.3098 15.3831 29.047 14.86 27.7302 14.86L27.6852 14.785Z" fill="#1B4A52"/>
<path d="M27.9998 28.6749C27.7602 28.6747 27.5297 28.5836 27.3548 28.4199L19.6298 20.7549C19.4607 20.5858 19.3657 20.3565 19.3657 20.1174C19.3657 19.8783 19.4607 19.649 19.6298 19.4799C19.7989 19.3108 20.0282 19.2158 20.2673 19.2158C20.5064 19.2158 20.7357 19.3108 20.9048 19.4799L28.5698 27.0849C28.6555 27.1674 28.7237 27.2665 28.7703 27.376C28.8169 27.4855 28.8409 27.6033 28.8409 27.7224C28.8409 27.8414 28.8169 27.9592 28.7703 28.0688C28.7237 28.1783 28.6555 28.2773 28.5698 28.3599C28.4231 28.5291 28.2211 28.6407 27.9998 28.6749Z" fill="#1B4A52"/>
<path d="M34.9599 42.6248C33.5062 42.6248 32.0851 42.1937 30.8764 41.3861C29.6677 40.5785 28.7257 39.4306 28.1694 38.0875C27.613 36.7445 27.4675 35.2667 27.7511 33.8409C28.0347 32.4151 28.7347 31.1055 29.7626 30.0776C30.7905 29.0497 32.1002 28.3496 33.526 28.066C34.9517 27.7824 36.4296 27.928 37.7726 28.4843C39.1156 29.0406 40.2635 29.9827 41.0712 31.1914C41.8788 32.4001 42.3099 33.8211 42.3099 35.2748C42.3099 37.2241 41.5355 39.0937 40.1571 40.472C38.7787 41.8504 36.9092 42.6248 34.9599 42.6248ZM34.9599 29.7398C33.8615 29.7398 32.7879 30.0657 31.8749 30.6762C30.9619 31.2867 30.2505 32.1544 29.8309 33.1694C29.4113 34.1844 29.3023 35.3011 29.5176 36.3781C29.733 37.4551 30.2631 38.444 31.0408 39.2196C31.8184 39.9951 32.8088 40.5225 33.8863 40.735C34.9639 40.9474 36.0803 40.8354 37.0942 40.413C38.108 39.9907 38.9738 39.277 39.5818 38.3623C40.1899 37.4476 40.5128 36.3731 40.5099 35.2748C40.5059 33.8055 39.9194 32.3976 38.879 31.3601C37.8386 30.3225 36.4292 29.7398 34.9599 29.7398Z" fill="#FF6961"/>
<path d="M34.9601 42.5501C34.7214 42.5501 34.4924 42.4553 34.3237 42.2865C34.1549 42.1178 34.0601 41.8888 34.0601 41.6501V28.9151C34.0601 28.6764 34.1549 28.4475 34.3237 28.2787C34.4924 28.11 34.7214 28.0151 34.9601 28.0151C35.1988 28.0151 35.4277 28.11 35.5965 28.2787C35.7652 28.4475 35.8601 28.6764 35.8601 28.9151V41.6501C35.8601 41.8888 35.7652 42.1178 35.5965 42.2865C35.4277 42.4553 35.1988 42.5501 34.9601 42.5501Z" fill="#FF6961"/>
</g>
<defs>
<clipPath id="clip0_292_5318">
<rect width="36" height="36" fill="white" transform="translate(10 10)"/>
</clipPath>
</defs>
</svg>
