<svg width="94" height="94" viewBox="0 0 94 94" fill="none" xmlns="http://www.w3.org/2000/svg">
<path opacity="0.1" d="M47.0001 93.6759C72.7785 93.6759 93.6759 72.7785 93.6759 47.0001C93.6759 21.2217 72.7785 0.324219 47.0001 0.324219C21.2217 0.324219 0.324219 21.2217 0.324219 47.0001C0.324219 72.7785 21.2217 93.6759 47.0001 93.6759Z" fill="white" stroke="white"/>
<path opacity="0.4" d="M46.8959 74.1023C61.8062 74.1023 73.8933 62.0151 73.8933 47.1049C73.8933 32.1946 61.8062 20.1074 46.8959 20.1074C31.9856 20.1074 19.8984 32.1946 19.8984 47.1049C19.8984 62.0151 31.9856 74.1023 46.8959 74.1023Z" fill="white"/>
<path opacity="0.2" d="M46.8954 85.1267C67.5213 85.1267 84.2419 68.4061 84.2419 47.7801C84.2419 27.1542 67.5213 10.4336 46.8954 10.4336C26.2694 10.4336 9.54883 27.1542 9.54883 47.7801C9.54883 68.4061 26.2694 85.1267 46.8954 85.1267Z" fill="white"/>
<path d="M46.8951 62.8536C55.5927 62.8536 62.6436 55.8027 62.6436 47.105C62.6436 38.4073 55.5927 31.3564 46.8951 31.3564C38.1974 31.3564 31.1465 38.4073 31.1465 47.105C31.1465 55.8027 38.1974 62.8536 46.8951 62.8536Z" fill="white"/>
<path d="M44.0236 42.233C44.1078 42.1821 44.2043 42.1553 44.3027 42.1553C44.401 42.1553 44.4975 42.1821 44.5817 42.233L52.0136 47.2759C52.099 47.3294 52.1695 47.4037 52.2184 47.4918C52.2672 47.58 52.2929 47.6792 52.2929 47.78C52.2929 47.8808 52.2672 47.9799 52.2184 48.0681C52.1695 48.1563 52.099 48.2306 52.0136 48.284L44.5817 53.3269C44.4976 53.3779 44.4011 53.4049 44.3027 53.4049C44.2043 53.4049 44.1077 53.3779 44.0236 53.3269C43.9376 53.2739 43.8667 53.1997 43.8178 53.1114C43.7689 53.023 43.7435 52.9236 43.7442 52.8226V42.7386C43.7433 42.6374 43.7686 42.5378 43.8176 42.4492C43.8665 42.3606 43.9375 42.2861 44.0236 42.233V42.233Z" fill="#E2504B"/>
</svg>
