<svg width="19" height="18" viewBox="0 0 19 18" fill="none" xmlns="http://www.w3.org/2000/svg">
<path d="M12.9525 0.938477C13.122 0.938477 13.2911 0.954414 13.4582 0.9835C13.7152 1.02826 13.9727 1.07133 14.2256 1.13424C16.7667 1.75401 18.6665 3.90931 18.9591 6.49529C19.1478 8.12167 18.6891 9.75689 17.6812 11.0517C16.6732 12.3465 15.1958 13.1983 13.5646 13.4251C13.2982 13.4614 13.0295 13.4774 12.7606 13.4729C12.5948 13.4729 12.5046 13.5226 12.4223 13.6659C11.7322 14.8695 11.0338 16.0687 10.3377 17.2679C10.3061 17.3222 10.2227 17.2988 10.2227 17.236V11.7291C10.2227 11.618 10.3128 11.5279 10.424 11.5279C11.1979 11.5279 11.9726 11.5279 12.748 11.5279C14.8692 11.5247 16.7592 9.84903 16.9971 7.76106C17.2669 5.39003 15.6972 3.32713 13.3251 2.94226C13.1178 2.91029 12.9082 2.89432 12.6984 2.8945C12.1987 2.89139 11.6989 2.89135 11.1938 2.89178C10.6542 2.89225 10.2168 2.45511 10.2168 1.91551C10.2168 1.37591 10.6542 0.938477 11.1938 0.938477H12.9525Z" fill="#E2504B"/>
<path d="M7.82038 0.938477C8.35998 0.938477 8.79741 1.37591 8.79741 1.91551C8.79741 2.45511 8.35998 2.89254 7.82038 2.89254H6.32762C4.09378 2.89254 2.17467 4.61209 1.98638 6.78149C1.78943 9.04603 3.29888 11.0416 5.52484 11.4511C5.78261 11.4978 6.04395 11.5223 6.30595 11.5243C6.68575 11.5287 7.06554 11.5298 7.44706 11.5297C8.18392 11.5295 8.78126 12.1252 8.78126 12.8621V13.4256C8.78126 13.442 8.77871 13.4696 8.76235 13.4682C7.52588 13.4451 6.28074 13.5923 5.05373 13.3559C2.43701 12.8516 0.388699 10.6685 0.0526969 8.03826C-0.378236 4.68099 1.87727 1.62598 5.22705 1.03009C5.34751 1.00875 5.46844 0.990167 5.58935 0.971755C5.73313 0.949859 5.87836 0.938477 6.0238 0.938477H7.82038Z" fill="#E2504B"/>
</svg>
