<svg width="66" height="66" viewBox="0 0 66 66" fill="none" xmlns="http://www.w3.org/2000/svg">
<g clip-path="url(#clip0_2283_18270)">
<path d="M36.9595 26.7851C35.6391 26.7887 34.3309 26.5318 33.1099 26.029C31.8889 25.5262 30.7791 24.7874 29.8442 23.8549C28.9092 22.9225 28.1674 21.8148 27.6612 20.5952C27.1551 19.3756 26.8945 18.0681 26.8945 16.7476C26.8945 14.0782 27.9549 11.5181 29.8425 9.63059C31.7301 7.74303 34.2901 6.68262 36.9595 6.68262C39.6194 6.68987 42.1683 7.74972 44.0491 9.63055C45.9299 11.5114 46.9898 14.0602 46.997 16.7201C47.0007 18.0406 46.7437 19.3488 46.2409 20.5697C45.7381 21.7907 44.9993 22.9005 44.0669 23.8355C43.1344 24.7705 42.0267 25.5123 40.8071 26.0184C39.5875 26.5246 38.28 26.7851 36.9595 26.7851ZM36.9595 10.0101C35.1796 10.0246 33.4772 10.7399 32.2211 12.0011C30.9651 13.2623 30.2567 14.9677 30.2495 16.7476C30.2568 18.5396 30.9718 20.2561 32.239 21.5232C33.5061 22.7903 35.2226 23.5054 37.0145 23.5126C38.804 23.5053 40.5176 22.7894 41.7803 21.5215C43.0431 20.2536 43.752 18.5371 43.752 16.7476C43.7521 15.8582 43.576 14.9776 43.234 14.1565C42.8919 13.3355 42.3907 12.5903 41.7593 11.9639C41.1278 11.3376 40.3785 10.8424 39.5548 10.5071C38.731 10.1718 37.8489 10.0029 36.9595 10.0101Z" fill="#1B4A52"/>
<path d="M36.9599 58.4924C32.6461 58.4913 28.375 57.6379 24.392 55.9815C20.4089 54.325 16.7923 51.898 13.7499 48.8399C13.5301 48.616 13.3775 48.335 13.3095 48.0288C13.2414 47.7225 13.2606 47.4033 13.3649 47.1074C14.4948 41.6749 17.4593 36.7965 21.7608 33.2913C26.0622 29.7861 31.4386 27.8674 36.9874 27.8574C41.6193 27.8598 46.1535 29.19 50.0527 31.6904C53.9519 34.1907 57.0526 37.7564 58.9874 41.9649C58.9754 42.0193 58.9754 42.0756 58.9874 42.1299L60.6374 47.1074C60.7303 47.3978 60.741 47.7083 60.6682 48.0045C60.5954 48.3006 60.4419 48.5707 60.2249 48.7849C57.1813 51.8608 53.558 54.3025 49.5646 55.9688C45.5712 57.6351 41.287 58.4928 36.9599 58.4924ZM16.6649 47.1624C22.1488 52.3443 29.4151 55.2193 36.9599 55.1924C44.4676 55.2074 51.6976 52.3548 57.1724 47.2174L55.8799 43.3124C54.2048 39.704 51.5347 36.6486 48.1832 34.5052C44.8317 32.3618 40.9381 31.2195 36.9599 31.2124C32.2809 31.2196 27.7392 32.7945 24.0604 35.6858C20.3815 38.577 17.7777 42.6177 16.6649 47.1624Z" fill="#1B4A52"/>
<path d="M43.9997 50.4349C43.7843 50.4349 43.571 50.3921 43.3724 50.3088C43.1737 50.2256 42.9936 50.1036 42.8426 49.95C42.6915 49.7964 42.5726 49.6143 42.4927 49.4142C42.4128 49.2142 42.3735 49.0003 42.3772 48.7849V37.5924C42.3735 37.377 42.4128 37.1631 42.4927 36.963C42.5726 36.763 42.6915 36.5809 42.8426 36.4273C42.9936 36.2737 43.1737 36.1517 43.3724 36.0685C43.571 35.9852 43.7843 35.9424 43.9997 35.9424C44.2164 35.9424 44.4309 35.9851 44.6311 36.068C44.8313 36.1509 45.0132 36.2724 45.1664 36.4257C45.3196 36.5789 45.4412 36.7608 45.5241 36.961C45.607 37.1611 45.6497 37.3757 45.6497 37.5924V48.7849C45.6534 49.0026 45.6133 49.2188 45.5317 49.4207C45.4501 49.6226 45.3287 49.8059 45.1747 49.9599C45.0207 50.1139 44.8374 50.2353 44.6355 50.3169C44.4336 50.3985 44.2174 50.4386 43.9997 50.4349Z" fill="#FF6961"/>
<path d="M49.6371 44.8527H38.4996C38.062 44.8527 37.6423 44.6789 37.3329 44.3695C37.0234 44.06 36.8496 43.6403 36.8496 43.2027C36.8496 42.7651 37.0234 42.3454 37.3329 42.036C37.6423 41.7266 38.062 41.5527 38.4996 41.5527H49.6921C50.1297 41.5527 50.5494 41.7266 50.8588 42.036C51.1683 42.3454 51.3421 42.7651 51.3421 43.2027C51.3422 43.4241 51.2978 43.6433 51.2115 43.8471C51.1251 44.051 50.9986 44.2354 50.8396 44.3893C50.6805 44.5433 50.492 44.6637 50.2854 44.7433C50.0789 44.8229 49.8584 44.8601 49.6371 44.8527Z" fill="#FF6961"/>
<path d="M18.4247 19.745C16.8369 19.7378 15.3163 19.1039 14.1936 17.9812C13.0709 16.8584 12.4369 15.3378 12.4297 13.75C12.4297 12.1575 13.0604 10.6298 14.1839 9.50119C15.3074 8.37253 16.8322 7.73481 18.4247 7.72754C20.022 7.72754 21.5538 8.36205 22.6832 9.49149C23.8127 10.6209 24.4472 12.1528 24.4472 13.75C24.4399 15.3425 23.8022 16.8673 22.6735 17.9908C21.5449 19.1143 20.0172 19.7451 18.4247 19.745ZM18.4247 11.0275C17.6953 11.0275 16.9959 11.3173 16.4801 11.833C15.9644 12.3487 15.6747 13.0482 15.6747 13.7775C15.6747 14.5069 15.9644 15.2064 16.4801 15.7221C16.9959 16.2378 17.6953 16.5275 18.4247 16.5275C19.154 16.5275 19.8535 16.2378 20.3692 15.7221C20.885 15.2064 21.1747 14.5069 21.1747 13.7775C21.1747 13.0482 20.885 12.3487 20.3692 11.833C19.8535 11.3173 19.154 11.0275 18.4247 11.0275Z" fill="#1B4A52"/>
<path d="M15.3459 35.9424H15.0159C11.5098 35.2545 8.29096 33.5301 5.77587 30.9924C5.58237 30.7584 5.45487 30.477 5.40652 30.1773C5.35817 29.8775 5.39075 29.5703 5.50087 29.2874C6.14272 26.3269 7.77129 23.6722 10.1196 21.7586C12.4679 19.8449 15.3967 18.7858 18.4259 18.7549C20.3588 18.7537 22.269 19.1709 24.0254 19.9779C25.7818 20.7849 27.3427 21.9625 28.6009 23.4299C28.8805 23.7674 29.017 24.201 28.981 24.6379C28.945 25.0747 28.7395 25.4802 28.4084 25.7674C28.0753 26.0454 27.6462 26.1811 27.2139 26.1451C26.7815 26.1091 26.3808 25.9042 26.0984 25.5749C25.1482 24.4705 23.9708 23.5842 22.6467 22.9767C21.3225 22.3692 19.8827 22.0548 18.4259 22.0549C16.2527 22.0605 14.1395 22.7675 12.4003 24.0706C10.6612 25.3737 9.38918 27.2033 8.77337 29.2874C10.7193 31.0124 13.0943 32.1809 15.6484 32.6699C15.8607 32.7093 16.063 32.7907 16.2435 32.9093C16.4239 33.028 16.5789 33.1814 16.6993 33.3607C16.8196 33.54 16.903 33.7415 16.9445 33.9534C16.986 34.1654 16.9848 34.3834 16.9409 34.5949C16.8761 34.9713 16.6807 35.3128 16.3889 35.5593C16.0972 35.8058 15.7278 35.9414 15.3459 35.9424Z" fill="#1B4A52"/>
</g>
<defs>
<clipPath id="clip0_2283_18270">
<rect width="66" height="66" fill="white"/>
</clipPath>
</defs>
</svg>
