<svg width="66" height="66" viewBox="0 0 66 66" fill="none" xmlns="http://www.w3.org/2000/svg">
<path d="M50.8483 58.0527H13.7508C11.7108 58.0455 9.75653 57.2319 8.31407 55.7894C6.87161 54.347 6.05803 52.3926 6.05078 50.3527V18.1777C6.05077 16.133 6.86114 14.1716 8.30439 12.7232C9.74763 11.2748 11.7061 10.4575 13.7508 10.4502H52.4433C54.488 10.4575 56.4464 11.2748 57.8897 12.7232C59.3329 14.1716 60.1433 16.133 60.1433 18.1777V48.7027C60.1469 49.9269 59.9093 51.1399 59.4442 52.2724C58.979 53.4048 58.2954 54.4345 57.4322 55.3028C56.5691 56.171 55.5434 56.8607 54.4138 57.3326C53.2841 57.8044 52.0725 58.0491 50.8483 58.0527ZM13.7508 13.7502C12.5813 13.7575 11.4622 14.2271 10.6378 15.0567C9.81344 15.8862 9.35076 17.0082 9.35078 18.1777V50.3527C9.35078 51.5196 9.81435 52.6388 10.6395 53.464C11.4647 54.2891 12.5838 54.7527 13.7508 54.7527H50.8483C51.6392 54.7491 52.4216 54.5897 53.1509 54.2838C53.8802 53.9778 54.5421 53.5311 55.0988 52.9693C55.6555 52.4075 56.0961 51.7416 56.3954 51.0095C56.6947 50.2774 56.8469 49.4936 56.8433 48.7027V18.1777C56.8433 17.0082 56.3806 15.8862 55.5562 15.0567C54.7318 14.2271 53.6128 13.7575 52.4433 13.7502H13.7508Z" fill="#1B4A52"/>
<path d="M58.4928 26.7023H7.72781C7.49513 26.7325 7.25869 26.7127 7.03424 26.6443C6.8098 26.5759 6.60252 26.4605 6.42625 26.3056C6.24998 26.1508 6.10876 25.9601 6.01202 25.7463C5.91527 25.5326 5.86523 25.3006 5.86523 25.066C5.86523 24.8314 5.91527 24.5994 6.01202 24.3857C6.10876 24.1719 6.24998 23.9813 6.42625 23.8264C6.60252 23.6716 6.8098 23.5561 7.03424 23.4877C7.25869 23.4193 7.49513 23.3995 7.72781 23.4298H58.4928C58.7255 23.3995 58.9619 23.4193 59.1864 23.4877C59.4108 23.5561 59.6181 23.6716 59.7944 23.8264C59.9706 23.9813 60.1118 24.1719 60.2086 24.3857C60.3053 24.5994 60.3554 24.8314 60.3554 25.066C60.3554 25.3006 60.3053 25.5326 60.2086 25.7463C60.1118 25.9601 59.9706 26.1508 59.7944 26.3056C59.6181 26.4605 59.4108 26.5759 59.1864 26.6443C58.9619 26.7127 58.7255 26.7325 58.4928 26.7023Z" fill="#1B4A52"/>
<path d="M21.3668 18.2879C21.1501 18.2879 20.9356 18.2453 20.7354 18.1623C20.5352 18.0794 20.3533 17.9579 20.2001 17.8047C20.0469 17.6514 19.9253 17.4695 19.8424 17.2694C19.7595 17.0692 19.7168 16.8546 19.7168 16.6379V7.59043C19.7168 7.15282 19.8906 6.73314 20.2001 6.4237C20.5095 6.11427 20.9292 5.94043 21.3668 5.94043C21.8044 5.94043 22.2241 6.11427 22.5335 6.4237C22.843 6.73314 23.0168 7.15282 23.0168 7.59043V16.6379C23.0168 16.8546 22.9741 17.0692 22.8912 17.2694C22.8083 17.4695 22.6867 17.6514 22.5335 17.8047C22.3803 17.9579 22.1984 18.0794 21.9982 18.1623C21.798 18.2453 21.5835 18.2879 21.3668 18.2879Z" fill="#1B4A52"/>
<path d="M43.3394 18.617C42.9018 18.617 42.4822 18.4432 42.1727 18.1338C41.8633 17.8243 41.6895 17.4046 41.6895 16.967V7.91953C41.6895 7.48192 41.8633 7.06224 42.1727 6.7528C42.4822 6.44337 42.9018 6.26953 43.3394 6.26953C43.7771 6.26953 44.1967 6.44337 44.5062 6.7528C44.8156 7.06224 44.9895 7.48192 44.9895 7.91953V16.967C44.9895 17.4046 44.8156 17.8243 44.5062 18.1338C44.1967 18.4432 43.7771 18.617 43.3394 18.617Z" fill="#1B4A52"/>
<path d="M35.3648 51.453H30.6348C30.4182 51.453 30.2036 51.4103 30.0034 51.3274C29.8032 51.2445 29.6213 51.1229 29.4681 50.9697C29.3149 50.8165 29.1934 50.6346 29.1104 50.4344C29.0275 50.2342 28.9849 50.0197 28.9849 49.803V44.468H23.6773C23.2397 44.468 22.8201 44.2941 22.5106 43.9847C22.2012 43.6753 22.0273 43.2556 22.0273 42.818V38.0605C22.0273 37.6229 22.2012 37.2032 22.5106 36.8937C22.8201 36.5843 23.2397 36.4105 23.6773 36.4105H28.9849V31.1305C28.9849 30.6929 29.1587 30.2732 29.4681 29.9638C29.7776 29.6543 30.1972 29.4805 30.6348 29.4805H35.3648C35.8025 29.4805 36.2221 29.6543 36.5316 29.9638C36.841 30.2732 37.0148 30.6929 37.0148 31.1305V36.4105H42.2948C42.7325 36.4105 43.1521 36.5843 43.4616 36.8937C43.771 37.2032 43.9448 37.6229 43.9448 38.0605V42.818C43.9448 43.2556 43.771 43.6753 43.4616 43.9847C43.1521 44.2941 42.7325 44.468 42.2948 44.468H37.0148V49.748C37.0222 49.9692 36.985 50.1897 36.9054 50.3963C36.8258 50.6029 36.7054 50.7913 36.5515 50.9504C36.3975 51.1095 36.2131 51.236 36.0092 51.3223C35.8054 51.4087 35.5862 51.4531 35.3648 51.453ZM32.2849 48.153H33.7148V42.818C33.7148 42.6013 33.7575 42.3867 33.8404 42.1865C33.9234 41.9864 34.0449 41.8045 34.1981 41.6513C34.3513 41.498 34.5332 41.3765 34.7334 41.2936C34.9336 41.2107 35.1482 41.168 35.3648 41.168H40.6723V39.7105H35.3648C34.9272 39.7105 34.5076 39.5366 34.1981 39.2272C33.8887 38.9178 33.7148 38.4981 33.7148 38.0605V32.7805H32.2849V38.0605C32.2849 38.4981 32.111 38.9178 31.8016 39.2272C31.4921 39.5366 31.0725 39.7105 30.6348 39.7105H25.3273V41.168H30.6348C31.0725 41.168 31.4921 41.3418 31.8016 41.6513C32.111 41.9607 32.2849 42.3804 32.2849 42.818V48.153Z" fill="#E2504B"/>
</svg>
