<svg width="14" height="17" viewBox="0 0 14 17" fill="none" xmlns="http://www.w3.org/2000/svg">
<path d="M13.0029 6.99035C13.0029 11.6495 7.00146 15.6431 7.00146 15.6431C7.00146 15.6431 1 11.6495 1 6.99035C1 5.40161 1.6323 3.87794 2.75779 2.75453C3.88328 1.63112 5.40978 1 7.00146 1C8.59315 1 10.1196 1.63112 11.2451 2.75453C12.3706 3.87794 13.0029 5.40161 13.0029 6.99035Z" stroke="#1B4A52" stroke-width="1.5" stroke-linecap="round" stroke-linejoin="round"/>
<path d="M7.00167 8.98673C8.10662 8.98673 9.00237 8.09274 9.00237 6.98995C9.00237 5.88715 8.10662 4.99316 7.00167 4.99316C5.89672 4.99316 5.00098 5.88715 5.00098 6.98995C5.00098 8.09274 5.89672 8.98673 7.00167 8.98673Z" stroke="#E2504B" stroke-width="1.5" stroke-linecap="round" stroke-linejoin="round"/>
</svg>
