<svg width="66" height="66" viewBox="0 0 66 66" fill="none" xmlns="http://www.w3.org/2000/svg">
<g clip-path="url(#clip0_2283_18269)">
<path d="M27.5009 38.3622C25.4287 38.3622 23.403 37.7477 21.68 36.5965C19.9569 35.4452 18.614 33.8088 17.821 31.8943C17.028 29.9798 16.8205 27.8731 17.2248 25.8407C17.629 23.8082 18.6269 21.9413 20.0922 20.476C21.5575 19.0107 23.4244 18.0128 25.4569 17.6086C27.4893 17.2043 29.596 17.4118 31.5105 18.2048C33.425 18.9978 35.0614 20.3407 36.2127 22.0637C37.3639 23.7868 37.9784 25.8125 37.9784 27.8847C37.9784 30.6635 36.8746 33.3285 34.9097 35.2934C32.9447 37.2584 30.2797 38.3622 27.5009 38.3622ZM27.5009 20.4597C26.0313 20.4543 24.593 20.8851 23.3684 21.6977C22.1437 22.5102 21.1878 23.668 20.6216 25.0242C20.0554 26.3805 19.9044 27.8742 20.1878 29.3163C20.4712 30.7585 21.1761 32.084 22.2134 33.1252C23.2507 34.1664 24.5737 34.8763 26.0148 35.165C27.4558 35.4537 28.9501 35.3083 30.3085 34.7471C31.6668 34.186 32.8281 33.2343 33.6452 32.0127C34.4623 30.7911 34.8984 29.3544 34.8984 27.8847C34.8985 25.9203 34.12 24.0358 32.7334 22.6442C31.3469 21.2525 29.4654 20.467 27.5009 20.4597Z" fill="#1B4A52"/>
<path d="M48.1519 59.8954H7.03942C6.65373 59.8969 6.2815 59.7537 5.99634 59.494C5.71118 59.2343 5.53385 58.877 5.49942 58.4929C5.42988 58.2502 5.42988 57.993 5.49942 57.7504C6.57673 52.7172 9.34957 48.2065 13.3542 44.9728C17.3587 41.7391 22.3522 39.9785 27.4994 39.9854C46.3094 39.9854 49.4994 57.9429 49.4994 58.1079C49.5314 58.332 49.5161 58.5603 49.4545 58.7782C49.3929 58.996 49.2865 59.1986 49.1419 59.3729C48.8909 59.6672 48.5366 59.8542 48.1519 59.8954ZM9.01942 56.9529H46.1994C45.1077 52.8937 42.6726 49.3244 39.2915 46.8272C35.9103 44.33 31.7826 43.0524 27.5819 43.2029C23.4254 43.2132 19.3812 44.5534 16.0412 47.0275C12.7011 49.5016 10.2405 52.9797 9.01942 56.9529Z" fill="#1B4A52"/>
<path d="M44.4393 25.548C44.0955 25.5448 43.7605 25.4395 43.4768 25.2455C43.223 25.0665 43.026 24.8185 42.909 24.5309C42.792 24.2433 42.76 23.9282 42.8168 23.623L43.6693 18.6455L40.0668 15.1255C39.8382 14.9191 39.6767 14.649 39.6031 14.35C39.5296 14.051 39.5474 13.7368 39.6543 13.448C39.7419 13.1526 39.9132 12.889 40.1474 12.6889C40.3817 12.4888 40.6688 12.3608 40.9743 12.3205L45.9792 11.578L48.2068 7.06795C48.3571 6.81125 48.572 6.59834 48.8301 6.45039C49.0882 6.30245 49.3805 6.22461 49.678 6.22461C49.9755 6.22461 50.2678 6.30245 50.5259 6.45039C50.784 6.59834 50.9989 6.81125 51.1493 7.06795L53.4043 11.578L58.3817 12.3205C58.6886 12.3654 58.977 12.4946 59.2149 12.6937C59.4528 12.8927 59.6308 13.1538 59.7292 13.448C59.8221 13.7406 59.8301 14.0535 59.7522 14.3504C59.6743 14.6474 59.5138 14.9161 59.2892 15.1255L55.6868 18.6455L56.5392 23.623C56.5895 23.9257 56.5544 24.2364 56.4379 24.5203C56.3213 24.8041 56.1278 25.0498 55.8793 25.2298C55.6308 25.4098 55.337 25.5169 55.0309 25.5391C54.7248 25.5613 54.4187 25.4977 54.1468 25.3554L49.6642 23.018L45.2093 25.3554C44.9743 25.487 44.7085 25.5535 44.4393 25.548ZM49.6642 19.498C49.9338 19.4897 50.2003 19.5563 50.4343 19.6905L52.7168 20.9005L52.2493 18.453C52.2046 18.188 52.2265 17.9162 52.3129 17.6618C52.3993 17.4074 52.5475 17.1784 52.7443 16.9955L54.5868 15.208L52.0293 14.8504C51.7664 14.8064 51.5175 14.7014 51.3026 14.5438C51.0877 14.3862 50.9127 14.1804 50.7917 13.943L49.6367 11.633L48.5092 13.943C48.3883 14.1804 48.2133 14.3862 47.9984 14.5438C47.7835 14.7014 47.5346 14.8064 47.2718 14.8504L44.7143 15.208L46.5568 16.9955C46.7535 17.1784 46.9017 17.4074 46.9881 17.6618C47.0745 17.9162 47.0964 18.188 47.0518 18.453L46.6118 20.9829L48.8943 19.8005C49.1155 19.626 49.3834 19.5207 49.6642 19.498Z" fill="#E2504B"/>
</g>
<defs>
<clipPath id="clip0_2283_18269">
<rect width="66" height="66" fill="white"/>
</clipPath>
</defs>
</svg>
