<svg width="48" height="48" viewBox="0 0 48 48" fill="none" xmlns="http://www.w3.org/2000/svg">
<g clip-path="url(#clip0_893_9732)">
<path d="M35.58 38.44H12.42C10.2468 38.4347 8.16418 37.5691 6.62753 36.0324C5.09087 34.4958 4.22525 32.4131 4.21997 30.24V17.88C4.22525 15.7068 5.09087 13.6242 6.62753 12.0875C8.16418 10.5509 10.2468 9.68527 12.42 9.67999H35.58C37.7531 9.68527 39.8358 10.5509 41.3724 12.0875C42.9091 13.6242 43.7747 15.7068 43.78 17.88V30.2C43.7826 31.2795 43.5726 32.3489 43.1619 33.3472C42.7513 34.3455 42.148 35.2531 41.3865 36.0183C40.6251 36.7834 39.7204 37.3911 38.7241 37.8066C37.7278 38.2222 36.6594 38.4374 35.58 38.44ZM12.42 12.12C10.8886 12.12 9.4194 12.7255 8.33283 13.8046C7.24626 14.8837 6.63053 16.3487 6.61997 17.88V30.2C6.61997 31.7382 7.23104 33.2135 8.31875 34.3012C9.40646 35.3889 10.8817 36 12.42 36H35.58C37.1182 36 38.5935 35.3889 39.6812 34.3012C40.7689 33.2135 41.38 31.7382 41.38 30.2V17.88C41.38 16.3417 40.7689 14.8665 39.6812 13.7788C38.5935 12.6911 37.1182 12.08 35.58 12.08L12.42 12.12Z" fill="#1B4A52"/>
<path d="M20.7801 32.5C20.3447 32.4932 19.9181 32.3762 19.5401 32.16C19.1615 31.9462 18.8469 31.635 18.6289 31.2588C18.4108 30.8825 18.2973 30.4549 18.3001 30.02V18.02C18.2994 17.5856 18.4138 17.1587 18.6316 16.7829C18.8494 16.407 19.1629 16.0955 19.5401 15.88C19.9154 15.668 20.3391 15.5565 20.7701 15.5565C21.2011 15.5565 21.6248 15.668 22.0001 15.88L32.4201 21.88C32.7973 22.0955 33.1108 22.407 33.3286 22.7829C33.5464 23.1587 33.6608 23.5856 33.6601 24.02C33.665 24.4553 33.5524 24.8838 33.3341 25.2604C33.1159 25.637 32.8001 25.9478 32.4201 26.16L22.0001 32.16C21.629 32.3754 21.2091 32.4924 20.7801 32.5ZM20.7801 17.92L20.6601 29.92L31.2001 23.92V23.88L20.7801 17.92Z" fill="#FF6961"/>
</g>
<defs>
<clipPath id="clip0_893_9732">
<rect width="48" height="48" fill="white"/>
</clipPath>
</defs>
</svg>
