<svg width="18" height="19" viewBox="0 0 18 19" fill="none" xmlns="http://www.w3.org/2000/svg">
<path d="M12.9142 1H5.2939C2.6506 1 1 2.4724 1 5.1787V13.3237C1 16.0723 2.6506 17.5789 5.2939 17.5789H12.9061C15.5575 17.5789 17.2 16.0984 17.2 13.3921V5.1787C17.2081 2.4724 15.5656 1 12.9142 1Z" stroke="#1B4A52" stroke-width="1.5" stroke-miterlimit="10" stroke-linecap="round" stroke-linejoin="round"/>
<path d="M7.19612 5.63436C7.25522 5.59821 7.32296 5.5791 7.392 5.5791C7.46104 5.5791 7.52877 5.59821 7.58787 5.63436L12.804 9.22058C12.864 9.25859 12.9134 9.31143 12.9477 9.37413C12.982 9.43683 13 9.50735 13 9.57903C13 9.65072 12.982 9.72122 12.9477 9.78392C12.9134 9.84662 12.864 9.89946 12.804 9.93747L7.58787 13.5237C7.5288 13.5599 7.46106 13.5791 7.392 13.5791C7.32294 13.5791 7.25519 13.5599 7.19612 13.5237C7.13578 13.486 7.08605 13.4332 7.0517 13.3704C7.01735 13.3076 6.99955 13.2368 7.00001 13.165V5.99395C6.99944 5.92199 7.01718 5.8511 7.05153 5.78811C7.08588 5.72512 7.13568 5.67217 7.19612 5.63436V5.63436Z" fill="#E2504B"/>
</svg>
