<svg width="411" height="278" viewBox="0 0 411 278" fill="none" xmlns="http://www.w3.org/2000/svg">
<path d="M76.5926 166.965H85.311C87.0836 166.965 88.7872 167.652 90.0645 168.883C90.7267 169.523 91.2534 170.29 91.6131 171.139C91.9729 171.987 92.1583 172.899 92.1584 173.821V176.275L73.3359 172.871L76.5926 166.965Z" fill="#FFA4A4"/>
<path d="M61.2673 125.664L64.1364 160.191L76.5882 166.962V173.658L48.9492 166.962L61.2673 125.664Z" fill="#0291A0"/>
<path d="M97.7134 181.308L109.087 179.158L81.1763 174.402L72.3242 176.106L97.7134 181.308Z" fill="#FFB0AE"/>
<path d="M72.3253 176.108L97.5362 180.123C97.7349 180.154 97.9382 180.122 98.1179 180.031C98.2976 179.941 98.4446 179.797 98.5386 179.619L112.821 152.122C112.951 151.873 113.147 151.664 113.388 151.518C113.628 151.373 113.904 151.296 114.185 151.297H123.251C123.417 151.296 123.58 151.339 123.725 151.421C123.869 151.502 123.99 151.62 124.075 151.763C124.161 151.905 124.208 152.068 124.211 152.234C124.215 152.4 124.176 152.565 124.097 152.711L109.449 180.132C109.381 180.257 109.287 180.367 109.172 180.452C109.057 180.536 108.925 180.595 108.785 180.622L98.1867 182.652C98.0863 182.668 97.9841 182.668 97.8837 182.652L72.0446 179.275C71.8131 179.245 71.6005 179.131 71.4464 178.956C71.2923 178.78 71.2073 178.554 71.2071 178.321V177.063C71.2057 176.922 71.2352 176.783 71.2933 176.656C71.3514 176.528 71.4368 176.415 71.5434 176.324C71.6501 176.233 71.7753 176.166 71.9104 176.129C72.0455 176.092 72.1871 176.085 72.3253 176.108Z" fill="#FF6961"/>
<path d="M71.2137 167.602L80.3554 170.278C80.5367 170.331 80.7152 170.394 80.89 170.465L94.7941 176.327C95.2662 176.525 95.6692 176.859 95.9522 177.286C96.2352 177.713 96.3857 178.214 96.3846 178.727C96.3843 178.869 96.3534 179.009 96.2939 179.138C96.2344 179.268 96.1477 179.382 96.0398 179.475C95.9319 179.567 95.8053 179.635 95.6687 179.674C95.5321 179.712 95.3888 179.721 95.2485 179.699L71.1914 175.93L71.2137 167.602Z" fill="#FFA4A4"/>
<path d="M75.9734 203.469H12.8235C10.8477 203.469 9.24609 205.072 9.24609 207.051V210.7C9.24609 212.678 10.8477 214.282 12.8235 214.282H75.9734C77.9491 214.282 79.5508 212.678 79.5508 210.7V207.051C79.5508 205.072 77.9491 203.469 75.9734 203.469Z" fill="#52787C"/>
<path d="M40.5729 123.871H8.87544C4.24981 123.871 0.5 127.626 0.5 132.257V195.084C0.5 199.715 4.24981 203.47 8.87544 203.47H40.5729C45.1985 203.47 48.9483 199.715 48.9483 195.084V132.257C48.9483 127.626 45.1985 123.871 40.5729 123.871Z" fill="#52787C"/>
<path d="M123.168 265.785L126.411 275.871H157.062L140.863 269.653L139.585 265.785H123.168Z" fill="#303838"/>
<path d="M142.654 265.786L115.479 195.751C114.148 192.943 112.192 190.478 109.762 188.545C107.331 186.612 104.491 185.262 101.459 184.599L45.6372 171.992L43.4097 182.208C42.919 184.441 42.8728 186.749 43.2738 189C43.6747 191.251 44.5148 193.401 45.7462 195.327C46.9776 197.252 48.576 198.916 50.45 200.223C52.324 201.529 54.4369 202.453 56.6679 202.941L95.8097 211.863L115.336 265.777L142.654 265.786Z" fill="#0291A0"/>
<path d="M57.4688 177.554H18.875L27.5846 114.272L42.148 112.082C46.9894 112.081 51.6709 113.817 55.3438 116.975C59.0168 120.133 61.4382 124.504 62.1689 129.296L57.4688 177.554Z" fill="#00B5D5"/>
<path d="M19.7158 170.902L18.4684 182.501C17.4927 191.56 25.4049 201.861 34.404 203.239L90.5373 210.024L86.0822 265.722L111.222 265.811L115.784 200.049C116.005 198.027 115.826 195.98 115.256 194.027C114.686 192.074 113.736 190.253 112.462 188.668C111.188 187.083 109.613 185.765 107.83 184.79C106.046 183.815 104.088 183.202 102.067 182.987L19.7158 170.902Z" fill="#00B5D5"/>
<path d="M88.9852 265.785L87.2344 275.871H117.88L104.747 270.826L105.402 265.785H88.9852Z" fill="#4B4C4C"/>
<path d="M45.8061 214.285H39.5156V270.826H45.8061V214.285Z" fill="#849FA0"/>
<path d="M32.7363 270.824H53.2294C54.1144 270.824 54.9631 271.176 55.5889 271.803C56.2147 272.429 56.5662 273.279 56.5662 274.165V275.865H29.3906V274.165C29.3906 273.279 29.7422 272.429 30.368 271.803C30.9937 271.176 31.8425 270.824 32.7274 270.824H32.7363Z" fill="#849FA0"/>
<path d="M37.4537 131.906L36.9859 153.764L57.9289 161.665L28.8555 156.535L37.4537 131.906Z" fill="#0291A0"/>
<path d="M19.3594 174.214L71.2158 179.161L19.8361 168.16L19.3594 174.214Z" fill="#0291A0"/>
<path d="M39.1057 125.702L33.2117 155.442L72.1976 165.443L73.4094 179.553L22.3148 171.773C21.0934 171.585 19.9214 171.156 18.8664 170.512C17.8114 169.868 16.8944 169.02 16.1683 168.019C15.4421 167.018 14.9213 165.882 14.6358 164.679C14.3504 163.475 14.306 162.226 14.5051 161.005L20.3679 122.022C20.7799 119.523 22.1645 117.291 24.2181 115.813C26.2717 114.335 28.8267 113.733 31.3228 114.139C32.6108 114.349 33.8422 114.82 34.9412 115.524C36.0402 116.229 36.9835 117.151 37.7127 118.234C38.442 119.318 38.9418 120.539 39.1814 121.824C39.421 123.108 39.3953 124.428 39.1057 125.702Z" fill="#00B5D5"/>
<path d="M53.5806 154.104L52.5292 153.859C50.2917 153.344 48.3007 152.071 46.8936 150.254L41.013 142.671C40.6215 142.166 40.335 141.588 40.1701 140.97C40.0053 140.353 39.9655 139.709 40.0531 139.076C40.1407 138.443 40.3539 137.833 40.6802 137.284C41.0065 136.735 41.4392 136.256 41.953 135.877L45.3165 133.392C46.3187 132.649 47.5712 132.325 48.8076 132.492C50.044 132.659 51.1666 133.302 51.9367 134.285L57.2025 141.052C58.0822 142.185 58.7082 143.495 59.038 144.892L59.7329 147.837" stroke="#323333" stroke-width="1.5" stroke-miterlimit="10"/>
<path d="M54.9134 153.22L53.084 152.984C52.8327 152.952 52.6027 153.13 52.5704 153.382L52.4092 154.638C52.3769 154.89 52.5545 155.12 52.8059 155.152L54.6352 155.388C54.8866 155.42 55.1166 155.242 55.1488 154.99L55.31 153.734C55.3423 153.482 55.1647 153.252 54.9134 153.22Z" fill="#D9F8FF"/>
<path d="M60.953 148.467L60.498 146.829C60.4301 146.585 60.1771 146.442 59.9329 146.51L58.8256 146.818C58.5815 146.886 58.4386 147.14 58.5065 147.384L58.9616 149.022C59.0295 149.266 59.2825 149.409 59.5267 149.341L60.634 149.033C60.8781 148.965 61.021 148.711 60.953 148.467Z" fill="#D9F8FF"/>
<path d="M43.0358 135.081C43.0358 135.081 22.4492 113.509 33.6892 113.062" stroke="#323333" stroke-width="1.5" stroke-miterlimit="10"/>
<path d="M61.3161 131.552C61.3161 131.552 55.2439 116.831 46.6991 112.852C46.36 112.649 45.9821 112.52 45.5898 112.473" stroke="#323333" stroke-width="1.5" stroke-miterlimit="10"/>
<path d="M61.9127 136.016C63.3078 136.016 64.4387 134.883 64.4387 133.486C64.4387 132.089 63.3078 130.957 61.9127 130.957C60.5177 130.957 59.3867 132.089 59.3867 133.486C59.3867 134.883 60.5177 136.016 61.9127 136.016Z" fill="#EEF7FF"/>
<path d="M61.9134 135.418C62.9788 135.418 63.8424 134.553 63.8424 133.486C63.8424 132.419 62.9788 131.555 61.9134 131.555C60.848 131.555 59.9844 132.419 59.9844 133.486C59.9844 134.553 60.848 135.418 61.9134 135.418Z" fill="#A7C3DB"/>
<path d="M54.254 81.6143L51.7013 80.7711C49.2649 79.9645 46.6083 80.1598 44.3158 81.3143C42.0233 82.4687 40.2826 84.4877 39.4767 86.9271L36.229 96.7766C36.1382 97.0473 36.0624 97.3228 36.0018 97.6019H35.9617L33.3555 114.062L46.1458 122.56L45.58 112.095L45.54 110.039C50.4405 111.319 54.4945 111.792 57.1542 103.713L57.5418 102.549L60.442 102.437L60.0232 95.0324C61.6894 89.9382 59.3193 83.296 54.254 81.6143Z" fill="url(#paint0_linear_5570_29913)"/>
<path d="M56.0638 101.106C55.0881 100.781 54.46 99.1702 54.5713 97.145C54.6961 94.9146 55.6539 93.2909 56.7989 93.3533C57.9438 93.4158 58.719 95.1376 58.5809 97.3681C58.4428 99.5985 57.4983 101.222 56.3534 101.155C56.2551 101.152 56.1578 101.135 56.0638 101.106ZM56.888 94.0492C56.8478 94.0353 56.8057 94.0278 56.7632 94.0269C56.1306 93.9912 55.3465 95.2804 55.2441 97.1807C55.1416 99.081 55.7653 100.455 56.4024 100.491C57.0394 100.526 57.8191 99.2371 57.9215 97.3324C58.024 95.5569 57.476 94.2455 56.888 94.0492Z" fill="#323333"/>
<path d="M60.9372 100.573C60.1086 100.3 59.9928 98.2753 60.0462 97.0575C60.0782 96.277 60.2145 95.5043 60.4516 94.7601C60.7145 94.0018 61.0531 93.6271 61.4674 93.6494C62.4386 93.6984 62.5722 95.9021 62.501 97.1957C62.4686 97.9762 62.3323 98.7488 62.0956 99.4931C61.8372 100.251 61.4941 100.626 61.0798 100.604C61.0312 100.599 60.9833 100.589 60.9372 100.573ZM61.3827 94.3274C61.258 94.4033 60.7947 95.3043 60.6967 97.1065C60.5987 98.9087 60.9506 99.8589 61.1199 99.9481C61.2446 99.8767 61.708 98.9756 61.806 97.169C61.9263 95.3623 61.5699 94.4166 61.3827 94.3274Z" fill="#323333"/>
<path d="M46.2235 93.4956L46.1406 94.1641L55.3541 95.3099L55.437 94.6414L46.2235 93.4956Z" fill="#323333"/>
<path d="M60.8073 95.5167L58.5664 95.6289L58.6 96.3025L60.8409 96.1903L60.8073 95.5167Z" fill="#323333"/>
<path d="M41.6549 95.6283L41.8197 92.1355C41.8362 91.7814 41.9343 91.4359 42.1063 91.1262C42.2784 90.8164 42.5196 90.5506 42.8113 90.3498C43.1029 90.1489 43.4371 90.0183 43.7875 89.9682C44.1379 89.9182 44.4952 89.95 44.8313 90.0612L45.3615 90.2351C45.8233 90.388 46.2056 90.7182 46.4244 91.1531C46.6433 91.5881 46.6808 92.0922 46.5287 92.5548L45.3436 96.1234L48.3642 92.3451C49.6297 90.7619 51.3002 89.5517 53.1979 88.8434L56.4322 87.6345L52.5786 91.3905C52.5786 91.3905 58.9894 93.0767 62.1658 89.5348L63.9478 87.6077C64.8311 86.6502 65.326 85.3974 65.3359 84.094C65.3458 82.7906 64.8699 81.5304 64.0013 80.5596L62.1792 78.521C59.8255 75.8919 56.7467 74.0199 53.3315 73.1412L46.2346 71.3301C44.2933 70.8308 42.2511 70.8858 40.3393 71.4889C38.4276 72.092 36.7227 73.2192 35.4179 74.7427C34.276 76.072 33.4437 77.639 32.9814 79.3302C32.5191 81.0215 32.4383 82.7945 32.7448 84.5208L35.3733 99.3085L41.6549 95.6283Z" fill="#323333"/>
<path d="M80.6328 8.85329H88.487V0.984375H97.2456V8.85329H105.1V17.6188H97.2456V25.4833H88.487V17.6188H80.6328V8.85329Z" fill="#95D4DB"/>
<path d="M69.3672 36.8991H72.8867V33.375H76.8115V36.8991H80.331V40.8246H76.8115V44.3531H72.8867V40.8246H69.3672V36.8991Z" fill="#BBEFF2"/>
<path d="M323.319 213.938H387.298C389.273 213.938 390.875 212.334 390.875 210.355V206.582C390.875 204.603 389.273 203 387.298 203H323.319C321.343 203 319.742 204.603 319.742 206.582V210.355C319.742 212.334 321.343 213.938 323.319 213.938Z" fill="#52787C"/>
<path d="M359.083 202.992H391.351C395.977 202.992 399.727 199.237 399.727 194.606V130.838C399.727 126.207 395.977 122.452 391.351 122.452H359.083C354.458 122.452 350.708 126.207 350.708 130.838V194.606C350.708 199.237 354.458 202.992 359.083 202.992Z" fill="#52787C"/>
<path d="M342.931 116.699L320.006 146.97L306.315 131.835L293.48 139.035L312.045 159.778L324.305 162.726L350.705 140.971L342.931 116.699Z" fill="#FDFEFF"/>
<path d="M333.795 266.047H309.644L285.863 200.098H310.018L333.795 266.047Z" fill="#0291A0"/>
<path d="M380.291 170.043L381.552 181.797C382.536 190.964 374.53 201.385 365.429 202.763L308.636 209.646L313.136 266L287.698 266.071L283.109 199.516C282.885 197.469 283.066 195.398 283.642 193.421C284.219 191.445 285.179 189.602 286.468 187.998C287.757 186.393 289.35 185.06 291.155 184.073C292.96 183.087 294.942 182.466 296.986 182.248L380.291 170.043Z" fill="#00B5D5"/>
<path d="M310.195 266.047L311.968 276.249H280.957L294.246 271.146L293.583 266.047H310.195Z" fill="#4B4C4C"/>
<path d="M332.094 266.047L336.082 276.249H302.852L318.359 271.146L315.477 266.047H332.094Z" fill="#4B4C4C"/>
<path d="M353.88 271.145H360.246V213.934H353.88V271.145Z" fill="#849FA0"/>
<path d="M370.484 276.246H342.984V274.489C342.984 274.05 343.07 273.615 343.238 273.21C343.405 272.805 343.651 272.436 343.961 272.126C344.271 271.816 344.639 271.57 345.043 271.402C345.448 271.234 345.882 271.147 346.32 271.147H367.148C367.586 271.147 368.02 271.234 368.424 271.402C368.829 271.57 369.197 271.816 369.507 272.126C369.817 272.436 370.063 272.805 370.23 273.21C370.398 273.615 370.484 274.05 370.484 274.489V276.246Z" fill="#849FA0"/>
<path d="M381.206 182.808L380.796 177.205L377.958 124.652L372.251 113.607L357.251 110.984C352.353 110.985 347.616 112.742 343.9 115.937C340.184 119.133 337.734 123.555 336.994 128.404L341.106 170.599L312.148 180.413L326.814 197.641L345.802 194.705L330.459 207.401L337.858 220.56L365.092 203.199L366.985 202.699C371.301 201.566 375.086 198.958 377.683 195.325C380.28 191.692 381.526 187.264 381.206 182.808Z" fill="url(#paint1_linear_5570_29913)"/>
<path d="M360.256 127.617L352.637 148.382L339.82 149.413L359.275 153.994L360.256 127.617Z" fill="#C7E7FF"/>
<path d="M354.126 110.523L349.774 124.923L347.043 143.645L349.092 159.276L352.175 127.617L366.489 112.517L353.547 121.113L354.126 110.523Z" fill="#00B5D5"/>
<path d="M360.903 173.864L341.043 166.517L376.282 140.965L371.591 167.73C371.387 168.889 370.931 169.989 370.255 170.952C369.58 171.914 368.701 172.717 367.681 173.302C366.662 173.887 365.526 174.241 364.355 174.338C363.184 174.435 362.005 174.273 360.903 173.864Z" fill="#C7E7FF"/>
<path d="M280.788 146.403C280.626 146.299 280.492 146.156 280.399 145.987C280.307 145.818 280.258 145.628 280.258 145.435C280.258 145.243 280.306 145.054 280.397 144.885C280.489 144.716 280.622 144.573 280.784 144.469C280.945 144.365 281.13 144.304 281.322 144.29C281.513 144.276 281.705 144.311 281.879 144.391L289.613 147.96L297.659 148.749L294.362 145.551C294.205 145.399 294.097 145.204 294.052 144.99C294.006 144.776 294.026 144.553 294.107 144.35C294.189 144.147 294.33 143.974 294.511 143.851C294.692 143.729 294.906 143.664 295.124 143.664C295.315 143.663 295.503 143.714 295.668 143.811L304.048 148.598C305.267 149.296 306.606 149.764 307.995 149.976L315.626 151.154L312.062 159.794L301.976 158.01L287.274 156.846C286.533 156.788 285.817 156.55 285.188 156.154C284.559 155.758 284.035 155.214 283.661 154.571L282.138 151.939C282.012 151.719 281.958 151.465 281.984 151.212C282.01 150.96 282.114 150.722 282.283 150.533C282.452 150.343 282.675 150.211 282.923 150.156C283.17 150.101 283.429 150.126 283.661 150.226L280.788 146.403Z" fill="url(#paint2_linear_5570_29913)"/>
<path d="M360.655 121.601L355.242 151.796L314.826 146.809L308.5 159.656L359.488 171.21C360.708 171.486 361.97 171.517 363.202 171.3C364.434 171.084 365.611 170.625 366.664 169.95C367.718 169.275 368.627 168.397 369.339 167.367C370.051 166.338 370.552 165.177 370.812 163.952L379.664 125.062C380.197 122.556 379.716 119.941 378.327 117.789C376.937 115.638 374.752 114.126 372.251 113.585C370.961 113.306 369.627 113.295 368.332 113.552C367.037 113.81 365.808 114.33 364.721 115.081C363.635 115.832 362.714 116.798 362.014 117.919C361.315 119.041 360.852 120.294 360.655 121.601Z" fill="white"/>
<path d="M346.017 153.054L347.086 152.809C349.349 152.284 351.361 150.994 352.784 149.156L358.736 141.483C359.132 140.972 359.422 140.386 359.588 139.761C359.755 139.136 359.795 138.483 359.706 137.843C359.617 137.202 359.401 136.585 359.071 136.029C358.741 135.473 358.303 134.988 357.783 134.604L354.379 132.093C353.364 131.347 352.099 131.026 350.852 131.197C349.605 131.369 348.473 132.02 347.697 133.012L342.351 139.859C341.46 141.006 340.826 142.331 340.493 143.745L339.789 146.724" stroke="#323333" stroke-width="1.5" stroke-miterlimit="10"/>
<path d="M344.958 154.33L346.822 154.09C347.074 154.057 347.251 153.827 347.219 153.576L347.054 152.292C347.022 152.041 346.792 151.863 346.541 151.895L344.676 152.135C344.425 152.167 344.247 152.398 344.279 152.649L344.444 153.932C344.476 154.184 344.706 154.362 344.958 154.33Z" fill="#D9F8FF"/>
<path d="M340.562 147.899L341.025 146.232C341.093 145.987 340.951 145.734 340.706 145.666L339.578 145.351C339.333 145.283 339.08 145.426 339.012 145.671L338.549 147.338C338.481 147.583 338.624 147.836 338.868 147.904L339.997 148.219C340.241 148.287 340.494 148.144 340.562 147.899Z" fill="#D9F8FF"/>
<path d="M356.691 133.795C356.691 133.795 377.519 111.982 366.145 111.531" stroke="#323333" stroke-width="1.5" stroke-miterlimit="10"/>
<path d="M338.195 130.228C338.195 130.228 344.339 115.346 352.982 111.305C353.327 111.102 353.711 110.973 354.109 110.926" stroke="#323333" stroke-width="1.5" stroke-miterlimit="10"/>
<path d="M337.588 134.742C339.001 134.742 340.146 133.596 340.146 132.182C340.146 130.767 339.001 129.621 337.588 129.621C336.176 129.621 335.031 130.767 335.031 132.182C335.031 133.596 336.176 134.742 337.588 134.742Z" fill="#EEF7FF"/>
<path d="M337.588 134.134C338.666 134.134 339.539 133.259 339.539 132.18C339.539 131.101 338.666 130.227 337.588 130.227C336.51 130.227 335.637 131.101 335.637 132.18C335.637 133.259 336.51 134.134 337.588 134.134Z" fill="#A7C3DB"/>
<path d="M277.131 116.506L275.75 117.836L277.594 118.014L287.195 115.257L286.58 113.66L277.131 116.506Z" fill="#52787C"/>
<path d="M297.942 137.714L291.064 127.614L282.795 123.84C281.719 123.348 280.797 122.572 280.125 121.597C279.454 120.621 279.059 119.482 278.982 118.3L278.603 112.403C278.594 112.26 278.625 112.118 278.691 111.992C278.757 111.865 278.857 111.76 278.979 111.686C279.102 111.612 279.242 111.574 279.384 111.574C279.527 111.575 279.666 111.615 279.788 111.689L285.985 115.525L280.376 109.08C279.823 108.442 279.439 107.675 279.262 106.849C279.236 106.736 279.245 106.618 279.289 106.51C279.333 106.403 279.41 106.312 279.508 106.25C279.606 106.188 279.721 106.158 279.836 106.165C279.952 106.172 280.063 106.214 280.153 106.287L289.986 113.795L296.552 117.43L296.659 112.47C296.685 111.221 297.172 110.025 298.027 109.115L298.21 108.914C298.295 108.824 298.405 108.761 298.525 108.731C298.646 108.701 298.772 108.706 298.89 108.746C299.007 108.786 299.111 108.859 299.189 108.956C299.266 109.053 299.314 109.17 299.328 109.294L299.862 114.352L301.644 124.924L308.857 135.952L297.942 137.714Z" fill="url(#paint3_linear_5570_29913)"/>
<path d="M284.219 114.426L285.996 115.524L296.657 112.464L296.047 110.871L284.219 114.426Z" fill="#52787C"/>
<path d="M347.137 68.6328C347.137 68.6328 336.445 71.3584 343.038 87.23C347.614 98.2706 353.414 80.793 353.414 80.793L347.137 68.6328Z" fill="#323333"/>
<path d="M341.484 91.1743L343.36 86.4279C343.866 85.1967 344.22 83.9085 344.416 82.5916C345.08 77.4884 349.316 72.6172 354.399 72.6172H357.197C358.523 72.6166 359.836 72.8779 361.06 73.3861C362.285 73.8943 363.397 74.6395 364.334 75.5789C365.27 76.5183 366.012 77.6335 366.518 78.8606C367.023 80.0877 367.282 81.4026 367.279 82.7299V93.5341C367.279 93.8329 367.279 94.1318 367.234 94.4262H367.279V112.27H353.745V103.571C348.488 103.232 344.318 102.371 344.322 93.5118V92.2315L341.484 91.1743Z" fill="url(#paint4_linear_5570_29913)"/>
<path d="M345.75 78.4597C345.75 78.4597 351.475 86.3643 355.578 85.1242L356.375 90.4772C356.375 90.4772 358.768 86.4357 360.251 86.4223C360.512 86.4321 360.766 86.5106 360.988 86.65C361.209 86.7894 361.39 86.9847 361.512 87.2163C361.749 87.6073 361.886 88.0509 361.911 88.5077C361.936 88.9645 361.848 89.4203 361.654 89.8348C361.133 90.9991 360.153 92.8548 358.883 93.8496L358.438 103.467C358.423 103.769 358.469 104.071 358.574 104.355C358.68 104.639 358.841 104.898 359.05 105.117C359.258 105.336 359.509 105.51 359.786 105.629C360.064 105.748 360.363 105.809 360.665 105.809H375.26C375.911 105.808 376.554 105.662 377.142 105.38C377.73 105.099 378.247 104.689 378.656 104.181C379.065 103.674 379.356 103.081 379.507 102.447C379.657 101.812 379.665 101.152 379.528 100.514L373.915 74.4316C373.485 72.4408 372.533 70.6007 371.157 69.1009C369.956 67.7908 368.467 66.7792 366.807 66.1466C365.148 65.5139 363.363 65.2776 361.596 65.4564L351.181 66.5091C349.7 66.6556 348.326 67.3455 347.324 68.4459C346.321 69.5463 345.76 70.9793 345.75 72.4688V78.4597Z" fill="#323333"/>
<path d="M367.279 112.23L353.41 123.4L353.744 112.23H367.279Z" fill="url(#paint5_linear_5570_29913)"/>
<path d="M140.887 117.166C142.971 117.166 144.66 115.474 144.66 113.388C144.66 111.301 142.971 109.609 140.887 109.609C138.803 109.609 137.113 111.301 137.113 113.388C137.113 115.474 138.803 117.166 140.887 117.166Z" fill="#9DD9F4"/>
<path d="M128.547 129.971C130.631 129.971 132.32 128.279 132.32 126.192C132.32 124.106 130.631 122.414 128.547 122.414C126.463 122.414 124.773 124.106 124.773 126.192C124.773 128.279 126.463 129.971 128.547 129.971Z" fill="#9DD9F4"/>
<path d="M144.422 134.272C146.506 134.272 148.195 132.58 148.195 130.493C148.195 128.406 146.506 126.715 144.422 126.715C142.338 126.715 140.648 128.406 140.648 130.493C140.648 132.58 142.338 134.272 144.422 134.272Z" fill="#9DD9F4"/>
<path d="M144.251 131.105L127.344 126.524L140.428 112.945L141.346 113.829L129.754 125.855L144.585 129.874L144.251 131.105Z" fill="#9DD9F4"/>
<path d="M226.351 110.488H192.23V114.427H226.351V110.488Z" fill="#9DD9F4"/>
<path d="M226.351 118.68H192.23V122.619H226.351V118.68Z" fill="#9DD9F4"/>
<path d="M214.176 126.867H192.23V130.806H214.176V126.867Z" fill="#9DD9F4"/>
<g opacity="0.63">
<path opacity="0.63" d="M409.627 275.871H3.69405C3.20934 275.871 2.81641 276.265 2.81641 276.75V277.107C2.81641 277.592 3.20934 277.986 3.69405 277.986H409.627C410.111 277.986 410.504 277.592 410.504 277.107V276.75C410.504 276.265 410.111 275.871 409.627 275.871Z" fill="url(#paint6_linear_5570_29913)"/>
</g>
<path d="M258.708 203.301H162.573C161.704 203.301 161 204.006 161 204.875V211.473C161 212.343 161.704 213.048 162.573 213.048H258.708C259.576 213.048 260.28 212.343 260.28 211.473V204.875C260.28 204.006 259.576 203.301 258.708 203.301Z" fill="#99E1EE"/>
<path d="M203.434 206.473L201.504 205.731C200.902 205.5 200.227 205.801 199.996 206.404L173.88 274.527C173.649 275.13 173.949 275.806 174.551 276.037L176.481 276.779C177.083 277.01 177.758 276.709 177.989 276.107L204.105 207.983C204.336 207.38 204.035 206.704 203.434 206.473Z" fill="#99E1EE"/>
<path d="M246.199 276.801L248.129 276.059C248.731 275.828 249.031 275.152 248.8 274.55L222.684 206.426C222.453 205.823 221.778 205.522 221.176 205.754L219.246 206.495C218.645 206.727 218.344 207.403 218.575 208.005L244.691 276.129C244.922 276.732 245.597 277.033 246.199 276.801Z" fill="#99E1EE"/>
<path d="M209.939 276.656H211.899C212.544 276.656 213.066 276.133 213.066 275.488V208.468C213.066 207.822 212.544 207.299 211.899 207.299H209.939C209.294 207.299 208.772 207.822 208.772 208.468V275.488C208.772 276.133 209.294 276.656 209.939 276.656Z" fill="#99E1EE"/>
<g opacity="0.63">
<path opacity="0.63" d="M184.339 187.914C184.339 187.914 180.441 179.827 182.953 175.87C185.466 171.913 188.081 164.923 188.188 162.746C188.188 162.746 193.953 168.924 193.325 172.77C192.696 176.615 186.571 181.504 189.003 185.978C191.436 190.452 184.339 187.914 184.339 187.914Z" fill="url(#paint7_linear_5570_29913)"/>
</g>
<path d="M177.938 184.141H197.067V199.883C197.067 200.788 196.708 201.656 196.069 202.296C195.43 202.936 194.563 203.295 193.659 203.295H181.35C180.446 203.295 179.579 202.936 178.94 202.296C178.301 201.656 177.942 200.788 177.942 199.883V184.141H177.938Z" fill="#99E1EE"/>
<path d="M197.074 198.422V195.523C197.957 195.523 198.803 195.172 199.427 194.547C200.052 193.922 200.402 193.074 200.402 192.191C200.402 191.307 200.052 190.459 199.427 189.834C198.803 189.209 197.957 188.858 197.074 188.858V185.959C197.926 185.903 198.78 186.022 199.583 186.31C200.387 186.598 201.123 187.048 201.746 187.632C202.369 188.216 202.865 188.922 203.205 189.706C203.544 190.491 203.719 191.336 203.719 192.191C203.719 193.045 203.544 193.891 203.205 194.675C202.865 195.459 202.369 196.165 201.746 196.749C201.123 197.333 200.387 197.783 199.583 198.071C198.78 198.359 197.926 198.478 197.074 198.422Z" fill="#99E1EE"/>
<path d="M256.48 188.626H217.307C216.659 188.626 216.018 188.499 215.419 188.25C214.821 188.002 214.277 187.638 213.819 187.18C213.362 186.721 212.998 186.177 212.75 185.578C212.503 184.979 212.375 184.337 212.375 183.688C212.375 182.378 212.895 181.122 213.819 180.196C214.744 179.27 215.999 178.75 217.307 178.75H256.475V180.262H254.88L254.845 187.114H256.48V188.626Z" fill="#7FD6E2"/>
<path d="M215.826 180.262H254.772V187.109H215.826C215.267 187.109 214.731 186.887 214.336 186.491C213.941 186.095 213.719 185.559 213.719 184.999V182.367C213.72 181.808 213.942 181.273 214.338 180.878C214.733 180.483 215.268 180.262 215.826 180.262Z" fill="#7FD6E2"/>
<path d="M253.495 203.618H214.326C213.679 203.618 213.037 203.491 212.439 203.243C211.841 202.994 211.297 202.631 210.839 202.172C210.381 201.714 210.018 201.169 209.77 200.57C209.522 199.971 209.395 199.329 209.395 198.68C209.395 197.371 209.914 196.115 210.839 195.189C211.764 194.262 213.018 193.742 214.326 193.742H253.495V195.254H251.9L251.86 202.106H253.495V203.618Z" fill="#7FD6E2"/>
<path d="M212.842 195.234H251.765V202.082H212.842C212.283 202.082 211.747 201.859 211.352 201.464C210.956 201.068 210.734 200.531 210.734 199.972V197.34C210.736 196.781 210.958 196.246 211.353 195.851C211.748 195.456 212.284 195.234 212.842 195.234Z" fill="#7FD6E2"/>
<path d="M208.001 188.545H250.51V193.719H208.001C207.579 193.719 207.174 193.551 206.876 193.253C206.578 192.954 206.41 192.549 206.41 192.127V190.124C206.41 189.701 206.578 189.296 206.876 188.998C207.174 188.699 207.579 188.531 208.001 188.531V188.545Z" fill="#91E2E8"/>
<path d="M208.855 189.34H250.514V192.909H208.855C208.562 192.909 208.281 192.792 208.074 192.584C207.866 192.377 207.75 192.096 207.75 191.802V190.424C207.756 190.134 207.875 189.859 208.081 189.656C208.288 189.453 208.566 189.34 208.855 189.34Z" fill="#91E2E8"/>
<path d="M148.977 50.0798C148.977 45.1014 150.952 40.3268 154.467 36.8065C157.983 33.2863 162.751 31.3086 167.723 31.3086H200.481C205.453 31.3086 210.221 33.2863 213.737 36.8065C217.253 40.3268 219.228 45.1014 219.228 50.0798V52.105C219.228 57.0834 217.253 61.858 213.737 65.3782C210.221 68.8985 205.453 70.8762 200.481 70.8762H148.977V50.0798Z" fill="#FFC2D2"/>
<path fill-rule="evenodd" clip-rule="evenodd" d="M215.078 38.2852H186.958C181.228 38.2863 175.733 40.5661 171.681 44.6232C167.63 48.6803 165.353 54.1826 165.352 59.9202V64.8851C165.35 66.9162 165.633 68.9374 166.194 70.8894H200.497C205.469 70.8894 210.237 68.9117 213.753 65.3914C217.269 61.8712 219.244 57.0966 219.244 52.1182V50.093C219.248 47.5242 218.724 44.9821 217.703 42.6256H186.963C183.12 42.6265 179.386 43.9092 176.352 46.2712C173.318 48.6332 171.156 51.9398 170.208 55.669C171.156 51.9398 173.318 48.6332 176.352 46.2712C179.386 43.9092 183.12 42.6265 186.963 42.6256H217.703C217.028 41.0667 216.145 39.6066 215.078 38.2852Z" fill="#F9A5BF"/>
<path d="M239.927 61.3845C239.927 58.9194 239.442 56.4785 238.5 54.201C237.558 51.9236 236.177 49.8543 234.436 48.1112C232.695 46.3682 230.629 44.9855 228.354 44.0422C226.08 43.0988 223.642 42.6133 221.18 42.6133H188.423C183.451 42.6133 178.682 44.591 175.167 48.1112C171.651 51.6315 169.676 56.406 169.676 61.3845V63.4097C169.676 68.3881 171.651 73.1626 175.167 76.6829C178.682 80.2032 183.451 82.1809 188.423 82.1809H239.927V61.3845Z" fill="#F794A8"/>
<path d="M196.964 64.645C198.204 64.645 199.209 63.6384 199.209 62.3967C199.209 61.155 198.204 60.1484 196.964 60.1484C195.724 60.1484 194.719 61.155 194.719 62.3967C194.719 63.6384 195.724 64.645 196.964 64.645Z" fill="white"/>
<path d="M204.804 64.645C206.044 64.645 207.049 63.6384 207.049 62.3967C207.049 61.155 206.044 60.1484 204.804 60.1484C203.564 60.1484 202.559 61.155 202.559 62.3967C202.559 63.6384 203.564 64.645 204.804 64.645Z" fill="white"/>
<path d="M212.636 64.645C213.876 64.645 214.881 63.6384 214.881 62.3967C214.881 61.155 213.876 60.1484 212.636 60.1484C211.396 60.1484 210.391 61.155 210.391 62.3967C210.391 63.6384 211.396 64.645 212.636 64.645Z" fill="white"/>
<path opacity="0.9" d="M317.488 60.7549C317.488 58.9466 317.136 57.1559 316.452 55.4852C315.768 53.8145 314.766 52.2964 313.503 51.0177C312.239 49.739 310.739 48.7246 309.088 48.0326C307.438 47.3406 305.668 46.9844 303.881 46.9844H280.106C278.32 46.9844 276.55 47.3406 274.899 48.0326C273.249 48.7246 271.749 49.739 270.485 51.0177C269.222 52.2964 268.22 53.8145 267.536 55.4852C266.852 57.1559 266.5 58.9466 266.5 60.7549V62.2382C266.506 65.8862 267.943 69.3825 270.494 71.9597C273.045 74.5369 276.502 75.9844 280.106 75.9844H317.5L317.488 60.7549Z" fill="white"/>
<path opacity="0.5" d="M286 62.9844C286.828 62.9844 287.5 62.3128 287.5 61.4844C287.5 60.6559 286.828 59.9844 286 59.9844C285.172 59.9844 284.5 60.6559 284.5 61.4844C284.5 62.3128 285.172 62.9844 286 62.9844Z" fill="#FF6961"/>
<path opacity="0.5" d="M292 62.9844C292.828 62.9844 293.5 62.3128 293.5 61.4844C293.5 60.6559 292.828 59.9844 292 59.9844C291.172 59.9844 290.5 60.6559 290.5 61.4844C290.5 62.3128 291.172 62.9844 292 62.9844Z" fill="#FF6961"/>
<path opacity="0.5" d="M298 62.9844C298.828 62.9844 299.5 62.3128 299.5 61.4844C299.5 60.6559 298.828 59.9844 298 59.9844C297.172 59.9844 296.5 60.6559 296.5 61.4844C296.5 62.3128 297.172 62.9844 298 62.9844Z" fill="#FF6961"/>
<g opacity="0.85">
<path d="M85.223 77.5521C85.3076 75.8187 85.7324 74.119 86.4731 72.55C87.2138 70.981 88.256 69.5735 89.5401 68.4079C90.8242 67.2424 92.325 66.3415 93.9569 65.7568C95.5888 65.1721 97.3197 64.9151 99.0508 65.0003L122.088 66.1406C123.82 66.2252 125.518 66.6509 127.086 67.3931C128.653 68.1354 130.059 69.1798 131.224 70.4665C132.388 71.7532 133.287 73.2571 133.871 74.8922C134.454 76.5272 134.71 78.2614 134.623 79.9955L134.551 81.4162C134.467 83.1504 134.041 84.8509 133.3 86.4205C132.559 87.9901 131.516 89.398 130.231 90.5637C128.946 91.7294 127.444 92.6301 125.811 93.2142C124.178 93.7983 122.446 94.0545 120.714 93.968L84.5 92.1581L85.223 77.5521Z" fill="white"/>
<path opacity="0.53" d="M115.39 81.306C116.264 81.306 116.972 80.597 116.972 79.7224C116.972 78.8477 116.264 78.1387 115.39 78.1387C114.517 78.1387 113.809 78.8477 113.809 79.7224C113.809 80.597 114.517 81.306 115.39 81.306Z" fill="#FF6961"/>
<path opacity="0.53" d="M109.878 81.037C110.752 81.037 111.46 80.328 111.46 79.4533C111.46 78.5787 110.752 77.8696 109.878 77.8696C109.005 77.8696 108.297 78.5787 108.297 79.4533C108.297 80.328 109.005 81.037 109.878 81.037Z" fill="#FF6961"/>
<path opacity="0.53" d="M104.375 80.7679C105.248 80.7679 105.956 80.0589 105.956 79.1843C105.956 78.3096 105.248 77.6006 104.375 77.6006C103.501 77.6006 102.793 78.3096 102.793 79.1843C102.793 80.0589 103.501 80.7679 104.375 80.7679Z" fill="#FF6961"/>
</g>
<defs>
<linearGradient id="paint0_linear_5570_29913" x1="33.3466" y1="101.411" x2="60.5445" y2="101.411" gradientUnits="userSpaceOnUse">
<stop stop-color="#FFBE9D"/>
<stop offset="0.36" stop-color="#FDB597"/>
<stop offset="0.95" stop-color="#F99B86"/>
<stop offset="0.99" stop-color="#F99985"/>
</linearGradient>
<linearGradient id="paint1_linear_5570_29913" x1="416.997" y1="31.8759" x2="335.826" y2="207.521" gradientUnits="userSpaceOnUse">
<stop stop-color="white"/>
<stop offset="0.51" stop-color="white"/>
</linearGradient>
<linearGradient id="paint2_linear_5570_29913" x1="315.626" y1="151.711" x2="280.258" y2="151.711" gradientUnits="userSpaceOnUse">
<stop stop-color="#FFBE9D"/>
<stop offset="0.36" stop-color="#FDB597"/>
<stop offset="0.95" stop-color="#F99B86"/>
<stop offset="0.99" stop-color="#F99985"/>
</linearGradient>
<linearGradient id="paint3_linear_5570_29913" x1="278.607" y1="121.94" x2="308.835" y2="121.94" gradientUnits="userSpaceOnUse">
<stop stop-color="#FFBE9D"/>
<stop offset="0.36" stop-color="#FDB597"/>
<stop offset="0.95" stop-color="#F99B86"/>
<stop offset="0.99" stop-color="#F99985"/>
</linearGradient>
<linearGradient id="paint4_linear_5570_29913" x1="341.484" y1="92.4233" x2="367.279" y2="92.4233" gradientUnits="userSpaceOnUse">
<stop stop-color="#FFBE9D"/>
<stop offset="0.36" stop-color="#FDB597"/>
<stop offset="0.95" stop-color="#F99B86"/>
<stop offset="0.99" stop-color="#F99985"/>
</linearGradient>
<linearGradient id="paint5_linear_5570_29913" x1="353.41" y1="117.815" x2="367.279" y2="117.815" gradientUnits="userSpaceOnUse">
<stop stop-color="#FFBE9D"/>
<stop offset="0.36" stop-color="#FDB597"/>
<stop offset="0.95" stop-color="#F99B86"/>
<stop offset="0.99" stop-color="#F99985"/>
</linearGradient>
<linearGradient id="paint6_linear_5570_29913" x1="357.423" y1="405.327" x2="-36.4186" y2="70.7947" gradientUnits="userSpaceOnUse">
<stop stop-color="#00B5D5"/>
<stop offset="0.08" stop-color="#00B5D5" stop-opacity="0.91"/>
<stop offset="0.54" stop-color="#00B5D5" stop-opacity="0.43"/>
<stop offset="0.85" stop-color="#00B5D5" stop-opacity="0.12"/>
<stop offset="1" stop-color="#00B5D5" stop-opacity="0"/>
</linearGradient>
<linearGradient id="paint7_linear_5570_29913" x1="160.21" y1="188.017" x2="193.218" y2="173.577" gradientUnits="userSpaceOnUse">
<stop stop-color="#00B5D5"/>
<stop offset="0.08" stop-color="#00B5D5" stop-opacity="0.91"/>
<stop offset="0.54" stop-color="#00B5D5" stop-opacity="0.43"/>
<stop offset="0.85" stop-color="#00B5D5" stop-opacity="0.12"/>
<stop offset="1" stop-color="#00B5D5" stop-opacity="0"/>
</linearGradient>
</defs>
</svg>
