<svg width="440" height="317" viewBox="0 0 440 317" fill="none" xmlns="http://www.w3.org/2000/svg">
<path d="M129.234 73.9783C129.234 73.9783 237.635 34.6135 270.17 16.4198C302.705 -1.77381 360.198 -7.0466 422.282 -0.999441L434.407 3.4591V316.101C434.407 316.101 309.967 326.195 250.916 277.087C191.865 227.979 155.704 93.9147 129.234 98.408" fill="url(#paint0_linear_5570_29710)"/>
<ellipse cx="60.5" cy="307.5" rx="60.5" ry="2.5" fill="url(#paint1_linear_5570_29710)"/>
<path d="M29.4396 293.209L28.475 303.315L35.0485 307.382C35.0485 307.382 36.5796 309.179 30.7716 308.621C23.1774 307.891 21.8964 308.084 20.9318 306.373C19.9672 304.662 18.2422 289.207 18.2422 289.207C18.2422 289.207 27.5512 282.764 29.4396 293.209Z" fill="#1B4A52"/>
<path d="M71.7658 299.14C71.7658 299.14 85.0648 304.726 85.0648 306.367C85.0648 308.007 57.8618 308.007 57.8828 306.367C57.9039 304.726 60.7552 294.618 61.7337 296.528C62.7121 298.437 71.7658 299.14 71.7658 299.14Z" fill="#1B4A52"/>
<path d="M97.5234 102.117L102.551 97.0978C103.177 96.4739 104.017 96.1246 104.891 96.1243H106.806C107.513 96.125 108.193 96.3989 108.711 96.891C109.228 97.3832 109.545 98.0572 109.596 98.7779L109.975 104.273C110.006 104.73 109.93 105.188 109.751 105.608C109.573 106.028 109.299 106.398 108.951 106.686L104.609 110.308C103.446 111.278 102.098 111.991 100.652 112.402L98.2505 113.087L97.5234 102.117Z" fill="url(#paint2_linear_5570_29710)"/>
<path d="M106.649 107.433H101.987C101.842 107.433 101.698 107.405 101.565 107.35C101.431 107.295 101.311 107.215 101.212 107.114C101.112 107.013 101.035 106.894 100.986 106.763C100.936 106.633 100.915 106.494 100.924 106.355L101.842 90.4697L107.619 90.9118L107.717 106.427C107.714 106.696 107.6 106.952 107.4 107.141C107.2 107.329 106.93 107.434 106.649 107.433Z" fill="#D36767"/>
<path d="M132.015 91.6007H130.44L130.367 82.5537H131.942C134.191 82.5537 136.008 84.5581 136.03 87.0553C136.036 89.5416 134.264 91.6007 132.015 91.6007Z" fill="#E27979"/>
<path d="M131.5 100.648L110.057 91.0782L109.98 82.1562L131.254 72.376L131.5 100.648Z" fill="#F28C8C"/>
<path d="M129.234 100.648L110.012 91.7216L109.98 88.208L129.156 91.4118L129.234 100.648Z" fill="#D36767"/>
<path d="M99.8043 90.4698C98.5561 90.4698 97.5324 89.0856 97.5234 87.3607V85.6953C97.5234 83.965 98.5157 82.5645 99.7684 82.5537C101.021 82.5537 102.045 83.9379 102.054 85.6628V87.3336C102.049 89.0423 101.048 90.4644 99.8043 90.4698Z" fill="#E27979"/>
<path d="M102.054 86.2986V87.7453C102.054 89.2485 101.063 90.4651 99.8114 90.4698C98.5601 90.4745 97.542 89.272 97.5286 87.7688V86.3221C97.5217 86.2126 97.5217 86.1028 97.5286 85.9933C97.5646 86.6038 97.8125 87.1795 98.2255 87.612C98.6384 88.0445 99.1881 88.3041 99.771 88.3419C100.362 88.3061 100.92 88.0409 101.334 87.598C101.749 87.155 101.991 86.5661 102.013 85.9463C102.035 86.0626 102.048 86.1803 102.054 86.2986Z" fill="#E27979"/>
<path d="M131.063 101.779C130.615 101.751 130.196 101.552 129.897 101.225C129.598 100.898 129.444 100.469 129.467 100.032L129.238 73.0123C129.208 72.5764 129.355 72.1463 129.647 71.8154C129.94 71.4845 130.356 71.2796 130.803 71.2451C131.252 71.2731 131.672 71.4729 131.971 71.801C132.27 72.129 132.424 72.5588 132.399 72.9967L132.628 100.017C132.66 100.452 132.513 100.883 132.22 101.213C131.927 101.543 131.511 101.747 131.063 101.779Z" fill="#F28C8C"/>
<path d="M130.222 71.2451L130.414 93.846C130.391 94.2856 130.546 94.7165 130.845 95.0456C131.144 95.3748 131.564 95.5759 132.014 95.6053C132.214 95.5975 132.409 95.5516 132.59 95.47L132.628 100.009C132.66 100.446 132.514 100.877 132.221 101.209C131.928 101.54 131.512 101.745 131.065 101.779C130.615 101.751 130.194 101.55 129.894 101.22C129.594 100.891 129.44 100.459 129.465 100.019L129.236 72.8847C129.223 72.548 129.309 72.2147 129.483 71.9241C129.658 71.6336 129.915 71.3979 130.222 71.2451Z" fill="#D36767"/>
<path d="M106.387 93.8625H104.601C101.951 93.8625 99.8315 91.4314 99.7891 88.3992V85.8032C99.7891 82.771 101.877 80.3026 104.511 80.292H106.297C108.947 80.292 111.067 82.7231 111.115 85.7553V88.3566C111.136 91.3888 109.021 93.8625 106.387 93.8625Z" fill="#F28C8C"/>
<path d="M111.079 88.208L111.11 92.0835C111.142 92.5117 111.004 92.9351 110.724 93.2608C110.445 93.5864 110.048 93.7875 109.621 93.82L101.344 93.8624C100.916 93.8298 100.518 93.6312 100.234 93.3089C99.9498 92.9866 99.8024 92.566 99.8229 92.1364L99.7912 88.2662C99.7694 88.6956 99.9165 89.1164 100.201 89.4382C100.485 89.7599 100.885 89.957 101.312 89.9869L109.589 89.9446C110.016 89.9121 110.413 89.7109 110.693 89.3853C110.972 89.0597 111.111 88.6362 111.079 88.208Z" fill="#D36767"/>
<path d="M92.9922 108.158L96.6527 100.927L104.548 95.1058C104.636 95.0399 104.739 95.0014 104.846 94.9945C104.954 94.9877 105.061 95.0128 105.155 95.0671C105.25 95.1213 105.327 95.2024 105.379 95.301C105.432 95.3996 105.456 95.5116 105.45 95.6241V96.3135C105.439 96.7382 105.297 97.1478 105.043 97.4798L100.482 103.373V107.002C100.479 108.032 100.182 109.037 99.6311 109.89C99.0797 110.743 98.298 111.405 97.3857 111.791L94.2999 113.087L92.9922 108.158Z" fill="url(#paint3_linear_5570_29710)"/>
<path d="M92.4749 104.04L78.2695 133.435L83.0616 165.107L100.921 113.17L92.4749 104.04Z" fill="#427189"/>
<path d="M81.6657 174.725C81.5668 176.666 74.8968 299.681 74.8968 299.681L54.6162 298.598L51.0859 174.154L81.6657 174.725Z" fill="#427189"/>
<path d="M53.3516 244.34V212.086L60.1471 210.342L54.0699 261.232L53.3516 244.34Z" fill="#295060"/>
<path d="M68.0759 181.309C63.779 179.798 54.4501 239.581 54.4501 239.581L32.8724 301.943L18.2422 289.609L29.4814 234.74L33.2917 179.798L55.3508 160.584L68.0759 181.309Z" fill="#427189"/>
<path d="M75.6592 96.1243L88.4619 149.236L84.2379 161.715L73.7383 102.244L75.6592 96.1243Z" fill="#295060"/>
<path d="M31.832 193.457L44.8023 193.295L48.7023 185.269L52.5604 194.51C52.5604 194.51 60.6793 192.83 62.2685 189.89C63.8578 186.949 63.5128 179.809 63.5128 179.809L32.4594 183.69L31.832 193.457Z" fill="#295060"/>
<path d="M60.6611 97.2848L48.8242 91.6006L70.3275 93.1839C72.5318 93.1839 74.6623 93.9792 76.3291 95.4243C77.9959 96.8695 79.0875 98.8677 79.404 101.053L87.3321 188.856H78.4927L66.9877 109.118L60.6611 97.2848Z" fill="#427189"/>
<path d="M73.746 179.809C73.746 179.809 73.2297 192.08 80.6337 194.51L81.6664 182.838L73.746 179.809Z" fill="#295060"/>
<path d="M73.5549 100.648L88.4642 189.987H82.7598C80.6128 189.987 73.9439 187.033 73.5912 184.909L65.8125 110.153" fill="#427189"/>
<path d="M30.4436 143.166L33.7858 99.7802C34.0169 97.539 35.0674 95.4629 36.7347 93.9524C38.402 92.442 40.568 91.6042 42.815 91.6006H48.737L59.5261 105.315C61.7395 108.134 63.1313 111.513 63.5471 115.076L63.4793 183.09C63.4779 184.919 62.7521 186.674 61.4615 187.967C60.1708 189.26 58.4209 189.986 56.5964 189.986H53.8704L49.6926 181.754L43.6662 189.986H26.1719L30.4436 143.166Z" fill="#427189"/>
<path d="M59.7721 105.284L48.8242 91.6006L60.7225 92.4522L67.1309 108.926L73.7411 179.809H63.8603V115.023C63.4376 111.467 62.0226 108.096 59.7721 105.284Z" fill="#8DD9F7"/>
<path d="M35.9587 137.647L51.0887 107.433L38.1833 126.265L26.1719 141.216L39.2051 148.894L44.0266 150.406L35.9587 137.647Z" fill="#295060"/>
<path d="M29.5703 159.794L38.2128 169.631L41.5222 165.075L46.5591 165.776L42.7325 154.93L29.5703 159.794Z" fill="#295060"/>
<path d="M43.0904 151.537L51.0867 155.055L47.0859 166.238L35.2305 159.818L43.0904 151.537Z" fill="url(#paint4_linear_5570_29710)"/>
<path d="M46.4233 151.092L30.7787 138.891L51.0908 107.204C53.6991 103.129 51.5026 97.8881 47.4951 95.3681C45.4015 94.012 42.8576 93.5469 40.4228 94.0752C37.988 94.6035 35.8617 96.0818 34.5117 98.1851L10.9999 134.907C7.53625 140.313 9.17833 144.493 14.6325 150.891L39.1369 166.238L46.4233 151.092Z" fill="#427189"/>
<path d="M108.228 97.2551C108.228 97.2551 103.443 98.7827 103.089 99.9983C102.735 101.214 101.668 107.184 102.201 108.292C102.735 109.4 110.133 106.813 109.98 106.006C109.828 105.199 108.228 97.2551 108.228 97.2551Z" fill="url(#paint5_linear_5570_29710)"/>
<path d="M52.9327 101.779V116.368L58.3898 118.001L55.6197 123.099L61.2792 145.883L54.0428 123.099L56.346 119.433L51.0859 117.021L52.9327 101.779Z" fill="#295060"/>
<path d="M75.6107 110.959L73.424 114.241L76.4236 118.102L74.7051 143.621L77.1388 117.81L74.5559 114.408L76.0892 110.959L68.0781 99.5168L75.6107 110.959Z" fill="#295060"/>
<path d="M64.3054 58.1958L61.6233 57.7905C60.3688 57.5974 59.0873 57.6459 57.8522 57.9333C56.6171 58.2206 55.4528 58.7412 54.4258 59.4652C53.3987 60.1892 52.5293 61.1023 51.8672 62.1523C51.2052 63.2022 50.7635 64.3684 50.5676 65.584L48.9583 75.4921C48.9123 75.7639 48.8819 76.038 48.8671 76.313H48.8242L48.9368 92.4196L61.2746 99.5168L60.6523 88.606L60.2768 86.6524C65.3139 87.0992 69.396 86.9122 70.7049 78.7862L70.898 77.6119L73.7411 77.0508L72.1318 70.0471C73.0062 64.9605 69.5891 58.9959 64.3054 58.1958Z" fill="url(#paint6_linear_5570_29710)"/>
<path d="M54.0587 73.3998L53.6699 69.9297C53.6298 69.5783 53.6688 69.2219 53.7837 68.8886C53.8987 68.5553 54.0865 68.2541 54.3326 68.0086C54.5786 67.763 54.8761 67.5798 55.2019 67.4732C55.5277 67.3667 55.8728 67.3397 56.2103 67.3943L56.7288 67.4803C56.9583 67.5176 57.1784 67.6014 57.3766 67.7269C57.5749 67.8523 57.7473 68.0171 57.884 68.2116C58.0208 68.4062 58.1191 68.6267 58.1736 68.8607C58.228 69.0947 58.2374 69.3375 58.2012 69.5752L57.6361 73.3031L59.9225 69.081C60.8775 67.3118 62.279 65.8449 63.9768 64.8375L66.8698 63.1186L63.7902 67.4534C63.7902 67.4534 70.162 68.0712 72.6351 64.0532L74.0245 61.867C74.7241 60.7789 75.0056 59.4591 74.8137 58.167C74.6218 56.8748 73.9705 55.7038 72.9876 54.8839L70.9138 53.1757C68.2577 50.9637 65.028 49.6177 61.6334 49.3082L54.5928 48.6689C52.6645 48.4928 50.7271 48.8795 48.9999 49.7851C47.2728 50.6908 45.8248 52.0793 44.8198 53.7935C43.9408 55.2915 43.3946 56.9734 43.2206 58.7173C43.0466 60.4612 43.2493 62.2233 43.814 63.876L48.646 78.0301L54.0587 73.3998Z" fill="#323333"/>
<path d="M54.4844 84.8154L60.5687 86.5905L61.2799 92.7315L54.4844 84.8154Z" fill="url(#paint7_linear_5570_29710)"/>
<path d="M230.073 176.914H261.481C262.022 176.915 262.558 176.809 263.058 176.603C263.558 176.396 264.013 176.094 264.395 175.712C264.778 175.33 265.081 174.877 265.288 174.377C265.495 173.878 265.601 173.343 265.6 172.803V156.39C265.601 155.85 265.495 155.315 265.288 154.816C265.081 154.317 264.778 153.863 264.395 153.481C264.013 153.099 263.558 152.797 263.058 152.59C262.558 152.384 262.022 152.278 261.481 152.279H228.771C228.23 152.278 227.694 152.384 227.194 152.59C226.694 152.797 226.24 153.099 225.857 153.481C225.474 153.863 225.171 154.317 224.964 154.816C224.758 155.315 224.652 155.85 224.652 156.39V183.761L230.073 176.914Z" fill="#78CDEA"/>
<path d="M266.725 147.234H233.057C231.045 147.234 229.414 148.862 229.414 150.87V168.24C229.414 170.248 231.045 171.875 233.057 171.875H266.725C268.737 171.875 270.367 170.248 270.367 168.24V150.87C270.367 148.862 268.737 147.234 266.725 147.234Z" fill="#9DD9F4"/>
<path d="M239.41 161.657C240.575 161.657 241.519 160.714 241.519 159.552C241.519 158.39 240.575 157.448 239.41 157.448C238.245 157.448 237.301 158.39 237.301 159.552C237.301 160.714 238.245 161.657 239.41 161.657Z" fill="white"/>
<path d="M249.894 161.657C251.059 161.657 252.003 160.714 252.003 159.552C252.003 158.39 251.059 157.448 249.894 157.448C248.729 157.448 247.785 158.39 247.785 159.552C247.785 160.714 248.729 161.657 249.894 161.657Z" fill="white"/>
<path d="M260.375 161.657C261.539 161.657 262.484 160.714 262.484 159.552C262.484 158.39 261.539 157.448 260.375 157.448C259.21 157.448 258.266 158.39 258.266 159.552C258.266 160.714 259.21 161.657 260.375 161.657Z" fill="white"/>
<path d="M278.507 59.8692H313.946C315.498 59.8661 316.984 59.249 318.08 58.1533C319.176 57.0577 319.791 55.5729 319.791 54.0249V30.7234C319.791 29.1734 319.174 27.6869 318.076 26.5909C316.978 25.4949 315.488 24.8792 313.935 24.8792H276.665C275.112 24.8792 273.622 25.4949 272.524 26.5909C271.426 27.6869 270.809 29.1734 270.809 30.7234V69.569L278.507 59.8692Z" fill="url(#paint8_linear_5570_29710)"/>
<path d="M288.489 40.4243H284.759C284.066 40.4243 283.504 40.985 283.504 41.6767V51.991C283.504 52.6827 284.066 53.2434 284.759 53.2434H288.489C289.182 53.2434 289.744 52.6827 289.744 51.991V41.6767C289.744 40.985 289.182 40.4243 288.489 40.4243Z" fill="white"/>
<path d="M305.321 41.6278H305.1C305.626 41.6278 306.131 41.4197 306.503 41.0491C306.876 40.6785 307.086 40.1757 307.087 39.6508C307.086 39.1254 306.876 38.6219 306.504 38.2504C306.131 37.8788 305.627 37.6694 305.1 37.6679H298.71C299.494 36.433 300.563 34.4617 300.563 32.8557C300.563 30.3104 299.163 28.8958 298.239 28.7334C297.851 28.647 297.444 28.7117 297.102 28.9142C296.759 29.1168 296.508 29.4419 296.397 29.8234C296.13 30.5945 296.601 32.0498 296.397 32.5658C296.118 33.3717 294.712 34.4443 292.807 36.8794C291.781 38.2444 291.265 39.9238 291.349 41.6278V50.3246C291.35 50.6517 291.481 50.9649 291.713 51.1961C291.944 51.4274 292.258 51.558 292.586 51.5595H304.415C304.796 51.558 305.162 51.406 305.432 51.1367C305.702 50.8674 305.854 50.5026 305.856 50.1217C305.854 49.7413 305.702 49.3771 305.432 49.1087C305.161 48.8403 304.796 48.6896 304.415 48.6896H304.618C305.08 48.6896 305.524 48.5064 305.851 48.1802C306.177 47.854 306.361 47.4116 306.361 46.9503C306.361 46.489 306.177 46.0465 305.851 45.7203C305.524 45.3942 305.08 45.2109 304.618 45.2109H305.263C305.725 45.2109 306.169 45.0277 306.495 44.7015C306.822 44.3753 307.006 43.9329 307.006 43.4715C307.026 43.0044 306.861 42.5481 306.545 42.2026C306.229 41.857 305.789 41.6504 305.321 41.6278Z" fill="white"/>
<path d="M284.398 204.965H291.469V197.903H299.353V204.965H306.423V212.826H299.353V219.888H291.469V212.826H284.398V204.965Z" fill="#95D4DB"/>
<path d="M267.41 227.078H270.576V223.913H274.109V227.078H277.275V230.598H274.109V233.763H270.576V230.598H267.41V227.078Z" fill="#FDB0A8"/>
<path d="M245.977 129.682H247.418C249.951 129.682 252.008 127.844 252.008 125.571V83.6119C252.008 81.3449 249.951 79.5012 247.418 79.5012H180.088C177.549 79.5012 175.492 81.3449 175.492 83.6119V125.571C175.492 127.844 177.549 129.682 180.088 129.682H245.977Z" fill="url(#paint9_linear_5570_29710)"/>
<path opacity="0.73" d="M244.435 111.873H183.055V114.07H244.435V111.873Z" fill="white"/>
<path opacity="0.73" d="M244.435 106.368H183.055V108.566H244.435V106.368Z" fill="white"/>
<path d="M224.464 118.075H203.031V123.119H224.464V118.075Z" fill="white"/>
<path d="M191.848 91.6422C192.717 91.6422 193.422 90.9387 193.422 90.071C193.422 89.2032 192.717 88.4998 191.848 88.4998C190.978 88.4998 190.273 89.2032 190.273 90.071C190.273 90.9387 190.978 91.6422 191.848 91.6422Z" fill="white"/>
<path d="M217.531 91.6422C218.401 91.6422 219.106 90.9387 219.106 90.071C219.106 89.2032 218.401 88.4998 217.531 88.4998C216.662 88.4998 215.957 89.2032 215.957 90.071C215.957 90.9387 216.662 91.6422 217.531 91.6422Z" fill="white"/>
<path d="M241.282 91.6422C242.151 91.6422 242.856 90.9387 242.856 90.071C242.856 89.2032 242.151 88.4998 241.282 88.4998C240.412 88.4998 239.707 89.2032 239.707 90.071C239.707 90.9387 240.412 91.6422 241.282 91.6422Z" fill="white"/>
<path d="M209.961 101.4C210.831 101.4 211.536 100.697 211.536 99.829C211.536 98.9613 210.831 98.2578 209.961 98.2578C209.092 98.2578 208.387 98.9613 208.387 99.829C208.387 100.697 209.092 101.4 209.961 101.4Z" fill="white"/>
<path d="M235.645 101.4C236.514 101.4 237.219 100.697 237.219 99.829C237.219 98.9613 236.514 98.2578 235.645 98.2578C234.775 98.2578 234.07 98.9613 234.07 99.829C234.07 100.697 234.775 101.4 235.645 101.4Z" fill="white"/>
<path d="M191.848 90.0723L209.963 99.83L217.533 90.0723L235.648 99.83L241.283 90.0723" stroke="white" stroke-miterlimit="10"/>
<path d="M348.613 94.9934H303.296C302.748 94.9934 302.205 95.1013 301.699 95.3108C301.192 95.5204 300.732 95.8276 300.345 96.2147C299.957 96.6019 299.65 97.0615 299.441 97.5672C299.232 98.073 299.124 98.6149 299.125 99.1621V128.772C299.124 129.319 299.232 129.861 299.441 130.367C299.65 130.872 299.957 131.332 300.345 131.719C300.732 132.106 301.192 132.413 301.699 132.623C302.205 132.832 302.748 132.94 303.296 132.94H348.613C349.161 132.94 349.704 132.832 350.211 132.623C350.717 132.413 351.177 132.106 351.565 131.719C351.952 131.332 352.259 130.872 352.469 130.367C352.678 129.861 352.785 129.319 352.785 128.772V99.1621C352.785 98.0575 352.345 96.998 351.563 96.2164C350.781 95.4348 349.72 94.9949 348.613 94.9934Z" fill="#9DD9F4"/>
<path d="M335.588 110.99L322.225 103.279C321.701 102.976 321.107 102.817 320.501 102.817C319.896 102.816 319.301 102.975 318.777 103.277C318.253 103.58 317.817 104.014 317.515 104.538C317.213 105.061 317.054 105.655 317.055 106.259V121.681C317.055 122.285 317.214 122.878 317.517 123.401C317.82 123.923 318.255 124.357 318.779 124.658C319.304 124.96 319.898 125.118 320.503 125.118C321.108 125.117 321.702 124.958 322.225 124.656L335.588 116.944C336.112 116.643 336.546 116.209 336.849 115.686C337.151 115.163 337.31 114.571 337.31 113.967C337.31 113.364 337.151 112.771 336.849 112.248C336.546 111.726 336.112 111.292 335.588 110.99Z" fill="white"/>
<path d="M360.888 168.469H341.68C340.488 168.469 339.344 168.942 338.501 169.784C337.657 170.625 337.184 171.767 337.184 172.957V183.921C337.185 185.11 337.66 186.25 338.503 187.09C339.346 187.93 340.489 188.402 341.68 188.402H360.888C362.079 188.402 363.222 187.93 364.065 187.09C364.908 186.25 365.383 185.11 365.384 183.921V172.957C365.384 171.767 364.911 170.625 364.067 169.784C363.224 168.942 362.08 168.469 360.888 168.469Z" fill="#FFA4A4"/>
<path d="M355.829 176.377L349.834 172.898C349.506 172.709 349.134 172.609 348.756 172.608C348.377 172.608 348.005 172.707 347.677 172.896C347.349 173.084 347.076 173.356 346.887 173.683C346.697 174.01 346.598 174.382 346.598 174.759V181.676C346.598 182.054 346.697 182.425 346.887 182.752C347.076 183.08 347.349 183.351 347.677 183.54C348.005 183.729 348.377 183.828 348.756 183.827C349.134 183.827 349.506 183.727 349.834 183.537L355.829 180.059C356.147 179.867 356.41 179.597 356.592 179.275C356.774 178.952 356.87 178.588 356.87 178.218C356.87 177.848 356.774 177.484 356.592 177.161C356.41 176.839 356.147 176.569 355.829 176.377Z" fill="white"/>
<path d="M400.571 60.4859L401.333 29.5021C401.341 29.3464 401.313 29.1908 401.251 29.0476C401.189 28.9044 401.094 28.7774 400.975 28.6765C400.856 28.5755 400.715 28.5033 400.564 28.4655C400.412 28.4277 400.254 28.4253 400.101 28.4585L376.17 32.1634C375.839 32.2204 375.539 32.3948 375.325 32.6546C375.112 32.9144 374.999 33.2422 375.008 33.578L376.862 64.1617C376.878 64.2937 376.923 64.4208 376.992 64.5346C377.061 64.6484 377.154 64.7465 377.263 64.8225C377.373 64.8984 377.497 64.9506 377.628 64.9756C377.759 65.0006 377.894 64.9979 378.024 64.9676L399.439 61.657C399.731 61.6159 400.002 61.4783 400.207 61.2661C400.412 61.0539 400.541 60.7792 400.571 60.4859Z" fill="#D8DEE8"/>
<path opacity="0.74" d="M375.258 33.5316C375.253 33.2701 375.342 33.0156 375.51 32.8144C375.677 32.6133 375.912 32.4789 376.17 32.4358L400.089 28.7368C400.207 28.7107 400.33 28.7122 400.447 28.7412C400.565 28.7702 400.674 28.8258 400.766 28.9039C400.858 28.9819 400.931 29.0802 400.979 29.191C401.027 29.3018 401.048 29.4222 401.042 29.5427L400.31 60.5264C400.287 60.7554 400.186 60.9697 400.024 61.1341C399.863 61.2985 399.65 61.4031 399.421 61.4309L377.994 64.7472C377.892 64.7736 377.786 64.7779 377.682 64.7598C377.578 64.7417 377.48 64.7017 377.393 64.6424C377.306 64.583 377.233 64.5058 377.178 64.4159C377.124 64.326 377.089 64.2255 377.076 64.1211L375.258 33.5316Z" fill="white"/>
<path d="M396.759 35.516C396.524 35.5678 396.28 35.5657 396.046 35.5097C395.812 35.4538 395.593 35.3456 395.407 35.1932C395.221 35.0409 395.071 34.8483 394.971 34.63C394.87 34.4117 394.82 34.1735 394.825 33.9332C394.849 33.3955 395.059 32.8826 395.417 32.4805C395.776 32.0783 396.262 31.8113 396.794 31.7242C397.031 31.672 397.276 31.6744 397.512 31.7313C397.747 31.7881 397.967 31.8979 398.153 32.0523C398.34 32.2066 398.489 32.4014 398.589 32.6219C398.688 32.8424 398.736 33.0826 398.729 33.3244C398.697 33.858 398.485 34.3652 398.127 34.7632C397.77 35.1612 397.287 35.4265 396.759 35.516Z" fill="#62B0BE"/>
<path d="M395.979 35.1673C395.771 35.0712 395.586 34.9311 395.437 34.7568C395.288 34.5824 395.179 34.378 395.117 34.1575C395.055 33.937 395.042 33.7058 395.079 33.4798C395.115 33.2537 395.2 33.0382 395.328 32.8482C395.557 32.4052 395.936 32.0578 396.398 31.8677C396.86 31.6777 397.374 31.6573 397.85 31.8103C398.055 31.9094 398.237 32.0515 398.383 32.2269C398.529 32.4022 398.635 32.6069 398.694 32.8268C398.754 33.0468 398.765 33.277 398.728 33.5018C398.69 33.7265 398.605 33.9406 398.477 34.1295C398.251 34.5698 397.876 34.9158 397.419 35.1059C396.961 35.296 396.451 35.3177 395.979 35.1673Z" fill="#62B0BE"/>
<path d="M396.077 34.9811C395.891 34.8965 395.725 34.7724 395.592 34.6174C395.459 34.4624 395.362 34.2803 395.306 34.0837C395.251 33.8872 395.239 33.681 395.272 33.4795C395.305 33.278 395.381 33.0861 395.496 32.9171C395.698 32.5216 396.035 32.211 396.446 32.041C396.857 31.871 397.315 31.8527 397.739 31.9894C397.926 32.0752 398.092 32.2007 398.226 32.3572C398.36 32.5137 398.458 32.6975 398.513 32.8956C398.568 33.0938 398.58 33.3016 398.546 33.5045C398.513 33.7075 398.436 33.9008 398.32 34.0709C398.115 34.4632 397.776 34.7701 397.366 34.9368C396.955 35.1035 396.498 35.1192 396.077 34.9811Z" fill="#62B0BE"/>
<g style="mix-blend-mode:multiply" opacity="0.3">
<path d="M398.032 33.9583C398.047 33.9365 398.058 33.9116 398.062 33.8855C398.066 33.8594 398.065 33.8326 398.058 33.8072C398.05 33.7817 398.038 33.7581 398.02 33.7381C398.003 33.7181 397.981 33.7022 397.957 33.6916L396.069 32.9147C396.014 32.8957 395.955 32.8971 395.902 32.9184C395.848 32.9397 395.804 32.9795 395.778 33.0306C395.763 33.0529 395.753 33.0781 395.749 33.1047C395.744 33.1312 395.746 33.1584 395.753 33.1843C395.76 33.2102 395.773 33.2343 395.79 33.2548C395.808 33.2753 395.829 33.2918 395.854 33.3031L397.742 34.08C397.797 34.0973 397.856 34.0945 397.909 34.0722C397.963 34.0499 398.006 34.0095 398.032 33.9583Z" fill="#62B0BE"/>
</g>
<g style="mix-blend-mode:soft-light" opacity="0.74">
<path d="M397.336 33.7268C397.249 33.7473 397.159 33.7476 397.072 33.7278C396.986 33.708 396.905 33.6685 396.836 33.6125C396.767 33.5565 396.711 33.4854 396.674 33.4047C396.637 33.324 396.619 33.2358 396.621 33.1471C396.633 32.9483 396.711 32.7593 396.844 32.6109C396.977 32.4624 397.157 32.3633 397.353 32.3296C397.44 32.3091 397.53 32.3088 397.617 32.3286C397.704 32.3484 397.785 32.3879 397.854 32.4439C397.923 32.4999 397.978 32.571 398.015 32.6517C398.052 32.7324 398.07 32.8206 398.068 32.9093C398.058 33.1087 397.981 33.2988 397.847 33.4477C397.714 33.5966 397.533 33.6951 397.336 33.7268Z" fill="#62B0BE"/>
</g>
<path d="M396.689 41.9868C396.462 42.0394 396.227 42.04 396 41.9886C395.773 41.9372 395.56 41.8351 395.379 41.69C395.197 41.545 395.05 41.3606 394.95 41.1509C394.85 40.9412 394.799 40.7116 394.801 40.4794C394.832 39.9592 395.04 39.4651 395.39 39.0791C395.741 38.6931 396.214 38.4385 396.73 38.3574C396.958 38.3043 397.196 38.3041 397.425 38.3567C397.654 38.4094 397.867 38.5136 398.049 38.6613C398.232 38.809 398.377 38.9963 398.476 39.2089C398.575 39.4215 398.623 39.6538 398.618 39.888C398.583 40.4045 398.373 40.8937 398.022 41.2752C397.672 41.6566 397.202 41.9076 396.689 41.9868Z" fill="#62B0BE"/>
<path d="M395.927 41.6557C395.724 41.5679 395.542 41.4363 395.396 41.2704C395.25 41.1045 395.143 40.9083 395.082 40.696C395.021 40.4837 395.007 40.2605 395.043 40.0425C395.079 39.8245 395.162 39.6171 395.288 39.4351C395.517 39.0066 395.89 38.6718 396.341 38.4886C396.792 38.3054 397.293 38.2854 397.757 38.4321C397.96 38.5219 398.14 38.6555 398.285 38.8233C398.43 38.9912 398.536 39.189 398.595 39.4026C398.653 39.6162 398.664 39.8402 398.626 40.0584C398.587 40.2765 398.501 40.4835 398.373 40.6643C398.144 41.0873 397.774 41.4176 397.328 41.5985C396.882 41.7794 396.386 41.7996 395.927 41.6557Z" fill="#62B0BE"/>
<path d="M396.03 41.4823C395.848 41.4059 395.685 41.29 395.553 41.1428C395.422 40.9957 395.324 40.8211 395.269 40.6317C395.213 40.4423 395.2 40.243 395.232 40.0481C395.263 39.8532 395.337 39.6678 395.449 39.5052C395.651 39.1234 395.981 38.8246 396.382 38.6614C396.782 38.4981 397.228 38.4808 397.64 38.6124C397.821 38.6921 397.982 38.811 398.111 38.9604C398.24 39.1098 398.335 39.286 398.388 39.4763C398.44 39.6665 398.45 39.8661 398.416 40.0606C398.382 40.2551 398.306 40.4397 398.192 40.601C397.988 40.9738 397.662 41.265 397.268 41.4255C396.874 41.5861 396.437 41.6061 396.03 41.4823Z" fill="#62B0BE"/>
<g style="mix-blend-mode:multiply" opacity="0.3">
<path d="M397.94 40.4923C397.954 40.4715 397.963 40.4479 397.968 40.4231C397.972 40.3983 397.97 40.3729 397.964 40.3487C397.957 40.3244 397.945 40.3019 397.929 40.2826C397.913 40.2634 397.893 40.2479 397.87 40.2371L396.017 39.495C395.963 39.4777 395.905 39.4798 395.853 39.501C395.801 39.5223 395.758 39.5612 395.732 39.611C395.718 39.6326 395.709 39.657 395.705 39.6824C395.701 39.7079 395.703 39.7339 395.71 39.7586C395.717 39.7834 395.73 39.8063 395.747 39.8258C395.763 39.8454 395.784 39.8611 395.808 39.8719L397.655 40.6082C397.709 40.6256 397.767 40.6234 397.819 40.6022C397.871 40.581 397.914 40.542 397.94 40.4923Z" fill="#62B0BE"/>
</g>
<g style="mix-blend-mode:soft-light" opacity="0.74">
<path d="M397.262 40.2834C397.176 40.3018 397.087 40.3006 397.002 40.2798C396.917 40.2591 396.837 40.2193 396.769 40.1635C396.702 40.1077 396.648 40.0373 396.611 39.9577C396.575 39.8781 396.557 39.7912 396.559 39.7036C396.572 39.511 396.651 39.3287 396.782 39.1865C396.913 39.0443 397.088 38.9507 397.279 38.9209C397.365 38.9035 397.453 38.9055 397.537 38.9267C397.622 38.9479 397.7 38.9879 397.767 39.0436C397.834 39.0992 397.888 39.1692 397.924 39.2484C397.96 39.3275 397.978 39.4137 397.976 39.5007C397.965 39.6932 397.888 39.8759 397.758 40.0184C397.628 40.1609 397.453 40.2545 397.262 40.2834Z" fill="#62B0BE"/>
</g>
<path d="M396.635 48.1966C396.415 48.25 396.186 48.253 395.965 48.2055C395.744 48.158 395.536 48.0612 395.358 47.9223C395.18 47.7834 395.035 47.6061 394.935 47.4036C394.835 47.2011 394.783 46.9786 394.781 46.7529C394.816 46.2489 395.021 45.7716 395.365 45.4004C395.708 45.0292 396.169 44.7863 396.669 44.7121C396.891 44.6584 397.121 44.6556 397.344 44.7041C397.566 44.7526 397.774 44.8509 397.953 44.9917C398.132 45.1326 398.276 45.3121 398.375 45.5168C398.473 45.7215 398.524 45.946 398.523 46.1732C398.483 46.6734 398.274 47.1455 397.932 47.5128C397.589 47.8801 397.132 48.1211 396.635 48.1966Z" fill="#62B0BE"/>
<path d="M395.882 47.8758C395.685 47.7953 395.508 47.6714 395.365 47.5131C395.222 47.3548 395.116 47.1663 395.057 46.9617C394.997 46.7571 394.984 46.5417 395.02 46.3315C395.055 46.1214 395.137 45.9219 395.261 45.748C395.49 45.3343 395.854 45.012 396.294 44.8356C396.733 44.6592 397.22 44.6395 397.672 44.7797C397.867 44.8648 398.041 44.9925 398.181 45.1536C398.32 45.3147 398.421 45.5049 398.477 45.7103C398.533 45.9157 398.542 46.1309 398.503 46.3402C398.464 46.5494 398.379 46.7473 398.253 46.9191C398.025 47.3229 397.666 47.6374 397.235 47.8112C396.805 47.985 396.328 48.0078 395.882 47.8758Z" fill="#62B0BE"/>
<path d="M395.978 47.709C395.803 47.6366 395.646 47.5257 395.519 47.3845C395.392 47.2433 395.299 47.0755 395.246 46.8934C395.193 46.7114 395.181 46.5197 395.213 46.3327C395.244 46.1457 395.317 45.9681 395.426 45.8131C395.631 45.4452 395.957 45.1587 396.348 45.0015C396.739 44.8442 397.173 44.8258 397.576 44.9492C397.752 45.0233 397.908 45.1358 398.035 45.2785C398.161 45.4211 398.253 45.5903 398.305 45.7734C398.357 45.9566 398.367 46.149 398.334 46.3365C398.302 46.524 398.227 46.7018 398.116 46.8567C397.912 47.2215 397.588 47.5052 397.198 47.6604C396.809 47.8155 396.379 47.8326 395.978 47.709Z" fill="#62B0BE"/>
<g style="mix-blend-mode:multiply" opacity="0.3">
<path d="M397.851 46.7591C397.866 46.7388 397.875 46.7156 397.879 46.6912C397.883 46.6669 397.882 46.6419 397.875 46.6181C397.869 46.5943 397.857 46.5722 397.841 46.5535C397.824 46.5348 397.804 46.5199 397.782 46.5098L395.969 45.8082C395.917 45.7908 395.86 45.7923 395.809 45.8124C395.758 45.8326 395.716 45.8701 395.69 45.9184C395.676 45.9387 395.667 45.9619 395.663 45.9863C395.658 46.0106 395.66 46.0356 395.666 46.0594C395.673 46.0832 395.685 46.1053 395.701 46.124C395.717 46.1427 395.737 46.1576 395.76 46.1677L397.573 46.8693C397.625 46.8845 397.68 46.8819 397.731 46.862C397.781 46.842 397.824 46.8058 397.851 46.7591Z" fill="#62B0BE"/>
</g>
<g style="mix-blend-mode:soft-light" opacity="0.74">
<path d="M397.186 46.5508C397.104 46.5658 397.021 46.5633 396.941 46.5435C396.86 46.5237 396.785 46.4871 396.721 46.436C396.656 46.385 396.602 46.3208 396.564 46.2476C396.526 46.1744 396.504 46.094 396.5 46.0116C396.514 45.825 396.591 45.6486 396.719 45.5116C396.847 45.3746 397.017 45.2851 397.203 45.2579C397.284 45.243 397.368 45.2455 397.448 45.2653C397.528 45.2851 397.603 45.3217 397.668 45.3727C397.733 45.4237 397.786 45.488 397.824 45.5612C397.862 45.6344 397.884 45.7148 397.889 45.7971C397.874 45.9834 397.796 46.1593 397.669 46.2961C397.541 46.4329 397.371 46.5227 397.186 46.5508Z" fill="#62B0BE"/>
</g>
<path d="M396.57 54.152C396.358 54.2063 396.136 54.2119 395.921 54.1683C395.706 54.1247 395.504 54.0331 395.329 53.9003C395.155 53.7675 395.013 53.597 394.914 53.4016C394.815 53.2062 394.761 52.991 394.758 52.7721C394.796 52.2841 394.999 51.8237 395.335 51.4673C395.672 51.1108 396.12 50.8797 396.605 50.8124C396.819 50.7568 397.043 50.7507 397.26 50.7944C397.476 50.8382 397.68 50.9307 397.855 51.0648C398.031 51.199 398.173 51.3714 398.272 51.5688C398.37 51.7662 398.422 51.9834 398.424 52.2039C398.38 52.6896 398.173 53.1463 397.837 53.4999C397.501 53.8535 397.054 54.0833 396.57 54.152Z" fill="#62B0BE"/>
<path d="M395.837 53.8504C395.645 53.7756 395.473 53.6582 395.334 53.5071C395.195 53.356 395.092 53.1752 395.033 52.9785C394.974 52.7818 394.961 52.5742 394.995 52.3717C395.028 52.1691 395.108 51.9769 395.227 51.8096C395.457 51.4094 395.816 51.0987 396.245 50.9281C396.674 50.7576 397.149 50.7372 397.592 50.8703C397.783 50.9477 397.953 51.0676 398.091 51.2209C398.228 51.3742 398.329 51.5567 398.385 51.7547C398.441 51.9527 398.451 52.1609 398.414 52.3633C398.377 52.5657 398.295 52.757 398.173 52.9227C397.943 53.3155 397.588 53.6203 397.165 53.7884C396.742 53.9565 396.274 53.9783 395.837 53.8504Z" fill="#62B0BE"/>
<path d="M395.924 53.6852C395.753 53.6196 395.599 53.5156 395.474 53.3813C395.35 53.247 395.258 53.0859 395.206 52.9106C395.154 52.7352 395.142 52.5502 395.173 52.3699C395.204 52.1896 395.276 52.0187 395.383 51.8705C395.587 51.5126 395.907 51.2348 396.291 51.083C396.674 50.9312 397.098 50.9145 397.492 51.0356C397.663 51.1039 397.815 51.21 397.938 51.3459C398.062 51.4818 398.152 51.644 398.203 51.82C398.254 51.9961 398.264 52.1814 398.233 52.362C398.201 52.5425 398.129 52.7135 398.021 52.8619C397.814 53.2137 397.495 53.4861 397.115 53.6354C396.735 53.7847 396.315 53.8022 395.924 53.6852Z" fill="#62B0BE"/>
<g style="mix-blend-mode:multiply" opacity="0.3">
<path d="M397.766 52.7642C397.78 52.7448 397.789 52.7225 397.793 52.6989C397.798 52.6754 397.796 52.6512 397.789 52.6282C397.783 52.6053 397.771 52.5842 397.755 52.5665C397.738 52.5489 397.718 52.5352 397.696 52.5265L395.924 51.8771C395.873 51.8607 395.819 51.8621 395.769 51.8811C395.719 51.9001 395.678 51.9355 395.651 51.9815C395.637 52.0008 395.627 52.0231 395.623 52.0467C395.619 52.0703 395.621 52.0945 395.627 52.1174C395.634 52.1404 395.646 52.1615 395.662 52.1791C395.678 52.1967 395.698 52.2105 395.721 52.2192L397.493 52.8917C397.546 52.9052 397.602 52.8998 397.652 52.8765C397.702 52.8533 397.742 52.8136 397.766 52.7642Z" fill="#62B0BE"/>
</g>
<g style="mix-blend-mode:soft-light" opacity="0.74">
<path d="M397.115 52.5666C397.036 52.5868 396.953 52.5887 396.873 52.5723C396.793 52.556 396.718 52.5216 396.653 52.4719C396.588 52.4222 396.535 52.3585 396.499 52.2855C396.462 52.2125 396.442 52.1322 396.441 52.0506C396.458 51.8705 396.534 51.7012 396.658 51.5698C396.783 51.4383 396.948 51.3524 397.127 51.3258C397.206 51.3057 397.289 51.3037 397.369 51.3201C397.449 51.3365 397.525 51.3708 397.59 51.4205C397.654 51.4702 397.707 51.5339 397.744 51.6069C397.78 51.6799 397.8 51.7602 397.801 51.8419C397.785 52.0219 397.708 52.1912 397.584 52.3226C397.46 52.4541 397.295 52.54 397.115 52.5666Z" fill="#62B0BE"/>
</g>
<path d="M396.506 59.8688C396.3 59.9239 396.085 59.9319 395.875 59.8922C395.666 59.8526 395.468 59.7663 395.297 59.6398C395.125 59.5133 394.985 59.3499 394.885 59.1617C394.786 58.9734 394.73 58.7653 394.723 58.5527C394.764 58.0786 394.966 57.6328 395.295 57.289C395.625 56.9453 396.063 56.7243 396.535 56.6626C396.743 56.6072 396.96 56.5996 397.171 56.6402C397.381 56.6808 397.58 56.7686 397.752 56.897C397.923 57.0254 398.064 57.191 398.162 57.3814C398.26 57.5718 398.314 57.782 398.319 57.9961C398.272 58.4663 398.068 58.907 397.739 59.2468C397.41 59.5867 396.976 59.8058 396.506 59.8688Z" fill="#62B0BE"/>
<path d="M395.796 59.5832C395.611 59.5135 395.444 59.4017 395.309 59.2567C395.174 59.1117 395.074 58.9374 395.018 58.7476C394.961 58.5577 394.95 58.3574 394.984 58.1624C395.019 57.9673 395.098 57.7829 395.215 57.6236C395.445 57.2344 395.799 56.9336 396.22 56.7696C396.642 56.6055 397.107 56.5877 397.539 56.7191C397.726 56.7886 397.894 56.9005 398.03 57.0459C398.165 57.1914 398.266 57.3663 398.322 57.557C398.378 57.7476 398.389 57.9488 398.354 58.1445C398.319 58.3402 398.239 58.5251 398.12 58.6846C397.889 59.0719 397.535 59.3708 397.114 59.5337C396.692 59.6966 396.229 59.714 395.796 59.5832Z" fill="#62B0BE"/>
<path d="M395.889 59.4155C395.725 59.352 395.578 59.2523 395.459 59.1241C395.34 58.9958 395.251 58.8423 395.199 58.6749C395.148 58.5076 395.135 58.3308 395.162 58.1578C395.189 57.9848 395.255 57.8202 395.354 57.6761C395.559 57.3317 395.873 57.0654 396.247 56.9194C396.62 56.7734 397.032 56.7561 397.417 56.8702C397.579 56.935 397.725 57.0355 397.843 57.1642C397.961 57.293 398.049 57.4467 398.099 57.614C398.149 57.7812 398.161 57.9575 398.133 58.1299C398.106 58.3023 398.04 58.4663 397.94 58.6096C397.735 58.9516 397.423 59.2163 397.052 59.3622C396.681 59.508 396.272 59.5268 395.889 59.4155Z" fill="#62B0BE"/>
<g style="mix-blend-mode:multiply" opacity="0.3">
<path d="M397.667 58.5351C397.682 58.5171 397.691 58.496 397.696 58.4736C397.7 58.4511 397.699 58.4278 397.693 58.4058C397.687 58.3837 397.676 58.3634 397.66 58.3466C397.644 58.3298 397.625 58.3169 397.603 58.309L395.86 57.6712C395.811 57.6563 395.757 57.6584 395.709 57.6773C395.66 57.6962 395.62 57.7308 395.593 57.7756C395.58 57.7943 395.572 57.8157 395.568 57.8382C395.565 57.8607 395.566 57.8837 395.573 57.9055C395.58 57.9273 395.591 57.9472 395.607 57.9639C395.622 57.9805 395.642 57.9935 395.663 58.0017L397.406 58.6395C397.455 58.653 397.507 58.6502 397.554 58.6313C397.601 58.6125 397.641 58.5787 397.667 58.5351Z" fill="#62B0BE"/>
</g>
<g style="mix-blend-mode:soft-light" opacity="0.74">
<path d="M397.043 58.3473C396.967 58.3674 396.887 58.3701 396.809 58.3549C396.732 58.3398 396.658 58.3073 396.595 58.2598C396.532 58.2124 396.48 58.1512 396.444 58.081C396.408 58.0108 396.388 57.9333 396.387 57.8544C396.402 57.6746 396.481 57.5058 396.608 57.3776C396.735 57.2494 396.904 57.1699 397.084 57.1529C397.161 57.1328 397.242 57.1303 397.32 57.1458C397.399 57.1612 397.472 57.1942 397.536 57.2421C397.6 57.2901 397.652 57.3519 397.688 57.4228C397.725 57.4937 397.744 57.5719 397.746 57.6515C397.727 57.8305 397.647 57.9973 397.519 58.1241C397.391 58.2508 397.223 58.3296 397.043 58.3473Z" fill="#62B0BE"/>
</g>
<path d="M391.087 36.39C390.851 36.4418 390.606 36.4404 390.37 36.3857C390.135 36.3309 389.915 36.2243 389.726 36.0737C389.537 35.9231 389.384 35.7322 389.279 35.515C389.174 35.2979 389.118 35.06 389.117 34.8187C389.136 34.2854 389.339 33.7751 389.692 33.3737C390.044 32.9724 390.525 32.7046 391.052 32.6156C391.29 32.5644 391.536 32.5671 391.773 32.6236C392.009 32.68 392.23 32.7888 392.419 32.9418C392.608 33.0948 392.761 33.2881 392.865 33.5076C392.969 33.7271 393.022 33.9671 393.021 34.21C392.997 34.7392 392.792 35.2441 392.44 35.6408C392.088 36.0374 391.61 36.3018 391.087 36.39Z" fill="#62B0BE"/>
<path d="M390.289 36.0451C390.078 35.9521 389.889 35.8145 389.737 35.6418C389.585 35.4691 389.472 35.2654 389.406 35.0449C389.34 34.8243 389.323 34.5922 389.356 34.3644C389.389 34.1367 389.471 33.9188 389.597 33.7259C389.821 33.2814 390.198 32.9321 390.659 32.7416C391.119 32.5511 391.633 32.5321 392.107 32.6881C392.315 32.7843 392.5 32.9239 392.65 33.0975C392.799 33.2711 392.909 33.4747 392.973 33.6945C393.037 33.9143 393.053 34.1452 393.02 34.3717C392.987 34.5982 392.905 34.8149 392.781 35.0072C392.557 35.4479 392.183 35.7945 391.726 35.9847C391.27 36.175 390.76 36.1964 390.289 36.0451Z" fill="#62B0BE"/>
<path d="M390.388 35.865C390.201 35.7814 390.035 35.6585 389.9 35.5048C389.765 35.351 389.665 35.1699 389.606 34.974C389.548 34.778 389.532 34.5717 389.561 34.3693C389.59 34.1669 389.662 33.973 389.773 33.8009C389.974 33.4061 390.31 33.0962 390.72 32.9271C391.13 32.758 391.588 32.741 392.009 32.8791C392.195 32.9658 392.36 33.0915 392.493 33.2476C392.625 33.4038 392.722 33.5866 392.778 33.7838C392.833 33.9809 392.845 34.1876 392.812 34.3897C392.78 34.5918 392.704 34.7845 392.59 34.9547C392.389 35.3406 392.058 35.6434 391.656 35.8099C391.253 35.9764 390.804 35.9959 390.388 35.865Z" fill="#62B0BE"/>
<g style="mix-blend-mode:multiply" opacity="0.3">
<path d="M392.329 34.8397C392.343 34.8176 392.352 34.7928 392.356 34.7669C392.36 34.7411 392.358 34.7146 392.351 34.6895C392.344 34.6643 392.331 34.6409 392.315 34.6208C392.298 34.6007 392.277 34.5844 392.253 34.573L390.342 33.7961C390.287 33.7789 390.227 33.7816 390.174 33.8039C390.121 33.8262 390.077 33.8666 390.051 33.9178C390.037 33.9403 390.028 33.9654 390.025 33.9916C390.022 34.0177 390.024 34.0443 390.031 34.0696C390.039 34.0948 390.052 34.1181 390.07 34.1379C390.087 34.1578 390.109 34.1737 390.133 34.1846L392.044 34.9615C392.098 34.9796 392.157 34.9773 392.21 34.9548C392.262 34.9324 392.305 34.8914 392.329 34.8397Z" fill="#62B0BE"/>
</g>
<g style="mix-blend-mode:soft-light" opacity="0.74">
<path d="M391.631 34.6119C391.543 34.6355 391.451 34.6383 391.362 34.6199C391.273 34.6016 391.189 34.5627 391.118 34.5063C391.047 34.4499 390.99 34.3776 390.952 34.2952C390.914 34.2129 390.896 34.1228 390.899 34.0321C390.907 33.8347 390.983 33.6462 391.114 33.4983C391.245 33.3504 391.424 33.2523 391.619 33.2204C391.707 33.1978 391.798 33.1959 391.886 33.2147C391.975 33.2336 392.057 33.2727 392.128 33.329C392.198 33.3852 392.255 33.4571 392.292 33.5389C392.33 33.6207 392.348 33.7102 392.345 33.8002C392.338 33.9967 392.262 34.1846 392.132 34.3324C392.002 34.4801 391.825 34.5788 391.631 34.6119Z" fill="#62B0BE"/>
</g>
<path d="M391.136 42.8444C390.907 42.8971 390.67 42.8982 390.441 42.8477C390.212 42.7972 389.998 42.6963 389.813 42.5524C389.628 42.4085 389.478 42.2252 389.373 42.0159C389.268 41.8066 389.211 41.5766 389.207 41.3427C389.229 40.825 389.431 40.3311 389.777 39.9452C390.124 39.5592 390.594 39.3052 391.107 39.2265C391.337 39.1744 391.575 39.1745 391.805 39.2268C392.035 39.2791 392.25 39.3822 392.435 39.5285C392.619 39.6749 392.769 39.8608 392.872 40.0724C392.975 40.284 393.029 40.5161 393.03 40.7513C393.005 41.2648 392.802 41.7538 392.457 42.1353C392.112 42.5168 391.645 42.7673 391.136 42.8444Z" fill="#62B0BE"/>
<path d="M390.363 42.5185C390.159 42.4329 389.976 42.3036 389.828 42.1397C389.679 41.9758 389.569 41.7813 389.504 41.57C389.439 41.3587 389.421 41.1357 389.452 40.9169C389.484 40.698 389.563 40.4887 389.684 40.3037C389.909 39.8737 390.279 39.537 390.729 39.3534C391.178 39.1698 391.679 39.1511 392.141 39.3007C392.345 39.3882 392.527 39.5196 392.675 39.6854C392.822 39.8512 392.931 40.0474 392.994 40.26C393.056 40.4725 393.071 40.6963 393.037 40.9153C393.004 41.1343 392.922 41.3432 392.798 41.5271C392.571 41.9491 392.204 42.2791 391.759 42.46C391.315 42.641 390.821 42.6617 390.363 42.5185Z" fill="#62B0BE"/>
<path d="M390.459 42.3476C390.279 42.2688 390.118 42.1516 389.988 42.0041C389.858 41.8567 389.762 41.6827 389.707 41.4942C389.651 41.3058 389.638 41.1076 389.668 40.9135C389.697 40.7193 389.769 40.534 389.878 40.3706C390.079 39.9892 390.408 39.6906 390.807 39.5273C391.207 39.364 391.651 39.3465 392.063 39.4777C392.244 39.5562 392.407 39.6739 392.538 39.8222C392.669 39.9705 392.766 40.1459 392.821 40.3358C392.877 40.5257 392.89 40.7255 392.859 40.9209C392.828 41.1163 392.755 41.3026 392.643 41.4664C392.441 41.8457 392.111 42.1418 391.712 42.3029C391.312 42.464 390.869 42.4798 390.459 42.3476Z" fill="#62B0BE"/>
<g style="mix-blend-mode:multiply" opacity="0.3">
<path d="M392.356 41.3534C392.369 41.3322 392.379 41.3083 392.382 41.2832C392.386 41.2582 392.384 41.2326 392.377 41.2083C392.37 41.184 392.358 41.1616 392.341 41.1426C392.324 41.1235 392.303 41.1084 392.28 41.0983L390.409 40.3619C390.357 40.3436 390.299 40.3454 390.248 40.3668C390.196 40.3882 390.154 40.4277 390.13 40.4779C390.116 40.499 390.107 40.523 390.103 40.548C390.1 40.5731 390.102 40.5987 390.109 40.623C390.116 40.6473 390.128 40.6697 390.145 40.6887C390.162 40.7077 390.183 40.7228 390.206 40.733L392.077 41.4693C392.129 41.4876 392.187 41.4859 392.238 41.4645C392.29 41.4431 392.331 41.4035 392.356 41.3534Z" fill="#62B0BE"/>
</g>
<g style="mix-blend-mode:soft-light" opacity="0.74">
<path d="M391.67 41.1385C391.584 41.1579 391.494 41.1574 391.408 41.1371C391.322 41.1168 391.242 41.0772 391.174 41.0213C391.105 40.9654 391.051 40.8947 391.014 40.8145C390.977 40.7343 390.959 40.6468 390.961 40.5587C390.968 40.3669 391.043 40.1837 391.171 40.0408C391.3 39.8979 391.474 39.8042 391.664 39.776C391.75 39.7565 391.84 39.757 391.926 39.7773C392.012 39.7976 392.092 39.8372 392.16 39.8931C392.229 39.949 392.283 40.0197 392.32 40.0999C392.357 40.1801 392.375 40.2676 392.373 40.3557C392.364 40.5472 392.29 40.7298 392.162 40.8725C392.033 41.0152 391.86 41.1092 391.67 41.1385Z" fill="#62B0BE"/>
</g>
<path d="M391.189 49.0366C390.968 49.0892 390.738 49.092 390.515 49.0449C390.293 48.9979 390.084 48.9021 389.903 48.7645C389.723 48.6269 389.575 48.4509 389.471 48.2493C389.366 48.0477 389.308 47.8255 389.301 47.5988C389.328 47.0975 389.527 46.621 389.866 46.2501C390.205 45.8791 390.662 45.6366 391.16 45.5637C391.382 45.5109 391.614 45.5085 391.838 45.5565C392.061 45.6046 392.271 45.7019 392.452 45.8414C392.633 45.981 392.781 46.1591 392.884 46.3629C392.987 46.5666 393.043 46.7908 393.048 47.019C393.016 47.5168 392.814 47.9887 392.476 48.3559C392.138 48.7231 391.683 48.9634 391.189 49.0366Z" fill="#62B0BE"/>
<path d="M390.434 48.7244C390.235 48.646 390.057 48.5242 389.911 48.3682C389.766 48.2121 389.657 48.0256 389.593 47.8223C389.529 47.619 389.512 47.4039 389.541 47.1929C389.571 46.9819 389.648 46.7801 389.766 46.6024C389.992 46.1876 390.356 45.8642 390.794 45.6876C391.233 45.5109 391.72 45.492 392.171 45.6342C392.37 45.7138 392.549 45.8371 392.694 45.995C392.838 46.1529 392.946 46.3413 393.008 46.5462C393.07 46.7511 393.085 46.9674 393.051 47.1788C393.018 47.3903 392.938 47.5916 392.816 47.7678C392.589 48.1755 392.228 48.4931 391.795 48.6672C391.361 48.8414 390.881 48.8616 390.434 48.7244Z" fill="#62B0BE"/>
<path d="M390.527 48.5576C390.351 48.4863 390.194 48.3768 390.066 48.2371C389.938 48.0975 389.842 47.9312 389.787 47.7502C389.731 47.5693 389.716 47.3782 389.744 47.1909C389.772 47.0037 389.84 46.8249 389.946 46.6675C390.148 46.2985 390.472 46.0109 390.863 45.8534C391.254 45.6959 391.687 45.6783 392.09 45.8036C392.267 45.8746 392.426 45.9844 392.556 46.1249C392.685 46.2654 392.781 46.4331 392.837 46.6156C392.892 46.798 392.906 46.9907 392.878 47.1793C392.849 47.3679 392.778 47.5476 392.671 47.7053C392.467 48.073 392.143 48.3589 391.752 48.5143C391.361 48.6697 390.928 48.685 390.527 48.5576Z" fill="#62B0BE"/>
<g style="mix-blend-mode:multiply" opacity="0.3">
<path d="M392.384 47.5991C392.398 47.5789 392.407 47.5558 392.411 47.5316C392.414 47.5073 392.413 47.4826 392.405 47.4591C392.398 47.4357 392.386 47.4142 392.369 47.3963C392.352 47.3784 392.331 47.3645 392.308 47.3556L390.478 46.6541C390.426 46.6389 390.37 46.6414 390.32 46.6614C390.269 46.6813 390.227 46.7175 390.199 46.7643C390.186 46.7853 390.177 46.8092 390.173 46.8341C390.17 46.8591 390.172 46.8844 390.18 46.9084C390.188 46.9323 390.201 46.9542 390.218 46.9724C390.236 46.9906 390.257 47.0047 390.281 47.0136L392.105 47.7093C392.157 47.7268 392.214 47.7253 392.265 47.7051C392.316 47.685 392.358 47.6474 392.384 47.5991Z" fill="#62B0BE"/>
</g>
<g style="mix-blend-mode:soft-light" opacity="0.74">
<path d="M391.713 47.3968C391.631 47.4136 391.546 47.4125 391.464 47.3936C391.383 47.3747 391.306 47.3384 391.24 47.2872C391.174 47.2359 391.119 47.171 391.081 47.0969C391.042 47.0227 391.02 46.9411 391.016 46.8576C391.028 46.6723 391.103 46.4967 391.229 46.3597C391.354 46.2227 391.523 46.1325 391.707 46.1039C391.789 46.0871 391.874 46.0882 391.955 46.1071C392.037 46.126 392.114 46.1623 392.18 46.2136C392.246 46.2648 392.3 46.3297 392.339 46.4038C392.378 46.478 392.4 46.5596 392.404 46.6431C392.393 46.8288 392.318 47.0049 392.192 47.1421C392.066 47.2793 391.897 47.3692 391.713 47.3968Z" fill="#62B0BE"/>
</g>
<path d="M391.242 54.9745C391.028 55.028 390.805 55.0334 390.589 54.9902C390.372 54.9471 390.168 54.8564 389.992 54.7249C389.815 54.5934 389.669 54.4242 389.566 54.2298C389.463 54.0353 389.404 53.8203 389.395 53.6004C389.423 53.1146 389.62 52.6537 389.952 52.2971C390.283 51.9405 390.73 51.7105 391.213 51.6466C391.428 51.5917 391.653 51.5859 391.871 51.6295C392.089 51.6732 392.295 51.7653 392.472 51.899C392.649 52.0326 392.795 52.2044 392.896 52.4016C392.998 52.5987 393.054 52.8163 393.061 53.038C393.025 53.5197 392.825 53.9748 392.494 54.3272C392.164 54.6796 391.721 54.9081 391.242 54.9745Z" fill="#62B0BE"/>
<path d="M390.499 54.6719C390.306 54.6003 390.132 54.4856 389.989 54.3368C389.847 54.1879 389.74 54.0086 389.678 53.8125C389.615 53.6164 389.598 53.4087 389.627 53.205C389.657 53.0013 389.733 52.807 389.849 52.6369C390.075 52.244 390.428 51.9384 390.849 51.7692C391.27 51.5999 391.737 51.5767 392.173 51.7034C392.366 51.7765 392.541 51.8927 392.683 52.0433C392.824 52.1938 392.93 52.3747 392.991 52.5722C393.052 52.7696 393.067 52.9783 393.035 53.1825C393.003 53.3866 392.925 53.5807 392.806 53.75C392.58 54.1387 392.23 54.4406 391.812 54.6077C391.394 54.7748 390.932 54.7974 390.499 54.6719Z" fill="#62B0BE"/>
<path d="M390.591 54.5139C390.418 54.4497 390.263 54.3474 390.136 54.2146C390.009 54.0819 389.914 53.9221 389.858 53.7473C389.802 53.5726 389.787 53.3874 389.813 53.2059C389.839 53.0243 389.907 52.851 390.01 52.6991C390.212 52.3429 390.53 52.0662 390.911 51.9145C391.293 51.7627 391.714 51.745 392.107 51.8642C392.281 51.9279 392.438 52.0305 392.566 52.1642C392.694 52.2978 392.79 52.4589 392.846 52.6352C392.902 52.8115 392.917 52.9983 392.89 53.1812C392.862 53.3641 392.793 53.5384 392.688 53.6906C392.484 54.0454 392.166 54.3204 391.784 54.47C391.403 54.6197 390.982 54.6352 390.591 54.5139Z" fill="#62B0BE"/>
<g style="mix-blend-mode:multiply" opacity="0.3">
<path d="M392.44 53.6153C392.453 53.5952 392.461 53.5726 392.464 53.549C392.467 53.5254 392.465 53.5014 392.458 53.4788C392.451 53.4561 392.439 53.4353 392.423 53.4178C392.407 53.4003 392.387 53.3865 392.365 53.3775L390.569 52.7108C390.519 52.6952 390.465 52.6977 390.416 52.7178C390.367 52.7379 390.327 52.7744 390.302 52.821C390.288 52.8407 390.279 52.8634 390.275 52.8872C390.272 52.9111 390.273 52.9355 390.281 52.9585C390.288 52.9815 390.301 53.0026 390.317 53.0199C390.334 53.0373 390.355 53.0506 390.378 53.0587L392.167 53.7196C392.218 53.735 392.272 53.7331 392.322 53.7142C392.371 53.6953 392.413 53.6605 392.44 53.6153Z" fill="#62B0BE"/>
</g>
<g style="mix-blend-mode:soft-light" opacity="0.74">
<path d="M391.754 53.3956C391.675 53.4156 391.592 53.4176 391.512 53.4016C391.432 53.3855 391.357 53.3518 391.292 53.3028C391.227 53.2539 391.173 53.191 391.136 53.1188C391.098 53.0465 391.077 52.9668 391.074 52.8854C391.085 52.7053 391.158 52.5345 391.281 52.4023C391.404 52.27 391.569 52.1846 391.748 52.1607C391.827 52.1407 391.91 52.1387 391.99 52.1547C392.07 52.1708 392.145 52.2045 392.21 52.2535C392.276 52.3024 392.329 52.3653 392.367 52.4376C392.404 52.5098 392.425 52.5895 392.428 52.6709C392.417 52.851 392.344 53.0218 392.221 53.1541C392.098 53.2863 391.933 53.3717 391.754 53.3956Z" fill="#62B0BE"/>
</g>
<path d="M391.278 60.6811C391.07 60.7345 390.853 60.7415 390.643 60.7015C390.432 60.6614 390.233 60.5755 390.06 60.4497C389.887 60.3239 389.744 60.1614 389.641 59.9739C389.538 59.7863 389.478 59.5784 389.465 59.365C389.499 58.8937 389.695 58.4486 390.02 58.1051C390.345 57.7617 390.779 57.5411 391.248 57.4807C391.457 57.4249 391.675 57.4166 391.887 57.4563C392.1 57.4961 392.3 57.5829 392.474 57.7104C392.648 57.8378 392.791 58.0027 392.893 58.1927C392.994 58.3828 393.052 58.5932 393.061 58.8084C393.023 59.2769 392.825 59.7181 392.5 60.0588C392.176 60.3995 391.744 60.6191 391.278 60.6811Z" fill="#62B0BE"/>
<path d="M390.563 60.3895C390.375 60.3246 390.205 60.2172 390.065 60.0756C389.926 59.9341 389.821 59.7623 389.759 59.5737C389.697 59.3851 389.68 59.1847 389.709 58.9883C389.737 58.7919 389.811 58.6047 389.924 58.4415C390.153 58.0513 390.506 57.7493 390.928 57.5842C391.349 57.419 391.814 57.4004 392.248 57.5312C392.436 57.5989 392.606 57.7091 392.744 57.8531C392.882 57.9971 392.985 58.1711 393.045 58.3614C393.104 58.5518 393.119 58.7533 393.088 58.9502C393.056 59.1471 392.98 59.3342 392.864 59.4967C392.636 59.8811 392.285 60.178 391.868 60.3399C391.451 60.5018 390.991 60.5193 390.563 60.3895Z" fill="#62B0BE"/>
<path d="M390.649 60.2387C390.481 60.1802 390.329 60.0841 390.205 59.958C390.081 59.8319 389.987 59.6791 389.931 59.5112C389.875 59.3433 389.858 59.1648 389.882 58.9894C389.905 58.8141 389.969 58.6464 390.068 58.4994C390.27 58.1539 390.583 57.8865 390.956 57.7403C391.329 57.5941 391.741 57.5776 392.124 57.6935C392.289 57.7552 392.438 57.8534 392.559 57.9809C392.68 58.1084 392.771 58.2616 392.824 58.4292C392.877 58.5967 392.892 58.7741 392.866 58.948C392.84 59.1219 392.775 59.2877 392.676 59.4328C392.475 59.7715 392.166 60.0342 391.8 60.18C391.433 60.3257 391.028 60.3464 390.649 60.2387Z" fill="#62B0BE"/>
<g style="mix-blend-mode:multiply" opacity="0.3">
<path d="M392.437 59.3465C392.45 59.3277 392.459 59.3063 392.462 59.2838C392.466 59.2613 392.464 59.2383 392.457 59.2165C392.451 59.1948 392.439 59.1748 392.424 59.1582C392.408 59.1415 392.389 59.1286 392.368 59.1203L390.625 58.4884C390.575 58.4734 390.522 58.4755 390.473 58.4945C390.425 58.5134 390.384 58.548 390.358 58.5927C390.345 58.6118 390.336 58.6336 390.333 58.6564C390.33 58.6792 390.332 58.7024 390.34 58.7243C390.347 58.7461 390.359 58.766 390.375 58.7824C390.392 58.7987 390.411 58.8112 390.433 58.8188L392.176 59.4508C392.225 59.4644 392.277 59.4615 392.324 59.4426C392.372 59.4238 392.411 59.39 392.437 59.3465Z" fill="#62B0BE"/>
</g>
<g style="mix-blend-mode:soft-light" opacity="0.74">
<path d="M391.793 59.16C391.717 59.1799 391.636 59.1825 391.559 59.1677C391.481 59.153 391.407 59.1211 391.343 59.0745C391.28 59.0279 391.227 58.9677 391.189 58.8983C391.151 58.8288 391.129 58.7519 391.125 58.673C391.136 58.4982 391.207 58.3325 391.327 58.2045C391.447 58.0764 391.607 57.9941 391.782 57.9715C391.859 57.9505 391.94 57.9472 392.019 57.9619C392.098 57.9765 392.173 58.0087 392.237 58.056C392.302 58.1034 392.355 58.1647 392.393 58.2353C392.431 58.306 392.452 58.3843 392.456 58.4643C392.442 58.6386 392.369 58.803 392.248 58.9298C392.128 59.0565 391.967 59.1378 391.793 59.16Z" fill="#62B0BE"/>
</g>
<path d="M385.401 37.2711C385.164 37.3203 384.918 37.317 384.682 37.2616C384.446 37.2061 384.225 37.0998 384.035 36.9501C383.844 36.8004 383.689 36.6109 383.58 36.3949C383.471 36.1789 383.41 35.9417 383.402 35.6999C383.407 35.1684 383.6 34.6558 383.948 34.2534C384.296 33.851 384.776 33.5849 385.302 33.5025C385.542 33.4521 385.79 33.4551 386.028 33.5114C386.266 33.5677 386.489 33.676 386.681 33.8283C386.872 33.9807 387.028 34.1734 387.136 34.3927C387.244 34.612 387.302 34.8525 387.307 35.0969C387.294 35.6246 387.097 36.1311 386.748 36.5284C386.4 36.9257 385.923 37.1885 385.401 37.2711Z" fill="#62B0BE"/>
<path d="M384.609 36.9253C384.395 36.8353 384.204 36.7002 384.048 36.5293C383.891 36.3584 383.774 36.1558 383.704 35.9354C383.634 35.715 383.613 35.482 383.641 35.2525C383.67 35.023 383.748 34.8025 383.871 34.6061C384.092 34.1619 384.467 33.8126 384.926 33.6229C385.385 33.4331 385.898 33.4158 386.369 33.5741C386.58 33.6664 386.77 33.8031 386.923 33.975C387.077 34.1469 387.192 34.3499 387.259 34.57C387.327 34.7902 387.347 35.0225 387.316 35.2508C387.286 35.4792 387.207 35.6983 387.084 35.8932C386.863 36.3323 386.492 36.6779 386.038 36.8673C385.584 37.0567 385.077 37.0772 384.609 36.9253Z" fill="#62B0BE"/>
<path d="M384.7 36.7477C384.511 36.6672 384.342 36.547 384.204 36.3953C384.065 36.2436 383.962 36.0639 383.899 35.8686C383.837 35.6732 383.818 35.4668 383.843 35.2633C383.867 35.0598 383.936 34.8641 384.043 34.6894C384.242 34.2947 384.575 33.9843 384.984 33.815C385.393 33.6458 385.849 33.6289 386.269 33.7676C386.457 33.8503 386.625 33.9725 386.762 34.1259C386.899 34.2794 387.002 34.4604 387.062 34.6567C387.123 34.8531 387.14 35.0601 387.114 35.2638C387.087 35.4676 387.017 35.6632 386.908 35.8374C386.711 36.2287 386.379 36.5361 385.974 36.7033C385.568 36.8704 385.116 36.8862 384.7 36.7477Z" fill="#62B0BE"/>
<g style="mix-blend-mode:multiply" opacity="0.3">
<path d="M386.628 35.7187C386.642 35.6963 386.651 35.6712 386.654 35.645C386.658 35.6188 386.656 35.5922 386.648 35.567C386.64 35.5418 386.627 35.5184 386.61 35.4986C386.592 35.4788 386.571 35.4629 386.547 35.452L384.618 34.6809C384.563 34.6624 384.503 34.6646 384.45 34.687C384.396 34.7094 384.353 34.7505 384.327 34.8027C384.314 34.8255 384.305 34.8509 384.302 34.8774C384.299 34.9038 384.302 34.9306 384.31 34.9559C384.318 34.9812 384.332 35.0044 384.35 35.024C384.368 35.0436 384.39 35.059 384.415 35.0694L386.343 35.8405C386.398 35.8586 386.457 35.8563 386.509 35.8338C386.562 35.8114 386.604 35.7704 386.628 35.7187Z" fill="#62B0BE"/>
</g>
<g style="mix-blend-mode:soft-light" opacity="0.74">
<path d="M385.921 35.4948C385.834 35.5125 385.743 35.511 385.657 35.4904C385.57 35.4697 385.488 35.4305 385.418 35.3753C385.348 35.3202 385.29 35.2504 385.25 35.1709C385.21 35.0914 385.187 35.0041 385.184 34.915C385.184 34.7182 385.255 34.5281 385.384 34.3792C385.513 34.2303 385.692 34.1324 385.887 34.1033C385.975 34.0846 386.066 34.0854 386.153 34.1056C386.241 34.1258 386.323 34.1649 386.394 34.2201C386.465 34.2754 386.523 34.3455 386.564 34.4255C386.604 34.5054 386.627 34.5934 386.63 34.6831C386.626 34.8798 386.553 35.0687 386.423 35.217C386.294 35.3653 386.116 35.4636 385.921 35.4948Z" fill="#62B0BE"/>
</g>
<path d="M385.579 43.7082C385.349 43.7583 385.111 43.7576 384.882 43.7064C384.652 43.6551 384.437 43.5545 384.25 43.4115C384.064 43.2685 383.911 43.0865 383.802 42.8784C383.694 42.6703 383.632 42.441 383.621 42.2066C383.632 41.6916 383.825 41.1972 384.167 40.8109C384.508 40.4246 384.975 40.1714 385.486 40.0962C385.717 40.0448 385.957 40.0451 386.188 40.0969C386.419 40.1488 386.636 40.2509 386.823 40.396C387.01 40.5411 387.163 40.7256 387.27 40.9363C387.377 41.1471 387.437 41.3789 387.444 41.6152C387.429 42.1271 387.234 42.6174 386.893 43.0001C386.552 43.3828 386.087 43.6335 385.579 43.7082Z" fill="#62B0BE"/>
<path d="M384.797 43.3795C384.592 43.2962 384.407 43.1692 384.256 43.0073C384.105 42.8454 383.991 42.6525 383.922 42.4421C383.854 42.2317 383.832 42.0089 383.859 41.7893C383.885 41.5696 383.96 41.3584 384.077 41.1705C384.298 40.7412 384.665 40.4048 385.112 40.222C385.56 40.0391 386.058 40.0218 386.517 40.1732C386.723 40.2571 386.908 40.3853 387.06 40.5488C387.211 40.7122 387.324 40.9068 387.391 41.1188C387.458 41.3308 387.477 41.555 387.448 41.7754C387.418 41.9957 387.34 42.2069 387.22 42.3938C386.996 42.8155 386.631 43.1453 386.188 43.3255C385.745 43.5056 385.253 43.5247 384.797 43.3795Z" fill="#62B0BE"/>
<path d="M384.886 43.1815C384.702 43.1081 384.537 42.9955 384.402 42.8515C384.267 42.7074 384.166 42.5356 384.105 42.3481C384.044 42.1606 384.025 41.962 384.049 41.7663C384.074 41.5707 384.141 41.3828 384.246 41.216C384.443 40.8339 384.77 40.5342 385.168 40.3706C385.566 40.207 386.01 40.1902 386.419 40.3231C386.602 40.399 386.766 40.5137 386.9 40.6593C387.033 40.8049 387.134 40.9779 387.193 41.1662C387.253 41.3545 387.271 41.5535 387.246 41.7494C387.22 41.9452 387.152 42.1332 387.047 42.3002C386.848 42.6777 386.523 42.9731 386.127 43.1343C385.732 43.2956 385.292 43.3123 384.886 43.1815Z" fill="#62B0BE"/>
<g style="mix-blend-mode:multiply" opacity="0.3">
<path d="M386.781 42.217C386.793 42.1952 386.802 42.171 386.804 42.1459C386.807 42.1208 386.805 42.0954 386.797 42.0713C386.789 42.0472 386.777 42.025 386.76 42.0062C386.743 41.9873 386.722 41.9722 386.699 41.9619L384.811 41.2255C384.758 41.2093 384.7 41.212 384.648 41.2331C384.596 41.2543 384.553 41.2925 384.527 41.3415C384.513 41.3638 384.504 41.3889 384.501 41.4149C384.498 41.441 384.501 41.4673 384.509 41.4922C384.518 41.517 384.531 41.5398 384.549 41.5588C384.567 41.5779 384.589 41.5927 384.614 41.6024L386.496 42.3329C386.55 42.3491 386.607 42.3464 386.659 42.3253C386.711 42.3042 386.754 42.266 386.781 42.217Z" fill="#62B0BE"/>
</g>
<g style="mix-blend-mode:soft-light" opacity="0.74">
<path d="M386.09 42.0234C386.002 42.0459 385.911 42.0479 385.823 42.029C385.734 42.0102 385.652 41.9711 385.581 41.9148C385.511 41.8585 385.454 41.7866 385.417 41.7048C385.379 41.6231 385.361 41.5336 385.364 41.4436C385.367 41.2531 385.439 41.0703 385.566 40.9279C385.692 40.7855 385.866 40.6929 386.055 40.6667C386.142 40.6452 386.233 40.644 386.32 40.6634C386.408 40.6827 386.49 40.722 386.559 40.7781C386.629 40.8343 386.685 40.9058 386.722 40.987C386.76 41.0683 386.778 41.157 386.775 41.2464C386.77 41.4353 386.698 41.6163 386.573 41.7581C386.448 41.8999 386.277 41.9937 386.09 42.0234Z" fill="#62B0BE"/>
</g>
<path d="M385.745 49.8785C385.523 49.9305 385.292 49.9333 385.069 49.8867C384.845 49.8401 384.635 49.7452 384.452 49.6087C384.269 49.4722 384.119 49.2974 384.011 49.0966C383.903 48.8958 383.841 48.6739 383.828 48.4464C383.844 47.9479 384.035 47.4709 384.369 47.0996C384.703 46.7283 385.157 46.4867 385.652 46.4172C385.876 46.3639 386.109 46.3608 386.334 46.4079C386.559 46.4551 386.771 46.5515 386.954 46.69C387.137 46.8286 387.288 47.006 387.394 47.2095C387.5 47.4129 387.56 47.6373 387.57 47.8667C387.551 48.3625 387.358 48.836 387.024 49.2039C386.691 49.5719 386.238 49.8107 385.745 49.8785Z" fill="#62B0BE"/>
<path d="M384.98 49.559C384.781 49.4823 384.601 49.3624 384.454 49.2081C384.307 49.0538 384.195 48.8689 384.128 48.6665C384.061 48.4642 384.039 48.2496 384.065 48.038C384.091 47.8264 384.163 47.6232 384.277 47.4428C384.501 47.0284 384.862 46.7052 385.3 46.5293C385.737 46.3535 386.222 46.3362 386.671 46.4804C386.871 46.5571 387.051 46.6775 387.198 46.8327C387.346 46.988 387.456 47.1743 387.522 47.3778C387.588 47.5813 387.607 47.7969 387.578 48.0088C387.55 48.2208 387.474 48.4236 387.356 48.6024C387.133 49.012 386.774 49.3314 386.34 49.5059C385.907 49.6804 385.426 49.6992 384.98 49.559Z" fill="#62B0BE"/>
<path d="M385.074 49.3965C384.896 49.329 384.735 49.2227 384.603 49.0854C384.471 48.9482 384.372 48.7834 384.312 48.603C384.252 48.4226 384.232 48.2312 384.256 48.0425C384.279 47.8539 384.344 47.6727 384.446 47.5122C384.646 47.1437 384.968 46.8562 385.357 46.6995C385.746 46.5429 386.178 46.5268 386.578 46.6542C386.757 46.7226 386.918 46.8301 387.05 46.9687C387.182 47.1073 387.281 47.2736 387.34 47.4554C387.399 47.6371 387.416 47.8298 387.391 48.0192C387.366 48.2086 387.299 48.39 387.194 48.5501C386.992 48.9133 386.671 49.1958 386.285 49.3501C385.898 49.5043 385.471 49.5207 385.074 49.3965Z" fill="#62B0BE"/>
<g style="mix-blend-mode:multiply" opacity="0.3">
<path d="M386.921 48.4438C386.935 48.4236 386.944 48.4005 386.948 48.3762C386.951 48.352 386.949 48.3272 386.942 48.3038C386.935 48.2803 386.922 48.2588 386.906 48.2409C386.889 48.223 386.868 48.2091 386.845 48.2003L384.998 47.5045C384.946 47.4871 384.889 47.4885 384.838 47.5087C384.787 47.5289 384.745 47.5664 384.719 47.6147C384.705 47.6353 384.696 47.6588 384.693 47.6833C384.69 47.7079 384.692 47.7328 384.7 47.7563C384.708 47.7799 384.721 47.8012 384.738 47.8189C384.756 47.8366 384.777 47.85 384.8 47.8582L386.648 48.5539C386.699 48.5711 386.755 48.5694 386.805 48.5492C386.855 48.529 386.896 48.4916 386.921 48.4438Z" fill="#62B0BE"/>
</g>
<g style="mix-blend-mode:soft-light" opacity="0.74">
<path d="M386.244 48.2416C386.162 48.2603 386.076 48.2608 385.993 48.2431C385.911 48.2254 385.833 48.19 385.765 48.1392C385.698 48.0884 385.642 48.0235 385.603 47.9491C385.563 47.8747 385.54 47.7925 385.535 47.7082C385.539 47.5231 385.609 47.3454 385.733 47.2072C385.856 47.069 386.025 46.9794 386.209 46.9545C386.292 46.9358 386.378 46.9354 386.461 46.9534C386.544 46.9715 386.622 47.0075 386.69 47.0589C386.757 47.1103 386.813 47.1759 386.852 47.251C386.892 47.3261 386.914 47.409 386.918 47.4937C386.91 47.6772 386.839 47.8523 386.716 47.9888C386.593 48.1254 386.426 48.2148 386.244 48.2416Z" fill="#62B0BE"/>
</g>
<path d="M385.908 55.7966C385.693 55.8496 385.469 55.855 385.251 55.8122C385.034 55.7695 384.829 55.6798 384.65 55.5494C384.471 55.4189 384.323 55.251 384.216 55.0573C384.109 54.8636 384.046 54.6489 384.031 54.4283C384.046 53.9421 384.234 53.477 384.56 53.116C384.887 52.7549 385.332 52.5214 385.815 52.457C386.032 52.4039 386.258 52.3991 386.478 52.4432C386.697 52.4872 386.904 52.5789 387.083 52.7117C387.263 52.8446 387.411 53.0153 387.517 53.2118C387.624 53.4083 387.685 53.6257 387.697 53.8485C387.674 54.3308 387.483 54.7899 387.156 55.1458C386.829 55.5018 386.387 55.732 385.908 55.7966Z" fill="#62B0BE"/>
<path d="M385.16 55.4996C384.965 55.4303 384.789 55.318 384.644 55.1711C384.499 55.0243 384.389 54.8467 384.323 54.6516C384.257 54.4565 384.235 54.2489 384.26 54.0444C384.285 53.8398 384.357 53.6436 384.468 53.4704C384.693 53.0753 385.045 52.7678 385.467 52.5982C385.889 52.4287 386.356 52.407 386.792 52.5369C386.986 52.6083 387.162 52.7227 387.306 52.8715C387.449 53.0202 387.557 53.1995 387.621 53.3959C387.686 53.5922 387.705 53.8006 387.677 54.0053C387.649 54.2099 387.575 54.4057 387.46 54.5778C387.238 54.9682 386.889 55.2718 386.471 55.4392C386.053 55.6066 385.591 55.6279 385.16 55.4996Z" fill="#62B0BE"/>
<path d="M385.244 55.3571C385.071 55.2949 384.915 55.1945 384.786 55.0634C384.657 54.9322 384.56 54.7738 384.501 54.5998C384.443 54.4258 384.424 54.2409 384.447 54.0587C384.47 53.8766 384.534 53.7021 384.634 53.5482C384.834 53.1924 385.151 52.916 385.53 52.765C385.91 52.6141 386.33 52.5979 386.72 52.7191C386.892 52.7841 387.046 52.8869 387.172 53.0198C387.299 53.1527 387.393 53.3123 387.449 53.4867C387.505 53.6611 387.52 53.8458 387.495 54.0271C387.469 54.2084 387.403 54.3816 387.301 54.5338C387.102 54.8831 386.791 55.1548 386.417 55.3043C386.043 55.4539 385.63 55.4725 385.244 55.3571Z" fill="#62B0BE"/>
<g style="mix-blend-mode:multiply" opacity="0.3">
<path d="M387.06 54.4247C387.073 54.4047 387.081 54.382 387.084 54.3585C387.087 54.3349 387.085 54.3109 387.078 54.2882C387.071 54.2655 387.059 54.2447 387.043 54.2272C387.026 54.2097 387.007 54.196 386.984 54.187L385.172 53.526C385.121 53.5085 385.066 53.5093 385.016 53.5284C384.966 53.5475 384.925 53.5836 384.899 53.6304C384.885 53.6505 384.876 53.6736 384.873 53.6978C384.869 53.7219 384.872 53.7466 384.88 53.7696C384.887 53.7927 384.901 53.8137 384.918 53.8308C384.936 53.8479 384.957 53.8607 384.98 53.8681L386.793 54.5291C386.843 54.544 386.896 54.5419 386.944 54.523C386.993 54.5041 387.034 54.4694 387.06 54.4247Z" fill="#62B0BE"/>
</g>
<g style="mix-blend-mode:soft-light" opacity="0.74">
<path d="M386.396 54.2261C386.317 54.2428 386.234 54.2425 386.154 54.2253C386.075 54.2081 386 54.1743 385.934 54.1262C385.868 54.0781 385.813 54.0167 385.773 53.946C385.732 53.8753 385.707 53.7969 385.699 53.7159C385.707 53.5368 385.778 53.3662 385.899 53.2338C386.02 53.1013 386.184 53.0155 386.362 52.9912C386.442 52.9745 386.525 52.975 386.605 52.9925C386.685 53.0101 386.76 53.0444 386.826 53.0931C386.892 53.1418 386.947 53.2039 386.987 53.2753C387.027 53.3467 387.051 53.4257 387.059 53.5072C387.048 53.6849 386.977 53.8536 386.856 53.9846C386.735 54.1157 386.573 54.201 386.396 54.2261Z" fill="#62B0BE"/>
</g>
<path d="M386.047 61.4848C385.839 61.5378 385.621 61.5448 385.41 61.5052C385.199 61.4657 384.998 61.3805 384.824 61.2557C384.649 61.1309 384.503 60.9695 384.397 60.7827C384.292 60.5959 384.228 60.3884 384.211 60.1745C384.233 59.7067 384.42 59.2618 384.739 58.9181C385.058 58.5745 385.488 58.3542 385.954 58.296C386.164 58.2417 386.383 58.2344 386.596 58.2745C386.809 58.3146 387.01 58.4013 387.185 58.5281C387.361 58.655 387.506 58.819 387.61 59.0084C387.715 59.1978 387.776 59.4079 387.79 59.6237C387.761 60.0877 387.572 60.5273 387.254 60.8669C386.936 61.2066 386.509 61.425 386.047 61.4848Z" fill="#62B0BE"/>
<path d="M385.327 61.203C385.138 61.14 384.965 61.0343 384.824 60.8942C384.682 60.754 384.574 60.5832 384.509 60.3948C384.444 60.2065 384.423 60.0057 384.448 59.8081C384.473 59.6104 384.543 59.4211 384.653 59.2549C384.878 58.8689 385.227 58.5697 385.644 58.4056C386.06 58.2415 386.519 58.2221 386.948 58.3505C387.138 58.4153 387.31 58.5227 387.451 58.6643C387.592 58.806 387.699 58.9782 387.763 59.1675C387.827 59.3569 387.846 59.5584 387.82 59.7566C387.794 59.9547 387.722 60.1441 387.61 60.3101C387.386 60.6932 387.038 60.9895 386.624 61.1515C386.21 61.3135 385.753 61.3316 385.327 61.203Z" fill="#62B0BE"/>
<path d="M385.414 61.043C385.247 60.9845 385.095 60.8884 384.971 60.7623C384.846 60.6362 384.752 60.4834 384.696 60.3155C384.64 60.1476 384.623 59.9691 384.647 59.7937C384.671 59.6184 384.734 59.4507 384.833 59.3037C385.029 58.9553 385.34 58.6851 385.712 58.5383C386.085 58.3915 386.496 58.3772 386.878 58.4978C387.046 58.5563 387.197 58.6524 387.322 58.7785C387.446 58.9046 387.54 59.0574 387.596 59.2253C387.652 59.3932 387.669 59.5717 387.645 59.7471C387.621 59.9224 387.558 60.0901 387.459 60.2371C387.263 60.5854 386.952 60.8557 386.58 61.0025C386.208 61.1492 385.796 61.1636 385.414 61.043Z" fill="#62B0BE"/>
<g style="mix-blend-mode:multiply" opacity="0.3">
<path d="M387.211 60.1558C387.223 60.1366 387.232 60.1149 387.235 60.0921C387.238 60.0693 387.236 60.046 387.228 60.0242C387.221 60.0024 387.209 59.9825 387.193 59.9661C387.177 59.9497 387.157 59.9373 387.135 59.9296L385.357 59.2977C385.308 59.282 385.255 59.2838 385.208 59.3029C385.16 59.3219 385.12 59.357 385.096 59.402C385.083 59.4212 385.075 59.443 385.072 59.4658C385.069 59.4886 385.071 59.5117 385.078 59.5336C385.085 59.5554 385.098 59.5753 385.114 59.5917C385.13 59.6081 385.15 59.6205 385.171 59.6282L386.943 60.2601C386.993 60.2751 387.047 60.2729 387.095 60.254C387.144 60.2351 387.184 60.2005 387.211 60.1558Z" fill="#62B0BE"/>
</g>
<g style="mix-blend-mode:soft-light" opacity="0.74">
<path d="M386.543 59.9943C386.466 60.014 386.385 60.0166 386.307 60.0019C386.228 59.9871 386.154 59.9554 386.089 59.909C386.025 59.8626 385.971 59.8026 385.932 59.7332C385.893 59.6638 385.869 59.5867 385.863 59.5073C385.871 59.3342 385.941 59.1694 386.059 59.0422C386.177 58.9149 386.336 58.8332 386.508 58.8116C386.585 58.7967 386.665 58.7976 386.742 58.8142C386.819 58.8309 386.891 58.8629 386.955 58.9085C387.02 58.954 387.074 59.0121 387.115 59.0791C387.156 59.1462 387.182 59.2209 387.194 59.2986C387.183 59.4719 387.112 59.6361 386.993 59.7631C386.875 59.89 386.716 59.9718 386.543 59.9943Z" fill="#62B0BE"/>
</g>
<path d="M379.725 38.1482C379.486 38.1979 379.239 38.1954 379.002 38.1409C378.764 38.0864 378.541 37.9812 378.347 37.8324C378.154 37.6837 377.995 37.495 377.882 37.2793C377.769 37.0636 377.704 36.826 377.692 36.5828C377.686 36.0545 377.871 35.5419 378.214 35.1392C378.556 34.7365 379.033 34.4709 379.556 34.3912C379.798 34.3404 380.047 34.3427 380.287 34.3981C380.527 34.4535 380.752 34.5606 380.947 34.712C381.141 34.8633 381.3 35.0552 381.412 35.2742C381.524 35.4932 381.587 35.7341 381.596 35.9798C381.595 36.5047 381.406 37.0118 381.062 37.4095C380.719 37.8073 380.245 38.0693 379.725 38.1482Z" fill="#62B0BE"/>
<path d="M378.918 37.806C378.703 37.7177 378.51 37.5843 378.351 37.4149C378.192 37.2454 378.072 37.0439 377.998 36.8239C377.924 36.6039 377.899 36.3707 377.923 36.14C377.947 35.9093 378.021 35.6866 378.14 35.4869C378.356 35.0422 378.727 34.6918 379.184 34.5017C379.641 34.3116 380.152 34.2949 380.62 34.4548C380.834 34.5443 381.027 34.6785 381.184 34.8484C381.342 35.0184 381.461 35.2201 381.534 35.44C381.606 35.6598 381.631 35.8927 381.606 36.1228C381.58 36.353 381.506 36.575 381.387 36.774C381.17 37.2143 380.8 37.5613 380.346 37.7509C379.892 37.9406 379.385 37.9601 378.918 37.806Z" fill="#62B0BE"/>
<path d="M379.011 37.6273C378.821 37.5484 378.651 37.4301 378.511 37.2802C378.37 37.1304 378.264 36.9525 378.198 36.7583C378.132 36.5641 378.108 36.3581 378.128 36.1541C378.148 35.95 378.211 35.7526 378.314 35.5748C378.508 35.1793 378.839 34.8677 379.247 34.6981C379.654 34.5285 380.109 34.5125 380.527 34.653C380.718 34.7326 380.889 34.8522 381.029 35.0035C381.169 35.1548 381.275 35.3345 381.339 35.5302C381.404 35.7259 381.425 35.9332 381.403 36.1379C381.38 36.3427 381.313 36.5402 381.207 36.717C381.012 37.1066 380.682 37.4129 380.279 37.58C379.876 37.7471 379.426 37.7639 379.011 37.6273Z" fill="#62B0BE"/>
<g style="mix-blend-mode:multiply" opacity="0.3">
<path d="M380.928 36.6071C380.941 36.584 380.95 36.5581 380.952 36.5314C380.955 36.5047 380.952 36.4777 380.943 36.4524C380.934 36.427 380.92 36.4039 380.901 36.3845C380.882 36.3652 380.86 36.3502 380.835 36.3404L378.888 35.5693C378.835 35.5507 378.777 35.5522 378.724 35.5736C378.672 35.5949 378.629 35.6347 378.604 35.6853C378.589 35.7083 378.579 35.7342 378.576 35.7613C378.572 35.7884 378.575 35.816 378.583 35.842C378.591 35.868 378.605 35.8919 378.624 35.9119C378.643 35.9319 378.665 35.9476 378.691 35.9578L380.637 36.7231C380.692 36.7408 380.75 36.7389 380.803 36.7177C380.857 36.6965 380.901 36.6574 380.928 36.6071Z" fill="#62B0BE"/>
</g>
<g style="mix-blend-mode:soft-light" opacity="0.74">
<path d="M380.24 36.3735C380.151 36.3931 380.059 36.393 379.97 36.3733C379.882 36.3536 379.798 36.3148 379.726 36.2595C379.654 36.2042 379.596 36.1339 379.554 36.0534C379.512 35.973 379.488 35.8843 379.484 35.7938C379.482 35.598 379.551 35.408 379.678 35.2589C379.805 35.1097 379.982 35.0114 380.176 34.9821C380.264 34.9635 380.356 34.9644 380.444 34.9845C380.532 35.0046 380.615 35.0435 380.687 35.0986C380.759 35.1537 380.818 35.2236 380.86 35.3036C380.902 35.3835 380.926 35.4716 380.931 35.5618C380.933 35.7576 380.865 35.9476 380.737 36.0967C380.61 36.2459 380.434 36.3442 380.24 36.3735Z" fill="#62B0BE"/>
</g>
<path d="M380.024 44.5662C379.793 44.6168 379.554 44.6171 379.323 44.5671C379.092 44.5171 378.875 44.4181 378.686 44.2767C378.497 44.1352 378.34 43.9548 378.227 43.7476C378.114 43.5405 378.047 43.3114 378.031 43.0762C378.031 42.5637 378.217 42.0684 378.553 41.6809C378.889 41.2934 379.353 41.0396 379.861 40.9657C380.094 40.915 380.336 40.9154 380.569 40.967C380.802 41.0187 381.02 41.1203 381.21 41.2649C381.4 41.4094 381.555 41.5934 381.667 41.804C381.778 42.0147 381.842 42.247 381.854 42.4848C381.848 42.9926 381.66 43.4815 381.325 43.8632C380.989 44.2449 380.528 44.4943 380.024 44.5662Z" fill="#62B0BE"/>
<path d="M379.232 44.2352C379.024 44.1539 378.837 44.028 378.683 43.8665C378.53 43.7049 378.414 43.5116 378.343 43.3003C378.273 43.089 378.25 42.8648 378.276 42.6436C378.302 42.4224 378.377 42.2097 378.494 42.0204C378.711 41.5904 379.076 41.2529 379.522 41.0697C379.968 40.8865 380.465 40.87 380.923 41.0232C381.13 41.105 381.317 41.2309 381.471 41.3922C381.624 41.5535 381.741 41.7462 381.812 41.9571C381.884 42.1679 381.908 42.3918 381.884 42.613C381.86 42.8342 381.787 43.0475 381.672 43.238C381.453 43.6689 381.086 44.0068 380.638 44.1899C380.19 44.373 379.691 44.3891 379.232 44.2352Z" fill="#62B0BE"/>
<path d="M379.319 44.0694C379.135 43.9971 378.969 43.8857 378.832 43.7429C378.695 43.6001 378.591 43.4293 378.527 43.2423C378.463 43.0553 378.44 42.8566 378.46 42.66C378.481 42.4635 378.544 42.2737 378.645 42.1039C378.84 41.7229 379.165 41.4241 379.562 41.2614C379.958 41.0987 380.4 41.0829 380.807 41.2168C380.991 41.2895 381.158 41.4015 381.295 41.545C381.432 41.6885 381.535 41.8601 381.599 42.0478C381.663 42.2354 381.684 42.4347 381.663 42.6316C381.642 42.8286 381.577 43.0185 381.475 43.1881C381.278 43.5659 380.954 43.8619 380.559 44.0233C380.164 44.1847 379.725 44.201 379.319 44.0694Z" fill="#62B0BE"/>
<g style="mix-blend-mode:multiply" opacity="0.3">
<path d="M381.197 43.0836C381.21 43.0618 381.219 43.0371 381.222 43.0115C381.225 42.9858 381.222 42.9599 381.214 42.9355C381.205 42.911 381.192 42.8888 381.174 42.8703C381.156 42.8518 381.134 42.8375 381.109 42.8285L379.204 42.098C379.151 42.0797 379.094 42.0815 379.042 42.1028C378.991 42.1242 378.949 42.1638 378.925 42.214C378.911 42.2359 378.903 42.2605 378.9 42.2861C378.897 42.3118 378.899 42.3377 378.908 42.3622C378.916 42.3866 378.93 42.4088 378.948 42.4273C378.966 42.4458 378.988 42.4601 379.012 42.4691L380.918 43.1996C380.97 43.2143 381.027 43.2109 381.077 43.1899C381.128 43.1688 381.17 43.1314 381.197 43.0836Z" fill="#62B0BE"/>
</g>
<g style="mix-blend-mode:soft-light" opacity="0.74">
<path d="M380.5 42.8695C380.412 42.8882 380.321 42.8875 380.234 42.8673C380.146 42.8471 380.065 42.8079 379.994 42.7525C379.924 42.6972 379.866 42.627 379.826 42.547C379.786 42.467 379.764 42.3791 379.762 42.2897C379.762 42.0996 379.831 41.9162 379.956 41.7725C380.081 41.6289 380.253 41.5347 380.441 41.507C380.529 41.4882 380.62 41.4889 380.707 41.5091C380.795 41.5293 380.876 41.5685 380.947 41.6239C381.017 41.6792 381.075 41.7494 381.115 41.8294C381.155 41.9094 381.177 41.9973 381.179 42.0868C381.177 42.2765 381.108 42.4593 380.983 42.6027C380.859 42.7461 380.687 42.8406 380.5 42.8695Z" fill="#62B0BE"/>
</g>
<path d="M380.308 50.719C380.084 50.7716 379.851 50.7751 379.626 50.7295C379.401 50.6838 379.188 50.59 379.002 50.4544C378.817 50.3189 378.663 50.1449 378.551 49.9443C378.44 49.7438 378.373 49.5215 378.355 49.2927C378.361 48.7973 378.544 48.3202 378.873 47.9487C379.201 47.5772 379.653 47.3361 380.145 47.2693C380.37 47.2166 380.604 47.2135 380.83 47.2601C381.057 47.3068 381.27 47.4022 381.456 47.5396C381.642 47.677 381.796 47.8531 381.906 48.0558C382.017 48.2584 382.082 48.4827 382.097 48.7129C382.088 49.2054 381.902 49.6782 381.574 50.0461C381.246 50.414 380.797 50.6527 380.308 50.719Z" fill="#62B0BE"/>
<path d="M379.527 50.4054C379.326 50.3325 379.144 50.2161 378.993 50.0645C378.843 49.9128 378.728 49.7298 378.657 49.5285C378.585 49.3272 378.56 49.1127 378.582 48.9004C378.604 48.6881 378.673 48.4833 378.783 48.3008C379.003 47.8854 379.362 47.5605 379.798 47.3834C380.233 47.2063 380.718 47.1883 381.165 47.3325C381.367 47.4075 381.549 47.5262 381.699 47.6801C381.849 47.8339 381.962 48.0189 382.032 48.222C382.101 48.425 382.125 48.6408 382.101 48.854C382.076 49.0671 382.005 49.2722 381.892 49.4545C381.671 49.8638 381.314 50.1829 380.882 50.3566C380.45 50.5303 379.97 50.5476 379.527 50.4054Z" fill="#62B0BE"/>
<path d="M379.621 50.2418C379.442 50.1765 379.279 50.0726 379.145 49.9374C379.011 49.8021 378.908 49.639 378.844 49.4595C378.78 49.28 378.757 49.0887 378.776 48.8992C378.795 48.7097 378.855 48.5267 378.953 48.3633C379.148 47.9932 379.468 47.7039 379.856 47.5468C380.244 47.3897 380.676 47.375 381.074 47.5052C381.253 47.5712 381.416 47.6762 381.549 47.8125C381.683 47.9488 381.785 48.1131 381.847 48.2934C381.909 48.4737 381.93 48.6656 381.909 48.8552C381.888 49.0447 381.825 49.2272 381.725 49.3895C381.529 49.7539 381.211 50.0386 380.827 50.1942C380.443 50.3498 380.017 50.3666 379.621 50.2418Z" fill="#62B0BE"/>
<g style="mix-blend-mode:multiply" opacity="0.3">
<path d="M381.46 49.2915C381.472 49.2703 381.48 49.2466 381.482 49.222C381.485 49.1974 381.482 49.1726 381.473 49.1494C381.465 49.1262 381.452 49.105 381.434 49.0875C381.417 49.07 381.396 49.0565 381.373 49.048L379.508 48.3523C379.456 48.3352 379.401 48.3369 379.351 48.3571C379.301 48.3773 379.259 48.4146 379.235 48.4625C379.221 48.483 379.212 48.5065 379.208 48.5311C379.205 48.5556 379.208 48.5806 379.215 48.6041C379.223 48.6276 379.236 48.649 379.254 48.6667C379.271 48.6843 379.292 48.6978 379.316 48.706L381.181 49.4017C381.233 49.418 381.289 49.416 381.34 49.3959C381.391 49.3759 381.433 49.339 381.46 49.2915Z" fill="#62B0BE"/>
</g>
<g style="mix-blend-mode:soft-light" opacity="0.74">
<path d="M380.771 49.0912C380.688 49.1118 380.601 49.1138 380.517 49.0971C380.433 49.0803 380.354 49.0451 380.285 48.9941C380.216 48.9432 380.159 48.8776 380.119 48.8021C380.078 48.7267 380.055 48.6432 380.051 48.5578C380.053 48.3746 380.121 48.1985 380.243 48.0612C380.364 47.924 380.531 47.8348 380.713 47.8099C380.796 47.7892 380.883 47.7872 380.967 47.804C381.051 47.8208 381.131 47.8559 381.199 47.9069C381.268 47.9579 381.325 48.0234 381.365 48.0989C381.406 48.1743 381.429 48.2578 381.434 48.3433C381.431 48.5264 381.363 48.7026 381.241 48.8398C381.12 48.977 380.953 49.0662 380.771 49.0912Z" fill="#62B0BE"/>
</g>
<path d="M380.574 56.6245C380.357 56.6761 380.132 56.6806 379.913 56.6376C379.695 56.5947 379.488 56.5052 379.307 56.3754C379.126 56.2456 378.976 56.0784 378.865 55.8853C378.755 55.6922 378.688 55.4776 378.668 55.2562C378.678 54.7773 378.859 54.3176 379.178 53.9603C379.498 53.603 379.935 53.3717 380.411 53.3081C380.629 53.2564 380.856 53.2524 381.076 53.2964C381.296 53.3403 381.504 53.4312 381.686 53.5628C381.867 53.6944 382.018 53.8636 382.128 54.0588C382.238 54.254 382.304 54.4706 382.322 54.6938C382.306 55.1698 382.122 55.6248 381.802 55.9781C381.482 56.3315 381.047 56.5604 380.574 56.6245Z" fill="#62B0BE"/>
<path d="M379.821 56.3241C379.625 56.2579 379.447 56.1486 379.3 56.0043C379.152 55.8601 379.039 55.6846 378.969 55.4908C378.899 55.2971 378.873 55.0901 378.894 54.8851C378.914 54.68 378.981 54.4823 379.089 54.3065C379.309 53.9075 379.661 53.5968 380.084 53.4267C380.508 53.2566 380.977 53.2376 381.413 53.373C381.608 53.4408 381.786 53.5518 381.933 53.6976C382.08 53.8435 382.192 54.0206 382.26 54.2157C382.329 54.4107 382.353 54.6187 382.33 54.8242C382.307 55.0296 382.238 55.2272 382.127 55.4023C381.906 55.7954 381.556 56.1012 381.137 56.2689C380.717 56.4366 380.253 56.4561 379.821 56.3241Z" fill="#62B0BE"/>
<path d="M379.905 56.1663C379.731 56.1065 379.573 56.0085 379.441 55.8794C379.31 55.7503 379.21 55.5934 379.147 55.4204C379.085 55.2473 379.062 55.0625 379.081 54.8796C379.099 54.6966 379.159 54.5201 379.255 54.3632C379.449 54.0031 379.763 53.7227 380.144 53.5711C380.524 53.4195 380.946 53.4064 381.335 53.5341C381.512 53.5929 381.673 53.6914 381.806 53.8218C381.939 53.9523 382.041 54.1114 382.103 54.287C382.165 54.4626 382.187 54.6501 382.165 54.8351C382.144 55.0201 382.08 55.1978 381.98 55.3546C381.783 55.7102 381.468 55.9861 381.089 56.1343C380.711 56.2826 380.292 56.2939 379.905 56.1663Z" fill="#62B0BE"/>
<g style="mix-blend-mode:multiply" opacity="0.3">
<path d="M381.702 55.2532C381.716 55.2331 381.725 55.21 381.728 55.1858C381.732 55.1616 381.729 55.137 381.721 55.1139C381.713 55.0908 381.7 55.0699 381.683 55.0528C381.665 55.0357 381.644 55.0229 381.621 55.0155L379.797 54.3545C379.745 54.3386 379.69 54.3408 379.64 54.3609C379.59 54.381 379.549 54.4176 379.523 54.4647C379.511 54.485 379.503 54.5079 379.501 54.5317C379.498 54.5555 379.502 54.5796 379.51 54.602C379.518 54.6243 379.532 54.6445 379.549 54.6609C379.567 54.6773 379.588 54.6895 379.611 54.6966L381.435 55.3575C381.485 55.3736 381.538 55.372 381.587 55.353C381.636 55.3339 381.677 55.2987 381.702 55.2532Z" fill="#62B0BE"/>
</g>
<g style="mix-blend-mode:soft-light" opacity="0.74">
<path d="M381.035 55.0564C380.955 55.074 380.872 55.0744 380.791 55.0576C380.711 55.0408 380.635 55.0072 380.569 54.959C380.502 54.9108 380.447 54.8491 380.406 54.7779C380.365 54.7067 380.34 54.6278 380.332 54.5462C380.336 54.3684 380.404 54.1981 380.524 54.0661C380.643 53.9342 380.806 53.8494 380.983 53.8272C381.063 53.8096 381.146 53.8092 381.226 53.826C381.307 53.8428 381.383 53.8764 381.449 53.9246C381.516 53.9728 381.571 54.0345 381.612 54.1057C381.653 54.1769 381.678 54.2559 381.686 54.3375C381.683 54.5156 381.615 54.6865 381.496 54.8187C381.376 54.9509 381.212 55.0354 381.035 55.0564Z" fill="#62B0BE"/>
</g>
<path d="M380.82 62.3151C380.61 62.3688 380.392 62.3767 380.179 62.3385C379.966 62.3002 379.764 62.2166 379.587 62.0933C379.409 61.9701 379.26 61.8101 379.15 61.6242C379.04 61.4384 378.972 61.2311 378.949 61.0164C378.963 60.546 379.148 60.0966 379.468 59.7513C379.788 59.406 380.223 59.1881 380.692 59.1379C380.903 59.0851 381.123 59.0786 381.337 59.1186C381.551 59.1587 381.754 59.2444 381.932 59.37C382.11 59.4955 382.258 59.6579 382.367 59.846C382.476 60.0341 382.543 60.2435 382.563 60.4598C382.543 60.9261 382.357 61.3699 382.037 61.7104C381.717 62.0509 381.285 62.2655 380.82 62.3151Z" fill="#62B0BE"/>
<path d="M380.092 62.0124C379.901 61.952 379.727 61.8488 379.582 61.7106C379.438 61.5724 379.327 61.4029 379.259 61.2153C379.19 61.0276 379.166 60.8268 379.187 60.6282C379.209 60.4297 379.276 60.2388 379.383 60.0701C379.604 59.6827 379.95 59.382 380.365 59.2176C380.781 59.0532 381.239 59.0349 381.666 59.1657C381.857 59.2278 382.031 59.3328 382.175 59.4725C382.319 59.6123 382.428 59.783 382.496 59.9717C382.563 60.1604 382.586 60.362 382.563 60.561C382.54 60.7599 382.472 60.951 382.363 61.1195C382.141 61.5016 381.795 61.7976 381.383 61.9596C380.971 62.1216 380.516 62.1402 380.092 62.0124Z" fill="#62B0BE"/>
<path d="M380.18 61.8573C380.008 61.8046 379.851 61.7128 379.721 61.5892C379.59 61.4656 379.491 61.3135 379.429 61.145C379.368 60.9764 379.346 60.7959 379.367 60.6177C379.387 60.4395 379.449 60.2684 379.546 60.118C379.742 59.7721 380.051 59.5036 380.421 59.3569C380.791 59.2103 381.2 59.1945 381.58 59.3121C381.751 59.3661 381.907 59.4589 382.036 59.583C382.165 59.7072 382.263 59.8594 382.323 60.0278C382.383 60.1963 382.404 60.3763 382.383 60.5539C382.362 60.7314 382.3 60.9017 382.202 61.0514C382.006 61.3948 381.7 61.6617 381.332 61.8081C380.965 61.9546 380.558 61.9719 380.18 61.8573Z" fill="#62B0BE"/>
<g style="mix-blend-mode:multiply" opacity="0.3">
<path d="M381.939 60.9671C381.952 60.948 381.96 60.9262 381.963 60.9034C381.966 60.8806 381.964 60.8574 381.957 60.8356C381.949 60.8137 381.937 60.7939 381.921 60.7775C381.905 60.7611 381.885 60.7486 381.863 60.741L380.068 60.1148C380.019 60.0991 379.966 60.101 379.919 60.12C379.871 60.1391 379.831 60.1741 379.807 60.2192C379.795 60.2389 379.788 60.261 379.786 60.2838C379.784 60.3066 379.787 60.3296 379.794 60.3512C379.802 60.3728 379.815 60.3924 379.831 60.4086C379.847 60.4249 379.866 60.4374 379.888 60.4453L381.677 61.0715C381.726 61.0872 381.779 61.0853 381.827 61.0663C381.875 61.0472 381.914 61.0121 381.939 60.9671Z" fill="#62B0BE"/>
</g>
<g style="mix-blend-mode:soft-light" opacity="0.74">
<path d="M381.285 60.7849C381.207 60.8007 381.127 60.8004 381.05 60.7842C380.972 60.768 380.899 60.7361 380.834 60.6904C380.769 60.6448 380.714 60.5864 380.673 60.5189C380.632 60.4514 380.605 60.3762 380.594 60.2978C380.601 60.1249 380.67 59.9603 380.788 59.8338C380.907 59.7072 381.066 59.6271 381.239 59.6079C381.316 59.5921 381.396 59.5923 381.474 59.6085C381.552 59.6248 381.625 59.6567 381.69 59.7023C381.755 59.7479 381.809 59.8063 381.851 59.8738C381.892 59.9413 381.919 60.0166 381.93 60.0949C381.922 60.2674 381.852 60.4314 381.734 60.5577C381.616 60.684 381.457 60.7645 381.285 60.7849Z" fill="#62B0BE"/>
</g>
<g style="mix-blend-mode:soft-light" opacity="0.74">
<path d="M383.102 58.0372C383.531 55.289 381.672 54.2164 382.701 51.532C383.822 48.6331 386.332 48.9809 389.12 44.9456C391.276 41.8206 390.863 40.0465 393.129 38.568C394.75 37.507 395.674 37.9534 397.899 37.1939C399.07 36.7876 400.176 36.2134 401.182 35.4893L401.327 29.5465C401.336 29.391 401.309 29.2356 401.247 29.0923C401.186 28.9491 401.093 28.8219 400.974 28.7208C400.855 28.6197 400.714 28.5475 400.563 28.5097C400.412 28.4719 400.253 28.4696 400.101 28.5029L376.17 32.2078C375.838 32.2636 375.537 32.4377 375.324 32.6978C375.11 32.9579 374.998 33.2863 375.008 33.6224L376.856 64.2003C376.874 64.4014 376.959 64.5905 377.098 64.7369C377.238 64.8832 377.423 64.9782 377.623 65.0062C381.585 62.2116 382.823 59.8345 383.102 58.0372Z" fill="white"/>
</g>
<path d="M393.879 58.8075L393.896 33.9405L394.175 33.8999L394.135 58.7669L393.879 58.8075Z" fill="#D8DEE8"/>
<path d="M388.529 59.6376L388.082 34.846L388.361 34.8054L388.791 59.6028L388.529 59.6376Z" fill="#D8DEE8"/>
<path d="M383.185 60.4692L382.262 35.7471L382.546 35.7065L383.441 60.4286L383.185 60.4692Z" fill="#D8DEE8"/>
<path d="M424.423 31.4172L411.06 59.7339C410.369 61.2008 412.867 63.7924 416.638 65.5898C420.408 67.3871 424.022 67.6074 424.708 66.1406L438.07 37.8239L424.423 31.4172Z" fill="#62B0BE"/>
<path d="M425.823 51.4082C426.729 46.3409 422.808 44.1145 423.737 39.8937C424.127 38.1543 425.393 35.8816 429.245 33.6784L424.423 31.4172L411.06 59.7339C410.369 61.2008 412.867 63.7924 416.638 65.5897C417.948 66.2177 419.335 66.6737 420.763 66.9464C420.101 64.9779 419.996 62.8653 420.461 60.8413C421.582 56.4233 425.021 55.861 425.823 51.4082Z" fill="url(#paint10_linear_5570_29710)"/>
<path opacity="0.58" d="M427.257 60.7829C423.845 60.3682 420.621 58.9949 417.961 56.8229L427.716 36.113L436.866 40.4034L427.257 60.7829Z" fill="white"/>
<path d="M439.509 34.9397L425.739 28.4792C425.495 28.3647 425.204 28.4693 425.089 28.7127L423.747 31.5618C423.632 31.8052 423.737 32.0953 423.981 32.2097L437.751 38.6702C437.995 38.7846 438.286 38.6801 438.4 38.4367L439.743 35.5876C439.857 35.3442 439.753 35.0541 439.509 34.9397Z" fill="url(#paint11_linear_5570_29710)"/>
<path d="M438.372 35.2487L437.647 34.9083C437.583 34.8783 437.507 34.9057 437.477 34.9694L436.478 37.0892C436.448 37.1529 436.476 37.2289 436.54 37.2589L437.265 37.5993C437.329 37.6293 437.405 37.6019 437.435 37.5381L438.434 35.4184C438.464 35.3546 438.436 35.2787 438.372 35.2487Z" fill="#D8DEE8"/>
<path d="M436.705 34.4623L435.979 34.1219C435.915 34.0919 435.839 34.1193 435.809 34.1831L434.81 36.3028C434.78 36.3666 434.808 36.4425 434.872 36.4725L435.597 36.8129C435.661 36.8429 435.737 36.8155 435.767 36.7518L436.766 34.632C436.796 34.5683 436.768 34.4923 436.705 34.4623Z" fill="#D8DEE8"/>
<path d="M435.029 33.6806L434.303 33.3402C434.239 33.3102 434.163 33.3376 434.133 33.4013L433.134 35.5211C433.104 35.5848 433.132 35.6608 433.196 35.6908L433.921 36.0312C433.985 36.0612 434.061 36.0338 434.091 35.97L435.09 33.8503C435.12 33.7865 435.093 33.7105 435.029 33.6806Z" fill="#D8DEE8"/>
<path d="M433.361 32.8986L432.635 32.5582C432.571 32.5282 432.495 32.5556 432.465 32.6193L431.467 34.7391C431.436 34.8028 431.464 34.8788 431.528 34.9088L432.253 35.2492C432.317 35.2792 432.393 35.2518 432.423 35.188L433.422 33.0683C433.452 33.0045 433.425 32.9286 433.361 32.8986Z" fill="#D8DEE8"/>
<path d="M431.689 32.121L430.963 31.7806C430.899 31.7506 430.823 31.778 430.793 31.8418L429.795 33.9615C429.765 34.0253 429.792 34.1012 429.856 34.1312L430.581 34.4716C430.645 34.5016 430.722 34.4742 430.752 34.4105L431.75 32.2907C431.78 32.227 431.753 32.151 431.689 32.121Z" fill="#D8DEE8"/>
<path d="M430.017 31.3349L429.291 30.9945C429.228 30.9645 429.151 30.9919 429.121 31.0556L428.123 33.1754C428.093 33.2391 428.12 33.3151 428.184 33.3451L428.91 33.6855C428.973 33.7154 429.05 33.6881 429.08 33.6243L430.078 31.5046C430.108 31.4408 430.081 31.3648 430.017 31.3349Z" fill="#D8DEE8"/>
<path d="M428.353 30.5529L427.627 30.2125C427.564 30.1825 427.487 30.2099 427.457 30.2736L426.459 32.3934C426.429 32.4571 426.456 32.5331 426.52 32.5631L427.246 32.9035C427.309 32.9335 427.386 32.9061 427.416 32.8423L428.414 30.7226C428.444 30.6588 428.417 30.5829 428.353 30.5529Z" fill="#D8DEE8"/>
<path d="M426.681 29.7621L425.956 29.4217C425.892 29.3917 425.815 29.4191 425.785 29.4829L424.787 31.6026C424.757 31.6664 424.784 31.7423 424.848 31.7723L425.574 32.1127C425.638 32.1427 425.714 32.1153 425.744 32.0516L426.742 29.9318C426.772 29.8681 426.745 29.7921 426.681 29.7621Z" fill="#D8DEE8"/>
<path d="M407.046 83.5508L405.512 76.6803C405.373 76.0842 405.004 75.5668 404.485 75.241C403.966 74.9152 403.339 74.8074 402.74 74.941C402.143 75.0792 401.625 75.4475 401.298 75.9655C400.972 76.4835 400.864 77.1093 400.997 77.7066L402.531 84.577C402.67 85.1719 403.038 85.6883 403.556 86.0139C404.074 86.3396 404.699 86.4483 405.297 86.3163C405.895 86.1794 406.415 85.8117 406.743 85.2935C407.07 84.7753 407.179 84.1488 407.046 83.5508Z" fill="white"/>
<path d="M407.039 83.5536L406.278 80.1155L401.746 81.1243L402.513 84.5566C402.652 85.1515 403.02 85.6679 403.537 85.9936C404.055 86.3192 404.681 86.4279 405.278 86.296C405.874 86.1614 406.393 85.7982 406.722 85.285C407.052 84.7718 407.165 84.1499 407.039 83.5536Z" fill="#62B0BE"/>
<path style="mix-blend-mode:multiply" d="M404.478 85.176L402.497 76.2937C402.398 75.8492 402.432 75.3854 402.595 74.9602C402.03 75.1257 401.549 75.499 401.249 76.0049C400.95 76.5107 400.853 77.1113 400.98 77.6852L402.514 84.5556C402.643 85.1281 402.984 85.6306 403.469 85.962C403.954 86.2934 404.547 86.4289 405.129 86.3414C404.802 86.0249 404.576 85.6197 404.478 85.176Z" fill="url(#paint12_linear_5570_29710)"/>
<path d="M419.239 87.2442L413.888 82.6581C413.42 82.2576 412.812 82.0588 412.198 82.1056C411.583 82.1523 411.013 82.4408 410.611 82.9074C410.21 83.3741 410.011 83.9808 410.058 84.594C410.104 85.2072 410.393 85.7768 410.861 86.1774L416.218 90.7577C416.685 91.1564 417.292 91.354 417.905 91.3073C418.518 91.2606 419.087 90.9733 419.489 90.5084C419.888 90.042 420.086 89.4366 420.039 88.8248C419.992 88.213 419.705 87.6446 419.239 87.2442Z" fill="white"/>
<path d="M419.239 87.2428L416.56 84.9526L413.539 88.4661L416.217 90.7563C416.685 91.155 417.291 91.3526 417.904 91.3059C418.518 91.2592 419.087 90.9719 419.488 90.507C419.888 90.0406 420.086 89.4352 420.039 88.8234C419.992 88.2116 419.704 87.6432 419.239 87.2428Z" fill="#62B0BE"/>
<path style="mix-blend-mode:multiply" d="M418.159 90.0812L411.24 84.1558C410.894 83.8594 410.644 83.4683 410.519 83.031C410.166 83.5014 410.005 84.0881 410.068 84.6726C410.132 85.257 410.416 85.7956 410.862 86.1792L416.219 90.7595C416.666 91.1405 417.242 91.338 417.829 91.3122C418.417 91.2864 418.973 91.0392 419.385 90.6204C418.932 90.5646 418.506 90.3771 418.159 90.0812Z" fill="url(#paint13_linear_5570_29710)"/>
<path d="M399.8 138.391C402.421 138.391 404.545 136.27 404.545 133.655C404.545 131.04 402.421 128.919 399.8 128.919C397.179 128.919 395.055 131.04 395.055 133.655C395.055 136.27 397.179 138.391 399.8 138.391Z" fill="#80CCEF"/>
<path d="M384.28 154.435C386.901 154.435 389.026 152.315 389.026 149.7C389.026 147.085 386.901 144.964 384.28 144.964C381.66 144.964 379.535 147.085 379.535 149.7C379.535 152.315 381.66 154.435 384.28 154.435Z" fill="#80CCEF"/>
<path d="M404.238 159.826C406.858 159.826 408.983 157.706 408.983 155.091C408.983 152.475 406.858 150.355 404.238 150.355C401.617 150.355 399.492 152.475 399.492 155.091C399.492 157.706 401.617 159.826 404.238 159.826Z" fill="#80CCEF"/>
<path d="M404.029 155.858L382.762 150.121L399.222 133.097L400.376 134.209L385.798 149.283L404.449 154.32L404.029 155.858Z" fill="#80CCEF"/>
<path d="M370.637 245.399H311.582V252.199H370.637V245.399Z" fill="#80CCEF"/>
<path d="M370.637 259.522H311.582V266.321H370.637V259.522Z" fill="#80CCEF"/>
<path d="M349.565 273.657H311.582V280.456H349.565V273.657Z" fill="#80CCEF"/>
<defs>
<linearGradient id="paint0_linear_5570_29710" x1="129.234" y1="147.266" x2="434.395" y2="147.266" gradientUnits="userSpaceOnUse">
<stop stop-color="white"/>
<stop offset="0.22" stop-color="white" stop-opacity="0.76"/>
<stop offset="0.6" stop-color="white" stop-opacity="0.36"/>
<stop offset="0.87" stop-color="white" stop-opacity="0.1"/>
<stop offset="1" stop-color="white" stop-opacity="0"/>
</linearGradient>
<linearGradient id="paint1_linear_5570_29710" x1="60.5029" y1="304.206" x2="-33" y2="317" gradientUnits="userSpaceOnUse">
<stop stop-color="#B1CBCF"/>
<stop offset="0.87" stop-color="#E6F8FB"/>
<stop offset="1" stop-color="white"/>
</linearGradient>
<linearGradient id="paint2_linear_5570_29710" x1="97.5234" y1="104.608" x2="109.99" y2="104.608" gradientUnits="userSpaceOnUse">
<stop stop-color="#FFBE9D"/>
<stop offset="0.36" stop-color="#FDB597"/>
<stop offset="0.95" stop-color="#F99B86"/>
<stop offset="0.99" stop-color="#F99985"/>
</linearGradient>
<linearGradient id="paint3_linear_5570_29710" x1="92.9922" y1="104.042" x2="105.45" y2="104.042" gradientUnits="userSpaceOnUse">
<stop stop-color="#FFBE9D"/>
<stop offset="0.36" stop-color="#FDB597"/>
<stop offset="0.95" stop-color="#F99B86"/>
<stop offset="0.99" stop-color="#F99985"/>
</linearGradient>
<linearGradient id="paint4_linear_5570_29710" x1="35.2305" y1="158.888" x2="51.0867" y2="158.888" gradientUnits="userSpaceOnUse">
<stop stop-color="#FFBE9D"/>
<stop offset="0.36" stop-color="#FDB597"/>
<stop offset="0.95" stop-color="#F99B86"/>
<stop offset="0.99" stop-color="#F99985"/>
</linearGradient>
<linearGradient id="paint5_linear_5570_29710" x1="102.054" y1="102.908" x2="109.98" y2="102.908" gradientUnits="userSpaceOnUse">
<stop stop-color="#FFBE9D"/>
<stop offset="0.36" stop-color="#FDB597"/>
<stop offset="0.95" stop-color="#F99B86"/>
<stop offset="0.99" stop-color="#F99985"/>
</linearGradient>
<linearGradient id="paint6_linear_5570_29710" x1="46.9851" y1="80.7491" x2="73.7606" y2="76.1825" gradientUnits="userSpaceOnUse">
<stop stop-color="#FFBE9D"/>
<stop offset="0.36" stop-color="#FDB597"/>
<stop offset="0.95" stop-color="#F99B86"/>
<stop offset="0.99" stop-color="#F99985"/>
</linearGradient>
<linearGradient id="paint7_linear_5570_29710" x1="46.4205" y1="84.5428" x2="53.0961" y2="87.3454" gradientUnits="userSpaceOnUse">
<stop stop-color="#FFBE9D"/>
<stop offset="0.36" stop-color="#FDB597"/>
<stop offset="0.95" stop-color="#F99B86"/>
<stop offset="0.99" stop-color="#F99985"/>
</linearGradient>
<linearGradient id="paint8_linear_5570_29710" x1="288.465" y1="71.2909" x2="301.474" y2="15.9849" gradientUnits="userSpaceOnUse">
<stop stop-color="#FF6961"/>
<stop offset="0.22" stop-color="#FF6961" stop-opacity="0.76"/>
<stop offset="0.6" stop-color="#FF6961" stop-opacity="0.36"/>
<stop offset="0.87" stop-color="#FF6961" stop-opacity="0.1"/>
<stop offset="1" stop-color="#FF6961" stop-opacity="0"/>
</linearGradient>
<linearGradient id="paint9_linear_5570_29710" x1="213.75" y1="-29.7535" x2="213.75" y2="177.52" gradientUnits="userSpaceOnUse">
<stop stop-color="#FF6961"/>
<stop offset="0.22" stop-color="#FF6961" stop-opacity="0.76"/>
<stop offset="0.6" stop-color="#FF6961" stop-opacity="0.36"/>
<stop offset="0.87" stop-color="#FF6961" stop-opacity="0.1"/>
<stop offset="1" stop-color="#FF6961" stop-opacity="0"/>
</linearGradient>
<linearGradient id="paint10_linear_5570_29710" x1="417.207" y1="46.9577" x2="430.846" y2="53.3832" gradientUnits="userSpaceOnUse">
<stop stop-color="#00B5D5"/>
<stop offset="0.08" stop-color="#00B5D5" stop-opacity="0.91"/>
<stop offset="0.54" stop-color="#00B5D5" stop-opacity="0.43"/>
<stop offset="0.85" stop-color="#00B5D5" stop-opacity="0.12"/>
<stop offset="1" stop-color="#00B5D5" stop-opacity="0"/>
</linearGradient>
<linearGradient id="paint11_linear_5570_29710" x1="440.078" y1="31.619" x2="428.766" y2="34.2912" gradientUnits="userSpaceOnUse">
<stop offset="0.49" stop-color="#EBEFF2"/>
<stop offset="1" stop-color="white"/>
</linearGradient>
<linearGradient id="paint12_linear_5570_29710" x1="408.623" y1="75.9694" x2="398.443" y2="85.6706" gradientUnits="userSpaceOnUse">
<stop stop-color="white" stop-opacity="0"/>
<stop offset="1" stop-color="#235196"/>
</linearGradient>
<linearGradient id="paint13_linear_5570_29710" x1="415.904" y1="80.0198" x2="413.564" y2="93.8712" gradientUnits="userSpaceOnUse">
<stop stop-color="white" stop-opacity="0"/>
<stop offset="1" stop-color="#235196"/>
</linearGradient>
</defs>
</svg>
