<svg width="291" height="313" viewBox="0 0 291 313" fill="none" xmlns="http://www.w3.org/2000/svg">
<g clip-path="url(#clip0_5945_31226)">
<path d="M155.57 0H22.4102V276.258H155.57V0Z" fill="url(#paint0_linear_5945_31226)"/>
<path d="M155.57 0H22.4102V27.4534H155.57V0Z" fill="url(#paint1_linear_5945_31226)"/>
<path d="M46.5329 5.97241C46.8808 6.03819 47.2328 6.08822 47.5762 6.17418C50.1799 6.81296 52.1265 9.03437 52.4263 11.6997C52.6196 13.3759 52.1497 15.0613 51.1169 16.3958C50.0841 17.7304 48.5704 18.6083 46.899 18.8421C46.626 18.8794 46.3507 18.8959 46.0752 18.8913C45.9053 18.8913 45.8129 18.9425 45.7285 19.0902C45.0214 20.3307 44.3058 21.5667 43.5927 22.8027C43.5628 22.8543 43.5317 22.9048 43.4748 23V16.8866H43.681C44.474 16.8866 45.2677 16.8866 46.0623 16.8866C48.2357 16.8834 50.1722 15.1563 50.416 13.0043C50.6924 10.5605 49.0841 8.43432 46.6536 8.03766C46.4411 8.0047 46.2264 7.98824 46.0115 7.98843C45.172 7.98318 44.3325 7.98641 43.4688 7.98641V5.97241H46.5329Z" fill="#E2504B"/>
<path d="M42.014 5.97241V7.98641H39.4834C37.1946 7.98641 35.2282 9.75869 35.0353 11.9946C34.8335 14.3286 36.3801 16.3854 38.6609 16.8075C38.925 16.8556 39.1927 16.8808 39.4612 16.8829C40.3007 16.8926 41.1402 16.8866 41.9974 16.8866V18.8691C41.9878 18.878 41.9829 18.8869 41.9781 18.8864C40.7112 18.8626 39.4354 19.0144 38.1781 18.7706C35.497 18.2509 33.3983 16.0008 33.054 13.2899C32.6125 9.82972 34.9235 6.681 38.3557 6.06684C38.5527 6.03173 38.7509 6.00389 38.9482 5.97241H42.014Z" fill="#E2504B"/>
<path d="M206.918 68.2562C206.918 68.2562 214.995 60.8944 211.821 56.416C208.646 51.9375 207.378 50.9437 207.378 50.9437C207.378 50.9437 206.857 53.4528 204.577 51.8271C203.351 50.9376 197.682 49.637 192.816 48.637C190.549 48.1693 188.188 48.5311 186.164 49.6568C184.14 50.7824 182.586 52.5973 181.785 54.7718C180.094 59.3362 178.764 65.0293 180.467 69.0599C183.771 76.8757 206.918 68.2562 206.918 68.2562Z" fill="#333333"/>
<path d="M175.992 87.5811L185.798 62.9375C188.041 56.7229 193.526 52.8579 199.667 55.275L200.218 55.5327C202.909 56.7767 205.034 58.989 206.169 61.7297C207.305 64.4704 207.368 67.5385 206.347 70.3238C204.367 75.6979 202.118 81.6119 200.831 84.3726C198.098 90.0903 191.939 88.3235 191.939 88.3235C191.939 88.3235 190.431 91.8694 189.726 93.5933L189.438 98.176L185.111 95.0104L175.992 87.5811Z" fill="#ED9E69"/>
<path d="M191.925 88.3234C189.273 87.0901 187.031 85.1204 185.466 82.6487C185.466 82.6487 185.269 87.8019 191.239 89.943L191.925 88.3234Z" fill="#D68F5F"/>
<path d="M184.321 67.4097C184.242 67.3238 180.914 64.4159 179.222 68.4036C177.531 72.3912 181.882 73.2746 181.937 73.1581C181.992 73.0415 184.321 67.4097 184.321 67.4097Z" fill="#ED9E69"/>
<ellipse opacity="0.24" cx="207.5" cy="305.5" rx="76.5" ry="4.5" fill="#52787C"/>
<path d="M181.361 71.1336C181.361 71.1336 181.269 71.1336 181.128 71.1336C180.934 71.1297 180.748 71.0531 180.608 70.9189C180.417 70.6477 180.304 70.3301 180.279 69.9997C180.254 69.6693 180.319 69.3383 180.467 69.0416C180.601 68.6955 180.81 68.3833 181.079 68.1275C181.171 68.0189 181.287 67.9338 181.418 67.8794C181.55 67.8249 181.692 67.8028 181.833 67.8147C181.922 67.8288 182.002 67.8733 182.062 67.9404C182.121 68.0076 182.155 68.0932 182.158 68.1828C182.158 68.3116 182.109 68.3852 182.127 68.3975C182.146 68.4097 182.238 68.3668 182.275 68.1889C182.296 68.0821 182.278 67.9712 182.225 67.876C182.189 67.8102 182.14 67.7524 182.081 67.7061C182.022 67.6597 181.955 67.6257 181.882 67.6061C181.705 67.5718 181.522 67.5825 181.349 67.6371C181.177 67.6918 181.021 67.7886 180.896 67.919C180.579 68.1924 180.334 68.5402 180.185 68.9312C179.872 69.741 179.964 70.6735 180.467 71.0845C180.561 71.1599 180.671 71.2134 180.789 71.241C180.906 71.2686 181.029 71.2696 181.147 71.2441C181.312 71.2256 181.374 71.1459 181.361 71.1336Z" fill="#D68F5F"/>
<path d="M192.295 279.933L193.576 293.908C193.576 293.908 205.913 303.221 205.833 306.945C205.754 310.669 203.799 313 200.832 313C197.866 313 179.254 300.43 179.254 300.43V279.933H192.295Z" fill="#333333"/>
<path d="M195.67 163.31C197.26 169.178 197.97 175.25 197.778 181.328C197.705 183.407 199.886 240.345 199.886 240.345L195.627 292.387L178.142 293.129L179.239 243.799L172.424 192.659L171.009 193.027L153.071 242.382L125.59 276.013L106.23 276.258L133.98 227.308L146.323 178.23L147.855 161.494L195.67 163.31Z" fill="#375A64"/>
<path d="M205.772 158.874L198.289 141.918C198.289 141.918 200.912 117.728 200.918 117.495C200.918 116.298 201.764 98.0104 204.123 98.6914C209.903 100.366 212.746 109.593 212.746 109.593L221.326 147.218L246.453 178.04L239.73 189.199L209.087 163.359C207.655 162.136 206.521 160.603 205.772 158.874Z" fill="#375A64"/>
<path d="M155.57 158.224C155.665 158.314 155.77 158.392 155.883 158.457L156.814 159.07C157.617 159.604 158.818 160.334 160.326 161.193C161.834 162.052 163.66 163.034 165.731 164.003C167.803 164.972 170.126 165.978 172.601 166.911C175.077 167.843 177.504 168.592 179.698 169.211C181.892 169.831 183.921 170.291 185.625 170.622C187.328 170.954 188.689 171.193 189.669 171.322L190.779 171.463C190.907 171.481 191.037 171.481 191.165 171.463C191.049 171.431 190.929 171.412 190.809 171.408L189.718 171.199C188.762 171.04 187.39 170.77 185.698 170.402C184.007 170.033 182.021 169.543 179.809 168.923C177.596 168.303 175.218 167.524 172.742 166.61C170.266 165.696 167.962 164.69 165.885 163.733C163.807 162.776 161.981 161.831 160.467 160.997C158.953 160.162 157.734 159.469 156.906 158.966L155.944 158.408C155.829 158.33 155.703 158.268 155.57 158.224Z" fill="#1A2E35"/>
<path d="M193.643 94.3478C193.729 92.9 192.669 88.3541 192.669 88.3541L187.11 93.8754L186.35 92.3785L176.312 81.7468L171.948 86.5259L172.861 103.335L159.789 165.119L185.676 170.395L191.48 104.986L193.643 94.3478Z" fill="#AADFF9"/>
<path d="M187.244 188.291C189.334 187.867 191.392 187.3 193.404 186.591C195.043 186.048 196.499 185.057 197.606 183.731C198.714 182.404 199.43 180.794 199.673 179.082C200.47 173.53 201.512 165.776 201.211 164.267C200.776 161.868 200.985 161.702 200.985 161.702L200.556 136.942L204.184 117.734L204.122 98.7158L196.051 93.2926L192.668 88.3848C192.668 88.3848 186.656 116.053 186.54 118.384C186.411 121.74 181.71 164.04 179.559 181.113C179.436 182.131 179.554 183.164 179.905 184.128C180.256 185.092 180.829 185.959 181.578 186.659C182.327 187.358 183.231 187.871 184.216 188.155C185.201 188.438 186.238 188.485 187.244 188.291Z" fill="#375A64"/>
<path d="M177.146 115.292C177.507 113.513 177.354 82.9003 176.312 81.747C175.087 80.3605 170.968 85.2929 170.968 85.2929C170.968 85.2929 160.458 87.6671 157.265 89.3296C154.072 90.9922 153.619 139.126 153.619 139.126L149.329 152.427C149.329 152.427 146.657 157.758 146.166 160.156C145.676 162.555 143.715 173.119 143.715 173.119C146.522 174.635 151.633 177.138 155.457 178.99C156.053 179.278 156.706 179.43 157.368 179.434C158.03 179.438 158.685 179.295 159.285 179.015C159.885 178.735 160.415 178.325 160.837 177.815C161.26 177.304 161.563 176.706 161.727 176.064L177.146 115.292Z" fill="#375A64"/>
<path d="M134.216 130.353L132.678 134.12C131.544 136.905 125.562 168.524 125.562 168.524L135.797 169.218L144.328 139.611L146.167 134.795L134.216 130.353Z" fill="#ED9E69"/>
<path d="M135.134 171.297C135.134 171.297 137.585 175.5 137.947 176.892C138.308 178.285 138.664 182.917 139.656 184.634C139.551 184.812 139.402 184.96 139.222 185.062C139.043 185.165 138.84 185.219 138.633 185.219C138.426 185.219 138.223 185.165 138.044 185.062C137.864 184.96 137.715 184.812 137.61 184.634C136.471 183.198 135.637 181.545 135.158 179.776C134.931 178.592 134.067 178.874 133.693 179.671C133.32 180.469 131.751 186.266 131.751 186.266C131.751 186.266 130.942 193.094 130.194 193.591C130.038 193.684 129.864 193.742 129.683 193.759C129.503 193.776 129.321 193.753 129.15 193.692C128.979 193.63 128.825 193.531 128.697 193.403C128.569 193.274 128.471 193.118 128.411 192.947C128.306 192.53 128.484 186.616 128.484 186.616L129.14 183.628C129.14 183.628 126.499 192.831 125.653 193.315C125.517 193.404 125.362 193.46 125.201 193.479C125.039 193.498 124.876 193.479 124.723 193.423C124.57 193.368 124.433 193.278 124.321 193.16C124.209 193.042 124.125 192.9 124.078 192.745C123.839 192.235 125.046 188.174 125.046 188.174L126.272 182.598L122.343 192.579C122.343 192.579 121.847 193.475 121.118 193.192C120.388 192.91 120.333 191.653 120.333 191.653L123.489 180.996C123.489 180.996 121.485 186.818 120.983 186.959C120.309 187.144 119.898 186.818 119.91 186.315C119.91 185.291 121.547 179.978 121.547 179.978L125.095 170.064L126.529 165.156L135.875 168.34L135.134 171.297Z" fill="#ED9E69"/>
<path d="M159.739 88.2683C156.327 89.2005 153.369 91.3413 151.416 94.2927C148.088 99.2804 129.929 133.2 129.929 133.2L123.574 165.653L135.794 169.218L144.325 139.611C144.325 139.611 161.81 110.685 162.055 110.096C162.3 109.507 164.372 95.2129 164.298 94.8326C164.225 94.4522 159.739 88.2683 159.739 88.2683Z" fill="#375A64"/>
<path d="M207.356 62.6C207.356 62.6 198.047 64.2564 193.261 60.8147C188.474 57.3731 190.196 66.1704 189.351 67.1766C188.505 68.1827 185.226 71.1029 185.226 71.1029C185.226 71.1029 183.112 64.6613 183.725 62.4527C184.338 60.2442 189.24 47.7597 194.45 51.5204C199.659 55.2811 210.549 53.2811 207.356 62.6Z" fill="#333333"/>
<path d="M170.36 90.0166L167.437 104.378L170.593 107.164L166.389 109.525L168.19 137.549L165.543 109.139L169.238 107.102L166.542 104.194L170.36 90.0166Z" fill="#2A4E56"/>
<path d="M198.1 96.9551L198.553 113.666L194.968 114.439L197.199 120.317L188.938 144.083L198.431 120.077L195.998 115.182L199.601 114.311L198.1 96.9551Z" fill="#2A4E56"/>
<path d="M187.086 94.489L186.345 92.3786L182 94.5013L178.402 89.4216L181.669 95.1516L185.799 93.5565L187.086 94.489Z" fill="#7DC6E2"/>
<path d="M187.5 94.5134L188.413 92.9858L189.449 96.3416L191.055 95.4275L189.167 97.0042L188.266 93.9674L187.5 94.5134Z" fill="#7DC6E2"/>
<path d="M187.478 93.4951L188.514 93.2804L188.643 93.6853L188.324 94.1332L188.796 95.7221L187.062 97.5625L182.576 146.93C182.524 147.998 182.195 149.034 181.62 149.936L174.878 160.537C174.774 160.705 174.623 160.84 174.443 160.923C174.264 161.006 174.064 161.035 173.868 161.006C173.672 160.976 173.489 160.89 173.342 160.758C173.195 160.625 173.09 160.452 173.04 160.261L169.975 148.997C169.69 147.936 169.69 146.819 169.975 145.758L185.064 97.4828L184.408 95.2742L185.18 93.7896L185.002 93.0289L185.615 92.7283L186.528 93.3418L187.478 93.4951Z" fill="#E87370"/>
<path d="M132.381 102.157L148.729 105.323C152.499 106.053 155.824 108.252 157.973 111.436C160.123 114.621 160.921 118.529 160.192 122.302L158.84 129.295C158.426 131.439 157.178 133.33 155.37 134.553C153.563 135.775 151.345 136.229 149.203 135.814L126.718 131.46C125.036 131.134 123.552 130.153 122.593 128.732C121.634 127.311 121.278 125.567 121.603 123.883L124.816 107.259C125.141 105.575 126.122 104.09 127.541 103.13C128.961 102.17 130.703 101.813 132.385 102.139L132.381 102.157Z" fill="#8E7DB7"/>
<path d="M140.891 103.788L161.349 107.75C162.675 108.007 163.937 108.522 165.064 109.267C166.191 110.013 167.16 110.973 167.916 112.093C168.672 113.213 169.2 114.471 169.471 115.796C169.741 117.12 169.748 118.485 169.492 119.812L167.344 130.925C167.139 131.986 166.727 132.997 166.131 133.899C165.536 134.801 164.769 135.577 163.874 136.182C162.979 136.788 161.974 137.211 160.916 137.427C159.858 137.644 158.767 137.649 157.707 137.444L135.228 133.09C134.392 132.931 133.597 132.608 132.886 132.14C132.176 131.672 131.565 131.069 131.088 130.364C130.611 129.659 130.278 128.867 130.108 128.033C129.938 127.199 129.934 126.34 130.096 125.504L133.304 108.904C133.466 108.069 133.79 107.274 134.259 106.565C134.728 105.855 135.332 105.245 136.037 104.77C136.742 104.295 137.533 103.963 138.366 103.795C139.199 103.626 140.057 103.624 140.891 103.788Z" fill="#B69FE2"/>
<path d="M142.446 123.519C144.886 123.519 146.865 121.539 146.865 119.096C146.865 116.653 144.886 114.673 142.446 114.673C140.006 114.673 138.027 116.653 138.027 119.096C138.027 121.539 140.006 123.519 142.446 123.519Z" fill="#4B406B"/>
<path d="M160.532 126.955C162.698 126.955 164.454 125.197 164.454 123.028C164.454 120.86 162.698 119.102 160.532 119.102C158.365 119.102 156.609 120.86 156.609 123.028C156.609 125.197 158.365 126.955 160.532 126.955Z" fill="#4B406B"/>
<path d="M146.371 125.98L157.033 128.045L156.994 128.25C156.72 129.665 155.896 130.914 154.703 131.721C153.51 132.528 152.045 132.828 150.631 132.554C149.217 132.28 147.97 131.455 147.164 130.261C146.357 129.066 146.058 127.6 146.332 126.185L146.371 125.98Z" fill="#F9F9F9"/>
<path d="M157.994 154.954C157.994 154.954 168.909 148.819 172.635 155.224C176.361 161.629 189.329 190.346 186.73 195.855C184.132 201.364 156.817 177.089 156.609 170.181C156.4 163.273 157.994 154.954 157.994 154.954Z" fill="#B69FE2"/>
<path d="M158.286 174.242C158.286 174.242 165.028 182.217 166.357 183.444C166.357 183.444 166.56 155.328 162.325 154.236C162.325 154.236 160.07 153.071 157.839 156.077C155.608 159.083 154.523 167.334 158.286 174.242Z" fill="#8E7DB7"/>
<path d="M122.056 138.427C122.056 138.427 155.064 136.304 159.323 148.046C163.583 159.788 164.704 186.052 142.451 209.027C120.199 232.002 102.886 191.432 108.745 166.549C114.604 141.666 117 138.574 122.056 138.427Z" fill="#B69FE2"/>
<path d="M142.452 209.027C120.193 232.002 102.886 191.432 108.745 166.549C114.604 141.666 117 138.574 122.056 138.427" fill="#B69FE2"/>
<path d="M142.452 209.027C120.193 232.002 102.886 191.432 108.745 166.549C114.604 141.666 117 138.574 122.056 138.427" fill="#B69FE2"/>
<path d="M142.451 209.027C120.119 231.934 102.886 191.432 108.744 166.549C114.603 141.666 117 138.574 122.056 138.427C122.056 138.427 113.261 169.886 115.136 187.763C117.361 209.027 149.003 202.303 142.451 209.027Z" fill="#8E7DB7"/>
<path d="M192.556 185.935L181.163 181.414L177.749 179.684L183.02 178.782C184.54 178.523 185.955 177.833 187.095 176.794L187.414 176.506L178.626 176.316L170.297 176.15L167.153 174.31L159.438 182.825L170.224 189.61L180.893 192.978L188.113 189.647L181.984 184.592L188.205 186.61C189.315 186.966 190.518 186.898 191.582 186.42L192.556 185.935Z" fill="#FFA4A4"/>
<path d="M109.625 98.2559C109.625 98.2559 120.656 105.25 122.452 108.587C124.248 111.924 130.07 145.537 130.07 145.537L168.134 173.543L158.843 183.573L121.318 164.089L109.754 144.304L109.625 98.2559Z" fill="#AADFF9"/>
<path d="M115.61 159.028L115.849 211.603C115.89 220.615 112.393 229.283 106.11 235.738L90.7891 248.566L94.6807 173.211L113.82 141.924L115.61 159.028Z" fill="#88CEEA"/>
<path d="M67.9512 241.308L53.9414 237.683L69.8878 210.021L72.0757 242.382L67.9512 241.308Z" fill="#AADFF9"/>
<path d="M102.32 179.794L96.3629 254.455L89.7196 276.258H63.0054L67.9511 241.308L70.3535 216.947L42.1746 248.566L22.4102 271.946V235.357L31.989 221.401L57.9678 166.543L102.32 179.794Z" fill="#5589A7"/>
<path d="M143.783 178.478C144.073 178.6 144.37 178.709 144.652 178.848C146.795 179.887 148.073 182.165 147.837 184.517C147.693 185.996 146.971 187.359 145.825 188.314C144.679 189.269 143.201 189.741 141.705 189.628C141.461 189.609 141.218 189.571 140.98 189.515C140.832 189.484 140.743 189.51 140.642 189.622C139.796 190.557 138.945 191.487 138.095 192.417C138.059 192.456 138.023 192.493 137.956 192.565L139.094 187.301L139.273 187.34C139.962 187.489 140.652 187.638 141.342 187.787C143.231 188.193 145.235 187.069 145.847 185.262C146.543 183.21 145.541 181.077 143.503 180.279C143.325 180.211 143.142 180.156 142.955 180.116C142.226 179.954 141.496 179.799 140.746 179.636L141.121 177.902L143.783 178.478Z" fill="#E2504B"/>
<path d="M140.143 177.691L139.782 179.364L137.586 178.89C135.601 178.46 133.577 179.564 133.008 181.386C132.413 183.287 133.385 185.287 135.288 186.065C135.508 186.155 135.736 186.226 135.968 186.278C136.695 186.443 137.424 186.596 138.168 186.757L137.812 188.404C137.802 188.41 137.796 188.416 137.792 188.415C136.697 188.157 135.563 188.044 134.516 187.606C132.284 186.671 130.868 184.408 131.056 182.09C131.295 179.132 133.865 176.95 136.953 177.083C137.13 177.091 137.307 177.105 137.484 177.116L140.143 177.691Z" fill="#E2504B"/>
<path d="M109.177 96.7711L87.7277 91.2068L57.9922 166.543C57.9922 166.543 83.1191 182.739 102.35 179.794C102.35 179.794 115.907 146.629 116.446 141.187C116.985 135.746 109.177 96.7711 109.177 96.7711Z" fill="#0095A5"/>
<path d="M28.668 231.136L43.0639 226.345C45.4091 225.562 47.5726 224.314 49.4248 222.675C51.2771 221.036 52.7801 219.039 53.8439 216.805L73.9577 174.684L28.668 231.136Z" fill="#427189"/>
<path d="M102.329 179.794C102.329 179.794 86.8302 181.162 71.7541 172.954L69.793 176.972C69.793 176.972 88.1785 186.984 102.311 183.604L102.329 179.794Z" fill="#34738C"/>
<path d="M90.6854 89.3296L88.3382 95.8448L82.9512 158.929L51.6958 213.793C47.9297 220.387 42.087 225.545 35.0814 228.462L34.8546 228.554C30.8414 230.23 26.3907 230.547 22.1809 229.456L1.47266 224.094L43.6736 164.586L55.7835 122.826L31.7291 146.138L24.1175 180.751C24.1175 180.751 18.6018 186.806 4.67786 186.236L12.0934 139.948C12.8561 135.145 15.2345 130.747 18.8347 127.482L53.2585 96.3969C55.219 94.6266 57.6745 93.5003 60.2941 93.17L90.6854 89.3296Z" fill="#AADFF9"/>
<path d="M109.3 105.305L104.636 114.464C104.636 114.464 104.483 106.924 100.285 108.802C100.285 108.802 103.092 110.029 104.281 115.838L109.3 105.305Z" fill="#087A7F"/>
<path d="M97.9459 108.286C97.9459 108.286 94.2688 102.01 88.6673 107.888L87.9258 106.231L88.1954 109.722C88.1954 109.722 92.6202 103.924 97.9459 108.286Z" fill="#087A7F"/>
<path d="M108.513 84.4095L109.751 92.6609L108.556 101.268L99.3383 108.569L89.7227 91.4891L90.6787 89.3297L99.4118 76.2195L108.513 84.4095Z" fill="#FFA4A4"/>
<path d="M108.583 101.513L101.597 94.6668C100.422 93.5189 99.6306 92.036 99.33 90.4207C99.0295 88.8054 99.2346 87.1366 99.9175 85.6424L100.53 84.3357L109.509 95.1514L108.583 101.513Z" fill="#F78989"/>
<path d="M95.3236 61.465C99.1968 55.2197 108.96 54.2688 117.129 59.3423C125.2 64.3545 128.693 73.3727 125.041 79.5873L116.412 94.1085L113.519 97.0532C113.125 97.4557 112.655 97.7755 112.137 97.9939C111.618 98.2122 111.061 98.3246 110.498 98.3246C109.935 98.3246 109.378 98.2122 108.859 97.9939C108.34 97.7755 107.87 97.4557 107.476 97.0532L101.048 90.4276C99.9528 89.2979 99.266 87.8347 99.0961 86.2699C98.9263 84.7052 99.2831 83.1284 100.11 81.7897L100.95 80.4339C94.3553 75.1947 91.8181 67.1152 95.3236 61.465Z" fill="#FFA4A4"/>
<path d="M126.292 71.5385C126.292 71.5385 119.722 63.3975 115.972 65.1276C112.221 66.8576 114.348 70.6489 111.866 71.7532C109.384 72.8575 106.497 78.6181 106.497 78.6181L104.573 77.3911C104.573 77.3911 106.16 72.3176 102.648 70.0784C99.1367 67.8391 98.2665 81.7346 98.2665 81.7346C98.2665 81.7346 91.0839 80.115 92.5486 71.3483C92.6895 70.471 92.4873 68.1766 92.7815 65.4588C92.9564 63.8157 93.4734 62.2276 94.299 60.7967C95.1245 59.3658 96.2405 58.1239 97.5748 57.1512C98.9092 56.1784 100.432 55.4964 102.046 55.1489C103.66 54.8014 105.329 54.7963 106.944 55.1339L111.339 56.0541L106.515 53.0603L125.134 60.3669C126.103 60.7463 126.962 61.3627 127.632 62.1599C128.301 62.9572 128.761 63.9098 128.968 64.9306C129.176 65.9515 129.124 67.008 128.818 68.0037C128.512 68.9995 127.962 69.9026 127.218 70.6305L126.292 71.5385Z" fill="#3D6E87"/>
<path d="M121.278 128.329L126.107 123.814L109.352 98.1821L121.278 128.329Z" fill="#76C8E2"/>
<path d="M115.774 160.439L123.717 141.813L119.66 131.077L124.005 123.691L109.352 98.1821L115.774 160.439Z" fill="#AADFF9"/>
<path d="M90.6757 89.3296L75.6302 108.427L81.1458 116.562L73.4117 127.415L82.9415 158.929L70.8867 126.758L79.246 116.071L73.1543 107.783L90.6757 89.3296Z" fill="#76C8E2"/>
<path d="M17.7402 184.585L19.4991 191.285C20.1488 193.777 20.1488 196.394 19.4991 198.886L17.3051 207.364C15.9002 205.706 15.1043 203.617 15.0498 201.444L14.9211 194.806L10.5208 199.714L8.47388 212.56C8.24692 213.975 7.6975 215.319 6.86821 216.487L5.77121 218.033L5.72218 212.192L3.81008 215.806L1.73252 211.898C0.257104 209.144 -0.2971 205.99 0.15136 202.898L1.22385 195.536L6.85595 185.843L17.7402 184.585Z" fill="#FFA4A4"/>
<path d="M99.3378 108.568C99.3378 108.568 100.68 129.482 100.018 134.304C99.3562 139.126 86.3086 178.432 86.3086 178.432L98.3266 134.599L99.3378 108.568Z" fill="#087A7F"/>
<path d="M55.7832 122.844L60.8944 117.415L48.7109 147.218L55.7832 122.844Z" fill="#76C8E2"/>
<path d="M67.4062 222.1C67.4062 222.1 76.8993 205.579 76.979 205.26C77.0587 204.941 83.6774 188.585 83.6774 188.585L76.9361 209.53L67.4062 222.1Z" fill="#427189"/>
<path d="M67.954 241.308L67.8008 218.026L72.4278 213.327L67.954 241.308Z" fill="#427189"/>
<path d="M82.543 148.844L81.6053 147.838C79.6142 145.709 78.4191 142.956 78.2224 140.046L77.4318 127.887C77.3771 127.077 77.4848 126.265 77.7485 125.497C78.0123 124.729 78.4268 124.022 78.9676 123.418C79.5083 122.813 80.1645 122.322 80.8975 121.975C81.6305 121.628 82.4254 121.431 83.2355 121.396L88.5367 121.169C90.118 121.1 91.6638 121.652 92.8443 122.708C94.0248 123.763 94.7464 125.239 94.8552 126.82L95.6151 137.678C95.743 139.497 95.4754 141.322 94.8307 143.028L93.4824 146.623" stroke="#323333" stroke-width="3" stroke-miterlimit="10"/>
<path d="M84.5481 148.821L82.8573 147.336C82.5953 147.106 82.1964 147.132 81.9665 147.394L80.9723 148.529C80.7424 148.791 80.7685 149.191 81.0305 149.421L82.7213 150.905C82.9833 151.136 83.3822 151.11 83.6121 150.847L84.6063 149.713C84.8362 149.45 84.8101 149.051 84.5481 148.821Z" fill="#D9F8FF"/>
<path d="M94.3231 148.084L94.9727 146.128C95.0827 145.797 94.9037 145.439 94.5729 145.329L93.2818 144.899C92.951 144.789 92.5937 144.968 92.4837 145.299L91.834 147.255C91.7241 147.587 91.9031 147.944 92.2339 148.054L93.525 148.484C93.8558 148.594 94.2131 148.415 94.3231 148.084Z" fill="#D9F8FF"/>
<path d="M84.9027 121.323C84.9027 121.323 78.6639 84.4585 90.8106 91.9675" stroke="#323333" stroke-width="3" stroke-miterlimit="10"/>
<path d="M112.661 133.132L113.948 133.359C114.559 129.441 114.897 125.484 114.959 121.519C115.088 112.758 113.733 106.145 111.025 101.845L110.988 101.802L109.204 99.4888L108.996 100.961L109.915 102.575C116.148 112.347 112.698 132.93 112.661 133.132Z" fill="#323333"/>
<path d="M112.233 137.543C114.003 137.543 115.438 136.107 115.438 134.335C115.438 132.563 114.003 131.126 112.233 131.126C110.462 131.126 109.027 132.563 109.027 134.335C109.027 136.107 110.462 137.543 112.233 137.543Z" fill="#EEF7FF"/>
<path d="M112.23 136.783C113.581 136.783 114.676 135.687 114.676 134.335C114.676 132.983 113.581 131.887 112.23 131.887C110.88 131.887 109.785 132.983 109.785 134.335C109.785 135.687 110.88 136.783 112.23 136.783Z" fill="#A7C3DB"/>
<path d="M5.71775 212.186L6.02418 206.677L6.31222 201.579L4.40625 208.953L5.71775 212.186Z" fill="#FFA4A4"/>
<path d="M74.1983 167.941C75.2679 167.941 76.1349 167.073 76.1349 166.003C76.1349 164.932 75.2679 164.064 74.1983 164.064C73.1288 164.064 72.2617 164.932 72.2617 166.003C72.2617 167.073 73.1288 167.941 74.1983 167.941Z" fill="#76C8E2"/>
<path d="M67.7999 178.273C68.8695 178.273 69.7365 177.405 69.7365 176.334C69.7365 175.263 68.8695 174.395 67.7999 174.395C66.7303 174.395 65.8633 175.263 65.8633 176.334C65.8633 177.405 66.7303 178.273 67.7999 178.273Z" fill="#76C8E2"/>
<path d="M59.5343 191.683C60.6038 191.683 61.4709 190.815 61.4709 189.745C61.4709 188.674 60.6038 187.806 59.5343 187.806C58.4647 187.806 57.5977 188.674 57.5977 189.745C57.5977 190.815 58.4647 191.683 59.5343 191.683Z" fill="#76C8E2"/>
<path d="M246.318 154.5C246.318 154.5 234.275 152.347 233.65 171.408C233.221 184.671 247.09 169.659 247.09 169.659L246.318 154.5Z" fill="#323333"/>
<path d="M238.754 191.861C241.19 194.605 243.232 197.675 244.821 200.984C246.942 205.781 254.927 200.186 254.927 200.186C254.927 200.186 247.34 186.536 238.754 191.861Z" fill="url(#paint2_linear_5945_31226)"/>
<path d="M254.88 189.812L255.291 188.916L260.237 177.99C261.463 175.285 261.565 172.204 260.521 169.423C259.478 166.642 257.374 164.39 254.672 163.162L251.841 161.874C246.68 159.531 240.197 162.518 237.169 167.395C236.37 168.638 235.421 169.777 234.344 170.788L230.274 174.727L232.658 177.101L232.046 178.389C227.982 187.346 229.723 188.947 234.883 191.702C234.883 191.702 243.628 194.579 246.019 193.757C248.409 192.935 248.225 197.278 248.225 197.278L254.88 189.812Z" fill="url(#paint3_linear_5945_31226)"/>
<path d="M152.458 281.154C152.458 281.154 147.267 285.553 143.075 287.154C138.883 288.755 131.094 289.749 131.094 292.546V298.141C131.094 298.141 157.446 297.743 159.046 297.141C160.645 296.54 161.044 283.952 161.044 283.952L152.458 281.154Z" fill="#4B5959"/>
<path d="M154.04 288.111C154.04 288.111 148.849 292.51 144.657 294.105C140.465 295.7 132.676 296.706 132.676 299.503V305.098C132.676 305.098 159.028 304.699 160.628 304.098C162.227 303.497 162.626 290.908 162.626 290.908L154.04 288.111Z" fill="#556566"/>
<path d="M249.744 249.805C249.744 249.805 213.886 236.118 206.023 240.278C198.16 244.437 148.887 283.179 148.887 283.179C148.887 283.179 153.679 290.375 157.405 290.111C157.405 290.111 201.23 256.001 216.938 260.799C232.645 265.596 264.354 278.387 264.354 278.387L249.744 249.805Z" fill="#2D2D2D"/>
<path d="M287.745 270.124C287.745 270.124 291.155 293.135 284.499 299C277.843 304.865 268.792 306.73 259.74 305.135C250.688 303.54 209.478 262.406 209.478 262.406L162.729 293.043C162.729 293.043 151.551 292.246 151.281 288.516C151.281 288.516 198.832 241.891 201.492 240.284C204.152 238.676 207.081 233.824 213.749 237.621C217.8 239.928 257.678 260.007 257.678 260.007L287.745 270.124Z" fill="#3D3D3D"/>
<path d="M205.57 215.186C205.57 215.186 184.733 194.051 182.484 191.297C182.484 191.297 181.522 184.696 181.044 182.929C180.566 181.162 179.279 177.309 179.279 177.309C179.279 177.309 177.998 178.432 177.998 179.395C177.998 180.358 178.96 184.72 177.998 184.303C177.036 183.886 173.99 178.273 173.83 177.309C173.671 176.346 173.04 169.15 172.065 169.567C171.091 169.984 170.944 175.892 171.263 177.34C171.479 178.365 171.641 179.402 171.747 180.444C171.747 180.444 169.498 176.512 169.663 173.635C169.828 170.757 167.739 172.849 167.414 174.616C167.089 176.383 165.974 182.8 167.414 185.524C168.854 188.248 173.99 194.272 176.073 194.554C176.073 194.554 183.428 206.873 188.9 215.217C194.373 223.56 202.383 226.131 205.57 224.204C208.757 222.278 205.57 215.186 205.57 215.186Z" fill="url(#paint4_linear_5945_31226)"/>
<path d="M248.55 192.444C248.55 192.444 247.551 200.64 242.158 200.242C236.764 199.843 225.984 206.033 219.801 207.033C213.617 208.033 202.426 207.836 202.028 209.235C201.63 210.634 201.415 222.425 198.835 224.621C196.255 226.818 221.198 226.419 225.39 225.425C229.582 224.431 232.517 222.634 233.645 226.229C234.773 229.824 237.169 242.412 243.291 248.271C249.414 254.13 245.841 257.332 247.091 261.062C248.341 264.792 268.584 275.989 275.239 275.173C281.895 274.357 289.88 274.639 290.947 270.639C292.013 266.639 278.163 238.928 277.635 236.284C277.108 233.64 280.559 226.689 278.965 222.959C277.372 219.229 251.945 191.242 248.55 192.444Z" fill="#6FB5BC"/>
<path d="M258.727 211.634C265.119 215.628 266.694 230.959 266.694 230.959C269.887 224.302 264.298 211.634 264.298 211.634C264.298 211.634 267.491 213.229 272.682 219.474C277.873 225.72 277.076 233.584 277.076 233.584C286.661 227.591 283.86 210.002 281.464 202.008C279.068 194.015 267.914 191.653 270.402 180.702C272.89 169.751 270.402 165.978 270.402 165.978C269.791 164.105 268.753 162.401 267.37 160.998C265.987 159.596 264.298 158.535 262.435 157.899L251.404 154.181C249.833 153.648 248.12 153.719 246.599 154.38C245.078 155.041 243.857 156.245 243.173 157.758L240.434 163.801C240.434 163.801 242.597 174.426 247.316 175.058L245.674 180.819C245.674 180.819 249.963 177.831 251.453 178.5C251.713 178.63 251.934 178.826 252.093 179.07C252.253 179.314 252.345 179.595 252.36 179.886C252.422 180.39 252.358 180.902 252.174 181.375C251.99 181.848 251.692 182.268 251.306 182.598C250.245 183.536 248.407 184.96 246.672 185.365C246.672 185.365 242.775 190.849 248.266 197.248C252.061 201.811 255.556 206.616 258.727 211.634Z" fill="#323333"/>
<path opacity="0.46" d="M103.836 6.98755H69.602C65.9126 6.98755 62.9219 9.98004 62.9219 13.6715C62.9219 17.3629 65.9126 20.3554 69.602 20.3554H103.836C107.525 20.3554 110.516 17.3629 110.516 13.6715C110.516 9.98004 107.525 6.98755 103.836 6.98755Z" fill="white"/>
</g>
<defs>
<linearGradient id="paint0_linear_5945_31226" x1="45.498" y1="305.5" x2="80.4981" y2="98" gradientUnits="userSpaceOnUse">
<stop stop-color="#B1CBCF"/>
<stop offset="0.87" stop-color="#E6F8FB"/>
<stop offset="1" stop-color="white"/>
</linearGradient>
<linearGradient id="paint1_linear_5945_31226" x1="88.9935" y1="-4.3631" x2="88.9935" y2="33.8499" gradientUnits="userSpaceOnUse">
<stop stop-color="#B1CBCF"/>
<stop offset="0.87" stop-color="#E6F8FB"/>
<stop offset="1" stop-color="white"/>
</linearGradient>
<linearGradient id="paint2_linear_5945_31226" x1="238.11" y1="193.291" x2="254.657" y2="200.787" gradientUnits="userSpaceOnUse">
<stop stop-color="#FFBE9D"/>
<stop offset="0.36" stop-color="#FDB597"/>
<stop offset="0.95" stop-color="#F99B86"/>
<stop offset="0.99" stop-color="#F99985"/>
</linearGradient>
<linearGradient id="paint3_linear_5945_31226" x1="231.727" y1="171.484" x2="257.815" y2="183.311" gradientUnits="userSpaceOnUse">
<stop stop-color="#FFBE9D"/>
<stop offset="0.36" stop-color="#FDB597"/>
<stop offset="0.95" stop-color="#F99B86"/>
<stop offset="0.99" stop-color="#F99985"/>
</linearGradient>
<linearGradient id="paint4_linear_5945_31226" x1="162.1" y1="186.064" x2="212.918" y2="209.104" gradientUnits="userSpaceOnUse">
<stop stop-color="#FFBE9D"/>
<stop offset="0.36" stop-color="#FDB597"/>
<stop offset="0.95" stop-color="#F99B86"/>
<stop offset="0.99" stop-color="#F99985"/>
</linearGradient>
<clipPath id="clip0_5945_31226">
<rect width="291" height="313" fill="white"/>
</clipPath>
</defs>
</svg>
