<svg width="1207" height="1005" viewBox="0 0 1207 1005" fill="none" xmlns="http://www.w3.org/2000/svg">
<path d="M2.17654 207.489C1.39875 207.203 0.537032 207.603 0.251842 208.381C-0.0333481 209.158 0.365984 210.02 1.14377 210.305L2.17654 207.489ZM365.664 174.23L364.866 172.96L365.664 174.23ZM679.834 5.22807L679.573 6.70525L679.834 5.22807ZM764.335 111.396L763.398 110.225L764.335 111.396ZM887.836 148.23L889.244 147.712L887.836 148.23ZM1056.84 502.901L1056.1 504.206L1056.84 502.901ZM1184.67 824.571L1186.02 825.228L1184.67 824.571ZM658.167 947.738L658.884 946.421L658.167 947.738ZM26.4383 925.202C25.958 925.877 26.1158 926.813 26.7908 927.294C27.4658 927.774 28.4023 927.616 28.8826 926.941L26.4383 925.202ZM1.14377 210.305C2.06378 210.643 3.0032 210.98 3.96168 211.318L4.95906 208.489C4.01214 208.155 3.08451 207.822 2.17654 207.489L1.14377 210.305ZM9.76523 213.288C11.6558 213.906 13.6082 214.522 15.6204 215.135L16.4946 212.266C14.5013 211.658 12.5682 211.048 10.6975 210.436L9.76523 213.288ZM21.4981 216.866C23.404 217.409 25.3563 217.947 27.3537 218.48L28.1266 215.581C26.1453 215.053 24.209 214.519 22.3196 213.981L21.4981 216.866ZM33.2665 220.006C35.2192 220.494 37.2102 220.975 39.2381 221.45L39.9212 218.528C37.9079 218.058 35.9316 217.579 33.9935 217.095L33.2665 220.006ZM45.1697 222.792C47.1273 223.22 49.116 223.641 51.1347 224.054L51.7357 221.115C49.7304 220.705 47.7552 220.287 45.8112 219.861L45.1697 222.792ZM57.1646 225.245C59.1278 225.619 61.1169 225.984 63.131 226.341L63.654 223.387C61.6527 223.032 59.6764 222.669 57.7259 222.298L57.1646 225.245ZM69.1577 227.368C71.1479 227.694 73.1607 228.011 75.1951 228.318L75.6429 225.352C73.6209 225.047 71.6206 224.732 69.6428 224.407L69.1577 227.368ZM81.2192 229.189C83.229 229.467 85.2584 229.735 87.3067 229.993L87.6808 227.016C85.6448 226.76 83.6277 226.494 81.6301 226.217L81.2192 229.189ZM93.3304 230.712C95.3448 230.941 97.3762 231.159 99.4239 231.366L99.7255 228.381C97.6899 228.175 95.6707 227.959 93.6683 227.732L93.3304 230.712ZM105.478 231.94C107.495 232.12 109.527 232.288 111.574 232.445L111.803 229.453C109.769 229.297 107.749 229.13 105.743 228.952L105.478 231.94ZM117.652 232.873C119.672 233.004 121.705 233.122 123.75 233.229L123.907 230.233C121.874 230.127 119.853 230.009 117.845 229.88L117.652 232.873ZM129.844 233.511C131.867 233.592 133.901 233.661 135.945 233.718L136.029 230.719C133.996 230.663 131.975 230.594 129.964 230.513L129.844 233.511ZM142.047 233.851C144.071 233.882 146.106 233.901 148.15 233.908L148.16 230.908C146.128 230.902 144.106 230.882 142.093 230.851L142.047 233.851ZM154.253 233.89C156.28 233.871 158.314 233.84 160.357 233.795L160.292 230.796C158.262 230.84 156.239 230.871 154.226 230.89L154.253 233.89ZM166.457 233.624C168.484 233.554 170.518 233.471 172.559 233.375L172.418 230.378C170.389 230.474 168.368 230.556 166.354 230.626L166.457 233.624ZM178.65 233.048C180.676 232.926 182.709 232.791 184.748 232.642L184.529 229.65C182.503 229.798 180.483 229.933 178.47 230.054L178.65 233.048ZM190.825 232.157C192.849 231.982 194.879 231.793 196.914 231.59L196.616 228.605C194.595 228.807 192.578 228.994 190.566 229.168L190.825 232.157ZM202.973 230.945C204.994 230.716 207.02 230.472 209.05 230.214L208.672 227.238C206.655 227.494 204.643 227.736 202.635 227.964L202.973 230.945ZM215.085 229.405C217.1 229.12 219.119 228.821 221.141 228.507L220.681 225.543C218.673 225.855 216.667 226.152 214.666 226.434L215.085 229.405ZM227.152 227.531C229.157 227.19 231.164 226.835 233.174 226.465L232.631 223.514C230.634 223.882 228.641 224.235 226.65 224.573L227.152 227.531ZM239.163 225.316C241.155 224.919 243.15 224.507 245.146 224.079L244.517 221.145C242.535 221.57 240.555 221.98 238.576 222.374L239.163 225.316ZM251.107 222.755C253.085 222.3 255.065 221.829 257.045 221.343L256.33 218.429C254.364 218.912 252.399 219.379 250.435 219.831L251.107 222.755ZM262.972 219.84C264.934 219.326 266.897 218.797 268.86 218.252L268.056 215.361C266.108 215.903 264.16 216.428 262.213 216.938L262.972 219.84ZM274.747 216.566C276.69 215.994 278.633 215.405 280.576 214.799L279.684 211.935C277.756 212.536 275.827 213.12 273.899 213.689L274.747 216.566ZM286.403 212.933C288.33 212.299 290.256 211.649 292.182 210.982L291.199 208.147C289.289 208.809 287.378 209.455 285.465 210.084L286.403 212.933ZM297.939 208.934C299.849 208.238 301.757 207.524 303.663 206.794L302.59 203.992C300.698 204.717 298.806 205.425 296.911 206.116L297.939 208.934ZM309.343 204.564C311.233 203.804 313.121 203.027 315.006 202.233L313.841 199.468C311.971 200.256 310.099 201.027 308.224 201.78L309.343 204.564ZM320.601 199.82C322.464 198.999 324.324 198.16 326.181 197.304L324.925 194.579C323.083 195.429 321.238 196.261 319.391 197.076L320.601 199.82ZM331.698 194.703C333.529 193.821 335.357 192.921 337.181 192.003L335.833 189.323C334.024 190.233 332.212 191.125 330.396 192L331.698 194.703ZM342.621 189.209C344.417 188.268 346.209 187.308 347.998 186.33L346.559 183.698C344.786 184.667 343.008 185.619 341.228 186.553L342.621 189.209ZM353.352 183.344C355.111 182.342 356.867 181.323 358.618 180.286L357.089 177.705C355.353 178.733 353.612 179.744 351.868 180.737L353.352 183.344ZM363.854 177.123C364.724 176.586 365.594 176.045 366.462 175.5L364.866 172.96C364.005 173.5 363.143 174.037 362.28 174.568L363.854 177.123ZM366.462 175.5C367.316 174.964 368.166 174.428 369.013 173.893L367.41 171.357C366.566 171.891 365.718 172.425 364.866 172.96L366.462 175.5ZM374.053 170.691C375.719 169.626 377.372 168.563 379.013 167.503L377.384 164.984C375.748 166.041 374.099 167.101 372.437 168.163L374.053 170.691ZM383.972 164.281C385.651 163.184 387.315 162.09 388.966 160.999L387.312 158.496C385.666 159.584 384.005 160.675 382.331 161.769L383.972 164.281ZM393.878 157.735C395.53 156.632 397.167 155.531 398.791 154.434L397.112 151.949C395.492 153.043 393.859 154.14 392.212 155.241L393.878 157.735ZM403.731 151.079C405.363 149.965 406.981 148.853 408.586 147.746L406.881 145.277C405.281 146.382 403.667 147.49 402.039 148.602L403.731 151.079ZM413.465 144.359C415.105 143.215 416.73 142.075 418.341 140.939L416.613 138.487C415.006 139.621 413.384 140.758 411.748 141.899L413.465 144.359ZM423.132 137.544C424.766 136.38 426.385 135.221 427.99 134.066L426.237 131.631C424.637 132.783 423.021 133.94 421.391 135.101L423.132 137.544ZM432.795 130.591C434.393 129.429 435.976 128.273 437.544 127.122L435.769 124.703C434.204 125.852 432.625 127.005 431.031 128.164L432.795 130.591ZM442.361 123.571C443.952 122.393 445.527 121.22 447.088 120.053L445.292 117.65C443.735 118.815 442.162 119.985 440.575 121.16L442.361 123.571ZM451.844 116.484C453.437 115.283 455.014 114.088 456.577 112.9L454.762 110.512C453.202 111.698 451.627 112.89 450.038 114.088L451.844 116.484ZM461.255 109.331C462.85 108.109 464.429 106.895 465.993 105.688L464.161 103.313C462.599 104.518 461.023 105.73 459.431 106.949L461.255 109.331ZM470.641 102.091C472.226 100.86 473.796 99.6368 475.35 98.4224L473.503 96.0583C471.951 97.271 470.384 98.492 468.801 99.7211L470.641 102.091ZM479.999 94.7809C481.569 93.5485 483.123 92.3252 484.662 91.1113L482.805 88.7556C481.267 89.9684 479.714 91.1904 478.147 92.4214L479.999 94.7809ZM489.313 87.4374C490.872 86.2037 492.416 84.9801 493.946 83.7671L492.082 81.4165C490.553 82.6291 489.01 83.8519 487.452 85.0848L489.313 87.4374ZM498.599 80.0749C500.153 78.8408 501.693 77.6183 503.218 76.4074L501.353 74.0576C499.827 75.2687 498.287 76.4915 496.733 77.7253L498.599 80.0749ZM507.875 72.7138C509.431 71.4814 510.972 70.262 512.499 69.0559L510.64 66.7015C509.111 67.9088 507.568 69.1292 506.012 70.3624L507.875 72.7138ZM517.164 65.3809C518.727 64.1537 520.275 62.9413 521.811 61.744L519.966 59.3782C518.427 60.578 516.876 61.7926 515.311 63.0217L517.164 65.3809ZM526.491 58.1116C528.067 56.8948 529.63 55.6948 531.18 54.5122L529.361 52.1268C527.805 53.3134 526.238 54.517 524.658 55.7371L526.491 58.1116ZM535.884 50.9507C537.48 49.7518 539.064 48.5722 540.637 47.4123L538.857 44.9977C537.276 46.1633 535.685 47.3482 534.082 48.5521L535.884 50.9507ZM545.377 43.9551C547 42.7843 548.613 41.6356 550.217 40.5094L548.493 38.0543C546.878 39.1882 545.255 40.3442 543.622 41.5218L545.377 43.9551ZM555.054 37.163C556.697 36.0448 558.331 34.9513 559.958 33.8832L558.312 31.3753C556.67 32.4533 555.022 33.5561 553.366 34.6832L555.054 37.163ZM564.923 30.6902C566.593 29.6389 568.258 28.6153 569.918 27.62L568.376 25.0469C566.696 26.0539 565.013 27.0889 563.325 28.1511L564.923 30.6902ZM575.017 24.6472C576.737 23.6725 578.456 22.7291 580.173 21.8176L578.766 19.1677C577.024 20.0926 575.282 21.0493 573.538 22.0369L575.017 24.6472ZM585.388 19.1484C587.159 18.276 588.931 17.4383 590.706 16.6359L589.47 13.9022C587.664 14.7187 585.862 15.5707 584.062 16.4573L585.388 19.1484ZM596.095 14.3146C597.909 13.5721 599.728 12.8668 601.555 12.1995L600.526 9.38157C598.662 10.0624 596.807 10.7816 594.958 11.5382L596.095 14.3146ZM607.1 10.3003C608.96 9.70551 610.83 9.15006 612.713 8.6347L611.92 5.74116C609.996 6.26789 608.086 6.8354 606.186 7.44283L607.1 10.3003ZM618.39 7.21206C620.289 6.78001 622.202 6.38831 624.133 6.03774L623.597 3.08601C621.623 3.44451 619.666 3.84506 617.724 4.28683L618.39 7.21206ZM629.902 5.12068C631.82 4.85859 633.758 4.63638 635.716 4.45483L635.439 1.46765C633.438 1.65318 631.457 1.88031 629.496 2.14828L629.902 5.12068ZM641.584 4.03634C643.504 3.93992 645.446 3.88166 647.41 3.86225L647.38 0.862393C645.376 0.882201 643.395 0.941653 641.434 1.04011L641.584 4.03634ZM653.271 3.9183C655.21 3.97388 657.172 4.06622 659.158 4.19594L659.353 1.20232C657.331 1.07026 655.333 0.976178 653.357 0.91953L653.271 3.9183ZM664.968 4.67553C666.898 4.86742 668.851 5.09349 670.83 5.35428L671.222 2.38002C669.212 2.11514 667.227 1.88538 665.265 1.69025L664.968 4.67553ZM676.622 6.20589C677.6 6.36413 678.584 6.53056 679.573 6.70525L680.095 3.7509C679.091 3.57378 678.094 3.40497 677.102 3.24444L676.622 6.20589ZM679.573 6.70525C680.576 6.88208 681.568 7.06301 682.551 7.24797L683.106 4.29972C682.112 4.11264 681.108 3.92968 680.095 3.7509L679.573 6.70525ZM688.335 8.40539C690.315 8.82594 692.254 9.26345 694.152 9.7172L694.85 6.79938C692.926 6.33963 690.963 5.89655 688.958 5.47085L688.335 8.40539ZM699.851 11.1597C701.802 11.6817 703.707 12.2217 705.566 12.7786L706.427 9.90468C704.538 9.33917 702.605 8.79121 700.627 8.26168L699.851 11.1597ZM711.22 14.569C713.119 15.2042 714.966 15.8579 716.764 16.5289L717.813 13.7183C715.982 13.035 714.102 12.3699 712.172 11.724L711.22 14.569ZM722.25 18.6933C724.117 19.4712 725.924 20.2688 727.674 21.0845L728.942 18.3654C727.154 17.5318 725.308 16.7176 723.404 15.9241L722.25 18.6933ZM732.963 23.6948C734.744 24.6251 736.458 25.5752 738.107 26.5431L739.626 23.956C737.933 22.9624 736.176 21.9884 734.352 21.0357L732.963 23.6948ZM743.088 29.6489C744.761 30.7577 746.357 31.8857 747.879 33.0304L749.683 30.633C748.112 29.4516 746.467 28.2891 744.745 27.148L743.088 29.6489ZM752.446 36.7037C753.967 38.013 755.4 39.3395 756.746 40.6798L758.862 38.5533C757.464 37.1612 755.978 35.7856 754.404 34.43L752.446 36.7037ZM760.728 44.9633C762.03 46.4813 763.231 48.0118 764.336 49.5499L766.772 47.7994C765.616 46.1907 764.362 44.5927 763.005 43.0105L760.728 44.9633ZM767.511 54.4248C768.515 56.1355 769.408 57.8498 770.198 59.5614L772.922 58.3051C772.091 56.5036 771.152 54.7019 770.099 52.9066L767.511 54.4248ZM772.356 64.9622C772.993 66.8362 773.511 68.6992 773.919 70.5427L776.848 69.8936C776.416 67.9436 775.869 65.9752 775.197 63.9974L772.356 64.9622ZM774.851 76.2539C775.057 78.218 775.142 80.1482 775.117 82.0334L778.116 82.0735C778.143 80.0709 778.053 78.0228 777.834 75.941L774.851 76.2539ZM774.688 87.7957C774.42 89.75 774.033 91.6352 773.541 93.4365L776.436 94.2258C776.961 92.298 777.374 90.2852 777.66 88.2032L774.688 87.7957ZM771.645 98.864C770.857 100.684 769.956 102.374 768.965 103.913L771.487 105.537C772.571 103.855 773.548 102.019 774.398 100.056L771.645 98.864ZM765.463 108.347C764.794 109.033 764.104 109.66 763.398 110.225L765.272 112.567C766.079 111.922 766.859 111.212 767.61 110.443L765.463 108.347ZM763.398 110.225C762.625 110.843 761.827 111.389 761.009 111.866L762.521 114.457C763.466 113.906 764.385 113.277 765.272 112.567L763.398 110.225ZM755.659 113.994C753.776 114.435 751.836 114.599 749.887 114.51L749.75 117.507C751.958 117.608 754.175 117.423 756.343 116.915L755.659 113.994ZM744.116 113.524C742.248 112.973 740.422 112.204 738.685 111.245L737.234 113.871C739.156 114.933 741.183 115.786 743.266 116.402L744.116 113.524ZM733.842 107.866C732.353 106.575 731.001 105.129 729.83 103.552L727.422 105.342C728.728 107.099 730.229 108.705 731.877 110.133L733.842 107.866ZM726.904 98.4744C726.149 96.6976 725.608 94.8217 725.323 92.8702L722.355 93.304C722.679 95.5209 723.292 97.645 724.144 99.6485L726.904 98.4744ZM725.243 87.0491C725.458 85.1962 725.907 83.2912 726.624 81.3499L723.81 80.3106C723.013 82.4697 722.506 84.6071 722.263 86.7027L725.243 87.0491ZM729.235 76.0331C730.213 74.4427 731.383 72.8364 732.762 71.2237L730.482 69.2738C729.008 70.9975 727.745 72.7295 726.68 74.4612L729.235 76.0331ZM736.97 66.8967C737.704 66.2259 738.476 65.5557 739.288 64.8866L737.381 62.5709C736.53 63.2717 735.719 63.9758 734.946 64.6826L736.97 66.8967ZM739.288 64.8866C740.032 64.274 740.792 63.6776 741.566 63.0979L739.768 60.6964C738.957 61.3037 738.161 61.9287 737.381 62.5709L739.288 64.8866ZM746.363 59.838C748.002 58.8305 749.693 57.8921 751.433 57.0267L750.096 54.3407C748.277 55.2459 746.507 56.2278 744.792 57.2824L746.363 59.838ZM756.736 54.6753C758.527 53.9737 760.36 53.3457 762.23 52.7951L761.382 49.9173C759.429 50.4925 757.514 51.1486 755.642 51.8819L756.736 54.6753ZM767.865 51.3954C769.746 51.0126 771.657 50.706 773.596 50.4789L773.247 47.4992C771.225 47.7362 769.23 48.0561 767.267 48.4556L767.865 51.3954ZM779.389 50.0425C781.307 49.9773 783.247 49.9891 785.204 50.0811L785.345 47.0844C783.307 46.9887 781.286 46.9763 779.287 47.0443L779.389 50.0425ZM791.004 50.5848C792.906 50.8256 794.82 51.1423 796.745 51.5377L797.349 48.599C795.349 48.1883 793.359 47.859 791.381 47.6086L791.004 50.5848ZM802.397 52.9198C804.238 53.4427 806.087 54.0388 807.939 54.7104L808.961 51.8902C807.043 51.1944 805.127 50.5763 803.216 50.0338L802.397 52.9198ZM813.347 56.8853C815.099 57.6597 816.852 58.5035 818.604 59.4185L819.993 56.7594C818.184 55.8145 816.372 54.9424 814.56 54.1414L813.347 56.8853ZM823.695 62.2833C825.336 63.2746 826.975 64.3306 828.608 65.4529L830.307 62.9802C828.626 61.825 826.938 60.7372 825.245 59.7152L823.695 62.2833ZM833.339 68.9019C834.861 70.0765 836.377 71.3109 837.885 72.6064L839.84 70.3307C838.292 69.0015 836.736 67.7341 835.172 66.5271L833.339 68.9019ZM842.245 76.5444C843.636 77.8637 845.019 79.2374 846.393 80.6664L848.556 78.5872C847.15 77.1254 845.734 75.7192 844.31 74.3677L842.245 76.5444ZM850.359 84.9757C851.631 86.4197 852.895 87.9136 854.148 89.4583L856.478 87.568C855.199 85.9922 853.909 84.4672 852.609 82.9921L850.359 84.9757ZM857.77 94.1034C858.931 95.6522 860.082 97.2468 861.222 98.8879L863.686 97.1766C862.525 95.5062 861.353 93.8823 860.171 92.3041L857.77 94.1034ZM864.479 103.752C865.527 105.376 866.564 107.04 867.591 108.747L870.162 107.201C869.119 105.467 868.065 103.775 866.999 102.125L864.479 103.752ZM870.567 113.873C871.509 115.551 872.439 117.267 873.359 119.022L876.016 117.629C875.083 115.85 874.139 114.109 873.184 112.405L870.567 113.873ZM876.025 124.277C876.884 126.028 877.733 127.815 878.57 129.637L881.296 128.384C880.448 126.539 879.589 124.73 878.718 122.956L876.025 124.277ZM880.951 134.987C881.723 136.778 882.484 138.602 883.234 140.458L886.015 139.334C885.257 137.457 884.487 135.612 883.706 133.8L880.951 134.987ZM885.38 145.937C885.732 146.866 886.082 147.803 886.428 148.747L889.244 147.712C888.894 146.758 888.541 145.812 888.185 144.873L885.38 145.937ZM886.428 148.747C886.77 149.676 887.106 150.61 887.437 151.547L890.266 150.549C889.931 149.6 889.59 148.654 889.244 147.712L886.428 148.747ZM889.36 157.218C889.974 159.105 890.57 161.006 891.148 162.922L894.02 162.055C893.436 160.12 892.834 158.197 892.212 156.289L889.36 157.218ZM892.823 168.689C893.357 170.599 893.875 172.522 894.379 174.457L897.283 173.702C896.774 171.749 896.251 169.809 895.712 167.88L892.823 168.689ZM895.845 180.287C896.314 182.217 896.77 184.158 897.214 186.111L900.14 185.445C899.692 183.479 899.233 181.523 898.76 179.579L895.845 180.287ZM898.51 191.98C898.926 193.926 899.333 195.882 899.731 197.848L902.671 197.253C902.271 195.277 901.862 193.31 901.443 191.352L898.51 191.98ZM900.893 203.745C901.269 205.703 901.638 207.671 902.001 209.646L904.951 209.104C904.587 207.121 904.217 205.146 903.839 203.179L900.893 203.745ZM903.065 215.562C903.411 217.529 903.753 219.503 904.091 221.485L907.049 220.981C906.71 218.994 906.367 217.014 906.019 215.041L903.065 215.562ZM905.089 227.414C905.417 229.387 905.742 231.366 906.065 233.352L909.026 232.869C908.702 230.882 908.377 228.899 908.048 226.923L905.089 227.414ZM907.026 239.289C907.344 241.266 907.661 243.248 907.979 245.235L910.942 244.761C910.623 242.773 910.306 240.791 909.988 238.813L907.026 239.289ZM908.931 251.177C909.248 253.155 909.567 255.138 909.888 257.125L912.85 256.646C912.528 254.661 912.21 252.679 911.893 250.702L908.931 251.177ZM910.856 263.068C911.181 265.046 911.51 267.029 911.843 269.014L914.801 268.517C914.469 266.536 914.141 264.557 913.816 262.581L910.856 263.068ZM912.852 274.953C913.193 276.931 913.539 278.911 913.892 280.893L916.846 280.367C916.494 278.391 916.149 276.416 915.809 274.444L912.852 274.953ZM914.967 286.824C915.331 288.798 915.703 290.775 916.083 292.752L919.029 292.186C918.651 290.216 918.28 288.247 917.917 286.279L914.967 286.824ZM917.246 298.67C917.642 300.64 918.047 302.61 918.462 304.581L921.397 303.962C920.984 302.001 920.581 300.04 920.187 298.079L917.246 298.67ZM919.735 310.479C920.17 312.442 920.615 314.404 921.073 316.366L923.994 315.685C923.539 313.734 923.097 311.783 922.665 309.831L919.735 310.479ZM922.478 322.238C922.958 324.19 923.451 326.142 923.958 328.092L926.862 327.338C926.358 325.401 925.869 323.462 925.392 321.522L922.478 322.238ZM925.517 333.929C926.05 335.868 926.597 337.806 927.16 339.742L930.041 338.904C929.482 336.983 928.939 335.06 928.41 333.134L925.517 333.929ZM928.893 345.533C929.485 347.455 930.093 349.375 930.718 351.292L933.57 350.362C932.95 348.461 932.347 346.557 931.76 344.65L928.893 345.533ZM932.643 357.026C933.3 358.927 933.975 360.825 934.668 362.719L937.485 361.688C936.798 359.811 936.13 357.931 935.479 356.046L932.643 357.026ZM936.803 368.383C937.53 370.258 938.277 372.128 939.044 373.995L941.819 372.854C941.059 371.007 940.32 369.155 939.6 367.298L936.803 368.383ZM941.404 379.575C942.206 381.418 943.029 383.255 943.873 385.088L946.597 383.832C945.762 382.019 944.948 380.201 944.155 378.378L941.404 379.575ZM946.471 390.569C947.351 392.373 948.253 394.172 949.178 395.965L951.844 394.59C950.93 392.817 950.038 391.038 949.168 389.254L946.471 390.569ZM952.021 401.325C952.981 403.087 953.965 404.843 954.974 406.592L957.573 405.094C956.577 403.365 955.604 401.63 954.654 399.888L952.021 401.325ZM958.064 411.811C959.108 413.526 960.176 415.234 961.269 416.936L963.793 415.315C962.713 413.634 961.658 411.946 960.627 410.251L958.064 411.811ZM964.606 421.994C965.733 423.658 966.886 425.315 968.064 426.965L970.505 425.221C969.341 423.592 968.203 421.955 967.089 420.311L964.606 421.994ZM971.64 431.843C972.852 433.453 974.089 435.056 975.353 436.65L977.704 434.787C976.456 433.212 975.234 431.629 974.037 430.039L971.64 431.843ZM979.156 441.33C980.449 442.882 981.769 444.427 983.116 445.963L985.372 443.985C984.041 442.468 982.738 440.943 981.46 439.409L979.156 441.33ZM987.135 450.436C988.499 451.917 989.888 453.39 991.304 454.854L993.461 452.769C992.062 451.322 990.689 449.867 989.342 448.404L987.135 450.436ZM995.558 459.148C996.984 460.553 998.436 461.95 999.914 463.339L1001.97 461.153C1000.51 459.78 999.073 458.399 997.664 457.011L995.558 459.148ZM1004.4 467.459C1005.88 468.785 1007.39 470.104 1008.92 471.414L1010.87 469.135C1009.36 467.839 1007.87 466.536 1006.41 465.225L1004.4 467.459ZM1013.59 475.319C1015.13 476.583 1016.7 477.837 1018.3 479.084L1020.15 476.72C1018.57 475.487 1017.01 474.246 1015.49 472.997L1013.59 475.319ZM1023.1 482.75C1024.72 483.962 1026.36 485.165 1028.03 486.36L1029.78 483.92C1028.12 482.737 1026.5 481.546 1024.89 480.347L1023.1 482.75ZM1032.93 489.785C1034.59 490.919 1036.27 492.045 1037.97 493.162L1039.61 490.654C1037.93 489.547 1036.26 488.432 1034.62 487.31L1032.93 489.785ZM1043.08 496.444C1044.76 497.498 1046.46 498.545 1048.18 499.584L1049.73 497.015C1048.02 495.985 1046.34 494.948 1044.68 493.904L1043.08 496.444ZM1053.43 502.677C1054.31 503.189 1055.2 503.699 1056.1 504.206L1057.58 501.595C1056.69 501.092 1055.8 500.587 1054.93 500.08L1053.43 502.677ZM1056.1 504.206C1056.98 504.703 1057.85 505.202 1058.72 505.702L1060.22 503.102C1059.34 502.598 1058.46 502.096 1057.58 501.595L1056.1 504.206ZM1063.88 508.725C1065.58 509.739 1067.26 510.76 1068.93 511.788L1070.5 509.236C1068.82 508.2 1067.13 507.17 1065.41 506.148L1063.88 508.725ZM1073.98 514.966C1075.67 516.043 1077.33 517.127 1078.98 518.217L1080.63 515.716C1078.98 514.617 1077.3 513.524 1075.6 512.438L1073.98 514.966ZM1083.86 521.509C1085.52 522.649 1087.16 523.795 1088.78 524.949L1090.52 522.505C1088.88 521.341 1087.23 520.185 1085.56 519.036L1083.86 521.509ZM1093.58 528.432C1095.18 529.612 1096.76 530.799 1098.32 531.993L1100.14 529.611C1098.57 528.407 1096.98 527.209 1095.36 526.018L1093.58 528.432ZM1103.03 535.669C1104.58 536.901 1106.11 538.139 1107.62 539.384L1109.53 537.07C1108.01 535.814 1106.46 534.564 1104.9 533.32L1103.03 535.669ZM1112.19 543.23C1113.71 544.526 1115.2 545.829 1116.67 547.138L1118.66 544.898C1117.18 543.576 1115.67 542.261 1114.15 540.952L1112.19 543.23ZM1121.05 551.122C1122.52 552.482 1123.96 553.848 1125.39 555.221L1127.47 553.062C1126.03 551.675 1124.57 550.295 1123.09 548.921L1121.05 551.122ZM1129.59 559.358C1131.01 560.778 1132.4 562.205 1133.77 563.638L1135.94 561.565C1134.55 560.117 1133.15 558.676 1131.72 557.241L1129.59 559.358ZM1137.82 567.962C1139.16 569.432 1140.49 570.907 1141.79 572.388L1144.04 570.408C1142.73 568.911 1141.39 567.42 1140.03 565.935L1137.82 567.962ZM1145.66 576.896C1146.94 578.415 1148.19 579.94 1149.42 581.47L1151.76 579.591C1150.52 578.044 1149.25 576.502 1147.96 574.965L1145.66 576.896ZM1153.1 586.156C1154.31 587.726 1155.49 589.301 1156.65 590.88L1159.07 589.107C1157.9 587.509 1156.7 585.917 1155.48 584.329L1153.1 586.156ZM1160.12 595.735C1161.25 597.358 1162.36 598.986 1163.44 600.617L1165.94 598.958C1164.85 597.307 1163.72 595.66 1162.58 594.018L1160.12 595.735ZM1166.69 605.625C1167.74 607.301 1168.77 608.981 1169.78 610.665L1172.36 609.124C1171.34 607.42 1170.29 605.72 1169.22 604.024L1166.69 605.625ZM1172.78 615.81C1173.76 617.536 1174.71 619.265 1175.63 620.997L1178.28 619.582C1177.34 617.829 1176.38 616.079 1175.39 614.332L1172.78 615.81ZM1178.38 626.275C1179.27 628.047 1180.14 629.822 1180.98 631.598L1183.69 630.314C1182.84 628.515 1181.96 626.719 1181.05 624.925L1178.38 626.275ZM1183.46 637.001C1184.26 638.814 1185.04 640.63 1185.79 642.446L1188.56 641.298C1187.8 639.458 1187.01 637.62 1186.2 635.784L1183.46 637.001ZM1188 647.964C1188.71 649.815 1189.4 651.667 1190.06 653.519L1192.89 652.51C1192.22 650.634 1191.52 648.759 1190.8 646.885L1188 647.964ZM1191.99 659.141C1192.61 661.024 1193.2 662.907 1193.77 664.789L1196.64 663.924C1196.07 662.017 1195.47 660.11 1194.84 658.203L1191.99 659.141ZM1195.41 670.504C1195.94 672.414 1196.43 674.324 1196.9 676.232L1199.82 675.513C1199.34 673.58 1198.84 671.646 1198.31 669.711L1195.41 670.504ZM1198.26 682.025C1198.68 683.958 1199.08 685.889 1199.45 687.817L1202.4 687.247C1202.02 685.294 1201.62 683.338 1201.19 681.38L1198.26 682.025ZM1200.51 693.675C1200.84 695.629 1201.14 697.58 1201.41 699.526L1204.38 699.107C1204.1 697.136 1203.8 695.16 1203.47 693.181L1200.51 693.675ZM1202.16 705.424C1202.39 707.395 1202.59 709.36 1202.77 711.321L1205.75 711.055C1205.58 709.069 1205.37 707.078 1205.15 705.082L1202.16 705.424ZM1203.22 717.241C1203.34 719.223 1203.44 721.199 1203.51 723.168L1206.51 723.056C1206.44 721.061 1206.34 719.06 1206.21 717.052L1203.22 717.241ZM1203.66 729.093C1203.68 731.082 1203.68 733.063 1203.65 735.036L1206.65 735.079C1206.68 733.081 1206.68 731.074 1206.66 729.059L1203.66 729.093ZM1203.49 740.948C1203.41 742.939 1203.3 744.92 1203.17 746.891L1206.16 747.091C1206.3 745.094 1206.4 743.086 1206.49 741.069L1203.49 740.948ZM1202.7 752.798C1202.52 754.777 1202.31 756.745 1202.07 758.701L1205.05 759.057C1205.29 757.075 1205.5 755.081 1205.69 753.076L1202.7 752.798ZM1201.29 764.584C1201 766.545 1200.69 768.493 1200.35 770.427L1203.3 770.943C1203.65 768.983 1203.96 767.008 1204.25 765.021L1201.29 764.584ZM1199.25 776.272C1198.85 778.217 1198.43 780.146 1197.99 782.059L1200.91 782.736C1201.36 780.796 1201.79 778.84 1202.19 776.868L1199.25 776.272ZM1196.57 787.819C1196.07 789.745 1195.54 791.653 1194.99 793.541L1197.87 794.382C1198.43 792.466 1198.96 790.531 1199.47 788.578L1196.57 787.819ZM1193.25 799.191C1192.63 801.088 1192 802.963 1191.33 804.817L1194.16 805.826C1194.83 803.944 1195.48 802.04 1196.1 800.115L1193.25 799.191ZM1189.26 810.37C1188.53 812.215 1187.79 814.037 1187.02 815.833L1189.78 817.014C1190.56 815.189 1191.32 813.338 1192.05 811.464L1189.26 810.37ZM1184.59 821.26C1184.17 822.152 1183.75 823.036 1183.32 823.914L1186.02 825.228C1186.46 824.335 1186.89 823.436 1187.31 822.53L1184.59 821.26ZM1183.32 823.914C1182.92 824.753 1182.49 825.602 1182.05 826.462L1184.71 827.838C1185.17 826.958 1185.6 826.088 1186.02 825.228L1183.32 823.914ZM1179.17 831.739C1178.24 833.38 1177.24 835.052 1176.19 836.751L1178.74 838.329C1179.81 836.601 1180.82 834.9 1181.78 833.227L1179.17 831.739ZM1172.96 841.802C1171.89 843.404 1170.79 845.026 1169.63 846.667L1172.08 848.393C1173.25 846.73 1174.38 845.085 1175.46 843.46L1172.96 841.802ZM1166.13 851.511C1164.97 853.068 1163.78 854.64 1162.54 856.224L1164.91 858.068C1166.16 856.465 1167.37 854.875 1168.54 853.299L1166.13 851.511ZM1158.82 860.902C1157.59 862.409 1156.33 863.926 1155.03 865.451L1157.32 867.393C1158.63 865.853 1159.9 864.32 1161.14 862.797L1158.82 860.902ZM1151.1 869.992C1149.81 871.447 1148.5 872.909 1147.15 874.376L1149.36 876.403C1150.72 874.923 1152.05 873.447 1153.35 871.978L1151.1 869.992ZM1143.03 878.791C1141.69 880.197 1140.33 881.606 1138.94 883.018L1141.08 885.121C1142.48 883.697 1143.86 882.276 1145.2 880.858L1143.03 878.791ZM1134.71 887.254C1133.31 888.631 1131.88 890.01 1130.43 891.39L1132.5 893.562C1133.96 892.172 1135.4 890.782 1136.81 889.393L1134.71 887.254ZM1126.1 895.454C1124.63 896.803 1123.15 898.151 1121.64 899.499L1123.64 901.736C1125.16 900.378 1126.66 899.019 1128.13 897.659L1126.1 895.454ZM1117.21 903.397C1115.72 904.694 1114.2 905.99 1112.66 907.284L1114.59 909.58C1116.14 908.277 1117.67 906.971 1119.18 905.664L1117.21 903.397ZM1108.07 911.084C1106.54 912.327 1105 913.566 1103.44 914.802L1105.3 917.155C1106.87 915.91 1108.43 914.661 1109.96 913.409L1108.07 911.084ZM1098.7 918.497C1097.14 919.692 1095.57 920.882 1093.98 922.068L1095.77 924.474C1097.37 923.28 1098.96 922.08 1100.53 920.877L1098.7 918.497ZM1089.17 925.592C1087.56 926.759 1085.92 927.92 1084.28 929.075L1086 931.532C1087.66 930.369 1089.3 929.199 1090.93 928.024L1089.17 925.592ZM1079.41 932.433C1077.77 933.547 1076.12 934.653 1074.45 935.753L1076.1 938.258C1077.78 937.151 1079.45 936.036 1081.1 934.915L1079.41 932.433ZM1069.42 939.012C1067.77 940.069 1066.09 941.12 1064.41 942.163L1065.98 944.715C1067.68 943.664 1069.37 942.606 1071.04 941.54L1069.42 939.012ZM1059.3 945.268C1057.6 946.288 1055.88 947.299 1054.15 948.302L1055.65 950.898C1057.4 949.888 1059.13 948.869 1060.84 947.842L1059.3 945.268ZM1049 951.237C1047.27 952.207 1045.52 953.167 1043.76 954.119L1045.19 956.757C1046.96 955.799 1048.72 954.831 1050.46 953.854L1049 951.237ZM1038.49 956.925C1036.74 957.837 1034.98 958.74 1033.21 959.633L1034.56 962.312C1036.35 961.413 1038.12 960.503 1039.88 959.584L1038.49 956.925ZM1027.86 962.283C1026.07 963.151 1024.27 964.009 1022.46 964.856L1023.73 967.573C1025.56 966.72 1027.37 965.856 1029.17 964.981L1027.86 962.283ZM1017.07 967.329C1015.26 968.143 1013.44 968.946 1011.61 969.737L1012.8 972.491C1014.65 971.693 1016.48 970.885 1018.3 970.065L1017.07 967.329ZM1006.1 972.071C1004.28 972.825 1002.45 973.568 1000.61 974.299L1001.71 977.087C1003.57 976.35 1005.41 975.602 1007.25 974.842L1006.1 972.071ZM995.048 976.457C993.185 977.165 991.311 977.86 989.426 978.543L990.448 981.364C992.347 980.675 994.236 979.975 996.113 979.262L995.048 976.457ZM983.842 980.518C981.972 981.164 980.091 981.797 978.199 982.418L979.135 985.269C981.041 984.643 982.936 984.005 984.822 983.354L983.842 980.518ZM972.496 984.241C970.61 984.828 968.715 985.402 966.81 985.962L967.657 988.84C969.577 988.275 971.487 987.697 973.387 987.106L972.496 984.241ZM961.094 987.596C959.179 988.127 957.255 988.645 955.321 989.149L956.078 992.052C958.027 991.544 959.966 991.022 961.896 990.487L961.094 987.596ZM949.541 990.607C947.624 991.075 945.699 991.529 943.764 991.968L944.429 994.894C946.379 994.451 948.32 993.993 950.251 993.522L949.541 990.607ZM937.935 993.245C935.987 993.656 934.03 994.052 932.065 994.433L932.637 997.379C934.618 996.994 936.59 996.595 938.554 996.181L937.935 993.245ZM926.244 995.516C924.295 995.862 922.339 996.194 920.374 996.511L920.852 999.472C922.832 999.153 924.805 998.818 926.769 998.469L926.244 995.516ZM914.455 997.417C912.5 997.7 910.538 997.968 908.568 998.221L908.95 1001.2C910.936 1000.94 912.914 1000.67 914.885 1000.39L914.455 997.417ZM902.672 998.931C900.7 999.152 898.719 999.359 896.732 999.549L897.018 1002.54C899.022 1002.34 901.018 1002.14 903.007 1001.91L902.672 998.931ZM890.77 1000.07C888.809 1000.23 886.842 1000.37 884.867 1000.5L885.057 1003.49C887.048 1003.36 889.031 1003.22 891.008 1003.06L890.77 1000.07ZM878.922 1000.83C876.933 1000.92 874.938 1001 872.936 1001.06L873.029 1004.06C875.048 1004 877.059 1003.92 879.064 1003.82L878.922 1000.83ZM866.993 1001.2C865.023 1001.23 863.046 1001.24 861.062 1001.24L861.06 1004.24C863.059 1004.24 865.052 1004.23 867.038 1004.2L866.993 1001.2ZM855.093 1001.19C853.097 1001.15 851.095 1001.1 849.086 1001.04L848.987 1004.04C851.012 1004.1 853.031 1004.15 855.043 1004.19L855.093 1001.19ZM843.186 1000.8C841.215 1000.7 839.237 1000.59 837.254 1000.46L837.06 1003.45C839.06 1003.58 841.053 1003.7 843.04 1003.79L843.186 1000.8ZM831.287 1000.03C829.304 999.868 827.316 999.692 825.323 999.5L825.035 1002.49C827.044 1002.68 829.048 1002.86 831.046 1003.02L831.287 1000.03ZM819.447 998.887C817.483 998.667 815.514 998.43 813.539 998.178L813.158 1001.15C815.148 1001.41 817.133 1001.65 819.113 1001.87L819.447 998.887ZM807.599 997.371C805.637 997.09 803.669 996.792 801.697 996.477L801.224 999.44C803.212 999.757 805.195 1000.06 807.172 1000.34L807.599 997.371ZM795.867 995.503C793.919 995.162 791.966 994.805 790.009 994.433L789.447 997.38C791.42 997.755 793.388 998.115 795.35 998.458L795.867 995.503ZM784.122 993.265C782.182 992.865 780.238 992.449 778.289 992.017L777.64 994.946C779.603 995.382 781.562 995.8 783.516 996.203L784.122 993.265ZM772.53 990.697C770.606 990.241 768.678 989.769 766.746 989.281L766.011 992.19C767.958 992.681 769.9 993.157 771.838 993.616L772.53 990.697ZM760.935 987.77C759.018 987.256 757.097 986.727 755.172 986.181L754.354 989.068C756.293 989.617 758.228 990.15 760.159 990.667L760.935 987.77ZM749.507 984.533C747.615 983.969 745.718 983.389 743.819 982.793L742.921 985.655C744.834 986.255 746.743 986.839 748.649 987.408L749.507 984.533ZM738.107 980.958C736.21 980.334 734.309 979.694 732.405 979.038L731.428 981.875C733.346 982.535 735.26 983.179 737.17 983.808L738.107 980.958ZM726.854 977.086C725 976.42 723.143 975.739 721.282 975.043L720.231 977.853C722.104 978.554 723.973 979.239 725.84 979.91L726.854 977.086ZM715.69 972.909C713.823 972.182 711.952 971.44 710.078 970.683L708.954 973.464C710.84 974.227 712.722 974.973 714.602 975.705L715.69 972.909ZM704.612 968.432C702.802 967.674 700.989 966.901 699.174 966.113L697.98 968.865C699.807 969.658 701.631 970.436 703.452 971.199L704.612 968.432ZM693.719 963.706C691.897 962.889 690.073 962.057 688.246 961.21L686.984 963.931C688.822 964.784 690.658 965.621 692.49 966.443L693.719 963.706ZM682.806 958.648C681.045 957.806 679.282 956.95 677.517 956.079L676.191 958.77C677.967 959.646 679.74 960.507 681.511 961.354L682.806 958.648ZM672.212 953.427C670.442 952.528 668.668 951.616 666.893 950.689L665.504 953.349C667.29 954.281 669.074 955.199 670.855 956.102L672.212 953.427ZM661.557 947.865C660.667 947.387 659.776 946.906 658.884 946.421L657.45 949.056C658.347 949.544 659.243 950.028 660.139 950.509L661.557 947.865ZM658.884 946.421C657.996 945.938 657.108 945.456 656.22 944.977L654.794 947.616C655.68 948.095 656.565 948.574 657.45 949.056L658.884 946.421ZM650.89 942.12C649.113 941.174 647.336 940.235 645.558 939.303L644.165 941.961C645.937 942.889 647.709 943.825 649.481 944.768L650.89 942.12ZM640.225 936.529C638.447 935.61 636.669 934.699 634.891 933.794L633.531 936.468C635.303 937.37 637.076 938.279 638.848 939.194L640.225 936.529ZM629.5 931.073C627.696 930.169 625.892 929.273 624.088 928.383L622.761 931.074C624.56 931.961 626.358 932.855 628.156 933.755L629.5 931.073ZM618.676 925.735C616.872 924.859 615.068 923.99 613.264 923.128L611.971 925.835C613.769 926.694 615.567 927.561 617.366 928.434L618.676 925.735ZM607.852 920.563C606.021 919.702 604.191 918.849 602.362 918.002L601.102 920.725C602.926 921.569 604.75 922.419 606.575 923.277L607.852 920.563ZM596.873 915.484C595.044 914.652 593.215 913.827 591.387 913.009L590.161 915.747C591.984 916.563 593.807 917.385 595.631 918.215L596.873 915.484ZM585.902 910.576C584.064 909.767 582.226 908.965 580.389 908.171L579.198 910.925C581.03 911.717 582.862 912.516 584.694 913.322L585.902 910.576ZM574.826 905.787C572.973 905 571.12 904.219 569.268 903.446L568.112 906.215C569.959 906.986 571.806 907.763 573.653 908.548L574.826 905.787ZM563.713 901.149C561.862 900.391 560.012 899.639 558.163 898.895L557.043 901.678C558.886 902.42 560.731 903.169 562.576 903.925L563.713 901.149ZM552.546 896.655C550.669 895.914 548.793 895.18 546.918 894.454L545.834 897.251C547.703 897.975 549.573 898.707 551.444 899.446L552.546 896.655ZM541.296 892.296C539.423 891.584 537.551 890.88 535.68 890.182L534.633 892.994C536.497 893.689 538.363 894.391 540.23 895.1L541.296 892.296ZM530.041 888.102C528.142 887.408 526.244 886.722 524.347 886.043L523.336 888.868C525.227 889.544 527.119 890.228 529.012 890.92L530.041 888.102ZM518.661 884.03C516.767 883.366 514.874 882.71 512.983 882.061L512.009 884.899C513.894 885.546 515.781 886.2 517.669 886.861L518.661 884.03ZM507.313 880.138C505.396 879.494 503.48 878.858 501.565 878.23L500.63 881.08C502.538 881.706 504.447 882.34 506.358 882.982L507.313 880.138ZM495.818 876.365C493.904 875.751 491.992 875.145 490.081 874.547L489.184 877.409C491.088 878.006 492.994 878.61 494.902 879.222L495.818 876.365ZM484.355 872.774C482.429 872.185 480.506 871.603 478.584 871.03L477.726 873.904C479.641 874.476 481.558 875.055 483.477 875.643L484.355 872.774ZM472.779 869.319C470.847 868.757 468.916 868.202 466.987 867.656L466.169 870.542C468.091 871.087 470.015 871.639 471.941 872.2L472.779 869.319ZM461.208 866.039C459.274 865.505 457.343 864.979 455.413 864.461L454.635 867.358C456.558 867.875 458.483 868.399 460.41 868.931L461.208 866.039ZM449.555 862.91C447.605 862.401 445.658 861.9 443.713 861.407L442.976 864.316C444.914 864.807 446.855 865.306 448.798 865.813L449.555 862.91ZM437.885 859.953C435.943 859.475 434.002 859.006 432.065 858.544L431.369 861.462C433.3 861.922 435.233 862.39 437.169 862.866L437.885 859.953ZM426.158 857.159C424.192 856.706 422.229 856.261 420.27 855.824L419.617 858.752C421.57 859.187 423.525 859.631 425.484 860.083L426.158 857.159ZM414.399 854.538C412.446 854.118 410.495 853.705 408.548 853.301L407.938 856.239C409.878 856.641 411.822 857.052 413.768 857.471L414.399 854.538ZM402.601 852.091C400.621 851.695 398.645 851.309 396.672 850.93L396.107 853.877C398.072 854.253 400.041 854.639 402.014 855.033L402.601 852.091ZM390.764 849.82C388.798 849.459 386.836 849.106 384.878 848.761L384.358 851.716C386.309 852.059 388.263 852.411 390.221 852.771L390.764 849.82ZM378.898 847.732C376.907 847.398 374.919 847.072 372.935 846.755L372.461 849.717C374.437 850.033 376.417 850.358 378.401 850.691L378.898 847.732ZM366.996 845.829C365.021 845.529 363.05 845.238 361.083 844.955L360.656 847.925C362.615 848.206 364.578 848.496 366.546 848.795L366.996 845.829ZM355.066 844.116C353.065 843.845 351.068 843.583 349.076 843.33L348.698 846.307C350.682 846.558 352.671 846.819 354.664 847.089L355.066 844.116ZM343.114 842.598C341.126 842.363 339.143 842.136 337.164 841.918L336.836 844.9C338.806 845.117 340.781 845.343 342.761 845.578L343.114 842.598ZM331.124 841.279C329.116 841.075 327.113 840.881 325.116 840.696L324.839 843.683C326.828 843.867 328.822 844.061 330.821 844.264L331.124 841.279ZM319.14 840.168C317.137 840 315.139 839.841 313.147 839.692L312.922 842.683C314.906 842.832 316.894 842.99 318.889 843.157L319.14 840.168ZM307.095 839.265C305.083 839.132 303.078 839.009 301.079 838.896L300.909 841.891C302.899 842.004 304.895 842.126 306.897 842.258L307.095 839.265ZM295.1 838.584C293.079 838.488 291.066 838.402 289.059 838.325L288.944 841.323C290.942 841.399 292.946 841.485 294.957 841.581L295.1 838.584ZM283.006 838.124C280.996 838.067 278.992 838.02 276.995 837.982L276.939 840.982C278.926 841.019 280.92 841.066 282.921 841.123L283.006 838.124ZM271.016 837.9C268.98 837.882 266.952 837.875 264.932 837.877L264.936 840.877C266.946 840.875 268.964 840.882 270.989 840.9L271.016 837.9ZM258.894 837.916C256.89 837.94 254.893 837.974 252.904 838.018L252.97 841.017C254.949 840.973 256.935 840.94 258.929 840.916L258.894 837.916ZM246.867 838.183C244.839 838.25 242.82 838.327 240.809 838.415L240.941 841.412C242.94 841.325 244.949 841.248 246.966 841.182L246.867 838.183ZM234.805 838.712C232.802 838.822 230.809 838.943 228.825 839.075L229.024 842.068C230.996 841.937 232.978 841.817 234.969 841.708L234.805 838.712ZM222.756 839.514C220.743 839.671 218.74 839.84 216.746 840.02L217.016 843.008C218.997 842.829 220.989 842.661 222.99 842.505L222.756 839.514ZM210.796 840.594C208.771 840.801 206.757 841.021 204.753 841.252L205.097 844.232C207.088 844.002 209.09 843.784 211.103 843.578L210.796 840.594ZM198.75 841.984C196.76 842.239 194.782 842.507 192.814 842.786L193.236 845.756C195.19 845.479 197.156 845.213 199.132 844.959L198.75 841.984ZM186.825 843.677C184.819 843.99 182.825 844.315 180.844 844.652L181.348 847.609C183.315 847.275 185.295 846.952 187.287 846.641L186.825 843.677ZM174.939 845.701C172.947 846.07 170.969 846.451 169.005 846.845L169.594 849.786C171.544 849.395 173.508 849.017 175.484 848.651L174.939 845.701ZM163.065 848.083C161.099 848.509 159.147 848.948 157.209 849.4L157.891 852.321C159.813 851.873 161.749 851.438 163.7 851.015L163.065 848.083ZM151.334 850.82C149.361 851.315 147.402 851.823 145.46 852.345L146.238 855.242C148.164 854.725 150.106 854.221 152.063 853.73L151.334 850.82ZM139.68 853.951C137.727 854.513 135.791 855.089 133.872 855.678L134.753 858.546C136.655 857.962 138.573 857.391 140.509 856.835L139.68 853.951ZM128.093 857.514C126.185 858.14 124.294 858.781 122.422 859.436L123.413 862.268C125.267 861.619 127.139 860.985 129.029 860.364L128.093 857.514ZM116.696 861.506C114.794 862.215 112.913 862.94 111.051 863.68L112.16 866.468C114.001 865.736 115.863 865.019 117.744 864.317L116.696 861.506ZM105.506 865.955C103.618 866.754 101.753 867.569 99.9097 868.401L101.143 871.135C102.965 870.314 104.809 869.508 106.675 868.718L105.506 865.955ZM94.4474 870.943C92.6168 871.822 90.8095 872.718 89.0261 873.631L90.3927 876.301C92.1533 875.401 93.938 874.516 95.7463 873.647L94.4474 870.943ZM83.6538 876.47C81.8879 877.433 80.1472 878.413 78.432 879.411L79.9402 882.004C81.6315 881.021 83.3484 880.054 85.0906 879.103L83.6538 876.47ZM73.1902 882.562C71.469 883.632 69.7755 884.719 68.1102 885.825L69.7697 888.324C71.4094 887.235 73.0775 886.164 74.7735 885.11L73.1902 882.562ZM63.1115 889.259C61.4496 890.44 59.8183 891.64 58.2182 892.86L60.0367 895.246C61.6098 894.047 63.2142 892.866 64.8495 891.704L63.1115 889.259ZM53.4859 896.597C51.9008 897.894 50.3495 899.211 48.8325 900.549L50.8163 902.799C52.3054 901.486 53.8287 900.193 55.3859 898.918L53.4859 896.597ZM44.3849 904.62C42.9014 906.031 41.4544 907.464 40.0446 908.916L42.1975 911.005C43.579 909.582 44.9975 908.178 46.4525 906.794L44.3849 904.62ZM35.9166 913.349C34.5583 914.869 33.2393 916.411 31.9601 917.974L34.2818 919.874C35.5332 918.345 36.8242 916.836 38.1541 915.347L35.9166 913.349ZM28.2172 922.761C27.6139 923.569 27.0209 924.383 26.4383 925.202L28.8826 926.941C29.452 926.141 30.0316 925.346 30.6214 924.555L28.2172 922.761Z" fill="black"/>
</svg>
