<svg width="179" height="40" viewBox="0 0 179 40" fill="none" xmlns="http://www.w3.org/2000/svg">
<path d="M30.0739 0.977539C30.4698 0.977539 30.8647 1.01498 31.2547 1.0833C31.8505 1.18769 32.4474 1.28825 33.0335 1.43497C38.9343 2.8832 43.3459 7.91952 44.0255 13.9622C44.4635 17.7626 43.3985 21.5836 41.0579 24.6092C38.7173 27.6349 35.2866 29.6252 31.4987 30.1553C30.8801 30.24 30.256 30.2773 29.6318 30.2669C29.2467 30.2669 29.0372 30.3831 28.846 30.7179C27.2435 33.5302 25.6217 36.3324 24.0054 39.1347C23.9324 39.261 23.7383 39.207 23.7383 39.061V26.1893C23.7383 25.9311 23.9476 25.7218 24.2057 25.7218C26.0028 25.7218 27.8017 25.7218 29.6025 25.7218C34.5281 25.7145 38.9169 21.7989 39.4694 16.9199C40.0959 11.3795 36.4508 6.55912 30.9425 5.65981C30.461 5.58509 29.9745 5.54778 29.4872 5.5482C28.3315 5.54097 27.1757 5.54084 26.0077 5.54184C24.7468 5.54293 23.7246 4.52147 23.7246 3.26058C23.7246 1.99969 24.7468 0.977539 26.0076 0.977539H30.0739Z" fill="#E2504B"/>
<path d="M18.1456 0.977539C19.4066 0.977539 20.4287 1.99972 20.4287 3.26063C20.4287 4.52155 19.4066 5.54373 18.1456 5.54373H14.6936C9.50629 5.54373 5.04987 9.56191 4.61264 14.6313C4.15529 19.923 7.66042 24.5862 12.8294 25.5431C13.428 25.6522 14.0348 25.7094 14.6433 25.7142C15.5174 25.7243 16.3915 25.7268 17.2695 25.7267C18.9936 25.7263 20.3912 27.1201 20.3912 28.8442V30.1573C20.3912 30.1955 20.3854 30.2598 20.3473 30.2566C17.4761 30.2026 14.5847 30.5466 11.7354 29.994C5.65906 28.8157 0.902609 23.7143 0.122369 17.5681C-0.878314 9.72293 4.35927 2.58408 12.1379 1.19162C12.4167 1.14191 12.6966 1.09862 12.9764 1.05573C13.3121 1.00428 13.6513 0.977539 13.991 0.977539H18.1456Z" fill="#E2504B"/>
<path d="M178.957 10.1056C178.346 11.5696 177.726 13.039 177.128 14.5111C174.673 20.5218 172.218 26.5324 169.762 32.543C169.702 32.6894 169.511 32.8807 169.379 32.8825C167.811 32.9063 166.242 32.898 164.61 32.898C164.666 32.7379 164.702 32.6153 164.75 32.4991C165.601 30.4707 166.447 28.4404 167.312 26.4174C167.37 26.2979 167.401 26.1662 167.4 26.0329C167.399 25.8997 167.367 25.7685 167.306 25.6498C165.041 20.612 162.783 15.5713 160.532 10.5274C160.466 10.3783 160.406 10.2264 160.322 10.0233C161.708 10.0233 163.03 10.0233 164.352 10.0233C164.761 10.0233 165.267 9.89978 165.553 10.0928C165.838 10.2859 165.909 10.8019 166.061 11.1807C167.251 14.1696 168.441 17.1584 169.628 20.1473C169.671 20.2534 169.72 20.3577 169.803 20.5535C170.169 19.5635 170.501 18.6568 170.833 17.7492C171.731 15.3007 172.635 12.8532 173.519 10.3993C173.625 10.1038 173.76 10.0123 174.067 10.0151C175.697 10.0297 177.327 10.0151 178.957 10.0151V10.1056Z" fill="white"/>
<path d="M63.4122 11.8095V4.09375H67.9409V4.59788C67.9409 11.8662 67.9448 19.1351 67.9527 26.4046C67.9527 26.885 67.8119 26.9875 67.3628 26.9756C66.2212 26.9445 65.076 26.9646 63.9354 26.9646H63.4085V25.4092C62.69 26.1288 61.803 26.6572 60.8281 26.9463C56.54 28.2501 51.1597 26.3424 50.1463 20.4337C49.7721 18.2488 49.9944 16.1271 51.0353 14.1462C52.4367 11.4801 54.7234 10.1534 57.6871 9.94298C59.1808 9.83685 60.6406 10.0134 61.9624 10.7847C62.4545 11.0674 62.8963 11.4398 63.4122 11.8095ZM59.071 23.2765C61.88 23.2765 63.5878 21.5243 63.5887 18.6468C63.5887 15.7876 61.8078 13.9303 59.0637 13.9303C56.2546 13.9303 54.4993 15.7428 54.5011 18.6432C54.503 21.4228 56.3324 23.2783 59.071 23.2765Z" fill="white"/>
<path d="M119.439 11.6784V10.3272H123.95V32.2705H119.454V25.3077C118.631 26.1749 117.739 26.7293 116.699 27.0083C112.265 28.1976 107.177 26.1475 106.187 20.4956C105.72 17.8325 106.105 15.3121 107.722 13.0854C109.195 11.0563 111.269 10.103 113.734 9.94384C114.96 9.86425 116.178 9.95757 117.302 10.4873C118.038 10.8285 118.724 11.2731 119.439 11.6784ZM119.622 18.2652C119.581 16.8015 119.037 15.2344 117.295 14.4375C115.554 13.6407 113.79 13.6956 112.203 14.884C110.616 16.0724 110.065 18.4729 110.819 20.5185C111.758 23.0672 114.331 23.7607 116.604 23.0974C118.494 22.5476 119.626 20.8231 119.626 18.2661L119.622 18.2652Z" fill="white"/>
<path d="M78.1857 9.91113C82.4921 9.99346 86.1024 12.7351 87.1077 16.762C87.9931 20.3022 86.3256 24.0803 83.0025 26.0599C78.8635 28.5298 73.3597 27.3735 70.6888 23.5067C67.2788 18.5669 69.8152 11.9227 75.7663 10.3072C76.5484 10.0941 77.378 10.0392 78.1857 9.91113ZM78.1976 13.992C75.6364 14.0011 73.6186 16.0841 73.6433 18.6922C73.6698 21.4045 75.6099 23.3768 78.2433 23.3686C80.8173 23.3603 82.8003 21.2829 82.7811 18.6117C82.7683 16.0118 80.7505 13.9829 78.1948 13.992H78.1976Z" fill="white"/>
<path d="M125.851 10.3613C127.354 10.3613 128.786 10.3613 130.216 10.3613C130.304 10.3697 130.392 10.3847 130.478 10.4062V10.9551C130.483 14.1489 130.471 17.3437 130.503 20.5375C130.52 22.3234 131.494 23.3106 133.313 23.4935C134.931 23.6573 136.391 22.6189 136.712 21.038C136.818 20.5019 136.873 19.9569 136.874 19.4104C136.89 16.5962 136.882 13.7821 136.882 10.9679V10.3924H141.426C141.433 10.5489 141.448 10.7081 141.448 10.8682C141.448 16.0525 141.451 21.2396 141.456 26.4294C141.456 26.8264 141.382 26.9884 140.937 26.9783C139.747 26.9454 138.558 26.9664 137.369 26.9664H136.878V25.6353C136.755 25.7149 136.695 25.7478 136.639 25.7908C134.273 27.7047 131.668 27.7486 129.001 26.6252C127.165 25.8512 126.367 24.2218 126.044 22.3554C125.919 21.5759 125.858 20.7873 125.861 19.9978C125.841 16.9704 125.853 13.9431 125.853 10.9157L125.851 10.3613Z" fill="white"/>
<path d="M105.453 22.4599C104.272 24.8474 102.526 26.4982 99.9207 27.0921C96.883 27.7848 94.041 27.3547 91.553 25.3864C86.8021 21.6272 87.243 14.5883 92.4074 11.4028C96.8117 8.69049 102.461 9.97802 105.221 14.3256C105.326 14.4894 105.415 14.6633 105.541 14.882L101.471 16.4825C101.137 16.0844 100.848 15.6717 100.492 15.3277C99.0646 13.9486 97.3824 13.6805 95.5585 14.3494C93.9404 14.9433 92.8958 16.6253 92.8144 18.4198C92.6937 21.0305 94.3154 22.6392 95.8814 23.1407C96.8649 23.467 97.9279 23.4632 98.909 23.1297C99.89 22.7962 100.735 22.1513 101.317 21.2931C101.505 21.0186 101.649 20.9399 101.971 21.0735C103.108 21.5457 104.256 21.9859 105.453 22.4599Z" fill="white"/>
<path d="M156.312 14.0111C156.312 15.8496 156.307 17.5966 156.312 19.3426C156.312 20.1168 156.307 20.8984 156.371 21.6652C156.483 23.0022 157.003 23.4552 158.333 23.4625C158.71 23.4625 159.085 23.4625 159.485 23.4625V27.2942C158.791 27.3244 158.098 27.3958 157.408 27.3738C156.527 27.3591 155.649 27.2882 154.777 27.1615C152.88 26.8595 151.818 25.5783 151.811 23.6565C151.8 20.6311 151.811 17.6048 151.811 14.5785V14.0358H149.809V10.0413H151.794V5.5791H156.3V10.0037H159.634V14.0111H156.312Z" fill="white"/>
<path d="M143.344 10.3252H147.87V26.9258H143.344V10.3252Z" fill="white"/>
<path d="M143.037 6.09727C143.039 5.59209 143.192 5.09893 143.474 4.68034C143.757 4.26174 144.158 3.93655 144.625 3.74601C145.093 3.55547 145.607 3.50815 146.102 3.61005C146.596 3.71195 147.05 3.95849 147.404 4.31841C147.759 4.67832 147.998 5.1354 148.093 5.63169C148.187 6.12798 148.132 6.64112 147.934 7.10607C147.737 7.57102 147.406 7.96682 146.983 8.24329C146.56 8.51977 146.065 8.66446 145.56 8.65903C145.226 8.65664 144.896 8.58846 144.588 8.4584C144.281 8.32834 144.002 8.13895 143.768 7.90104C143.534 7.66313 143.348 7.38138 143.223 7.07188C143.098 6.76238 143.035 6.4312 143.037 6.09727Z" fill="#E2504B"/>
</svg>
