<svg width="56" height="56" viewBox="0 0 56 56" fill="none" xmlns="http://www.w3.org/2000/svg">
<path d="M36.6552 42.6402H20.0202C19.145 42.6402 18.3056 42.2926 17.6867 41.6737C17.0679 41.0548 16.7202 40.2154 16.7202 39.3402V16.5552C16.7202 15.6786 17.0674 14.8377 17.6858 14.2165C18.3043 13.5952 19.1436 13.2442 20.0202 13.2402H36.6552C37.5318 13.2442 38.3711 13.5952 38.9895 14.2165C39.608 14.8377 39.9552 15.6786 39.9552 16.5552V39.3402C39.9552 40.2154 39.6075 41.0548 38.9886 41.6737C38.3698 42.2926 37.5304 42.6402 36.6552 42.6402ZM20.0202 15.0402C19.6224 15.0402 19.2409 15.1983 18.9595 15.4796C18.6782 15.7609 18.5202 16.1424 18.5202 16.5402V39.3402C18.5202 39.7381 18.6782 40.1196 18.9595 40.4009C19.2409 40.6822 19.6224 40.8402 20.0202 40.8402H36.6552C37.053 40.8402 37.4346 40.6822 37.7159 40.4009C37.9972 40.1196 38.1552 39.7381 38.1552 39.3402V16.5552C38.1552 16.1574 37.9972 15.7759 37.7159 15.4946C37.4346 15.2133 37.053 15.0552 36.6552 15.0552L20.0202 15.0402Z" fill="#1B4A52"/>
<path d="M26.095 24.325H20.59C20.3513 24.325 20.1224 24.2302 19.9536 24.0614C19.7848 23.8926 19.6899 23.6637 19.6899 23.425V17.92C19.6899 17.6813 19.7848 17.4524 19.9536 17.2836C20.1224 17.1148 20.3513 17.02 20.59 17.02H26.095C26.3337 17.02 26.5626 17.1148 26.7314 17.2836C26.9001 17.4524 26.9949 17.6813 26.9949 17.92V23.5C26.9761 23.7255 26.873 23.9356 26.7062 24.0885C26.5394 24.2413 26.3212 24.3258 26.095 24.325ZM21.49 22.525H25.195V18.82H21.49V22.525Z" fill="#FF6961"/>
<path d="M35.7402 19.8698H30.8502C30.6115 19.8698 30.3826 19.775 30.2138 19.6062C30.045 19.4374 29.9502 19.2085 29.9502 18.9698C29.9502 18.7311 30.045 18.5022 30.2138 18.3334C30.3826 18.1646 30.6115 18.0698 30.8502 18.0698H35.7402C35.9789 18.0698 36.2078 18.1646 36.3766 18.3334C36.5454 18.5022 36.6402 18.7311 36.6402 18.9698C36.6402 19.2085 36.5454 19.4374 36.3766 19.6062C36.2078 19.775 35.9789 19.8698 35.7402 19.8698Z" fill="#FF6961"/>
<path d="M35.7402 23.7102H30.8502C30.6115 23.7102 30.3826 23.6153 30.2138 23.4466C30.045 23.2778 29.9502 23.0489 29.9502 22.8102C29.9502 22.5715 30.045 22.3425 30.2138 22.1738C30.3826 22.005 30.6115 21.9102 30.8502 21.9102H35.7402C35.9789 21.9102 36.2078 22.005 36.3766 22.1738C36.5454 22.3425 36.6402 22.5715 36.6402 22.8102C36.6402 23.0489 36.5454 23.2778 36.3766 23.4466C36.2078 23.6153 35.9789 23.7102 35.7402 23.7102Z" fill="#FF6961"/>
<path d="M35.74 29.2751H20.59C20.3513 29.2751 20.1224 29.1803 19.9536 29.0115C19.7848 28.8427 19.6899 28.6138 19.6899 28.3751C19.6899 28.1364 19.7848 27.9075 19.9536 27.7387C20.1224 27.5699 20.3513 27.4751 20.59 27.4751H35.74C35.9787 27.4751 36.2076 27.5699 36.3763 27.7387C36.5451 27.9075 36.64 28.1364 36.64 28.3751C36.64 28.6138 36.5451 28.8427 36.3763 29.0115C36.2076 29.1803 35.9787 29.2751 35.74 29.2751Z" fill="#1B4A52"/>
<path d="M35.74 33.1149H20.59C20.3513 33.1149 20.1224 33.0201 19.9536 32.8513C19.7848 32.6826 19.6899 32.4536 19.6899 32.2149C19.6899 31.9762 19.7848 31.7473 19.9536 31.5785C20.1224 31.4098 20.3513 31.3149 20.59 31.3149H35.74C35.9787 31.3149 36.2076 31.4098 36.3763 31.5785C36.5451 31.7473 36.64 31.9762 36.64 32.2149C36.64 32.4536 36.5451 32.6826 36.3763 32.8513C36.2076 33.0201 35.9787 33.1149 35.74 33.1149Z" fill="#1B4A52"/>
<path d="M35.74 37.0002H20.59C20.3513 37.0002 20.1224 36.9054 19.9536 36.7366C19.7848 36.5678 19.6899 36.3389 19.6899 36.1002C19.6899 35.8615 19.7848 35.6326 19.9536 35.4638C20.1224 35.295 20.3513 35.2002 20.59 35.2002H35.74C35.8581 35.2002 35.9752 35.2235 36.0844 35.2687C36.1936 35.3139 36.2928 35.3802 36.3763 35.4638C36.4599 35.5474 36.5262 35.6466 36.5714 35.7558C36.6167 35.865 36.64 35.982 36.64 36.1002C36.64 36.2184 36.6167 36.3354 36.5714 36.4446C36.5262 36.5538 36.4599 36.653 36.3763 36.7366C36.2928 36.8202 36.1936 36.8865 36.0844 36.9317C35.9752 36.9769 35.8581 37.0002 35.74 37.0002Z" fill="#1B4A52"/>
<circle opacity="0.1" cx="28" cy="28" r="28" fill="#1B4A52"/>
</svg>
