<svg width="56" height="56" viewBox="0 0 56 56" fill="none" xmlns="http://www.w3.org/2000/svg">
<path d="M34.8552 23.9598C34.6165 23.9598 34.3875 23.865 34.2187 23.6962C34.05 23.5274 33.9552 23.2985 33.9552 23.0598V16.1448H27.5952L28.6752 17.3448C28.8228 17.5098 28.9043 17.7234 28.9043 17.9448C28.9043 18.1662 28.8228 18.3798 28.6752 18.5448L27.6101 19.7298H31.3152C31.5538 19.7298 31.7828 19.8246 31.9516 19.9934C32.1204 20.1622 32.2152 20.3911 32.2152 20.6298C32.2152 20.8685 32.1204 21.0974 31.9516 21.2662C31.7828 21.435 31.5538 21.5298 31.3152 21.5298H25.5852C25.4111 21.5306 25.2405 21.4809 25.0941 21.3867C24.9476 21.2925 24.8317 21.1579 24.7602 20.9991C24.6888 20.8404 24.6649 20.6643 24.6915 20.4922C24.7181 20.3202 24.7941 20.1595 24.9102 20.0298L26.8002 17.9448L24.9102 15.8598C24.793 15.7295 24.7163 15.5679 24.6897 15.3947C24.663 15.2215 24.6875 15.0443 24.7602 14.8848C24.8286 14.7231 24.9436 14.5854 25.0905 14.4892C25.2374 14.3931 25.4096 14.3428 25.5852 14.3448H34.8701C34.9883 14.3448 35.1054 14.3681 35.2146 14.4133C35.3238 14.4585 35.423 14.5248 35.5066 14.6084C35.5901 14.692 35.6564 14.7912 35.7017 14.9004C35.7469 15.0096 35.7702 15.1266 35.7702 15.2448V22.9998C35.7785 23.1242 35.7609 23.249 35.7185 23.3662C35.676 23.4835 35.6097 23.5906 35.5236 23.6809C35.4376 23.7711 35.3338 23.8425 35.2187 23.8906C35.1036 23.9386 34.9798 23.9621 34.8552 23.9598Z" fill="#FF6961"/>
<path d="M34.1051 43.8648C33.9702 43.8672 33.8366 43.8386 33.7144 43.7815C33.5922 43.7243 33.4847 43.6399 33.4001 43.5348L21.4001 28.6848L14.8901 36.4998C14.8161 36.5915 14.7244 36.6676 14.6206 36.7234C14.5167 36.7792 14.4028 36.8138 14.2854 36.8249C14.168 36.8361 14.0496 36.8237 13.937 36.7885C13.8245 36.7533 13.7202 36.6959 13.6301 36.6198C13.5379 36.5444 13.4616 36.4514 13.4055 36.3463C13.3495 36.2412 13.3149 36.126 13.3038 36.0074C13.2926 35.8888 13.3051 35.7691 13.3405 35.6554C13.3759 35.5416 13.4336 35.4361 13.5101 35.3448L20.7251 26.7348C20.8108 26.6347 20.9164 26.5537 21.0353 26.4969C21.1541 26.44 21.2834 26.4087 21.4151 26.4048C21.5487 26.4065 21.6802 26.4384 21.7997 26.4981C21.9192 26.5579 22.0236 26.6439 22.1051 26.7498L34.7951 42.4548C34.8704 42.5458 34.9267 42.6509 34.9607 42.764C34.9948 42.8771 35.0058 42.9958 34.9932 43.1132C34.9807 43.2307 34.9447 43.3444 34.8875 43.4477C34.8303 43.551 34.753 43.6418 34.6601 43.7148C34.4975 43.8262 34.3018 43.8791 34.1051 43.8648Z" fill="#1B4A52"/>
<path d="M26.3649 33.4998C26.1445 33.4982 25.9319 33.4185 25.7649 33.2748C25.6759 33.1962 25.6032 33.1008 25.5513 32.9941C25.4993 32.8873 25.469 32.7714 25.462 32.6529C25.455 32.5344 25.4716 32.4156 25.5107 32.3036C25.5498 32.1915 25.6107 32.0882 25.6898 31.9998L34.1798 22.4898C34.2643 22.394 34.3682 22.3173 34.4846 22.2648C34.601 22.2122 34.7272 22.1851 34.8549 22.1851C34.9825 22.1851 35.1088 22.2122 35.2251 22.2648C35.3415 22.3173 35.4454 22.394 35.5298 22.4898L42.5198 30.6498C42.6613 30.8324 42.7272 31.0624 42.7039 31.2922C42.6805 31.522 42.5696 31.7341 42.3942 31.8844C42.2188 32.0347 41.9923 32.1119 41.7616 32.0999C41.5309 32.0878 41.3136 31.9875 41.1548 31.8198L34.8398 24.4998L27.0398 33.2448C26.9505 33.3308 26.8446 33.3978 26.7285 33.4416C26.6125 33.4854 26.4888 33.5052 26.3649 33.4998Z" fill="#1B4A52"/>
<circle opacity="0.1" cx="28" cy="28" r="28" fill="#1B4A52"/>
</svg>
