<svg width="56" height="56" viewBox="0 0 56 56" fill="none" xmlns="http://www.w3.org/2000/svg">
<circle opacity="0.1" cx="28" cy="28" r="28" fill="#E2504B"/>
<path d="M24.4098 16.019C23.2951 15.9839 22.1794 16.0081 21.0674 16.0916C19.917 16.2933 18.8487 16.819 17.9888 17.6063C17.1289 18.3937 16.5133 19.4099 16.215 20.5346C15.9991 21.3592 15.9847 21.8427 16.0087 28.2426C16.0231 34.1198 16.0289 34.2565 16.1258 34.7142C16.3672 35.8844 16.9472 36.9587 17.7943 37.8045C18.6414 38.6504 19.7185 39.2309 20.8928 39.4744C22.0184 39.5974 23.1521 39.6319 24.2831 39.5776C27.0269 39.5967 27.3118 39.5919 27.3857 39.5184C27.4596 39.4448 27.4644 38.5036 27.4644 27.8222C27.4644 19.904 27.45 16.1738 27.4154 16.1059C27.3809 16.0381 27.3089 16.0171 25.5879 16.0171L24.4098 16.019Z" fill="#E2504B"/>
<path d="M29.8489 16.0481C29.8288 16.0625 29.8144 21.3549 29.8144 27.8074C29.8144 38.4544 29.8192 39.5341 29.893 39.5628C30.0254 39.6125 33.8283 39.5915 34.2993 39.5437C35.2867 39.4277 36.2308 39.0737 37.0499 38.5125C37.869 37.9512 38.5384 37.1996 39.0002 36.3227C39.1407 36.0457 39.2634 35.7601 39.3676 35.4676C39.6765 34.5503 39.666 34.7987 39.666 27.7787C39.666 22.1795 39.6564 21.3444 39.5873 20.989C39.3644 19.7596 38.7655 18.6288 37.8724 17.7516C36.9794 16.8743 35.836 16.2933 34.5987 16.0883C33.7421 16.0055 32.8808 15.981 32.0209 16.0147C30.8438 16.0137 29.8633 16.0281 29.8489 16.0481Z" fill="#E2504B"/>
</svg>
