<svg width="56" height="56" viewBox="0 0 56 56" fill="none" xmlns="http://www.w3.org/2000/svg">
<g filter="url(#filter0_d_4746_34054)">
<path d="M37.7801 23.1999C38.4097 23.1999 38.9201 22.6895 38.9201 22.0599C38.9201 21.4303 38.4097 20.9199 37.7801 20.9199C37.1505 20.9199 36.6401 21.4303 36.6401 22.0599C36.6401 22.6895 37.1505 23.1999 37.7801 23.1999Z" fill="#FF6961"/>
<path d="M34.66 23.1999C35.2896 23.1999 35.8 22.6895 35.8 22.0599C35.8 21.4303 35.2896 20.9199 34.66 20.9199C34.0304 20.9199 33.52 21.4303 33.52 22.0599C33.52 22.6895 34.0304 23.1999 34.66 23.1999Z" fill="#FF6961"/>
<path d="M31.5399 23.1999C32.1695 23.1999 32.6799 22.6895 32.6799 22.0599C32.6799 21.4303 32.1695 20.9199 31.5399 20.9199C30.9103 20.9199 30.3999 21.4303 30.3999 22.0599C30.3999 22.6895 30.9103 23.1999 31.5399 23.1999Z" fill="#FF6961"/>
<path d="M41.8002 33.9998C41.6602 34.0002 41.5219 33.9694 41.3952 33.9098L34.4652 30.3998C33.8513 30.4524 33.2341 30.4524 32.6202 30.3998C32.5019 30.3922 32.3863 30.3613 32.28 30.3088C32.1737 30.2564 32.0788 30.1835 32.0007 30.0943C31.9227 30.0051 31.863 29.9014 31.8252 29.7891C31.7873 29.6767 31.772 29.558 31.7802 29.4398C31.8096 29.2065 31.9236 28.9921 32.1005 28.8373C32.2775 28.6825 32.5051 28.598 32.7402 28.5998C33.3283 28.6678 33.9222 28.6678 34.5102 28.5998C34.69 28.5842 34.8709 28.6152 35.0352 28.6898L38.3052 30.3548L37.1802 29.0198C37.0974 28.9152 37.0373 28.7945 37.0037 28.6653C36.9701 28.5362 36.9638 28.4015 36.9852 28.2698C37.0075 28.1395 37.0598 28.0161 37.1379 27.9094C37.216 27.8027 37.3178 27.7155 37.4352 27.6548C38.4504 27.1365 39.3076 26.3548 39.9172 25.3916C40.5267 24.4285 40.8663 23.3192 40.9002 22.1798C40.9002 18.5948 37.5252 15.6848 33.4002 15.6848C31.868 15.6272 30.355 16.0407 29.0649 16.8694C27.7749 17.6981 26.7699 18.9023 26.1852 20.3198C26.0935 20.5253 25.928 20.689 25.7216 20.7786C25.5151 20.8682 25.2825 20.8771 25.0697 20.8037C24.857 20.7303 24.6795 20.5798 24.5722 20.3819C24.4649 20.184 24.4357 19.9532 24.4902 19.7348C25.1838 17.955 26.4144 16.4354 28.0111 15.3871C29.6078 14.3387 31.4914 13.8136 33.4002 13.8848C38.5452 13.8848 42.7302 17.6048 42.7302 22.1798C42.7138 23.458 42.3888 24.7134 41.7829 25.839C41.177 26.9646 40.3081 27.9272 39.2502 28.6448L42.5202 32.5598C42.6372 32.6905 42.7134 32.8526 42.7396 33.026C42.7657 33.1995 42.7405 33.3768 42.6672 33.5361C42.5939 33.6955 42.4756 33.8299 42.3269 33.923C42.1782 34.016 42.0056 34.0636 41.8302 34.0598L41.8002 33.9998Z" fill="#FF6961"/>
<path d="M14.1098 41.1851C13.9735 41.1869 13.8387 41.1565 13.7162 41.0966C13.5938 41.0367 13.4871 40.9488 13.4048 40.8401C13.2716 40.6829 13.1985 40.4836 13.1985 40.2776C13.1985 40.0716 13.2716 39.8723 13.4048 39.7151L17.0648 35.3201C15.8912 34.5416 14.9252 33.4884 14.2508 32.252C13.5764 31.0156 13.2139 29.6333 13.1948 28.2251C13.1948 23.2301 17.6948 19.2251 23.3798 19.2251C29.0648 19.2251 33.5648 23.2901 33.5648 28.2251C33.5648 33.1601 28.9898 37.2251 23.3798 37.2251C22.9752 37.2485 22.5695 37.2485 22.1648 37.2251L14.4998 41.0951C14.3773 41.1513 14.2446 41.182 14.1098 41.1851ZM23.3948 20.9501C18.7598 20.9501 15.0098 24.2201 15.0098 28.2251C15.044 29.4953 15.4201 30.7328 16.0986 31.8072C16.777 32.8817 17.7326 33.7532 18.8648 34.3301C18.9823 34.3908 19.0841 34.478 19.1621 34.5847C19.2402 34.6914 19.2925 34.8148 19.3148 34.9451C19.3362 35.0768 19.3299 35.2115 19.2964 35.3406C19.2628 35.4698 19.2026 35.5905 19.1198 35.6951L17.6198 37.5101L21.6098 35.5001C21.7692 35.4106 21.9547 35.3788 22.1348 35.4101C22.5528 35.4635 22.9735 35.4936 23.3948 35.5001C28.0148 35.5001 31.7798 32.2451 31.7798 28.2401C31.7798 24.2351 27.9998 20.9501 23.3948 20.9501Z" fill="#1B4A52"/>
<path d="M22.3299 30.3399C22.3287 30.0277 22.3588 29.7161 22.4199 29.4099C22.4841 29.1163 22.5902 28.8334 22.7349 28.5699C22.8426 28.3536 22.9844 28.1561 23.1549 27.9849C23.3147 27.8284 23.4851 27.683 23.6649 27.5499C23.8954 27.3673 24.1111 27.1666 24.3099 26.9499C24.4744 26.7718 24.6019 26.5627 24.6849 26.3349C24.7462 26.1152 24.7765 25.888 24.7749 25.6599C24.7904 25.5153 24.7904 25.3695 24.7749 25.2249C24.7395 25.0987 24.6782 24.9812 24.5949 24.8799C24.4687 24.7141 24.2966 24.5889 24.0999 24.5199C23.8883 24.4427 23.6651 24.4021 23.4399 24.3999C23.2556 24.377 23.0692 24.377 22.8849 24.3999C22.7298 24.4535 22.5832 24.5293 22.4499 24.6249C22.3115 24.7364 22.2032 24.8808 22.1349 25.0449C22.072 25.2179 22.0415 25.4009 22.0449 25.5849H20.2749C20.3217 25.1312 20.4487 24.6893 20.6499 24.2799C20.8455 23.9035 21.1283 23.5795 21.4749 23.3349C21.7463 23.1369 22.0512 22.9896 22.3749 22.8999C22.7 22.7979 23.0391 22.7472 23.3799 22.7499C23.8904 22.7367 24.399 22.8181 24.8799 22.9899C25.3251 23.1387 25.7199 23.4088 26.0199 23.7699C26.2284 24.0137 26.391 24.2932 26.4999 24.5949C26.6068 24.8986 26.6625 25.218 26.6649 25.5399C26.6708 25.9944 26.5625 26.4431 26.3499 26.8449C26.1436 27.2492 25.8754 27.6186 25.5549 27.9399C25.4264 28.091 25.2859 28.2314 25.1349 28.3599L24.7599 28.7199C24.6489 28.8263 24.553 28.9474 24.4749 29.0799C24.3718 29.2522 24.2959 29.4394 24.2499 29.6349C24.2394 29.8448 24.2394 30.055 24.2499 30.2649L22.3299 30.3399ZM22.3299 33.0699V31.2099H24.0999V33.0699H22.3299Z" fill="#1B4A52"/>
</g>
<circle opacity="0.1" cx="28" cy="28" r="28" fill="#1B4A52"/>
<defs>
<filter id="filter0_d_4746_34054" x="6" y="10" width="44" height="44" filterUnits="userSpaceOnUse" color-interpolation-filters="sRGB">
<feFlood flood-opacity="0" result="BackgroundImageFix"/>
<feColorMatrix in="SourceAlpha" type="matrix" values="0 0 0 0 0 0 0 0 0 0 0 0 0 0 0 0 0 0 127 0" result="hardAlpha"/>
<feOffset dy="4"/>
<feGaussianBlur stdDeviation="2"/>
<feComposite in2="hardAlpha" operator="out"/>
<feColorMatrix type="matrix" values="0 0 0 0 0 0 0 0 0 0 0 0 0 0 0 0 0 0 0.25 0"/>
<feBlend mode="normal" in2="BackgroundImageFix" result="effect1_dropShadow_4746_34054"/>
<feBlend mode="normal" in="SourceGraphic" in2="effect1_dropShadow_4746_34054" result="shape"/>
</filter>
</defs>
</svg>
