<svg width="56" height="56" viewBox="0 0 56 56" fill="none" xmlns="http://www.w3.org/2000/svg">
<circle opacity="0.1" cx="28" cy="28" r="28" fill="#FF8130"/>
<g clip-path="url(#clip0_292_5340)">
<path d="M25.3452 26.2998C24.1585 26.2998 22.9985 25.9479 22.0118 25.2886C21.0251 24.6293 20.2561 23.6923 19.8019 22.5959C19.3478 21.4995 19.229 20.2932 19.4605 19.1293C19.692 17.9654 20.2635 16.8963 21.1026 16.0572C21.9417 15.218 23.0108 14.6466 24.1747 14.4151C25.3386 14.1836 26.545 14.3024 27.6413 14.7565C28.7377 15.2107 29.6747 15.9797 30.334 16.9664C30.9933 17.9531 31.3452 19.1131 31.3452 20.2998C31.3452 21.8911 30.7131 23.4172 29.5879 24.5424C28.4626 25.6677 26.9365 26.2998 25.3452 26.2998ZM25.3452 16.1898C24.5234 16.1898 23.7201 16.4335 23.0368 16.89C22.3535 17.3466 21.821 17.9955 21.5065 18.7548C21.192 19.514 21.1097 20.3494 21.2701 21.1554C21.4304 21.9614 21.8261 22.7017 22.4072 23.2828C22.9883 23.8639 23.7286 24.2596 24.5346 24.42C25.3406 24.5803 26.176 24.498 26.9353 24.1835C27.6945 23.869 28.3434 23.3365 28.8 22.6532C29.2565 21.9699 29.5002 21.1666 29.5002 20.3448C29.5002 19.7992 29.3927 19.2589 29.1839 18.7548C28.9751 18.2507 28.6691 17.7926 28.2832 17.4068C27.8974 17.0209 27.4394 16.7149 26.9353 16.5061C26.4312 16.2973 25.8909 16.1898 25.3452 16.1898Z" fill="#1B4A52"/>
<path d="M26.7551 38.4801H13.7501C13.5238 38.4809 13.3056 38.3965 13.1388 38.2436C12.972 38.0907 12.869 37.8806 12.8501 37.6551C12.8678 37.5009 12.919 37.3525 13.0001 37.2201C13.616 34.374 15.1866 31.824 17.4511 29.9933C19.7157 28.1626 22.5381 27.1611 25.4501 27.1551C27.6589 27.1016 29.8441 27.6182 31.7951 28.6551C32.0032 28.7693 32.1578 28.961 32.2252 29.1885C32.2926 29.4161 32.2674 29.6611 32.1551 29.8701C32.0381 30.0793 31.8437 30.2341 31.6137 30.3015C31.3837 30.3688 31.1364 30.3432 30.9251 30.2301C29.2423 29.3326 27.3568 28.8832 25.4501 28.9251C23.1043 28.9223 20.8192 29.6707 18.9297 31.0609C17.0402 32.451 15.6455 34.4098 14.9501 36.6501H26.7851C27.0238 36.6501 27.2527 36.745 27.4215 36.9137C27.5903 37.0825 27.6851 37.3115 27.6851 37.5501C27.6851 37.7888 27.5903 38.0178 27.4215 38.1865C27.2527 38.3553 27.0238 38.4501 26.7851 38.4501L26.7551 38.4801Z" fill="#1B4A52"/>
<path d="M37 44.0448H33.79C33.5513 44.0448 33.3223 43.95 33.1536 43.7812C32.9848 43.6124 32.89 43.3835 32.89 43.1448V39.3648H29.11C28.8713 39.3648 28.6423 39.27 28.4736 39.1012C28.3048 38.9324 28.21 38.7035 28.21 38.4648V35.2548C28.21 35.0161 28.3048 34.7872 28.4736 34.6184C28.6423 34.4496 28.8713 34.3548 29.11 34.3548H32.89V30.5748C32.89 30.3361 32.9848 30.1072 33.1536 29.9384C33.3223 29.7696 33.5513 29.6748 33.79 29.6748H37C37.2387 29.6748 37.4676 29.7696 37.6364 29.9384C37.8051 30.1072 37.9 30.3361 37.9 30.5748V34.3548H41.68C41.9187 34.3548 42.1476 34.4496 42.3164 34.6184C42.4851 34.7872 42.58 35.0161 42.58 35.2548V38.4648C42.58 38.7035 42.4851 38.9324 42.3164 39.1012C42.1476 39.27 41.9187 39.3648 41.68 39.3648H37.9V43.1448C37.9 43.3835 37.8051 43.6124 37.6364 43.7812C37.4676 43.95 37.2387 44.0448 37 44.0448ZM34.69 42.2448H36.1V38.4648C36.1 38.2261 36.1948 37.9972 36.3636 37.8284C36.5323 37.6596 36.7613 37.5648 37 37.5648H40.78V36.1548H37C36.7613 36.1548 36.5323 36.06 36.3636 35.8912C36.1948 35.7224 36.1 35.4935 36.1 35.2548V31.4748H34.69V35.2548C34.69 35.4935 34.5951 35.7224 34.4264 35.8912C34.2576 36.06 34.0287 36.1548 33.79 36.1548H30.01V37.5648H33.79C33.9081 37.5648 34.0252 37.5881 34.1344 37.6333C34.2436 37.6785 34.3428 37.7448 34.4264 37.8284C34.5099 37.912 34.5762 38.0112 34.6215 38.1204C34.6667 38.2296 34.69 38.3466 34.69 38.4648V42.2448Z" fill="#FF6961"/>
</g>
<defs>
<clipPath id="clip0_292_5340">
<rect width="36" height="36" fill="white" transform="translate(10 11)"/>
</clipPath>
</defs>
</svg>
