<svg width="56" height="56" viewBox="0 0 56 56" fill="none" xmlns="http://www.w3.org/2000/svg">
<path d="M28.0002 26.5002C27.2335 26.5032 26.4832 26.2784 25.8445 25.8543C25.2058 25.4302 24.7075 24.8259 24.4127 24.1182C24.1179 23.4104 24.04 22.631 24.1889 21.8789C24.3377 21.1268 24.7066 20.4359 25.2487 19.8938C25.7909 19.3516 26.4818 18.9827 27.2339 18.8339C27.986 18.685 28.7654 18.7629 29.4731 19.0577C30.1809 19.3525 30.7852 19.8508 31.2093 20.4895C31.6334 21.1283 31.8582 21.8785 31.8552 22.6452C31.8513 23.6664 31.4438 24.6447 30.7217 25.3668C29.9996 26.0889 29.0214 26.4963 28.0002 26.5002ZM28.0002 20.5752C27.5902 20.5723 27.1885 20.6911 26.8461 20.9168C26.5038 21.1424 26.2361 21.4647 26.0771 21.8426C25.9181 22.2206 25.875 22.6373 25.9532 23.0398C26.0313 23.4423 26.2273 23.8126 26.5162 24.1036C26.8051 24.3946 27.1739 24.5932 27.5758 24.6743C27.9778 24.7554 28.3948 24.7153 28.7739 24.5591C29.153 24.4028 29.4772 24.1375 29.7053 23.7968C29.9334 23.4561 30.0552 23.0553 30.0552 22.6452C30.0513 22.1014 29.8335 21.581 29.449 21.1965C29.0644 20.8119 28.544 20.5942 28.0002 20.5902V20.5752Z" fill="#FF6961"/>
<path d="M20.4999 33.8201H20.2749C20.0443 33.7601 19.847 33.6111 19.7261 33.4058C19.6052 33.2006 19.5706 32.9558 19.6299 32.7251C20.0882 30.8739 21.1389 29.2233 22.6222 28.0247C24.1055 26.8261 25.9399 26.1453 27.846 26.0858C29.7521 26.0263 31.6253 26.5916 33.1804 27.6954C34.7355 28.7992 35.8871 30.3811 36.4599 32.2001C36.4954 32.3133 36.5081 32.4325 36.4975 32.5507C36.4869 32.6689 36.4532 32.7839 36.3982 32.889C36.3432 32.9942 36.268 33.0875 36.1769 33.1636C36.0858 33.2397 35.9806 33.2971 35.8674 33.3326C35.7541 33.368 35.635 33.3808 35.5168 33.3702C35.3986 33.3596 35.2836 33.3259 35.1784 33.2709C35.0733 33.2158 34.98 33.1406 34.9039 33.0496C34.8278 32.9585 34.7703 32.8533 34.7349 32.7401C34.2794 31.2959 33.3645 30.0402 32.1295 29.1641C30.8944 28.2881 29.4068 27.8397 27.8933 27.8872C26.3798 27.9348 24.9233 28.4757 23.7457 29.4276C22.568 30.3795 21.7337 31.6902 21.3699 33.1601C21.3172 33.3502 21.2036 33.5178 21.0464 33.6371C20.8892 33.7563 20.6972 33.8206 20.4999 33.8201Z" fill="#FF6961"/>
<path d="M41.8302 33.8199H14.2452C14.0065 33.8199 13.7776 33.725 13.6088 33.5563C13.44 33.3875 13.3452 33.1586 13.3452 32.9199V16.5099C13.3452 16.2712 13.44 16.0422 13.6088 15.8735C13.7776 15.7047 14.0065 15.6099 14.2452 15.6099H41.8302C41.9484 15.6099 42.0654 15.6331 42.1746 15.6784C42.2838 15.7236 42.383 15.7899 42.4666 15.8735C42.5502 15.957 42.6165 16.0563 42.6617 16.1654C42.7069 16.2746 42.7302 16.3917 42.7302 16.5099V32.9199C42.7302 33.1586 42.6354 33.3875 42.4666 33.5563C42.2978 33.725 42.0689 33.8199 41.8302 33.8199ZM15.1452 32.0349H40.9302V17.4099H15.1452V32.0349Z" fill="#1B4A52"/>
<path d="M26.1251 41.5C25.8864 41.5 25.6575 41.4052 25.4887 41.2364C25.3199 41.0676 25.2251 40.8387 25.2251 40.6V32.92C25.2251 32.6813 25.3199 32.4524 25.4887 32.2836C25.6575 32.1148 25.8864 32.02 26.1251 32.02C26.3638 32.02 26.5927 32.1148 26.7615 32.2836C26.9303 32.4524 27.0251 32.6813 27.0251 32.92V40.6C27.0251 40.8387 26.9303 41.0676 26.7615 41.2364C26.5927 41.4052 26.3638 41.5 26.1251 41.5Z" fill="#1B4A52"/>
<path d="M29.9498 41.5C29.7111 41.5 29.4822 41.4052 29.3134 41.2364C29.1446 41.0676 29.0498 40.8387 29.0498 40.6V32.92C29.0498 32.6813 29.1446 32.4524 29.3134 32.2836C29.4822 32.1148 29.7111 32.02 29.9498 32.02C30.1885 32.02 30.4174 32.1148 30.5862 32.2836C30.755 32.4524 30.8498 32.6813 30.8498 32.92V40.6C30.8498 40.8387 30.755 41.0676 30.5862 41.2364C30.4174 41.4052 30.1885 41.5 29.9498 41.5Z" fill="#1B4A52"/>
<path d="M34.1651 41.8298H22.0001C21.7614 41.8298 21.5325 41.735 21.3637 41.5662C21.1949 41.3974 21.1001 41.1685 21.1001 40.9298C21.1001 40.6911 21.1949 40.4622 21.3637 40.2934C21.5325 40.1246 21.7614 40.0298 22.0001 40.0298H34.2101C34.4488 40.0298 34.6777 40.1246 34.8465 40.2934C35.0153 40.4622 35.1101 40.6911 35.1101 40.9298C35.1101 41.1685 35.0153 41.3974 34.8465 41.5662C34.6777 41.735 34.4488 41.8298 34.2101 41.8298H34.1651Z" fill="#1B4A52"/>
<circle opacity="0.1" cx="28" cy="28" r="28" fill="#1B4A52"/>
</svg>
