<svg width="54" height="60" viewBox="0 0 54 60" fill="none" xmlns="http://www.w3.org/2000/svg">
<g clip-path="url(#clip0_3144_23620)">
<path d="M53.2156 39.161C56.6373 24.6802 47.6586 10.1706 33.161 6.75282C18.6634 3.33505 4.13689 12.3034 0.715146 26.7842C-2.7066 41.2649 6.27216 55.7746 20.7698 59.1923C35.2673 62.6101 49.7938 53.6418 53.2156 39.161Z" fill="#FFE6E1"/>
<path d="M44.7592 46.6747C52.3743 41.5202 47.8323 33.0501 40.9324 21.7133C39.9538 20.0664 39.2703 18.2617 38.9127 16.3803C38.3428 13.6557 36.8474 11.2118 34.6798 9.46261C32.5122 7.71341 29.8059 6.76652 27.0193 6.78242C24.2328 6.79833 21.5374 7.77604 19.39 9.54986C17.2426 11.3237 15.7753 13.7846 15.2366 16.5154C14.88 18.453 14.2367 20.3268 13.328 22.0752C6.98374 34.0637 0.765131 43.7258 9.83937 46.6891L44.7592 46.6747Z" fill="#521F4D"/>
<path d="M33.3072 29.5127H20.6719V49.4451H33.3072V29.5127Z" fill="#EE938B"/>
<path d="M50.1797 46.8334C44.2317 44.3383 33.3793 42.4561 33.3793 42.4561C31.3403 44.1742 26.9723 48.5661 26.9723 48.5661C26.9723 48.5661 22.3433 44.2224 20.6908 42.4657C20.6908 42.4657 9.70319 44.0921 3.50391 46.2639C5.745 50.2495 8.96472 53.5997 12.8599 55.9993C16.7551 58.3989 21.1976 59.7689 25.7691 59.9802C26.1992 59.9802 26.6244 60.0091 27.0592 60.0091C31.725 59.9989 36.3082 58.7794 40.3608 56.4699C44.4134 54.1605 47.7966 50.8401 50.1797 46.8334V46.8334Z" fill="#00B5D5"/>
<path d="M18.1056 42.8711C14.4817 43.4889 7.81856 44.734 3.48438 46.2495C5.48245 49.7985 8.2594 52.8494 11.6068 55.1731C14.9542 57.4969 18.785 59.0331 22.8118 59.6665C20.1398 54.4366 18.5398 48.7266 18.1056 42.8711V42.8711Z" fill="#CAEDFF"/>
<path d="M35.8391 42.8711C39.463 43.4889 46.1261 44.734 50.4603 46.2495C48.4622 49.7985 45.6853 52.8494 42.3379 55.1731C38.9905 57.4969 35.1596 59.0331 31.1328 59.6665C33.8049 54.4366 35.4049 48.7266 35.8391 42.8711V42.8711Z" fill="#CAEDFF"/>
<path d="M26.9709 10.0195C18.8292 10.0195 16.9738 16.1199 17.1429 22.2541C17.1429 26.6797 16.8337 28.1132 17.2444 29.2039C17.4715 30.7628 20.6267 38.7116 26.9709 38.7116C33.3152 38.7116 36.1998 31.1827 36.7603 29.2039C37.171 28.1132 36.7989 26.6797 36.7989 22.2541C36.9681 16.1199 35.1175 10.0292 26.9709 10.0195Z" fill="#EE938B"/>
<path d="M26.9905 40.7486C24.821 40.7486 22.2746 37.6453 20.5352 35.71C20.5352 35.71 24.8838 38.5333 26.9712 38.5333C29.0586 38.5333 33.4411 35.7148 33.4411 35.7148C31.7547 37.6163 29.1745 40.7486 26.9905 40.7486Z" fill="#D16363"/>
<path d="M17.3256 22.843C17.3256 22.843 15.6586 20.8836 13.9433 22.0274C12.228 23.1712 13.895 29.6867 17.3256 28.538C20.7562 27.3894 17.3256 22.843 17.3256 22.843Z" fill="#EE938B"/>
<path d="M36.6497 22.843C36.6497 22.843 38.3167 20.8836 40.032 22.0274C41.7473 23.1712 40.0803 29.6867 36.6497 28.538C33.2191 27.3894 36.6497 22.843 36.6497 22.843Z" fill="#EE938B"/>
<path d="M16.8745 25.6297L16.5156 25.6797L16.9361 28.6911L17.295 28.6411L16.8745 25.6297Z" fill="#D16363"/>
<path d="M37.0382 25.6129L36.7578 28.626L37.1186 28.6595L37.399 25.6464L37.0382 25.6129Z" fill="#D16363"/>
<path d="M14.8073 25.4006C14.4352 24.4353 14.4063 23.7066 14.7155 23.2867C14.8065 23.1701 14.9231 23.076 15.0563 23.0116C15.1895 22.9471 15.3358 22.9141 15.4838 22.9151V23.277C15.3949 23.2768 15.3072 23.2972 15.2276 23.3366C15.1479 23.3759 15.0785 23.4332 15.0247 23.5039C14.8701 23.7211 14.7638 24.2085 15.1649 25.2703L14.8073 25.4006Z" fill="#D16363"/>
<path d="M39.3143 25.4006L38.9712 25.2703C39.3723 24.2085 39.2708 23.7211 39.1114 23.5039C39.0581 23.4327 38.9888 23.375 38.9091 23.3356C38.8293 23.2961 38.7413 23.2761 38.6523 23.277V22.9151C38.8003 22.9141 38.9466 22.9471 39.0798 23.0116C39.213 23.076 39.3296 23.1701 39.4206 23.2867C39.7105 23.7259 39.6815 24.4353 39.3143 25.4006Z" fill="#D16363"/>
<path d="M20.5339 15.9795C20.5339 15.9795 22.7276 20.8058 27.8059 21.6697C27.8059 21.6697 23.9162 18.2623 25.332 16.216C25.332 16.216 26.9893 20.854 33.7587 21.9399C34.407 22.0413 35.0602 22.1073 35.7157 22.1378C36.5081 22.1764 35.8848 22.3164 36.798 22.2536C36.798 22.2536 39.1318 7.90033 26.9845 7.89551C14.9918 7.89551 17.142 22.2536 17.142 22.2536C17.142 22.2536 17.2289 17.2391 20.5339 15.9795Z" fill="#521F4D"/>
<path d="M32.5632 6.73785C33.0763 3.58061 30.9298 0.605708 27.7689 0.0932161C24.608 -0.419276 21.6296 1.72471 21.1165 4.88195C20.6034 8.03919 22.7499 11.0141 25.9108 11.5266C29.0717 12.0391 32.0501 9.89508 32.5632 6.73785Z" fill="#521F4D"/>
<path d="M39.6136 45.415L40.7153 52.9343L36.7773 58.1757L42.1745 53.4652L39.6136 45.415Z" fill="#9DD7ED"/>
<path d="M14.3656 45.415L13.2639 52.9343L17.2019 58.1757L11.8047 53.4652L14.3656 45.415Z" fill="#9DD7ED"/>
<path d="M27.8047 50.0241L30.9164 52.7365L35.125 45.415L31.1338 54.2712L27.8047 50.0241Z" fill="#078D9B"/>
<path d="M26.6704 50.2224L23.5636 52.9348L18.8477 45.7002L23.3461 54.4647L26.6704 50.2224Z" fill="#078D9B"/>
</g>
<defs>
<clipPath id="clip0_3144_23620">
<rect width="53.9429" height="60" fill="white"/>
</clipPath>
</defs>
</svg>
