<svg width="66" height="66" viewBox="0 0 66 66" fill="none" xmlns="http://www.w3.org/2000/svg">
<g clip-path="url(#clip0_1405_10763)">
<path d="M46.75 58.7127H19.25C17.2636 58.7127 15.3582 57.9255 13.9511 56.5235C12.5439 55.1215 11.7498 53.219 11.7425 51.2326V25.7127C11.7427 25.4728 11.7944 25.2357 11.894 25.0175C11.9936 24.7993 12.1389 24.605 12.32 24.4477L31.845 7.72765C32.1439 7.47202 32.5242 7.33154 32.9175 7.33154C33.3108 7.33154 33.6911 7.47202 33.99 7.72765L53.515 24.4477C53.6961 24.605 53.8414 24.7993 53.941 25.0175C54.0406 25.2357 54.0923 25.4728 54.0925 25.7127V51.0951C54.122 53.077 53.3666 54.99 51.9911 56.4171C50.6156 57.8441 48.7316 58.6693 46.75 58.7127ZM15.125 26.4826V51.2326C15.1597 52.3131 15.6063 53.3393 16.3732 54.1011C17.1402 54.8629 18.1694 55.3026 19.25 55.3302H46.75C47.8637 55.3229 48.9297 54.8773 49.7172 54.0898C50.5047 53.3023 50.9503 52.2363 50.9575 51.1227V26.3727L33 11.1927L15.125 26.4826Z" fill="#1B4A52"/>
<path d="M7.39751 32.6976C7.16434 32.697 6.93387 32.6478 6.7208 32.5531C6.50772 32.4584 6.31674 32.3203 6.16002 32.1476C6.01651 31.9837 5.90687 31.793 5.83744 31.5865C5.76801 31.38 5.74016 31.1618 5.7555 30.9445C5.77084 30.7272 5.82907 30.5151 5.92682 30.3204C6.02457 30.1257 6.1599 29.9523 6.32501 29.8101L31.9275 7.81013C32.265 7.53045 32.6986 7.394 33.1355 7.42998C33.5724 7.46596 33.9778 7.6715 34.265 8.00263C34.5431 8.33566 34.6788 8.76478 34.6427 9.19712C34.6067 9.62946 34.4018 10.0302 34.0725 10.3126L8.47002 32.3126C8.17348 32.571 7.79065 32.7084 7.39751 32.6976Z" fill="#1B4A52"/>
<path d="M58.6025 32.6977C58.2094 32.7084 57.8265 32.571 57.53 32.3127L31.9275 10.3127C31.7633 10.173 31.6285 10.002 31.5311 9.80959C31.4337 9.61722 31.3756 9.40737 31.3603 9.1923C31.3449 8.97723 31.3726 8.76125 31.4416 8.55699C31.5107 8.35273 31.6198 8.16429 31.7625 8.00268C32.0449 7.67335 32.4457 7.46849 32.878 7.43246C33.3104 7.39643 33.7395 7.53214 34.0725 7.81018L59.675 29.8102C59.8401 29.9523 59.9755 30.1257 60.0732 30.3204C60.171 30.5151 60.2292 30.7272 60.2445 30.9446C60.2599 31.1619 60.232 31.3801 60.1626 31.5866C60.0932 31.7931 59.9835 31.9838 59.84 32.1477C59.6822 32.319 59.491 32.4562 59.2782 32.5508C59.0654 32.6454 58.8354 32.6954 58.6025 32.6977Z" fill="#1B4A52"/>
<path d="M36.2725 49.5826H30.415C29.9774 49.5826 29.5577 49.4088 29.2483 49.0994C28.9388 48.7899 28.765 48.3702 28.765 47.9326V41.0026H21.835C21.6173 41.0064 21.4011 40.9662 21.1992 40.8846C20.9973 40.803 20.8139 40.6816 20.66 40.5277C20.506 40.3737 20.3846 40.1903 20.303 39.9884C20.2214 39.7866 20.1813 39.5703 20.185 39.3526V33.4951C20.185 33.2785 20.2277 33.0639 20.3106 32.8637C20.3935 32.6635 20.515 32.4816 20.6683 32.3284C20.8215 32.1752 21.0034 32.0537 21.2036 31.9707C21.4037 31.8878 21.6183 31.8451 21.835 31.8451H28.765V24.9151C28.765 24.4775 28.9388 24.0578 29.2483 23.7484C29.5577 23.439 29.9774 23.2651 30.415 23.2651H36.2725C36.4892 23.2651 36.7037 23.3078 36.9039 23.3907C37.1041 23.4737 37.286 23.5952 37.4392 23.7484C37.5924 23.9016 37.714 24.0835 37.7969 24.2837C37.8798 24.4839 37.9225 24.6985 37.9225 24.9151V31.8451H44.8525C45.2901 31.8451 45.7098 32.019 46.0192 32.3284C46.3286 32.6378 46.5025 33.0575 46.5025 33.4951V39.4626C46.5062 39.6803 46.4661 39.8966 46.3845 40.0984C46.3029 40.3003 46.1815 40.4837 46.0275 40.6377C45.8735 40.7916 45.6902 40.913 45.4883 40.9946C45.2864 41.0762 45.0702 41.1164 44.8525 41.1126H37.9225V48.0426C37.8945 48.4609 37.7084 48.8528 37.402 49.1389C37.0955 49.4249 36.6917 49.5836 36.2725 49.5826ZM32.065 46.3101H34.6225V39.4626C34.6225 39.2472 34.6653 39.034 34.7486 38.8353C34.8318 38.6366 34.9538 38.4565 35.1074 38.3055C35.261 38.1545 35.4431 38.0356 35.6431 37.9557C35.8432 37.8758 36.0571 37.8365 36.2725 37.8401H43.23V35.2551H36.2725C35.8349 35.2551 35.4152 35.0813 35.1058 34.7719C34.7963 34.4624 34.6225 34.0427 34.6225 33.6051V26.5651H32.065V33.4951C32.065 33.7118 32.0223 33.9264 31.9394 34.1266C31.8565 34.3267 31.7349 34.5086 31.5817 34.6619C31.4285 34.8151 31.2466 34.9366 31.0464 35.0195C30.8462 35.1025 30.6317 35.1451 30.415 35.1451H23.485V37.7301H30.415C30.6304 37.7265 30.8443 37.7657 31.0443 37.8457C31.2444 37.9256 31.4265 38.0445 31.5801 38.1955C31.7337 38.3465 31.8557 38.5266 31.9389 38.7253C32.0222 38.924 32.065 39.1372 32.065 39.3526V46.3101Z" fill="#E2504B"/>
</g>
<defs>
<clipPath id="clip0_1405_10763">
<rect width="66" height="66" fill="white"/>
</clipPath>
</defs>
</svg>
