<svg width="66" height="66" viewBox="0 0 66 66" fill="none" xmlns="http://www.w3.org/2000/svg">
<g clip-path="url(#clip0_706_5643)">
<path d="M33.935 45.0176C30.1396 44.9904 26.4369 43.8418 23.2924 41.7161C20.1479 39.5905 17.7019 36.5827 16.262 33.0709C14.8221 29.5591 14.4525 25.7 15.1997 21.9788C15.9468 18.2575 17.7773 14.8401 20.4612 12.1563C23.1451 9.47242 26.5624 7.64186 30.2837 6.89472C34.005 6.14758 37.8641 6.51719 41.3759 7.9571C44.8877 9.39702 47.8954 11.843 50.0211 14.9875C52.1467 18.1319 53.2953 21.8346 53.3225 25.6301C53.3225 30.772 51.2799 35.7033 47.644 39.3391C44.0082 42.975 39.0769 45.0176 33.935 45.0176ZM33.935 9.54258C30.7532 9.54258 27.6429 10.4861 24.9973 12.2538C22.3517 14.0215 20.2897 16.5341 19.0721 19.4737C17.8545 22.4133 17.5359 25.6479 18.1566 28.7686C18.7774 31.8893 20.3096 34.7558 22.5594 37.0057C24.8093 39.2555 27.6758 40.7877 30.7965 41.4085C33.9172 42.0292 37.1518 41.7106 40.0914 40.493C43.031 39.2754 45.5436 37.2134 47.3113 34.5678C49.079 31.9222 50.0225 28.8119 50.0225 25.6301C50.0152 21.3656 48.318 17.278 45.3026 14.2625C42.2871 11.2471 38.1994 9.54985 33.935 9.54258Z" fill="#1B4A52"/>
<path d="M23.4025 59.3174C23.0921 59.3166 22.7878 59.231 22.5225 59.0699C22.2839 58.9226 22.0875 58.716 21.9526 58.4702C21.8176 58.2244 21.7487 57.9478 21.7525 57.6674V39.9024C21.7525 39.4648 21.9263 39.0452 22.2357 38.7357C22.5452 38.4263 22.9649 38.2524 23.4025 38.2524C23.8401 38.2524 24.2598 38.4263 24.5692 38.7357C24.8786 39.0452 25.0525 39.4648 25.0525 39.9024V55.1649L33.3025 51.1774C33.5257 51.0547 33.7764 50.9903 34.0312 50.9903C34.286 50.9903 34.5367 51.0547 34.76 51.1774L43.01 55.1649V40.7C43.0616 40.3025 43.2561 39.9374 43.5572 39.6729C43.8583 39.4084 44.2454 39.2625 44.6462 39.2625C45.047 39.2625 45.4341 39.4084 45.7352 39.6729C46.0363 39.9374 46.2308 40.3025 46.2825 40.7V57.6674C46.2863 57.9478 46.2173 58.2244 46.0824 58.4702C45.9474 58.716 45.7511 58.9226 45.5125 59.0699C45.2683 59.2048 44.9939 59.2755 44.715 59.2755C44.436 59.2755 44.1617 59.2048 43.9175 59.0699L33.935 54.3399L24.1175 59.1524C23.8952 59.2623 23.6504 59.3188 23.4025 59.3174Z" fill="#1B4A52"/>
<path d="M39.16 34.0999C38.8945 34.1011 38.6318 34.0448 38.3901 33.9349L33.9351 31.5699L29.4526 33.9349C29.1784 34.0796 28.869 34.1442 28.5599 34.1211C28.2508 34.0981 27.9544 33.9885 27.7047 33.8048C27.455 33.6211 27.2621 33.3708 27.1481 33.0825C27.034 32.7943 27.0035 32.4797 27.0601 32.1749L27.9125 27.2249L24.3101 23.6774C24.0845 23.469 23.9252 23.1989 23.8519 22.9006C23.7785 22.6024 23.7944 22.2892 23.8976 21.9999C23.9852 21.7046 24.1565 21.441 24.3907 21.2409C24.625 21.0408 24.9121 20.9128 25.2176 20.8724L30.2501 20.1574L32.4776 15.6199C32.6159 15.3453 32.8283 15.1148 33.0907 14.9545C33.3531 14.7941 33.655 14.7103 33.9626 14.7124C34.2688 14.7164 34.5683 14.8028 34.8296 14.9624C35.0909 15.1221 35.3043 15.3493 35.4476 15.6199L37.675 20.1574L42.6525 20.8724C42.9462 20.9219 43.221 21.0499 43.4478 21.2428C43.6746 21.4358 43.8449 21.6865 43.9408 21.9684C44.0366 22.2503 44.0544 22.5529 43.9922 22.8441C43.93 23.1353 43.7902 23.4043 43.5876 23.6224L39.9576 27.1699L40.8101 32.1199C40.8668 32.4252 40.8348 32.7403 40.7178 33.0279C40.6008 33.3155 40.4038 33.5635 40.1501 33.7424C39.8723 33.9742 39.5218 34.1007 39.16 34.0999ZM33.9351 28.0774C34.2003 28.0796 34.4623 28.1357 34.705 28.2424L36.96 29.4524L36.5476 26.9224C36.4944 26.6598 36.5095 26.3879 36.5913 26.1328C36.6731 25.8776 36.819 25.6477 37.0151 25.4649L38.8576 23.6499L36.3 23.2924C36.0365 23.2505 35.7867 23.1463 35.5714 22.9885C35.3562 22.8307 35.1818 22.6237 35.0626 22.3849L33.9351 20.0749L32.7801 22.3849C32.6667 22.6281 32.4939 22.8387 32.2776 22.9973C32.0613 23.1559 31.8085 23.2574 31.5426 23.2924L29.0126 23.6499L30.8551 25.4649C31.0449 25.6521 31.1866 25.8824 31.268 26.1362C31.3494 26.39 31.3682 26.6598 31.3226 26.9224L30.8825 29.4524L33.1651 28.2424C33.4068 28.1326 33.6695 28.0763 33.9351 28.0774Z" fill="#E2504B"/>
</g>
<defs>
<clipPath id="clip0_706_5643">
<rect width="66" height="66" fill="white"/>
</clipPath>
</defs>
</svg>
