<svg width="20" height="19" viewBox="0 0 20 19" fill="none" xmlns="http://www.w3.org/2000/svg">
<path d="M19.3 4.40195H13.72C13.33 4.40195 13.02 4.09195 13.02 3.70195C13.02 3.31195 13.33 3.00195 13.72 3.00195H19.3C19.69 3.00195 20 3.31195 20 3.70195C20 4.09195 19.69 4.40195 19.3 4.40195Z" fill="#1B4A52"/>
<path d="M4.42 4.40195H0.7C0.31 4.40195 0 4.09195 0 3.70195C0 3.31195 0.31 3.00195 0.7 3.00195H4.42C4.81 3.00195 5.12 3.31195 5.12 3.70195C5.12 4.09195 4.8 4.40195 4.42 4.40195Z" fill="#1B4A52"/>
<path fill-rule="evenodd" clip-rule="evenodd" d="M12 4.00073C12 6.21028 10.2091 8.00146 8 8.00146C5.79086 8.00146 4 6.21028 4 4.00073C4 1.79119 5.79086 0 8 0C10.2091 0 12 1.79119 12 4.00073ZM8.00012 6.44495C9.10469 6.44495 10.0001 5.54952 10.0001 4.44495C10.0001 3.34038 9.10469 2.44495 8.00012 2.44495C6.89555 2.44495 6.00012 3.34038 6.00012 4.44495C6.00012 5.54952 6.89555 6.44495 8.00012 6.44495Z" fill="#1B4A52"/>
<path d="M0.699982 14.4093H6.27998C6.66998 14.4093 6.97998 14.0993 6.97998 13.7093C6.97998 13.3193 6.66998 13.0093 6.27998 13.0093H0.699982C0.309982 13.0093 -1.90735e-05 13.3193 -1.90735e-05 13.7093C-1.90735e-05 14.0993 0.309982 14.4093 0.699982 14.4093Z" fill="#1B4A52"/>
<path d="M15.58 14.4093H19.3C19.69 14.4093 20 14.0993 20 13.7093C20 13.3193 19.69 13.0093 19.3 13.0093H15.58C15.19 13.0093 14.88 13.3193 14.88 13.7093C14.88 14.0993 15.2 14.4093 15.58 14.4093Z" fill="#1B4A52"/>
<path fill-rule="evenodd" clip-rule="evenodd" d="M8 14.0076C8 16.2171 9.79086 18.0083 12 18.0083C14.2091 18.0083 16 16.2171 16 14.0076C16 11.798 14.2091 10.0068 12 10.0068C9.79086 10.0068 8 11.798 8 14.0076ZM12 16.4449C10.8954 16.4449 10 15.5495 10 14.4449C10 13.3404 10.8954 12.4449 12 12.4449C13.1046 12.4449 14 13.3404 14 14.4449C14 15.5495 13.1046 16.4449 12 16.4449Z" fill="#1B4A52"/>
</svg>
