<svg width="51" height="51" viewBox="0 0 51 51" fill="none" xmlns="http://www.w3.org/2000/svg">
<g clip-path="url(#clip0_491_9027)">
<path d="M18.8 1.5H7.74C4.29374 1.5 1.5 4.29374 1.5 7.74V14.66C1.5 18.1063 4.29374 20.9 7.74 20.9H18.8C22.2463 20.9 25.04 18.1063 25.04 14.66V7.74C25.04 4.29374 22.2463 1.5 18.8 1.5Z" stroke="#E2504B" stroke-width="3" stroke-linecap="round" stroke-linejoin="round"/>
<path d="M3.02002 4.42993L5.02002 9.52993C5.21247 10.0208 5.54803 10.4425 5.98312 10.7403C6.41822 11.0381 6.93278 11.1982 7.46002 11.1999H19.08C19.6193 11.1983 20.1449 11.0304 20.5852 10.719C21.0254 10.4075 21.3589 9.96787 21.54 9.45993L23.34 4.45993" stroke="#E2504B" stroke-width="3" stroke-linecap="round" stroke-linejoin="round"/>
<path d="M30.32 11.2C32.7954 11.2 35.2466 11.6875 37.5336 12.6348C39.8206 13.5821 41.8986 14.9706 43.649 16.721C45.3994 18.4714 46.7878 20.5494 47.7351 22.8364C48.6824 25.1234 49.17 27.5745 49.17 30.0499C49.1674 35.0475 47.1802 39.8395 43.6455 43.3724C40.1107 46.9053 35.3176 48.89 30.32 48.8899C25.3224 48.89 20.5294 46.9053 16.9946 43.3724C13.4598 39.8395 11.4727 35.0475 11.47 30.0499C11.4686 28.3779 11.6905 26.7132 12.13 25.1" stroke="#1B4A52" stroke-width="3" stroke-linecap="round" stroke-linejoin="round"/>
<path d="M47.37 31.24H13.27" stroke="#1B4A52" stroke-width="3" stroke-linecap="round" stroke-linejoin="round"/>
<path d="M30.32 11.2C30.6437 11.217 30.9604 11.3013 31.2497 11.4477C31.5389 11.5941 31.7945 11.7992 32 12.05C34.29 14.43 36 21.5899 36 30.0499C36 40.4499 33.47 48.8899 30.36 48.8899C27.25 48.8899 24.73 40.4499 24.73 30.0499C24.73 28.6199 24.73 27.24 24.86 25.91" stroke="#1B4A52" stroke-width="3" stroke-linecap="round" stroke-linejoin="round"/>
</g>
<defs>
<clipPath id="clip0_491_9027">
<rect width="50.67" height="50.4" fill="white"/>
</clipPath>
</defs>
</svg>
