<svg width="55" height="50" viewBox="0 0 55 50" fill="none" xmlns="http://www.w3.org/2000/svg">
<g clip-path="url(#clip0_491_9039)">
<path d="M37.15 48.15H8.18L1.5 24.2H30.48L37.15 48.15Z" stroke="#1B4A52" stroke-width="3" stroke-linecap="round" stroke-linejoin="round"/>
<path d="M35.78 43.23H51.59L52.96 48.15H37.15" stroke="#1B4A52" stroke-width="3" stroke-linecap="round" stroke-linejoin="round"/>
<path d="M20.7257 37.6273C21.8787 36.4763 21.7538 34.4817 20.4467 33.1723C19.1396 31.8629 17.1453 31.7345 15.9922 32.8856C14.8392 34.0366 14.964 36.0312 16.2712 37.3406C17.5783 38.65 19.5726 38.7784 20.7257 37.6273Z" stroke="#1B4A52" stroke-width="3" stroke-linecap="round" stroke-linejoin="round"/>
<path d="M7.59998 20.11V14.35L26.23 1.5L44.85 14.35V39.22" stroke="#E2504B" stroke-width="3" stroke-linecap="round" stroke-linejoin="round"/>
<path d="M7.59995 14.3501L3.81995 16.8401" stroke="#E2504B" stroke-width="3" stroke-linecap="round" stroke-linejoin="round"/>
<path d="M44.85 14.3501L48.72 17.1001" stroke="#E2504B" stroke-width="3" stroke-linecap="round" stroke-linejoin="round"/>
</g>
<defs>
<clipPath id="clip0_491_9039">
<rect width="54.46" height="49.65" fill="white"/>
</clipPath>
</defs>
</svg>
