<svg width="55" height="50" viewBox="0 0 55 50" fill="none" xmlns="http://www.w3.org/2000/svg">
<g clip-path="url(#clip0_491_9061)">
<path d="M49.77 47.94H4.83C3.94683 47.94 3.09983 47.5892 2.47533 46.9647C1.85084 46.3402 1.5 45.4932 1.5 44.61V39.4H18.89L21.89 41.74H31.89L35.51 39.4H53.08V44.61C53.08 45.4897 52.7319 46.3337 52.1117 46.9576C51.4916 47.5816 50.6497 47.9347 49.77 47.94V47.94Z" stroke="#1B4A52" stroke-width="3" stroke-linecap="round" stroke-linejoin="round"/>
<path d="M12.36 13.7H10.43C9.10391 13.7 7.83214 14.2267 6.89446 15.1644C5.95678 16.1021 5.42999 17.3739 5.42999 18.7V39.4" stroke="#1B4A52" stroke-width="3" stroke-linecap="round" stroke-linejoin="round"/>
<path d="M49.67 39.4V18.66C49.67 18.0034 49.5407 17.3532 49.2894 16.7466C49.0381 16.14 48.6698 15.5888 48.2056 15.1245C47.7413 14.6602 47.1901 14.2919 46.5834 14.0406C45.9768 13.7894 45.3266 13.66 44.67 13.66H41.77" stroke="#1B4A52" stroke-width="3" stroke-linecap="round" stroke-linejoin="round"/>
<path d="M37.46 13.7C37.46 13.51 37.46 13.33 37.46 13.14C37.4434 12.8704 37.5019 12.6015 37.629 12.3631C37.7561 12.1248 37.9468 11.9264 38.18 11.79L39.59 10.98L35.67 4.21L34.26 5.02C34.0303 5.16264 33.7653 5.23822 33.495 5.23822C33.2246 5.23822 32.9596 5.16264 32.73 5.02C32.42 4.82 32.1 4.63 31.73 4.46C31.4908 4.33518 31.2905 4.14693 31.1511 3.91586C31.0118 3.68479 30.9387 3.41983 30.94 3.15V1.5H23.15V3.12C23.1512 3.38983 23.0782 3.65479 22.9388 3.88586C22.7995 4.11693 22.5992 4.30518 22.36 4.43C22.03 4.6 21.7 4.79 21.36 4.99C21.1318 5.13176 20.8686 5.20689 20.6 5.20689C20.3314 5.20689 20.0681 5.13176 19.84 4.99L18.43 4.18L14.54 10.99L15.95 11.8C16.1837 11.9347 16.3762 12.1307 16.5067 12.3669C16.6371 12.6031 16.7005 12.8704 16.69 13.14C16.69 13.33 16.69 13.51 16.69 13.7C16.69 13.89 16.69 14.07 16.69 14.25C16.7016 14.5198 16.6387 14.7875 16.5082 15.0239C16.3776 15.2603 16.1845 15.4562 15.95 15.59L14.54 16.41L18.46 23.19L19.87 22.37C20.0989 22.2304 20.3619 22.1566 20.63 22.1566C20.8981 22.1566 21.161 22.2304 21.39 22.37C21.7117 22.5737 22.0457 22.7573 22.39 22.92C22.6292 23.0448 22.8295 23.2331 22.9688 23.4641C23.1082 23.6952 23.1812 23.9602 23.18 24.23V25.86H30.98V24.27C30.9787 24.0002 31.0518 23.7352 31.1911 23.5041C31.3305 23.2731 31.5307 23.0848 31.77 22.96C32.1144 22.7977 32.4484 22.614 32.77 22.41C33.0008 22.2706 33.2653 22.197 33.535 22.197C33.8046 22.197 34.0691 22.2706 34.3 22.41L35.71 23.23L39.63 16.45L38.18 15.59C37.9439 15.4579 37.7495 15.2624 37.6187 15.0256C37.488 14.7888 37.4261 14.5201 37.44 14.25C37.45 14.07 37.46 13.88 37.46 13.7Z" stroke="#E2504B" stroke-width="3" stroke-linecap="round" stroke-linejoin="round"/>
<path d="M27.06 18.2C29.5453 18.2 31.56 16.1852 31.56 13.7C31.56 11.2147 29.5453 9.19995 27.06 9.19995C24.5747 9.19995 22.56 11.2147 22.56 13.7C22.56 16.1852 24.5747 18.2 27.06 18.2Z" stroke="#E2504B" stroke-width="3" stroke-linecap="round" stroke-linejoin="round"/>
</g>
<defs>
<clipPath id="clip0_491_9061">
<rect width="54.6" height="49.44" fill="white"/>
</clipPath>
</defs>
</svg>
