<svg width="45" height="50" viewBox="0 0 45 50" fill="none" xmlns="http://www.w3.org/2000/svg">
<g clip-path="url(#clip0_491_9071)">
<path d="M1.5 27.2499C1.5 27.2499 22.5 24.8399 22.5 48.2499C22.5 48.2599 1.5 49.2999 1.5 27.2499Z" stroke="#1B4A52" stroke-width="3" stroke-linecap="round" stroke-linejoin="round"/>
<path d="M5.64004 27.17C4.92 23.5208 5.06383 19.7537 6.06004 16.17C6.06004 16.17 25.66 18.74 21.81 39.45" stroke="#1B4A52" stroke-width="3" stroke-linecap="round" stroke-linejoin="round"/>
<path d="M43.51 27.2499C43.51 27.2499 22.51 24.8399 22.51 48.2499C22.5 48.2599 43.51 49.2999 43.51 27.2499Z" stroke="#1B4A52" stroke-width="3" stroke-linecap="round" stroke-linejoin="round"/>
<path d="M39.14 27.35C39.9153 23.6298 39.7815 19.7775 38.75 16.12C38.75 16.12 19.07 18.71 23.03 39.59" stroke="#1B4A52" stroke-width="3" stroke-linecap="round" stroke-linejoin="round"/>
<path d="M31.2701 3.22003C30.7248 2.67367 30.0772 2.2402 29.3642 1.94445C28.6512 1.64869 27.8869 1.49646 27.1151 1.49646C26.3432 1.49646 25.5789 1.64869 24.8659 1.94445C24.1529 2.2402 23.5053 2.67367 22.9601 3.22003L22.5001 3.67003L22.05 3.22003C21.5048 2.67367 20.8572 2.2402 20.1442 1.94445C19.4312 1.64869 18.6669 1.49646 17.8951 1.49646C17.1232 1.49646 16.3589 1.64869 15.6459 1.94445C14.9329 2.2402 14.2853 2.67367 13.7401 3.22003V3.22003C13.1937 3.76527 12.7602 4.41291 12.4645 5.12588C12.1687 5.83885 12.0165 6.60315 12.0165 7.37503C12.0165 8.14691 12.1687 8.91121 12.4645 9.62418C12.7602 10.3372 13.1937 10.9848 13.7401 11.53L22.4501 20.25V20.2L22.5101 20.25L31.22 11.53C31.7697 10.9881 32.2071 10.3431 32.5071 9.63187C32.8072 8.92067 32.964 8.15728 32.9687 7.3854C32.9733 6.61352 32.8257 5.8483 32.5342 5.13355C32.2427 4.4188 31.8131 3.76855 31.2701 3.22003V3.22003Z" stroke="#E2504B" stroke-width="3" stroke-linecap="round" stroke-linejoin="round"/>
</g>
<defs>
<clipPath id="clip0_491_9071">
<rect width="45" height="49.77" fill="white"/>
</clipPath>
</defs>
</svg>
