<svg width="42" height="38" viewBox="0 0 42 38" fill="none" xmlns="http://www.w3.org/2000/svg">
<path d="M28.6249 0.943115C29.0032 0.943115 29.3807 0.979043 29.7533 1.04462C30.3197 1.14429 30.8873 1.24038 31.4445 1.38049C37.0617 2.76522 41.2612 7.58072 41.9082 13.3585C42.3251 16.9922 41.3113 20.6457 39.0832 23.5387C36.8551 26.4316 33.5893 28.3347 29.9834 28.8415C29.3946 28.9226 28.8005 28.9583 28.2062 28.9483C27.8397 28.9483 27.6403 29.0594 27.4583 29.3795C25.9327 32.0685 24.3889 34.7479 22.8503 37.4272C22.781 37.5477 22.5961 37.4964 22.5961 37.3574V25.0475C22.5961 24.8017 22.7953 24.6025 23.041 24.6025C24.7517 24.6025 26.4642 24.6025 28.1784 24.6025C32.8673 24.5955 37.0451 20.8516 37.571 16.1865C38.1675 10.889 34.6976 6.27997 29.454 5.42009C28.9957 5.34865 28.5325 5.31297 28.0687 5.31337C26.9716 5.30648 25.8746 5.30633 24.766 5.30729C23.5604 5.30832 22.583 4.33166 22.583 3.12606C22.583 1.92045 23.5603 0.943115 24.7659 0.943115H28.6249Z" fill="#E2504B"/>
<path d="M17.264 0.943115C18.4696 0.943115 19.4469 1.92044 19.4469 3.12604C19.4469 4.33164 18.4696 5.30896 17.264 5.30896H13.9874C9.0494 5.30896 4.80716 9.15084 4.39095 13.9978C3.95558 19.0573 7.29225 23.5159 12.2128 24.4309C12.7826 24.5352 13.3603 24.5899 13.9395 24.5945C14.7663 24.604 15.5932 24.6065 16.4237 24.6064C18.0736 24.6061 19.4112 25.9399 19.4112 27.5898V28.8427C19.4112 28.8792 19.4058 28.9406 19.3694 28.9376C16.6362 28.886 13.8837 29.2149 11.1714 28.6865C5.38707 27.5599 0.859228 22.6823 0.116488 16.8057C-0.836101 9.3048 4.14975 2.47917 11.5545 1.14781C11.8193 1.10038 12.0851 1.05908 12.3508 1.01817C12.6717 0.968777 12.9959 0.943115 13.3205 0.943115H17.264Z" fill="#E2504B"/>
</svg>
