<svg width="28" height="33" viewBox="0 0 28 33" fill="none" xmlns="http://www.w3.org/2000/svg">
<path fill-rule="evenodd" clip-rule="evenodd" d="M16.4492 0.162933C16.1228 0.195526 15.8103 0.384906 15.647 0.731068L11.3873 9.75721C11.2452 10.0584 10.9624 10.2691 10.6332 10.3191L1.03594 11.777C0.22965 11.8995 -0.0988505 12.8837 0.472229 13.4659L7.47195 20.6021C7.69506 20.8296 7.79643 21.1498 7.74487 21.4642L6.1003 31.4937C5.96532 32.3169 6.83812 32.9337 7.56901 32.5317L16.0693 27.8568C16.1886 27.7913 16.3179 27.7517 16.4492 27.7383V0.162933ZM23.2625 31.2828L25.5335 32.5318C26.2644 32.9337 27.1372 32.3169 27.0022 31.4937L26.9676 31.2828H23.2625Z" fill="#FFBB0B"/>
</svg>
