<svg width="34" height="33" viewBox="0 0 34 33" fill="none" xmlns="http://www.w3.org/2000/svg">
<path d="M17.2938 27.8569C16.9938 27.6918 16.6301 27.6918 16.33 27.8569L7.82971 32.5318C7.09881 32.9337 6.22602 32.3169 6.36099 31.4937L8.00557 21.4642C8.05712 21.1498 7.95576 20.8296 7.73265 20.6021L0.732925 13.4659C0.161846 12.8837 0.490347 11.8995 1.29664 11.777L10.8939 10.3191C11.2231 10.2691 11.5059 10.0584 11.648 9.75723L15.9077 0.731084C16.2683 -0.0331734 17.3556 -0.0332119 17.7163 0.73102L21.9768 9.75729C22.119 10.0584 22.4017 10.2691 22.731 10.3191L32.328 11.777C33.1343 11.8995 33.4628 12.8838 32.8916 13.466L25.8913 20.6011C25.6681 20.8286 25.5667 21.1488 25.6183 21.4633L27.2629 31.4938C27.3979 32.3169 26.5251 32.9337 25.7942 32.5318L17.2938 27.8569Z" fill="#FFBB0B"/>
</svg>
