<svg width="48" height="48" viewBox="0 0 48 48" fill="none" xmlns="http://www.w3.org/2000/svg">
<path d="M0 23.9034C0 19.1758 1.40758 14.5543 4.04473 10.6234C6.68188 6.6925 10.4302 3.62874 14.8156 1.81955C19.201 0.010357 24.0266 -0.46301 28.6822 0.459308C33.3377 1.38163 37.6141 3.65821 40.9706 7.00116C44.327 10.3441 46.6128 14.6033 47.5388 19.2401C48.4649 23.8769 47.9896 28.6831 46.1731 33.0509C44.3566 37.4186 41.2805 41.1518 37.3337 43.7784C33.3869 46.4049 28.7468 47.8068 24 47.8068C17.6348 47.8068 11.5303 45.2885 7.02944 40.8057C2.52856 36.3229 0 30.243 0 23.9034H0Z" fill="#1B4A52"/>
<g clip-path="url(#clip0_2007_15304)">
<path d="M31.5 38.0251H16.5C15.4166 38.0251 14.3772 37.5957 13.6097 36.831C12.8422 36.0663 12.409 35.0285 12.405 33.9451V20.0251C12.4051 19.8942 12.4333 19.7649 12.4877 19.6459C12.542 19.5269 12.6212 19.4209 12.72 19.3351L23.37 10.2151C23.5331 10.0756 23.7405 9.99902 23.955 9.99902C24.1695 9.99902 24.377 10.0756 24.54 10.2151L35.19 19.3351C35.2888 19.4209 35.3681 19.5269 35.4224 19.6459C35.4767 19.7649 35.5049 19.8942 35.505 20.0251V33.8701C35.5211 34.9511 35.1091 35.9946 34.3588 36.773C33.6085 37.5513 32.5809 38.0014 31.5 38.0251ZM14.25 20.4451V33.9451C14.269 34.5344 14.5126 35.0942 14.9309 35.5097C15.3492 35.9252 15.9106 36.1651 16.5 36.1801H31.5C32.1075 36.1761 32.689 35.9331 33.1185 35.5035C33.548 35.074 33.7911 34.4925 33.795 33.8851V20.3851L24 12.1051L14.25 20.4451Z" fill="white"/>
<path d="M10.0351 23.8352C9.9079 23.8349 9.78219 23.808 9.66597 23.7564C9.54974 23.7047 9.44557 23.6294 9.36009 23.5352C9.28181 23.4458 9.22201 23.3418 9.18414 23.2292C9.14627 23.1166 9.13107 22.9975 9.13944 22.879C9.14781 22.7605 9.17957 22.6448 9.23289 22.5386C9.2862 22.4324 9.36002 22.3378 9.45008 22.2603L23.4151 10.2602C23.5992 10.1077 23.8357 10.0333 24.074 10.0529C24.3123 10.0725 24.5334 10.1846 24.6901 10.3652C24.8417 10.5469 24.9158 10.781 24.8961 11.0168C24.8765 11.2526 24.7647 11.4712 24.5851 11.6252L10.6201 23.6253C10.4583 23.7662 10.2495 23.8411 10.0351 23.8352Z" fill="white"/>
<path d="M37.9649 23.8349C37.7505 23.8408 37.5417 23.7658 37.3799 23.6249L23.4149 11.6249C23.3253 11.5487 23.2518 11.4554 23.1987 11.3505C23.1456 11.2456 23.1139 11.1311 23.1055 11.0138C23.0971 10.8965 23.1122 10.7787 23.1499 10.6673C23.1876 10.5559 23.2471 10.4531 23.3249 10.3649C23.479 10.1853 23.6976 10.0735 23.9334 10.0539C24.1692 10.0342 24.4033 10.1083 24.5849 10.2599L38.5499 22.2599C38.64 22.3374 38.7138 22.432 38.7671 22.5382C38.8204 22.6444 38.8522 22.7601 38.8606 22.8787C38.8689 22.9972 38.8537 23.1162 38.8159 23.2289C38.778 23.3415 38.7182 23.4455 38.6399 23.5349C38.5539 23.6284 38.4496 23.7032 38.3335 23.7548C38.2174 23.8064 38.092 23.8337 37.9649 23.8349Z" fill="white"/>
<path d="M25.7849 33.0454H22.5899C22.3512 33.0454 22.1223 32.9506 21.9535 32.7818C21.7847 32.613 21.6899 32.3841 21.6899 32.1454V28.3654H17.9099C17.7911 28.3675 17.6732 28.3456 17.5631 28.3011C17.453 28.2565 17.353 28.1903 17.269 28.1063C17.185 28.0224 17.1188 27.9223 17.0743 27.8122C17.0298 27.7021 17.0079 27.5842 17.0099 27.4654V24.2704C17.0099 24.1522 17.0332 24.0352 17.0784 23.926C17.1236 23.8168 17.1899 23.7176 17.2735 23.634C17.3571 23.5505 17.4563 23.4842 17.5655 23.4389C17.6747 23.3937 17.7917 23.3704 17.9099 23.3704H21.6899V19.5904C21.6899 19.3517 21.7847 19.1228 21.9535 18.954C22.1223 18.7853 22.3512 18.6904 22.5899 18.6904H25.7849C25.9031 18.6904 26.0201 18.7137 26.1293 18.7589C26.2385 18.8042 26.3377 18.8705 26.4213 18.954C26.5049 19.0376 26.5712 19.1368 26.6164 19.246C26.6616 19.3552 26.6849 19.4722 26.6849 19.5904V23.3704H30.4649C30.7036 23.3704 30.9325 23.4652 31.1013 23.634C31.2701 23.8028 31.3649 24.0317 31.3649 24.2704V27.5254C31.3669 27.6442 31.345 27.7621 31.3005 27.8722C31.256 27.9823 31.1898 28.0824 31.1058 28.1663C31.0218 28.2503 30.9218 28.3165 30.8117 28.3611C30.7016 28.4056 30.5836 28.4275 30.4649 28.4254H26.6849V32.2054C26.6697 32.4336 26.5681 32.6474 26.401 32.8034C26.2338 32.9594 26.0135 33.0459 25.7849 33.0454ZM23.4899 31.2604H24.8849V27.5254C24.8849 27.4079 24.9083 27.2916 24.9537 27.1833C24.9991 27.0749 25.0656 26.9767 25.1494 26.8943C25.2332 26.8119 25.3325 26.747 25.4416 26.7034C25.5507 26.6599 25.6674 26.6384 25.7849 26.6404H29.5799V25.2304H25.7849C25.5462 25.2304 25.3173 25.1356 25.1485 24.9668C24.9797 24.798 24.8849 24.5691 24.8849 24.3304V20.4904H23.4899V24.2704C23.4899 24.3886 23.4666 24.5056 23.4214 24.6148C23.3762 24.724 23.3099 24.8233 23.2263 24.9068C23.1427 24.9904 23.0435 25.0567 22.9343 25.1019C22.8251 25.1471 22.7081 25.1704 22.5899 25.1704H18.8099V26.5804H22.5899C22.7074 26.5784 22.8241 26.5999 22.9332 26.6434C23.0423 26.687 23.1416 26.7519 23.2254 26.8343C23.3092 26.9167 23.3757 27.0149 23.4211 27.1233C23.4665 27.2316 23.4899 27.3479 23.4899 27.4654V31.2604Z" fill="#FF6961"/>
</g>
<defs>
<clipPath id="clip0_2007_15304">
<rect width="36" height="36" fill="white" transform="translate(6 6)"/>
</clipPath>
</defs>
</svg>
