<svg width="24" height="24" viewBox="0 0 24 24" fill="none" xmlns="http://www.w3.org/2000/svg">
<g clip-path="url(#clip0_1518_12909)">
<path d="M8.79994 13.36C8.04223 13.3574 7.31631 13.0552 6.78053 12.5194C6.24475 11.9836 5.94258 11.2577 5.93994 10.5C5.94258 9.74231 6.24475 9.01638 6.78053 8.4806C7.31631 7.94481 8.04223 7.64265 8.79994 7.64001C9.55765 7.64265 10.2836 7.94481 10.8194 8.4806C11.3551 9.01638 11.6573 9.74231 11.6599 10.5C11.6599 11.2585 11.3586 11.986 10.8223 12.5223C10.2859 13.0587 9.55846 13.36 8.79994 13.36V13.36ZM8.79994 8.84002C8.36049 8.84264 7.93979 9.01837 7.62904 9.32912C7.3183 9.63986 7.14257 10.0606 7.13994 10.5C7.13596 10.7205 7.17595 10.9396 7.25759 11.1445C7.33922 11.3494 7.46087 11.5359 7.61541 11.6933C7.76995 11.8506 7.9543 11.9756 8.15768 12.0608C8.36106 12.1461 8.5794 12.1901 8.79994 12.19C9.2402 12.19 9.66243 12.0151 9.97374 11.7038C10.2851 11.3925 10.4599 10.9703 10.4599 10.53C10.4639 10.3095 10.4239 10.0904 10.3423 9.88554C10.2607 9.68067 10.139 9.49411 9.98447 9.33678C9.82993 9.17944 9.64558 9.05447 9.4422 8.96918C9.23882 8.88389 9.02048 8.83998 8.79994 8.84002V8.84002Z" fill="#1B4A52"/>
<path d="M8.80003 21.88C7.61754 21.8816 6.44633 21.6501 5.35333 21.1988C4.26033 20.7476 3.26698 20.0853 2.43003 19.25C2.35012 19.1686 2.29464 19.0664 2.2699 18.955C2.24515 18.8436 2.25213 18.7276 2.29003 18.62C2.61181 17.1345 3.43197 15.8039 4.61434 14.8489C5.79671 13.8939 7.27016 13.372 8.79003 13.37C10.0591 13.3631 11.3038 13.7191 12.3774 14.3958C13.451 15.0726 14.3089 16.042 14.85 17.19V17.25L15.29 18.6C15.3238 18.7056 15.3277 18.8185 15.3012 18.9262C15.2748 19.0338 15.219 19.1321 15.14 19.21C13.4636 20.9044 11.1835 21.8646 8.80003 21.88V21.88ZM3.52003 18.63C4.96167 19.9419 6.84081 20.6689 8.79003 20.6689C10.7393 20.6689 12.6184 19.9419 14.06 18.63L13.75 17.63C13.3068 16.6805 12.5996 15.8786 11.713 15.3201C10.8264 14.7615 9.79785 14.4699 8.75003 14.48C7.54243 14.4973 6.37452 14.9138 5.42845 15.6645C4.48238 16.4152 3.81135 17.4579 3.52003 18.63V18.63Z" fill="#1B4A52"/>
<path d="M10.7101 19.72C10.551 19.72 10.3984 19.6568 10.2858 19.5443C10.1733 19.4318 10.1101 19.2791 10.1101 19.12V16.12C10.1101 15.9609 10.1733 15.8083 10.2858 15.6958C10.3984 15.5832 10.551 15.52 10.7101 15.52C10.8692 15.52 11.0219 15.5832 11.1344 15.6958C11.2469 15.8083 11.3101 15.9609 11.3101 16.12V19.12C11.3101 19.2791 11.2469 19.4318 11.1344 19.5443C11.0219 19.6568 10.8692 19.72 10.7101 19.72V19.72Z" fill="#1B4A52"/>
<path d="M12.2101 18.19H9.21011C9.05098 18.19 8.89836 18.1268 8.78584 18.0143C8.67332 17.9017 8.61011 17.7491 8.61011 17.59C8.61011 17.4309 8.67332 17.2782 8.78584 17.1657C8.89836 17.0532 9.05098 16.99 9.21011 16.99H12.2101C12.3692 16.99 12.5218 17.0532 12.6344 17.1657C12.7469 17.2782 12.8101 17.4309 12.8101 17.59C12.8101 17.7491 12.7469 17.9017 12.6344 18.0143C12.5218 18.1268 12.3692 18.19 12.2101 18.19V18.19Z" fill="#1B4A52"/>
<path d="M13.81 12.1H13.63C13.5085 12.0618 13.4024 11.986 13.3269 11.8835C13.2514 11.7811 13.2105 11.6573 13.21 11.53V2.83999C13.21 2.7612 13.2255 2.68318 13.2556 2.61038C13.2858 2.53759 13.33 2.47144 13.3857 2.41573C13.4414 2.36001 13.5076 2.31582 13.5804 2.28566C13.6531 2.25551 13.7312 2.23999 13.81 2.23999H21.31C21.3888 2.23999 21.4668 2.25551 21.5396 2.28566C21.6124 2.31582 21.6785 2.36001 21.7342 2.41573C21.7899 2.47144 21.8341 2.53759 21.8643 2.61038C21.8944 2.68318 21.91 2.7612 21.91 2.83999V8.69999C21.91 8.85912 21.8467 9.01173 21.7342 9.12426C21.6217 9.23678 21.4691 9.29999 21.31 9.29999H16.18L14.3 11.86C14.2431 11.9359 14.169 11.9972 14.0838 12.0389C13.9986 12.0806 13.9048 12.1016 13.81 12.1V12.1ZM14.41 3.43999V9.67999L15.41 8.33999C15.4684 8.26582 15.5428 8.20574 15.6276 8.16419C15.7124 8.12265 15.8055 8.10071 15.9 8.09999H20.73V3.43999H14.41Z" fill="#FF6961"/>
<path d="M19.3499 5.60003H15.7699C15.6108 5.60003 15.4582 5.53681 15.3457 5.42429C15.2331 5.31177 15.1699 5.15916 15.1699 5.00003C15.1699 4.92123 15.1854 4.84321 15.2156 4.77042C15.2457 4.69762 15.2899 4.63148 15.3457 4.57576C15.4014 4.52004 15.4675 4.47585 15.5403 4.4457C15.6131 4.41554 15.6911 4.40002 15.7699 4.40002H19.3499C19.4287 4.40002 19.5067 4.41554 19.5795 4.4457C19.6523 4.47585 19.7185 4.52004 19.7742 4.57576C19.8299 4.63148 19.8741 4.69762 19.9042 4.77042C19.9344 4.84321 19.9499 4.92123 19.9499 5.00003C19.9499 5.07882 19.9344 5.15684 19.9042 5.22964C19.8741 5.30243 19.8299 5.36857 19.7742 5.42429C19.7185 5.48 19.6523 5.5242 19.5795 5.55435C19.5067 5.5845 19.4287 5.60003 19.3499 5.60003V5.60003Z" fill="#FF6961"/>
<path d="M19.3499 7.18999H15.7699C15.6108 7.18999 15.4582 7.12678 15.3457 7.01426C15.2331 6.90173 15.1699 6.74912 15.1699 6.58999C15.1699 6.5112 15.1854 6.43318 15.2156 6.36038C15.2457 6.28759 15.2899 6.22144 15.3457 6.16573C15.4014 6.11001 15.4675 6.06582 15.5403 6.03566C15.6131 6.00551 15.6911 5.98999 15.7699 5.98999H19.3499C19.4287 5.98999 19.5067 6.00551 19.5795 6.03566C19.6523 6.06582 19.7185 6.11001 19.7742 6.16573C19.8299 6.22144 19.8741 6.28759 19.9042 6.36038C19.9344 6.43318 19.9499 6.5112 19.9499 6.58999C19.9499 6.66879 19.9344 6.7468 19.9042 6.8196C19.8741 6.89239 19.8299 6.95854 19.7742 7.01426C19.7185 7.06997 19.6523 7.11417 19.5795 7.14432C19.5067 7.17447 19.4287 7.18999 19.3499 7.18999V7.18999Z" fill="#FF6961"/>
</g>
<defs>
<clipPath id="clip0_1518_12909">
<rect width="24" height="24" fill="white"/>
</clipPath>
</defs>
</svg>
