<svg width="24" height="24" viewBox="0 0 24 24" fill="none" xmlns="http://www.w3.org/2000/svg">
<g clip-path="url(#clip0_1518_11899)">
<path d="M20.5499 18.58C20.4712 18.58 20.3931 18.5645 20.3203 18.5344C20.2475 18.5042 20.1814 18.46 20.1257 18.4043C20.07 18.3486 20.0258 18.2824 19.9956 18.2096C19.9655 18.1368 19.95 18.0588 19.95 17.98V8.13003C19.95 7.9709 20.0132 7.81829 20.1257 7.70576C20.2382 7.59324 20.3908 7.53003 20.5499 7.53003C20.7091 7.53003 20.8617 7.59324 20.9742 7.70576C21.0867 7.81829 21.15 7.9709 21.15 8.13003V17.98C21.15 18.1392 21.0867 18.2918 20.9742 18.4043C20.8617 18.5168 20.7091 18.58 20.5499 18.58V18.58Z" fill="#FF6961"/>
<path d="M20.5499 22C20.3908 22 20.2382 21.9368 20.1257 21.8243C20.0132 21.7118 19.95 21.5592 19.95 21.4V19.51C19.95 19.3509 20.0132 19.1983 20.1257 19.0858C20.2382 18.9732 20.3908 18.91 20.5499 18.91C20.7091 18.91 20.8617 18.9732 20.9742 19.0858C21.0867 19.1983 21.15 19.3509 21.15 19.51V21.4C21.15 21.5592 21.0867 21.7118 20.9742 21.8243C20.8617 21.9368 20.7091 22 20.5499 22V22Z" fill="#FF6961"/>
<path d="M12 13.38C11.9177 13.3778 11.8364 13.3609 11.76 13.33L2.4 9.19003C2.28777 9.14908 2.19004 9.07608 2.11893 8.98008C2.04783 8.88409 2.00647 8.76932 2 8.65003C2.00058 8.53595 2.03264 8.42424 2.09262 8.3272C2.15261 8.23016 2.23821 8.15155 2.34 8.10003L11.7 3.53003C11.7781 3.49274 11.8635 3.47339 11.95 3.47339C12.0365 3.47339 12.1219 3.49274 12.2 3.53003L21.56 7.53003C21.6634 7.57891 21.7515 7.65498 21.8149 7.75011C21.8783 7.84524 21.9146 7.95583 21.92 8.07003C21.9204 8.18308 21.8898 8.29408 21.8317 8.39102C21.7735 8.48796 21.6899 8.56716 21.59 8.62003L12.23 13.27C12.1632 13.3245 12.0843 13.3623 12 13.38ZM4.07 8.61003L12 12.11L19.94 8.16003L12 4.73003L4.07 8.61003Z" fill="#1B4A52"/>
<path d="M12.0001 19.59C9.16008 19.59 6.66008 18.5 5.44008 16.71C5.36973 16.6105 5.33136 16.4919 5.33008 16.37V10.1C5.33008 9.94087 5.39329 9.78826 5.50581 9.67574C5.61834 9.56321 5.77095 9.5 5.93008 9.5C6.08921 9.5 6.24182 9.56321 6.35434 9.67574C6.46686 9.78826 6.53008 9.94087 6.53008 10.1V16.18C7.21779 16.9349 8.06649 17.5255 9.01334 17.9081C9.96019 18.2906 10.981 18.4553 12.0001 18.39H12.2001C14.5301 18.39 16.5201 17.51 17.4501 16.19V10.1C17.4501 9.94087 17.5133 9.78826 17.6258 9.67574C17.7383 9.56321 17.8909 9.5 18.0501 9.5C18.2092 9.5 18.3618 9.56321 18.4743 9.67574C18.5869 9.78826 18.6501 9.94087 18.6501 10.1V16.37C18.649 16.4842 18.6142 16.5955 18.5501 16.69C17.4601 18.42 15.0401 19.53 12.2201 19.59H12.0001Z" fill="#1B4A52"/>
<path d="M20.5499 20.38C20.3898 20.3819 20.2354 20.3209 20.1199 20.21L19.3299 19.42C19.2193 19.3061 19.1575 19.1537 19.1575 18.995C19.1575 18.8363 19.2193 18.6838 19.3299 18.57L20.1199 17.78C20.2337 17.6694 20.3862 17.6075 20.5449 17.6075C20.7036 17.6075 20.856 17.6694 20.9699 17.78L21.7599 18.57C21.8171 18.625 21.8625 18.691 21.8936 18.764C21.9246 18.8371 21.9407 18.9156 21.9407 18.995C21.9407 19.0743 21.9246 19.1529 21.8936 19.2259C21.8625 19.2989 21.8171 19.3649 21.7599 19.42L20.9699 20.21C20.9145 20.2646 20.8489 20.3077 20.7769 20.3369C20.7048 20.3661 20.6276 20.3807 20.5499 20.38V20.38Z" fill="#FF6961"/>
</g>
<defs>
<clipPath id="clip0_1518_11899">
<rect width="24" height="24" fill="white"/>
</clipPath>
</defs>
</svg>
