<svg width="48" height="48" viewBox="0 0 48 48" fill="none" xmlns="http://www.w3.org/2000/svg">
<path d="M0 23.9565C0 19.2184 1.40758 14.5866 4.04473 10.647C6.68188 6.70737 10.4302 3.6368 14.8156 1.82359C19.201 0.01038 24.0266 -0.464039 28.6822 0.460328C33.3377 1.3847 37.6141 3.66633 40.9706 7.01671C44.327 10.3671 46.6128 14.6357 47.5388 19.2828C48.4649 23.9299 47.9896 28.7468 46.1731 33.1243C44.3566 37.5017 41.2805 41.2432 37.3337 43.8756C33.3869 46.508 28.7468 47.913 24 47.913C17.6348 47.913 11.5303 45.389 7.02944 40.8963C2.52856 36.4036 0 30.3102 0 23.9565H0Z" fill="#1B4A52"/>
<path d="M32.7449 22.3347H30.1049C29.8662 22.3347 29.6373 22.2399 29.4685 22.0711C29.2998 21.9023 29.2049 21.6734 29.2049 21.4347V18.3747H26.2049C25.9662 18.3747 25.7373 18.2799 25.5685 18.1111C25.3998 17.9423 25.3049 17.7134 25.3049 17.4747V14.6397C25.3049 14.401 25.3998 14.1721 25.5685 14.0033C25.7373 13.8345 25.9662 13.7397 26.2049 13.7397H29.2049V10.6197C29.2049 10.381 29.2998 10.1521 29.4685 9.98333C29.6373 9.81455 29.8662 9.71973 30.1049 9.71973H32.7449C32.9836 9.71973 33.2125 9.81455 33.3813 9.98333C33.5501 10.1521 33.6449 10.381 33.6449 10.6197V13.7397H36.6449C36.7631 13.7397 36.8802 13.763 36.9893 13.8082C37.0985 13.8535 37.1978 13.9198 37.2813 14.0033C37.3649 14.0869 37.4312 14.1861 37.4764 14.2953C37.5217 14.4045 37.5449 14.5215 37.5449 14.6397V17.3997C37.5449 17.5179 37.5217 17.6349 37.4764 17.7441C37.4312 17.8533 37.3649 17.9526 37.2813 18.0361C37.1978 18.1197 37.0985 18.186 36.9893 18.2312C36.8802 18.2764 36.7631 18.2997 36.6449 18.2997H33.6449V21.3747C33.6532 21.4979 33.636 21.6214 33.5944 21.7376C33.5529 21.8538 33.4879 21.9602 33.4035 22.0503C33.3191 22.1403 33.2171 22.212 33.1038 22.261C32.9905 22.3099 32.8683 22.335 32.7449 22.3347ZM31.0049 20.5347H31.8449V17.3997C31.8449 17.2815 31.8682 17.1645 31.9134 17.0553C31.9587 16.9461 32.025 16.8469 32.1085 16.7633C32.1921 16.6798 32.2913 16.6135 32.4005 16.5682C32.5097 16.523 32.6267 16.4997 32.7449 16.4997H35.7449V15.5397H32.7449C32.6267 15.5397 32.5097 15.5164 32.4005 15.4712C32.2913 15.426 32.1921 15.3597 32.1085 15.2761C32.025 15.1926 31.9587 15.0933 31.9134 14.9841C31.8682 14.8749 31.8449 14.7579 31.8449 14.6397V11.5047H31.0049V14.6397C31.0049 14.7579 30.9817 14.8749 30.9364 14.9841C30.8912 15.0933 30.8249 15.1926 30.7413 15.2761C30.6578 15.3597 30.5585 15.426 30.4493 15.4712C30.3402 15.5164 30.2231 15.5397 30.1049 15.5397H27.1049V16.4997H30.1049C30.2231 16.4997 30.3402 16.523 30.4493 16.5682C30.5585 16.6135 30.6578 16.6798 30.7413 16.7633C30.8249 16.8469 30.8912 16.9461 30.9364 17.0553C30.9817 17.1645 31.0049 17.2815 31.0049 17.3997V20.5347Z" fill="#FF6961"/>
<path d="M22.2 34.1253C15.975 34.1253 11.085 28.3203 10.89 28.1253C10.7528 27.9671 10.6772 27.7648 10.6772 27.5553C10.6772 27.3459 10.7528 27.1436 10.89 26.9854C11.085 26.7304 15.975 20.9854 22.2 20.9854C28.425 20.9854 33.315 26.7904 33.525 26.9854C33.6566 27.1462 33.7285 27.3476 33.7285 27.5553C33.7285 27.7631 33.6566 27.9645 33.525 28.1253C33.315 28.3203 28.5 34.1253 22.2 34.1253ZM12.795 27.4954C14.145 28.8904 17.895 32.3253 22.2 32.3253C26.505 32.3253 30.255 28.8904 31.605 27.4954C30.255 26.1004 26.505 22.6653 22.2 22.6653C17.895 22.6653 14.145 26.1004 12.795 27.4954Z" fill="white"/>
<path d="M22.2 30.585C21.3426 30.585 20.5045 30.3308 19.7916 29.8545C19.0787 29.3781 18.5231 28.7011 18.195 27.909C17.8669 27.1169 17.781 26.2452 17.9483 25.4043C18.1156 24.5634 18.5284 23.791 19.1347 23.1847C19.7409 22.5785 20.5134 22.1656 21.3543 21.9983C22.1952 21.8311 23.0668 21.9169 23.8589 22.245C24.651 22.5731 25.3281 23.1288 25.8044 23.8416C26.2808 24.5545 26.535 25.3927 26.535 26.25C26.531 27.3985 26.073 28.4989 25.2609 29.311C24.4488 30.1231 23.3485 30.5811 22.2 30.585ZM22.2 23.715C21.6986 23.715 21.2085 23.8637 20.7916 24.1423C20.3747 24.4208 20.0498 24.8167 19.858 25.2799C19.6661 25.7431 19.6159 26.2529 19.7137 26.7446C19.8115 27.2363 20.053 27.688 20.4075 28.0426C20.762 28.3971 21.2137 28.6385 21.7054 28.7363C22.1972 28.8341 22.7069 28.7839 23.1701 28.5921C23.6333 28.4002 24.0292 28.0753 24.3078 27.6584C24.5863 27.2415 24.735 26.7514 24.735 26.25C24.735 25.5777 24.4679 24.9329 23.9925 24.4575C23.5171 23.9821 22.8723 23.715 22.2 23.715Z" fill="white"/>
</svg>
