<svg width="18" height="17" viewBox="0 0 18 17" fill="none" xmlns="http://www.w3.org/2000/svg">
<path d="M12.2091 0.265381C12.3781 0.265381 12.5467 0.282227 12.713 0.312986C12.9512 0.357065 13.1898 0.399888 13.4242 0.461909C15.8222 1.08412 17.6151 3.2479 17.8913 5.84404C18.0693 7.47681 17.6364 9.11846 16.6852 10.4184C15.734 11.7183 14.3398 12.5734 12.8004 12.8011C12.5491 12.8375 12.2954 12.8536 12.0417 12.8491C11.8852 12.8491 11.8001 12.899 11.7224 13.0429C11.0712 14.2511 10.4121 15.4551 9.75523 16.659C9.7266 16.7114 9.64669 16.6901 9.64669 16.6305V11.0863C9.64669 10.9814 9.73173 10.8964 9.83664 10.8964C10.567 10.8964 11.298 10.8964 12.0298 10.8964C14.0316 10.8932 15.8152 9.21096 16.0397 7.11479C16.2943 4.73444 14.813 2.66342 12.5744 2.27705C12.3787 2.24494 12.181 2.22891 11.983 2.22909C11.5308 2.2261 11.0786 2.22594 10.622 2.22632C10.0803 2.22676 9.64111 1.78797 9.64111 1.24625C9.64111 0.704532 10.0803 0.265381 10.622 0.265381H12.2091Z" fill="#1B4A52"/>
<path d="M7.32124 0.265381C7.86296 0.265381 8.30211 0.704532 8.30211 1.24625C8.30211 1.78797 7.86296 2.22712 7.32124 2.22712H5.97137C3.8633 2.22712 2.05223 3.95342 1.87455 6.13134C1.68868 8.40478 3.11315 10.4082 5.21379 10.8193C5.45705 10.8662 5.70367 10.8908 5.95093 10.8928C6.27694 10.8968 6.60295 10.8981 6.93019 10.8982C7.67946 10.8984 8.28687 11.5038 8.28687 12.253V12.8024C8.28687 12.8184 8.28496 12.8457 8.26903 12.8443C7.10217 12.8212 5.92714 12.9689 4.7692 12.7315C2.29981 12.2253 0.366815 10.0336 0.0497301 7.39305C-0.356941 4.0226 1.77158 0.955587 4.93276 0.357356C5.04262 0.336647 5.15289 0.318532 5.26315 0.300656C5.40648 0.277419 5.55144 0.265381 5.69664 0.265381H7.32124Z" fill="#1B4A52"/>
</svg>
