<svg width="48" height="48" viewBox="0 0 48 48" fill="none" xmlns="http://www.w3.org/2000/svg">
<path d="M26.9999 37.3002H9.41991C8.09382 37.3002 6.82205 36.7734 5.88437 35.8357C4.94669 34.898 4.41992 33.6262 4.41992 32.3002V12.1602C4.41992 10.8341 4.94669 9.5623 5.88437 8.62462C6.82205 7.68694 8.09382 7.16016 9.41991 7.16016H33.6199C34.9425 7.16545 36.2092 7.69456 37.1425 8.63167C38.0759 9.56878 38.5999 10.8375 38.5999 12.1602V33.4002C38.6026 33.5568 38.574 33.7124 38.5159 33.8579C38.4578 34.0033 38.3713 34.1358 38.2614 34.2475C38.1516 34.3592 38.0206 34.4479 37.8761 34.5085C37.7317 34.569 37.5766 34.6002 37.4199 34.6002C37.1016 34.6002 36.7964 34.4737 36.5714 34.2487C36.3463 34.0236 36.2199 33.7184 36.2199 33.4002V12.1602C36.2199 11.4706 35.946 10.8093 35.4584 10.3217C34.9708 9.83408 34.3095 9.56015 33.6199 9.56015H9.41991C8.73034 9.56015 8.06902 9.83408 7.58142 10.3217C7.09383 10.8093 6.81992 11.4706 6.81992 12.1602V32.3002C6.81992 32.9897 7.09383 33.651 7.58142 34.1386C8.06902 34.6262 8.73034 34.9002 9.41991 34.9002H26.9999C27.3182 34.9002 27.6234 35.0266 27.8484 35.2516C28.0735 35.4767 28.1999 35.7819 28.1999 36.1002C28.1999 36.4184 28.0735 36.7236 27.8484 36.9487C27.6234 37.1737 27.3182 37.3002 26.9999 37.3002Z" fill="#1B4A52"/>
<path d="M37.4199 17.6202H5.6199C5.30164 17.6202 4.99644 17.4938 4.77139 17.2687C4.54635 17.0437 4.41992 16.7385 4.41992 16.4202C4.41992 16.102 4.54635 15.7967 4.77139 15.5717C4.99644 15.3466 5.30164 15.2202 5.6199 15.2202H37.4199C37.5766 15.2202 37.7317 15.2514 37.8761 15.3119C38.0206 15.3725 38.1516 15.4612 38.2614 15.5729C38.3713 15.6846 38.4578 15.817 38.5159 15.9625C38.574 16.108 38.6026 16.2636 38.5999 16.4202C38.6026 16.5768 38.574 16.7324 38.5159 16.8779C38.4578 17.0234 38.3713 17.1559 38.2614 17.2676C38.1516 17.3793 38.0206 17.468 37.8761 17.5285C37.7317 17.5891 37.5766 17.6202 37.4199 17.6202Z" fill="#1B4A52"/>
<path d="M14.16 12.3798C13.8417 12.3798 13.5365 12.2534 13.3114 12.0284C13.0864 11.8033 12.96 11.4981 12.96 11.1798V5.51982C12.96 5.20156 13.0864 4.89634 13.3114 4.6713C13.5365 4.44625 13.8417 4.31982 14.16 4.31982C14.4782 4.31982 14.7834 4.44625 15.0085 4.6713C15.2335 4.89634 15.36 5.20156 15.36 5.51982V11.1798C15.36 11.4981 15.2335 11.8033 15.0085 12.0284C14.7834 12.2534 14.4782 12.3798 14.16 12.3798Z" fill="#1B4A52"/>
<path d="M28 12.6C27.6818 12.6 27.3766 12.4736 27.1515 12.2486C26.9265 12.0235 26.8 11.7183 26.8 11.4V5.74004C26.8 5.42178 26.9265 5.11655 27.1515 4.89151C27.3766 4.66647 27.6818 4.54004 28 4.54004C28.3183 4.54004 28.6235 4.66647 28.8486 4.89151C29.0736 5.11655 29.2 5.42178 29.2 5.74004V11.4C29.2 11.7183 29.0736 12.0235 28.8486 12.2486C28.6235 12.4736 28.3183 12.6 28 12.6Z" fill="#1B4A52"/>
<path d="M13.5201 23.42H10C9.68179 23.42 9.37656 23.2936 9.15152 23.0686C8.92648 22.8435 8.80005 22.5383 8.80005 22.22C8.80005 21.9018 8.92648 21.5965 9.15152 21.3715C9.37656 21.1465 9.68179 21.02 10 21.02H13.48C13.7983 21.02 14.1035 21.1465 14.3286 21.3715C14.5536 21.5965 14.68 21.9018 14.68 22.22C14.6802 22.5315 14.5593 22.8308 14.3428 23.0547C14.1264 23.2786 13.8313 23.4096 13.5201 23.42Z" fill="#1B4A52"/>
<path d="M23.2601 23.42H19.7801C19.4618 23.42 19.1566 23.2936 18.9315 23.0686C18.7065 22.8435 18.5801 22.5383 18.5801 22.22C18.5801 21.9018 18.7065 21.5965 18.9315 21.3715C19.1566 21.1465 19.4618 21.02 19.7801 21.02H23.2601C23.5783 21.02 23.8836 21.1465 24.1086 21.3715C24.3337 21.5965 24.4601 21.9018 24.4601 22.22C24.4601 22.5383 24.3337 22.8435 24.1086 23.0686C23.8836 23.2936 23.5783 23.42 23.2601 23.42Z" fill="#1B4A52"/>
<path d="M32.98 23.42H29.5C29.1818 23.42 28.8766 23.2936 28.6515 23.0686C28.4265 22.8435 28.3 22.5383 28.3 22.22C28.3 21.9018 28.4265 21.5965 28.6515 21.3715C28.8766 21.1465 29.1818 21.02 29.5 21.02H32.98C33.2983 21.02 33.6035 21.1465 33.8286 21.3715C34.0536 21.5965 34.18 21.9018 34.18 22.22C34.18 22.5383 34.0536 22.8435 33.8286 23.0686C33.6035 23.2936 33.2983 23.42 32.98 23.42Z" fill="#1B4A52"/>
<path d="M13.5201 30.4H10C9.68179 30.4 9.37656 30.2736 9.15152 30.0485C8.92648 29.8235 8.80005 29.5183 8.80005 29.2C8.80005 28.8817 8.92648 28.5765 9.15152 28.3515C9.37656 28.1264 9.68179 28 10 28H13.48C13.7983 28 14.1035 28.1264 14.3286 28.3515C14.5536 28.5765 14.68 28.8817 14.68 29.2C14.6802 29.5114 14.5593 29.8108 14.3428 30.0347C14.1264 30.2586 13.8313 30.3896 13.5201 30.4Z" fill="#1B4A52"/>
<path d="M23.2601 30.4H19.7801C19.4618 30.4 19.1566 30.2736 18.9315 30.0485C18.7065 29.8235 18.5801 29.5183 18.5801 29.2C18.5801 28.8817 18.7065 28.5765 18.9315 28.3515C19.1566 28.1264 19.4618 28 19.7801 28H23.2601C23.5783 28 23.8836 28.1264 24.1086 28.3515C24.3337 28.5765 24.4601 28.8817 24.4601 29.2C24.4601 29.5183 24.3337 29.8235 24.1086 30.0485C23.8836 30.2736 23.5783 30.4 23.2601 30.4Z" fill="#1B4A52"/>
<path d="M42.7001 43.7801H23.2601C23.0497 43.7782 22.8434 43.722 22.6612 43.6169C22.4789 43.5118 22.327 43.3613 22.2201 43.1801C22.1128 42.9984 22.0562 42.7912 22.0562 42.5801C22.0562 42.369 22.1128 42.1618 22.2201 41.9801L31.9401 25.1401C32.0455 24.9576 32.1971 24.806 32.3796 24.7007C32.5622 24.5954 32.7693 24.54 32.9801 24.5401C33.1913 24.5379 33.3992 24.5924 33.5821 24.6979C33.765 24.8035 33.9163 24.9562 34.0201 25.1401L43.7401 41.9801C43.8474 42.1618 43.904 42.369 43.904 42.5801C43.904 42.7912 43.8474 42.9984 43.7401 43.1801C43.6332 43.3613 43.4812 43.5118 43.299 43.6169C43.1168 43.722 42.9104 43.7782 42.7001 43.7801ZM25.3401 41.3801H40.6201L32.9801 28.1401L25.3401 41.3801Z" fill="#E2504B"/>
<path d="M32.98 37.3001C32.6618 37.3001 32.3565 37.1736 32.1315 36.9486C31.9065 36.7236 31.78 36.4183 31.78 36.1001V32.7801C31.78 32.4618 31.9065 32.1566 32.1315 31.9315C32.3565 31.7065 32.6618 31.5801 32.98 31.5801C33.2983 31.5801 33.6035 31.7065 33.8286 31.9315C34.0536 32.1566 34.18 32.4618 34.18 32.7801V36.1001C34.18 36.4183 34.0536 36.7236 33.8286 36.9486C33.6035 37.1736 33.2983 37.3001 32.98 37.3001Z" fill="#E2504B"/>
<path d="M32.9801 40.82C33.7643 40.82 34.4001 40.1842 34.4001 39.4C34.4001 38.6157 33.7643 37.98 32.9801 37.98C32.1958 37.98 31.5601 38.6157 31.5601 39.4C31.5601 40.1842 32.1958 40.82 32.9801 40.82Z" fill="#E2504B"/>
</svg>
