<svg width="48" height="48" viewBox="0 0 48 48" fill="none" xmlns="http://www.w3.org/2000/svg">
<path d="M24 40.1598C23.7991 40.161 23.6013 40.1101 23.426 40.0119C23.2507 39.9137 23.1039 39.7717 23 39.5998C21.86 37.8598 12.02 22.3998 12.02 16.2798C12.02 13.0972 13.2843 10.0449 15.5348 7.7945C17.7852 5.54407 20.8374 4.27979 24.02 4.27979C27.2026 4.27979 30.2549 5.54407 32.5053 7.7945C34.7557 10.0449 36.02 13.0972 36.02 16.2798C36.02 22.3998 26.18 37.8598 25.06 39.5998C24.9465 39.7765 24.7892 39.9209 24.6035 40.019C24.4178 40.1171 24.21 40.1656 24 40.1598ZM24 6.71979C21.4627 6.71978 19.029 7.72636 17.233 9.51863C15.437 11.3109 14.4253 13.7425 14.42 16.2798C14.42 20.4198 20.62 31.2598 24 36.7198C27.38 31.2598 33.58 20.4198 33.58 16.2798C33.5747 13.7425 32.5631 11.3109 30.7671 9.51863C28.971 7.72636 26.5373 6.71978 24 6.71979Z" fill="#1B4A52"/>
<path d="M24 43.6402C20.32 43.6402 8.28003 43.3402 8.28003 39.6402C8.28003 38.8402 8.28003 36.7402 18.28 35.9402C18.5972 35.9235 18.9084 36.0312 19.1474 36.2403C19.3864 36.4495 19.5344 36.7436 19.56 37.0602C19.5737 37.2168 19.5559 37.3746 19.5077 37.5242C19.4595 37.6739 19.3819 37.8124 19.2794 37.9317C19.1769 38.0509 19.0517 38.1485 18.911 38.2186C18.7702 38.2888 18.6169 38.3301 18.46 38.3401C16.004 38.4301 13.5732 38.8678 11.24 39.6402C15.3939 40.8127 19.7075 41.319 24.02 41.1402C28.3325 41.319 32.6461 40.8127 36.8 39.6402C34.4669 38.8678 32.036 38.4301 29.58 38.3401C29.4231 38.3301 29.2698 38.2888 29.1291 38.2186C28.9884 38.1485 28.8631 38.0509 28.7607 37.9317C28.6582 37.8124 28.5806 37.6739 28.5324 37.5242C28.4842 37.3746 28.4664 37.2168 28.48 37.0602C28.5104 36.7455 28.6598 36.4543 28.8977 36.2461C29.1357 36.0379 29.4441 35.9285 29.76 35.9402C39.76 36.7402 39.76 38.8402 39.76 39.6402C39.72 43.3402 27.68 43.6402 24 43.6402Z" fill="#1B4A52"/>
<path d="M24 22.2402C22.4087 22.2402 20.8826 21.6081 19.7574 20.4829C18.6321 19.3577 18 17.8315 18 16.2402C18 14.6489 18.6321 13.1228 19.7574 11.9976C20.8826 10.8724 22.4087 10.2402 24 10.2402C25.5913 10.2402 27.1174 10.8724 28.2426 11.9976C29.3679 13.1228 30 14.6489 30 16.2402C30 17.8315 29.3679 19.3577 28.2426 20.4829C27.1174 21.6081 25.5913 22.2402 24 22.2402ZM24 12.4802C23.024 12.4802 22.088 12.8679 21.3979 13.5581C20.7077 14.2482 20.32 15.1842 20.32 16.1602C20.3253 17.1346 20.7147 18.0676 21.4037 18.7566C22.0927 19.4456 23.0256 19.835 24 19.8402C24.9744 19.835 25.9073 19.4456 26.5963 18.7566C27.2853 18.0676 27.6747 17.1346 27.68 16.1602C27.68 15.1842 27.2923 14.2482 26.6021 13.5581C25.912 12.8679 24.976 12.4802 24 12.4802Z" fill="#E2504B"/>
</svg>
