<svg width="25" height="25" viewBox="0 0 25 25" fill="none" xmlns="http://www.w3.org/2000/svg">
<path d="M24.165 8.84292L15.165 0.84292C14.871 0.58092 14.449 0.51492 14.091 0.67792C13.731 0.83892 13.5 1.19592 13.5 1.58992V4.79692C10.496 5.60292 0.5 9.35492 0.5 23.5899C0.5 24.0689 0.84 24.4819 1.311 24.5719C1.375 24.5839 1.438 24.5899 1.5 24.5899C1.902 24.5899 2.274 24.3469 2.428 23.9609C5.393 16.5479 11.173 15.0009 13.499 14.6779V17.5899C13.499 17.9839 13.73 18.3409 14.089 18.5019C14.222 18.5619 14.361 18.5899 14.5 18.5899C14.74 18.5899 14.978 18.5029 15.165 18.3369L24.165 10.3369C24.378 10.1479 24.5 9.87492 24.5 9.58992C24.5 9.30492 24.378 9.03192 24.165 8.84292Z" fill="#1B4A52"/>
</svg>
