<svg width="22" height="25" viewBox="0 0 22 25" fill="none" xmlns="http://www.w3.org/2000/svg">
<path d="M18.7668 16.1392C18.1032 15.1874 17.7717 14.115 17.7717 12.923C17.7717 11.8365 18.0846 10.8411 18.7091 9.93737C19.0456 9.44701 19.5938 8.87985 20.3535 8.23551C19.8535 7.62031 19.3536 7.13954 18.8533 6.7933C17.9495 6.1684 16.9253 5.85596 15.7812 5.85596C15.0987 5.85596 14.2668 6.01933 13.2862 6.34648C12.3439 6.67337 11.6563 6.837 11.2238 6.837C10.8967 6.837 10.2334 6.69287 9.23341 6.40427C8.22383 6.11577 7.37282 5.97164 6.68053 5.97164C5.02671 5.97164 3.66134 6.66403 2.58447 8.04849C1.49795 9.45236 0.95459 11.2504 0.95459 13.4427C0.95459 15.7696 1.66147 18.1877 3.07484 20.6973C4.5074 23.1876 5.95456 24.433 7.41606 24.433C7.90643 24.433 8.54107 24.2694 9.31979 23.9425C10.0988 23.6255 10.7814 23.4666 11.368 23.4666C11.9928 23.4666 12.7189 23.6204 13.5457 23.928C14.4206 24.2354 15.0939 24.3893 15.5649 24.3893C16.7956 24.3893 18.0314 23.4469 19.2716 21.5624C20.0791 20.3605 20.6705 19.1587 21.0455 17.9567C20.1897 17.6969 19.4303 17.0911 18.7668 16.1392Z" fill="url(#paint0_linear_2074_366)"/>
<path d="M13.8629 4.99069C14.4688 4.38495 14.9158 3.72141 15.2044 3.00038C15.4831 2.27925 15.6222 1.62531 15.6222 1.0387C15.6222 1.00036 15.6201 0.952218 15.6149 0.894477C15.6106 0.836786 15.608 0.788846 15.608 0.750352C15.5983 0.721456 15.5864 0.668565 15.5721 0.591729C15.5577 0.514892 15.5457 0.462001 15.5359 0.433105C13.8436 0.827542 12.6418 1.53902 11.9302 2.5679C11.2093 3.60638 10.8341 4.84182 10.8052 6.27448C11.4494 6.21674 11.9492 6.13516 12.3051 6.02932C12.8247 5.8562 13.3433 5.50991 13.8629 4.99069Z" fill="url(#paint1_linear_2074_366)"/>
<defs>
<linearGradient id="paint0_linear_2074_366" x1="1.22981" y1="14.5452" x2="19.1173" y2="15.9683" gradientUnits="userSpaceOnUse">
<stop stop-color="#252424"/>
<stop offset="1" stop-color="#424242"/>
</linearGradient>
<linearGradient id="paint1_linear_2074_366" x1="10.8712" y1="3.16536" x2="15.1712" y2="3.42622" gradientUnits="userSpaceOnUse">
<stop stop-color="#252424"/>
<stop offset="1" stop-color="#424242"/>
</linearGradient>
</defs>
</svg>
