<svg width="24" height="25" viewBox="0 0 24 25" fill="none" xmlns="http://www.w3.org/2000/svg">
<g clip-path="url(#clip0_6_454)">
<path d="M21.7508 10.7222L4.20381 0.692077C3.90129 0.519277 3.56449 0.433105 3.22769 0.433105C3.22084 0.433105 3.21409 0.43402 3.20735 0.43402C3.16209 0.434477 3.11695 0.436763 3.07192 0.440305C3.05158 0.441905 3.03135 0.444077 3.01101 0.446363C2.97581 0.450248 2.94072 0.455163 2.90575 0.460991C2.89306 0.463163 2.88026 0.463848 2.86758 0.466248L2.86826 0.467163C2.64964 0.507505 2.43626 0.584534 2.23798 0.69962C1.63066 1.05196 1.25684 1.70099 1.25684 2.40305V22.4633C1.25684 23.1653 1.63066 23.8144 2.23798 24.1667C2.43615 24.2818 2.64952 24.3589 2.86815 24.3993L2.86758 24.4001C2.87901 24.4022 2.89055 24.4029 2.90186 24.4048C2.93946 24.4112 2.97718 24.4164 3.01501 24.4204C3.03398 24.4225 3.05284 24.4245 3.07181 24.426C3.11626 24.4296 3.16061 24.4316 3.20518 24.4322C3.21272 24.4323 3.22015 24.4332 3.22769 24.4332C3.56449 24.4332 3.90129 24.347 4.20381 24.1742L21.7508 14.144C22.3643 13.7932 22.7429 13.1409 22.7429 12.434C22.7429 12.434 22.7429 12.4337 22.7429 12.4336C22.7429 12.4336 22.7429 12.4332 22.7429 12.4331C22.7429 12.4331 22.7429 12.4328 22.7429 12.4326C22.7429 12.4326 22.7429 12.4323 22.7429 12.4322C22.7429 11.7254 22.3643 11.0731 21.7508 10.7222ZM14.8116 8.73036L13.0669 11.0192L8.62804 5.19562L14.8116 8.73036ZM20.9 12.6556L8.62804 19.6706L16.3119 9.5899L20.8999 12.2124C20.9794 12.2578 21.0287 12.3428 21.0287 12.4339C21.0286 12.5253 20.9792 12.6104 20.9 12.6556Z" fill="url(#paint0_linear_6_454)"/>
</g>
<defs>
<linearGradient id="paint0_linear_6_454" x1="1.55117" y1="11.659" x2="20.7188" y2="12.9213" gradientUnits="userSpaceOnUse">
<stop stop-color="#252424"/>
<stop offset="1" stop-color="#424242"/>
</linearGradient>
<clipPath id="clip0_6_454">
<rect width="24" height="24" fill="white" transform="translate(0 0.433105)"/>
</clipPath>
</defs>
</svg>
