<svg width="56" height="56" viewBox="0 0 56 56" fill="none" xmlns="http://www.w3.org/2000/svg">
<path d="M28 34.8133C25.027 34.818 22.1194 33.9406 19.6452 32.2922C17.1711 30.6439 15.2414 28.2987 14.1005 25.5533C12.9596 22.808 12.6587 19.7859 13.2359 16.8694C13.813 13.953 15.2423 11.2733 17.3429 9.16949C19.4435 7.06564 22.121 5.63216 25.0365 5.05046C27.952 4.46876 30.9746 4.76497 33.7217 5.90162C36.4688 7.03826 38.817 8.96425 40.4692 11.4359C42.1214 13.9075 43.0033 16.8137 43.0033 19.7867C43.0033 23.768 41.4233 27.5865 38.6103 30.4039C35.7973 33.2213 31.9812 34.8072 28 34.8133ZM28 7.58333C25.5798 7.57872 23.2127 8.29246 21.1984 9.63417C19.1842 10.9759 17.6134 12.8852 16.6851 15.1203C15.7568 17.3554 15.5128 19.8157 15.9838 22.1896C16.4548 24.5635 17.6198 26.7442 19.3311 28.4555C21.0424 30.1669 23.2231 31.3318 25.5971 31.8029C27.971 32.2739 30.4313 32.0298 32.6664 31.1015C34.9014 30.1732 36.8107 28.6024 38.1525 26.5882C39.4942 24.574 40.2079 22.2069 40.2033 19.7867C40.2033 16.5501 38.9176 13.4462 36.629 11.1576C34.3405 8.86904 31.2365 7.58333 28 7.58333Z" fill="#1B4A52"/>
<path d="M28 30.17C25.9464 30.17 23.9389 29.561 22.2314 28.4201C20.5238 27.2792 19.193 25.6575 18.4071 23.7602C17.6212 21.8629 17.4156 19.7751 17.8162 17.761C18.2169 15.7468 19.2058 13.8967 20.6579 12.4445C22.11 10.9924 23.9602 10.0035 25.9743 9.60284C27.9885 9.2022 30.0763 9.40781 31.9736 10.1937C33.8709 10.9796 35.4925 12.3105 36.6335 14.018C37.7744 15.7255 38.3834 17.733 38.3834 19.7867C38.3834 21.1502 38.1148 22.5004 37.593 23.7602C37.0712 25.0199 36.3063 26.1646 35.3422 27.1288C34.378 28.093 33.2333 28.8578 31.9736 29.3796C30.7138 29.9014 29.3636 30.17 28 30.17ZM28 12.2033C26.5002 12.2033 25.034 12.6481 23.787 13.4813C22.5399 14.3146 21.5679 15.499 20.9939 16.8846C20.42 18.2703 20.2698 19.7951 20.5624 21.2661C20.855 22.7371 21.5773 24.0883 22.6378 25.1489C23.6984 26.2094 25.0496 26.9317 26.5206 27.2243C27.9916 27.5169 29.5164 27.3667 30.902 26.7927C32.2877 26.2188 33.4721 25.2468 34.3053 23.9997C35.1386 22.7527 35.5834 21.2865 35.5834 19.7867C35.5772 17.7773 34.7763 15.852 33.3555 14.4312C31.9346 13.0104 30.0094 12.2095 28 12.2033Z" fill="#FF6961"/>
<path d="M17.0801 51.2166H16.8934C16.6163 51.1782 16.357 51.0577 16.1491 50.8705C15.9411 50.6834 15.794 50.4382 15.7267 50.1666L14.3267 44.5666L8.96006 46.69C8.68644 46.7917 8.38847 46.8082 8.10529 46.7374C7.82211 46.6666 7.56697 46.5118 7.37339 46.2933C7.18332 46.074 7.06743 45.8002 7.04229 45.511C7.01714 45.2219 7.08403 44.9322 7.23339 44.6833L16.3334 29.0733C16.4252 28.9139 16.5476 28.7742 16.6935 28.6621C16.8394 28.55 17.006 28.4678 17.1837 28.4201C17.3614 28.3724 17.5467 28.3602 17.7291 28.3842C17.9115 28.4082 18.0874 28.468 18.2467 28.56C18.4085 28.6495 18.5505 28.7707 18.6644 28.9164C18.7783 29.062 18.8617 29.2291 18.9096 29.4077C18.9575 29.5862 18.969 29.7726 18.9433 29.9557C18.9176 30.1388 18.8553 30.3148 18.7601 30.4733L11.6667 42.5833L14.7934 41.3933C14.9715 41.3067 15.167 41.2616 15.3651 41.2616C15.5631 41.2616 15.7586 41.3067 15.9367 41.3933C16.1173 41.4817 16.2759 41.6093 16.4011 41.7667C16.5262 41.9241 16.6147 42.1074 16.6601 42.3033L17.6167 46.06L24.7801 33.6933C24.8696 33.5316 24.9908 33.3895 25.1364 33.2756C25.2821 33.1617 25.4492 33.0784 25.6277 33.0304C25.8063 32.9825 25.9927 32.9711 26.1758 32.9968C26.3589 33.0225 26.5349 33.0848 26.6934 33.18C27.0107 33.3698 27.2417 33.6756 27.3375 34.0327C27.4333 34.3898 27.3864 34.7702 27.2067 35.0933L18.2934 50.5166C18.1704 50.7296 17.9936 50.9064 17.7806 51.0293C17.5676 51.1522 17.326 51.2168 17.0801 51.2166Z" fill="#1B4A52"/>
<path d="M27.16 24.8734C26.8161 24.8774 26.4831 24.7525 26.2267 24.5234L22.9133 21.5134C22.6379 21.2627 22.4734 20.913 22.4559 20.541C22.4384 20.1691 22.5694 19.8054 22.82 19.53C23.0706 19.2546 23.4204 19.0901 23.7923 19.0726C24.1643 19.0551 24.5279 19.1861 24.8033 19.4367L27.02 21.4667L31.0567 16.5667C31.2949 16.2789 31.6377 16.0976 32.0097 16.0626C32.3816 16.0276 32.7522 16.1418 33.04 16.38C33.3278 16.6183 33.5091 16.9611 33.5441 17.333C33.5791 17.705 33.4649 18.0756 33.2267 18.3634L28.2333 24.3834C28.1122 24.5278 27.9627 24.6458 27.7942 24.7301C27.6256 24.8143 27.4415 24.8631 27.2533 24.8734H27.16Z" fill="#FF6961"/>
<path d="M17.0801 51.2166H16.8934C16.6163 51.1782 16.357 51.0577 16.1491 50.8705C15.9411 50.6834 15.794 50.4382 15.7267 50.1666L14.3267 44.5666L8.96006 46.69C8.68644 46.7917 8.38847 46.8082 8.10529 46.7374C7.82211 46.6666 7.56697 46.5118 7.37339 46.2933C7.18332 46.074 7.06743 45.8002 7.04229 45.511C7.01714 45.2219 7.08403 44.9322 7.23339 44.6833L16.3334 29.0733C16.4252 28.9139 16.5476 28.7742 16.6935 28.6621C16.8394 28.55 17.006 28.4678 17.1837 28.4201C17.3614 28.3724 17.5467 28.3602 17.7291 28.3842C17.9115 28.4082 18.0874 28.468 18.2467 28.56C18.4085 28.6495 18.5505 28.7707 18.6644 28.9164C18.7783 29.062 18.8617 29.2291 18.9096 29.4077C18.9575 29.5862 18.969 29.7726 18.9433 29.9557C18.9176 30.1388 18.8553 30.3148 18.7601 30.4733L11.6667 42.5833L14.7934 41.3933C14.9715 41.3067 15.167 41.2616 15.3651 41.2616C15.5631 41.2616 15.7586 41.3067 15.9367 41.3933C16.1173 41.4817 16.2759 41.6093 16.4011 41.7667C16.5262 41.9241 16.6147 42.1074 16.6601 42.3033L17.6167 46.06L24.7801 33.6933C24.8696 33.5316 24.9908 33.3895 25.1364 33.2756C25.2821 33.1617 25.4492 33.0784 25.6277 33.0304C25.8063 32.9825 25.9927 32.9711 26.1758 32.9968C26.3589 33.0225 26.5349 33.0848 26.6934 33.18C27.0107 33.3698 27.2417 33.6756 27.3375 34.0327C27.4333 34.3898 27.3864 34.7702 27.2067 35.0933L18.2934 50.5166C18.1704 50.7296 17.9936 50.9064 17.7806 51.0293C17.5676 51.1522 17.326 51.2168 17.0801 51.2166Z" fill="#1B4A52"/>
<path d="M38.1033 51.2166C37.8584 51.2123 37.6185 51.1457 37.4063 51.0233C37.1941 50.9009 37.0164 50.7265 36.89 50.5166L28 35.14C27.8203 34.8168 27.7734 34.4365 27.8692 34.0794C27.965 33.7222 28.196 33.4164 28.5133 33.2266C28.6718 33.1314 28.8478 33.0691 29.0309 33.0434C29.214 33.0178 29.4004 33.0292 29.579 33.0771C29.7575 33.125 29.9246 33.2084 30.0703 33.3223C30.2159 33.4362 30.3371 33.5782 30.4267 33.74L37.59 46.06L38.5467 42.2566C38.591 42.0635 38.6765 41.8822 38.7973 41.7252C38.9181 41.5681 39.0714 41.439 39.2467 41.3466C39.4288 41.2596 39.6281 41.2145 39.83 41.2145C40.0319 41.2145 40.2312 41.2596 40.4133 41.3466L43.54 42.5833L36.54 30.4733C36.4448 30.3148 36.3825 30.1388 36.3568 29.9557C36.3311 29.7726 36.3425 29.5862 36.3905 29.4077C36.4384 29.2291 36.5217 29.062 36.6356 28.9164C36.7495 28.7707 36.8916 28.6495 37.0533 28.56C37.2126 28.468 37.3885 28.4082 37.5709 28.3842C37.7533 28.3602 37.9387 28.3724 38.1164 28.4201C38.2941 28.4678 38.4606 28.55 38.6065 28.6621C38.7524 28.7742 38.8748 28.9139 38.9667 29.0733L47.9733 44.66C48.1193 44.9099 48.1842 45.1989 48.1591 45.4872C48.134 45.7755 48.0202 46.049 47.8333 46.27C47.6397 46.4885 47.3846 46.6433 47.1014 46.7141C46.8182 46.7848 46.5203 46.7683 46.2467 46.6666L40.88 44.5433L39.48 50.1433C39.4127 50.4149 39.2656 50.66 39.0576 50.8472C38.8497 51.0343 38.5904 51.1549 38.3133 51.1933L38.1033 51.2166Z" fill="#1B4A52"/>
</svg>
