<svg width="21" height="26" viewBox="0 0 21 26" fill="none" xmlns="http://www.w3.org/2000/svg">
<path d="M20.4093 0.670904C20.4093 0.301862 20.1074 0 19.7384 0H0.682971C0.313929 0 0.0120665 0.30188 0.0120665 0.670904V23.0811V23.1817C-0.0213973 23.3495 0.0120672 23.5508 0.146158 23.7186L1.72292 25.7316C1.85702 25.8994 2.0585 26 2.25975 26C2.461 26 2.66226 25.8994 2.79658 25.7316L3.87024 24.3898L4.9439 25.7316C5.07799 25.8994 5.27948 26 5.48073 26C5.68197 26 5.88323 25.8994 6.01755 25.7316L7.09122 24.3898L8.16488 25.7316C8.4333 26.0672 8.9701 26.0672 9.20481 25.7316L10.2785 24.3898L11.3521 25.7316C11.6206 26.0672 12.1574 26.0672 12.3921 25.7316L13.4657 24.3898L14.5394 25.7316C14.6735 25.8994 14.875 26 15.0762 26C15.2775 26 15.4787 25.8994 15.6131 25.7316L16.6867 24.3898L17.7604 25.7316C18.0288 26.0672 18.5656 26.0672 18.8003 25.7316L20.3771 23.7186C20.5112 23.5508 20.5449 23.383 20.5112 23.1817V23.0811L20.51 0.670904H20.4093ZM18.1281 24.2218L17.0544 22.8799C16.786 22.5444 16.2492 22.5444 16.0145 22.8799L14.9409 24.2218L13.9012 22.8799C13.6327 22.5444 13.0959 22.5444 12.8612 22.8799L11.7876 24.2218L10.7139 22.8799C10.4455 22.5444 9.90867 22.5444 9.67396 22.8799L8.60029 24.2218L7.52663 22.8799C7.25821 22.5444 6.72141 22.5444 6.48669 22.8799L5.41303 24.2218L4.33937 22.8799C4.20528 22.7122 4.00379 22.6115 3.80254 22.6115C3.6013 22.6115 3.40004 22.7122 3.26572 22.8799L2.19205 24.2218L1.28619 23.0475L1.28689 1.34175H18.9668V23.081L18.1281 24.2218Z" fill="#D9638C"/>
<path d="M15.9137 11.9775H4.50733C4.13829 11.9775 3.83643 12.2794 3.83643 12.6484C3.83643 13.0175 4.13831 13.3193 4.50733 13.3193H15.9137C16.2828 13.3193 16.5846 13.0175 16.5846 12.6484C16.5846 12.2794 16.2828 11.9775 15.9137 11.9775Z" fill="#D9638C"/>
<path d="M15.9139 15.9688H13.9009C13.5318 15.9688 13.23 16.2706 13.23 16.6397C13.23 17.0087 13.5319 17.3106 13.9009 17.3106H15.9139C16.2829 17.3106 16.5848 17.0087 16.5848 16.6397C16.5848 16.2709 16.2829 15.9688 15.9139 15.9688Z" fill="#D9638C"/>
<path d="M9.20396 15.9688H4.50733C4.13829 15.9688 3.83643 16.2706 3.83643 16.6397C3.83643 17.0087 4.13831 17.3106 4.50733 17.3106H9.20396C9.57301 17.3106 9.87487 17.0087 9.87487 16.6397C9.87487 16.2709 9.57299 15.9688 9.20396 15.9688Z" fill="#D9638C"/>
<path d="M15.9137 4.05859H4.50733C4.13829 4.05859 3.83643 4.36047 3.83643 4.7295C3.83643 5.09852 4.13831 5.4004 4.50733 5.4004H15.9137C16.2828 5.4004 16.5846 5.09852 16.5846 4.7295C16.5846 4.36047 16.2828 4.05859 15.9137 4.05859Z" fill="#D9638C"/>
<path d="M15.9137 8.01758H4.50733C4.13829 8.01758 3.83643 8.31946 3.83643 8.68848C3.83643 9.05751 4.13831 9.35939 4.50733 9.35939H15.9137C16.2828 9.35939 16.5846 9.05751 16.5846 8.68848C16.5846 8.31946 16.2828 8.01758 15.9137 8.01758Z" fill="#D9638C"/>
</svg>
