<svg width="48" height="48" viewBox="0 0 48 48" fill="none" xmlns="http://www.w3.org/2000/svg">
<path d="M24 32.7401C22.6809 32.7348 21.4172 32.2084 20.4845 31.2756C19.5517 30.3428 19.0253 29.0792 19.02 27.7601C19.02 27.4418 19.1465 27.1366 19.3715 26.9115C19.5965 26.6865 19.9018 26.5601 20.22 26.5601C20.5383 26.5601 20.8435 26.6865 21.0686 26.9115C21.2936 27.1366 21.42 27.4418 21.42 27.7601C21.3885 28.1166 21.4316 28.4758 21.5464 28.8148C21.6613 29.1538 21.8454 29.4653 22.0871 29.7293C22.3289 29.9933 22.6229 30.2041 22.9505 30.3483C23.2781 30.4925 23.6321 30.567 23.99 30.567C24.348 30.567 24.702 30.4925 25.0296 30.3483C25.3572 30.2041 25.6512 29.9933 25.8929 29.7293C26.1346 29.4653 26.3188 29.1538 26.4336 28.8148C26.5485 28.4758 26.5915 28.1166 26.56 27.7601C26.56 27.4418 26.6864 27.1366 26.9115 26.9115C27.1365 26.6865 27.4418 26.5601 27.76 26.5601C28.0783 26.5601 28.3835 26.6865 28.6086 26.9115C28.8336 27.1366 28.96 27.4418 28.96 27.7601C28.96 29.0774 28.4381 30.341 27.5085 31.2744C26.5789 32.2078 25.3173 32.7348 24 32.7401Z" fill="#E2504B"/>
<path d="M39.58 39.8598H8.41999C7.31484 39.8599 6.25467 39.4222 5.47134 38.6426C4.68801 37.8631 4.24528 36.805 4.23999 35.6998V15.9998C4.24528 14.8947 4.68801 13.8366 5.47134 13.0571C6.25467 12.2775 7.31484 11.8398 8.41999 11.8398H39.58C40.6851 11.8398 41.7453 12.2775 42.5286 13.0571C43.312 13.8366 43.7547 14.8947 43.76 15.9998V35.6998C43.7547 36.805 43.312 37.8631 42.5286 38.6426C41.7453 39.4222 40.6851 39.8599 39.58 39.8598ZM8.41999 14.2398C8.18719 14.2372 7.95617 14.2808 7.74033 14.368C7.52448 14.4553 7.32809 14.5845 7.16254 14.7482C6.99698 14.9119 6.86554 15.1068 6.77585 15.3217C6.68615 15.5365 6.63998 15.767 6.63999 15.9998V35.6998C6.64526 36.1685 6.83511 36.6161 7.16836 36.9456C7.5016 37.2751 7.95135 37.4599 8.41999 37.4598H39.58C40.0486 37.4599 40.4984 37.2751 40.8316 36.9456C41.1649 36.6161 41.3547 36.1685 41.36 35.6998V15.9998C41.36 15.767 41.3138 15.5365 41.2241 15.3217C41.1344 15.1068 41.003 14.9119 40.8375 14.7482C40.6719 14.5845 40.4755 14.4553 40.2597 14.368C40.0438 14.2808 39.8128 14.2372 39.58 14.2398H8.41999Z" fill="#1B4A52"/>
<path d="M31.1599 14.2399H16.8399C16.5216 14.2399 16.2164 14.1134 15.9914 13.8884C15.7663 13.6633 15.6399 13.3581 15.6399 13.0399V10.7799C15.6452 9.47316 16.168 8.22178 17.0938 7.29967C18.0197 6.37757 19.2732 5.85985 20.5799 5.85986H27.4199C28.7266 5.85985 29.9801 6.37757 30.9059 7.29967C31.8318 8.22178 32.3546 9.47316 32.3599 10.7799V13.0399C32.3599 13.3581 32.2335 13.6633 32.0084 13.8884C31.7834 14.1134 31.4782 14.2399 31.1599 14.2399ZM17.9999 11.8399H29.9999V10.7799C29.9999 10.4472 29.9341 10.1179 29.8062 9.81086C29.6783 9.50381 29.4909 9.22511 29.2547 8.99084C29.0186 8.75658 28.7385 8.57137 28.4304 8.44592C28.1223 8.32046 27.7925 8.25723 27.4599 8.25986H20.5799C20.2439 8.25186 19.9098 8.31113 19.5971 8.43419C19.2844 8.55724 18.9995 8.7416 18.7591 8.9764C18.5187 9.21121 18.3277 9.49172 18.1973 9.80144C18.0669 10.1112 17.9998 10.4438 17.9999 10.7799V11.8399Z" fill="#1B4A52"/>
<path d="M24 28.3201C23.9009 28.3395 23.7991 28.3395 23.7 28.3201L5.84 23.7601C5.67599 23.7336 5.51927 23.6733 5.37978 23.5831C5.24028 23.4928 5.12103 23.3746 5.0296 23.2359C4.93817 23.0972 4.87654 22.941 4.84862 22.7772C4.82069 22.6134 4.82708 22.4456 4.86737 22.2844C4.90767 22.1233 4.98099 21.9722 5.0827 21.8408C5.18441 21.7095 5.3123 21.6007 5.45825 21.5213C5.60421 21.4419 5.76505 21.3937 5.9306 21.3797C6.09615 21.3658 6.2628 21.3863 6.42 21.4401L24 25.8801L41.56 21.4001C41.8608 21.3398 42.1733 21.397 42.4332 21.56C42.6931 21.7229 42.8807 21.9792 42.9576 22.2762C43.0344 22.5733 42.9945 22.8884 42.8462 23.1569C42.6978 23.4255 42.4523 23.627 42.16 23.7201L24.3 28.2801C24.2036 28.3129 24.1017 28.3265 24 28.3201Z" fill="#1B4A52"/>
<path d="M28.32 22.3798H19.68C19.3617 22.3798 19.0565 22.2533 18.8315 22.0283C18.6064 21.8032 18.48 21.498 18.48 21.1798V17.4598C18.48 17.1415 18.6064 16.8363 18.8315 16.6112C19.0565 16.3862 19.3617 16.2598 19.68 16.2598H28.32C28.6382 16.2598 28.9435 16.3862 29.1685 16.6112C29.3935 16.8363 29.52 17.1415 29.52 17.4598V21.1798C29.52 21.498 29.3935 21.8032 29.1685 22.0283C28.9435 22.2533 28.6382 22.3798 28.32 22.3798ZM20.88 19.9998H27.12V18.6798H20.88V19.9998Z" fill="#1B4A52"/>
</svg>
