<svg width="48" height="48" viewBox="0 0 48 48" fill="none" xmlns="http://www.w3.org/2000/svg">
<path d="M29.5 37.3002H9.5C8.17392 37.3002 6.90216 36.7734 5.96448 35.8357C5.0268 34.898 4.5 33.6262 4.5 32.3002V12.1602C4.5 10.8341 5.0268 9.5623 5.96448 8.62462C6.90216 7.68694 8.17392 7.16016 9.5 7.16016H33.7C35.0261 7.16016 36.2979 7.68694 37.2355 8.62462C38.1732 9.5623 38.7 10.8341 38.7 12.1602V28.2602C38.7 28.5784 38.5736 28.8836 38.3485 29.1087C38.1235 29.3337 37.8183 29.4602 37.5 29.4602C37.1817 29.4602 36.8765 29.3337 36.6515 29.1087C36.4264 28.8836 36.3 28.5784 36.3 28.2602V12.1602C36.3 11.4706 36.0261 10.8093 35.5385 10.3217C35.0509 9.83408 34.3896 9.56015 33.7 9.56015H9.5C8.81044 9.56015 8.14912 9.83408 7.66153 10.3217C7.17393 10.8093 6.89999 11.4706 6.89999 12.1602V32.3002C6.89999 32.9897 7.17393 33.651 7.66153 34.1386C8.14912 34.6262 8.81044 34.9002 9.5 34.9002H29.5C29.8183 34.9002 30.1235 35.0266 30.3485 35.2516C30.5736 35.4767 30.7 35.7819 30.7 36.1002C30.7 36.4184 30.5736 36.7236 30.3485 36.9487C30.1235 37.1737 29.8183 37.3002 29.5 37.3002Z" fill="#1B4A52"/>
<path d="M37.4199 17.6202H5.6199C5.30164 17.6202 4.99644 17.4938 4.77139 17.2687C4.54635 17.0437 4.41992 16.7385 4.41992 16.4202C4.41992 16.102 4.54635 15.7967 4.77139 15.5717C4.99644 15.3466 5.30164 15.2202 5.6199 15.2202H37.4199C37.7382 15.2202 38.0434 15.3466 38.2684 15.5717C38.4935 15.7967 38.6199 16.102 38.6199 16.4202C38.6199 16.7385 38.4935 17.0437 38.2684 17.2687C38.0434 17.4938 37.7382 17.6202 37.4199 17.6202Z" fill="#1B4A52"/>
<path d="M14.16 12.3798C13.8417 12.3798 13.5365 12.2534 13.3114 12.0284C13.0864 11.8033 12.96 11.4981 12.96 11.1798V5.51982C12.96 5.20156 13.0864 4.89634 13.3114 4.6713C13.5365 4.44625 13.8417 4.31982 14.16 4.31982C14.4782 4.31982 14.7834 4.44625 15.0085 4.6713C15.2335 4.89634 15.36 5.20156 15.36 5.51982V11.1798C15.36 11.4981 15.2335 11.8033 15.0085 12.0284C14.7834 12.2534 14.4782 12.3798 14.16 12.3798Z" fill="#1B4A52"/>
<path d="M27.92 12.6C27.6017 12.6 27.2965 12.4736 27.0714 12.2486C26.8464 12.0235 26.72 11.7183 26.72 11.4V5.74004C26.72 5.42178 26.8464 5.11655 27.0714 4.89151C27.2965 4.66647 27.6017 4.54004 27.92 4.54004C28.2382 4.54004 28.5434 4.66647 28.7685 4.89151C28.9935 5.11655 29.12 5.42178 29.12 5.74004V11.4C29.12 11.7183 28.9935 12.0235 28.7685 12.2486C28.5434 12.4736 28.2382 12.6 27.92 12.6Z" fill="#1B4A52"/>
<path d="M13.5199 23.42H10.0599C9.74162 23.42 9.43641 23.2936 9.21136 23.0686C8.98632 22.8435 8.85986 22.5383 8.85986 22.22C8.85986 21.9018 8.98632 21.5965 9.21136 21.3715C9.43641 21.1465 9.74162 21.02 10.0599 21.02H13.5199C13.8381 21.02 14.1434 21.1465 14.3684 21.3715C14.5935 21.5965 14.7199 21.9018 14.7199 22.22C14.7199 22.5383 14.5935 22.8435 14.3684 23.0686C14.1434 23.2936 13.8381 23.42 13.5199 23.42Z" fill="#1B4A52"/>
<path d="M23.2601 23.42H19.7801C19.4618 23.42 19.1566 23.2936 18.9315 23.0686C18.7065 22.8435 18.5801 22.5383 18.5801 22.22C18.5801 21.9018 18.7065 21.5965 18.9315 21.3715C19.1566 21.1465 19.4618 21.02 19.7801 21.02H23.2601C23.5784 21.02 23.8836 21.1465 24.1086 21.3715C24.3337 21.5965 24.4601 21.9018 24.4601 22.22C24.4601 22.5383 24.3337 22.8435 24.1086 23.0686C23.8836 23.2936 23.5784 23.42 23.2601 23.42Z" fill="#1B4A52"/>
<path d="M32.9801 23.42H29.5001C29.1818 23.42 28.8766 23.2936 28.6515 23.0686C28.4265 22.8435 28.3 22.5383 28.3 22.22C28.3 21.9018 28.4265 21.5965 28.6515 21.3715C28.8766 21.1465 29.1818 21.02 29.5001 21.02H32.9801C33.2983 21.02 33.6035 21.1465 33.8286 21.3715C34.0536 21.5965 34.1801 21.9018 34.1801 22.22C34.1801 22.5383 34.0536 22.8435 33.8286 23.0686C33.6035 23.2936 33.2983 23.42 32.9801 23.42Z" fill="#1B4A52"/>
<path d="M13.5199 30.4H10.0599C9.74162 30.4 9.43641 30.2736 9.21136 30.0485C8.98632 29.8235 8.85986 29.5183 8.85986 29.2C8.85986 28.8817 8.98632 28.5765 9.21136 28.3515C9.43641 28.1264 9.74162 28 10.0599 28H13.5199C13.8381 28 14.1434 28.1264 14.3684 28.3515C14.5935 28.5765 14.7199 28.8817 14.7199 29.2C14.7199 29.5183 14.5935 29.8235 14.3684 30.0485C14.1434 30.2736 13.8381 30.4 13.5199 30.4Z" fill="#1B4A52"/>
<path d="M23.2601 30.4H19.7801C19.4618 30.4 19.1566 30.2736 18.9315 30.0485C18.7065 29.8235 18.5801 29.5183 18.5801 29.2C18.5801 28.8817 18.7065 28.5765 18.9315 28.3515C19.1566 28.1264 19.4618 28 19.7801 28H23.2601C23.5784 28 23.8836 28.1264 24.1086 28.3515C24.3337 28.5765 24.4601 28.8817 24.4601 29.2C24.4601 29.5183 24.3337 29.8235 24.1086 30.0485C23.8836 30.2736 23.5784 30.4 23.2601 30.4Z" fill="#1B4A52"/>
<path d="M38.1001 43.7799H33.8801C32.4002 43.7799 30.9809 43.192 29.9344 42.1456C28.888 41.0991 28.3 39.6798 28.3 38.1999V33.9999C28.3 32.52 28.888 31.1007 29.9344 30.0543C30.9809 29.0078 32.4002 28.4199 33.8801 28.4199H38.1001C39.58 28.4199 40.9993 29.0078 42.0457 30.0543C43.0922 31.1007 43.6801 32.52 43.6801 33.9999V38.1999C43.6801 39.6798 43.0922 41.0991 42.0457 42.1456C40.9993 43.192 39.58 43.7799 38.1001 43.7799ZM33.8801 30.7999C33.4608 30.7999 33.0456 30.8828 32.6585 31.0439C32.2714 31.2049 31.9199 31.441 31.6244 31.7384C31.3288 32.0358 31.095 32.3887 30.9364 32.7768C30.7777 33.165 30.6974 33.5806 30.7001 33.9999V38.1999C30.7001 39.0433 31.0351 39.8522 31.6315 40.4485C32.2278 41.0449 33.0367 41.3799 33.8801 41.3799H38.1001C38.9435 41.3799 39.7523 41.0449 40.3487 40.4485C40.945 39.8522 41.2801 39.0433 41.2801 38.1999V33.9999C41.2748 33.1582 40.9381 32.3524 40.3429 31.7571C39.7476 31.1619 38.9418 30.8252 38.1001 30.8199L33.8801 30.7999Z" fill="#E2504B"/>
<path d="M33.2599 38.3202H35.2599V34.3202H33.5199V33.0202C34.3357 32.9376 35.1222 32.6709 35.8199 32.2402H37.3799V38.3802H39.0599V40.0002H33.2L33.2599 38.3202Z" fill="#E2504B"/>
</svg>
