<svg width="48" height="48" viewBox="0 0 48 48" fill="none" xmlns="http://www.w3.org/2000/svg">
<path d="M20.36 16.8198C19.5293 16.8277 18.7053 16.6712 17.9353 16.3594C17.1653 16.0476 16.4646 15.5866 15.8735 15.0029C15.2824 14.4193 14.8125 13.7244 14.491 12.9585C14.1695 12.1925 14.0026 11.3705 14 10.5398C14.0053 8.87583 14.6686 7.28154 15.8452 6.10496C17.0218 4.92837 18.6161 4.26504 20.28 4.25977C21.9439 4.26504 23.5382 4.92837 24.7148 6.10496C25.8914 7.28154 26.5547 8.87583 26.56 10.5398C26.555 12.19 25.9027 13.7723 24.7433 14.9467C23.5839 16.121 22.01 16.7936 20.36 16.8198ZM20.36 6.65977C19.331 6.65977 18.3441 7.06855 17.6164 7.79619C16.8888 8.52383 16.48 9.51072 16.48 10.5398C16.48 11.5688 16.8888 12.5557 17.6164 13.2833C18.3441 14.011 19.331 14.4198 20.36 14.4198C21.389 14.4198 22.3759 14.011 23.1036 13.2833C23.8312 12.5557 24.24 11.5688 24.24 10.5398C24.24 9.51072 23.8312 8.52383 23.1036 7.79619C22.3759 7.06855 21.389 6.65977 20.36 6.65977Z" fill="#1B4A52"/>
<path d="M24 35.1999H6.48003C6.16177 35.1999 5.85654 35.0735 5.6315 34.8484C5.40646 34.6234 5.28003 34.3182 5.28003 33.9999C5.28003 29.9986 6.86817 26.1609 9.69565 23.3297C12.5231 20.4984 16.3587 18.9052 20.36 18.8999C22.2485 18.9025 24.1201 19.2551 25.88 19.9399C26.0274 19.9973 26.1619 20.0833 26.276 20.1929C26.39 20.3025 26.4812 20.4335 26.5444 20.5785C26.6076 20.7235 26.6415 20.8795 26.6442 21.0376C26.6469 21.1958 26.6183 21.3529 26.56 21.4999C26.5026 21.6473 26.4166 21.7818 26.307 21.8958C26.1974 22.0098 26.0664 22.1011 25.9214 22.1643C25.7764 22.2275 25.6204 22.2614 25.4623 22.264C25.3042 22.2667 25.1471 22.2381 25 22.1799C23.5223 21.5981 21.9482 21.2996 20.36 21.2999C17.2035 21.3057 14.1623 22.4867 11.8292 24.6127C9.49605 26.7388 8.03828 29.6575 7.74004 32.7999H24C24.3183 32.7999 24.6235 32.9263 24.8486 33.1514C25.0736 33.3764 25.2 33.6816 25.2 33.9999C25.2 34.3182 25.0736 34.6234 24.8486 34.8484C24.6235 35.0735 24.3183 35.1999 24 35.1999Z" fill="#1B4A52"/>
<path d="M8.17992 43.8002H6.31994C6.01673 43.7909 5.72784 43.669 5.50967 43.4582C5.2915 43.2474 5.15968 42.9629 5.13993 42.6602C5.13117 42.3598 5.23179 42.0665 5.42309 41.8347C5.61438 41.6029 5.88333 41.4485 6.17993 41.4002C6.41993 41.4002 29.1199 38.1602 33.3399 25.4002L28.3599 23.4002C28.1276 23.3014 27.9316 23.1328 27.7991 22.9179C27.6665 22.703 27.6039 22.4522 27.6199 22.2002C27.643 21.9502 27.7414 21.7132 27.9021 21.5203C28.0628 21.3275 28.2782 21.188 28.5199 21.1202L42.5199 17.4202C42.6965 17.3669 42.8834 17.3573 43.0646 17.3921C43.2457 17.4269 43.4157 17.5052 43.5599 17.6202C43.7065 17.733 43.8244 17.8786 43.9043 18.0454C43.9842 18.2121 44.0238 18.3953 44.0199 18.5802V34.2202C44.0221 34.4755 43.9414 34.7246 43.7899 34.9302C43.6385 35.1358 43.4244 35.2866 43.1799 35.3602C42.9316 35.4351 42.666 35.429 42.4214 35.3427C42.1769 35.2564 41.9662 35.0944 41.8199 34.8802L38.7999 30.4002C36.2599 34.5002 28.2399 43.8002 8.17992 43.8002ZM32.5399 22.4802L35.2599 23.6202C35.5207 23.7307 35.734 23.9298 35.8621 24.1823C35.9902 24.4348 36.0248 24.7246 35.9599 25.0002C33.9999 32.6202 26.8799 37.2802 19.9999 40.0002C33.5999 36.6402 37.3199 28.0002 37.4999 27.5602C37.5831 27.3572 37.7203 27.181 37.8966 27.0505C38.0729 26.92 38.2815 26.8404 38.4999 26.8202C38.7158 26.8015 38.9328 26.8396 39.1293 26.9309C39.3258 27.0221 39.4949 27.1632 39.6199 27.3402L41.4799 30.1402V20.0002L32.5399 22.4802Z" fill="#E2504B"/>
</svg>
