<svg width="26" height="26" viewBox="0 0 26 26" fill="none" xmlns="http://www.w3.org/2000/svg">
<path d="M23.954 22.7852V24.1039V24.8467C23.954 24.8912 23.9512 24.9357 23.954 24.983C23.9596 25.1026 23.9846 24.8801 23.9512 24.9802C23.993 24.855 23.9846 24.9134 23.9624 24.944C24.0403 24.8355 24.0097 24.8912 23.9846 24.9134C23.9151 24.9774 24.0041 24.8995 24.0152 24.8912C23.9429 24.9413 24.0319 24.8856 24.0514 24.8801C23.9429 24.9162 24.1738 24.8856 24.0542 24.8828C23.7954 24.8773 23.5339 24.8828 23.2752 24.8828H21.2249H18.2481H14.7233H10.9982H7.42884H4.37419H2.18195C1.8648 24.8828 1.54489 24.8745 1.22771 24.8828H1.2138C1.11087 24.8856 1.29726 24.8995 1.23328 24.8856C1.16094 24.8689 1.32787 24.9385 1.26666 24.8995C1.20546 24.8606 1.35012 24.9691 1.29448 24.9246C1.28892 24.9218 1.28614 24.9162 1.28057 24.9134C1.24997 24.8773 1.24997 24.8801 1.28057 24.9162C1.28892 24.9246 1.29448 24.9357 1.30283 24.944C1.28057 24.9023 1.28057 24.9023 1.30004 24.9468C1.30561 24.958 1.30839 24.9691 1.31395 24.9802C1.30283 24.9329 1.30005 24.9329 1.30839 24.983C1.31952 24.9746 1.30839 25.0915 1.31117 24.983C1.31395 24.83 1.31117 24.677 1.31117 24.524V22.9076V22.7852C1.31117 22.7491 1.32787 22.6851 1.30561 22.8214C1.31952 22.7324 1.29726 22.8353 1.28614 22.8548C1.33621 22.763 1.26666 22.8854 1.25831 22.8798C1.24997 22.8743 1.31117 22.8353 1.30839 22.8297C1.31952 22.8464 1.20824 22.8965 1.28335 22.8576C1.16651 22.9188 1.2138 22.8826 1.24997 22.877C1.11087 22.8993 1.17764 22.8826 1.2138 22.8826H1.27222H1.67283H3.44777H6.22422H9.6572H13.3517H17.0045H20.2149H22.6436H23.9345H24.0318H24.0485C24.157 22.8798 24.0402 22.8909 24.0485 22.8798C24.0346 22.8798 24.0235 22.877 24.0096 22.877C24.0569 22.8909 24.0569 22.8909 24.0096 22.8743C23.9985 22.8687 23.9873 22.8659 23.9762 22.8603C24.0151 22.8854 24.0179 22.8826 23.979 22.8548C23.9706 22.8464 23.9595 22.8409 23.9512 22.8325C23.9651 22.8437 23.9762 22.8576 23.9901 22.8687C24.0374 22.9243 23.9261 22.7797 23.9651 22.8409C24.004 22.9021 23.9317 22.7352 23.9512 22.8075C23.9762 22.8854 23.9484 22.66 23.9539 22.7852C23.9651 23.0746 24.2015 23.3555 24.5104 23.3417C24.8025 23.3277 25.0807 23.0968 25.0668 22.7852C25.0445 22.2177 24.6161 21.7893 24.0486 21.7698H23.9707H23.5283H21.6477H18.7544H15.2268H11.4404H7.77097H4.59671H2.29597C1.94544 21.7698 1.59492 21.767 1.24157 21.7698C1.04961 21.7726 0.857646 21.8143 0.690733 21.9145C0.381931 22.1009 0.21223 22.4319 0.198317 22.7852C0.195535 22.8269 0.198317 22.8715 0.198317 22.9132V24.5685C0.198317 24.7187 0.189971 24.8689 0.201099 25.0192C0.237265 25.5728 0.668477 25.9818 1.21933 25.9984C1.30558 26.0012 1.39182 25.9984 1.47806 25.9984H3.05822H5.74283H9.15359H12.9121H16.6428H19.97H22.5156H23.9038C24.1486 25.9984 24.3879 25.9762 24.6021 25.8343C24.8942 25.6396 25.0556 25.328 25.0667 24.983C25.0695 24.9357 25.0667 24.8884 25.0667 24.8411V24.0649V22.788C25.0667 22.4959 24.8108 22.2177 24.5103 22.2316C24.2098 22.2427 23.9538 22.4736 23.9538 22.7852L23.954 22.7852Z" fill="#D9638C"/>
<path d="M13.9002 10.6145V11.7802V14.5817V17.9563V20.8857C13.9002 21.3587 13.8807 21.8344 13.9002 22.3073V22.3268C14.0865 22.1404 14.2702 21.9568 14.4566 21.7704H11.2656H10.8121C10.9985 21.9567 11.1821 22.1404 11.3685 22.3268V21.1611V18.3597V14.9851V12.0556C11.3685 11.5827 11.388 11.107 11.3685 10.634V10.6145C11.1822 10.8009 10.9985 10.9845 10.8121 11.171H14.0031H14.4566C14.7487 11.171 15.0269 10.915 15.013 10.6145C14.9991 10.3141 14.7682 10.0581 14.4566 10.0581H11.2656H10.8121C10.5117 10.0581 10.2557 10.3141 10.2557 10.6145V11.7802V14.5817V17.9563V20.8857C10.2557 21.3587 10.2418 21.8344 10.2557 22.3073V22.3268C10.2557 22.6272 10.5116 22.8832 10.8121 22.8832H14.0031H14.4566C14.757 22.8832 15.013 22.6273 15.013 22.3268V21.1611V18.3597V14.9851V12.0556C15.013 11.5827 15.0269 11.107 15.013 10.634V10.6145C15.013 10.3224 14.7571 10.0442 14.4566 10.0581C14.1533 10.072 13.9002 10.3029 13.9002 10.6145Z" fill="#D9638C"/>
<path d="M6.41627 10.6145V11.7802V14.5817V17.9563V20.8857C6.41627 21.3587 6.39679 21.8344 6.41627 22.3073V22.3268C6.60266 22.1404 6.78627 21.9568 6.97269 21.7704H3.7817H3.32824C3.51463 21.9567 3.69824 22.1404 3.88466 22.3268V21.1611V18.3597V14.9851V12.0556C3.88466 11.5827 3.90414 11.107 3.88466 10.634V10.6145C3.69827 10.8009 3.51466 10.9845 3.32824 11.171H6.51922H6.97269C7.26481 11.171 7.54301 10.915 7.52912 10.6145C7.51523 10.3141 7.2843 10.0581 6.97269 10.0581H3.7817H3.32824C3.02778 10.0581 2.77181 10.3141 2.77181 10.6145V11.7802V14.5817V17.9563V20.8857C2.77181 21.3587 2.7579 21.8344 2.77181 22.3073V22.3268C2.77181 22.6272 3.02775 22.8832 3.32824 22.8832H6.51922H6.97269C7.27315 22.8832 7.52912 22.6273 7.52912 22.3268V21.1611V18.3597V14.9851V12.0556C7.52912 11.5827 7.54303 11.107 7.52912 10.634V10.6145C7.52912 10.3224 7.27318 10.0442 6.97269 10.0581C6.66946 10.072 6.41627 10.3029 6.41627 10.6145Z" fill="#D9638C"/>
<path d="M23.9654 10.0581H23.1308H20.9163H17.7309H13.9752H10.0915H6.47768H3.53708H1.70094H1.32815H1.30033H1.29755H1.26417C1.17236 10.0609 1.30033 10.0609 1.31424 10.0692C1.28642 10.0525 1.20018 10.033 1.1668 10.0275C1.28086 10.0442 1.26139 10.0748 1.21966 10.0469C1.20018 10.0358 1.17793 10.0191 1.15846 10.008C1.10004 9.98018 1.24191 10.0915 1.20297 10.0414C1.18906 10.0247 1.1668 10.0052 1.15289 9.99131C1.08891 9.93289 1.22523 10.1082 1.15289 9.99131C1.14176 9.97461 1.13342 9.95792 1.12507 9.94123C1.07221 9.85777 1.16402 10.0664 1.1362 9.97183C1.12507 9.93567 1.11672 9.8995 1.1056 9.86333C1.08334 9.77988 1.11673 9.91898 1.11394 9.92732C1.11672 9.91341 1.11116 9.88559 1.11116 9.87168C1.11116 9.84942 1.11394 9.82438 1.11394 9.80213C1.11116 9.73536 1.08612 9.9301 1.1056 9.86611C1.11116 9.84942 1.11394 9.82995 1.11951 9.81047C1.14455 9.69641 1.07778 9.87724 1.1056 9.83551C1.12507 9.80212 1.14733 9.76596 1.1668 9.73258C1.20018 9.67416 1.06664 9.82995 1.14733 9.7604C1.16402 9.74649 1.18071 9.72979 1.19462 9.71588C1.26695 9.64077 1.10003 9.78543 1.1362 9.75761C1.14733 9.74927 1.15846 9.74092 1.16958 9.73258C1.22523 9.69085 1.28086 9.64912 1.3365 9.60739C1.56185 9.43769 1.78719 9.26798 2.01253 9.09552C2.8082 8.49463 3.60383 7.89369 4.3995 7.29001C5.41494 6.52216 6.42758 5.75711 7.44301 4.98926L10.3141 2.81931C10.9372 2.34915 11.5576 1.87901 12.1808 1.4088C12.2754 1.33647 12.37 1.26136 12.4701 1.19181C12.4896 1.1779 12.5035 1.16677 12.523 1.15564C12.5397 1.14451 12.6148 1.09444 12.5508 1.13617C12.4896 1.17233 12.5591 1.13339 12.5814 1.12782C12.587 1.12504 12.5953 1.12504 12.6009 1.12226C12.6621 1.10835 12.6537 1.10835 12.5758 1.12226C12.5842 1.11391 12.6537 1.11948 12.6593 1.11948C12.7455 1.11669 12.6426 1.14173 12.6343 1.11391C12.637 1.12504 12.7539 1.1306 12.7539 1.1473C12.7539 1.16399 12.6343 1.07218 12.7344 1.14451C12.7567 1.16121 12.7817 1.17512 12.8067 1.19181C12.8095 1.19459 12.8123 1.19737 12.8151 1.20015C12.854 1.23076 12.8958 1.26136 12.9347 1.29196C13.4661 1.69535 13.9975 2.09598 14.5288 2.49933C15.4497 3.19484 16.3705 3.8931 17.2914 4.58861C18.3151 5.362 19.3417 6.13819 20.3655 6.91158C21.2168 7.55704 22.0681 8.19964 22.9222 8.84509C23.3228 9.14833 23.7234 9.45437 24.124 9.75482C24.1268 9.7576 24.1296 9.76038 24.1351 9.76317C24.0628 9.71031 24.0266 9.67136 24.099 9.74369C24.1073 9.75204 24.1351 9.7882 24.1435 9.79099C24.0934 9.77707 24.0795 9.69361 24.1129 9.75204C24.1324 9.78542 24.149 9.82715 24.1713 9.85497C24.099 9.7576 24.1379 9.7576 24.149 9.8188C24.1518 9.83828 24.1574 9.85775 24.163 9.87445C24.1852 9.93843 24.1602 9.74369 24.1546 9.81046C24.1546 9.83272 24.1574 9.85776 24.1574 9.88001C24.1574 9.8967 24.1518 9.92174 24.1546 9.93565C24.1518 9.92731 24.1852 9.78821 24.163 9.87167C24.1546 9.90784 24.1435 9.944 24.1324 9.98017C24.1101 10.0608 24.149 9.93009 24.1546 9.92452C24.1407 9.93843 24.1324 9.96904 24.1212 9.98573C24.1129 10.0024 24.099 10.0163 24.0906 10.033C24.0572 10.0887 24.1769 9.94678 24.124 9.98573C24.1073 9.99964 24.0878 10.0219 24.0739 10.0358C24.0378 10.0748 24.0239 10.0414 24.1212 10.0024C24.0934 10.0135 24.0405 10.0414 24.0211 10.0636C24.0711 10.008 24.1324 10.0247 24.0711 10.0414C24.0517 10.0469 24.0322 10.0553 24.0127 10.0581C23.996 10.0636 23.8903 10.0859 23.9933 10.0636C24.0906 10.0414 23.9877 10.0581 23.9654 10.0581C23.6733 10.0636 23.3951 10.3084 23.409 10.6145C23.4229 10.9122 23.6538 11.1765 23.9654 11.1709C24.5413 11.1598 25.0114 10.8065 25.2034 10.2668C25.3731 9.7855 25.2062 9.19849 24.8084 8.88136C24.6832 8.7812 24.5552 8.6894 24.43 8.59203C23.8069 8.11909 23.1837 7.64893 22.5605 7.17598C21.5868 6.43876 20.6131 5.70428 19.6394 4.96706C18.6101 4.18812 17.578 3.40913 16.5486 2.63015C15.7529 2.02926 14.9573 1.42832 14.1644 0.827377C13.9502 0.666019 13.736 0.501884 13.519 0.340526C13.4717 0.30436 13.4271 0.270975 13.3799 0.234811C13.0794 0.0122502 12.6843 -0.0461701 12.3227 0.0345063C12.064 0.0929266 11.8887 0.234811 11.6884 0.387821C11.4519 0.56587 11.2182 0.743918 10.9817 0.921967C10.1638 1.53959 9.34593 2.15997 8.52803 2.77759C7.49311 3.56212 6.45544 4.34386 5.42052 5.12839C4.46073 5.85448 3.50095 6.58061 2.54111 7.30669C1.95131 7.75181 1.36152 8.19973 0.771767 8.64485C0.551989 8.81177 0.326645 8.96479 0.179221 9.20683C-0.0795044 9.63247 -0.0572482 10.2251 0.240424 10.6257C0.499149 10.9679 0.863594 11.1626 1.30037 11.171C1.62309 11.1765 1.94303 11.171 2.26575 11.171H4.63604H7.96056H11.8109H15.7502H19.3446H22.1572H23.7568H23.9655C24.2576 11.171 24.5358 10.915 24.5219 10.6145C24.508 10.314 24.2771 10.0581 23.9655 10.0581L23.9654 10.0581Z" fill="#D9638C"/>
<path d="M21.3835 10.6145V11.7802V14.5817V17.9563V20.8857C21.3835 21.3587 21.3641 21.8344 21.3835 22.3073V22.3268C21.5699 22.1404 21.7536 21.9568 21.94 21.7704H18.749H18.2955C18.4819 21.9567 18.6655 22.1404 18.8519 22.3268V21.1611V18.3597V14.9851V12.0556C18.8519 11.5827 18.8714 11.107 18.8519 10.634V10.6145C18.6656 10.8009 18.4819 10.9845 18.2955 11.171H21.4865H21.94C22.2321 11.171 22.5103 10.915 22.4964 10.6145C22.4825 10.3141 22.2516 10.0581 21.94 10.0581H18.749H18.2955C17.9951 10.0581 17.7391 10.3141 17.7391 10.6145V11.7802V14.5817V17.9563V20.8857C17.7391 21.3587 17.7252 21.8344 17.7391 22.3073V22.3268C17.7391 22.6272 17.995 22.8832 18.2955 22.8832H21.4865H21.94C22.2404 22.8832 22.4964 22.6273 22.4964 22.3268V21.1611V18.3597V14.9851V12.0556C22.4964 11.5827 22.5103 11.107 22.4964 10.634V10.6145C22.4964 10.3224 22.2405 10.0442 21.94 10.0581C21.6367 10.072 21.3835 10.3029 21.3835 10.6145Z" fill="#D9638C"/>
</svg>
