<svg width="48" height="48" viewBox="0 0 48 48" fill="none" xmlns="http://www.w3.org/2000/svg">
<path d="M34.1999 43.8001H15.0399C13.6184 43.8001 12.255 43.2354 11.2498 42.2302C10.2446 41.225 9.67993 39.8616 9.67993 38.4401V12.9201C9.67993 11.4985 10.2446 10.1352 11.2498 9.12997C12.255 8.12477 13.6184 7.56006 15.0399 7.56006H19.2599C19.5782 7.56006 19.8834 7.68649 20.1085 7.91153C20.3335 8.13657 20.4599 8.4418 20.4599 8.76006C20.4599 9.07832 20.3335 9.38355 20.1085 9.60859C19.8834 9.83363 19.5782 9.96006 19.2599 9.96006H15.0399C14.6445 9.94937 14.251 10.018 13.8826 10.162C13.5142 10.306 13.1784 10.5223 12.895 10.7982C12.6116 11.0742 12.3864 11.4041 12.2327 11.7685C12.0789 12.133 11.9998 12.5245 11.9999 12.9201V38.4401C11.9999 39.2251 12.3118 39.978 12.8669 40.5331C13.422 41.0882 14.1749 41.4001 14.9599 41.4001H34.1199C34.905 41.4001 35.6579 41.0882 36.213 40.5331C36.7681 39.978 37.0799 39.2251 37.0799 38.4401V12.9201C37.0699 12.1556 36.7644 11.4247 36.2276 10.8804C35.6908 10.3361 34.9642 10.0207 34.1999 10.0001H30.5999C30.2817 10.0001 29.9764 9.87363 29.7514 9.64859C29.5264 9.42355 29.3999 9.11832 29.3999 8.80006C29.3999 8.4818 29.5264 8.17657 29.7514 7.95153C29.9764 7.72649 30.2817 7.60006 30.5999 7.60006H34.1999C35.6215 7.60006 36.9848 8.16477 37.99 9.16997C38.9952 10.1752 39.5599 11.5385 39.5599 12.9601V38.4401C39.5599 39.8616 38.9952 41.225 37.99 42.2302C36.9848 43.2354 35.6215 43.8001 34.1999 43.8001Z" fill="#1B4A52"/>
<path d="M28.3 12.3201H20.94C20.2133 12.3201 19.5164 12.0314 19.0026 11.5176C18.4887 11.0037 18.2 10.3068 18.2 9.58012V6.88011C18.1974 6.51861 18.2663 6.16016 18.4028 5.82542C18.5393 5.49067 18.7408 5.18626 18.9954 4.9297C19.2501 4.67315 19.5531 4.46953 19.8868 4.33058C20.2206 4.19163 20.5785 4.12011 20.94 4.12012H28.3C28.6615 4.12011 29.0195 4.19163 29.3532 4.33058C29.687 4.46953 29.9899 4.67315 30.2446 4.9297C30.4993 5.18626 30.7007 5.49067 30.8372 5.82542C30.9737 6.16016 31.0427 6.51861 31.04 6.88011V9.58012C31.04 10.3068 30.7513 11.0037 30.2375 11.5176C29.7236 12.0314 29.0267 12.3201 28.3 12.3201ZM20.94 6.52011C20.8481 6.52523 20.7615 6.56541 20.6983 6.63238C20.6351 6.69934 20.5999 6.788 20.6 6.88011V9.58012C20.5999 9.67223 20.6351 9.76089 20.6983 9.82786C20.7615 9.89482 20.8481 9.935 20.94 9.94012H28.3C28.3955 9.94012 28.4871 9.90218 28.5546 9.83467C28.6221 9.76716 28.66 9.67559 28.66 9.58012V6.88011C28.66 6.78463 28.6221 6.69307 28.5546 6.62556C28.4871 6.55804 28.3955 6.52011 28.3 6.52011H20.94Z" fill="#1B4A52"/>
<path d="M33.46 18.88H22C21.8425 18.88 21.6864 18.8489 21.5408 18.7886C21.3952 18.7283 21.263 18.6399 21.1515 18.5285C21.0401 18.4171 20.9517 18.2848 20.8914 18.1392C20.8311 17.9936 20.8 17.8376 20.8 17.68C20.8 17.3617 20.9265 17.0565 21.1515 16.8315C21.3766 16.6064 21.6818 16.48 22 16.48H33.52C33.8383 16.48 34.1435 16.6064 34.3686 16.8315C34.5936 17.0565 34.72 17.3617 34.72 17.68C34.7203 17.8427 34.6873 18.0038 34.6233 18.1535C34.5593 18.3031 34.4655 18.4382 34.3476 18.5504C34.2298 18.6627 34.0903 18.7498 33.9377 18.8064C33.7851 18.8631 33.6226 18.8881 33.46 18.88Z" fill="#1B4A52"/>
<path d="M16.3 20.3202C16.0053 20.3236 15.7199 20.2166 15.5 20.0202L13.88 18.5802C13.7682 18.4687 13.6794 18.3362 13.6188 18.1904C13.5583 18.0445 13.5271 17.8881 13.5271 17.7302C13.5271 17.5723 13.5583 17.4159 13.6188 17.27C13.6794 17.1241 13.7682 16.9917 13.88 16.8802C13.9898 16.7689 14.1206 16.6806 14.2648 16.6203C14.409 16.56 14.5637 16.5289 14.72 16.5289C14.8763 16.5289 15.0311 16.56 15.1753 16.6203C15.3195 16.6806 15.4503 16.7689 15.56 16.8802L16.08 17.3402L17.86 14.1802C17.9351 14.0426 18.0369 13.9213 18.1594 13.8234C18.2819 13.7256 18.4227 13.6531 18.5735 13.6103C18.7244 13.5675 18.8822 13.5551 19.0378 13.574C19.1935 13.5929 19.3438 13.6426 19.48 13.7202C19.6184 13.7972 19.7401 13.9009 19.8381 14.0252C19.9362 14.1495 20.0087 14.292 20.0515 14.4444C20.0942 14.5969 20.1064 14.7563 20.0873 14.9134C20.0681 15.0706 20.0181 15.2224 19.94 15.3602L17.44 19.8202C17.3502 19.9718 17.2286 20.1021 17.0836 20.2023C16.9386 20.3024 16.7736 20.3699 16.6 20.4002L16.3 20.3202Z" fill="#E2504B"/>
<path d="M33.46 28.1998H22C21.6818 28.1998 21.3766 28.0734 21.1515 27.8483C20.9265 27.6233 20.8 27.3181 20.8 26.9998C20.8 26.6815 20.9265 26.3763 21.1515 26.1513C21.3766 25.9262 21.6818 25.7998 22 25.7998H33.52C33.8383 25.7998 34.1435 25.9262 34.3686 26.1513C34.5936 26.3763 34.72 26.6815 34.72 26.9998C34.7203 27.1626 34.6873 27.3237 34.6233 27.4733C34.5593 27.623 34.4655 27.758 34.3476 27.8703C34.2298 27.9825 34.0903 28.0696 33.9377 28.1263C33.7851 28.1829 33.6226 28.2079 33.46 28.1998Z" fill="#1B4A52"/>
<path d="M16.3 29.6598C16.0026 29.6578 15.7168 29.5435 15.5 29.3398L13.88 27.8998C13.7682 27.7883 13.6794 27.6559 13.6188 27.51C13.5583 27.3642 13.5271 27.2078 13.5271 27.0498C13.5271 26.8919 13.5583 26.7355 13.6188 26.5897C13.6794 26.4438 13.7682 26.3113 13.88 26.1998C14.091 25.9661 14.3853 25.8247 14.6996 25.806C15.0138 25.7872 15.3229 25.8928 15.56 26.0998L16.08 26.5598L17.86 23.4198C17.9331 23.2802 18.0338 23.1569 18.156 23.0574C18.2783 22.958 18.4195 22.8845 18.5711 22.8415C18.7227 22.7984 18.8815 22.7867 19.0378 22.8071C19.194 22.8274 19.3445 22.8794 19.48 22.9598C19.6177 23.0349 19.739 23.1367 19.8368 23.2592C19.9346 23.3817 20.0071 23.5225 20.0499 23.6733C20.0928 23.8241 20.1051 23.982 20.0862 24.1376C20.0674 24.2933 20.0177 24.4436 19.94 24.5798L17.44 29.0398C17.3547 29.197 17.2347 29.3326 17.0891 29.4366C16.9436 29.5405 16.7764 29.61 16.6 29.6398L16.3 29.6598Z" fill="#E2504B"/>
<path d="M33.46 37.5401H22C21.6818 37.5401 21.3766 37.4137 21.1515 37.1887C20.9265 36.9636 20.8 36.6584 20.8 36.3401C20.8 36.0219 20.9265 35.7167 21.1515 35.4916C21.3766 35.2666 21.6818 35.1401 22 35.1401H33.52C33.8383 35.1401 34.1435 35.2666 34.3686 35.4916C34.5936 35.7167 34.72 36.0219 34.72 36.3401C34.7203 36.5029 34.6873 36.664 34.6233 36.8137C34.5593 36.9633 34.4655 37.0984 34.3476 37.2106C34.2298 37.3229 34.0903 37.41 33.9377 37.4666C33.7851 37.5233 33.6226 37.5483 33.46 37.5401Z" fill="#1B4A52"/>
<path d="M16.3 38.9799C16.0053 38.9833 15.7199 38.8763 15.5 38.6799L13.88 37.2399C13.7682 37.1284 13.6794 36.9959 13.6188 36.85C13.5583 36.7042 13.5271 36.5478 13.5271 36.3899C13.5271 36.2319 13.5583 36.0755 13.6188 35.9297C13.6794 35.7838 13.7682 35.6513 13.88 35.5399C13.983 35.4218 14.1085 35.3255 14.2491 35.2564C14.3897 35.1874 14.5427 35.147 14.6991 35.1377C14.8555 35.1284 15.0121 35.1503 15.16 35.2022C15.3078 35.2541 15.4438 35.3349 15.56 35.4399L16 35.9999L17.78 32.8399C17.8551 32.7022 17.9569 32.5809 18.0794 32.4831C18.2019 32.3853 18.3427 32.3128 18.4935 32.27C18.6444 32.2271 18.8022 32.2148 18.9578 32.2337C19.1135 32.2525 19.2638 32.3022 19.4 32.3799C19.5384 32.4569 19.6601 32.5606 19.7581 32.6849C19.8562 32.8092 19.9287 32.9516 19.9715 33.1041C20.0142 33.2565 20.0264 33.4159 20.0073 33.5731C19.9881 33.7303 19.9381 33.8821 19.86 34.0199L17.36 38.4599C17.2747 38.617 17.1547 38.7526 17.0091 38.8566C16.8636 38.9605 16.6964 39.03 16.52 39.0599L16.3 38.9799Z" fill="#E2504B"/>
</svg>
