<svg width="54" height="60" viewBox="0 0 54 60" fill="none" xmlns="http://www.w3.org/2000/svg">
<g clip-path="url(#clip0_2156_17348)">
<path d="M53.2156 39.161C56.6373 24.6802 47.6586 10.1706 33.161 6.75282C18.6634 3.33505 4.13689 12.3034 0.715146 26.7842C-2.7066 41.2649 6.27216 55.7746 20.7698 59.1923C35.2673 62.6101 49.7938 53.6418 53.2156 39.161Z" fill="#FFE6E1"/>
<path d="M44.7573 46.6747C52.3723 41.5202 47.8303 33.0501 40.9305 21.7133C39.9519 20.0664 39.2684 18.2617 38.9107 16.3803C38.3408 13.6557 36.8454 11.2118 34.6778 9.46261C32.5103 7.71341 29.8039 6.76652 27.0174 6.78242C24.2308 6.79833 21.5355 7.77604 19.3881 9.54986C17.2407 11.3237 15.7733 13.7846 15.2346 16.5154C14.878 18.453 14.2348 20.3268 13.326 22.0752C6.98179 34.0637 0.763178 43.7258 9.83742 46.6891L44.7573 46.6747Z" fill="#521F4D"/>
<path d="M33.3072 29.5127H20.6719V49.4451H33.3072V29.5127Z" fill="#EE938B"/>
<path d="M50.1777 46.8334C44.2297 44.3383 33.3774 42.4561 33.3774 42.4561C31.3383 44.1742 26.9703 48.5661 26.9703 48.5661C26.9703 48.5661 22.3414 44.2224 20.6889 42.4657C20.6889 42.4657 9.70123 44.0921 3.50195 46.2639C5.74305 50.2495 8.96277 53.5997 12.858 55.9993C16.7531 58.3989 21.1956 59.7689 25.7672 59.9802C26.1972 59.9802 26.6224 60.0091 27.0573 60.0091C31.7231 59.9989 36.3063 58.7794 40.3589 56.4699C44.4115 54.1605 47.7947 50.8401 50.1777 46.8334Z" fill="#00B5D5"/>
<path d="M18.1056 42.8711C14.4817 43.4889 7.81856 44.734 3.48438 46.2495C5.48245 49.7985 8.2594 52.8494 11.6068 55.1731C14.9542 57.4969 18.785 59.0331 22.8118 59.6665C20.1398 54.4366 18.5398 48.7266 18.1056 42.8711Z" fill="#CAEDFF"/>
<path d="M35.8371 42.8711C39.461 43.4889 46.1241 44.734 50.4583 46.2495C48.4602 49.7985 45.6833 52.8494 42.3359 55.1731C38.9885 57.4969 35.1577 59.0331 31.1309 59.6665C33.8029 54.4366 35.4029 48.7266 35.8371 42.8711Z" fill="#CAEDFF"/>
<path d="M26.9709 10.0195C18.8292 10.0195 16.9738 16.1199 17.1429 22.2541C17.1429 26.6797 16.8337 28.1132 17.2444 29.2039C17.4715 30.7628 20.6267 38.7116 26.9709 38.7116C33.3152 38.7116 36.1998 31.1827 36.7603 29.2039C37.171 28.1132 36.7989 26.6797 36.7989 22.2541C36.9681 16.1199 35.1175 10.0292 26.9709 10.0195Z" fill="#EE938B"/>
<path d="M26.9905 40.7486C24.821 40.7486 22.2746 37.6453 20.5352 35.71C20.5352 35.71 24.8838 38.5333 26.9712 38.5333C29.0586 38.5333 33.4411 35.7148 33.4411 35.7148C31.7547 37.6163 29.1745 40.7486 26.9905 40.7486Z" fill="#D16363"/>
<path d="M17.3275 22.843C17.3275 22.843 15.6605 20.8836 13.9452 22.0274C12.2299 23.1712 13.8969 29.6867 17.3275 28.538C20.7582 27.3894 17.3275 22.843 17.3275 22.843Z" fill="#EE938B"/>
<path d="M36.6497 22.843C36.6497 22.843 38.3167 20.8836 40.032 22.0274C41.7473 23.1712 40.0803 29.6867 36.6497 28.538C33.2191 27.3894 36.6497 22.843 36.6497 22.843Z" fill="#EE938B"/>
<path d="M16.8745 25.6297L16.5156 25.6797L16.9361 28.6911L17.295 28.6411L16.8745 25.6297Z" fill="#D16363"/>
<path d="M37.0382 25.6129L36.7578 28.626L37.1186 28.6595L37.399 25.6464L37.0382 25.6129Z" fill="#D16363"/>
<path d="M14.8054 25.4006C14.4333 24.4353 14.4043 23.7066 14.7135 23.2867C14.8046 23.1701 14.9212 23.076 15.0544 23.0116C15.1876 22.9471 15.3338 22.9141 15.4818 22.9151V23.277C15.393 23.2768 15.3053 23.2972 15.2256 23.3366C15.146 23.3759 15.0765 23.4332 15.0228 23.5039C14.8682 23.7211 14.7619 24.2085 15.1629 25.2703L14.8054 25.4006Z" fill="#D16363"/>
<path d="M39.3124 25.4006L38.9693 25.2703C39.3703 24.2085 39.2689 23.7211 39.1094 23.5039C39.0562 23.4327 38.9869 23.375 38.9071 23.3356C38.8273 23.2961 38.7394 23.2761 38.6504 23.277V22.9151C38.7984 22.9141 38.9446 22.9471 39.0778 23.0116C39.211 23.076 39.3276 23.1701 39.4187 23.2867C39.7086 23.7259 39.6796 24.4353 39.3124 25.4006Z" fill="#D16363"/>
<path d="M20.5359 15.9795C20.5359 15.9795 22.7296 20.8058 27.8078 21.6697C27.8078 21.6697 23.9182 18.2623 25.3339 16.216C25.3339 16.216 26.9913 20.854 33.7607 21.9399C34.4089 22.0413 35.0622 22.1073 35.7176 22.1378C36.51 22.1764 35.8867 22.3164 36.7999 22.2536C36.7999 22.2536 39.1337 7.90033 26.9864 7.89551C14.9937 7.89551 17.1439 22.2536 17.1439 22.2536C17.1439 22.2536 17.2309 17.2391 20.5359 15.9795Z" fill="#521F4D"/>
<path d="M32.5632 6.73785C33.0763 3.58061 30.9298 0.605708 27.7689 0.0932161C24.608 -0.419276 21.6296 1.72471 21.1165 4.88195C20.6034 8.03919 22.7499 11.0141 25.9108 11.5266C29.0717 12.0391 32.0501 9.89508 32.5632 6.73785Z" fill="#521F4D"/>
<path d="M39.6117 45.415L40.7134 52.9343L36.7754 58.1757L42.1726 53.4652L39.6117 45.415Z" fill="#9DD7ED"/>
<path d="M14.3656 45.415L13.2639 52.9343L17.2019 58.1757L11.8047 53.4652L14.3656 45.415Z" fill="#9DD7ED"/>
<path d="M27.8066 50.0241L30.9184 52.7365L35.1269 45.415L31.1358 54.2712L27.8066 50.0241Z" fill="#078D9B"/>
<path d="M26.6724 50.2224L23.5655 52.9348L18.8496 45.7002L23.3481 54.4647L26.6724 50.2224Z" fill="#078D9B"/>
</g>
<defs>
<clipPath id="clip0_2156_17348">
<rect width="53.9429" height="60" fill="white"/>
</clipPath>
</defs>
</svg>
