<svg width="18" height="19" viewBox="0 0 18 19" fill="none" xmlns="http://www.w3.org/2000/svg">
<path opacity="0.3" fill-rule="evenodd" clip-rule="evenodd" d="M14.312 13.6699L17.707 17.074C18.098 17.4659 18.098 18.0994 17.707 18.4913C17.512 18.6868 17.256 18.785 17 18.785C16.744 18.785 16.488 18.6868 16.293 18.4913L12.897 15.0883C11.543 16.1438 9.846 16.7803 8 16.7803C3.589 16.7803 0 13.1827 0 8.76123C0 4.33973 3.589 0.742188 8 0.742188C12.411 0.742188 16 4.33973 16 8.76123C16 10.6116 15.365 12.3127 14.312 13.6699ZM8 2.74719C4.691 2.74719 2 5.44443 2 8.76111C2 12.0778 4.691 14.775 8 14.775C11.309 14.775 14 12.0778 14 8.76111C14 5.44443 11.309 2.74719 8 2.74719Z" fill="#1D1919"/>
</svg>
