<svg width="155" height="33" viewBox="0 0 155 33" fill="none" xmlns="http://www.w3.org/2000/svg">
<path d="M54.7114 19.0065L53.7875 21.6158H53.7106C53.5566 21.0274 53.2743 20.1321 52.8124 19.0576L47.8596 6.65066H43.0094V26.4251H46.2172V14.2228C46.2172 13.4553 46.2172 12.5855 46.1915 11.5111C46.1659 10.9739 46.1145 10.5646 46.0889 10.2576H46.1659C46.3198 11.0251 46.4995 11.5879 46.6278 11.946L52.5814 26.3739H54.8397L60.742 11.8181C60.8703 11.4855 60.9986 10.8204 61.1269 10.2576H61.2039C61.1269 11.7158 61.0756 13.0204 61.05 13.8135V26.3483H64.463V6.5995H59.7925L54.7114 19.0065V19.0065ZM67.6965 12.1762H71.0326V26.3483H67.6965V12.1762ZM69.3902 6.19019C68.8256 6.19019 68.3637 6.39485 67.9788 6.75299C67.5938 7.11112 67.3885 7.57159 67.3885 8.13438C67.3885 8.67159 67.5938 9.13205 67.9788 9.49019C68.3637 9.84833 68.8256 10.0274 69.3902 10.0274C69.9548 10.0274 70.4423 9.82275 70.8016 9.49019C71.1865 9.13205 71.3918 8.67159 71.3918 8.13438C71.3918 7.59717 71.1865 7.13671 70.8016 6.75299C70.468 6.39485 69.9804 6.19019 69.3902 6.19019V6.19019ZM82.8629 12.0483C82.247 11.9204 81.6054 11.8437 80.9895 11.8437C79.4755 11.8437 78.0897 12.1762 76.9349 12.8414C75.7801 13.5065 74.8562 14.4274 74.266 15.5786C73.6501 16.7553 73.3422 18.1111 73.3422 19.6716C73.3422 21.0274 73.6501 22.2297 74.2404 23.3297C74.8306 24.4041 75.6518 25.2739 76.7553 25.8623C77.8074 26.4507 79.0392 26.7576 80.425 26.7576C82.016 26.7576 83.3761 26.4251 84.4539 25.8111L84.4796 25.7855V22.7158L84.3513 22.8181C83.8637 23.1762 83.2991 23.4832 82.7346 23.6623C82.1443 23.8669 81.6054 23.9693 81.1435 23.9693C79.8091 23.9693 78.7569 23.5855 78.0127 22.7414C77.2428 21.9228 76.8579 20.7972 76.8579 19.3902C76.8579 17.9321 77.2428 16.7809 78.0384 15.9367C78.8339 15.0925 79.886 14.6576 81.1692 14.6576C82.247 14.6576 83.3505 15.0158 84.3513 15.7321L84.4796 15.8344V12.5855L84.4539 12.56C84.0177 12.3809 83.5301 12.1762 82.8629 12.0483V12.0483ZM93.872 11.946C93.0508 11.946 92.2809 12.2018 91.6137 12.739C91.0491 13.1995 90.6642 13.8646 90.3306 14.6576H90.3049V12.1762H86.9688V26.3483H90.3049V19.1088C90.3049 17.8809 90.5615 16.8576 91.1261 16.1158C91.6907 15.3483 92.4092 14.9646 93.2817 14.9646C93.5897 14.9646 93.8976 15.0414 94.2826 15.0925C94.6418 15.1948 94.8985 15.2972 95.0781 15.4251L95.2064 15.5274V12.2018L95.1294 12.1762C94.8985 12.0228 94.4365 11.946 93.872 11.946V11.946ZM102.956 11.8693C100.621 11.8693 98.7478 12.56 97.439 13.9158C96.1046 15.2716 95.463 17.139 95.463 19.4925C95.463 21.6925 96.1303 23.4832 97.4134 24.7879C98.6965 26.0669 100.442 26.7321 102.623 26.7321C104.907 26.7321 106.729 26.0414 108.038 24.66C109.372 23.2786 110.014 21.4367 110.014 19.16C110.014 16.9088 109.398 15.1181 108.14 13.8135C106.934 12.5088 105.163 11.8693 102.956 11.8693V11.8693ZM105.625 22.7669C105.009 23.56 104.034 23.9437 102.828 23.9437C101.622 23.9437 100.647 23.56 99.9539 22.7158C99.261 21.9228 98.9274 20.7716 98.9274 19.3135C98.9274 17.8041 99.2867 16.653 99.9539 15.8344C100.647 15.0158 101.596 14.6065 102.802 14.6065C103.983 14.6065 104.907 14.9902 105.574 15.7832C106.241 16.5762 106.6 17.7274 106.6 19.2367C106.549 20.7716 106.267 21.9739 105.625 22.7669V22.7669ZM117.456 18.06C116.403 17.6251 115.736 17.2925 115.428 17.0111C115.172 16.7553 115.043 16.3972 115.043 15.9367C115.043 15.553 115.197 15.1693 115.582 14.9134C115.967 14.6576 116.403 14.5297 117.045 14.5297C117.61 14.5297 118.2 14.6321 118.764 14.7855C119.329 14.939 119.842 15.1693 120.253 15.4762L120.381 15.5786V12.4576L120.304 12.4321C119.919 12.2786 119.406 12.1251 118.79 11.9972C118.174 11.8948 117.61 11.8437 117.148 11.8437C115.557 11.8437 114.248 12.2274 113.221 13.0716C112.195 13.8646 111.707 14.939 111.707 16.1925C111.707 16.8576 111.81 17.446 112.041 17.9321C112.272 18.4181 112.605 18.8786 113.067 19.2623C113.529 19.6204 114.196 20.0297 115.12 20.4135C115.89 20.746 116.48 21.0018 116.84 21.2065C117.199 21.4111 117.43 21.6414 117.61 21.8204C117.738 22.0251 117.815 22.2809 117.815 22.6135C117.815 23.56 117.096 24.0204 115.634 24.0204C115.069 24.0204 114.479 23.9181 113.786 23.6879C113.093 23.4576 112.451 23.1251 111.913 22.7414L111.784 22.639V25.8879L111.861 25.9135C112.349 26.1437 112.939 26.2972 113.658 26.4762C114.376 26.6041 115.018 26.7065 115.582 26.7065C117.302 26.7065 118.713 26.3228 119.714 25.4786C120.74 24.66 121.279 23.6111 121.279 22.2553C121.279 21.3088 121.023 20.4646 120.458 19.8251C119.714 19.2111 118.79 18.5716 117.456 18.06V18.06ZM130.081 11.8693C127.746 11.8693 125.873 12.56 124.564 13.9158C123.255 15.2716 122.588 17.139 122.588 19.4925C122.588 21.6925 123.255 23.4832 124.538 24.7879C125.821 26.0669 127.567 26.7321 129.748 26.7321C132.032 26.7321 133.854 26.0414 135.163 24.66C136.497 23.2786 137.139 21.4367 137.139 19.16C137.139 16.9088 136.523 15.1181 135.265 13.8135C134.059 12.5088 132.288 11.8693 130.081 11.8693V11.8693ZM132.725 22.7669C132.109 23.56 131.134 23.9437 129.927 23.9437C128.696 23.9437 127.746 23.56 127.053 22.7158C126.36 21.9228 126.027 20.7716 126.027 19.3135C126.027 17.8041 126.386 16.653 127.053 15.8344C127.746 15.0158 128.696 14.6065 129.902 14.6065C131.057 14.6065 132.006 14.9902 132.673 15.7832C133.341 16.5762 133.7 17.7274 133.7 19.2367C133.7 20.7716 133.366 21.9739 132.725 22.7669V22.7669ZM154.974 14.9134V12.1762H151.612V7.98089L151.509 8.00647L148.327 8.95299L148.25 8.97857V12.1762H143.22V10.3855C143.22 9.56694 143.426 8.9274 143.785 8.5181C144.144 8.1088 144.683 7.90415 145.35 7.90415C145.812 7.90415 146.3 8.00647 146.839 8.23671L146.967 8.31345V5.42275L146.89 5.39717C146.428 5.24368 145.812 5.14136 145.017 5.14136C144.016 5.14136 143.143 5.37159 142.348 5.75531C141.552 6.19019 140.962 6.77857 140.526 7.57159C140.09 8.33903 139.859 9.2088 139.859 10.2065V12.1762H137.523V14.8879H139.859V26.3483H143.22V14.9134H148.25V22.2041C148.25 25.1972 149.662 26.7065 152.485 26.7065C152.946 26.7065 153.434 26.6297 153.896 26.553C154.384 26.4507 154.743 26.3228 154.948 26.2204L154.974 26.1948V23.4576L154.845 23.56C154.64 23.6879 154.461 23.7902 154.153 23.8669C153.896 23.9437 153.665 23.9693 153.485 23.9693C152.818 23.9693 152.356 23.8158 152.023 23.4321C151.715 23.0739 151.561 22.4855 151.561 21.6158V14.9134H154.974V14.9134Z" fill="#737373"/>
<path d="M0 0H15.731V15.6814H0V0Z" fill="#F25022"/>
<path d="M17.3737 0H33.1047V15.6814H17.3737V0Z" fill="#7FBA00"/>
<path d="M0 17.3181H15.731V32.9995H0V17.3181Z" fill="#00A4EF"/>
<path d="M17.3737 17.3181H33.1047V32.9995H17.3737V17.3181Z" fill="#FFB900"/>
</svg>
