<svg width="231" height="59" viewBox="0 0 231 59" fill="none" xmlns="http://www.w3.org/2000/svg">
<g clip-path="url(#clip0_149_3749)">
<path d="M137.043 25.2845H143.135V46.3559H137.043V43.6166C134.867 46.7773 132.038 46.9881 130.298 46.9881C123.552 46.9881 119.201 41.9309 119.201 35.8202C119.201 29.4988 123.552 24.6523 129.862 24.6523C131.603 24.6523 134.867 24.8631 136.825 28.0238V25.2845H137.043ZM125.728 35.8202C125.728 39.1916 128.122 41.7202 131.821 41.7202C135.302 41.7202 137.913 39.1916 137.913 35.8202C137.913 32.4488 135.519 29.9202 131.821 29.9202C128.339 29.9202 125.728 32.4488 125.728 35.8202Z" fill="black"/>
<path d="M155.101 30.3437V46.358H149.009V30.3437H146.615V25.2866H149.009V18.1223H155.101V25.2866H159.235V30.3437H155.101Z" fill="black"/>
<path d="M173.596 30.3416C172.073 29.0773 170.767 28.8666 170.115 28.8666C168.592 28.8666 167.721 29.4988 167.721 30.5523C167.721 31.1845 167.939 31.8166 169.68 32.4488L171.203 32.8702C172.943 33.5023 175.554 34.1345 176.642 35.8202C177.295 36.6631 177.73 37.9273 177.73 39.4023C177.73 41.2988 177.077 43.1952 175.337 44.6702C173.596 46.1452 171.42 46.9881 168.809 46.9881C164.24 46.9881 161.847 44.8809 160.324 43.4059L163.587 39.8238C164.893 41.0881 166.633 42.3523 168.374 42.3523C170.115 42.3523 171.42 41.5095 171.42 40.0345C171.42 38.7702 170.332 38.1381 169.462 37.9273L168.157 37.5059C166.633 36.8738 164.893 36.2416 163.587 34.9773C162.499 33.9238 161.847 32.6595 161.847 30.9738C161.847 28.8666 162.935 27.1809 164.022 26.1273C165.763 24.8631 167.939 24.6523 169.68 24.6523C171.203 24.6523 173.814 24.8631 176.642 26.9702L173.596 30.3416Z" fill="black"/>
<path d="M186.868 28.0227C189.044 25.0727 192.09 24.6513 193.831 24.6513C200.141 24.6513 204.493 29.4977 204.493 35.8191C204.493 42.1406 200.141 46.987 193.613 46.987C192.308 46.987 189.044 46.7763 186.651 43.6156V46.3548H180.776V10.9548H186.868V28.0227ZM186.216 35.8191C186.216 39.1905 188.609 41.7191 192.308 41.7191C195.789 41.7191 198.4 39.1905 198.4 35.8191C198.4 32.4477 196.007 29.9191 192.308 29.9191C188.609 29.9191 186.216 32.4477 186.216 35.8191Z" fill="black"/>
<path d="M214.5 43.1929L204.056 25.2822H211.236L217.981 37.2929L224.074 25.2822H231.036L213.63 57.5215H206.667L214.5 43.1929Z" fill="black"/>
<path d="M117.677 28.8599H111.585H102.446V34.7599H110.497C109.191 38.7635 106.145 41.5028 100.488 41.5028C94.1782 41.5028 89.609 36.4457 89.609 30.3349C89.609 24.2242 93.9607 18.9564 100.271 18.9564C103.752 18.9564 107.233 20.6421 109.409 23.3814L114.413 20.2207C111.15 15.7957 105.928 13.2671 100.271 13.2671C90.6969 13.2671 82.864 20.8528 82.864 30.3349C82.864 39.8171 90.2618 47.4028 100.271 47.4028C110.279 47.4028 117.677 39.8171 117.677 30.3349C117.895 29.7028 117.677 29.2814 117.677 28.8599Z" fill="black"/>
<path d="M54.5762 29.5011H39.3455V33.7154H49.7894C48.2663 40.0368 43.4795 45.3047 37.1696 47.4118L12.1477 23.1797C14.7586 15.8047 22.1564 10.5368 30.6422 10.5368C37.1696 10.5368 43.0444 13.6975 46.7433 18.5439L50.007 15.8047C45.6553 10.1154 38.6927 6.32251 30.6422 6.32251C19.3279 6.32251 9.75425 14.1189 7.36084 24.4439L36.0817 52.2582C46.5257 49.7297 54.5762 40.4582 54.5762 29.5011Z" fill="white"/>
<path d="M6.7074 29.7148C6.7074 35.6148 9.1008 41.3041 13.67 45.7291C18.2393 50.1541 24.3316 52.472 30.2063 52.472L6.7074 29.7148Z" fill="white"/>
<path d="M30.6425 0C13.8887 0 0.180969 13.275 0.180969 29.5C0.180969 45.725 13.8887 59 30.6425 59C47.3964 59 61.104 45.725 61.104 29.5C61.104 13.275 47.3964 0 30.6425 0ZM13.6711 45.9357C9.10185 41.5107 6.70844 35.6107 6.70844 29.9214L30.4249 52.6786C24.3326 52.4679 18.2403 50.3607 13.6711 45.9357ZM35.8645 52.0464L7.36119 24.4429C9.7546 14.1179 19.3282 6.32143 30.6425 6.32143C38.6931 6.32143 45.6557 10.1143 50.0073 15.8036L46.7436 18.5429C43.0447 13.6964 37.17 10.5357 30.6425 10.5357C22.1568 10.5357 14.9766 15.8036 12.148 23.1786L37.17 47.4107C43.4799 45.3036 48.2667 40.0357 49.7898 33.7143H39.3458V29.5H54.5766C54.5766 40.4571 46.526 49.7286 35.8645 52.0464Z" fill="#663399"/>
</g>
<defs>
<clipPath id="clip0_149_3749">
<rect width="231" height="59" fill="white"/>
</clipPath>
</defs>
</svg>
