<svg width="115" height="30" viewBox="0 0 115 30" fill="none" xmlns="http://www.w3.org/2000/svg">
<g clip-path="url(#clip0_149_3753)">
<path fill-rule="evenodd" clip-rule="evenodd" d="M25.1059 4.57422H8.45703V12.9336H16.6491C16.9409 12.9336 17.1777 13.1707 17.1777 13.4629V21.5533H25.6346V5.10454C25.6347 5.03494 25.6211 4.966 25.5946 4.90167C25.5681 4.83733 25.5292 4.77886 25.4801 4.72961C25.431 4.68035 25.3727 4.64127 25.3085 4.61461C25.2443 4.58794 25.1754 4.57422 25.1059 4.57422Z" fill="#8E75FF"/>
<path opacity="0.405" fill-rule="evenodd" clip-rule="evenodd" d="M8.45552 4.57422V12.9336H0.64518C0.592703 12.9335 0.541437 12.9178 0.497891 12.8884C0.454344 12.8591 0.42048 12.8175 0.400599 12.7689C0.380717 12.7202 0.375714 12.6668 0.386225 12.6153C0.396736 12.5638 0.422287 12.5166 0.459634 12.4797L8.45552 4.57422ZM17.6275 29.4674C17.5903 29.504 17.5432 29.5288 17.492 29.5387C17.4408 29.5485 17.3878 29.543 17.3397 29.5229C17.2916 29.5027 17.2506 29.4688 17.2216 29.4254C17.1927 29.382 17.1772 29.3309 17.1772 29.2787V21.5532H25.634L17.6275 29.4665V29.4674Z" fill="#8E75FF"/>
<path opacity="0.405" d="M8.45605 12.9336H16.9139C17.0588 12.9336 17.1777 13.0517 17.1777 13.1978V21.5533H8.98563C8.84544 21.5533 8.71098 21.4975 8.61185 21.3982C8.51271 21.299 8.45702 21.1643 8.45702 21.0239V12.9336H8.45605Z" fill="#8E75FF"/>
<path fill-rule="evenodd" clip-rule="evenodd" d="M110.913 4.04731C111.386 4.5157 111.943 4.74892 112.587 4.74892C113.251 4.74892 113.819 4.5157 114.292 4.04731C114.764 3.57892 115 3.02731 115 2.38957C115 1.75279 114.764 1.19537 114.292 0.71731C114.072 0.486784 113.807 0.304114 113.514 0.180726C113.221 0.0573381 112.905 -0.00411397 112.587 0.000213674C111.943 0.000213674 111.386 0.239246 110.913 0.716343C110.441 1.19537 110.205 1.75183 110.205 2.39054C110.205 3.02731 110.441 3.57892 110.913 4.04731ZM59.6368 10.1557C59.6368 10.2041 59.5962 10.2447 59.5469 10.2447H56.2274V16.4576C56.2274 16.9754 56.3588 17.3538 56.6197 17.5928C56.8807 17.8318 57.2633 17.9654 57.7659 17.9954C58.2259 18.0234 58.7864 18.0215 59.4483 17.9905L59.5421 17.9857C59.5542 17.985 59.5662 17.9869 59.5776 17.991C59.5889 17.9952 59.5993 18.0017 59.6081 18.01C59.6169 18.0183 59.6239 18.0284 59.6286 18.0395C59.6334 18.0506 59.6358 18.0626 59.6358 18.0747V21.3951C59.636 21.4171 59.6279 21.4384 59.6133 21.4548C59.5986 21.4713 59.5784 21.4817 59.5566 21.4841L59.4957 21.4909C56.8961 21.7647 55.0571 21.5102 53.9805 20.7283C52.8846 19.9318 52.3377 18.5083 52.3377 16.4576V10.2447H49.8019C49.7783 10.2447 49.7557 10.2353 49.739 10.2187C49.7223 10.202 49.713 10.1793 49.713 10.1557V6.63021C49.713 6.58183 49.7526 6.54118 49.8019 6.54118H52.3367V4.07634C52.3367 4.00473 52.3792 3.94086 52.444 3.91183L56.1027 2.31796C56.1163 2.3118 56.1312 2.30915 56.146 2.31025C56.1608 2.31135 56.1752 2.31617 56.1877 2.32426C56.2002 2.33235 56.2105 2.34346 56.2176 2.35656C56.2247 2.36966 56.2284 2.38434 56.2283 2.39925V6.54118H59.5469C59.5952 6.54118 59.6358 6.58086 59.6358 6.63021V10.1557H59.6368ZM66.6914 9.11054C67.0528 8.15441 67.651 7.43731 68.485 6.95925C69.3078 6.49014 70.2383 6.24336 71.1851 6.24312C71.2344 6.24312 71.275 6.28279 71.275 6.33312V10.3831C71.2749 10.4034 71.2707 10.4234 71.2624 10.4419C71.2542 10.4604 71.2422 10.477 71.2272 10.4906C71.2122 10.5042 71.1945 10.5145 71.1752 10.5208C71.156 10.5271 71.1357 10.5293 71.1155 10.5273C69.9935 10.4267 68.9856 10.6715 68.0927 11.2609C67.1582 11.8773 66.6914 12.9031 66.6914 14.3373V21.3863C66.6914 21.3981 66.6891 21.4098 66.6846 21.4206C66.68 21.4315 66.6734 21.4414 66.665 21.4496C66.6567 21.4579 66.6468 21.4645 66.6359 21.4689C66.625 21.4733 66.6133 21.4755 66.6015 21.4754H62.8887C62.8651 21.4754 62.8425 21.466 62.8258 21.4493C62.8091 21.4326 62.7998 21.41 62.7998 21.3863V6.62925C62.7998 6.58086 62.8394 6.54021 62.8887 6.54021H66.6015C66.6499 6.54021 66.6904 6.57989 66.6904 6.62925V9.1086L66.6914 9.11054ZM85.0875 6.54118C85.0758 6.54105 85.0641 6.54326 85.0532 6.54768C85.0423 6.5521 85.0324 6.55863 85.024 6.56691C85.0157 6.57519 85.0091 6.58505 85.0045 6.59592C85 6.60678 84.9977 6.61844 84.9977 6.63021V8.30441C83.8322 6.84989 82.1932 6.12312 80.0817 6.12312C78.0716 6.12312 76.3466 6.88473 74.9096 8.40796C73.4716 9.93118 72.7526 11.798 72.7526 14.0083C72.7526 16.2186 73.4716 18.0854 74.9096 19.6086C76.3466 21.1318 78.0716 21.8934 80.0817 21.8934C82.1932 21.8934 83.8312 21.1667 84.9977 19.7131V21.3863C84.9977 21.4347 85.0382 21.4754 85.0875 21.4754H88.7994C88.8487 21.4754 88.8893 21.4357 88.8893 21.3863V6.62925C88.8893 6.61747 88.887 6.60582 88.8824 6.59495C88.8779 6.58408 88.8713 6.57423 88.8629 6.56595C88.8546 6.55767 88.8447 6.55113 88.8338 6.54671C88.8229 6.54229 88.8112 6.54009 88.7994 6.54021H85.0875V6.54118ZM77.8203 17.0547C78.6041 17.8318 79.5985 18.2199 80.8064 18.2199C82.0125 18.2199 83.0127 17.826 83.8071 17.0392C84.6014 16.2534 84.9977 15.2431 84.9977 14.0083C84.9977 12.7734 84.6014 11.7631 83.8071 10.9763C83.0127 10.1905 82.0125 9.79667 80.8055 9.79667C79.5994 9.79667 78.6041 10.1905 77.8193 10.9773C77.0366 11.7631 76.6433 12.7734 76.6433 14.0083C76.6433 15.2431 77.0356 16.2583 77.8203 17.0547ZM106.184 8.40796C104.746 6.88473 103.011 6.12312 100.981 6.12312C98.8692 6.12312 97.2408 6.84989 96.0947 8.30344V6.63021C96.0947 6.6066 96.0853 6.58396 96.0686 6.56726C96.052 6.55056 96.0294 6.54118 96.0058 6.54118H92.2929C92.2693 6.54118 92.2467 6.55056 92.23 6.56726C92.2134 6.58396 92.204 6.6066 92.204 6.63021V27.3592C92.204 27.4086 92.2436 27.4492 92.2929 27.4492H96.0058C96.0541 27.4492 96.0947 27.4086 96.0947 27.3592V19.7131C97.2408 21.1667 98.8692 21.8934 100.981 21.8934C103.011 21.8934 104.746 21.1318 106.184 19.6086C107.621 18.0854 108.34 16.2186 108.34 14.0083C108.34 11.798 107.621 9.93118 106.184 8.40796ZM97.2708 17.0547C98.0555 17.8318 99.0499 18.2199 100.257 18.2199C101.463 18.2199 102.463 17.826 103.258 17.0392C104.052 16.2534 104.449 15.2431 104.449 14.0083C104.449 12.7734 104.052 11.7631 103.258 10.9763C102.463 10.1905 101.463 9.79667 100.257 9.79667C99.0499 9.79667 98.0555 10.1905 97.2708 10.9773C96.487 11.7631 96.0947 12.7734 96.0947 14.0083C96.0947 15.2431 96.487 16.2583 97.2708 17.0547ZM110.746 21.4754C110.722 21.4754 110.7 21.466 110.683 21.4493C110.667 21.4326 110.657 21.41 110.657 21.3863V6.62925C110.657 6.58086 110.697 6.54021 110.746 6.54021H114.459C114.508 6.54021 114.548 6.57989 114.548 6.62925V21.3873C114.548 21.4109 114.538 21.4336 114.522 21.4503C114.505 21.467 114.483 21.4763 114.459 21.4763H110.746V21.4754ZM41.374 11.7534C40.8406 11.5047 40.5748 11.1805 40.5748 10.7828C40.5748 10.4044 40.7401 10.1054 41.0725 9.88667C41.404 9.66796 41.8215 9.55763 42.324 9.55763C43.2875 9.55763 44.0151 9.93021 44.508 10.6744C44.5244 10.6997 44.5492 10.7184 44.578 10.7272C44.6068 10.736 44.6378 10.7345 44.6655 10.7228L47.9493 9.28376C47.9607 9.27866 47.9708 9.27123 47.9791 9.26196C47.9874 9.25268 47.9937 9.24175 47.9975 9.2299C48.0014 9.21804 48.0027 9.20551 48.0013 9.19311C48 9.18072 47.9961 9.16875 47.9899 9.15796C47.9521 9.09486 47.9134 9.03227 47.8739 8.97021C47.3125 8.09441 46.5848 7.44118 45.6715 6.94473C44.6665 6.39699 43.5503 6.12312 42.324 6.12312C40.6946 6.12312 39.333 6.54602 38.2362 7.39279C37.1412 8.2386 36.5933 9.39892 36.5933 10.8718C36.5933 11.8483 36.86 12.6592 37.3925 13.3067C37.9071 13.9405 38.5775 14.4294 39.3378 14.7254C40.1013 15.0234 40.8657 15.2731 41.6301 15.4715C42.3936 15.6709 43.043 15.8954 43.5754 16.1441C44.1079 16.3928 44.3746 16.716 44.3746 17.1147C44.3746 17.9712 43.6808 18.3989 42.294 18.3989C40.973 18.3989 40.0578 17.9151 39.5485 16.9492C39.5281 16.9085 39.4929 16.8772 39.4502 16.8615C39.4074 16.8459 39.3603 16.8471 39.3185 16.8651L36.0444 18.3022C36.0335 18.3069 36.0236 18.3139 36.0154 18.3226C36.0073 18.3313 36.0009 18.3415 35.9968 18.3527C35.9926 18.3639 35.9908 18.3758 35.9913 18.3878C35.9919 18.3997 35.9948 18.4114 35.9999 18.4221L36.0367 18.4967C37.1809 20.7612 39.2663 21.8934 42.294 21.8934C44.0229 21.8934 45.4657 21.4802 46.6215 20.6547C47.7783 19.8273 48.3562 18.6476 48.3562 17.1147C48.3562 16.0986 48.0894 15.2528 47.557 14.5754C47.0549 13.9217 46.3815 13.4205 45.6116 13.1276C44.8623 12.8435 44.0969 12.604 43.3194 12.4105C42.5549 12.2209 41.9065 12.0021 41.374 11.7525V11.7534Z" fill="#1D1B84"/>
</g>
<defs>
<clipPath id="clip0_149_3753">
<rect width="115" height="30" fill="white"/>
</clipPath>
</defs>
</svg>
