<svg width="103" height="32" viewBox="0 0 103 32" fill="none" xmlns="http://www.w3.org/2000/svg">
<g clip-path="url(#clip0_149_3754)">
<path d="M29.5261 22.678C29.3645 22.288 29.2131 21.878 29.0515 21.528L28.3042 19.858L28.2739 19.828C26.0524 15.028 23.6793 10.148 21.1649 5.34799L21.0639 5.14799C20.8115 4.67799 20.559 4.15799 20.2965 3.67799C19.9734 3.10799 19.6603 2.49799 19.1453 1.91799C18.6433 1.31112 18.0115 0.82218 17.2956 0.486446C16.5796 0.150713 15.7973 -0.0234375 15.0051 -0.0234375C14.2129 -0.0234375 13.4306 0.150713 12.7147 0.486446C11.9987 0.82218 11.3669 1.31112 10.8649 1.91799C10.3903 2.49799 10.0369 3.10799 9.71374 3.67799C9.46129 4.19799 9.20884 4.70799 8.94629 5.17799L8.84531 5.37799C6.37129 10.178 3.95786 15.058 1.73629 19.858L1.6757 19.918C1.45355 20.438 1.191 20.978 0.938547 21.558C0.776979 21.908 0.61541 22.288 0.453841 22.708C0.017639 23.8078 -0.121654 25.0011 0.0496898 26.1705C0.221034 27.3398 0.697101 28.4448 1.43097 29.3764C2.16484 30.308 3.13119 31.0343 4.23477 31.4834C5.33836 31.9326 6.54109 32.0893 7.72443 31.938C8.85891 31.7901 9.95132 31.4159 10.9356 30.838C12.2484 30.108 13.5106 29.048 14.9243 27.518C16.3381 29.048 17.6306 30.108 18.9131 30.848C20.1463 31.5648 21.5429 31.9605 22.9725 31.998C24.6279 32.0048 26.2299 31.4183 27.4827 30.3467C28.7356 29.2751 29.5546 27.7909 29.7886 26.168C30.0591 25.0018 29.9676 23.7818 29.5261 22.668V22.678ZM15.0253 24.338C13.2884 22.138 12.1575 20.118 11.7737 18.388C11.6148 17.7469 11.5805 17.0818 11.6728 16.428C11.7434 15.918 11.9353 15.468 12.1979 15.088C12.8037 14.218 13.864 13.678 15.0253 13.678C15.5768 13.6613 16.1238 13.7805 16.6173 14.0248C17.1108 14.2692 17.5353 14.6311 17.8528 15.078C18.1153 15.478 18.3072 15.918 18.3678 16.428C18.4687 17.008 18.4284 17.678 18.2668 18.388C17.8831 20.088 16.7521 22.128 15.0253 24.338ZM27.8902 25.818C27.7755 26.6419 27.4447 27.4217 26.9309 28.0797C26.4171 28.7376 25.7382 29.2508 24.9618 29.568C24.1943 29.888 23.3461 29.978 22.5181 29.888C21.7102 29.788 20.9024 29.528 20.0743 29.048C18.6995 28.2065 17.4632 27.161 16.4087 25.948C18.5293 23.348 19.8118 20.978 20.2965 18.868C20.5287 17.868 20.559 16.968 20.4581 16.138C20.332 15.3513 20.0357 14.6008 19.5896 13.938C19.0803 13.2192 18.4004 12.6354 17.6098 12.2379C16.8192 11.8403 15.9421 11.6412 15.0556 11.658C13.1875 11.658 11.5213 12.518 10.5115 13.928C10.0569 14.5892 9.76313 15.3456 9.65316 16.138C9.52188 16.978 9.55217 17.908 9.81472 18.868C10.2994 20.978 11.6122 23.378 13.7025 25.968C12.6659 27.2041 11.4267 28.2589 10.0369 29.088C9.19874 29.568 8.401 29.818 7.59315 29.918C6.33684 30.0774 5.06779 29.7392 4.06183 28.9771C3.05588 28.215 2.39433 27.0905 2.221 25.848C2.12002 25.048 2.1907 24.248 2.51384 23.348C2.61482 23.028 2.76629 22.708 2.92786 22.328C3.15002 21.808 3.41257 21.268 3.66502 20.728L3.70541 20.658C5.88659 15.888 8.26972 11.018 10.7437 6.24799L10.8447 6.04799C11.0972 5.56799 11.3496 5.05799 11.6122 4.57799C11.8747 4.06799 12.1575 3.57799 12.521 3.17799C12.8357 2.80601 13.2289 2.50686 13.6729 2.30161C14.1169 2.09635 14.6009 1.98998 15.0909 1.98998C15.581 1.98998 16.065 2.09635 16.509 2.30161C16.953 2.50686 17.3462 2.80601 17.6609 3.17799C18.0143 3.57799 18.3072 4.06799 18.5697 4.57799C18.8222 5.05799 19.0746 5.57799 19.3372 6.04799L19.4382 6.24799C21.9021 11.018 24.2852 15.888 26.5068 20.658L26.5371 20.688C26.7996 21.208 27.0218 21.788 27.2742 22.288C27.4358 22.678 27.5974 22.988 27.6984 23.318C27.8902 24.218 27.9912 25.018 27.8902 25.818ZM41.9467 24.118C41.1858 24.129 40.4321 23.9702 39.7416 23.6534C39.0511 23.3366 38.4415 22.87 37.958 22.288C36.8715 21.048 36.2948 19.4491 36.3423 17.808C36.3256 16.1312 36.9209 14.5048 38.0185 13.228C38.5263 12.6386 39.1583 12.1666 39.8701 11.8453C40.582 11.5239 41.3563 11.361 42.1385 11.368C42.8746 11.348 43.6037 11.5138 44.2573 11.8497C44.9109 12.1855 45.4675 12.6805 45.8748 13.288L45.9758 11.718H48.9244V23.798H45.9657L45.8647 22.038C45.4448 22.6867 44.8644 23.2182 44.1787 23.5823C43.493 23.9463 42.7246 24.1307 41.9467 24.118ZM42.7141 21.238C43.2998 21.238 43.8148 21.078 44.2995 20.788C44.7438 20.468 45.1074 20.048 45.3901 19.538C45.6426 19.028 45.7738 18.418 45.7738 17.738C45.8132 17.1474 45.6971 16.5568 45.4369 16.0239C45.1767 15.4911 44.7813 15.0342 44.2894 14.698C43.8168 14.4064 43.271 14.2518 42.7141 14.2518C42.1572 14.2518 41.6115 14.4064 41.1388 14.698C40.6945 15.018 40.331 15.438 40.0483 15.948C39.7812 16.5104 39.6498 17.1267 39.6645 17.748C39.6252 18.3386 39.7412 18.9292 40.0014 19.4621C40.2616 19.9949 40.657 20.4518 41.1489 20.788C41.6235 21.078 42.1385 21.238 42.7141 21.238ZM53.9734 8.45799C53.9734 8.80799 53.9129 9.12799 53.7513 9.38799C53.5897 9.63799 53.3676 9.86799 53.0747 10.028C52.7819 10.188 52.4688 10.248 52.1457 10.248C51.8226 10.248 51.4994 10.188 51.2066 10.028C50.9296 9.8753 50.6967 9.65498 50.53 9.38799C50.3736 9.10312 50.2969 8.78205 50.3079 8.45799C50.3079 8.09799 50.3785 7.77799 50.53 7.52799C50.6916 7.22799 50.9238 7.04799 51.2066 6.88799C51.4994 6.72799 51.8125 6.65799 52.1457 6.65799C52.4671 6.65066 52.785 6.72605 53.0682 6.87679C53.3514 7.02753 53.5902 7.24846 53.7614 7.51799C53.9083 7.80954 53.9811 8.13223 53.9734 8.45799ZM50.5401 23.758V11.698H53.7513V23.778H50.53L50.5401 23.758ZM62.3346 14.858V14.898C62.1832 14.828 61.9812 14.798 61.8297 14.768C61.6278 14.728 61.4662 14.728 61.2743 14.728C60.3756 14.728 59.699 14.988 59.2547 15.528C58.77 16.078 58.5479 16.848 58.5479 17.838V23.768H55.3266V11.688H58.2853L58.3863 13.518C58.7094 12.878 59.0932 12.398 59.6384 12.038C60.1808 11.6882 60.8194 11.5135 61.4662 11.538C61.6984 11.538 61.9206 11.558 62.1125 11.598C62.2134 11.628 62.274 11.628 62.3346 11.658V14.858ZM63.6272 23.758V6.73799H66.8384V13.238C67.2928 12.658 67.8078 12.208 68.454 11.858C69.4772 11.3612 70.6395 11.2203 71.7534 11.458C72.8673 11.6957 73.8679 12.2981 74.5937 13.168C75.6825 14.4106 76.2593 16.0135 76.2093 17.658C76.226 19.3348 75.6307 20.9611 74.5331 22.238C74.0253 22.8274 73.3933 23.2994 72.6815 23.6207C71.9696 23.9421 71.1953 24.105 70.4131 24.098C69.677 24.1179 68.9479 23.9522 68.2943 23.6163C67.6407 23.2805 67.0841 22.7855 66.6768 22.178L66.5758 23.748L63.6272 23.778V23.758ZM69.8375 21.238C70.4131 21.238 70.9281 21.078 71.4128 20.788C71.8571 20.468 72.2206 20.048 72.5034 19.538C72.7659 19.028 72.8871 18.418 72.8871 17.738C72.8871 17.068 72.7659 16.458 72.5034 15.948C72.2382 15.4562 71.8656 15.0292 71.4128 14.698C70.9401 14.4064 70.3944 14.2518 69.8375 14.2518C69.2806 14.2518 68.7348 14.4064 68.2622 14.698C67.8078 15.018 67.4543 15.438 67.1615 15.948C66.8945 16.5104 66.7631 17.1267 66.7778 17.748C66.7384 18.3386 66.8545 18.9292 67.1147 19.4621C67.3749 19.9949 67.7703 20.4518 68.2622 20.788C68.7368 21.078 69.2518 21.238 69.8375 21.238ZM77.4211 23.768V11.688H80.3798L80.4808 13.258C80.8526 12.6562 81.38 12.1637 82.0085 11.8314C82.637 11.4991 83.3437 11.3391 84.0555 11.368C84.8695 11.3541 85.6696 11.5781 86.3557 12.0121C87.0418 12.4461 87.5835 13.0708 87.913 13.808C88.2664 14.568 88.4583 15.508 88.4583 16.558V23.798H85.237V16.978C85.237 16.138 85.0451 15.478 84.6614 14.988C84.2777 14.508 83.7526 14.248 83.0861 14.248C82.6014 14.248 82.1773 14.348 81.8036 14.568C81.4502 14.798 81.1574 15.088 80.9352 15.498C80.7106 15.9124 80.5992 16.3778 80.6121 16.848V23.768H77.4211ZM90.0638 23.768V6.72799H93.2851V13.228C93.7214 12.6448 94.289 12.1703 94.9429 11.8422C95.5967 11.5141 96.3187 11.3415 97.0517 11.338C97.8126 11.327 98.5663 11.4857 99.2568 11.8025C99.9473 12.1193 100.557 12.586 101.04 13.168C102.122 14.4105 102.694 16.0085 102.646 17.648C102.664 19.3249 102.068 20.9516 100.97 22.228C100.462 22.8174 99.83 23.2894 99.1181 23.6107C98.4063 23.9321 97.632 24.095 96.8497 24.088C96.1136 24.1079 95.3845 23.9422 94.7309 23.6063C94.0773 23.2705 93.5207 22.7755 93.1134 22.168L93.0226 23.738L90.0638 23.768ZM96.3044 21.238C96.8901 21.238 97.4051 21.078 97.8797 20.788C98.3341 20.468 98.6876 20.048 98.9804 19.538C99.2329 19.028 99.3641 18.418 99.3641 17.738C99.4035 17.1474 99.2874 16.5568 99.0272 16.0239C98.767 15.4911 98.3716 15.0342 97.8797 14.698C97.4071 14.4064 96.8613 14.2518 96.3044 14.2518C95.7475 14.2518 95.2018 14.4064 94.7291 14.698C94.2848 15.018 93.9213 15.438 93.6385 15.948C93.3567 16.5054 93.2245 17.1253 93.2548 17.748C93.2155 18.3386 93.3316 18.9292 93.5917 19.4621C93.8519 19.9949 94.2473 20.4518 94.7392 20.788C95.2138 21.078 95.6985 21.238 96.3044 21.238Z" fill="#FF385C"/>
</g>
<defs>
<clipPath id="clip0_149_3754">
<rect width="103" height="32" fill="white"/>
</clipPath>
</defs>
</svg>
