<svg width="104" height="33" viewBox="0 0 104 33" fill="none" xmlns="http://www.w3.org/2000/svg">
<path d="M30.5261 23.678C30.3645 23.288 30.2131 22.878 30.0515 22.528L29.3042 20.858L29.2739 20.828C27.0524 16.028 24.6793 11.148 22.1649 6.34799L22.0639 6.14799C21.8115 5.67799 21.559 5.15799 21.2965 4.67799C20.9734 4.10799 20.6603 3.49799 20.1453 2.91799C19.6433 2.31112 19.0115 1.82218 18.2956 1.48645C17.5796 1.15071 16.7973 0.976563 16.0051 0.976562C15.2129 0.976563 14.4306 1.15071 13.7147 1.48645C12.9987 1.82218 12.3669 2.31112 11.8649 2.91799C11.3903 3.49799 11.0369 4.10799 10.7137 4.67799C10.4613 5.19799 10.2088 5.70799 9.94629 6.17799L9.84531 6.37799C7.37129 11.178 4.95786 16.058 2.73629 20.858L2.6757 20.918C2.45355 21.438 2.191 21.978 1.93855 22.558C1.77698 22.908 1.61541 23.288 1.45384 23.708C1.01764 24.8078 0.878346 26.0011 1.04969 27.1705C1.22103 28.3398 1.6971 29.4448 2.43097 30.3764C3.16484 31.308 4.13119 32.0343 5.23477 32.4834C6.33836 32.9326 7.54109 33.0893 8.72443 32.938C9.85891 32.7901 10.9513 32.4159 11.9356 31.838C13.2484 31.108 14.5106 30.048 15.9243 28.518C17.3381 30.048 18.6306 31.108 19.9131 31.848C21.1463 32.5648 22.5429 32.9605 23.9725 32.998C25.6279 33.0048 27.2299 32.4183 28.4827 31.3467C29.7356 30.2751 30.5546 28.7909 30.7886 27.168C31.0591 26.0018 30.9676 24.7818 30.5261 23.668V23.678ZM16.0253 25.338C14.2884 23.138 13.1575 21.118 12.7737 19.388C12.6148 18.7469 12.5805 18.0818 12.6728 17.428C12.7434 16.918 12.9353 16.468 13.1979 16.088C13.8037 15.218 14.864 14.678 16.0253 14.678C16.5768 14.6613 17.1238 14.7805 17.6173 15.0248C18.1108 15.2692 18.5353 15.6311 18.8528 16.078C19.1153 16.478 19.3072 16.918 19.3678 17.428C19.4687 18.008 19.4284 18.678 19.2668 19.388C18.8831 21.088 17.7521 23.128 16.0253 25.338ZM28.8902 26.818C28.7755 27.6419 28.4447 28.4217 27.9309 29.0797C27.4171 29.7376 26.7382 30.2508 25.9618 30.568C25.1943 30.888 24.3461 30.978 23.5181 30.888C22.7102 30.788 21.9024 30.528 21.0743 30.048C19.6995 29.2065 18.4632 28.161 17.4087 26.948C19.5293 24.348 20.8118 21.978 21.2965 19.868C21.5287 18.868 21.559 17.968 21.4581 17.138C21.332 16.3513 21.0357 15.6008 20.5896 14.938C20.0803 14.2192 19.4004 13.6354 18.6098 13.2379C17.8192 12.8403 16.9421 12.6412 16.0556 12.658C14.1875 12.658 12.5213 13.518 11.5115 14.928C11.0569 15.5892 10.7631 16.3456 10.6532 17.138C10.5219 17.978 10.5522 18.908 10.8147 19.868C11.2994 21.978 12.6122 24.378 14.7025 26.968C13.6659 28.2041 12.4267 29.2589 11.0369 30.088C10.1987 30.568 9.401 30.818 8.59315 30.918C7.33684 31.0774 6.06779 30.7392 5.06183 29.9771C4.05588 29.215 3.39433 28.0905 3.221 26.848C3.12002 26.048 3.1907 25.248 3.51384 24.348C3.61482 24.028 3.76629 23.708 3.92786 23.328C4.15002 22.808 4.41257 22.268 4.66502 21.728L4.70541 21.658C6.88659 16.888 9.26972 12.018 11.7437 7.24799L11.8447 7.04799C12.0972 6.56799 12.3496 6.05799 12.6122 5.57799C12.8747 5.06799 13.1575 4.57799 13.521 4.17799C13.8357 3.80601 14.2289 3.50686 14.6729 3.30161C15.1169 3.09635 15.6009 2.98998 16.0909 2.98998C16.581 2.98998 17.065 3.09635 17.509 3.30161C17.953 3.50686 18.3462 3.80601 18.6609 4.17799C19.0143 4.57799 19.3072 5.06799 19.5697 5.57799C19.8222 6.05799 20.0746 6.57799 20.3372 7.04799L20.4382 7.24799C22.9021 12.018 25.2852 16.888 27.5068 21.658L27.5371 21.688C27.7996 22.208 28.0218 22.788 28.2742 23.288C28.4358 23.678 28.5974 23.988 28.6984 24.318C28.8902 25.218 28.9912 26.018 28.8902 26.818ZM42.9467 25.118C42.1858 25.129 41.4321 24.9702 40.7416 24.6534C40.0511 24.3366 39.4415 23.87 38.958 23.288C37.8715 22.048 37.2948 20.4491 37.3423 18.808C37.3256 17.1312 37.9209 15.5048 39.0185 14.228C39.5263 13.6386 40.1583 13.1666 40.8701 12.8453C41.582 12.5239 42.3563 12.361 43.1385 12.368C43.8746 12.348 44.6037 12.5138 45.2573 12.8497C45.9109 13.1855 46.4675 13.6805 46.8748 14.288L46.9758 12.718H49.9244V24.798H46.9657L46.8647 23.038C46.4448 23.6867 45.8644 24.2182 45.1787 24.5823C44.493 24.9463 43.7246 25.1307 42.9467 25.118ZM43.7141 22.238C44.2998 22.238 44.8148 22.078 45.2995 21.788C45.7438 21.468 46.1074 21.048 46.3901 20.538C46.6426 20.028 46.7738 19.418 46.7738 18.738C46.8132 18.1474 46.6971 17.5568 46.4369 17.0239C46.1767 16.4911 45.7813 16.0342 45.2894 15.698C44.8168 15.4064 44.271 15.2518 43.7141 15.2518C43.1572 15.2518 42.6115 15.4064 42.1388 15.698C41.6945 16.018 41.331 16.438 41.0483 16.948C40.7812 17.5104 40.6498 18.1267 40.6645 18.748C40.6252 19.3386 40.7412 19.9292 41.0014 20.4621C41.2616 20.9949 41.657 21.4518 42.1489 21.788C42.6235 22.078 43.1385 22.238 43.7141 22.238ZM54.9734 9.45799C54.9734 9.80799 54.9129 10.128 54.7513 10.388C54.5897 10.638 54.3676 10.868 54.0747 11.028C53.7819 11.188 53.4688 11.248 53.1457 11.248C52.8226 11.248 52.4994 11.188 52.2066 11.028C51.9296 10.8753 51.6967 10.655 51.53 10.388C51.3736 10.1031 51.2969 9.78205 51.3079 9.45799C51.3079 9.09799 51.3785 8.77799 51.53 8.52799C51.6916 8.22799 51.9238 8.04799 52.2066 7.88799C52.4994 7.72799 52.8125 7.65799 53.1457 7.65799C53.4671 7.65066 53.785 7.72605 54.0682 7.87679C54.3514 8.02753 54.5902 8.24846 54.7614 8.51799C54.9083 8.80954 54.9811 9.13223 54.9734 9.45799ZM51.5401 24.758V12.698H54.7513V24.778H51.53L51.5401 24.758ZM63.3346 15.858V15.898C63.1832 15.828 62.9812 15.798 62.8297 15.768C62.6278 15.728 62.4662 15.728 62.2743 15.728C61.3756 15.728 60.699 15.988 60.2547 16.528C59.77 17.078 59.5479 17.848 59.5479 18.838V24.768H56.3266V12.688H59.2853L59.3863 14.518C59.7094 13.878 60.0932 13.398 60.6384 13.038C61.1808 12.6882 61.8194 12.5135 62.4662 12.538C62.6984 12.538 62.9206 12.558 63.1125 12.598C63.2134 12.628 63.274 12.628 63.3346 12.658V15.858ZM64.6272 24.758V7.73799H67.8384V14.238C68.2928 13.658 68.8078 13.208 69.454 12.858C70.4772 12.3612 71.6395 12.2203 72.7534 12.458C73.8673 12.6957 74.8679 13.2981 75.5937 14.168C76.6825 15.4106 77.2593 17.0135 77.2093 18.658C77.226 20.3348 76.6307 21.9611 75.5331 23.238C75.0253 23.8274 74.3933 24.2994 73.6815 24.6207C72.9696 24.9421 72.1953 25.105 71.4131 25.098C70.677 25.1179 69.9479 24.9522 69.2943 24.6163C68.6407 24.2805 68.0841 23.7855 67.6768 23.178L67.5758 24.748L64.6272 24.778V24.758ZM70.8375 22.238C71.4131 22.238 71.9281 22.078 72.4128 21.788C72.8571 21.468 73.2206 21.048 73.5034 20.538C73.7659 20.028 73.8871 19.418 73.8871 18.738C73.8871 18.068 73.7659 17.458 73.5034 16.948C73.2382 16.4562 72.8656 16.0292 72.4128 15.698C71.9401 15.4064 71.3944 15.2518 70.8375 15.2518C70.2806 15.2518 69.7348 15.4064 69.2622 15.698C68.8078 16.018 68.4543 16.438 68.1615 16.948C67.8945 17.5104 67.7631 18.1267 67.7778 18.748C67.7384 19.3386 67.8545 19.9292 68.1147 20.4621C68.3749 20.9949 68.7703 21.4518 69.2622 21.788C69.7368 22.078 70.2518 22.238 70.8375 22.238ZM78.4211 24.768V12.688H81.3798L81.4808 14.258C81.8526 13.6562 82.38 13.1637 83.0085 12.8314C83.637 12.4991 84.3437 12.3391 85.0555 12.368C85.8695 12.3541 86.6696 12.5781 87.3557 13.0121C88.0418 13.4461 88.5835 14.0708 88.913 14.808C89.2664 15.568 89.4583 16.508 89.4583 17.558V24.798H86.237V17.978C86.237 17.138 86.0451 16.478 85.6614 15.988C85.2777 15.508 84.7526 15.248 84.0861 15.248C83.6014 15.248 83.1773 15.348 82.8036 15.568C82.4502 15.798 82.1574 16.088 81.9352 16.498C81.7106 16.9124 81.5992 17.3778 81.6121 17.848V24.768H78.4211ZM91.0638 24.768V7.72799H94.2851V14.228C94.7214 13.6448 95.289 13.1703 95.9429 12.8422C96.5967 12.5141 97.3187 12.3415 98.0517 12.338C98.8126 12.327 99.5663 12.4857 100.257 12.8025C100.947 13.1193 101.557 13.586 102.04 14.168C103.122 15.4105 103.694 17.0085 103.646 18.648C103.664 20.3249 103.068 21.9516 101.97 23.228C101.462 23.8174 100.83 24.2894 100.118 24.6107C99.4063 24.9321 98.632 25.095 97.8497 25.088C97.1136 25.1079 96.3845 24.9422 95.7309 24.6063C95.0773 24.2705 94.5207 23.7755 94.1134 23.168L94.0226 24.738L91.0638 24.768ZM97.3044 22.238C97.8901 22.238 98.4051 22.078 98.8797 21.788C99.3341 21.468 99.6876 21.048 99.9804 20.538C100.233 20.028 100.364 19.418 100.364 18.738C100.404 18.1474 100.287 17.5568 100.027 17.0239C99.767 16.4911 99.3716 16.0342 98.8797 15.698C98.4071 15.4064 97.8613 15.2518 97.3044 15.2518C96.7475 15.2518 96.2018 15.4064 95.7291 15.698C95.2848 16.018 94.9213 16.438 94.6385 16.948C94.3567 17.5054 94.2245 18.1253 94.2548 18.748C94.2155 19.3386 94.3316 19.9292 94.5917 20.4621C94.8519 20.9949 95.2473 21.4518 95.7392 21.788C96.2138 22.078 96.6985 22.238 97.3044 22.238Z" fill="#FF385C"/>
</svg>
