<svg width="278" height="168" viewBox="0 0 278 168" fill="none" xmlns="http://www.w3.org/2000/svg">
<rect x="0.5" y="0.5" width="277" height="167" rx="23.5" fill="white" stroke="#B1CBCF"/>
<g clip-path="url(#clip0_15_9118)">
<path fill-rule="evenodd" clip-rule="evenodd" d="M151.899 93.0266C145.914 97.5749 137.238 100.002 129.768 100.002C119.295 100.002 109.866 96.008 102.733 89.3658C102.172 88.8434 102.675 88.1316 103.347 88.5384C111.045 93.156 120.564 95.934 130.396 95.934C137.027 95.934 144.322 94.5196 151.029 91.5845C152.043 91.1407 152.89 92.2686 151.899 93.0266" fill="#FF9900"/>
<path fill-rule="evenodd" clip-rule="evenodd" d="M154.388 90.0881C153.626 89.0804 149.331 89.612 147.403 89.8477C146.815 89.9217 146.726 89.3947 147.255 89.0157C150.676 86.5335 156.289 87.25 156.944 88.082C157.598 88.9186 156.773 94.7196 153.558 97.4883C153.065 97.9136 152.595 97.6871 152.814 97.1232C153.536 95.265 155.155 91.1003 154.388 90.0881" fill="#FF9900"/>
<path fill-rule="evenodd" clip-rule="evenodd" d="M147.537 71.4956V69.0828C147.537 68.7176 147.806 68.4727 148.129 68.4727H158.607C158.943 68.4727 159.212 68.7223 159.212 69.0828V71.149C159.207 71.4956 158.925 71.9486 158.423 72.6651L152.993 80.657C155.011 80.6061 157.14 80.9158 158.97 81.9789C159.382 82.2193 159.494 82.5706 159.526 82.9173V85.4919C159.526 85.8431 159.149 86.2545 158.755 86.0419C155.531 84.2993 151.249 84.1098 147.685 86.0604C147.322 86.2638 146.94 85.857 146.94 85.5057V83.0605C146.94 82.6677 146.945 81.9974 147.326 81.4011L153.616 72.1011H148.142C147.806 72.1011 147.537 71.8562 147.537 71.4956" fill="black"/>
<path fill-rule="evenodd" clip-rule="evenodd" d="M109.315 86.5475H106.127C105.822 86.5244 105.58 86.2887 105.558 85.9882V69.1216C105.558 68.7842 105.831 68.5161 106.172 68.5161H109.144C109.454 68.5299 109.7 68.7749 109.723 69.08V71.2848H109.781C110.557 69.1539 112.014 68.1602 113.978 68.1602C115.973 68.1602 117.219 69.1539 118.116 71.2848C118.887 69.1539 120.64 68.1602 122.519 68.1602C123.855 68.1602 125.317 68.7287 126.209 70.0044C127.218 71.4235 127.011 73.485 127.011 75.2923L127.007 85.9374C127.007 86.2748 126.733 86.5475 126.393 86.5475H123.209C122.891 86.5244 122.635 86.261 122.635 85.9374V76.9979C122.635 76.2861 122.698 74.5112 122.546 73.8363C122.308 72.7038 121.595 72.3849 120.672 72.3849C119.9 72.3849 119.093 72.9165 118.766 73.767C118.439 74.6175 118.47 76.0411 118.47 76.9979V85.9374C118.47 86.2748 118.197 86.5475 117.856 86.5475H114.673C114.35 86.5244 114.099 86.261 114.099 85.9374L114.094 76.9979C114.094 75.1167 114.395 72.3479 112.13 72.3479C109.839 72.3479 109.929 75.0473 109.929 76.9979V85.9374C109.929 86.2748 109.656 86.5475 109.315 86.5475" fill="black"/>
<path fill-rule="evenodd" clip-rule="evenodd" d="M168.232 68.1602C172.962 68.1602 175.522 72.3479 175.522 77.6728C175.522 82.8174 172.693 86.8988 168.232 86.8988C163.587 86.8988 161.059 82.7111 161.059 77.4925C161.059 72.2416 163.619 68.1602 168.232 68.1602V68.1602ZM168.259 71.6037C165.91 71.6037 165.762 74.904 165.762 76.961C165.762 79.0225 165.73 83.4229 168.232 83.4229C170.703 83.4229 170.819 79.873 170.819 77.7098C170.819 76.2861 170.761 74.5851 170.344 73.2354C169.985 72.0614 169.272 71.6037 168.259 71.6037" fill="black"/>
<path fill-rule="evenodd" clip-rule="evenodd" d="M181.656 86.5475H178.482C178.163 86.5244 177.908 86.261 177.908 85.9374L177.903 69.0661C177.93 68.7564 178.195 68.5161 178.518 68.5161H181.472C181.75 68.5299 181.979 68.7241 182.042 68.9875V71.5668H182.1C182.992 69.2603 184.243 68.1602 186.444 68.1602C187.875 68.1602 189.269 68.6917 190.166 70.1477C191 71.4974 191 73.767 191 75.3986V86.016C190.964 86.3118 190.699 86.5475 190.385 86.5475H187.189C186.897 86.5244 186.655 86.3026 186.624 86.016V76.8546C186.624 75.0104 186.83 72.311 184.629 72.311C183.853 72.311 183.14 72.8471 182.786 73.6607C182.338 74.6914 182.279 75.7176 182.279 76.8546V85.9374C182.275 86.2748 181.997 86.5475 181.656 86.5475" fill="black"/>
<path fill-rule="evenodd" clip-rule="evenodd" d="M139.184 78.4926C139.184 79.7729 139.215 80.8407 138.588 81.9777C138.081 82.9022 137.274 83.4707 136.382 83.4707C135.158 83.4707 134.44 82.5093 134.44 81.0903C134.44 78.2892 136.875 77.7807 139.184 77.7807V78.4926V78.4926ZM142.399 86.5029C142.188 86.6971 141.883 86.7109 141.645 86.5815C140.587 85.6756 140.395 85.2549 139.816 84.3906C138.068 86.2302 136.826 86.7803 134.561 86.7803C131.876 86.7803 129.791 85.0747 129.791 81.6588C129.791 78.9918 131.19 77.1752 133.19 76.2877C134.92 75.5019 137.337 75.3633 139.184 75.146V74.7208C139.184 73.9396 139.242 73.0152 138.794 72.3403C138.408 71.7348 137.664 71.4852 137.005 71.4852C135.79 71.4852 134.709 72.1277 134.445 73.4589C134.391 73.7547 134.18 74.0459 133.889 74.0598L130.8 73.7177C130.54 73.6577 130.248 73.4404 130.325 73.029C131.033 69.1648 134.422 68 137.453 68C139.005 68 141.031 68.4252 142.255 69.6363C143.807 71.1293 143.659 73.1215 143.659 75.2893V80.4108C143.659 81.95 144.277 82.6249 144.86 83.4569C145.062 83.7527 145.107 84.1086 144.847 84.3305C144.197 84.8898 143.04 85.9298 142.403 86.5122L142.399 86.5029" fill="black"/>
<path fill-rule="evenodd" clip-rule="evenodd" d="M97.393 78.4926C97.393 79.7729 97.4244 80.8407 96.7967 81.9777C96.29 82.9022 95.4875 83.4707 94.5908 83.4707C93.3668 83.4707 92.6539 82.5093 92.6539 81.0903C92.6539 78.2892 95.0884 77.7807 97.393 77.7807V78.4926V78.4926ZM100.608 86.5029C100.397 86.6971 100.092 86.7109 99.8544 86.5815C98.7963 85.6756 98.608 85.2549 98.0252 84.3906C96.2766 86.2302 95.0391 86.7803 92.7705 86.7803C90.0893 86.7803 88 85.0747 88 81.6588C88 78.9918 89.4033 77.1752 91.3985 76.2877C93.1291 75.5019 95.5458 75.3633 97.393 75.146V74.7208C97.393 73.9396 97.4513 73.0152 97.0074 72.3403C96.6173 71.7348 95.8731 71.4852 95.2185 71.4852C94.0034 71.4852 92.9184 72.1277 92.6539 73.4589C92.6001 73.7547 92.3894 74.0459 92.1024 74.0598L89.0088 73.7177C88.7487 73.6577 88.4618 73.4404 88.5335 73.029C89.2464 69.1648 92.6315 68 95.6623 68C97.2136 68 99.2402 68.4252 100.464 69.6363C102.015 71.1293 101.868 73.1215 101.868 75.2893V80.4108C101.868 81.95 102.486 82.6249 103.069 83.4569C103.275 83.7527 103.32 84.1086 103.06 84.3305C102.41 84.8898 101.253 85.9298 100.617 86.5122L100.608 86.5029" fill="black"/>
</g>
<defs>
<clipPath id="clip0_15_9118">
<rect width="103" height="32" fill="white" transform="translate(88 68)"/>
</clipPath>
</defs>
</svg>
