<svg width="42" height="42" viewBox="0 0 42 42" fill="none" xmlns="http://www.w3.org/2000/svg">
<path d="M5.09202 37.1891C4.90264 37.1887 4.71688 37.1372 4.55441 37.0399C4.39194 36.9426 4.25881 36.8031 4.16913 36.6363C4.07945 36.4695 4.03656 36.2815 4.04499 36.0924C4.05342 35.9032 4.11286 35.7198 4.21702 35.5616L7.89202 29.9791C7.01218 28.5065 6.60428 26.7998 6.72316 25.0885C6.84204 23.3772 7.48201 21.7434 8.55702 20.4066C9.06188 19.7497 9.65016 19.1614 10.307 18.6566C10.5255 18.4857 10.8027 18.4082 11.0781 18.441C11.3535 18.4737 11.6048 18.6142 11.777 18.8316C11.8639 18.9388 11.9284 19.0624 11.9667 19.195C12.005 19.3276 12.0163 19.4665 12 19.6036C11.9837 19.7406 11.94 19.873 11.8717 19.9929C11.8033 20.1128 11.7116 20.2177 11.602 20.3016C11.1174 20.6958 10.6773 21.1418 10.2895 21.6316C9.31916 22.7849 8.77536 24.2371 8.74952 25.7441C8.76119 27.0701 9.18299 28.3599 9.95702 29.4366C10.0759 29.609 10.1396 29.8134 10.1396 30.0228C10.1396 30.2323 10.0759 30.4367 9.95702 30.6091L7.68202 34.1091L12.7395 32.2541C12.9886 32.166 13.2604 32.166 13.5095 32.2541C14.675 32.7579 15.9324 33.0141 17.202 33.0066C21.857 33.0066 25.6545 29.7516 25.6545 25.7616C25.6545 25.4831 25.7652 25.216 25.9621 25.0191C26.159 24.8222 26.426 24.7116 26.7045 24.7116C26.983 24.7116 27.2501 24.8222 27.447 25.0191C27.6439 25.216 27.7545 25.4831 27.7545 25.7616C27.7545 30.9066 23.012 35.1066 17.2545 35.1066C15.8432 35.1129 14.4429 34.8578 13.1245 34.3541L5.44202 37.1541C5.32793 37.1841 5.20981 37.1959 5.09202 37.1891Z" fill="white"/>
<path d="M37.3104 29.6642C37.1943 29.6812 37.0764 29.6812 36.9604 29.6642L27.7029 26.2867C26.1298 26.9 24.4562 27.2145 22.7679 27.2142C15.9254 27.2142 10.3604 22.2792 10.3604 16.2242C10.3604 10.1692 15.9254 5.19922 22.7504 5.19922C29.5754 5.19922 35.1579 10.1167 35.1579 16.1717C35.1429 17.9559 34.6472 19.7031 33.7229 21.2292L38.1854 27.9667C38.3216 28.1418 38.3955 28.3574 38.3955 28.5792C38.3955 28.8011 38.3216 29.0166 38.1854 29.1917C38.0923 29.3389 37.9629 29.4597 37.8097 29.5425C37.6564 29.6252 37.4845 29.6671 37.3104 29.6642ZM27.6854 24.0642C27.8005 24.038 27.9202 24.038 28.0354 24.0642L34.6854 26.4792L31.5879 21.8242C31.4712 21.6509 31.4089 21.4468 31.4089 21.238C31.4089 21.0291 31.4712 20.825 31.5879 20.6517C32.5324 19.3215 33.0456 17.7332 33.0578 16.1017C33.0753 11.2892 28.4554 7.22922 22.7504 7.22922C17.0454 7.22922 12.4429 11.2192 12.4429 16.1017C12.4429 20.9842 17.0804 25.0617 22.7504 25.0617C24.2951 25.0608 25.8242 24.7514 27.2479 24.1517C27.387 24.0956 27.5353 24.066 27.6854 24.0642Z" fill="white"/>
<path d="M16.7121 17.7277C16.3418 17.7449 15.9749 17.6498 15.6597 17.4547C15.3444 17.2597 15.0956 16.9738 14.9458 16.6347C14.796 16.2956 14.7522 15.9191 14.8203 15.5547C14.8884 15.1903 15.0651 14.855 15.3273 14.5929C15.5894 14.3307 15.9247 14.154 16.2891 14.0859C16.6535 14.0179 17.03 14.0616 17.3691 14.2114C17.7082 14.3612 17.994 14.61 18.1891 14.9253C18.3842 15.2405 18.4793 15.6074 18.4621 15.9777C18.4621 16.4418 18.2777 16.8869 17.9495 17.2151C17.6213 17.5433 17.1762 17.7277 16.7121 17.7277ZM16.7121 15.6277C16.6688 15.6252 16.6256 15.6334 16.5863 15.6517C16.5471 15.6699 16.5129 15.6976 16.4869 15.7323C16.4609 15.7669 16.4439 15.8075 16.4374 15.8503C16.4309 15.8931 16.4351 15.9369 16.4496 15.9777C16.4496 16.2752 16.9746 16.2752 16.9746 15.9777C16.977 15.9418 16.972 15.9058 16.9598 15.8719C16.9477 15.838 16.9288 15.8069 16.9042 15.7807C16.8795 15.7544 16.8498 15.7335 16.8167 15.7192C16.7837 15.7049 16.7481 15.6976 16.7121 15.6977V15.6277Z" fill="white"/>
<path d="M22.7502 17.7277C22.3798 17.7449 22.013 17.6498 21.6977 17.4547C21.3825 17.2597 21.1336 16.9738 20.9838 16.6347C20.834 16.2956 20.7903 15.9191 20.8584 15.5547C20.9265 15.1903 21.1032 14.855 21.3653 14.5929C21.6275 14.3307 21.9628 14.154 22.3272 14.0859C22.6916 14.0179 23.0681 14.0616 23.4072 14.2114C23.7462 14.3612 24.0321 14.61 24.2272 14.9253C24.4222 15.2405 24.5174 15.6074 24.5002 15.9777C24.5002 16.4418 24.3158 16.8869 23.9876 17.2151C23.6594 17.5433 23.2143 17.7277 22.7502 17.7277ZM22.7502 15.6277C22.6805 15.6277 22.6138 15.6554 22.5645 15.7046C22.5153 15.7538 22.4877 15.8206 22.4877 15.8902C22.4877 16.1877 22.9952 16.1877 22.9952 15.8902C22.9802 15.8362 22.9484 15.7883 22.9043 15.7537C22.8602 15.719 22.8062 15.6994 22.7502 15.6977V15.6277Z" fill="white"/>
<path d="M29.3302 17.7277C28.9599 17.7449 28.5931 17.6498 28.2778 17.4547C27.9626 17.2597 27.7137 16.9738 27.5639 16.6347C27.4141 16.2956 27.3704 15.9191 27.4385 15.5547C27.5066 15.1903 27.6833 14.855 27.9454 14.5929C28.2076 14.3307 28.5428 14.154 28.9072 14.0859C29.2717 14.0179 29.6481 14.0616 29.9872 14.2114C30.3263 14.3612 30.6122 14.61 30.8073 14.9253C31.0023 15.2405 31.0975 15.6074 31.0802 15.9777C31.0802 16.4418 30.8959 16.8869 30.5677 17.2151C30.2395 17.5433 29.7944 17.7277 29.3302 17.7277ZM29.3302 15.6277C29.2606 15.6277 29.1938 15.6554 29.1446 15.7046C29.0954 15.7538 29.0677 15.8206 29.0677 15.8902C29.0677 16.1877 29.5927 16.1877 29.5927 15.8902C29.577 15.8333 29.5426 15.7833 29.4949 15.7483C29.4473 15.7134 29.3893 15.6956 29.3302 15.6977V15.6277Z" fill="white"/>
</svg>
