<svg width="42" height="42" viewBox="0 0 42 42" fill="none" xmlns="http://www.w3.org/2000/svg">
<path d="M29.7504 34.7541H12.2504C12.1133 34.7541 11.9776 34.7268 11.8512 34.6738C11.7248 34.6208 11.6102 34.5432 11.5141 34.4455C11.418 34.3478 11.3423 34.2319 11.2914 34.1046C11.2406 33.9773 11.2156 33.8411 11.2179 33.7041V28.4541C11.2179 26.4242 12.0231 24.4772 13.4567 23.0403C14.8904 21.6033 16.8356 20.7937 18.8654 20.7891H22.9954C25.0253 20.7937 26.9704 21.6033 28.4041 23.0403C29.8378 24.4772 30.6429 26.4242 30.6429 28.4541V33.7041C30.6496 33.9583 30.5622 34.206 30.3975 34.3997C30.2328 34.5935 30.0024 34.7197 29.7504 34.7541ZM13.4404 32.6541H28.7004V28.5066C28.6935 27.7734 28.5424 27.0489 28.2555 26.3742C27.9685 25.6995 27.5516 25.088 27.0283 24.5744C26.505 24.0609 25.8857 23.6555 25.2058 23.3813C24.5258 23.1072 23.7985 22.9696 23.0654 22.9766H18.9354C17.4609 22.9812 16.0481 23.569 15.0055 24.6116C13.9628 25.6543 13.375 27.0671 13.3704 28.5416L13.4404 32.6541Z" fill="#1B4A52"/>
<path d="M21.0872 19.2314C20.0794 19.2174 19.0984 18.9046 18.2685 18.3328C17.4385 17.7609 16.7969 16.9556 16.425 16.0189C16.053 15.0821 15.9673 14.0561 16.1788 13.0706C16.3904 12.0852 16.8896 11.1847 17.6132 10.4831C18.3369 9.78153 19.2524 9.31047 20.2439 9.12957C21.2355 8.94867 22.2584 9.06607 23.1831 9.46689C24.1079 9.8677 24.8929 10.5339 25.4388 11.3812C25.9847 12.2284 26.2669 13.2186 26.2497 14.2264C26.2267 15.574 25.6703 16.8575 24.7027 17.7957C23.735 18.7338 22.4349 19.2501 21.0872 19.2314ZM21.0872 11.1464C20.4999 11.1501 19.9266 11.3265 19.4389 11.6537C18.9511 11.9809 18.5704 12.4444 18.3443 12.9864C18.1181 13.5285 18.0564 14.1251 18.1669 14.7019C18.2774 15.2788 18.5553 15.8103 18.9658 16.2304C19.3763 16.6504 19.9013 16.9404 20.4755 17.0641C21.0496 17.1879 21.6475 17.14 22.1946 16.9263C22.7417 16.7126 23.2138 16.3427 23.5521 15.8626C23.8904 15.3825 24.08 14.8135 24.0972 14.2264C24.1065 13.8253 24.0356 13.4263 23.8885 13.053C23.7414 12.6797 23.5212 12.3396 23.2407 12.0526C22.9603 11.7656 22.6253 11.5376 22.2555 11.382C21.8857 11.2264 21.4884 11.1463 21.0872 11.1464Z" fill="#FF6961"/>
<path d="M37.1878 31.6042H29.7502C29.4718 31.6042 29.2047 31.4936 29.0078 31.2967C28.8109 31.0998 28.7002 30.8327 28.7002 30.5542C28.7002 30.2758 28.8109 30.0087 29.0078 29.8118C29.2047 29.6149 29.4718 29.5042 29.7502 29.5042H36.2078V28.2267C36.2265 27.2321 35.9624 26.2527 35.446 25.4024C34.9296 24.5522 34.1823 23.8661 33.2911 23.4242C32.3998 22.9823 31.4014 22.8026 30.4121 22.9062C29.4227 23.0098 28.4831 23.3923 27.7028 24.0092C27.4793 24.1792 27.1979 24.2543 26.9195 24.2183C26.6411 24.1822 26.3881 24.038 26.2152 23.8167C26.1302 23.7073 26.0681 23.5819 26.0326 23.448C25.997 23.3141 25.9888 23.1744 26.0084 23.0372C26.028 22.9 26.075 22.7682 26.1466 22.6496C26.2182 22.531 26.313 22.428 26.4253 22.3467C27.7081 21.3558 29.2843 20.8201 30.9053 20.8242C32.8549 20.8472 34.7172 21.6367 36.0894 23.022C37.4615 24.4072 38.2333 26.2769 38.2378 28.2267V30.5367C38.2401 30.6761 38.2146 30.8145 38.1629 30.9439C38.1112 31.0734 38.0342 31.1912 37.9365 31.2905C37.8387 31.3899 37.7222 31.4688 37.5937 31.5227C37.4651 31.5765 37.3271 31.6043 37.1878 31.6042Z" fill="#1B4A52"/>
<path d="M30.9052 20.2291C30.1115 20.2153 29.3396 19.9671 28.6866 19.5157C28.0336 19.0644 27.5286 18.43 27.2352 17.6924C26.9418 16.9548 26.8731 16.1469 27.0376 15.3704C27.2022 14.5938 27.5927 13.8832 28.16 13.328C28.7273 12.7728 29.4462 12.3977 30.2261 12.25C31.006 12.1023 31.8122 12.1885 32.5433 12.4977C33.2744 12.807 33.8977 13.3255 34.3349 13.9881C34.772 14.6507 35.0035 15.4278 35.0002 16.2216C35.0003 16.7553 34.8938 17.2837 34.687 17.7757C34.4801 18.2677 34.1771 18.7134 33.7956 19.0867C33.4142 19.46 32.962 19.7533 32.4657 19.9495C31.9693 20.1457 31.4388 20.2407 30.9052 20.2291ZM30.9052 14.2966C30.5237 14.2931 30.1498 14.4031 29.831 14.6125C29.5121 14.8219 29.2626 15.1213 29.1143 15.4727C28.9659 15.8241 28.9252 16.2117 28.9975 16.5863C29.0698 16.9608 29.2518 17.3055 29.5203 17.5764C29.7888 17.8474 30.1317 18.0325 30.5056 18.1082C30.8795 18.1839 31.2674 18.1468 31.6202 18.0017C31.973 17.8565 32.2747 17.6098 32.487 17.2929C32.6993 16.9759 32.8126 16.603 32.8127 16.2216C32.822 15.9644 32.7797 15.708 32.6883 15.4675C32.5969 15.2269 32.4581 15.0072 32.2803 14.8212C32.1024 14.6352 31.8891 14.4867 31.6529 14.3846C31.4168 14.2825 31.1625 14.2287 30.9052 14.2266V14.2966Z" fill="#1B4A52"/>
<path d="M12.2497 31.6042H4.26974C3.99126 31.6042 3.72418 31.4936 3.52726 31.2967C3.33035 31.0998 3.21973 30.8327 3.21973 30.5542V28.2267C3.22435 26.2649 4.00573 24.3847 5.39297 22.9975C6.7802 21.6102 8.6604 20.8288 10.6222 20.8242C12.3605 20.827 14.0413 21.4472 15.3647 22.5742C15.4718 22.6606 15.5605 22.7675 15.6256 22.8887C15.6908 23.0099 15.731 23.1428 15.7441 23.2798C15.7571 23.4167 15.7427 23.5549 15.7016 23.6861C15.6605 23.8174 15.5935 23.9392 15.5047 24.0442C15.4168 24.1518 15.3083 24.2409 15.1857 24.3062C15.063 24.3716 14.9286 24.412 14.7902 24.425C14.6518 24.438 14.5123 24.4234 14.3796 24.3821C14.2469 24.3408 14.1237 24.2735 14.0172 24.1842C13.0683 23.3812 11.8653 22.9409 10.6222 22.9417C9.22986 22.9417 7.8945 23.4948 6.90993 24.4794C5.92537 25.464 5.37225 26.7993 5.37225 28.1917V29.4517H12.3722C12.6507 29.4517 12.9178 29.5623 13.1147 29.7593C13.3116 29.9562 13.4222 30.2232 13.4222 30.5017C13.4222 30.7802 13.3116 31.0473 13.1147 31.2442C12.9178 31.4411 12.6507 31.5517 12.3722 31.5517L12.2497 31.6042Z" fill="#1B4A52"/>
<path d="M10.7622 20.2297C9.96544 20.2297 9.18656 19.9932 8.52428 19.5501C7.862 19.1071 7.34613 18.4774 7.042 17.7409C6.73788 17.0044 6.65921 16.1942 6.81594 15.413C6.97267 14.6317 7.35774 13.9146 7.9224 13.3524C8.48706 12.7902 9.20589 12.4082 9.98781 12.2549C10.7697 12.1016 11.5796 12.1838 12.3147 12.4911C13.0499 12.7984 13.6773 13.3171 14.1174 13.9813C14.5576 14.6455 14.7907 15.4254 14.7873 16.2222C14.7826 17.2866 14.3565 18.3059 13.6022 19.057C12.8479 19.808 11.8267 20.2297 10.7622 20.2297ZM10.7622 14.2972C10.3815 14.2972 10.0094 14.4101 9.6928 14.6216C9.37623 14.8331 9.12948 15.1338 8.98378 15.4855C8.83809 15.8373 8.79997 16.2243 8.87425 16.5977C8.94853 16.9711 9.13185 17.3141 9.40107 17.5834C9.67029 17.8526 10.0133 18.0359 10.3867 18.1102C10.7601 18.1845 11.1472 18.1464 11.4989 18.0007C11.8507 17.855 12.1513 17.6082 12.3628 17.2917C12.5744 16.9751 12.6873 16.6029 12.6873 16.2222C12.6992 15.9629 12.6581 15.704 12.5665 15.4612C12.4748 15.2184 12.3347 14.9968 12.1545 14.8101C11.9743 14.6233 11.7578 14.4753 11.5184 14.3751C11.2791 14.2749 11.0218 14.2245 10.7622 14.2272V14.2972Z" fill="#1B4A52"/>
</svg>
