<svg width="278" height="168" viewBox="0 0 278 168" fill="none" xmlns="http://www.w3.org/2000/svg">
<rect x="0.5" y="0.5" width="277" height="167" rx="23.5" fill="white" stroke="#B1CBCF"/>
<path d="M129.747 84.5639C129.747 90.6713 124.935 95.1717 119.031 95.1717C113.126 95.1717 108.315 90.6713 108.315 84.5639C108.315 78.4134 113.126 73.9561 119.031 73.9561C124.935 73.9561 129.747 78.4134 129.747 84.5639ZM125.056 84.5639C125.056 80.7474 122.267 78.1361 119.031 78.1361C115.794 78.1361 113.006 80.7474 113.006 84.5639C113.006 88.3421 115.794 90.9917 119.031 90.9917C122.267 90.9917 125.056 88.3374 125.056 84.5639Z" fill="#EA4335"/>
<path d="M152.864 84.5639C152.864 90.6713 148.053 95.1717 142.148 95.1717C136.244 95.1717 131.432 90.6713 131.432 84.5639C131.432 78.4182 136.244 73.9561 142.148 73.9561C148.053 73.9561 152.864 78.4134 152.864 84.5639ZM148.173 84.5639C148.173 80.7474 145.385 78.1361 142.148 78.1361C138.912 78.1361 136.123 80.7474 136.123 84.5639C136.123 88.3421 138.912 90.9917 142.148 90.9917C145.385 90.9917 148.173 88.3374 148.173 84.5639Z" fill="#FBBC05"/>
<path d="M175.019 74.5969V93.6413C175.019 101.475 170.366 104.675 164.866 104.675C159.689 104.675 156.573 101.236 155.398 98.4239L159.482 96.7356C160.209 98.4621 161.991 100.5 164.862 100.5C168.382 100.5 170.564 98.3426 170.564 94.2821V92.7565H170.4C169.35 94.043 167.327 95.1669 164.775 95.1669C159.434 95.1669 154.54 90.5469 154.54 84.6021C154.54 78.6143 159.434 73.9561 164.775 73.9561C167.323 73.9561 169.345 75.08 170.4 76.3282H170.564V74.6017H175.019V74.5969ZM170.896 84.6021C170.896 80.8669 168.387 78.1361 165.194 78.1361C161.957 78.1361 159.246 80.8669 159.246 84.6021C159.246 88.2991 161.957 90.9917 165.194 90.9917C168.387 90.9917 170.896 88.2991 170.896 84.6021Z" fill="#4285F4"/>
<path d="M182.364 63.4341V94.521H177.789V63.4341H182.364Z" fill="#34A853"/>
<path d="M200.193 88.0546L203.834 90.465C202.659 92.1916 199.827 95.1663 194.934 95.1663C188.865 95.1663 184.333 90.5081 184.333 84.5585C184.333 78.2502 188.904 73.9507 194.409 73.9507C199.952 73.9507 202.664 78.3316 203.55 80.6989L204.036 81.9042L189.756 87.7772C190.85 89.9055 192.55 90.9911 194.934 90.9911C197.323 90.9911 198.979 89.8242 200.193 88.0546ZM188.986 84.2381L198.531 80.302C198.006 78.9772 196.427 78.0542 194.568 78.0542C192.184 78.0542 188.865 80.1442 188.986 84.2381Z" fill="#EA4335"/>
<path d="M90.9966 81.8056V77.3052H106.269C106.418 78.0895 106.495 79.0173 106.495 80.0217C106.495 83.3982 105.566 87.5734 102.57 90.5482C99.6561 93.5612 95.9332 95.1682 91.0014 95.1682C81.8603 95.1682 74.1737 87.7743 74.1737 78.6969C74.1737 69.6195 81.8603 62.2256 91.0014 62.2256C96.0584 62.2256 99.6609 64.196 102.368 66.7643L99.1697 69.9399C97.2287 68.1321 94.5991 66.726 90.9966 66.726C84.3214 66.726 79.1007 72.0682 79.1007 78.6969C79.1007 85.3256 84.3214 90.6678 90.9966 90.6678C95.3264 90.6678 97.7922 88.9412 99.3719 87.3725C100.653 86.1004 101.496 84.283 101.828 81.8008L90.9966 81.8056Z" fill="#4285F4"/>
</svg>
