<svg width="42" height="42" viewBox="0 0 42 42" fill="none" xmlns="http://www.w3.org/2000/svg">
<path d="M21.8402 34.3709H20.2302C19.1209 34.3709 18.0571 33.9302 17.2727 33.1459C16.4883 32.3615 16.0477 31.2977 16.0477 30.1884V27.0034C14.4419 26.0224 13.1669 24.5827 12.3872 22.8701C11.6075 21.1575 11.3589 19.2506 11.6735 17.3953C11.988 15.54 12.8513 13.8216 14.1519 12.4617C15.4525 11.1018 17.1308 10.1628 18.9702 9.7659C21.136 9.30418 23.3953 9.61924 25.3523 10.6559C27.3092 11.6926 28.839 13.3847 29.6737 15.4359C30.5083 17.4872 30.5947 19.7667 29.9176 21.8752C29.2405 23.9836 27.8431 25.7867 25.9702 26.9684V30.1884C25.9703 31.2886 25.5368 32.3446 24.7638 33.1275C23.9907 33.9103 22.9403 34.3571 21.8402 34.3709ZM20.9827 11.6209C20.448 11.6222 19.9147 11.6749 19.3902 11.7784C17.9293 12.1181 16.6073 12.8967 15.6017 14.0095C14.5961 15.1223 13.955 16.5162 13.7646 18.0039C13.5741 19.4916 13.8433 21.002 14.5361 22.3323C15.2288 23.6625 16.312 24.7491 17.6402 25.4459C17.809 25.535 17.9504 25.6684 18.049 25.8318C18.1477 25.9953 18.2 26.1825 18.2002 26.3734V30.1534C18.2002 30.7057 18.4196 31.2354 18.8101 31.6259C19.2007 32.0165 19.7304 32.2359 20.2827 32.2359H21.8927C22.445 32.2359 22.9747 32.0165 23.3652 31.6259C23.7558 31.2354 23.9752 30.7057 23.9752 30.1534V26.3559C23.9747 26.1672 24.0268 25.982 24.1257 25.8213C24.2247 25.6605 24.3664 25.5305 24.5352 25.4459C25.9753 24.6712 27.1152 23.4374 27.7736 21.9405C28.432 20.4436 28.5711 18.7695 28.1688 17.1845C27.7665 15.5995 26.8459 14.1944 25.5533 13.1927C24.2608 12.1909 22.6704 11.65 21.0352 11.6559L20.9827 11.6209Z" fill="#1B4A52"/>
<path d="M25.5323 20.614H25.3923C25.1279 20.5709 24.8894 20.43 24.7241 20.2193C24.5588 20.0086 24.4787 19.7435 24.4998 19.4765C24.546 19.0054 24.4872 18.5299 24.3277 18.0842C24.1681 17.6386 23.9118 17.2338 23.5771 16.8991C23.2424 16.5644 22.8376 16.3081 22.392 16.1485C21.9463 15.989 21.4708 15.9302 20.9998 15.9765C20.7229 15.9966 20.4488 15.9098 20.234 15.7341C20.0191 15.5583 19.8798 15.3068 19.8448 15.0315C19.8328 14.8935 19.8482 14.7545 19.8902 14.6225C19.9321 14.4905 19.9998 14.3681 20.0893 14.2624C20.1787 14.1567 20.2882 14.0697 20.4115 14.0064C20.5347 13.9432 20.6692 13.905 20.8073 13.894C21.5957 13.8083 22.3934 13.9025 23.1403 14.1693C23.8871 14.4361 24.5639 14.8687 25.1196 15.4346C25.6753 16.0004 26.0957 16.6848 26.349 17.4364C26.6023 18.188 26.6821 18.9871 26.5823 19.774C26.5364 20.0163 26.4053 20.2342 26.2127 20.3883C26.0201 20.5424 25.7788 20.6224 25.5323 20.614Z" fill="#FF6961"/>
<path d="M22.2245 37.9048H19.7745C19.1433 37.9048 18.538 37.6541 18.0916 37.2078C17.6453 36.7614 17.3945 36.1561 17.3945 35.5248V32.9523C17.3945 32.8145 17.4217 32.6779 17.4745 32.5505C17.5272 32.4231 17.6046 32.3074 17.7021 32.2099C17.7996 32.1124 17.9153 32.035 18.0427 31.9823C18.1701 31.9295 18.3066 31.9023 18.4445 31.9023H23.5545C23.6924 31.9023 23.829 31.9295 23.9564 31.9823C24.0837 32.035 24.1995 32.1124 24.297 32.2099C24.3945 32.3074 24.4718 32.4231 24.5246 32.5505C24.5774 32.6779 24.6045 32.8145 24.6045 32.9523V35.5248C24.6045 36.1561 24.3538 36.7614 23.9075 37.2078C23.4611 37.6541 22.8558 37.9048 22.2245 37.9048ZM19.4945 34.0023V35.5248C19.4945 35.5991 19.524 35.6703 19.5765 35.7228C19.6291 35.7753 19.7003 35.8048 19.7745 35.8048H22.2245C22.2988 35.8048 22.37 35.7753 22.4225 35.7228C22.475 35.6703 22.5045 35.5991 22.5045 35.5248V34.0023H19.4945Z" fill="#1B4A52"/>
<path d="M20.8771 8.46969C20.5987 8.46969 20.3316 8.35906 20.1347 8.16215C19.9378 7.96524 19.8271 7.69817 19.8271 7.41969V4.91719C19.8271 4.63871 19.9378 4.37164 20.1347 4.17472C20.3316 3.97781 20.5987 3.86719 20.8771 3.86719C21.1556 3.86719 21.4227 3.97781 21.6196 4.17472C21.8165 4.37164 21.9271 4.63871 21.9271 4.91719V7.41969C21.9271 7.69817 21.8165 7.96524 21.6196 8.16215C21.4227 8.35906 21.1556 8.46969 20.8771 8.46969Z" fill="#FF6961"/>
<path d="M35.3151 17.0102H32.7951C32.5166 17.0102 32.2496 16.8995 32.0527 16.7026C31.8557 16.5057 31.7451 16.2386 31.7451 15.9602C31.7451 15.6817 31.8557 15.4146 32.0527 15.2177C32.2496 15.0208 32.5166 14.9102 32.7951 14.9102H35.3151C35.5936 14.9102 35.8607 15.0208 36.0576 15.2177C36.2545 15.4146 36.3651 15.6817 36.3651 15.9602C36.3651 16.2386 36.2545 16.5057 36.0576 16.7026C35.8607 16.8995 35.5936 17.0102 35.3151 17.0102Z" fill="#FF6961"/>
<path d="M29.7496 11.1297C29.4762 11.1251 29.2143 11.0191 29.0146 10.8322C28.8211 10.633 28.7129 10.3662 28.7129 10.0885C28.7129 9.81072 28.8211 9.54393 29.0146 9.3447L30.7646 7.5947C30.9639 7.40121 31.2307 7.29297 31.5084 7.29297C31.7861 7.29297 32.0529 7.40121 32.2521 7.5947C32.3522 7.69103 32.4317 7.80655 32.4861 7.93435C32.5404 8.06214 32.5685 8.19958 32.5685 8.33845C32.5685 8.47733 32.5404 8.61477 32.4861 8.74257C32.4317 8.87036 32.3522 8.98588 32.2521 9.08221L30.5021 10.8322C30.2981 11.0232 30.0291 11.1295 29.7496 11.1297Z" fill="#FF6961"/>
<path d="M12.5997 11.1282C12.3256 11.1271 12.0624 11.0206 11.8647 10.8307L10.1147 9.08073C9.91746 8.88348 9.80664 8.61594 9.80664 8.33698C9.80664 8.05802 9.91746 7.79048 10.1147 7.59323C10.312 7.39597 10.5795 7.28516 10.8585 7.28516C11.1374 7.28516 11.405 7.39597 11.6022 7.59323L13.3522 9.34323C13.4523 9.43955 13.5318 9.55507 13.5862 9.68287C13.6405 9.81066 13.6686 9.9481 13.6686 10.087C13.6686 10.2258 13.6405 10.3633 13.5862 10.4911C13.5318 10.6189 13.4523 10.7344 13.3522 10.8307C13.1501 11.0248 12.8799 11.1317 12.5997 11.1282Z" fill="#FF6961"/>
<path d="M9.36207 17.0102H6.85957C6.58109 17.0102 6.31402 16.8995 6.11711 16.7026C5.92019 16.5057 5.80957 16.2386 5.80957 15.9602C5.80957 15.6817 5.92019 15.4146 6.11711 15.2177C6.31402 15.0208 6.58109 14.9102 6.85957 14.9102H9.36207C9.64055 14.9102 9.90762 15.0208 10.1045 15.2177C10.3014 15.4146 10.4121 15.6817 10.4121 15.9602C10.4121 16.2386 10.3014 16.5057 10.1045 16.7026C9.90762 16.8995 9.64055 17.0102 9.36207 17.0102Z" fill="#FF6961"/>
</svg>
