<svg width="42" height="42" viewBox="0 0 42 42" fill="none" xmlns="http://www.w3.org/2000/svg">
<path d="M21.0005 36.6786C20.8293 36.6759 20.6611 36.6334 20.5092 36.5544C20.3574 36.4754 20.226 36.3622 20.1255 36.2236C19.723 35.6111 10.168 21.4361 10.168 15.7661C10.168 12.8931 11.3093 10.1378 13.3408 8.10636C15.3722 6.07487 18.1275 4.93359 21.0005 4.93359C23.8734 4.93359 26.6287 6.07487 28.6602 8.10636C30.6917 10.1378 31.833 12.8931 31.833 15.7661C31.833 21.4361 22.278 35.6111 21.8755 36.2236C21.775 36.3622 21.6436 36.4754 21.4917 36.5544C21.3398 36.6334 21.1716 36.6759 21.0005 36.6786ZM21.0005 7.01609C18.6798 7.01609 16.4542 7.93797 14.8133 9.57891C13.1723 11.2199 12.2505 13.4455 12.2505 15.7661C12.2505 19.5461 17.938 29.0311 21.0005 33.7211C24.063 29.0311 29.7505 19.5461 29.7505 15.7661C29.7505 13.4455 28.8286 11.2199 27.1877 9.57891C25.5467 7.93797 23.3211 7.01609 21.0005 7.01609Z" fill="#1B4A52"/>
<path d="M21.0004 20.6162C19.854 20.6197 18.7324 20.2829 17.7775 19.6485C16.8227 19.0141 16.0775 18.1107 15.6364 17.0526C15.1953 15.9944 15.0781 14.8292 15.2996 13.7044C15.5211 12.5796 16.0714 11.5459 16.8808 10.734C17.6902 9.92219 18.7223 9.36877 19.8464 9.14384C20.9705 8.91891 22.1361 9.0326 23.1956 9.4705C24.255 9.9084 25.1607 10.6508 25.798 11.6038C26.4352 12.5567 26.7754 13.6773 26.7754 14.8237C26.7754 16.357 26.1676 17.8277 25.085 18.9135C24.0025 19.9993 22.5337 20.6116 21.0004 20.6162ZM21.0004 11.1487C20.2694 11.1487 19.5548 11.3657 18.9472 11.7723C18.3396 12.1788 17.8663 12.7565 17.5874 13.4322C17.3084 14.108 17.2363 14.8513 17.3802 15.5681C17.5241 16.2848 17.8775 16.9427 18.3957 17.4584C18.9139 17.9741 19.5734 18.3244 20.2909 18.4649C21.0083 18.6054 21.7513 18.5298 22.4257 18.2476C23.1001 17.9654 23.6755 17.4894 24.0792 16.8799C24.4828 16.2704 24.6964 15.5548 24.6929 14.8237C24.6883 13.8474 24.2972 12.9127 23.6052 12.224C22.9133 11.5353 21.9767 11.1487 21.0004 11.1487Z" fill="#FF6961"/>
</svg>
