<svg width="64" height="64" viewBox="0 0 64 64" fill="none" xmlns="http://www.w3.org/2000/svg">
<mask id="mask0_3398_49066" style="mask-type:alpha" maskUnits="userSpaceOnUse" x="0" y="0" width="64" height="64">
<circle cx="32.2108" cy="31.7811" r="31.3709" fill="#FFD5D3"/>
</mask>
<g mask="url(#mask0_3398_49066)">
<path d="M24.8789 38.9478V34.6339L39.0362 33.8047C39.2205 35.0766 39.5449 37.7532 39.368 38.2841C39.191 38.815 35.3862 43.2981 33.506 45.4733L24.8789 38.9478Z" fill="#EF9B7A"/>
<path d="M42.08 23.2434C41.5048 22.9778 40.8818 23.7229 40.6421 24.1286L39.8125 26.0088L40.255 29.714C42.1905 30.0458 42.7989 23.5753 42.08 23.2434Z" fill="#FBB599"/>
<path d="M21.1232 23.2434C21.6983 22.9778 22.3214 23.7229 22.561 24.1286L23.3906 26.0088L22.9481 29.714C21.0126 30.0458 20.4043 23.5753 21.1232 23.2434Z" fill="#FBB599"/>
<path d="M23.7166 34.7992C23.5396 34.0028 22.3893 26.5041 21.8363 22.8543L21.4492 16.8818L28.0301 13.8398L38.0397 14.2271L40.8601 23.4072C40.5836 25.9879 39.9753 31.5808 39.7541 33.3062C39.4776 35.4629 34.4451 39.334 33.6156 39.7212C32.7861 40.1083 29.9104 39.9977 29.0808 39.7212C28.2513 39.4446 23.9378 35.7947 23.7166 34.7992Z" fill="#FBB599"/>
<path fill-rule="evenodd" clip-rule="evenodd" d="M31.4617 24.3088C30.9446 24.3088 30.5498 24.5769 30.4288 24.6978L30.1719 24.4407C30.3459 24.2669 30.8287 23.9453 31.4617 23.9453C32.0947 23.9453 32.5774 24.2669 32.7514 24.4408L32.4945 24.6978C32.3735 24.5769 31.9788 24.3088 31.4617 24.3088Z" fill="#646364"/>
<path fill-rule="evenodd" clip-rule="evenodd" d="M22.2031 24.4582L22.357 24.1289L23.1499 24.4994H23.7732V24.8629H23.0692L22.2031 24.4582Z" fill="#646364"/>
<path fill-rule="evenodd" clip-rule="evenodd" d="M23.792 24.9839C23.8521 25.5696 24.0754 26.4289 24.5519 27.1488C25.0366 27.8811 25.7748 28.4597 26.8729 28.4804C28.2689 28.5068 29.1544 27.8526 29.6777 27.0808C29.9411 26.6923 30.1128 26.2731 30.2085 25.8956C30.3049 25.5147 30.3207 25.1896 30.2851 24.9884C30.1395 24.1633 29.0811 23.0373 26.8695 23.0373C25.0574 23.0373 24.0739 24.3157 23.792 24.9839ZM23.4377 24.89C23.7318 24.1451 24.8247 22.6738 26.8695 22.6738C29.1928 22.6738 30.4567 23.8697 30.6431 24.9252C30.6905 25.194 30.6648 25.5741 30.5608 25.9848C30.4559 26.3988 30.2682 26.8576 29.9786 27.2848C29.3958 28.1443 28.401 28.8728 26.8661 28.8438C25.6195 28.8203 24.7816 28.1545 24.2488 27.3494C23.7197 26.5499 23.4831 25.6039 23.4258 24.9732L23.4219 24.9302L23.4377 24.89Z" fill="#646364"/>
<path fill-rule="evenodd" clip-rule="evenodd" d="M40.9023 24.4582L40.7485 24.1289L39.9556 24.4994H39.3322V24.8629H40.0363L40.9023 24.4582Z" fill="#646364"/>
<path fill-rule="evenodd" clip-rule="evenodd" d="M39.3135 24.9839C39.2534 25.5696 39.03 26.4289 38.5536 27.1488C38.0689 27.8811 37.3307 28.4597 36.2325 28.4804C34.8366 28.5068 33.951 27.8526 33.4277 27.0808C33.1643 26.6923 32.9926 26.2731 32.897 25.8956C32.8006 25.5147 32.7848 25.1896 32.8203 24.9884C32.966 24.1633 34.0244 23.0373 36.236 23.0373C38.048 23.0373 39.0316 24.3157 39.3135 24.9839ZM39.6677 24.89C39.3737 24.1451 38.2808 22.6738 36.236 22.6738C33.9127 22.6738 32.6487 23.8697 32.4624 24.9252C32.415 25.194 32.4407 25.5741 32.5447 25.9848C32.6495 26.3988 32.8373 26.8576 33.1269 27.2848C33.7097 28.1443 34.7045 28.8728 36.2394 28.8438C37.486 28.8203 38.3238 28.1545 38.8567 27.3494C39.3858 26.5499 39.6224 25.6039 39.6797 24.9732L39.6836 24.9302L39.6677 24.89Z" fill="#646364"/>
<path d="M25.2645 34.304C24.5566 33.6404 23.2737 29.8984 22.7207 28.1104C22.9235 29.7878 23.3622 33.3085 23.4949 33.9719C23.6277 34.6353 23.9189 35.2069 24.048 35.4098C25.0065 36.4236 27.1449 38.5951 28.0297 39.1703C29.1357 39.8892 29.6334 39.8892 31.4584 39.9445C32.9183 39.9887 34.0576 39.4468 34.4447 39.1703L37.0991 37.0135C37.7812 36.313 39.2227 34.724 39.5324 33.9719C39.8421 33.2198 40.2882 28.6447 40.4725 26.4512C39.8827 28.2393 38.5702 32.0809 38.0393 33.1427C37.3757 34.4699 33.0621 36.5714 31.4584 36.682C29.8546 36.7926 26.1494 35.1335 25.2645 34.304Z" fill="#CB8062"/>
<path d="M30.7428 14.9473C33.4859 15.4342 36.6047 15.1502 37.8213 14.9473L39.3144 20.5884L40.8075 24.736C41.6039 22.6124 41.7292 19.9432 41.6924 18.874C42.4445 15.9099 40.7522 13.9153 39.8121 13.2886C39.849 12.4959 39.6019 10.5567 38.319 9.14095C37.036 7.72523 34.4663 6.78132 33.3418 6.48633V7.03936L30.7428 6.76303V7.31605L28.6965 7.03936V7.59217H26.3738L26.8715 8.08958C21.9497 8.6979 20.4565 13.841 20.2353 16.053C20.0584 17.8227 21.3414 23.3897 22.005 25.952L22.7793 21.4173C22.5397 20.938 22.2042 19.4928 22.7793 17.5462C23.4982 15.1129 27.3141 14.3387 30.7428 14.9473Z" fill="#323333"/>
<path d="M29.6361 43.8701L33.3966 44.9214C34.9893 44.4792 38.8162 44.7372 40.5306 44.9214L42.7979 74.5076L32.3459 77.2174L22.834 74.0099L23.7741 42.875L29.6361 43.8701Z" fill="#4CC7DC"/>
<path d="M36.8246 44.6449C34.7894 43.6715 31.2944 44.2393 29.8013 44.6449L32.4005 48.0736L28.6953 81.0886H37.3224L35.9398 65.3277L34.7232 48.0736L36.8246 44.6449Z" fill="#0495AE"/>
<path d="M6.68494 48.9604C7.7467 48.474 17.7453 44.3334 22.6119 42.3239L22.2801 53.2733L26.1512 62.9511L32.2344 82.6385L42.6864 53.2733V40.9414C48.6221 43.3747 58.7062 47.2326 60.2002 50.3024C63.0758 56.2117 63.7379 73.9749 64.3647 85.238H0.0488281C0.233154 81.3853 0.867254 71.8993 1.92904 64.7764C3.25628 55.8729 5.35775 49.5685 6.68494 48.9604Z" fill="#65969B"/>
<path d="M21.5084 42.5429C21.9509 42.366 23.4624 40.6623 24.1628 39.8326C23.6097 41.4913 24.1628 52.1654 25.4901 58.6909C26.552 63.9114 30.3936 76.5349 32.1816 82.1941C33.7485 73.4012 37.38 54.3553 39.3708 48.5154C41.3617 42.6756 40.7902 39.1878 40.2557 38.1738L42.7995 40.9389L46.0623 44.81L45.2881 45.7502L47.832 47.2433L33.2877 83.0788H31.1862C25.1694 77.5044 18.2087 57.0501 15.4805 47.5198L18.7986 46.082L17.969 44.4229C18.9645 43.8699 21.0659 42.7197 21.5084 42.5429Z" fill="#447277"/>
<path d="M23.8282 42.2666C23.7839 40.1871 24.4735 39.1144 24.8238 38.8379L31.9022 44.2023C28.9823 43.8483 26.2983 46.9305 25.3213 48.5158C24.8421 47.2992 23.8725 44.346 23.8282 42.2666Z" fill="#52B0C5"/>
<path d="M40.5293 38.8379C40.3081 38.0415 39.7366 37.3264 39.4786 37.0684V38.2298L34.7779 44.2023C37.6771 44.656 39.3409 46.4929 39.8104 47.3546C41.4017 41.9769 40.8151 39.8661 40.5358 38.8612L40.5293 38.8379Z" fill="#52B0C5"/>
</g>
</svg>
