<svg width="278" height="168" viewBox="0 0 278 168" fill="none" xmlns="http://www.w3.org/2000/svg">
<rect x="0.5" y="0.5" width="277" height="167" rx="23.5" fill="white" stroke="#B1CBCF"/>
<path d="M116.711 86.0065L115.788 88.6158H115.711C115.557 88.0274 115.274 87.1321 114.812 86.0576L109.86 73.6507H105.009V93.4251H108.217V81.2228C108.217 80.4553 108.217 79.5855 108.191 78.5111C108.166 77.9739 108.115 77.5646 108.089 77.2576H108.166C108.32 78.0251 108.499 78.5879 108.628 78.946L114.581 93.3739H116.84L122.742 78.8181C122.87 78.4855 122.999 77.8204 123.127 77.2576H123.204C123.127 78.7158 123.076 80.0204 123.05 80.8135V93.3483H126.463V73.5995H121.792L116.711 86.0065ZM129.696 79.1762H133.033V93.3483H129.696V79.1762ZM131.39 73.1902C130.826 73.1902 130.364 73.3948 129.979 73.753C129.594 74.1111 129.389 74.5716 129.389 75.1344C129.389 75.6716 129.594 76.1321 129.979 76.4902C130.364 76.8483 130.826 77.0274 131.39 77.0274C131.955 77.0274 132.442 76.8228 132.802 76.4902C133.187 76.1321 133.392 75.6716 133.392 75.1344C133.392 74.5972 133.187 74.1367 132.802 73.753C132.468 73.3948 131.98 73.1902 131.39 73.1902ZM144.863 79.0483C144.247 78.9204 143.605 78.8437 142.99 78.8437C141.475 78.8437 140.09 79.1762 138.935 79.8414C137.78 80.5065 136.856 81.4274 136.266 82.5786C135.65 83.7553 135.342 85.1111 135.342 86.6716C135.342 88.0274 135.65 89.2297 136.24 90.3297C136.831 91.4041 137.652 92.2739 138.755 92.8623C139.807 93.4507 141.039 93.7576 142.425 93.7576C144.016 93.7576 145.376 93.4251 146.454 92.8111L146.48 92.7855V89.7158L146.351 89.8181C145.864 90.1762 145.299 90.4832 144.735 90.6623C144.144 90.8669 143.605 90.9693 143.143 90.9693C141.809 90.9693 140.757 90.5855 140.013 89.7414C139.243 88.9228 138.858 87.7972 138.858 86.3902C138.858 84.9321 139.243 83.7809 140.038 82.9367C140.834 82.0925 141.886 81.6576 143.169 81.6576C144.247 81.6576 145.35 82.0158 146.351 82.7321L146.48 82.8344V79.5855L146.454 79.56C146.018 79.3809 145.53 79.1762 144.863 79.0483ZM155.872 78.946C155.051 78.946 154.281 79.2018 153.614 79.739C153.049 80.1995 152.664 80.8646 152.331 81.6576H152.305V79.1762H148.969V93.3483H152.305V86.1088C152.305 84.8809 152.562 83.8576 153.126 83.1158C153.691 82.3483 154.409 81.9646 155.282 81.9646C155.59 81.9646 155.898 82.0414 156.283 82.0925C156.642 82.1948 156.898 82.2972 157.078 82.4251L157.206 82.5274V79.2018L157.129 79.1762C156.898 79.0228 156.437 78.946 155.872 78.946ZM164.956 78.8693C162.621 78.8693 160.748 79.56 159.439 80.9158C158.105 82.2716 157.463 84.139 157.463 86.4925C157.463 88.6925 158.13 90.4832 159.413 91.7879C160.696 93.0669 162.441 93.7321 164.623 93.7321C166.907 93.7321 168.729 93.0414 170.038 91.66C171.372 90.2786 172.014 88.4367 172.014 86.16C172.014 83.9088 171.398 82.1181 170.14 80.8135C168.934 79.5088 167.163 78.8693 164.956 78.8693ZM167.625 89.7669C167.009 90.56 166.034 90.9437 164.828 90.9437C163.622 90.9437 162.647 90.56 161.954 89.7158C161.261 88.9228 160.927 87.7716 160.927 86.3135C160.927 84.8041 161.287 83.653 161.954 82.8344C162.647 82.0158 163.596 81.6065 164.802 81.6065C165.983 81.6065 166.907 81.9902 167.574 82.7832C168.241 83.5762 168.6 84.7274 168.6 86.2367C168.549 87.7716 168.267 88.9739 167.625 89.7669ZM179.456 85.06C178.403 84.6251 177.736 84.2925 177.428 84.0111C177.172 83.7553 177.043 83.3972 177.043 82.9367C177.043 82.553 177.197 82.1693 177.582 81.9135C177.967 81.6576 178.403 81.5297 179.045 81.5297C179.61 81.5297 180.2 81.6321 180.764 81.7855C181.329 81.939 181.842 82.1693 182.253 82.4762L182.381 82.5786V79.4576L182.304 79.4321C181.919 79.2786 181.406 79.1251 180.79 78.9972C180.174 78.8948 179.61 78.8437 179.148 78.8437C177.557 78.8437 176.248 79.2274 175.221 80.0716C174.195 80.8646 173.707 81.939 173.707 83.1925C173.707 83.8576 173.81 84.446 174.041 84.9321C174.272 85.4181 174.605 85.8786 175.067 86.2623C175.529 86.6204 176.196 87.0297 177.12 87.4135C177.89 87.746 178.48 88.0018 178.84 88.2065C179.199 88.4111 179.43 88.6414 179.61 88.8204C179.738 89.0251 179.815 89.2809 179.815 89.6135C179.815 90.56 179.096 91.0204 177.634 91.0204C177.069 91.0204 176.479 90.9181 175.786 90.6879C175.093 90.4576 174.451 90.1251 173.913 89.7414L173.784 89.639V92.8879L173.861 92.9135C174.349 93.1437 174.939 93.2972 175.658 93.4762C176.376 93.6041 177.018 93.7065 177.582 93.7065C179.302 93.7065 180.713 93.3228 181.714 92.4786C182.74 91.66 183.279 90.6111 183.279 89.2553C183.279 88.3088 183.023 87.4646 182.458 86.8251C181.714 86.2111 180.79 85.5716 179.456 85.06ZM192.081 78.8693C189.746 78.8693 187.873 79.56 186.564 80.9158C185.255 82.2716 184.588 84.139 184.588 86.4925C184.588 88.6925 185.255 90.4832 186.538 91.7879C187.821 93.0669 189.566 93.7321 191.748 93.7321C194.032 93.7321 195.854 93.0414 197.163 91.66C198.497 90.2786 199.139 88.4367 199.139 86.16C199.139 83.9088 198.523 82.1181 197.265 80.8135C196.059 79.5088 194.288 78.8693 192.081 78.8693ZM194.725 89.7669C194.109 90.56 193.134 90.9437 191.927 90.9437C190.696 90.9437 189.746 90.56 189.053 89.7158C188.36 88.9228 188.027 87.7716 188.027 86.3135C188.027 84.8041 188.386 83.653 189.053 82.8344C189.746 82.0158 190.696 81.6065 191.902 81.6065C193.057 81.6065 194.006 81.9902 194.673 82.7832C195.34 83.5762 195.7 84.7274 195.7 86.2367C195.7 87.7716 195.366 88.9739 194.725 89.7669ZM216.974 81.9135V79.1762H213.612V74.9809L213.509 75.0065L210.327 75.953L210.25 75.9786V79.1762H205.22V77.3855C205.22 76.5669 205.426 75.9274 205.785 75.5181C206.144 75.1088 206.683 74.9041 207.35 74.9041C207.812 74.9041 208.3 75.0065 208.839 75.2367L208.967 75.3135V72.4228L208.89 72.3972C208.428 72.2437 207.812 72.1414 207.017 72.1414C206.016 72.1414 205.143 72.3716 204.348 72.7553C203.552 73.1902 202.962 73.7786 202.526 74.5716C202.09 75.339 201.859 76.2088 201.859 77.2065V79.1762H199.523V81.8879H201.859V93.3483H205.22V81.9135H210.25V89.2041C210.25 92.1972 211.662 93.7065 214.485 93.7065C214.946 93.7065 215.434 93.6297 215.896 93.553C216.384 93.4507 216.743 93.3228 216.948 93.2204L216.974 93.1948V90.4576L216.845 90.56C216.64 90.6879 216.461 90.7902 216.153 90.8669C215.896 90.9437 215.665 90.9693 215.485 90.9693C214.818 90.9693 214.356 90.8158 214.023 90.4321C213.715 90.0739 213.561 89.4855 213.561 88.6158V81.9135H216.974Z" fill="#737373"/>
<path d="M62 67H77.731V82.6814H62V67Z" fill="#F25022"/>
<path d="M79.3737 67H95.1047V82.6814H79.3737V67Z" fill="#7FBA00"/>
<path d="M62 84.3181H77.731V99.9995H62V84.3181Z" fill="#00A4EF"/>
<path d="M79.3737 84.3181H95.1047V99.9995H79.3737V84.3181Z" fill="#FFB900"/>
</svg>
