<svg width="71" height="77" viewBox="0 0 71 77" fill="none" xmlns="http://www.w3.org/2000/svg">
<path d="M40.612 70.1981C57.657 67.8135 70.7744 53.1752 70.7744 35.4731C70.7744 16.1073 55.0753 0.408203 35.7095 0.408203C16.3436 0.408203 0.644531 16.1073 0.644531 35.4731C0.644531 53.1751 13.7618 67.8133 30.8067 70.1981L35.7094 76.739L40.612 70.1981Z" fill="white"/>
<circle cx="35.7108" cy="35.4745" r="31.9276" fill="#B6EBF4"/>
<mask id="mask0_4629_28133" style="mask-type:alpha" maskUnits="userSpaceOnUse" x="3" y="3" width="65" height="65">
<circle cx="35.7088" cy="35.4725" r="31.9276" fill="#FFD5D3"/>
</mask>
<g mask="url(#mask0_4629_28133)">
<path d="M32.3798 46.9953C33.0545 46.3206 32.4625 41.8853 32.0821 39.752H41.2107L44.1379 44.614L49.9921 49.5752C48.4376 50.584 44.1775 53.0679 39.5735 54.9333C33.8185 57.2651 29.2542 55.9255 27.7658 54.4372C26.5751 53.2465 27.0051 50.0713 27.3689 48.6325L28.7085 48.0868C29.6511 48.0041 31.705 47.6701 32.3798 46.9953Z" fill="#FFAD84"/>
<path d="M30.9395 43.972C36.5357 47.822 41.5399 45.0801 43.3425 43.2279L42.4991 41.0449C37.0616 45.5299 33.3208 42.9136 32.1301 41.0449L30.9395 43.972Z" fill="#F89B6B"/>
<path d="M30.99 20.3541L40.1187 16.2363H41.0117L44.5838 23.5293L46.5186 31.7153L45.3776 36.9742C44.7491 38.9918 42.1428 43.1162 36.745 43.4735C31.3472 43.8307 28.774 35.1882 28.1621 30.8223L30.99 20.3541Z" fill="#FFAD84"/>
<path d="M28.1622 52.4558C27.1699 50.7095 28.311 48.7515 29.0056 47.9907C26.558 47.7427 21.2264 47.8816 19.48 50.4217C17.7337 52.9619 14.6511 66.0331 13.3281 72.2511H56.3915C55.8458 67.0253 54.5658 55.9485 53.8117 53.4481C53.0576 50.9476 50.8184 49.6279 49.7931 49.2807C48.1063 50.2067 43.79 52.436 40.0195 53.9442C35.3063 55.8295 29.4025 54.6388 28.1622 52.4558Z" fill="#E2504B"/>
<path d="M17.1985 65.9988C17.6748 63.4587 21.2998 56.0102 23.0528 52.6035C21.8295 55.1391 19.1645 61.0902 18.29 64.6097C17.4155 68.1291 17.9256 71.1696 18.29 72.25H17.1985C17.0001 71.2246 16.7222 68.539 17.1985 65.9988Z" fill="#C2322D"/>
<path d="M40.9102 72.3475C41.5452 66.4734 43.6884 58.1253 44.6807 54.6855C43.0931 61.0359 42.4977 69.1062 42.3985 72.3475H40.9102Z" fill="#C2322D"/>
<path d="M39.7217 18.9661L40.6147 16.8823L40.2675 18.9661C43.3434 21.5459 45.1791 26.7056 45.6752 31.3691C46.0721 38.7514 41.4747 42.5815 39.1264 43.5738L45.1791 45.0621C57.3837 37.5211 47.362 18.9661 44.4845 15.6917C42.1825 13.0722 39.9533 13.1449 39.1264 13.5087C28.3109 10.1351 22.159 23.7288 21.7621 31.3691C21.3652 39.0094 29.5016 46.6497 31.7838 46.7489C33.6095 46.8283 35.3889 45.0621 36.0504 44.1691C34.4628 43.5406 31.0693 41.0733 30.1962 36.2311C29.323 31.389 30.8907 24.8203 31.7838 22.1412C34.3239 19.2042 38.1341 18.8007 39.7217 18.9661Z" fill="#323333"/>
</g>
</svg>
