<svg width="71" height="77" viewBox="0 0 71 77" fill="none" xmlns="http://www.w3.org/2000/svg">
<path d="M40.3444 70.1981C57.3894 67.8135 70.5069 53.1752 70.5069 35.4731C70.5069 16.1073 54.8077 0.408203 35.4419 0.408203C16.0761 0.408203 0.376953 16.1073 0.376953 35.4731C0.376953 53.1751 13.4943 67.8133 30.5391 70.1981L35.4418 76.739L40.3444 70.1981Z" fill="white"/>
<circle cx="35.4432" cy="35.4745" r="31.9276" fill="#B5EAD7"/>
<mask id="mask0_4629_28146" style="mask-type:alpha" maskUnits="userSpaceOnUse" x="3" y="3" width="65" height="65">
<circle cx="35.4432" cy="35.4725" r="31.9276" fill="#FFD5D3"/>
</mask>
<g mask="url(#mask0_4629_28146)">
<path d="M44.7495 14.3125L47.1152 18.4565C47.6327 19.3618 47.9546 20.3656 48.0601 21.4031C48.1655 22.4406 48.0522 23.4886 47.7275 24.4796L46.7544 27.4911L44.2378 31.3667L41.4863 18.683L44.7495 14.3125Z" fill="#323333"/>
<path d="M28.0293 47.6577L34.9164 54.8636L41.8119 47.6577V32.4238H28.0293V47.6577Z" fill="#F9B298"/>
<path d="M29.209 40.3702C29.209 40.3702 32.7071 47.9871 41.792 42.7778V37.9375L29.209 40.3702Z" fill="#EF9275"/>
<path d="M43.0152 20.0879L44.693 27.1931C44.5431 31.1822 43.6497 35.1083 42.0589 38.7695V38.7695C41.5147 40.017 40.5845 41.057 39.4052 41.7366C38.2258 42.4161 36.8596 42.6992 35.5073 42.5444L34.7272 42.4521C33.265 42.2823 31.8654 41.762 30.6473 40.9353C29.4293 40.1087 28.4289 39.0003 27.7311 37.7041V37.7041C27.0354 36.4187 26.6964 34.9704 26.7495 33.5098L27.1019 20.0879H43.0152Z" fill="#F9B298"/>
<path d="M27.2139 28.8946C27.2139 28.8946 26.8868 29.4147 26.9623 29.7335L26.7274 33.5L26.0982 31.9313L23.4642 26.8981C22.9026 25.8359 22.6996 24.6207 22.8853 23.4336L23.5732 18.954C23.6714 18.3297 23.9019 17.7336 24.2491 17.2056C24.5963 16.6775 25.0523 16.2298 25.5865 15.8922L26.719 15.1791L29.4202 12.5367C30.1205 11.8481 30.9664 11.3256 31.8956 11.0076C32.8248 10.6897 33.8136 10.5844 34.7889 10.6996L43.5047 11.7398C43.9076 11.7848 44.2965 11.9136 44.6465 12.118C44.9965 12.3224 45.2998 12.5979 45.5368 12.9266C45.7739 13.2554 45.9395 13.6301 46.0229 14.0267C46.1064 14.4234 46.1059 14.8331 46.0214 15.2295L44.7798 21.0177C44.7798 21.0177 41.4244 25.816 36.9197 26.7052L39.646 24.1886C39.646 24.1886 36.2905 26.9988 32.5827 27.1246L34.2604 22.8296C34.2604 22.8296 33.8494 26.529 29.2272 25.6818L27.2139 28.8946Z" fill="#323333"/>
<path d="M64.5526 72.1856L60.7688 56.5336C59.7953 52.5065 56.8254 49.2594 52.9009 47.9313L44.3318 45.0315L41.9031 43.2908L40.0157 96.4541L27.9569 42.2422L25.5747 45.6774C25.2644 45.6774 15.4412 49.6788 14.3255 51.5495C13.2098 53.4201 14.3255 91.9661 14.3255 91.9661L13.8725 97.746L10.752 142.592L26.2962 143.137L29.2574 121.209H45.1959L49.1134 143.942L65.4965 144.521L59.8928 95.783L64.5526 72.1856Z" fill="#EEFBFF"/>
<path d="M47.5014 74.6637L41.0078 90.5078L48.4754 74.6637L45.878 68.7222L49.7742 62.7806L46.852 48.4219L48.4754 62.7806L44.2546 68.7222L47.5014 74.6637Z" fill="#C7E7FF"/>
<path d="M25.522 74.6637L32.0156 90.5078L24.548 74.6637L27.1454 68.7222L23.2493 62.7806L26.1714 48.4219L24.548 62.7806L28.7688 68.7222L25.522 74.6637Z" fill="#C7E7FF"/>
<path d="M14.3075 51.5391C14.3075 51.5391 11.363 53.4936 10.5242 59.7264C9.93695 64.3569 8.7793 77.4601 8.7793 77.4601L22.9646 76.2773L14.3075 51.5391Z" fill="#EEFBFF"/>
<path d="M29.209 47.6582L34.9133 54.8641L41.8088 47.6582L40.2485 93.8799L45.1727 121.202H29.209L32.7993 89.2577L29.209 47.6582Z" fill="#00B3C6"/>
<path fill-rule="evenodd" clip-rule="evenodd" d="M38.6454 61.3987C39.5154 60.5752 40.6704 60.1206 41.8683 60.1302L41.8715 60.1302L45.3316 60.175C45.9445 60.1879 46.5487 60.3224 47.1093 60.5705C47.6698 60.8187 48.1756 61.1756 48.5973 61.6206C49.019 62.0655 49.3482 62.5897 49.5659 63.1628C49.7836 63.7359 49.8855 64.3465 49.8655 64.9593L49.8654 64.9627L49.566 72.8817C49.4876 74.9316 48.7012 76.8913 47.3409 78.4267L46.7479 79.0965L45.7711 78.2318L46.3643 77.5618C47.5246 76.2521 48.1955 74.5807 48.2624 72.8321L48.5617 64.9169C48.5617 64.9164 48.5617 64.9159 48.5618 64.9153C48.5758 64.4756 48.5027 64.0374 48.3464 63.6261C48.19 63.2143 47.9534 62.8376 47.6504 62.5179C47.3474 62.1982 46.984 61.9417 46.5812 61.7634C46.1793 61.5855 45.746 61.4889 45.3066 61.4793L41.8578 61.4347C41.8573 61.4347 41.8568 61.4347 41.8563 61.4346C40.9962 61.4282 40.1669 61.7548 39.5422 62.3461C38.9174 62.9376 38.5458 63.748 38.5053 64.6075C38.5053 64.6078 38.5053 64.6081 38.5052 64.6084L38.1952 71.6914C38.1952 71.6917 38.1952 71.692 38.1952 71.6923C38.1506 72.7814 38.3435 73.8671 38.7603 74.8743L38.7615 74.8771L39.7065 77.1915L38.4988 77.6846L37.555 75.3732C37.5548 75.3727 37.5546 75.3722 37.5544 75.3717C37.0655 74.1899 36.8394 72.9158 36.8918 71.6379L36.8918 71.6361L37.2021 64.5473C37.2582 63.3507 37.7755 62.2223 38.6454 61.3987Z" fill="#323333"/>
<path d="M41.7988 41.5026C41.9211 41.5021 42.0297 41.5175 42.1258 41.5437C42.5173 41.6506 42.9017 41.9925 43.2456 42.6943C43.9434 44.1182 44.2425 46.5544 44.2958 49.282C44.3484 51.9755 44.1615 54.8364 43.96 57.031C43.8594 58.1266 43.7555 59.0527 43.6768 59.7044C43.6375 60.0302 43.6044 60.2872 43.5813 60.4623C43.5698 60.5499 43.5607 60.6169 43.5545 60.6619L43.5476 60.7125L43.5453 60.7286C43.5453 60.7286 43.5453 60.7287 44.1911 60.8202C44.8369 60.9117 44.837 60.9112 44.837 60.9112L44.8396 60.8926L44.847 60.8389C44.8534 60.7919 44.8628 60.7227 44.8746 60.633C44.8983 60.4535 44.932 60.1917 44.9719 59.8607C45.0518 59.199 45.1571 58.2604 45.259 57.1502C45.4626 54.9332 45.654 52.0187 45.6001 49.2565C45.5468 46.5285 45.2542 43.8287 44.417 42.1202C43.9934 41.2558 43.3744 40.5324 42.4694 40.2852C42.2508 40.2256 42.0272 40.1968 41.7988 40.1973L41.7988 41.5026Z" fill="#323333"/>
<path d="M27.6595 62.8386C27.6657 65.2139 26.2812 67.1432 24.5671 67.1477C22.853 67.1522 21.4584 65.2302 21.4522 62.8548C21.446 60.4795 22.8305 58.5502 24.5446 58.5457C26.2587 58.5412 27.6533 60.4632 27.6595 62.8386Z" fill="#646364"/>
<path d="M27.0705 62.8804C27.0767 65.2557 25.6922 67.185 23.9781 67.1895C22.264 67.194 20.8694 65.272 20.8632 62.8966C20.8569 60.5212 22.2415 58.592 23.9556 58.5875C25.6697 58.583 27.0643 60.505 27.0705 62.8804Z" fill="#CACCCB"/>
<path d="M25.2875 62.7922C25.2913 64.2377 24.3163 65.412 23.1099 65.4151C21.9034 65.4183 20.9223 64.2491 20.9186 62.8037C20.9148 61.3583 21.8897 60.184 23.0962 60.1808C24.3026 60.1776 25.2837 61.3468 25.2875 62.7922Z" fill="#646364"/>
<path d="M24.5838 62.8422C24.5876 64.2876 23.6126 65.4619 22.4062 65.4651C21.1997 65.4683 20.2186 64.2991 20.2149 62.8537C20.2111 61.4082 21.186 60.2339 22.3925 60.2308C23.5989 60.2276 24.58 61.3968 24.5838 62.8422Z" fill="#D9F8FF"/>
<path d="M28.0208 41.1914C25.258 44.2018 23.8906 49.0437 23.1999 53.0303C22.8492 55.0551 22.6671 56.897 22.5725 58.2326C22.5252 58.9008 22.4998 59.4434 22.4862 59.8201C22.4793 60.0084 22.4755 60.1554 22.4733 60.2559C22.4722 60.3062 22.4716 60.3449 22.4712 60.3713L22.4708 60.4017L22.4707 60.4099L22.4706 60.4129C22.4706 60.4129 22.4706 60.4133 23.1229 60.4188C23.6961 60.4236 23.7655 60.4241 23.774 60.4242L23.7751 60.4242L23.7751 60.4229L23.7752 60.4168L23.7755 60.3907C23.7759 60.3671 23.7765 60.3314 23.7775 60.2841C23.7796 60.1896 23.7833 60.049 23.7898 59.8673C23.803 59.5038 23.8277 58.9763 23.8738 58.3247C23.9661 57.0205 24.1439 55.2238 24.4853 53.253C25.0765 49.8407 26.1411 44.8616 28.0208 42.1335V41.1914Z" fill="#323333"/>
</g>
</svg>
