<svg width="71" height="77" viewBox="0 0 71 77" fill="none" xmlns="http://www.w3.org/2000/svg">
<path d="M40.8347 70.1981C57.8796 67.8135 70.9971 53.1752 70.9971 35.4731C70.9971 16.1073 55.298 0.408203 35.9321 0.408203C16.5663 0.408203 0.867188 16.1073 0.867188 35.4731C0.867188 53.1751 13.9845 67.8133 31.0293 70.1981L35.932 76.739L40.8347 70.1981Z" fill="white"/>
<circle cx="35.9334" cy="35.4745" r="31.9276" fill="#C7CEEA"/>
<mask id="mask0_4629_28169" style="mask-type:alpha" maskUnits="userSpaceOnUse" x="4" y="3" width="64" height="65">
<circle cx="35.9315" cy="35.4725" r="31.9276" fill="#FFD5D3"/>
</mask>
<g mask="url(#mask0_4629_28169)">
<path d="M28.4688 42.7656V38.3752L42.8772 37.5312C43.0648 38.8258 43.395 41.5499 43.2149 42.0902C43.0348 42.6305 39.1625 47.1932 37.2489 49.4069L28.4688 42.7656Z" fill="#EF9B7A"/>
<path d="M45.9737 26.7834C45.3884 26.5132 44.7542 27.2714 44.5104 27.6844L43.666 29.5979L44.1164 33.3689C46.0863 33.7066 46.7054 27.1213 45.9737 26.7834Z" fill="#FBB599"/>
<path d="M24.6454 26.7834C25.2308 26.5132 25.8649 27.2714 26.1088 27.6844L26.9531 29.5979L26.5028 33.3689C24.5329 33.7066 23.9138 27.1213 24.6454 26.7834Z" fill="#FBB599"/>
<path d="M27.2841 38.5442C27.104 37.7336 25.9333 30.1018 25.3705 26.3873L24.9766 20.3088L31.6742 17.2129L41.8614 17.607L44.7319 26.95C44.4505 29.5765 43.8313 35.2686 43.6062 37.0246C43.3248 39.2197 38.2031 43.1595 37.3588 43.5534C36.5146 43.9474 33.5879 43.8349 32.7436 43.5534C31.8994 43.272 27.5093 39.5574 27.2841 38.5442Z" fill="#FBB599"/>
<path fill-rule="evenodd" clip-rule="evenodd" d="M35.1662 27.8679C34.6399 27.8679 34.2382 28.1408 34.115 28.2639L33.8535 28.0023C34.0306 27.8253 34.522 27.498 35.1662 27.498C35.8105 27.498 36.3018 27.8253 36.4788 28.0023L36.2173 28.2639C36.0942 28.1408 35.6925 27.8679 35.1662 27.8679Z" fill="#646364"/>
<path fill-rule="evenodd" clip-rule="evenodd" d="M25.7441 28.0187L25.9007 27.6836L26.7077 28.0607H27.3421V28.4306H26.6256L25.7441 28.0187Z" fill="#646364"/>
<path fill-rule="evenodd" clip-rule="evenodd" d="M27.361 28.5542C27.4222 29.1502 27.6495 30.0249 28.1344 30.7575C28.6277 31.5028 29.3791 32.0917 30.4967 32.1127C31.9174 32.1396 32.8187 31.4738 33.3512 30.6883C33.6193 30.2929 33.7941 29.8663 33.8914 29.482C33.9895 29.0944 34.0056 28.7636 33.9694 28.5587C33.8212 27.719 32.744 26.573 30.4932 26.573C28.649 26.573 27.648 27.8741 27.361 28.5542ZM27.0005 28.4587C27.2998 27.7005 28.4121 26.2031 30.4932 26.2031C32.8577 26.2031 34.1441 27.4202 34.3337 28.4944C34.382 28.7681 34.3558 29.1549 34.25 29.5728C34.1433 29.9942 33.9521 30.4611 33.6574 30.8959C33.0643 31.7707 32.0519 32.5121 30.4897 32.4826C29.221 32.4586 28.3683 31.7811 27.826 30.9617C27.2874 30.148 27.0467 29.1852 26.9884 28.5433L26.9844 28.4995L27.0005 28.4587Z" fill="#646364"/>
<path fill-rule="evenodd" clip-rule="evenodd" d="M44.7754 28.0187L44.6188 27.6836L43.8118 28.0607H43.1774V28.4306H43.894L44.7754 28.0187Z" fill="#646364"/>
<path fill-rule="evenodd" clip-rule="evenodd" d="M43.1585 28.5542C43.0973 29.1502 42.87 30.0249 42.3851 30.7575C41.8918 31.5028 41.1405 32.0917 40.0229 32.1127C38.6021 32.1396 37.7009 31.4738 37.1683 30.6883C36.9002 30.2929 36.7255 29.8663 36.6282 29.482C36.53 29.0944 36.514 28.7636 36.5501 28.5587C36.6983 27.719 37.7755 26.573 40.0264 26.573C41.8706 26.573 42.8715 27.8741 43.1585 28.5542ZM43.519 28.4587C43.2197 27.7005 42.1074 26.2031 40.0264 26.2031C37.6619 26.2031 36.3755 27.4202 36.1858 28.4944C36.1375 28.7681 36.1637 29.1549 36.2696 29.5728C36.3763 29.9942 36.5674 30.4611 36.8621 30.8959C37.4552 31.7707 38.4677 32.5121 40.0298 32.4826C41.2986 32.4586 42.1513 31.7811 42.6936 30.9617C43.2321 30.148 43.4728 29.1852 43.5312 28.5433L43.5352 28.4995L43.519 28.4587Z" fill="#646364"/>
<path d="M28.8604 38.039C28.1399 37.3636 26.8343 33.5553 26.2715 31.7356C26.4779 33.4427 26.9244 37.0259 27.0595 37.7011C27.1945 38.3762 27.491 38.958 27.6223 39.1644C28.5979 40.1963 30.7741 42.4063 31.6747 42.9917C32.8003 43.7233 33.3069 43.7233 35.1642 43.7796C36.6501 43.8247 37.8095 43.2731 38.2035 42.9917L40.9051 40.7966C41.5992 40.0837 43.0663 38.4665 43.3815 37.7011C43.6967 36.9356 44.1507 32.2793 44.3383 30.0469C43.738 31.8667 42.4022 35.7765 41.8619 36.8571C41.1865 38.2079 36.7964 40.3467 35.1642 40.4592C33.532 40.5718 29.761 38.8833 28.8604 38.039Z" fill="#CB8062"/>
<path d="M34.4354 18.3396C37.2271 18.8352 40.4014 18.5461 41.6395 18.3396L43.1591 24.0808L44.6787 28.302C45.4892 26.1408 45.6168 23.4242 45.5792 22.336C46.3447 19.3193 44.6224 17.2893 43.6656 16.6515C43.7031 15.8447 43.4517 13.8711 42.146 12.4302C40.8402 10.9894 38.2249 10.0287 37.0805 9.72852V10.2914L34.4354 10.0101V10.573L32.3528 10.2914V10.854H29.9889L30.4954 11.3602C25.4862 11.9793 23.9666 17.2136 23.7415 19.465C23.5614 21.266 24.8671 26.9318 25.5425 29.5396L26.3306 24.9244C26.0867 24.4366 25.7453 22.9658 26.3306 20.9846C27.0623 18.5082 30.9458 17.7202 34.4354 18.3396Z" fill="#323333"/>
<path d="M33.3095 47.7765L37.1368 48.8464C38.7577 48.3963 42.6525 48.6589 44.3973 48.8464L46.7049 78.9576L36.0674 81.7155L26.3867 78.4511L27.3436 46.7637L33.3095 47.7765Z" fill="#4CC7DC"/>
<path d="M40.6251 48.5646C38.5538 47.5739 34.9968 48.1518 33.4772 48.5646L36.1225 52.0541L32.3516 85.655H41.1317L39.7246 69.6144L38.4864 52.0541L40.6251 48.5646Z" fill="#0495AE"/>
<path d="M9.95113 52.9562C11.0317 52.4612 21.2077 48.2471 26.1607 46.2019L25.823 57.3457L29.7628 67.1952L35.954 87.2319L46.5914 57.3457V44.7949C52.6325 47.2714 62.8955 51.1977 64.4159 54.322C67.3426 60.3361 68.0165 78.4146 68.6543 89.8775H3.19727C3.38486 85.9565 4.03021 76.3021 5.11085 69.0529C6.46163 59.9913 8.60039 53.5751 9.95113 52.9562Z" fill="#65969B"/>
<path d="M25.0373 46.4251C25.4876 46.2451 27.0259 44.5112 27.7387 43.6667C27.1758 45.3549 27.7387 56.2183 29.0896 62.8597C30.1703 68.1728 34.0801 81.0203 35.8998 86.7799C37.4945 77.831 41.1904 58.4471 43.2166 52.5036C45.2428 46.5602 44.6612 43.0104 44.1171 41.9785L46.7062 44.7927L50.0269 48.7325L49.2389 49.6893L51.8279 51.2089L37.0255 87.6803H34.8867C28.7632 82.0069 21.679 61.1898 18.9023 51.4903L22.2793 50.027L21.4351 48.3385C22.4482 47.7757 24.5869 46.605 25.0373 46.4251Z" fill="#447277"/>
<path d="M27.3986 46.144C27.3535 44.0276 28.0553 42.9358 28.4118 42.6545L35.6159 48.114C32.6441 47.7538 29.9125 50.8906 28.9182 52.5041C28.4304 51.2659 27.4436 48.2603 27.3986 46.144Z" fill="#52B0C5"/>
<path d="M44.396 42.6545C44.1709 41.8439 43.5893 41.1161 43.3266 40.8535V42.0356L38.5426 48.114C41.4932 48.5757 43.1865 50.4453 43.6643 51.3223C45.2839 45.8491 44.6868 43.7009 44.4026 42.6781L44.396 42.6545Z" fill="#52B0C5"/>
</g>
</svg>
