<svg width="24" height="24" viewBox="0 0 24 24" fill="none" xmlns="http://www.w3.org/2000/svg">
<g clip-path="url(#clip0_2077_14674)">
<path d="M20.62 20.4399H7.85004C7.74581 20.44 7.64329 20.4134 7.55225 20.3627C7.46122 20.3119 7.38472 20.2386 7.33004 20.1499C7.28101 20.0575 7.25537 19.9545 7.25537 19.8499C7.25537 19.7453 7.28101 19.6423 7.33004 19.5499L11.06 12.5999C11.1361 12.4612 11.2639 12.3581 11.4156 12.3132C11.5673 12.2682 11.7307 12.285 11.87 12.3599C11.9405 12.3957 12.0031 12.4453 12.0541 12.5058C12.105 12.5663 12.1433 12.6364 12.1666 12.7119C12.1899 12.7875 12.1978 12.867 12.1898 12.9457C12.1818 13.0243 12.1581 13.1006 12.12 13.1699L8.86004 19.2399H19.63L16.32 13.1399C16.2455 12.9978 16.2299 12.8321 16.2767 12.6786C16.3235 12.5251 16.4289 12.3962 16.57 12.3199C16.6394 12.2818 16.7156 12.2581 16.7943 12.2501C16.873 12.2421 16.9524 12.25 17.028 12.2733C17.1036 12.2966 17.1737 12.3349 17.2341 12.3859C17.2946 12.4368 17.3442 12.4994 17.38 12.5699L21.16 19.5699C21.2117 19.6614 21.2389 19.7648 21.2389 19.8699C21.2389 19.975 21.2117 20.0784 21.16 20.1699C21.1012 20.2579 21.0205 20.329 20.9258 20.3764C20.8311 20.4237 20.7257 20.4456 20.62 20.4399Z" fill="#1B4A52"/>
<path d="M5.54009 20.44H3.54009C3.45034 20.4495 3.35983 20.4495 3.27008 20.44C3.17827 20.4094 3.09457 20.3585 3.02528 20.2909C2.956 20.2234 2.90294 20.141 2.87008 20.05C2.83757 19.9598 2.82608 19.8633 2.83648 19.768C2.84688 19.6727 2.87889 19.581 2.93008 19.5L3.45009 19.71L3.00008 19.41L8.29009 10.75C8.34597 10.666 8.41982 10.5955 8.5063 10.5436C8.59278 10.4918 8.68971 10.4598 8.79009 10.45C8.88912 10.4414 8.98871 10.458 9.07962 10.4982C9.17053 10.5384 9.2498 10.6009 9.31009 10.68L9.44008 10.86L9.71008 11.3C9.94008 11.69 10.1801 12.08 10.4201 12.46C10.4624 12.5268 10.491 12.6014 10.5044 12.6795C10.5177 12.7575 10.5155 12.8373 10.4978 12.9145C10.4802 12.9916 10.4474 13.0645 10.4015 13.129C10.3555 13.1934 10.2973 13.2481 10.2301 13.29C10.0943 13.3727 9.9315 13.3992 9.77645 13.3637C9.62141 13.3282 9.48635 13.2336 9.40009 13.1L8.83009 12.16L4.47009 19.3H6.25008C6.40921 19.3 6.56183 19.3632 6.67435 19.4757C6.78687 19.5882 6.85008 19.7408 6.85008 19.9C6.85008 19.9787 6.83457 20.0568 6.80441 20.1296C6.77426 20.2024 6.73006 20.2685 6.67435 20.3242C6.61863 20.3799 6.55249 20.4241 6.47969 20.4543C6.4069 20.4844 6.32888 20.5 6.25008 20.5L5.54009 20.44Z" fill="#1B4A52"/>
<path d="M15.2001 13.38C15.1189 13.3813 15.0384 13.3651 14.9642 13.3323C14.8899 13.2995 14.8237 13.2509 14.7701 13.19L14.2201 12.62L13.7501 13.11C13.6357 13.2249 13.4872 13.2997 13.3267 13.3232C13.1663 13.3466 13.0025 13.3174 12.8601 13.24C12.5501 13.06 12.2601 12.87 11.9501 12.67L11.7401 12.53C11.615 12.4512 11.5234 12.3291 11.4828 12.187C11.4422 12.0449 11.4555 11.8929 11.5201 11.76L12.0501 10.76L13.1201 8.75995C13.1731 8.66604 13.2501 8.58787 13.3432 8.53341C13.4363 8.47895 13.5422 8.45015 13.6501 8.44995H14.7901C14.8979 8.44967 15.0037 8.47946 15.0956 8.53599C15.1874 8.59252 15.2617 8.67354 15.3101 8.76996L16.6101 11.17L16.8701 11.66C16.9417 11.7967 16.9639 11.954 16.9329 12.1052C16.9019 12.2565 16.8197 12.3924 16.7001 12.49L15.5401 13.27C15.4408 13.3409 15.322 13.3793 15.2001 13.38ZM12.9001 11.82L13.1901 12.01L13.4801 11.7L13.8401 11.33C13.8941 11.2695 13.9604 11.2213 14.0346 11.1886C14.1087 11.1558 14.189 11.1392 14.2701 11.14C14.3524 11.1403 14.4339 11.1573 14.5095 11.1899C14.5851 11.2226 14.6533 11.2702 14.7101 11.33L15.3401 12L15.6301 11.8C15.2501 11.11 14.8701 10.41 14.5001 9.70996H14.0001L12.9001 11.82Z" fill="#FF6961"/>
<path d="M14.2099 9.22003C14.1311 9.22003 14.0531 9.20451 13.9803 9.17436C13.9075 9.14421 13.8414 9.10001 13.7857 9.04429C13.73 8.98858 13.6858 8.92244 13.6556 8.84964C13.6255 8.77684 13.6099 8.69882 13.6099 8.62003V6.53003C13.5047 6.62164 13.3695 6.67145 13.2299 6.67003H11.2799C11.1208 6.67003 10.9682 6.60681 10.8557 6.49429C10.7431 6.38177 10.6799 6.22916 10.6799 6.07003V3.13003C10.6799 2.9709 10.7431 2.81829 10.8557 2.70576C10.9682 2.59324 11.1208 2.53003 11.2799 2.53003H14.2099C14.3691 2.53003 14.5217 2.59324 14.6342 2.70576C14.7467 2.81829 14.8099 2.9709 14.8099 3.13003V8.62003C14.8113 8.69835 14.797 8.77614 14.7679 8.84888C14.7389 8.92163 14.6956 8.98785 14.6407 9.0437C14.5858 9.09955 14.5203 9.14391 14.448 9.17418C14.3758 9.20446 14.2983 9.22004 14.2199 9.22003H14.2099ZM11.8799 5.44003H13.2299C13.3675 5.44 13.5012 5.48573 13.6099 5.57003V3.73003H11.8799V5.44003Z" fill="#FF6961"/>
<path d="M11.2601 8.44012H6.40007C6.28072 8.43984 6.16425 8.40337 6.06606 8.33553C5.96786 8.26768 5.89255 8.17165 5.85007 8.06012C5.81174 7.95342 5.80552 7.83784 5.83218 7.72765C5.85884 7.61746 5.91721 7.51749 6.00007 7.44012L7.50007 5.95012L6.00007 4.44012C5.90455 4.34248 5.84394 4.21603 5.82767 4.08041C5.81139 3.94478 5.84036 3.80758 5.91007 3.69012C5.97008 3.59947 6.04984 3.52359 6.14336 3.46817C6.23688 3.41275 6.34174 3.37923 6.45007 3.37012H10.3201C10.4792 3.37012 10.6318 3.43333 10.7443 3.54585C10.8569 3.65837 10.9201 3.81099 10.9201 3.97012C10.9201 4.12925 10.8569 4.28186 10.7443 4.39438C10.6318 4.5069 10.4792 4.57012 10.3201 4.57012H7.83007L8.83007 5.57012C8.88688 5.62594 8.93135 5.69304 8.96063 5.76711C8.98991 5.84117 9.00335 5.92055 9.00007 6.00012C8.99943 6.15675 8.93856 6.30714 8.83007 6.42012L7.93007 7.31012H10.7301V6.07012C10.7301 5.99132 10.7456 5.9133 10.7757 5.84051C10.8059 5.76771 10.8501 5.70157 10.9058 5.64585C10.9615 5.59014 11.0277 5.54594 11.1005 5.51579C11.1733 5.48564 11.2513 5.47012 11.3301 5.47012C11.4089 5.47012 11.4869 5.48564 11.5597 5.51579C11.6325 5.54594 11.6986 5.59014 11.7543 5.64585C11.8101 5.70157 11.8542 5.76771 11.8844 5.84051C11.9146 5.9133 11.9301 5.99132 11.9301 6.07012V7.83012C11.9321 7.916 11.9156 8.00131 11.8818 8.08029C11.8481 8.15927 11.7977 8.23007 11.7342 8.2879C11.6706 8.34573 11.5954 8.38925 11.5137 8.41551C11.4319 8.44177 11.3454 8.45016 11.2601 8.44012Z" fill="#FF6961"/>
</g>
<defs>
<clipPath id="clip0_2077_14674">
<rect width="24" height="24" fill="white"/>
</clipPath>
</defs>
</svg>
