<svg width="160" height="160" viewBox="0 0 160 160" fill="none" xmlns="http://www.w3.org/2000/svg">
<path d="M23.9272 47.8523C25.5024 47.3403 26.3643 45.6482 25.8523 44.0729C25.3404 42.4977 23.6482 41.6356 22.0729 42.1477C20.4976 42.6596 19.6357 44.3517 20.1477 45.9271C20.6597 47.5024 22.3517 48.3643 23.9272 47.8523Z" fill="#EAEEF9"/>
<path d="M28.618 37.9016C29.6682 37.5602 30.2429 36.4321 29.9015 35.3819C29.5602 34.3317 28.4322 33.7572 27.382 34.0984C26.3318 34.4398 25.7571 35.5679 26.0985 36.6181C26.4398 37.6683 27.5679 38.2428 28.618 37.9016Z" fill="#EAEEF9"/>
<path d="M144.536 54.8218C146.37 53.1452 146.498 50.299 144.821 48.4644C143.146 46.6297 140.299 46.5016 138.464 48.1782C136.63 49.8548 136.502 52.701 138.179 54.5356C139.854 56.3703 142.701 56.4984 144.536 54.8218Z" fill="#EAEEF9"/>
<path d="M145.349 37.4764C146.165 36.7313 146.221 35.4662 145.477 34.6508C144.731 33.8355 143.465 33.7785 142.651 34.5236C141.836 35.2687 141.778 36.5338 142.524 37.3492C143.268 38.1645 144.534 38.2215 145.349 37.4764Z" fill="#EAEEF9"/>
<path opacity="0.1" d="M79.9999 140C110.928 140 136 114.928 136 84C136 53.0721 110.928 28 79.9999 28C49.072 28 24 53.0721 24 84C24 114.928 49.072 140 79.9999 140Z" fill="#1B4A52"/>
<path d="M49.8398 61.1745V67.3892V117.107C49.8398 119.409 51.6706 121.25 53.8446 121.25H133.942C136.23 121.25 137.946 119.409 137.946 117.107V67.3892V61.4045C137.946 58.9878 136.002 57.0312 133.598 57.0312H53.8446L49.8398 61.1745Z" fill="white"/>
<g filter="url(#filter0_d_2648_24517)">
<path d="M27.1836 55.6501V63.0158V121.71C27.1836 124.358 29.3577 126.544 31.9894 126.544H126.618C129.251 126.544 131.425 124.358 131.425 121.71V63.0158V55.8803C131.425 53.0031 129.136 50.8164 126.39 50.8164H31.9894L27.1836 55.6501Z" fill="white"/>
</g>
<path d="M100.415 60.714H27.1836V55.6501C27.1836 53.0031 29.3577 50.8164 31.9894 50.8164H126.618C129.251 50.8164 131.425 53.0031 131.425 55.6501V60.714H115.29H100.415Z" fill="#1B4A52"/>
<path d="M33.3637 57.6092C34.2484 57.6092 34.9656 56.8879 34.9656 55.9979C34.9656 55.1081 34.2484 54.3867 33.3637 54.3867C32.479 54.3867 31.7617 55.1081 31.7617 55.9979C31.7617 56.8879 32.479 57.6092 33.3637 57.6092Z" fill="white"/>
<path d="M37.9418 57.6092C38.8264 57.6092 39.5437 56.8879 39.5437 55.9979C39.5437 55.1081 38.8264 54.3867 37.9418 54.3867C37.057 54.3867 36.3398 55.1081 36.3398 55.9979C36.3398 56.8879 37.057 57.6092 37.9418 57.6092Z" fill="white"/>
<path d="M42.6332 57.6092C43.518 57.6092 44.2351 56.8879 44.2351 55.9979C44.2351 55.1081 43.518 54.3867 42.6332 54.3867C41.7484 54.3867 41.0312 55.1081 41.0312 55.9979C41.0312 56.8879 41.7484 57.6092 42.6332 57.6092Z" fill="white"/>
<path d="M115 26C116.105 26 117 25.1046 117 24C117 22.8955 116.105 22 115 22C113.895 22 113 22.8955 113 24C113 25.1046 113.895 26 115 26Z" fill="url(#paint0_linear_2648_24517)"/>
<path d="M18.0625 109.168C19.1671 109.168 20.0625 108.272 20.0625 107.168C20.0625 106.063 19.1671 105.168 18.0625 105.168C16.958 105.168 16.0625 106.063 16.0625 107.168C16.0625 108.272 16.958 109.168 18.0625 109.168Z" fill="url(#paint1_linear_2648_24517)"/>
<path d="M100.535 98.7579C98.2268 110.066 87.0363 117.451 75.7289 115.028C64.4219 112.72 57.0378 101.527 59.4607 90.2186C61.7682 78.9104 72.9598 71.5259 84.2666 73.949C88.3049 74.7568 91.9973 76.7184 94.8817 79.7186C99.8427 84.6804 102.035 91.8345 100.535 98.7579Z" fill="#00B5D5"/>
<path d="M76.0508 100.306C76.0508 100.306 82.1381 106.779 87.2873 111.958C87.2873 111.958 92.0964 108.768 94.2585 106.655C96.3221 104.638 98.407 99.4699 98.407 99.4699L88.4288 87.8203L80.6091 95.8242L76.0508 100.306Z" fill="#0DAECB"/>
<path fill-rule="evenodd" clip-rule="evenodd" d="M88.445 87.5858C89.185 88.3668 89.185 89.6332 88.445 90.4142L78.9714 100.414C78.2314 101.195 77.0317 101.195 76.2918 100.414L71.555 95.4142C70.815 94.6332 70.815 93.3668 71.555 92.5858C72.2949 91.8047 73.4946 91.8047 74.2345 92.5858L77.6316 96.1716L85.7655 87.5858C86.5054 86.8047 87.7051 86.8047 88.445 87.5858Z" fill="white"/>
<defs>
<filter id="filter0_d_2648_24517" x="25.1836" y="50.8164" width="112.242" height="83.7275" filterUnits="userSpaceOnUse" color-interpolation-filters="sRGB">
<feFlood flood-opacity="0" result="BackgroundImageFix"/>
<feColorMatrix in="SourceAlpha" type="matrix" values="0 0 0 0 0 0 0 0 0 0 0 0 0 0 0 0 0 0 127 0" result="hardAlpha"/>
<feOffset dx="2" dy="4"/>
<feGaussianBlur stdDeviation="2"/>
<feComposite in2="hardAlpha" operator="out"/>
<feColorMatrix type="matrix" values="0 0 0 0 0.0666667 0 0 0 0 0.0941176 0 0 0 0 0.152941 0 0 0 0.08 0"/>
<feBlend mode="normal" in2="BackgroundImageFix" result="effect1_dropShadow_2648_24517"/>
<feBlend mode="normal" in="SourceGraphic" in2="effect1_dropShadow_2648_24517" result="shape"/>
</filter>
<linearGradient id="paint0_linear_2648_24517" x1="113.101" y1="23.9714" x2="116.982" y2="23.9714" gradientUnits="userSpaceOnUse">
<stop stop-color="#FF66A9"/>
<stop offset="1" stop-color="#F53689"/>
</linearGradient>
<linearGradient id="paint1_linear_2648_24517" x1="16.1618" y1="107.157" x2="20.0421" y2="107.157" gradientUnits="userSpaceOnUse">
<stop stop-color="#FF66A9"/>
<stop offset="1" stop-color="#F53689"/>
</linearGradient>
</defs>
</svg>
