<svg width="103" height="32" viewBox="0 0 103 32" fill="none" xmlns="http://www.w3.org/2000/svg">
<g clip-path="url(#clip0_149_3752)">
<path fill-rule="evenodd" clip-rule="evenodd" d="M63.8991 25.0266C57.9136 29.5749 49.238 32.0016 41.7684 32.0016C31.2949 32.0016 21.8661 28.008 14.7328 21.3658C14.1724 20.8434 14.6745 20.1316 15.347 20.5384C23.0453 25.156 32.5638 27.934 42.3961 27.934C49.0273 27.934 56.322 26.5196 63.0293 23.5845C64.0426 23.1407 64.89 24.2686 63.8991 25.0266Z" fill="#FF9900"/>
<path fill-rule="evenodd" clip-rule="evenodd" d="M66.3879 22.0881C65.6257 21.0804 61.3305 21.612 59.4026 21.8477C58.8153 21.9217 58.7256 21.3947 59.2547 21.0157C62.6756 18.5335 68.2889 19.25 68.9435 20.082C69.5981 20.9186 68.7732 26.7196 65.5585 29.4883C65.0653 29.9136 64.5945 29.6871 64.8142 29.1232C65.5361 27.265 67.1546 23.1003 66.3879 22.0881Z" fill="#FF9900"/>
<path fill-rule="evenodd" clip-rule="evenodd" d="M59.5367 3.49562V1.0828C59.5367 0.717636 59.8057 0.472656 60.1286 0.472656H70.6066C70.9428 0.472656 71.2118 0.722259 71.2118 1.0828V3.14895C71.2074 3.49562 70.9249 3.9486 70.4227 4.66505L64.9932 12.657C67.0108 12.6061 69.1405 12.9158 70.9697 13.9789C71.3822 14.2193 71.4943 14.5706 71.5257 14.9173V17.4919C71.5257 17.8431 71.1491 18.2545 70.7545 18.0419C67.5309 16.2993 63.2491 16.1098 59.6847 18.0604C59.3215 18.2638 58.9404 17.857 58.9404 17.5057V15.0605C58.9404 14.6677 58.9449 13.9974 59.326 13.4011L65.6164 4.10114H60.142C59.8057 4.10114 59.5367 3.85616 59.5367 3.49562Z" fill="black"/>
<path fill-rule="evenodd" clip-rule="evenodd" d="M21.3148 18.5475H18.127C17.8221 18.5244 17.58 18.2887 17.5576 17.9882V1.12159C17.5576 0.784166 17.8311 0.516072 18.1719 0.516072H21.1444C21.4538 0.529929 21.7004 0.774918 21.7228 1.07999V3.28481H21.7811C22.5567 1.15394 24.0139 0.160156 25.9777 0.160156C27.9728 0.160156 29.2193 1.15394 30.116 3.28481C30.8871 1.15394 32.6402 0.160156 34.5188 0.160156C35.8549 0.160156 37.3165 0.728695 38.2087 2.00444C39.2175 3.42348 39.0113 5.48501 39.0113 7.29232L39.0068 17.9374C39.0068 18.2748 38.7333 18.5475 38.3926 18.5475H35.2093C34.8909 18.5244 34.6354 18.261 34.6354 17.9374V8.99793C34.6354 8.28611 34.6981 6.51115 34.5457 5.8363C34.3081 4.70385 33.5952 4.38491 32.6716 4.38491C31.9004 4.38491 31.0934 4.91647 30.7661 5.76697C30.4388 6.61747 30.4702 8.04112 30.4702 8.99793V17.9374C30.4702 18.2748 30.1967 18.5475 29.8559 18.5475H26.6726C26.3498 18.5244 26.0987 18.261 26.0987 17.9374L26.0943 8.99793C26.0943 7.11667 26.3946 4.34793 24.1305 4.34793C21.8394 4.34793 21.9291 7.04733 21.9291 8.99793V17.9374C21.9291 18.2748 21.6556 18.5475 21.3148 18.5475" fill="black"/>
<path fill-rule="evenodd" clip-rule="evenodd" d="M80.2322 0.160156C84.9624 0.160156 87.5225 4.34793 87.5225 9.67279C87.5225 14.8174 84.6934 18.8988 80.2322 18.8988C75.5873 18.8988 73.0586 14.7111 73.0586 9.49252C73.0586 4.24162 75.6187 0.160156 80.2322 0.160156ZM80.2591 3.60375C77.9098 3.60375 77.7618 6.90405 77.7618 8.96096C77.7618 11.0225 77.7304 15.4229 80.2322 15.4229C82.7027 15.4229 82.8192 11.873 82.8192 9.70976C82.8192 8.28611 82.761 6.58511 82.344 5.23541C81.9853 4.06135 81.2724 3.60375 80.2591 3.60375Z" fill="black"/>
<path fill-rule="evenodd" clip-rule="evenodd" d="M93.656 18.5475H90.4817C90.1634 18.5244 89.9078 18.261 89.9078 17.9374L89.9033 1.06612C89.9302 0.756429 90.1947 0.516072 90.5176 0.516072H93.4722C93.7502 0.529929 93.9788 0.724074 94.0416 0.987544V3.56677H94.0999C94.9921 1.26026 96.243 0.160156 98.4444 0.160156C99.8747 0.160156 101.269 0.691718 102.166 2.14773C103 3.49743 103 5.76697 103 7.39863V18.016C102.964 18.3118 102.699 18.5475 102.385 18.5475H99.1887C98.8973 18.5244 98.6552 18.3026 98.6238 18.016V8.85464C98.6238 7.01036 98.83 4.31095 96.6286 4.31095C95.853 4.31095 95.1401 4.84714 94.7859 5.66066C94.3375 6.69142 94.2792 7.71757 94.2792 8.85464V17.9374C94.2748 18.2748 93.9968 18.5475 93.656 18.5475" fill="black"/>
<path fill-rule="evenodd" clip-rule="evenodd" d="M51.184 10.4926C51.184 11.7729 51.2154 12.8407 50.5877 13.9777C50.081 14.9022 49.274 15.4707 48.3818 15.4707C47.1578 15.4707 46.4404 14.5093 46.4404 13.0903C46.4404 10.2892 48.875 9.78073 51.184 9.78073V10.4926ZM54.3987 18.5029C54.188 18.6971 53.8831 18.7109 53.6454 18.5815C52.5873 17.6756 52.3945 17.2549 51.8162 16.3906C50.0676 18.2302 48.8257 18.7803 46.5615 18.7803C43.8758 18.7803 41.791 17.0747 41.791 13.6588C41.791 10.9918 43.1899 9.17521 45.1895 8.28773C46.9202 7.50194 49.3368 7.36328 51.184 7.14603V6.72078C51.184 5.93962 51.2423 5.01516 50.7939 4.34031C50.4083 3.73479 49.6641 3.48519 49.005 3.48519C47.79 3.48519 46.7094 4.12769 46.4449 5.4589C46.3911 5.75473 46.1804 6.04593 45.8889 6.0598L42.7998 5.71775C42.5397 5.65766 42.2483 5.44041 42.3245 5.02903C43.0329 1.16482 46.4225 0 49.4533 0C51.0046 0 53.0312 0.42525 54.2552 1.63628C55.8065 3.12928 55.6585 5.12148 55.6585 7.28932V12.4108C55.6585 13.95 56.2773 14.6249 56.8601 15.4569C57.0619 15.7527 57.1067 16.1086 56.8467 16.3305C56.1966 16.8898 55.0398 17.9298 54.4031 18.5122L54.3987 18.5029" fill="black"/>
<path fill-rule="evenodd" clip-rule="evenodd" d="M9.39298 10.4926C9.39298 11.7729 9.42437 12.8407 8.79667 13.9777C8.29003 14.9022 7.48748 15.4707 6.59078 15.4707C5.36678 15.4707 4.6539 14.5093 4.6539 13.0903C4.6539 10.2892 7.08845 9.78072 9.39298 9.78072V10.4926ZM12.6077 18.5029C12.3969 18.6971 12.0921 18.7109 11.8544 18.5815C10.7963 17.6756 10.608 17.2549 10.0252 16.3906C8.27658 18.2302 7.03913 18.7803 4.77047 18.7803C2.08932 18.7803 0 17.0747 0 13.6588C0 10.9918 1.40334 9.17521 3.39851 8.28773C5.12915 7.50194 7.54577 7.36328 9.39298 7.14603V6.72078C9.39298 5.93962 9.45127 5.01516 9.0074 4.34031C8.61733 3.73479 7.87307 3.48519 7.21847 3.48519C6.00344 3.48519 4.91843 4.12769 4.6539 5.4589C4.60009 5.75473 4.38937 6.04593 4.10242 6.0598L1.00879 5.71775C0.748748 5.65766 0.461802 5.44041 0.533539 5.02903C1.24642 1.16482 4.63148 0 7.66234 0C9.21364 0 11.2402 0.42525 12.4642 1.63628C14.0155 3.12928 13.8675 5.12147 13.8675 7.28932V12.4108C13.8675 13.95 14.4863 14.6249 15.0691 15.4569C15.2754 15.7527 15.3202 16.1086 15.0602 16.3305C14.41 16.8898 13.2533 17.9298 12.6166 18.5122L12.6077 18.5029" fill="black"/>
</g>
<defs>
<clipPath id="clip0_149_3752">
<rect width="103" height="32" fill="white"/>
</clipPath>
</defs>
</svg>
