<svg width="211" height="168" viewBox="0 0 211 168" fill="none" xmlns="http://www.w3.org/2000/svg">
<rect x="0.5" y="0.5" width="277" height="167" rx="23.5" fill="white" stroke="#B1CBCF"/>
<path d="M117.526 90.678C117.365 90.288 117.213 89.878 117.051 89.528L116.304 87.858L116.274 87.828C114.052 83.028 111.679 78.148 109.165 73.348L109.064 73.148C108.811 72.678 108.559 72.158 108.296 71.678C107.973 71.108 107.66 70.498 107.145 69.918C106.643 69.3111 106.012 68.8222 105.296 68.4864C104.58 68.1507 103.797 67.9766 103.005 67.9766C102.213 67.9766 101.431 68.1507 100.715 68.4864C99.9987 68.8222 99.3669 69.3111 98.8649 69.918C98.3903 70.498 98.0369 71.108 97.7137 71.678C97.4613 72.198 97.2088 72.708 96.9463 73.178L96.8453 73.378C94.3713 78.178 91.9579 83.058 89.7363 87.858L89.6757 87.918C89.4535 88.438 89.191 88.978 88.9385 89.558C88.777 89.908 88.6154 90.288 88.4538 90.708C88.0176 91.8078 87.8783 93.0011 88.0497 94.1705C88.221 95.3398 88.6971 96.4448 89.431 97.3764C90.1648 98.308 91.1312 99.0343 92.2348 99.4834C93.3384 99.9326 94.5411 100.089 95.7244 99.938C96.8589 99.7901 97.9513 99.4159 98.9356 98.838C100.248 98.108 101.511 97.048 102.924 95.518C104.338 97.048 105.631 98.108 106.913 98.848C108.146 99.5648 109.543 99.9605 110.972 99.998C112.628 100.005 114.23 99.4183 115.483 98.3467C116.736 97.2751 117.555 95.7909 117.789 94.168C118.059 93.0018 117.968 91.7818 117.526 90.668V90.678ZM103.025 92.338C101.288 90.138 100.157 88.118 99.7737 86.388C99.6148 85.7469 99.5805 85.0818 99.6728 84.428C99.7434 83.918 99.9353 83.468 100.198 83.088C100.804 82.218 101.864 81.678 103.025 81.678C103.577 81.6613 104.124 81.7805 104.617 82.0248C105.111 82.2692 105.535 82.6311 105.853 83.078C106.115 83.478 106.307 83.918 106.368 84.428C106.469 85.008 106.428 85.678 106.267 86.388C105.883 88.088 104.752 90.128 103.025 92.338ZM115.89 93.818C115.775 94.6419 115.445 95.4217 114.931 96.0797C114.417 96.7376 113.738 97.2508 112.962 97.568C112.194 97.888 111.346 97.978 110.518 97.888C109.71 97.788 108.902 97.528 108.074 97.048C106.699 96.2065 105.463 95.161 104.409 93.948C106.529 91.348 107.812 88.978 108.296 86.868C108.529 85.868 108.559 84.968 108.458 84.138C108.332 83.3513 108.036 82.6008 107.59 81.938C107.08 81.2192 106.4 80.6354 105.61 80.2379C104.819 79.8403 103.942 79.6412 103.056 79.658C101.187 79.658 99.5213 80.518 98.5115 81.928C98.0569 82.5892 97.7631 83.3456 97.6532 84.138C97.5219 84.978 97.5522 85.908 97.8147 86.868C98.2994 88.978 99.6122 91.378 101.702 93.968C100.666 95.2041 99.4267 96.2589 98.0369 97.088C97.1987 97.568 96.401 97.818 95.5932 97.918C94.3368 98.0774 93.0678 97.7392 92.0618 96.9771C91.0559 96.215 90.3943 95.0905 90.221 93.848C90.12 93.048 90.1907 92.248 90.5138 91.348C90.6148 91.028 90.7663 90.708 90.9279 90.328C91.15 89.808 91.4126 89.268 91.665 88.728L91.7054 88.658C93.8866 83.888 96.2697 79.018 98.7437 74.248L98.8447 74.048C99.0972 73.568 99.3496 73.058 99.6122 72.578C99.8747 72.068 100.157 71.578 100.521 71.178C100.836 70.806 101.229 70.5069 101.673 70.3016C102.117 70.0964 102.601 69.99 103.091 69.99C103.581 69.99 104.065 70.0964 104.509 70.3016C104.953 70.5069 105.346 70.806 105.661 71.178C106.014 71.578 106.307 72.068 106.57 72.578C106.822 73.058 107.075 73.578 107.337 74.048L107.438 74.248C109.902 79.018 112.285 83.888 114.507 88.658L114.537 88.688C114.8 89.208 115.022 89.788 115.274 90.288C115.436 90.678 115.597 90.988 115.698 91.318C115.89 92.218 115.991 93.018 115.89 93.818V93.818ZM129.947 92.118C129.186 92.129 128.432 91.9702 127.742 91.6534C127.051 91.3366 126.441 90.87 125.958 90.288C124.871 89.048 124.295 87.4491 124.342 85.808C124.326 84.1312 124.921 82.5048 126.019 81.228C126.526 80.6386 127.158 80.1666 127.87 79.8453C128.582 79.5239 129.356 79.361 130.139 79.368C130.875 79.348 131.604 79.5138 132.257 79.8497C132.911 80.1855 133.468 80.6805 133.875 81.288L133.976 79.718H136.924V91.798H133.966L133.865 90.038C133.445 90.6867 132.864 91.2182 132.179 91.5823C131.493 91.9463 130.725 92.1307 129.947 92.118V92.118ZM130.714 89.238C131.3 89.238 131.815 89.078 132.3 88.788C132.744 88.468 133.107 88.048 133.39 87.538C133.643 87.028 133.774 86.418 133.774 85.738C133.813 85.1474 133.697 84.5568 133.437 84.0239C133.177 83.4911 132.781 83.0342 132.289 82.698C131.817 82.4064 131.271 82.2518 130.714 82.2518C130.157 82.2518 129.611 82.4064 129.139 82.698C128.695 83.018 128.331 83.438 128.048 83.948C127.781 84.5104 127.65 85.1267 127.665 85.748C127.625 86.3386 127.741 86.9292 128.001 87.4621C128.262 87.9949 128.657 88.4518 129.149 88.788C129.624 89.078 130.139 89.238 130.714 89.238ZM141.973 76.458C141.973 76.808 141.913 77.128 141.751 77.388C141.59 77.638 141.368 77.868 141.075 78.028C140.782 78.188 140.469 78.248 140.146 78.248C139.823 78.248 139.499 78.188 139.207 78.028C138.93 77.8753 138.697 77.655 138.53 77.388C138.374 77.1031 138.297 76.7821 138.308 76.458C138.308 76.098 138.379 75.778 138.53 75.528C138.692 75.228 138.924 75.048 139.207 74.888C139.499 74.728 139.812 74.658 140.146 74.658C140.467 74.6507 140.785 74.726 141.068 74.8768C141.351 75.0275 141.59 75.2485 141.761 75.518C141.908 75.8095 141.981 76.1322 141.973 76.458V76.458ZM138.54 91.758V79.698H141.751V91.778H138.53L138.54 91.758ZM150.335 82.858V82.898C150.183 82.828 149.981 82.798 149.83 82.768C149.628 82.728 149.466 82.728 149.274 82.728C148.376 82.728 147.699 82.988 147.255 83.528C146.77 84.078 146.548 84.848 146.548 85.838V91.768H143.327V79.688H146.285L146.386 81.518C146.709 80.878 147.093 80.398 147.638 80.038C148.181 79.6882 148.819 79.5135 149.466 79.538C149.698 79.538 149.921 79.558 150.112 79.598C150.213 79.628 150.274 79.628 150.335 79.658V82.858V82.858ZM151.627 91.758V74.738H154.838V81.238C155.293 80.658 155.808 80.208 156.454 79.858C157.477 79.3612 158.639 79.2203 159.753 79.458C160.867 79.6957 161.868 80.2981 162.594 81.168C163.683 82.4106 164.259 84.0135 164.209 85.658C164.226 87.3348 163.631 88.9611 162.533 90.238C162.025 90.8274 161.393 91.2994 160.681 91.6207C159.97 91.9421 159.195 92.105 158.413 92.098C157.677 92.1179 156.948 91.9522 156.294 91.6163C155.641 91.2805 155.084 90.7855 154.677 90.178L154.576 91.748L151.627 91.778V91.758ZM157.837 89.238C158.413 89.238 158.928 89.078 159.413 88.788C159.857 88.468 160.221 88.048 160.503 87.538C160.766 87.028 160.887 86.418 160.887 85.738C160.887 85.068 160.766 84.458 160.503 83.948C160.238 83.4562 159.866 83.0292 159.413 82.698C158.94 82.4064 158.394 82.2518 157.837 82.2518C157.281 82.2518 156.735 82.4064 156.262 82.698C155.808 83.018 155.454 83.438 155.161 83.948C154.894 84.5104 154.763 85.1267 154.778 85.748C154.738 86.3386 154.854 86.9292 155.115 87.4621C155.375 87.9949 155.77 88.4518 156.262 88.788C156.737 89.078 157.252 89.238 157.837 89.238ZM165.421 91.768V79.688H168.38L168.481 81.258C168.853 80.6562 169.38 80.1637 170.009 79.8314C170.637 79.4991 171.344 79.3391 172.056 79.368C172.87 79.3541 173.67 79.5781 174.356 80.0121C175.042 80.4461 175.583 81.0708 175.913 81.808C176.266 82.568 176.458 83.508 176.458 84.558V91.798H173.237V84.978C173.237 84.138 173.045 83.478 172.661 82.988C172.278 82.508 171.753 82.248 171.086 82.248C170.601 82.248 170.177 82.348 169.804 82.568C169.45 82.798 169.157 83.088 168.935 83.498C168.711 83.9124 168.599 84.3778 168.612 84.848V91.768H165.421V91.768ZM178.064 91.768V74.728H181.285V81.228C181.721 80.6448 182.289 80.1703 182.943 79.8422C183.597 79.5141 184.319 79.3415 185.052 79.338C185.813 79.327 186.566 79.4857 187.257 79.8025C187.947 80.1193 188.557 80.586 189.04 81.168C190.122 82.4105 190.694 84.0085 190.646 85.648C190.664 87.3249 190.068 88.9516 188.97 90.228C188.462 90.8174 187.83 91.2894 187.118 91.6107C186.406 91.9321 185.632 92.095 184.85 92.088C184.114 92.1079 183.385 91.9422 182.731 91.6063C182.077 91.2705 181.521 90.7755 181.113 90.168L181.023 91.738L178.064 91.768V91.768ZM184.304 89.238C184.89 89.238 185.405 89.078 185.88 88.788C186.334 88.468 186.688 88.048 186.98 87.538C187.233 87.028 187.364 86.418 187.364 85.738C187.404 85.1474 187.287 84.5568 187.027 84.0239C186.767 83.4911 186.372 83.0342 185.88 82.698C185.407 82.4064 184.861 82.2518 184.304 82.2518C183.748 82.2518 183.202 82.4064 182.729 82.698C182.285 83.018 181.921 83.438 181.639 83.948C181.357 84.5054 181.225 85.1253 181.255 85.748C181.215 86.3386 181.332 86.9292 181.592 87.4621C181.852 87.9949 182.247 88.4518 182.739 88.788C183.214 89.078 183.699 89.238 184.304 89.238Z" fill="#FF385C"/>
</svg>
