<svg width="42" height="42" viewBox="0 0 42 42" fill="none" xmlns="http://www.w3.org/2000/svg">
<path d="M24.3773 16.8354H24.2548C23.9787 16.8004 23.7277 16.6573 23.5571 16.4375C23.3865 16.2176 23.3101 15.939 23.3448 15.6629C23.4608 14.4453 23.3113 13.217 22.9064 12.0629C22.5016 10.9087 21.851 9.85614 20.9998 8.97788C20.1238 9.8455 19.4453 10.8918 19.0104 12.0455C18.5756 13.1991 18.3945 14.4329 18.4798 15.6629C18.5054 15.9345 18.4244 16.2054 18.2538 16.4183C18.0832 16.6312 17.8364 16.7693 17.5657 16.8034C17.2951 16.8375 17.0218 16.765 16.8037 16.6011C16.5856 16.4372 16.4398 16.1949 16.3973 15.9254C16.2761 14.1743 16.5768 12.4196 17.2741 10.8088C17.9714 9.19795 19.045 7.77791 20.4048 6.66788C20.5944 6.49695 20.8407 6.40234 21.096 6.40234C21.3513 6.40234 21.5976 6.49695 21.7873 6.66788C23.096 7.8142 24.1098 9.25841 24.7433 10.8787C25.3768 12.499 25.6114 14.2479 25.4273 15.9779C25.3818 16.2218 25.2514 16.4418 25.0592 16.5988C24.867 16.7558 24.6254 16.8396 24.3773 16.8354Z" fill="#FF6961"/>
<path d="M20.6674 35.0541C16.6866 35.0778 12.8343 33.6464 9.83488 31.0291C8.37076 29.5317 7.23607 27.7446 6.50371 25.7826C5.77135 23.8206 5.45752 21.7271 5.58238 19.6366C5.58061 19.3781 5.67426 19.128 5.8454 18.9343C6.01654 18.7405 6.25313 18.6167 6.50987 18.5866C10.4705 18.2373 14.4117 19.4422 17.4999 21.9466C20.5099 24.6241 22.0324 28.6841 22.0324 34.0041C22.0327 34.2737 21.9293 34.5331 21.7436 34.7286C21.5579 34.9241 21.3041 35.0406 21.0349 35.0541H20.6674ZM7.69987 20.6341C7.65318 23.937 8.91081 27.1251 11.1999 29.5066C13.5968 31.627 16.6479 32.8623 19.8449 33.0066C19.8807 31.2621 19.5627 29.5285 18.91 27.9103C18.2573 26.2921 17.2835 24.823 16.0474 23.5916C13.6722 21.6623 10.6892 20.639 7.62987 20.7041L7.69987 20.6341Z" fill="#1B4A52"/>
<path d="M20.5277 28.9968H20.3352C20.1996 28.9716 20.0703 28.9198 19.9547 28.8446C19.8391 28.7694 19.7394 28.6721 19.6614 28.5583C19.5834 28.4446 19.5286 28.3166 19.5001 28.1816C19.4715 28.0467 19.4699 27.9074 19.4952 27.7718C19.9235 26.0942 19.9984 24.3458 19.7152 22.6377C19.432 20.9296 18.7969 19.299 17.8502 17.8493C16.002 15.516 13.4064 13.8907 10.5002 13.2468C10.073 15.2543 10.073 17.3293 10.5002 19.3368C10.5629 19.6083 10.5151 19.8936 10.3674 20.1299C10.2197 20.3662 9.98423 20.5341 9.71271 20.5968C9.4412 20.6595 9.15591 20.6117 8.91961 20.464C8.68332 20.3163 8.51537 20.0808 8.45271 19.8093C7.92064 17.1397 8.02253 14.3824 8.75021 11.7593C8.80892 11.5071 8.96024 11.2862 9.17417 11.1404C9.3881 10.9945 9.64902 10.9343 9.90522 10.9718C13.7138 11.5721 17.1598 13.576 19.5652 16.5893C20.6838 18.2694 21.4405 20.164 21.787 22.1525C22.1334 24.141 22.0622 26.1799 21.5777 28.1393C21.5323 28.3833 21.4018 28.6032 21.2096 28.7602C21.0174 28.9172 20.7758 29.001 20.5277 28.9968Z" fill="#1B4A52"/>
<path d="M21.3329 35.0521H21.0004C20.7312 35.0387 20.4774 34.9221 20.2917 34.7266C20.106 34.5312 20.0026 34.2718 20.0029 34.0021C20.0029 28.7521 21.5254 24.6221 24.5354 21.9446C27.6272 19.4343 31.5762 18.2288 35.5429 18.5846C35.7997 18.6148 36.0363 18.7386 36.2074 18.9323C36.3785 19.1261 36.4722 19.3761 36.4704 19.6346C36.5909 21.7247 36.2751 23.817 35.543 25.7784C34.8109 27.7397 33.6785 29.5272 32.2179 31.0271C29.2049 33.6565 25.3317 35.0887 21.3329 35.0521ZM34.2829 20.6321C31.2236 20.5671 28.2406 21.5903 25.8654 23.5196C24.6293 24.7511 23.6555 26.2202 23.0028 27.8384C22.3501 29.4565 22.0321 31.1902 22.0679 32.9346C25.2981 32.7986 28.385 31.5639 30.8179 29.4346C33.0979 27.0544 34.3544 23.8755 34.3179 20.5796L34.2829 20.6321Z" fill="#1B4A52"/>
<path d="M21.3678 29.0843C21.1243 29.0886 20.8871 29.0066 20.6982 28.8529C20.5092 28.6992 20.3807 28.4836 20.3354 28.2443C19.8324 26.277 19.7485 24.226 20.0892 22.2241C20.4298 20.2223 21.1874 18.3145 22.3128 16.6243C24.712 13.5889 28.1679 11.5703 31.9903 10.9718C32.2465 10.9343 32.5075 10.9945 32.7214 11.1404C32.9353 11.2862 33.0866 11.5071 33.1453 11.7593C33.8891 14.4227 33.9791 17.2262 33.4078 19.9318C33.3768 20.0662 33.3196 20.1933 33.2395 20.3056C33.1594 20.4179 33.0579 20.5134 32.9409 20.5865C32.8239 20.6596 32.6937 20.709 32.5576 20.7318C32.4215 20.7546 32.2823 20.7503 32.1479 20.7193C32.0134 20.6883 31.8864 20.6311 31.7741 20.551C31.6617 20.4709 31.5663 20.3694 31.4931 20.2524C31.42 20.1354 31.3706 20.0051 31.3479 19.8691C31.3251 19.733 31.3293 19.5938 31.3603 19.4593C31.8067 17.4125 31.8067 15.2936 31.3603 13.2468C28.4617 13.8959 25.8771 15.5284 24.0453 17.8668C23.0922 19.3235 22.4563 20.9644 22.179 22.683C21.9016 24.4015 21.9889 26.1592 22.4353 27.8418C22.4607 27.9774 22.459 28.1167 22.4305 28.2516C22.402 28.3866 22.3472 28.5146 22.2691 28.6283C22.1911 28.7421 22.0915 28.8394 21.9759 28.9146C21.8603 28.9898 21.7309 29.0416 21.5953 29.0668L21.3678 29.0843Z" fill="#1B4A52"/>
</svg>
