<svg width="48" height="48" viewBox="0 0 48 48" fill="none" xmlns="http://www.w3.org/2000/svg">
<g clip-path="url(#clip0_54_3954)">
<path d="M0 23.9483C0 19.2118 1.40758 14.5816 4.04473 10.6433C6.68188 6.70506 10.4302 3.63555 14.8156 1.82296C19.201 0.0103765 24.0266 -0.463879 28.6822 0.46017C33.3377 1.38422 37.6141 3.66507 40.9706 7.0143C44.327 10.3635 46.6128 14.6307 47.5388 19.2762C48.4649 23.9217 47.9896 28.7369 46.1731 33.1129C44.3566 37.4889 41.2805 41.2291 37.3337 43.8605C33.3869 46.492 28.7468 47.8966 24 47.8966C17.6348 47.8966 11.5303 45.3734 7.02944 40.8823C2.52856 36.3911 0 30.2998 0 23.9483H0Z" fill="#1B4A52"/>
<g clip-path="url(#clip1_54_3954)">
<path d="M15.0133 36C14.5064 35.9954 14.0089 35.8636 13.5663 35.6166C13.1236 35.3697 12.7501 35.0155 12.4799 34.5867C12.0969 34.0574 11.9101 33.4113 11.9514 32.7593C11.9928 32.1073 12.2598 31.49 12.7066 31.0133C12.7707 30.9315 12.8421 30.8556 12.9199 30.7867L19.5866 24.12L19.7066 24.0133C19.8548 23.8746 20.0503 23.7974 20.2533 23.7974C20.4563 23.7974 20.6517 23.8746 20.7999 24.0133L23.9999 27.1067C24.1465 27.2562 24.2286 27.4573 24.2286 27.6667C24.2286 27.8761 24.1465 28.0771 23.9999 28.2267L23.8799 28.3467L17.2133 35.0133C16.777 35.4918 16.1965 35.8149 15.5599 35.9333L15.0133 36ZM20.3466 25.68L14.0399 31.92L13.9199 32.0533C13.704 32.2626 13.5725 32.544 13.5504 32.8438C13.5283 33.1437 13.6171 33.4413 13.7999 33.68C13.9425 33.9371 14.1617 34.1433 14.427 34.27C14.6922 34.3966 14.9904 34.4374 15.2799 34.3867C15.5578 34.329 15.81 34.1842 15.9999 33.9733L22.2266 27.7467L20.3466 25.68Z" fill="white"/>
<path d="M26.8134 23.3067C26.7044 23.3087 26.5961 23.2885 26.4953 23.2472C26.3944 23.206 26.303 23.1445 26.2267 23.0667L24.8934 21.64C24.7508 21.4911 24.6711 21.2929 24.6711 21.0867C24.6711 20.8805 24.7508 20.6822 24.8934 20.5333L26.0134 19.4133C26.7867 18.6267 27.5867 17.8533 28.3467 17.04C28.5564 16.8045 28.7439 16.5501 28.9067 16.28L29.0934 15.9867L29.76 14.9467L30.24 14.1867C30.3558 13.9993 30.5161 13.8436 30.7067 13.7333L32.6134 12.64L33.1734 12.2933L33.3334 12.2133C33.4842 12.149 33.6498 12.1274 33.8121 12.1509C33.9744 12.1744 34.127 12.2421 34.2534 12.3467L35.5867 13.68C35.7162 13.8086 35.7995 13.9764 35.8236 14.1573C35.8477 14.3382 35.8113 14.522 35.72 14.68L34.76 16.2267L34.12 17.2667C33.9848 17.486 33.8026 17.6727 33.5867 17.8133L32.64 18.4L31.3067 19.2C31.06 19.3615 30.828 19.5445 30.6134 19.7467L28.1734 22.1733L27.44 22.92L27.28 23.1067C27.2078 23.1914 27.1177 23.2592 27.0164 23.3053C26.915 23.3513 26.8047 23.3746 26.6934 23.3733L26.8134 23.3067ZM26.56 21.0933L26.8 21.36L27.1734 20.9733C27.9867 20.16 28.8 19.3467 29.6267 18.5467C29.9123 18.2581 30.2299 18.0031 30.5734 17.7867L31.9067 16.9733L32.8267 16.4L33.5067 15.3333L34.12 14.32L33.6134 13.84L33.48 13.92L31.56 15.0933L31.12 15.8L30.44 16.8667L30.2667 17.1333C30.0551 17.4971 29.8048 17.8368 29.52 18.1467C28.7467 18.96 27.9467 19.76 27.1467 20.5467L26.56 21.0933Z" fill="white"/>
<path d="M31.04 36C30.0116 35.99 29.0099 35.6705 28.1657 35.083C27.3214 34.4956 26.6736 33.6675 26.3067 32.7067C25.9401 31.7246 25.8888 30.6526 26.16 29.64L18.4 21.8667C17.614 22.0783 16.7885 22.0969 15.9937 21.9209C15.199 21.7449 14.4585 21.3795 13.8353 20.8558C13.2121 20.3321 12.7246 19.6656 12.4144 18.9131C12.1041 18.1605 11.9803 17.3441 12.0534 16.5333C12.1013 16.1735 12.1726 15.8172 12.2667 15.4667L12.3867 15C12.4194 14.8633 12.4869 14.7374 12.5827 14.6346C12.6785 14.5318 12.7993 14.4556 12.9334 14.4133C13.0671 14.3715 13.2097 14.3667 13.3459 14.3996C13.4821 14.4325 13.6068 14.5018 13.7067 14.6L14.6267 15.4933L16.5067 17.3733C16.5719 17.4577 16.6576 17.524 16.7556 17.566C16.8536 17.608 16.9607 17.6243 17.0667 17.6133C17.1774 17.5936 17.2825 17.55 17.3746 17.4855C17.4667 17.4211 17.5436 17.3373 17.6 17.24C17.6684 17.1448 17.7052 17.0306 17.7052 16.9134C17.7052 16.7961 17.6684 16.6819 17.6 16.5867C17.5208 16.5005 17.4312 16.4243 17.3334 16.36L14.9334 13.9733H14.7867C14.6694 13.8936 14.575 13.7846 14.5129 13.6571C14.4507 13.5296 14.423 13.3881 14.4324 13.2466C14.4419 13.1051 14.4881 12.9685 14.5667 12.8504C14.6452 12.7323 14.7532 12.6368 14.88 12.5733C15.9406 12.0433 17.1547 11.9063 18.3067 12.1867C19.2643 12.4429 20.1264 12.9729 20.7872 13.7119C21.4479 14.4508 21.8787 15.3665 22.0267 16.3467C22.1383 17.0213 22.1065 17.7118 21.9334 18.3733C24.5378 20.96 27.1334 23.5556 29.72 26.16C30.8192 25.8834 31.9789 25.9763 33.02 26.4246C34.0611 26.8728 34.9256 27.6514 35.48 28.64C35.8341 29.311 36.029 30.0544 36.0498 30.8127C36.0706 31.571 35.9167 32.324 35.6 33.0133C35.5456 33.1278 35.4656 33.2282 35.3662 33.3068C35.2668 33.3854 35.1506 33.4401 35.0267 33.4667C34.9036 33.4911 34.7764 33.4857 34.6558 33.4509C34.5351 33.4161 34.4246 33.3529 34.3334 33.2667L33.88 32.8667L32.84 31.8933L32.2134 31.3067L31.4267 30.5333C31.3043 30.4627 31.1623 30.4336 31.022 30.4504C30.8817 30.4673 30.7507 30.5292 30.6485 30.6268C30.5464 30.7245 30.4786 30.8526 30.4555 30.992C30.4323 31.1314 30.455 31.2746 30.52 31.4C30.8267 31.76 31.16 32.0933 31.5067 32.44L33.3334 34.2533C33.4196 34.3477 33.4835 34.4601 33.5204 34.5824C33.5573 34.7047 33.5663 34.8338 33.5467 34.96C33.5234 35.0851 33.4716 35.2031 33.3953 35.3048C33.319 35.4066 33.2202 35.4893 33.1067 35.5467C32.515 35.8171 31.8767 35.971 31.2267 36H31.04ZM18.56 20.2C18.7086 20.2041 18.8549 20.2381 18.99 20.3C19.1252 20.3618 19.2465 20.4503 19.3467 20.56L27.4534 28.64C27.6206 28.7909 27.7391 28.9881 27.7937 29.2066C27.8483 29.4251 27.8366 29.6549 27.76 29.8667C27.5008 30.6 27.5008 31.4 27.76 32.1333C28.0166 32.8131 28.4803 33.3951 29.0857 33.7971C29.691 34.199 30.4073 34.4006 31.1334 34.3733H31.2L30.32 33.4667C29.9467 33.1067 29.5867 32.7467 29.2534 32.36C28.9189 31.9237 28.7566 31.3796 28.7973 30.8313C28.838 30.283 29.079 29.7688 29.4743 29.3867C29.8696 29.0046 30.3916 28.7812 30.941 28.7591C31.4903 28.7369 32.0286 28.9176 32.4534 29.2667C32.7467 29.5333 33.0267 29.8133 33.2934 30.0933L33.88 30.68L34.3867 31.16C34.433 30.5183 34.2991 29.8764 34 29.3067C33.606 28.6315 33.0013 28.1041 32.2788 27.8055C31.5563 27.5069 30.7558 27.4534 30 27.6533C29.7939 27.74 29.5664 27.7621 29.3474 27.7169C29.1284 27.6717 28.9283 27.5612 28.7734 27.4C26.0534 24.6711 23.3289 21.9733 20.6 19.3067C20.4476 19.1659 20.3408 18.9828 20.2933 18.7808C20.2457 18.5789 20.2597 18.3673 20.3334 18.1733C20.4985 17.6612 20.5352 17.1163 20.44 16.5867C20.3412 15.9218 20.0518 15.2997 19.607 14.7957C19.1621 14.2918 18.5809 13.9274 17.9334 13.7467C17.5722 13.6544 17.1974 13.6273 16.8267 13.6667L18.48 15.28L18.8 15.6267C19.0797 15.9698 19.2465 16.391 19.2775 16.8325C19.3086 17.2741 19.2023 17.7145 18.9734 18.0933C18.7956 18.4051 18.5476 18.6711 18.249 18.8701C17.9504 19.0692 17.6095 19.1959 17.2534 19.24C16.9043 19.2821 16.5502 19.2399 16.2208 19.1169C15.8913 18.994 15.5962 18.7939 15.36 18.5333L13.6534 16.76C13.6204 17.3205 13.7246 17.8806 13.957 18.3917C14.1893 18.9029 14.5427 19.3496 14.9867 19.6933C15.4401 20.0488 15.9742 20.2871 16.5416 20.3871C17.1091 20.4871 17.6924 20.4457 18.24 20.2667C18.3425 20.2277 18.4505 20.2052 18.56 20.2Z" fill="#FF6961"/>
</g>
</g>
<defs>
<clipPath id="clip0_54_3954">
<rect width="48" height="47.8965" fill="white"/>
</clipPath>
<clipPath id="clip1_54_3954">
<rect width="32" height="32" fill="white" transform="translate(8 8)"/>
</clipPath>
</defs>
</svg>
