<svg width="48" height="48" viewBox="0 0 48 48" fill="none" xmlns="http://www.w3.org/2000/svg">
<g clip-path="url(#clip0_54_3968)">
<path d="M0 23.9483C0 19.2118 1.40758 14.5816 4.04473 10.6433C6.68188 6.70506 10.4302 3.63555 14.8156 1.82296C19.201 0.0103765 24.0266 -0.463879 28.6822 0.46017C33.3377 1.38422 37.6141 3.66507 40.9706 7.0143C44.327 10.3635 46.6128 14.6307 47.5388 19.2762C48.4649 23.9217 47.9896 28.7369 46.1731 33.1129C44.3566 37.4889 41.2805 41.2291 37.3337 43.8605C33.3869 46.492 28.7468 47.8966 24 47.8966C17.6348 47.8966 11.5303 45.3734 7.02944 40.8823C2.52856 36.3911 0 30.2998 0 23.9483H0Z" fill="#1B4A52"/>
<g clip-path="url(#clip1_54_3968)">
<path d="M35.4934 35.2533H18.4667C18.3277 35.2535 18.191 35.218 18.0697 35.1503C17.9483 35.0826 17.8463 34.985 17.7734 34.8667C17.708 34.7435 17.6738 34.6061 17.6738 34.4667C17.6738 34.3272 17.708 34.1899 17.7734 34.0667L22.7467 24.8C22.8482 24.615 23.0186 24.4776 23.2209 24.4177C23.4231 24.3578 23.6409 24.3802 23.8267 24.48C23.9207 24.5277 24.0042 24.5939 24.0721 24.6745C24.14 24.7552 24.1911 24.8486 24.2222 24.9494C24.2533 25.0501 24.2638 25.1561 24.2531 25.261C24.2424 25.3659 24.2108 25.4676 24.1601 25.56L19.8001 33.6667H34.1601L29.7467 25.5333C29.6473 25.3439 29.6266 25.1229 29.6889 24.9182C29.7513 24.7136 29.8919 24.5418 30.0801 24.44C30.1725 24.3893 30.2742 24.3576 30.3791 24.3469C30.4839 24.3363 30.5899 24.3468 30.6907 24.3779C30.7914 24.409 30.8849 24.46 30.9655 24.5279C31.0462 24.5959 31.1123 24.6793 31.1601 24.7733L36.2001 34.1067C36.2676 34.2289 36.3019 34.3668 36.2996 34.5064C36.2973 34.6461 36.2585 34.7827 36.1871 34.9027C36.1156 35.0227 36.014 35.1219 35.8923 35.1904C35.7706 35.259 35.6331 35.2944 35.4934 35.2933V35.2533Z" fill="white"/>
<path d="M15.3867 35.2533H12.72C12.6004 35.266 12.4797 35.266 12.36 35.2533C12.2376 35.2126 12.126 35.1446 12.0336 35.0546C11.9412 34.9645 11.8705 34.8547 11.8267 34.7333C11.7618 34.6066 11.7303 34.4655 11.7349 34.3232C11.7396 34.1809 11.7804 34.0422 11.8533 33.92L12.5467 34.2L12 33.8133L19.0533 22.2666C19.1279 22.1547 19.2263 22.0607 19.3416 21.9916C19.4569 21.9224 19.5862 21.8797 19.72 21.8666C19.8521 21.8552 19.9848 21.8773 20.1061 21.9309C20.2273 21.9846 20.333 22.0679 20.4133 22.1733L20.5867 22.4133L20.9467 23C21.2533 23.52 21.5733 24.04 21.8933 24.5466C21.9497 24.6358 21.9879 24.7353 22.0057 24.8393C22.0235 24.9433 22.0206 25.0498 21.997 25.1527C21.9735 25.2556 21.9298 25.3528 21.8685 25.4387C21.8073 25.5246 21.7296 25.5975 21.64 25.6533C21.4589 25.7637 21.2419 25.799 21.0352 25.7517C20.8284 25.7043 20.6484 25.5781 20.5333 25.4L19.7733 24.1466L13.92 33.6666H16.2933C16.5055 33.6666 16.709 33.7509 16.859 33.901C17.0091 34.051 17.0933 34.2545 17.0933 34.4666C17.0933 34.6788 17.0091 34.8823 16.859 35.0323C16.709 35.1824 16.5055 35.2666 16.2933 35.2666L15.3867 35.2533Z" fill="white"/>
<path d="M26.9467 20.2933C26.7345 20.2933 26.531 20.2091 26.381 20.059C26.231 19.909 26.1467 19.7055 26.1467 19.4934V16.7067C26.0063 16.8288 25.8261 16.8952 25.64 16.8934H22.9733C22.7612 16.8934 22.5577 16.8091 22.4077 16.659C22.2576 16.509 22.1733 16.3055 22.1733 16.0934V12.1734C22.1733 11.9612 22.2576 11.7577 22.4077 11.6077C22.5577 11.4576 22.7612 11.3734 22.9733 11.3734H26.88C27.0922 11.3734 27.2957 11.4576 27.4457 11.6077C27.5957 11.7577 27.68 11.9612 27.68 12.1734V19.4934C27.6818 19.5978 27.6627 19.7015 27.624 19.7985C27.5853 19.8955 27.5276 19.9838 27.4544 20.0582C27.3811 20.1327 27.2938 20.1919 27.1975 20.2322C27.1012 20.2726 26.9978 20.2934 26.8933 20.2933H26.9467ZM23.84 15.2534H25.64C25.8234 15.2533 26.0017 15.3143 26.1467 15.4267V12.9734H23.84V15.2534Z" fill="#FF6961"/>
<path d="M28.2667 25.84C28.1585 25.8418 28.0511 25.8202 27.9521 25.7764C27.8531 25.7327 27.7648 25.6679 27.6933 25.5867L26.96 24.8267L26.3333 25.48C26.1809 25.6333 25.9828 25.733 25.7689 25.7643C25.5549 25.7955 25.3366 25.7566 25.1467 25.6533C24.7333 25.4133 24.3467 25.16 23.9333 24.8933L23.6533 24.7067C23.4866 24.6017 23.3645 24.4389 23.3103 24.2494C23.2562 24.06 23.2739 23.8572 23.36 23.68L24.0667 22.3467L25.4933 19.68C25.5641 19.5548 25.6667 19.4506 25.7909 19.3779C25.915 19.3053 26.0562 19.2669 26.2 19.2667H27.72C27.8638 19.2663 28.0049 19.306 28.1274 19.3814C28.2498 19.4568 28.3489 19.5648 28.4133 19.6933L30.1467 22.8933L30.4933 23.5467C30.5888 23.729 30.6184 23.9387 30.5771 24.1404C30.5358 24.342 30.4262 24.5232 30.2667 24.6533L28.72 25.6933C28.5877 25.7879 28.4293 25.8391 28.2667 25.84ZM25.1333 23.76L25.52 24.0133L25.9067 23.6L26.3867 23.1067C26.4587 23.0261 26.5471 22.9618 26.646 22.9181C26.7449 22.8745 26.8519 22.8524 26.96 22.8533C27.0698 22.8538 27.1784 22.8764 27.2793 22.92C27.3801 22.9635 27.471 23.027 27.5467 23.1067L28.3867 24L28.7733 23.7333C28.2667 22.8133 27.76 21.88 27.2667 20.9467H26.6667L25.1333 23.76Z" fill="white"/>
<path d="M23.0134 19.2533H16.5334C16.3742 19.253 16.219 19.2044 16.088 19.1139C15.9571 19.0234 15.8567 18.8954 15.8001 18.7467C15.7489 18.6044 15.7407 18.4503 15.7762 18.3034C15.8117 18.1565 15.8896 18.0232 16.0001 17.92L18.0001 15.9333L16.0001 13.92C15.8727 13.7898 15.7919 13.6212 15.7702 13.4404C15.7485 13.2596 15.7871 13.0766 15.8801 12.92C15.9601 12.7992 16.0664 12.698 16.1911 12.6241C16.3158 12.5502 16.4556 12.5055 16.6001 12.4933H21.7601C21.9722 12.4933 22.1757 12.5776 22.3257 12.7277C22.4758 12.8777 22.5601 13.0812 22.5601 13.2933C22.5601 13.5055 22.4758 13.709 22.3257 13.859C22.1757 14.0091 21.9722 14.0933 21.7601 14.0933H18.3867L19.7201 15.4267C19.7958 15.5011 19.8551 15.5906 19.8941 15.6893C19.9332 15.7881 19.9511 15.8939 19.9467 16C19.9459 16.2089 19.8647 16.4094 19.7201 16.56L18.5201 17.7467H22.2534V16.0933C22.2534 15.8812 22.3377 15.6777 22.4877 15.5277C22.6377 15.3776 22.8412 15.2933 23.0534 15.2933C23.2656 15.2933 23.469 15.3776 23.6191 15.5277C23.7691 15.6777 23.8534 15.8812 23.8534 16.0933V18.44C23.8554 18.5496 23.8348 18.6585 23.7929 18.7598C23.751 18.8612 23.6888 18.9528 23.61 19.0291C23.5312 19.1054 23.4376 19.1646 23.335 19.2032C23.2324 19.2418 23.1229 19.2588 23.0134 19.2533Z" fill="#FF6961"/>
</g>
</g>
<defs>
<clipPath id="clip0_54_3968">
<rect width="48" height="47.8965" fill="white"/>
</clipPath>
<clipPath id="clip1_54_3968">
<rect width="32" height="32" fill="white" transform="translate(8 8)"/>
</clipPath>
</defs>
</svg>
