<svg width="24" height="24" viewBox="0 0 24 24" fill="none" xmlns="http://www.w3.org/2000/svg">
<g clip-path="url(#clip0_2077_14696)">
<path d="M4.6399 20.2101C4.13138 20.223 3.6345 20.0568 3.23604 19.7406C2.83759 19.4244 2.56288 18.9783 2.4599 18.4801C2.45043 18.4104 2.45043 18.3398 2.4599 18.2701V14.9101C2.44957 14.8539 2.44957 14.7963 2.4599 14.7401V14.5201C2.51328 14.3049 2.5835 14.0943 2.6699 13.8901C2.89521 13.3577 3.26629 12.8997 3.74041 12.5689C4.21453 12.2381 4.77243 12.0478 5.3499 12.0201C5.7199 12.0201 6.0899 12.0201 6.4599 12.0201H6.9999C7.08983 12.0185 7.17893 12.0375 7.26039 12.0757C7.34184 12.1138 7.41351 12.17 7.4699 12.2401C7.528 12.312 7.56899 12.3962 7.58978 12.4863C7.61057 12.5764 7.61061 12.67 7.5899 12.7601C7.56517 12.9218 7.48041 13.0682 7.35252 13.1701C7.22463 13.2721 7.06301 13.3221 6.8999 13.3101C6.80339 13.2981 6.71097 13.2638 6.6299 13.2101H6.4799C6.1399 13.2101 5.8099 13.2101 5.4799 13.2101C5.11448 13.2236 4.76092 13.3433 4.46253 13.5547C4.16414 13.7661 3.93386 14.0599 3.7999 14.4001C3.74195 14.5317 3.69837 14.6692 3.6699 14.8101C3.6699 14.8701 3.6699 14.9301 3.6699 14.9901V18.1101C3.70386 18.3504 3.82403 18.5701 4.00802 18.7283C4.192 18.8866 4.42725 18.9725 4.6699 18.9701H6.8399C6.99903 18.9701 7.15164 19.0333 7.26416 19.1458C7.37668 19.2584 7.4399 19.411 7.4399 19.5701C7.4399 19.7292 7.37668 19.8819 7.26416 19.9944C7.15164 20.1069 6.99903 20.1701 6.8399 20.1701H4.6399V20.2101Z" fill="#1B4A52"/>
<path d="M18.5299 20.21H16.9999C16.9122 20.1901 16.83 20.1512 16.7591 20.0959C16.6882 20.0405 16.6304 19.9702 16.5899 19.89C16.5419 19.7871 16.523 19.673 16.5353 19.5602C16.5477 19.4473 16.5908 19.34 16.6599 19.25C16.7243 19.1715 16.8078 19.1109 16.9024 19.0741C16.997 19.0373 17.0994 19.0256 17.1999 19.04H19.3799C19.509 19.0417 19.637 19.0166 19.7559 18.9661C19.8747 18.9157 19.9818 18.8411 20.0702 18.747C20.1586 18.653 20.2265 18.5415 20.2695 18.4198C20.3125 18.2981 20.3296 18.1687 20.3199 18.04C20.3199 16.96 20.3199 16.04 20.3199 15.13C20.3184 14.7672 20.213 14.4125 20.0164 14.1077C19.8197 13.8029 19.5398 13.5608 19.2099 13.41C18.7288 13.2137 18.2062 13.1415 17.6899 13.2H17.2799L17.1699 13.25C17.0958 13.2767 17.0171 13.2882 16.9384 13.284C16.8597 13.2797 16.7827 13.2598 16.7119 13.2253C16.641 13.1908 16.5778 13.1425 16.5259 13.0832C16.4741 13.0239 16.4346 12.9548 16.4099 12.88C16.3946 12.7873 16.3946 12.6927 16.4099 12.6C16.4125 12.5185 16.4311 12.4384 16.4647 12.3642C16.4982 12.2899 16.5461 12.223 16.6056 12.1673C16.665 12.1116 16.7348 12.0681 16.8111 12.0394C16.8873 12.0107 16.9685 11.9973 17.0499 12H17.7099C18.4285 11.9302 19.1528 12.0509 19.8099 12.35C20.3274 12.5989 20.7653 12.9872 21.0744 13.4712C21.3835 13.9552 21.5516 14.5157 21.5599 15.09C21.5599 16.09 21.5599 17.19 21.5599 18.09C21.5626 18.6532 21.3421 19.1945 20.9467 19.5955C20.5512 19.9966 20.0131 20.2247 19.4499 20.23L18.5299 20.21Z" fill="#1B4A52"/>
<path d="M6.52012 12.5499C5.75031 12.5322 5.01679 12.2192 4.47138 11.6757C3.92597 11.1321 3.61045 10.3997 3.59012 9.62994C3.58841 9.24741 3.66266 8.86834 3.80857 8.51472C3.95449 8.1611 4.16915 7.83997 4.44012 7.56994C4.99235 7.01686 5.73862 6.70113 6.52012 6.68994C7.2895 6.6951 8.02621 7.00167 8.57213 7.54385C9.11804 8.08603 9.42967 8.82061 9.44012 9.58994C9.44807 9.97937 9.37857 10.3665 9.23564 10.7288C9.09271 11.0912 8.8792 11.4215 8.60753 11.7006C8.33585 11.9797 8.01141 12.2021 7.65307 12.3548C7.29473 12.5074 6.90962 12.5874 6.52012 12.5899V12.5499ZM6.52012 7.88994C6.0621 7.89257 5.62359 8.07568 5.29972 8.39955C4.97585 8.72342 4.79274 9.16193 4.79012 9.61994C4.80283 10.0765 4.99054 10.5106 5.31441 10.8326C5.63828 11.1547 6.07352 11.3399 6.53012 11.3499C6.98894 11.3499 7.42897 11.1677 7.75341 10.8432C8.07785 10.5188 8.26012 10.0788 8.26012 9.61994C8.26012 9.16112 8.07785 8.72109 7.75341 8.39665C7.42897 8.07221 6.98894 7.88994 6.53012 7.88994H6.52012Z" fill="#1B4A52"/>
<path d="M17.4499 12.5499C16.678 12.5447 15.9394 12.235 15.3945 11.6883C14.8496 11.1415 14.5425 10.4018 14.5399 9.62994C14.534 9.24772 14.6054 8.86825 14.7498 8.51427C14.8941 8.1603 15.1084 7.8391 15.3799 7.56994C15.6501 7.2916 15.9734 7.07029 16.3307 6.91914C16.688 6.76798 17.0719 6.69004 17.4599 6.68994C18.2335 6.69258 18.9747 7.00107 19.5217 7.5481C20.0688 8.09514 20.3772 8.83632 20.3799 9.60994C20.3825 10.3853 20.0778 11.1301 19.5323 11.6812C18.9869 12.2323 18.2452 12.5447 17.4699 12.5499H17.4499ZM17.4499 7.88994C16.9911 7.88994 16.551 8.07221 16.2266 8.39665C15.9021 8.72109 15.7199 9.16112 15.7199 9.61994C15.7199 10.0788 15.9021 10.5188 16.2266 10.8432C16.551 11.1677 16.9911 11.3499 17.4499 11.3499C17.9071 11.3447 18.3441 11.1608 18.6674 10.8375C18.9907 10.5142 19.1747 10.0772 19.1799 9.61994C19.1748 9.16613 18.9936 8.73204 18.6746 8.40927C18.3556 8.08649 17.9236 7.90029 17.4699 7.88994H17.4499Z" fill="#1B4A52"/>
<path d="M12 20.2099H8.44997C8.28459 20.2254 8.11786 20.2041 7.96162 20.1478C7.80539 20.0914 7.6635 20.0013 7.54606 19.8838C7.42861 19.7664 7.3385 19.6245 7.28214 19.4683C7.22578 19.312 7.20455 19.1453 7.21997 18.9799V13.8799C7.20609 13.1489 7.44694 12.4358 7.90125 11.8629C8.35555 11.29 8.995 10.893 9.70997 10.7399C9.94273 10.6858 10.181 10.659 10.42 10.6599H13.58C14.3063 10.6573 15.0115 10.9041 15.5777 11.3592C16.1438 11.8143 16.5365 12.45 16.69 13.1599C16.7456 13.4094 16.7725 13.6644 16.77 13.9199V18.9999C16.7836 19.1623 16.7617 19.3257 16.7057 19.4787C16.6498 19.6317 16.5611 19.7706 16.4459 19.8858C16.3307 20.001 16.1917 20.0897 16.0387 20.1457C15.8857 20.2017 15.7223 20.2236 15.56 20.2099H12ZM8.42997 19.0099H15.57V13.9199C15.5719 13.7552 15.5552 13.5908 15.52 13.4299C15.4221 12.9854 15.1755 12.5876 14.821 12.3021C14.4664 12.0166 14.0251 11.8607 13.57 11.8599C12.5166 11.8599 11.4666 11.8599 10.42 11.8599C10.2771 11.8429 10.1328 11.8429 9.98997 11.8599C9.53134 11.9485 9.12006 12.1995 8.83164 12.5669C8.54323 12.9343 8.39705 13.3934 8.41997 13.8599V18.9899L8.42997 19.0099Z" fill="#FF6961"/>
<path d="M12 11.22C11.0116 11.2148 10.0654 10.8184 9.36837 10.1176C8.6713 9.41676 8.28002 8.46849 8.28003 7.48004C8.28794 6.49864 8.68336 5.56013 9.38014 4.86897C10.0769 4.17781 11.0186 3.79001 12 3.79004C12.952 3.83944 13.8486 4.2524 14.505 4.94368C15.1613 5.63496 15.5272 6.55181 15.5272 7.50504C15.5272 8.45827 15.1613 9.37512 14.505 10.0664C13.8486 10.7577 12.952 11.1706 12 11.22ZM12 4.99004C11.3361 4.98737 10.6981 5.2479 10.2258 5.71458C9.75346 6.18127 9.48531 6.81608 9.48003 7.48004C9.47517 7.81543 9.53922 8.14825 9.66823 8.45787C9.79724 8.76749 9.98846 9.04733 10.23 9.28004C10.4587 9.51799 10.7338 9.70646 11.0382 9.83375C11.3427 9.96104 11.6701 10.0244 12 10.02C12.6685 10.0121 13.3068 9.74105 13.7767 9.26556C14.2466 8.79007 14.5101 8.14852 14.51 7.48004C14.5048 6.81782 14.238 6.18451 13.7678 5.71811C13.2977 5.25171 12.6623 4.99002 12 4.99004Z" fill="#FF6961"/>
</g>
<defs>
<clipPath id="clip0_2077_14696">
<rect width="24" height="24" fill="white"/>
</clipPath>
</defs>
</svg>
