<svg width="157" height="41" viewBox="0 0 157 41" fill="none" xmlns="http://www.w3.org/2000/svg">
<g clip-path="url(#clip0_15_9137)">
<path d="M93.1415 17.5706H97.2821V32.2135H93.1415V30.3099C91.6627 32.5063 89.7402 32.6528 88.5572 32.6528C83.9729 32.6528 81.0153 29.1385 81.0153 24.8921C81.0153 20.4992 83.9729 17.1313 88.2614 17.1313C89.4445 17.1313 91.6627 17.2778 92.9936 19.4742V17.5706H93.1415ZM85.4517 24.8921C85.4517 27.2349 87.0784 28.9921 89.5923 28.9921C91.9584 28.9921 93.733 27.2349 93.733 24.8921C93.733 22.5492 92.1063 20.7921 89.5923 20.7921C87.2262 20.7921 85.4517 22.5492 85.4517 24.8921Z" fill="black"/>
<path d="M105.415 21.0866V32.2152H101.274V21.0866H99.6476V17.5723H101.274V12.5938H105.415V17.5723H108.225V21.0866H105.415Z" fill="black"/>
<path d="M117.985 21.0849C116.95 20.2063 116.063 20.0599 115.619 20.0599C114.584 20.0599 113.992 20.4992 113.992 21.2313C113.992 21.6706 114.14 22.1099 115.323 22.5492L116.359 22.8421C117.542 23.2813 119.316 23.7206 120.056 24.8921C120.499 25.4778 120.795 26.3563 120.795 27.3813C120.795 28.6992 120.351 30.0171 119.168 31.0421C117.985 32.0671 116.506 32.6528 114.732 32.6528C111.626 32.6528 110 31.1885 108.964 30.1635L111.183 27.6742C112.07 28.5528 113.253 29.4313 114.436 29.4313C115.619 29.4313 116.506 28.8456 116.506 27.8206C116.506 26.9421 115.767 26.5028 115.175 26.3563L114.288 26.0635C113.253 25.6242 112.07 25.1849 111.183 24.3063C110.443 23.5742 110 22.6956 110 21.5242C110 20.0599 110.739 18.8885 111.478 18.1563C112.661 17.2778 114.14 17.1313 115.323 17.1313C116.359 17.1313 118.133 17.2778 120.056 18.7421L117.985 21.0849Z" fill="black"/>
<path d="M127.006 19.4735C128.485 17.4235 130.555 17.1306 131.738 17.1306C136.026 17.1306 138.984 20.4985 138.984 24.8914C138.984 29.2842 136.026 32.6521 131.59 32.6521C130.703 32.6521 128.485 32.5056 126.858 30.3092V32.2128H122.865V7.61279H127.006V19.4735ZM126.562 24.8914C126.562 27.2342 128.189 28.9914 130.703 28.9914C133.069 28.9914 134.843 27.2342 134.843 24.8914C134.843 22.5485 133.217 20.7914 130.703 20.7914C128.189 20.7914 126.562 22.5485 126.562 24.8914Z" fill="black"/>
<path d="M145.786 30.0155L138.688 17.5691H143.568L148.152 25.9155L152.293 17.5691H157.025L145.194 39.9727H140.462L145.786 30.0155Z" fill="black"/>
<path d="M79.9797 20.0554H75.839H69.6281V24.1554H75.0996C74.2124 26.9376 72.142 28.8412 68.2971 28.8412C64.0086 28.8412 60.9031 25.3269 60.9031 21.0804C60.9031 16.834 63.8607 13.1733 68.1492 13.1733C70.5153 13.1733 72.8814 14.3447 74.3602 16.2483L77.7615 14.0519C75.5433 10.9769 71.9941 9.21973 68.1492 9.21973C61.6425 9.21973 56.3188 14.4912 56.3188 21.0804C56.3188 27.6697 61.3467 32.9412 68.1492 32.9412C74.9518 32.9412 79.9797 27.6697 79.9797 21.0804C80.1276 20.6412 79.9797 20.3483 79.9797 20.0554Z" fill="black"/>
<path d="M37.0929 20.5007H26.7413V23.4293H33.8395C32.8044 27.8221 29.551 31.4828 25.2625 32.9471L8.25618 16.1078C10.0308 10.9828 15.0587 7.32213 20.826 7.32213C25.2625 7.32213 29.2552 9.51856 31.7692 12.8864L33.9874 10.9828C31.0298 7.02927 26.2976 4.39355 20.826 4.39355C13.1362 4.39355 6.6295 9.81141 5.00281 16.9864L24.5231 36.315C31.6213 34.5578 37.0929 28.115 37.0929 20.5007Z" fill="white"/>
<path d="M4.55872 20.6494C4.55872 24.7494 6.1854 28.703 9.2909 31.778C12.3964 34.853 16.5371 36.4637 20.5298 36.4637L4.55872 20.6494Z" fill="white"/>
<path d="M20.8263 0C9.43947 0 0.122986 9.225 0.122986 20.5C0.122986 31.775 9.43947 41 20.8263 41C32.2131 41 41.5296 31.775 41.5296 20.5C41.5296 9.225 32.2131 0 20.8263 0ZM9.29159 31.9214C6.18609 28.8464 4.55941 24.7464 4.55941 20.7929L20.6784 36.6071C16.5377 36.4607 12.3971 34.9964 9.29159 31.9214ZM24.3754 36.1679L5.00305 16.9857C6.62974 9.81071 13.1365 4.39286 20.8263 4.39286C26.2979 4.39286 31.03 7.02857 33.9877 10.9821L31.7695 12.8857C29.2555 9.51786 25.2627 7.32143 20.8263 7.32143C15.0589 7.32143 10.1789 10.9821 8.25642 16.1071L25.2627 32.9464C29.5512 31.4821 32.8046 27.8214 33.8398 23.4286H26.7415V20.5H37.0932C37.0932 28.1143 31.6216 34.5571 24.3754 36.1679Z" fill="#663399"/>
</g>
<defs>
<clipPath id="clip0_15_9137">
<rect width="157" height="41" fill="white"/>
</clipPath>
</defs>
</svg>
