<svg width="278" height="168" viewBox="0 0 278 168" fill="none" xmlns="http://www.w3.org/2000/svg">
<rect x="0.5" y="0.5" width="277" height="167" rx="23.5" fill="white" stroke="#B1CBCF"/>
<g clip-path="url(#clip0_15_9135)">
<path d="M154.141 80.5706H158.282V95.2135H154.141V93.3099C152.663 95.5063 150.74 95.6528 149.557 95.6528C144.973 95.6528 142.015 92.1385 142.015 87.8921C142.015 83.4992 144.973 80.1313 149.261 80.1313C150.444 80.1313 152.663 80.2778 153.994 82.4742V80.5706H154.141ZM146.452 87.8921C146.452 90.2349 148.078 91.9921 150.592 91.9921C152.958 91.9921 154.733 90.2349 154.733 87.8921C154.733 85.5492 153.106 83.7921 150.592 83.7921C148.226 83.7921 146.452 85.5492 146.452 87.8921Z" fill="black"/>
<path d="M166.415 84.0866V95.2152H162.274V84.0866H160.648V80.5723H162.274V75.5938H166.415V80.5723H169.225V84.0866H166.415Z" fill="black"/>
<path d="M178.985 84.0849C177.95 83.2063 177.063 83.0599 176.619 83.0599C175.584 83.0599 174.992 83.4992 174.992 84.2313C174.992 84.6706 175.14 85.1099 176.323 85.5492L177.359 85.8421C178.542 86.2813 180.316 86.7206 181.056 87.8921C181.499 88.4778 181.795 89.3563 181.795 90.3813C181.795 91.6992 181.351 93.0171 180.168 94.0421C178.985 95.0671 177.506 95.6528 175.732 95.6528C172.626 95.6528 171 94.1885 169.964 93.1635L172.183 90.6742C173.07 91.5528 174.253 92.4313 175.436 92.4313C176.619 92.4313 177.506 91.8456 177.506 90.8206C177.506 89.9421 176.767 89.5028 176.175 89.3563L175.288 89.0635C174.253 88.6242 173.07 88.1849 172.183 87.3063C171.443 86.5742 171 85.6956 171 84.5242C171 83.0599 171.739 81.8885 172.478 81.1563C173.662 80.2778 175.14 80.1313 176.323 80.1313C177.359 80.1313 179.133 80.2778 181.056 81.7421L178.985 84.0849Z" fill="black"/>
<path d="M188.006 82.4735C189.485 80.4235 191.555 80.1306 192.738 80.1306C197.026 80.1306 199.984 83.4985 199.984 87.8914C199.984 92.2842 197.026 95.6521 192.59 95.6521C191.703 95.6521 189.485 95.5056 187.858 93.3092V95.2128H183.865V70.6128H188.006V82.4735ZM187.562 87.8914C187.562 90.2342 189.189 91.9914 191.703 91.9914C194.069 91.9914 195.843 90.2342 195.843 87.8914C195.843 85.5485 194.217 83.7914 191.703 83.7914C189.189 83.7914 187.562 85.5485 187.562 87.8914Z" fill="black"/>
<path d="M206.786 93.0155L199.688 80.5691H204.568L209.152 88.9155L213.293 80.5691H218.025L206.194 102.973H201.462L206.786 93.0155Z" fill="black"/>
<path d="M140.98 83.0554H136.839H130.628V87.1554H136.1C135.212 89.9376 133.142 91.8412 129.297 91.8412C125.009 91.8412 121.903 88.3269 121.903 84.0804C121.903 79.834 124.861 76.1733 129.149 76.1733C131.515 76.1733 133.881 77.3447 135.36 79.2483L138.761 77.0519C136.543 73.9769 132.994 72.2197 129.149 72.2197C122.642 72.2197 117.319 77.4912 117.319 84.0804C117.319 90.6697 122.347 95.9412 129.149 95.9412C135.952 95.9412 140.98 90.6697 140.98 84.0804C141.128 83.6412 140.98 83.3483 140.98 83.0554Z" fill="black"/>
<path d="M98.0929 83.5007H87.7413V86.4293H94.8396C93.8044 90.8221 90.551 94.4828 86.2625 95.9471L69.2562 79.1078C71.0308 73.9828 76.0587 70.3221 81.8261 70.3221C86.2625 70.3221 90.2553 72.5186 92.7692 75.8864L94.9875 73.9828C92.0298 70.0293 87.2977 67.3936 81.8261 67.3936C74.1363 67.3936 67.6295 72.8114 66.0028 79.9864L85.5231 99.315C92.6214 97.5578 98.0929 91.115 98.0929 83.5007Z" fill="white"/>
<path d="M65.5587 83.6494C65.5587 87.7494 67.1854 91.703 70.2909 94.778C73.3964 97.853 77.5371 99.4637 81.5299 99.4637L65.5587 83.6494Z" fill="white"/>
<path d="M81.8263 63C70.4395 63 61.123 72.225 61.123 83.5C61.123 94.775 70.4395 104 81.8263 104C93.2131 104 102.53 94.775 102.53 83.5C102.53 72.225 93.2131 63 81.8263 63ZM70.2916 94.9214C67.1861 91.8464 65.5594 87.7464 65.5594 83.7929L81.6784 99.6071C77.5378 99.4607 73.3971 97.9964 70.2916 94.9214ZM85.3754 99.1679L66.0031 79.9857C67.6298 72.8107 74.1365 67.3929 81.8263 67.3929C87.2979 67.3929 92.0301 70.0286 94.9877 73.9821L92.7695 75.8857C90.2555 72.5179 86.2627 70.3214 81.8263 70.3214C76.059 70.3214 71.1789 73.9821 69.2565 79.1071L86.2627 95.9464C90.5513 94.4821 93.8046 90.8214 94.8398 86.4286H87.7415V83.5H98.0932C98.0932 91.1143 92.6216 97.5571 85.3754 99.1679Z" fill="#663399"/>
</g>
<defs>
<clipPath id="clip0_15_9135">
<rect width="157" height="41" fill="white" transform="translate(61 63)"/>
</clipPath>
</defs>
</svg>
