<svg width="42" height="42" viewBox="0 0 42 42" fill="none" xmlns="http://www.w3.org/2000/svg">
<path d="M24.5 38.1505C20.787 38.1505 17.226 36.6755 14.6005 34.05C11.975 31.4245 10.5 27.8635 10.5 24.1505C10.5045 22.9095 10.6692 21.6743 10.99 20.4755C11.0109 20.3283 11.0629 20.1872 11.1424 20.0615C11.2219 19.9359 11.3272 19.8286 11.4513 19.7467C11.5755 19.6648 11.7155 19.6102 11.8623 19.5865C12.0091 19.5628 12.1593 19.5706 12.3029 19.6093C12.4464 19.648 12.5801 19.7168 12.6951 19.811C12.8101 19.9053 12.9038 20.0229 12.97 20.1561C13.0361 20.2892 13.0732 20.4349 13.0788 20.5835C13.0844 20.7321 13.0584 20.8802 13.0025 21.018C12.7222 22.0385 12.5809 23.0922 12.5825 24.1505C12.579 26.5083 13.275 28.8141 14.5824 30.7762C15.8899 32.7384 17.7499 34.2686 19.9272 35.1733C22.1046 36.078 24.5013 36.3165 26.8142 35.8586C29.1272 35.4007 31.2523 34.2671 32.9207 32.6011C34.5892 30.9351 35.726 28.8116 36.1872 26.4994C36.6485 24.1872 36.4135 21.79 35.512 19.6114C34.6105 17.4327 33.083 15.5704 31.1228 14.2602C29.1626 12.9499 26.8578 12.2505 24.5 12.2505C24.3629 12.2528 24.2268 12.2278 24.0995 12.177C23.9722 12.1261 23.8563 12.0504 23.7586 11.9543C23.6608 11.8582 23.5832 11.7436 23.5302 11.6172C23.4773 11.4908 23.45 11.355 23.45 11.218C23.45 10.9395 23.5606 10.6724 23.7575 10.4755C23.9545 10.2786 24.2215 10.168 24.5 10.168C28.213 10.168 31.774 11.643 34.3995 14.2685C37.025 16.894 38.5 20.4549 38.5 24.168C38.5 27.881 37.025 31.442 34.3995 34.0675C31.774 36.693 28.213 38.168 24.5 38.168V38.1505Z" fill="#1B4A52"/>
<path d="M36.2252 26.0239H12.7927C12.5397 25.9911 12.3074 25.8673 12.1391 25.6756C11.9708 25.484 11.8779 25.2377 11.8779 24.9827C11.8779 24.7276 11.9708 24.4813 12.1391 24.2897C12.3074 24.0981 12.5397 23.9743 12.7927 23.9414H36.2252C36.4781 23.9743 36.7104 24.0981 36.8787 24.2897C37.047 24.4813 37.1399 24.7276 37.1399 24.9827C37.1399 25.2377 37.047 25.484 36.8787 25.6756C36.7104 25.8673 36.4781 25.9911 36.2252 26.0239Z" fill="#1B4A52"/>
<path d="M24.4995 38.1484C21.122 38.1484 19.582 30.9034 19.582 24.1484C19.582 23.1509 19.582 22.1709 19.6695 21.2434C19.6919 20.9664 19.8215 20.7091 20.0306 20.5261C20.2397 20.3431 20.512 20.2489 20.7895 20.2634C21.0619 20.2858 21.3148 20.4135 21.4945 20.6194C21.6742 20.8252 21.7666 21.0931 21.752 21.3659C21.752 22.2584 21.752 23.1159 21.752 24.1484C21.752 32.0059 23.7295 36.0484 24.587 36.0484C25.4445 36.0484 27.4045 32.0059 27.4045 24.1484C27.4045 18.1634 26.197 13.7534 24.9895 12.4934C24.797 12.3009 24.657 12.2309 24.587 12.2309C24.45 12.2333 24.3138 12.2083 24.1865 12.1574C24.0592 12.1066 23.9433 12.0309 23.8456 11.9348C23.7479 11.8387 23.6702 11.7241 23.6173 11.5976C23.5643 11.4712 23.537 11.3355 23.537 11.1984C23.537 11.0605 23.5642 10.924 23.617 10.7966C23.6697 10.6692 23.7471 10.5535 23.8446 10.456C23.9421 10.3585 24.0578 10.2811 24.1852 10.2284C24.3126 10.1756 24.4491 10.1484 24.587 10.1484C24.9481 10.1599 25.3028 10.2468 25.6283 10.4035C25.9538 10.5602 26.2429 10.7833 26.477 11.0584C28.3145 12.9659 29.487 18.0584 29.487 24.1484C29.417 30.9034 27.877 38.1484 24.4995 38.1484Z" fill="#1B4A52"/>
<path d="M16.8875 19.6858C16.7158 19.6859 16.5466 19.6446 16.3943 19.5654C16.242 19.4862 16.111 19.3714 16.0125 19.2308C15.4525 18.3908 10.5 10.9883 10.5 7.80328C10.5856 6.16931 11.295 4.6305 12.4819 3.5042C13.6687 2.3779 15.2425 1.75 16.8788 1.75C18.515 1.75 20.0888 2.3779 21.2756 3.5042C22.4625 4.6305 23.1719 6.16931 23.2575 7.80328C23.2575 10.9883 18.3225 18.3908 17.745 19.2308C17.6503 19.3711 17.5226 19.486 17.3731 19.5653C17.2235 19.6447 17.0568 19.686 16.8875 19.6858ZM16.8875 3.53328C15.7534 3.53327 14.6655 3.98259 13.8619 4.78287C13.0584 5.58315 12.6046 6.6692 12.6 7.80328C12.6 9.55328 14.945 13.7008 16.8875 16.7108C18.8125 13.7008 21.175 9.46578 21.175 7.80328C21.1704 6.6692 20.7166 5.58315 19.913 4.78287C19.1095 3.98259 18.0216 3.53327 16.8875 3.53328Z" fill="#FF6961"/>
<path d="M16.8869 9.9925C16.3746 9.9925 15.8739 9.8406 15.448 9.55601C15.022 9.27141 14.69 8.86691 14.494 8.39365C14.298 7.92039 14.2467 7.39962 14.3466 6.89721C14.4466 6.3948 14.6933 5.93331 15.0555 5.5711C15.4177 5.20888 15.8792 4.9622 16.3816 4.86227C16.884 4.76233 17.4048 4.81362 17.878 5.00965C18.3513 5.20568 18.7558 5.53765 19.0404 5.96357C19.325 6.3895 19.4769 6.89025 19.4769 7.4025C19.4723 8.08799 19.1979 8.74411 18.7132 9.22884C18.2285 9.71357 17.5724 9.98791 16.8869 9.9925ZM16.8869 6.9125C16.79 6.9125 16.6952 6.94124 16.6146 6.99508C16.534 7.04892 16.4713 7.12545 16.4342 7.21498C16.3971 7.30452 16.3874 7.40304 16.4063 7.4981C16.4252 7.59315 16.4719 7.68045 16.5404 7.74898C16.6089 7.81751 16.6962 7.86418 16.7913 7.88308C16.8863 7.90199 16.9848 7.89229 17.0744 7.8552C17.1639 7.81811 17.2405 7.75531 17.2943 7.67473C17.3481 7.59415 17.3769 7.49941 17.3769 7.4025C17.3769 7.27254 17.3253 7.14791 17.2334 7.05602C17.1415 6.96412 17.0168 6.9125 16.8869 6.9125Z" fill="#FF6961"/>
</svg>
