<svg width="131" height="44" viewBox="0 0 131 44" fill="none" xmlns="http://www.w3.org/2000/svg">
<path d="M55.7467 22.5639C55.7467 28.6713 50.9354 33.1717 45.0308 33.1717C39.1261 33.1717 34.3148 28.6713 34.3148 22.5639C34.3148 16.4134 39.1261 11.9561 45.0308 11.9561C50.9354 11.9561 55.7467 16.4134 55.7467 22.5639ZM51.0558 22.5639C51.0558 18.7474 48.2672 16.1361 45.0308 16.1361C41.7943 16.1361 39.0057 18.7474 39.0057 22.5639C39.0057 26.3421 41.7943 28.9917 45.0308 28.9917C48.2672 28.9917 51.0558 26.3374 51.0558 22.5639Z" fill="#EA4335"/>
<path d="M78.8644 22.5639C78.8644 28.6713 74.053 33.1717 68.1484 33.1717C62.2437 33.1717 57.4324 28.6713 57.4324 22.5639C57.4324 16.4182 62.2437 11.9561 68.1484 11.9561C74.053 11.9561 78.8644 16.4134 78.8644 22.5639ZM74.1734 22.5639C74.1734 18.7474 71.3848 16.1361 68.1484 16.1361C64.9119 16.1361 62.1233 18.7474 62.1233 22.5639C62.1233 26.3421 64.9119 28.9917 68.1484 28.9917C71.3848 28.9917 74.1734 26.3374 74.1734 22.5639Z" fill="#FBBC05"/>
<path d="M101.019 12.5969V31.6413C101.019 39.4752 96.3664 42.6748 90.8664 42.6748C85.689 42.6748 82.5729 39.2361 81.3977 36.4239L85.4819 34.7356C86.2091 36.4621 87.9911 38.4995 90.8615 38.4995C94.3822 38.4995 96.5639 36.3426 96.5639 32.2821V30.7565H96.4002C95.3502 32.043 93.3274 33.1669 90.7748 33.1669C85.4337 33.1669 80.5405 28.5469 80.5405 22.6021C80.5405 16.6143 85.4337 11.9561 90.7748 11.9561C93.3226 11.9561 95.3454 13.08 96.4002 14.3282H96.5639V12.6017H101.019V12.5969ZM96.8962 22.6021C96.8962 18.8669 94.387 16.1361 91.1939 16.1361C87.9574 16.1361 85.2459 18.8669 85.2459 22.6021C85.2459 26.2991 87.9574 28.9917 91.1939 28.9917C94.387 28.9917 96.8962 26.2991 96.8962 22.6021Z" fill="#4285F4"/>
<path d="M108.364 1.43408V32.521H103.789V1.43408H108.364Z" fill="#34A853"/>
<path d="M126.193 26.0546L129.834 28.465C128.659 30.1916 125.827 33.1663 120.934 33.1663C114.865 33.1663 110.333 28.5081 110.333 22.5585C110.333 16.2502 114.904 11.9507 120.409 11.9507C125.952 11.9507 128.664 16.3316 129.55 18.6989L130.036 19.9042L115.756 25.7772C116.85 27.9055 118.55 28.9911 120.934 28.9911C123.323 28.9911 124.979 27.8242 126.193 26.0546ZM114.986 22.2381L124.531 18.302C124.006 16.9772 122.427 16.0542 120.568 16.0542C118.184 16.0542 114.865 18.1442 114.986 22.2381Z" fill="#EA4335"/>
<path d="M16.9966 19.8056V15.3052H32.2687C32.418 16.0895 32.4951 17.0173 32.4951 18.0217C32.4951 21.3982 31.5655 25.5734 28.5699 28.5482C25.6561 31.5612 21.9332 33.1682 17.0014 33.1682C7.86032 33.1682 0.173706 25.7743 0.173706 16.6969C0.173706 7.6195 7.86032 0.225586 17.0014 0.225586C22.0584 0.225586 25.6609 2.19602 28.3676 4.76428L25.1697 7.93993C23.2287 6.13211 20.5991 4.72602 16.9966 4.72602C10.3214 4.72602 5.10066 10.0682 5.10066 16.6969C5.10066 23.3256 10.3214 28.6678 16.9966 28.6678C21.3264 28.6678 23.7922 26.9412 25.3719 25.3725C26.653 24.1004 27.4959 22.283 27.8282 19.8008L16.9966 19.8056Z" fill="#4285F4"/>
</svg>
