<svg width="11" height="12" viewBox="0 0 11 12" fill="none" xmlns="http://www.w3.org/2000/svg">
<path d="M5.61218 0.376953C5.78178 0.417764 5.95775 0.441615 6.12046 0.502037C6.97644 0.820045 7.47253 1.43751 7.60874 2.33801C7.62705 2.50908 7.63289 2.68126 7.62623 2.85318C7.62623 2.87544 7.59072 2.91731 7.57323 2.91784C7.38455 2.92261 7.19533 2.91784 6.99022 2.91784V2.63163C6.99022 2.13978 6.81478 1.72266 6.44059 1.40518C5.97842 1.01297 5.44628 0.907497 4.8744 1.11208C4.30251 1.31667 3.95323 1.73697 3.84564 2.33907C3.81278 2.52351 3.8202 2.71485 3.80801 2.91837C3.61508 2.91837 3.41951 2.91837 3.22499 2.91519C3.20909 2.91519 3.18153 2.87438 3.17994 2.85159C3.09673 1.59758 3.87214 0.67058 4.93323 0.426774C5.01856 0.407693 5.10443 0.393384 5.19029 0.376953H5.61218Z" fill="#52787C"/>
<path d="M0.234375 3.54377C0.334548 4.62182 0.744249 5.55412 1.50058 6.32688C2.25691 7.09964 3.18072 7.53001 4.25082 7.64237C4.43739 8.36319 4.83384 8.72042 5.44124 8.7024C5.90765 8.68968 6.44508 8.36319 6.54897 7.64237C7.61747 7.53054 8.54235 7.10229 9.29868 6.33059C10.055 5.55889 10.4647 4.62659 10.5585 3.52734C10.5622 3.583 10.5649 3.61639 10.5665 3.65031C10.5681 3.68423 10.5665 3.72027 10.5665 3.75631C10.5665 5.31985 10.5702 6.8834 10.5665 8.44694C10.5633 9.49213 10.1091 10.2893 9.21176 10.8251C8.81218 11.0591 8.35607 11.179 7.89308 11.1717C6.23149 11.1717 4.56936 11.177 2.90724 11.1717C1.72319 11.167 0.730998 10.4398 0.363168 9.31669C0.276041 9.0453 0.233267 8.76163 0.236495 8.47662C0.236495 6.89188 0.236495 5.30731 0.236495 3.72292L0.234375 3.54377Z" fill="#52787C"/>
<path d="M9.90971 3.56604C9.76502 5.39989 8.26349 6.84047 6.54624 6.99312C6.39625 6.34597 6.01252 5.97496 5.32244 5.98609C5.05539 5.99514 4.80205 6.10653 4.61487 6.29721C4.42259 6.47936 4.3003 6.72319 4.2693 6.98623C2.71053 6.88923 1.05211 5.53293 0.892578 3.56445L9.90971 3.56604Z" fill="#52787C"/>
<path d="M4.89837 7.34155C4.89837 7.2647 4.89413 7.18732 4.89837 7.11046C4.90195 6.97909 4.9566 6.85428 5.05072 6.76255C5.14483 6.67081 5.27099 6.61937 5.40241 6.61914C5.53385 6.61995 5.65977 6.67213 5.75326 6.76453C5.84675 6.85693 5.9004 6.98222 5.90275 7.11364C5.90964 7.26788 5.91017 7.42264 5.90275 7.57688C5.8997 7.70839 5.84531 7.83348 5.75121 7.9254C5.65711 8.01732 5.53078 8.06876 5.39923 8.06873C5.26786 8.06711 5.14225 8.01453 5.0489 7.92207C4.95556 7.82962 4.90178 7.70452 4.8989 7.57317C4.89466 7.49632 4.89837 7.41893 4.89837 7.34155Z" fill="#52787C"/>
</svg>
