<svg width="48" height="48" viewBox="0 0 48 48" fill="none" xmlns="http://www.w3.org/2000/svg">
<path d="M0 23.9483C0 19.2118 1.40758 14.5816 4.04473 10.6433C6.68188 6.70506 10.4302 3.63555 14.8156 1.82296C19.201 0.0103765 24.0266 -0.463879 28.6822 0.46017C33.3377 1.38422 37.6141 3.66507 40.9706 7.0143C44.327 10.3635 46.6128 14.6307 47.5388 19.2762C48.4649 23.9217 47.9896 28.7369 46.1731 33.1129C44.3566 37.4889 41.2805 41.2291 37.3337 43.8605C33.3869 46.492 28.7468 47.8966 24 47.8966C17.6348 47.8966 11.5303 45.3734 7.02944 40.8823C2.52856 36.3911 0 30.2998 0 23.9483H0Z" fill="#1B4A52"/>
<path d="M20.7691 11.9805C19.6073 11.9439 18.4443 11.9692 17.2851 12.0563C16.086 12.267 14.9724 12.8159 14.0761 13.6382C13.1798 14.4605 12.5381 15.5217 12.2271 16.6963C12.0021 17.5574 11.9871 18.0623 12.0121 24.7459C12.0271 30.8837 12.0331 31.0263 12.1341 31.5043C12.3858 32.7264 12.9904 33.8483 13.8734 34.7317C14.7563 35.615 15.8791 36.2212 17.1031 36.4756C18.2765 36.604 19.4581 36.6401 20.6371 36.5833C23.4971 36.6033 23.7941 36.5983 23.8711 36.5215C23.9481 36.4446 23.9531 35.4618 23.9531 24.3069C23.9531 16.0377 23.9381 12.1421 23.9021 12.0713C23.8661 12.0004 23.7911 11.9785 21.9971 11.9785L20.7691 11.9805Z" fill="white"/>
<path d="M17.7231 17.0785C17.33 17.175 16.9635 17.3577 16.6501 17.6133C16.3821 17.8472 16.1731 18.1409 16.0402 18.4705C15.9073 18.8 15.8541 19.1563 15.8851 19.5102C15.877 19.8027 15.9493 20.0919 16.0941 20.3464C16.3237 20.8274 16.7121 21.2149 17.1941 21.444C17.46 21.5932 17.7635 21.6625 18.0681 21.6436C18.3435 21.6759 18.6226 21.6462 18.8851 21.5568C19.4119 21.3927 19.8623 21.0455 20.1544 20.5782C20.4465 20.1109 20.561 19.5546 20.4771 19.0103C20.4276 18.701 20.3164 18.4048 20.1502 18.1391C19.9839 17.8735 19.766 17.6438 19.5092 17.4637C19.2524 17.2835 18.962 17.1566 18.6552 17.0905C18.3484 17.0243 18.0315 17.0202 17.7231 17.0785Z" fill="white"/>
<path d="M26.4388 12.0109C26.4178 12.0259 26.4028 17.553 26.4028 24.2914C26.4028 35.4104 26.4078 36.538 26.4848 36.5679C26.6228 36.6198 30.5868 36.5978 31.0778 36.5479C32.107 36.4268 33.0911 36.0571 33.9449 35.471C34.7987 34.8849 35.4965 34.1 35.9778 33.1842C36.1243 32.8949 36.2522 32.5966 36.3608 32.2911C36.6828 31.3332 36.6718 31.5926 36.6718 24.2615C36.6718 18.4141 36.6618 17.542 36.5898 17.1708C36.3575 15.8869 35.7332 14.706 34.8023 13.7899C33.8714 12.8737 32.6796 12.267 31.3898 12.0528C30.4969 11.9665 29.5992 11.9408 28.7028 11.976C27.4758 11.975 26.4538 11.99 26.4388 12.0109Z" fill="white"/>
</svg>
