<svg width="71" height="77" viewBox="0 0 71 77" fill="none" xmlns="http://www.w3.org/2000/svg">
<path d="M40.1003 70.1981C57.1453 67.8135 70.2627 53.1752 70.2627 35.4731C70.2627 16.1073 54.5636 0.408203 35.1978 0.408203C15.8319 0.408203 0.132812 16.1073 0.132812 35.4731C0.132812 53.1751 13.2501 67.8133 30.2949 70.1981L35.1976 76.739L40.1003 70.1981Z" fill="white"/>
<circle cx="35.1991" cy="35.4745" r="31.9276" fill="#B6EBF4"/>
<mask id="mask0_4629_28192" style="mask-type:alpha" maskUnits="userSpaceOnUse" x="3" y="3" width="65" height="65">
<circle cx="35.1971" cy="35.4725" r="31.9276" fill="#FFD5D3"/>
</mask>
<g mask="url(#mask0_4629_28192)">
<path d="M42.5168 87.1186C45.4821 71.8604 45.5783 54.6264 45.2558 47.9167L33.74 50.055C36.8583 57.3103 33.8468 77.1722 31.9512 86.1963C35.3563 86.69 40.4137 87.0169 42.5168 87.1186Z" fill="#F99985"/>
<path d="M54.1967 49.1621C53.2638 46.8827 48.3327 44.2169 45.9837 43.169C47.1538 44.3987 45.2219 47.9385 44.1097 49.5547C44.0479 55.804 43.7816 69.9253 43.2113 76.416C42.641 82.9067 35.0671 114.109 31.3515 128.899C34.3926 129.173 37.9907 127.871 39.4097 127.186C43.5391 110.743 46.8899 88.9982 48.0491 80.1812C49.0517 80.3216 51.5876 80.6188 53.7102 80.6847C60.2655 81.0456 60.8806 72.2206 60.2885 69.501C59.6964 66.7814 55.3629 52.0114 54.1967 49.1621Z" fill="white"/>
<path d="M48.6968 54.8177L50.25 69.3042L49.0806 69.9019L48.6968 54.8177Z" fill="#BBCAEE"/>
<path d="M36.1295 75.3295C37.3291 64.2232 36.3425 55.6971 35.6992 52.8223C34.9718 52.227 33.9243 51.9041 29.6262 47.6575C26.1877 44.2602 22.4976 42.7139 21.0823 42.3653C20.6767 42.7621 19.5869 43.8719 18.4735 45.1373C17.0818 46.719 18.7242 48.9864 19.3029 52.9096C19.8817 56.8329 19.4723 69.3244 15.0719 75.8288C11.5516 81.0323 -0.502662 104.574 -6.08978 115.694C4.10334 123.376 18.3723 127.083 24.2326 127.977C27.6984 115.055 34.9299 86.4358 36.1295 75.3295Z" fill="white"/>
<path d="M11.4728 56.6584C12.0292 51.5264 15.6725 47.6092 18.4797 45.4853C22.3121 46.834 22.568 59.9414 22.2169 66.3265L46.6205 68.5657L47.4026 74.2588C38.9344 75.8791 20.8833 78.7126 16.4244 77.0844C10.8509 75.0492 10.9165 61.7904 11.4728 56.6584Z" fill="white"/>
<path d="M51.4027 68.0119L46.5005 69.4899L47.4258 73.4052C50.6453 73.2708 50.9974 71.7127 51.5557 71.1493C52.0023 70.6986 53.0186 70.9053 53.4709 71.065C56.0484 72.4749 57.7546 71.6882 58.2856 71.1187L51.4027 68.0119Z" fill="#FF9955"/>
<path fill-rule="evenodd" clip-rule="evenodd" d="M25.2969 66.7771L25.2134 59.5181L23.852 59.5337L23.9355 66.7927L25.2969 66.7771Z" fill="#ECEFF1"/>
<path fill-rule="evenodd" clip-rule="evenodd" d="M45.7872 42.7713C45.4571 42.9513 45.3355 43.3649 45.5156 43.6949C46.3505 45.2254 48.0378 49.9144 47.7591 55.9299C47.7417 56.3055 48.0321 56.624 48.4076 56.6414C48.7832 56.6588 49.1018 56.3685 49.1192 55.9929C49.4096 49.7253 47.6636 44.7894 46.7108 43.0429C46.5307 42.7128 46.1172 42.5912 45.7872 42.7713Z" fill="#52787C"/>
<path fill-rule="evenodd" clip-rule="evenodd" d="M23.5527 40.2538C23.1893 40.3502 22.9728 40.7229 23.0691 41.0863C23.6983 43.4603 25.4526 49.371 27.4468 54.0424C27.5944 54.3881 27.9943 54.5488 28.3401 54.4012C28.6859 54.2536 28.8466 53.8536 28.699 53.5078C26.7413 48.9219 25.0065 43.0816 24.3852 40.7375C24.2889 40.374 23.9162 40.1575 23.5527 40.2538Z" fill="#52787C"/>
<ellipse rx="2.29868" ry="2.93772" transform="matrix(-0.999946 -0.0103858 -0.0103858 0.999946 47.8936 57.357)" fill="#9FCDD7"/>
<ellipse rx="1.53245" ry="1.95848" transform="matrix(-0.999946 -0.0103858 -0.0103858 0.999946 48.6582 57.3682)" fill="#52787C"/>
<path d="M45.0853 39.5202L45.401 17.5263L36.8039 14.3769C33.6223 14.9795 27.0579 16.3118 26.2537 16.8195C25.2483 17.4543 22.9513 22.2791 22.2527 23.8451C21.554 25.4111 22.9551 31.4164 24.2348 35.6704C25.2586 39.0736 22.1281 41.6875 20.4349 42.569C20.8794 42.3822 22.7618 42.6466 26.7359 45.1996C31.7034 48.3907 36.9185 58.878 42.2316 52.1489C46.482 46.7656 46.7477 43.8607 46.1853 43.044L45.0853 39.5202Z" fill="#F9B5B5"/>
<path fill-rule="evenodd" clip-rule="evenodd" d="M34.2756 67.3081L32.7003 59.0224L31.3627 59.2767L32.9381 67.5624L34.2756 67.3081Z" fill="#ECEFF1"/>
<path d="M49.5774 32.605C49.3327 27.5851 47.1205 22.6262 46.045 20.7742L39.8646 25.2387L35.7895 32.5923L41.82 39.4713C46.6661 40.9112 49.8833 38.88 49.5774 32.605Z" fill="#FF9955"/>
<path fill-rule="evenodd" clip-rule="evenodd" d="M30.2124 56.1807C30.7621 56.9828 31.1845 58.052 31.3534 59.2476C31.406 59.6199 31.7504 59.8791 32.1227 59.8265C32.4949 59.7739 32.7541 59.4295 32.7015 59.0572C32.5057 57.6709 32.0133 56.4001 31.3355 55.411C30.6647 54.4323 29.7684 53.6697 28.7411 53.4239C27.6645 53.1662 26.5773 53.5081 25.6696 54.4782C24.7889 55.4195 24.0698 56.9505 23.5753 59.1387C23.4925 59.5054 23.7226 59.8699 24.0893 59.9528C24.456 60.0357 24.8205 59.8055 24.9034 59.4388C25.3725 57.3628 26.0176 56.0991 26.6638 55.4084C27.2832 54.7465 27.8858 54.6192 28.4242 54.748C29.0118 54.8886 29.6556 55.3683 30.2124 56.1807Z" fill="#52787C"/>
<path d="M48.2629 25.8434C47.8378 24.3683 46.6507 21.9165 46.1104 20.875C45.8283 24.259 41.4139 26.0196 39.242 26.4769C40.1949 22.6412 43.1535 16.4144 46.7775 17.9229C49.6766 19.1296 48.9758 23.7061 48.2629 25.8434Z" fill="#323333"/>
<path d="M35.8695 32.4923C35.4563 28.8971 35.0451 20.5661 36.7064 16.0039C35.298 18.7497 33.1589 25.8916 35.8695 32.4923Z" fill="#F99985"/>
<path d="M26.2089 18.8832C26.8211 21.2103 29.5584 27.073 35.6098 31.9072C32.8491 30.758 27.104 26.5444 26.2089 18.8832Z" fill="#F99985"/>
<path d="M41.75 39.5996C39.7185 40.4538 34.3507 41.0793 29.1311 36.7481C31.3638 37.9092 37.0133 40.1051 41.75 39.5996Z" fill="#F99985"/>
<path d="M38.9466 47.3708C41.3714 46.8682 42.9079 43.0132 43.373 41.1484C42.7595 42.5452 40.9467 45.4671 38.6043 45.9802C36.2618 46.4933 31.8598 43.052 29.9517 41.2672C31.9396 43.5112 36.5218 47.8734 38.9466 47.3708Z" fill="#F99985"/>
<path d="M47.3809 73.9648C39.5735 76.359 22.2976 80.2466 15.6528 76.6439C17.149 79.127 25.5894 82.0674 47.3809 73.9648Z" fill="#BBCAEE"/>
</g>
</svg>
