<svg width="71" height="77" viewBox="0 0 71 77" fill="none" xmlns="http://www.w3.org/2000/svg">
<path d="M40.1237 70.1981C57.1687 67.8135 70.2862 53.1752 70.2862 35.4731C70.2862 16.1073 54.587 0.408203 35.2212 0.408203C15.8554 0.408203 0.15625 16.1073 0.15625 35.4731C0.15625 53.1751 13.2736 67.8133 30.3184 70.1981L35.2211 76.739L40.1237 70.1981Z" fill="white"/>
<mask id="mask0_4629_28276" style="mask-type:alpha" maskUnits="userSpaceOnUse" x="3" y="3" width="65" height="65">
<circle cx="35.2225" cy="35.4725" r="31.9276" fill="#B5EAD7"/>
</mask>
<g mask="url(#mask0_4629_28276)">
<circle cx="35.2225" cy="35.4745" r="31.9276" fill="#B5EAD7"/>
<path d="M28.4397 44.1439C29.3077 42.9866 28.8014 37.5541 28.4397 34.9824L41.1879 37.9719C40.9167 39.6114 40.4284 43.1409 40.6454 44.1439C40.8624 45.1468 43.6893 46.3619 45.0756 46.8441C44.8044 50.2836 42.3814 57.1627 34.859 57.1627C27.3367 57.1627 24.3109 50.6051 23.7383 47.3263C24.9438 46.7476 27.5718 45.3011 28.4397 44.1439Z" fill="#FFBE9D"/>
<path d="M42.7267 50.7969C35.6383 58.6661 28.3812 54.0757 25.6387 50.7969L34.4087 65.2623L42.7267 50.7969Z" fill="white"/>
<path d="M28.8926 41.6375V38.4551L40.6462 41.6375V44.2412C39.4708 47.9058 35.7639 48.2916 32.8707 46.4593C30.5562 44.9934 29.2542 42.634 28.8926 41.6375Z" fill="#FFAD84"/>
<path d="M29.6177 41.5384C27.8818 37.9124 27.93 27.8124 28.1711 23.2156C28.6533 21.8012 30.775 19.0302 35.4041 19.2617C40.0332 19.4931 43.2399 22.3798 44.2646 23.7942C44.1139 27.8445 43.2881 37.0638 41.1905 41.5384C38.5686 47.1317 31.7876 46.0709 29.6177 41.5384Z" fill="#FFBE9D"/>
<path d="M29.6162 26.5919C29.4655 25.4668 29.3811 23.0816 30.2491 22.5416C36.2163 21.3844 41.4602 22.5416 42.3643 23.6988C43.0876 24.6246 42.9671 26.7205 42.8164 27.6527C43.1781 28.5013 43.4493 30.8994 43.5397 31.9923L44.9863 30.2565C46.3425 25.8204 47.337 17.4305 41.4602 15.2124C36.7588 13.438 33.534 14.9874 32.5094 15.9839C25.855 16.8326 25.8188 24.6953 26.6325 28.5206L28.0791 31.028C28.0791 28.945 29.1038 27.2027 29.6162 26.5919Z" fill="#323333"/>
<path d="M45.0759 30.0625L43.0868 32.377L42.6348 35.0772C42.9964 35.5272 43.991 35.9837 45.0759 34.2093C46.1609 32.4348 45.528 30.7054 45.0759 30.0625Z" fill="#FFBE9D"/>
<path d="M26.5394 28.4238L28.0764 31.124L28.6189 34.21C27.9257 34.5957 26.4309 34.7693 25.9969 32.3777C25.5629 29.9861 26.1777 28.7453 26.5394 28.4238Z" fill="#FFBE9D"/>
<path d="M16.1442 50.7002C19.1098 49.2344 24.4923 46.7463 26.8129 45.6855C25.3663 46.6499 24.9142 50.1216 28.7116 54.1719C31.7494 57.4122 33.8952 61.5654 34.5884 63.2369C34.8596 59.0902 39.9227 54.3648 41.731 51.4717C43.1776 49.1572 42.7557 46.6499 42.3639 45.6855H43.268C45.679 46.9714 51.3509 50.1795 54.7504 52.7254C58.9998 55.9078 59.5423 61.5975 59.7231 64.8763C59.8678 67.4994 60.6875 73.8771 61.0793 76.738H9.36328C9.42356 76.288 9.6526 73.787 10.0866 67.3837C10.6291 59.3795 12.4373 52.5325 16.1442 50.7002Z" fill="#76AFB9"/>
</g>
</svg>
