<svg width="71" height="77" viewBox="0 0 71 77" fill="none" xmlns="http://www.w3.org/2000/svg">
<path d="M40.0788 70.1981C57.1238 67.8135 70.2412 53.1752 70.2412 35.4731C70.2412 16.1073 54.5421 0.408203 35.1763 0.408203C15.8104 0.408203 0.111328 16.1073 0.111328 35.4731C0.111328 53.1751 13.2286 67.8133 30.2735 70.1981L35.1762 76.739L40.0788 70.1981Z" fill="white"/>
<circle cx="35.1776" cy="35.4745" r="31.9276" fill="#E2F0CB"/>
<mask id="mask0_4629_28084" style="mask-type:alpha" maskUnits="userSpaceOnUse" x="3" y="3" width="65" height="65">
<circle cx="35.1776" cy="35.4725" r="31.9276" fill="#FFD5D3"/>
</mask>
<g mask="url(#mask0_4629_28084)">
<path d="M45.7162 33.576C45.0194 33.158 44.3033 32.3954 44.0323 32.0664C44.0323 32.9954 43.684 34.4663 43.5098 35.0857C44.6246 35.4108 45.4452 34.2147 45.7162 33.576Z" stroke="black" stroke-width="2.03549"/>
<path d="M24.4658 35.7823C23.4439 41.0777 19.5498 43.3692 17.7305 43.8531L56.4584 63.6526C60.3486 61.7365 61.1615 55.5238 59.4777 51.2271C57.7939 46.9305 54.194 44.3176 50.7683 27.7696C47.3425 11.2217 33.8139 10.9895 30.4462 15.2861C27.0786 19.5828 25.7431 29.1631 24.4658 35.7823Z" fill="#323333"/>
<path d="M17.3259 43.9109C18.3014 43.9109 24.158 43.2916 28.0676 42.9238L40.6672 43.5045C44.3252 44.3173 52.5701 46.6747 56.2861 49.6011C60.0022 52.5274 61.6666 65.9167 62.0344 72.2456H8.32617C8.32617 63.42 12.8551 49.2527 13.5518 47.2785C14.2486 45.3044 16.1066 43.9109 17.3259 43.9109Z" fill="#85A8AF"/>
<path d="M31.0875 72.2461L27.9521 42.9824H24.7006L21.2168 56.3369L24.7006 57.6143L23.0748 60.0529L27.1392 72.2461H31.0875Z" fill="#9AB7BC"/>
<path d="M27.9512 42.925C29.4376 42.5999 30.1189 40.3896 30.2737 39.3251L42.0024 38.5703C41.2476 40.6219 39.8889 45.2475 40.4928 47.3378C41.2476 49.9506 39.6218 52.6796 37.4735 55.815C35.7548 58.3233 34.8219 63.0922 34.5703 65.1631L29.5769 60.402L27.9512 42.925Z" fill="#FF9955"/>
<path d="M29.6348 41.3564L30.2735 39.5565L41.886 38.6855L41.0151 41.9951C40.7054 42.8274 39.308 44.4918 36.1959 44.4918C33.0837 44.4918 30.5251 42.4016 29.6348 41.3564Z" fill="#F97D2A"/>
<path d="M31.0272 72.1891L29.5176 60.4023L34.511 65.1054V72.1891H31.0272Z" fill="#D1EBEF"/>
<path d="M40.6088 49.7767C41.0153 47.8025 39.854 47.0477 40.6088 43.5059H46.6474L54.8923 47.0477L59.6535 52.854L60.0018 58.2538C59.816 59.1364 59.189 59.628 58.8986 59.7635C58.6199 62.504 55.7245 63.7311 54.3117 64.0021C54.2188 67.6716 52.4149 71.0664 51.5247 72.3051H34.4542C33.2348 64.0021 35.6735 58.1958 37.067 56.3378C38.4605 54.4797 40.2024 51.7508 40.6088 49.7767Z" fill="#323333"/>
<path d="M28.5545 24.1057C29.4252 20.7475 32.4414 19.5969 33.8407 19.4414C33.8407 20.5608 36.2246 20.9443 37.4166 20.9962L44.102 32.0349C43.9465 33.5896 43.2313 37.1655 41.6144 39.0312C39.5932 41.3634 35.7064 42.7626 33.8407 42.4517C31.975 42.1407 29.6428 40.275 28.5545 38.0984C27.4662 35.9218 27.4662 28.3035 28.5545 24.1057Z" fill="#FF9955"/>
<path d="M16.6875 47.5117C19.5674 53.2716 20.9067 66.4015 21.2164 72.2465H19.7068C19.7068 58.683 17.6939 50.1052 16.6875 47.5117Z" fill="#608F99"/>
</g>
</svg>
