<svg width="72" height="77" viewBox="0 0 72 77" fill="none" xmlns="http://www.w3.org/2000/svg">
<path d="M40.8562 70.1981C57.9011 67.8135 71.0186 53.1752 71.0186 35.4731C71.0186 16.1073 55.3195 0.408203 35.9536 0.408203C16.5878 0.408203 0.888672 16.1073 0.888672 35.4731C0.888672 53.1751 14.006 67.8133 31.0508 70.1981L35.9535 76.739L40.8562 70.1981Z" fill="white"/>
<circle cx="35.9549" cy="35.4745" r="31.9276" fill="#B5EAD7"/>
<mask id="mask0_4629_28100" style="mask-type:alpha" maskUnits="userSpaceOnUse" x="4" y="3" width="64" height="65">
<circle cx="35.9549" cy="35.4725" r="31.9276" fill="#FFD5D3"/>
</mask>
<g mask="url(#mask0_4629_28100)">
<path d="M24.4532 24.9205C25.0797 19.3605 29.478 16.4696 31.5989 15.7192C31.8273 15.2297 33.1455 14.0942 36.5911 13.4678C43.2473 12.3911 46.3796 17.4811 47.8479 19.9283C49.0226 21.886 48.9247 24.0721 48.7289 24.9205C49.3162 26.2256 50.4517 29.4819 50.2951 32.0661C50.1385 34.6503 47.6195 36.9278 46.3796 37.7435C46.4775 38.0045 46.458 38.7028 45.5966 39.4076C44.7352 40.1123 43.1494 39.1139 42.4642 38.5266L29.9348 37.7435C29.23 38.6049 28.5318 38.6245 28.2708 38.5266C28.7276 38.2656 29.0734 37.5282 26.8025 36.6668C24.5315 35.8054 24.6164 33.2408 24.9426 32.0661C23.768 33.7106 24.4532 35.8184 24.9426 36.6668C21.4188 32.6534 23.6701 31.8703 24.4532 24.9205Z" fill="#323333"/>
<path d="M30.3274 44.499L30.8169 37.0596L42.5632 35.7871V43.9116L43.3463 48.0228L35.026 56.9305L28.957 50.8615L30.3274 44.499Z" fill="#FFBE9D"/>
<path d="M30.668 37.793V39.5549C35.8755 45.4281 40.7665 42.8504 42.5611 40.8274V37.793H30.668Z" fill="#FFAD84"/>
<path d="M19.7545 48.1195C24.1398 47.493 27.0633 46.0965 27.9769 45.4766L30.7177 50.0772L34.0458 54.0905L43.5407 46.0639C44.487 46.7491 47.0842 48.3544 49.9033 49.2941C53.4272 50.4687 57.6363 51.7413 58.4194 53.9926C59.0459 55.7937 60.7687 67.142 61.5517 72.591H10.3574C10.4553 69.0344 10.8273 61.3145 11.5321 58.8869C12.413 55.8525 14.2729 48.9026 19.7545 48.1195Z" fill="#FFDDDD"/>
<path d="M36.3948 60.9433C36.3948 58.4375 34.8286 55.4617 34.0455 54.2871V59.1814C34.0455 60.356 33.3277 68.6763 32.9688 72.6897H35.4159C35.7422 69.8183 36.3948 63.4492 36.3948 60.9433Z" fill="#FFCECE"/>
<path d="M44.5202 46.5538C43.7371 43.6563 42.8888 42.2794 42.5625 41.9531C42.5625 43.2061 42.1709 44.3676 41.9752 44.7918L34.2422 53.8952L38.4513 50.5671L43.3456 52.6227L44.5202 46.5538Z" fill="#FFCECE"/>
<path d="M32.0875 51.3497C30.7563 47.4343 30.4887 43.5841 30.5214 42.1484L27.0954 45.5744L26.4102 52.5243L29.934 50.8603L30.5214 52.5243L34.241 54.4821L32.0875 51.3497Z" fill="#FFCECE"/>
<path d="M28.075 26.7794C28.6232 19.7316 33.0019 17.7086 35.1228 17.5781C37.6026 19.1769 42.5425 22.9618 42.4642 25.3111C42.3859 27.6604 43.802 29.9444 44.5198 30.7927C44.5851 32.0979 44.559 35.1193 43.9325 36.7638C43.1494 38.8194 38.6467 40.9729 37.0805 40.9729C35.5143 40.9729 33.3609 40.1898 31.5989 39.113C29.837 38.0363 27.3898 35.5891 28.075 26.7794Z" fill="#FFBE9D"/>
<path fill-rule="evenodd" clip-rule="evenodd" d="M31.9033 31.6263C33.6348 31.6263 35.0384 30.2227 35.0384 28.4912C35.0384 26.7598 33.6348 25.3562 31.9033 25.3562C30.1719 25.3562 28.7683 26.7598 28.7683 28.4912C28.7683 30.2227 30.1719 31.6263 31.9033 31.6263ZM31.9033 31.9746C33.8272 31.9746 35.3868 30.4151 35.3868 28.4912C35.3868 26.5674 33.8272 25.0078 31.9033 25.0078C29.9795 25.0078 28.4199 26.5674 28.4199 28.4912C28.4199 30.4151 29.9795 31.9746 31.9033 31.9746Z" fill="#A98D8D"/>
<path fill-rule="evenodd" clip-rule="evenodd" d="M40.4092 31.6263C42.1406 31.6263 43.5442 30.2227 43.5442 28.4912C43.5442 26.7598 42.1406 25.3562 40.4092 25.3562C38.6778 25.3562 37.2742 26.7598 37.2742 28.4912C37.2742 30.2227 38.6778 31.6263 40.4092 31.6263ZM40.4092 31.9746C42.333 31.9746 43.8926 30.4151 43.8926 28.4912C43.8926 26.5674 42.333 25.0078 40.4092 25.0078C38.4854 25.0078 36.9258 26.5674 36.9258 28.4912C36.9258 30.4151 38.4854 31.9746 40.4092 31.9746Z" fill="#A98D8D"/>
<path fill-rule="evenodd" clip-rule="evenodd" d="M37.0582 28.2956H35.2402V27.9473H37.0582V28.2956Z" fill="#A98D8D"/>
<path d="M18.8591 58.5918L17.293 72.4916H18.8591V58.5918Z" fill="#F27979"/>
<path d="M53.6365 58.5918L52.0703 72.4916H53.6365V58.5918Z" fill="#F27979"/>
</g>
</svg>
