<svg width="71" height="77" viewBox="0 0 71 77" fill="none" xmlns="http://www.w3.org/2000/svg">
<path d="M40.5905 70.1981C57.6355 67.8135 70.753 53.1752 70.753 35.4731C70.753 16.1073 55.0538 0.408203 35.688 0.408203C16.3222 0.408203 0.623047 16.1073 0.623047 35.4731C0.623047 53.1751 13.7404 67.8133 30.7852 70.1981L35.6879 76.739L40.5905 70.1981Z" fill="white"/>
<circle cx="35.6893" cy="35.4745" r="31.9276" fill="#FFDAC1"/>
<mask id="mask0_4629_28221" style="mask-type:alpha" maskUnits="userSpaceOnUse" x="3" y="3" width="65" height="65">
<circle cx="35.6893" cy="35.4725" r="31.9276" fill="#FFD5D3"/>
</mask>
<g mask="url(#mask0_4629_28221)">
<path d="M24.7012 82.2563L28.5789 43.4785L45.6412 45.8052L58.8256 82.2563H24.7012Z" fill="#00B5D5"/>
<path d="M29.9238 40.571V35.8975L43.68 33.7812L44.209 39.7775C43.1803 42.0701 40.0597 45.6026 38.5077 45.6026C36.9558 45.6026 32.3635 42.5992 29.9238 40.571Z" fill="#FBB599"/>
<path d="M30.6304 52.5661C28.9373 46.7814 28.6318 41.867 28.6906 40.1328L26.1333 43.9246C21.9007 45.2766 12.8005 48.8979 10.261 52.5661C7.72139 56.2343 5.79316 73.9056 5.14648 82.2827H29.6604C34.0694 69.7612 32.7468 59.7969 30.6304 52.5661Z" fill="white"/>
<path d="M48.004 41.8994C46.8753 41.4057 45.1823 39.5186 44.4769 38.6367C46.5049 42.1639 44.4769 49.9237 43.9479 61.3871C43.5247 70.5577 44.8297 78.7879 45.5351 81.7566H70.7545C67.3155 52.7455 64.6701 48.9537 62.1129 46.8374C59.5557 44.7211 49.415 42.5166 48.004 41.8994Z" fill="white"/>
<path d="M53.1187 65.8346C53.0968 67.571 54.4274 68.9901 56.0907 69.0043C57.754 69.0185 59.1201 67.6225 59.142 65.8861C59.1639 64.1498 57.8333 62.7307 56.17 62.7164C54.5067 62.7022 53.1406 64.0983 53.1187 65.8346Z" fill="#9FCDD7"/>
<path fill-rule="evenodd" clip-rule="evenodd" d="M56.1685 62.9405C57.6989 62.9536 58.9394 64.2623 58.919 65.884C58.8985 67.5056 57.6252 68.7928 56.0949 68.7797C54.5645 68.7667 53.3239 67.4579 53.3444 65.8363C53.3648 64.2146 54.6381 62.9274 56.1685 62.9405ZM59.3677 65.8878C59.391 64.0368 57.9704 62.5072 56.1742 62.4919C54.378 62.4765 52.919 63.9814 52.8957 65.8325C52.8723 67.6835 54.293 69.213 56.0892 69.2284C57.8854 69.2438 59.3443 67.7389 59.3677 65.8878Z" fill="#5398A4"/>
<path d="M54.2959 65.4737C54.2813 66.6313 55.1684 67.5774 56.2772 67.5869C57.3861 67.5964 58.2969 66.6656 58.3115 65.5081C58.3261 64.3505 57.439 63.4044 56.3301 63.3949C55.2213 63.3855 54.3105 64.3162 54.2959 65.4737Z" fill="#BEE7EB"/>
<path fill-rule="evenodd" clip-rule="evenodd" d="M56.3306 63.619C57.3065 63.6274 58.1036 64.463 58.0904 65.5059C58.0773 66.5488 57.2593 67.3706 56.2834 67.3623C55.3074 67.3539 54.5104 66.5183 54.5235 65.4754C54.5367 64.4325 55.3546 63.6107 56.3306 63.619ZM58.5391 65.5098C58.5551 64.2375 57.578 63.181 56.3362 63.1704C55.0945 63.1597 54.0909 64.1993 54.0749 65.4716C54.0588 66.7438 55.036 67.8003 56.2777 67.811C57.5195 67.8216 58.523 66.782 58.5391 65.5098Z" fill="#5398A4"/>
<path fill-rule="evenodd" clip-rule="evenodd" d="M52.6112 50.4016C51.3243 45.5464 48.2218 42.4966 46.8911 41.6095L46.3125 40.3418C49.1182 41.4388 52.3308 44.9653 53.6955 50.1142C55.0283 55.1423 56.0664 60.9841 56.4196 63.2804L55.3109 63.4509C54.9611 61.177 53.9301 55.3776 52.6112 50.4016Z" fill="black"/>
<path d="M44.1925 56.2852C45.7594 45.0759 45.197 40.0638 44.7199 38.959C47.6126 40.4657 51.7509 48.4257 53.4584 52.2173H48.3359L49.3905 54.7786C49.3403 55.0548 48.8783 56.014 47.4319 57.6412C44.1173 61.92 43.8912 68.6648 44.1925 71.5023C43.7908 68.6899 43.2283 61.7091 44.1925 56.2852Z" fill="#C7E7FF"/>
<path d="M14.3184 53.5352C17.9866 54.8755 17.6692 73.2579 17.052 82.2816H19.0801C19.7855 59.7075 16.1995 53.7114 14.3184 53.5352Z" fill="#C7E7FF"/>
<path d="M58.2285 81.7535C60.2038 70.1844 61.2265 56.7692 61.491 51.5078C62.7607 64.1601 60.962 76.9434 59.9039 81.7535H58.2285Z" fill="#C7E7FF"/>
<path d="M28.7773 40.1307L29.8356 38.3672C29.8356 40.272 35.6554 44.04 38.5654 45.686L33.8918 52.2113L28.7773 45.686V40.1307Z" fill="#50CBE1"/>
<path d="M44.8266 50.2748L38.7422 45.6894C41.4228 43.9257 43.5039 40.1928 44.2094 38.5469C46.1141 39.1112 45.4145 46.6006 44.8266 50.2748Z" fill="#50CBE1"/>
<path d="M37.5075 41.898C33.0633 41.898 30.6 37.9004 29.9238 35.9017L43.8563 34.3145V35.9017C43.5918 37.9004 41.9517 41.898 37.5075 41.898Z" fill="#EF9B7A"/>
<path d="M29.4527 35.8747C28.7457 34.726 27.3171 25.6022 26.6912 21.1839C26.2126 18.717 27.2215 13.7832 35.0861 13.7832C42.9506 13.7832 44.6222 17.3915 44.4749 19.1956C44.6958 23.9821 45.0051 33.776 44.4749 34.6596C43.8122 35.7642 40.2776 40.6243 37.2952 40.6243C34.3129 40.6243 30.3364 37.3106 29.4527 35.8747Z" fill="#FBB599"/>
<path d="M29.1317 16.5885C30.1192 15.3894 33.7758 17.0357 35.2161 17.5353C36.4506 16.9768 39.0078 15.107 41.4768 15.883C43.9459 16.659 44.1516 19.7923 43.9459 21.2619C44.4397 22.7433 44.6807 25.9354 44.7395 27.3463L45.6213 26.0236C45.7388 23.437 45.8153 17.7877 45.1804 15.883C44.3868 13.5021 40.2423 10.1513 35.2161 10.5922C30.1898 11.0331 26.8391 13.5903 26.1336 16.5885C25.5692 18.9871 26.3687 24.7598 26.8391 27.3463L27.809 28.4927C27.4562 26.6585 27.956 23.8485 28.2499 22.6728C27.3681 19.7629 27.8972 18.0875 29.1317 16.5885Z" fill="black"/>
<path d="M46.5037 24.7016C45.5866 24.2782 44.9459 25.7598 44.7402 26.5535V30.0805C45.3576 30.6978 47.6501 25.2307 46.5037 24.7016Z" fill="#EF9B7A"/>
<path d="M26.2215 26.2861C26.9974 25.8628 27.5443 27.2855 27.7208 28.0498L28.4261 31.7533C27.1034 31.6651 25.2516 26.8152 26.2215 26.2861Z" fill="#EF9B7A"/>
<path d="M21.9648 56.3619C24.3153 46.1771 27.4641 41.1699 28.7446 39.9395C29.1213 50.7118 31.6072 51.6913 32.5112 62.5391C33.1164 69.8009 31.5483 76.6196 30.27 80.3734C30.0274 81.4869 29.7597 82.0363 29.5733 82.2007C29.7823 81.7212 30.0206 81.1056 30.27 80.3734C30.5829 78.9366 30.8539 76.5604 30.8539 72.8596C30.8539 66.2906 27.7904 61.1329 26.2587 59.3752V56.3619H21.9648Z" fill="#C7E7FF"/>
<path fill-rule="evenodd" clip-rule="evenodd" d="M26.2737 66.5308C25.0825 64.4184 24.1435 61.7625 23.6758 60.0687L24.1083 59.9492C24.5697 61.6202 25.4966 64.2394 26.6646 66.3104C27.2488 67.3464 27.8965 68.2638 28.5864 68.9158C29.2777 69.5692 29.9884 69.9349 30.7042 69.9214L30.7064 69.9214H30.7085C30.9624 69.9214 31.2536 69.8359 31.5672 69.6809C31.879 69.5269 32.1997 69.3108 32.5089 69.0659C33.1277 68.5757 33.6813 67.9853 33.9995 67.5936L34.3478 67.8765C34.0132 68.2884 33.4368 68.9033 32.7875 69.4176C32.4627 69.6749 32.1148 69.9108 31.7659 70.0832C31.4196 70.2543 31.0586 70.3696 30.7106 70.3701C29.8302 70.386 29.0118 69.9352 28.2782 69.2419C27.5426 68.5467 26.8691 67.5865 26.2737 66.5308Z" fill="black"/>
<path fill-rule="evenodd" clip-rule="evenodd" d="M31.5424 66.7778C31.8292 64.3444 31.1889 60.7019 30.3314 58.3531L30.7529 58.1992C31.628 60.5964 32.285 64.3107 31.988 66.8303C31.8405 68.0819 31.4717 69.1635 30.7571 69.7474C30.0144 70.3543 28.9793 70.3666 27.6582 69.6672L27.8681 69.2706C29.1084 69.9272 29.9282 69.8453 30.4732 69.3999C31.0464 68.9316 31.398 68.0027 31.5424 66.7778Z" fill="black"/>
<path fill-rule="evenodd" clip-rule="evenodd" d="M25.2443 42.9885C25.9237 42.4038 26.9598 41.8363 27.4316 41.6504L26.8831 42.7898C26.8831 42.7898 26.5586 43.3374 25.9761 43.8387C25.3942 44.3396 24.8668 44.9879 24.6074 45.7662C24.4903 46.1175 24.4518 46.6171 24.4937 47.2353C24.535 47.8448 24.6511 48.5272 24.8103 49.2206C25.1288 50.6079 25.6084 51.9915 25.951 52.8359L24.9116 53.2577C24.5511 52.3694 24.0514 50.9281 23.717 49.4716C23.5498 48.7431 23.4211 47.9989 23.3745 47.3112C23.3285 46.6323 23.359 45.9642 23.5432 45.4115C23.8864 44.3818 24.5644 43.5738 25.2443 42.9885Z" fill="black"/>
<path fill-rule="evenodd" clip-rule="evenodd" d="M23.7997 55.0092C23.6155 56.0221 23.7921 57.517 24.3113 59.4279C24.3926 59.7268 24.223 60.0386 23.9257 60.1257V60.1257C23.6285 60.2128 23.3161 60.0424 23.2346 59.7436C22.6975 57.7742 22.4659 56.0739 22.696 54.8086C22.8237 54.1061 23.1022 53.4908 23.5962 53.0531C24.095 52.6112 24.7478 52.4082 25.5078 52.4082C27.023 52.4082 28.1891 53.0914 29.0942 54.1838C29.8847 55.1379 30.4851 56.4121 30.9844 57.8385C31.0867 58.1309 30.9249 58.4478 30.6304 58.5437V58.5437C30.3358 58.6396 30.0201 58.4781 29.9174 58.1858C29.4399 56.8267 28.8964 55.7033 28.2304 54.8995C27.4971 54.0144 26.6292 53.53 25.5078 53.53C24.9495 53.53 24.5853 53.6754 24.3402 53.8927C24.0903 54.1141 23.8979 54.4687 23.7997 55.0092Z" fill="black"/>
<path d="M34.4174 67.5608C34.7025 67.8627 34.6889 68.3385 34.387 68.6236L33.7639 69.2119C33.7166 69.2566 33.6421 69.2544 33.5975 69.2072L32.7268 68.2851C32.6822 68.2378 32.6843 68.1633 32.7316 68.1187L33.3547 67.5303C33.6566 67.2453 34.1324 67.2589 34.4174 67.5608V67.5608Z" fill="#70E1F5"/>
</g>
</svg>
