<svg width="72" height="77" viewBox="0 0 72 77" fill="none" xmlns="http://www.w3.org/2000/svg">
<path d="M40.8542 70.1981C57.8992 67.8135 71.0166 53.1752 71.0166 35.4731C71.0166 16.1073 55.3175 0.408203 35.9517 0.408203C16.5858 0.408203 0.886719 16.1073 0.886719 35.4731C0.886719 53.1751 14.004 67.8133 31.0488 70.1981L35.9515 76.739L40.8542 70.1981Z" fill="white"/>
<circle cx="35.953" cy="35.4745" r="31.9276" fill="#FFD3D0"/>
<mask id="mask0_4629_28117" style="mask-type:alpha" maskUnits="userSpaceOnUse" x="4" y="3" width="64" height="65">
<circle cx="35.953" cy="35.4725" r="31.9276" fill="#FFD5D3"/>
</mask>
<g mask="url(#mask0_4629_28117)">
<path d="M24.3789 28.1894C25.2583 28.0429 26.1499 30.6932 26.4858 32.0367V34.6017C25.3865 35.5177 23.2797 28.3726 24.3789 28.1894Z" fill="#FFAD84"/>
<path d="M44.8971 26.3561C44.091 25.8431 43.462 27.5469 43.2483 28.4629L42.4238 30.2949L43.2483 32.6766C44.4391 33.4094 45.9047 26.9973 44.8971 26.3561Z" fill="#FFAD84"/>
<path d="M29.416 43.3042L28.5 37.6248V37.2584L42.4236 34.7852L43.0648 42.2966L45.5381 43.3042C48.0297 49.0935 40.4694 54.8156 36.3778 56.953C31.5412 54.5347 28.5 47.4568 27.584 44.2202L29.416 43.3042Z" fill="#FFAD84"/>
<path d="M28.9561 40.3729L28.498 37.35L42.6048 35.7012V36.892C41.8415 38.9683 39.5087 43.1943 36.2843 43.4874C33.0599 43.7805 30.0553 41.5332 28.9561 40.3729Z" fill="#F89B6B"/>
<path d="M16.8663 50.1759C18.4052 49.5163 25.2021 45.6263 28.4082 43.7637C29.9471 50.2858 34.6066 53.8705 36.744 54.8476C44.6585 50.9636 45.4157 45.2293 44.805 42.8477C48.9577 44.4354 58.1607 48.6186 61.7515 52.6491C65.3423 56.6796 66.179 70.3895 66.1484 76.7406H9.08008C9.11061 73.1681 9.2816 65.162 9.7213 61.7178C10.2709 57.4125 14.9426 51.0003 16.8663 50.1759Z" fill="#00B5D5"/>
<path d="M36.194 57.0439C31.7971 54.992 28.4384 48.189 27.3086 45.0439C29.4338 52.6653 34.1177 56.5859 36.194 57.5935C45.6474 53.2699 46.7283 47.1203 46.0871 44.5859C46.8199 50.5951 39.7971 55.395 36.194 57.0439Z" fill="#0394AD"/>
<path d="M19.4316 53.8398C20.7507 57.7238 21.9354 70.7252 22.3629 76.7405H23.1873C22.9675 65.3085 20.5919 56.7101 19.4316 53.8398Z" fill="#0394AD"/>
<path d="M56.1834 55.2109C55.817 59.0216 54.7483 71.1498 54.2598 76.7375H54.901L56.1834 55.2109Z" fill="#0394AD"/>
<path d="M25.1104 22.6934C25.4768 18.3881 28.5913 16.9224 32.2554 16.6476C37.3852 16.0064 41.5073 18.0217 42.2401 20.4949C42.9729 22.9682 43.5225 29.1972 43.2477 33.8689C42.9729 38.5406 38.3012 41.6551 35.8279 41.6551C33.3546 41.6551 28.3165 39.823 27.1257 36.3421C25.9348 32.8613 24.744 26.9987 25.1104 22.6934Z" fill="#FFAD84"/>
<path d="M24.1954 23.2428C24.1954 24.9283 24.6839 27.4871 24.9282 28.5558L25.9358 30.571C25.716 28.9588 26.3328 26.8458 26.6687 25.9909C26.2717 24.5863 25.8259 21.4657 27.2183 20.2199C28.9587 18.6627 31.7984 19.6703 33.5388 18.8459C35.2793 18.0214 38.7602 16.6474 40.6838 19.6703C42.2228 22.0886 41.9357 23.6092 41.5999 24.0672L43.2487 28.5558L44.1647 26.4489C44.4579 20.0001 41.9663 17.7161 40.6838 17.3803C37.2945 11.5177 29.4167 13.3497 27.2183 14.449C25.0198 15.5482 24.1954 18.2963 23.7374 19.6703C23.3709 20.7695 23.89 22.51 24.1954 23.2428Z" fill="#323333"/>
</g>
</svg>
