<svg width="24" height="24" viewBox="0 0 24 24" fill="none" xmlns="http://www.w3.org/2000/svg">
<g clip-path="url(#clip0_2077_14666)">
<path d="M5.26009 21.0001C4.87996 20.9966 4.50679 20.8977 4.17482 20.7125C3.84285 20.5273 3.5627 20.2617 3.36008 19.9401C3.07283 19.5431 2.93269 19.0586 2.96371 18.5695C2.99473 18.0805 3.19497 17.6176 3.53008 17.2601C3.57817 17.1987 3.63172 17.1418 3.69009 17.0901L8.69009 12.0901L8.78008 12.0101C8.89125 11.906 9.03782 11.8481 9.19009 11.8481C9.34235 11.8481 9.48891 11.906 9.60008 12.0101L12.0001 14.3301C12.11 14.4422 12.1716 14.593 12.1716 14.7501C12.1716 14.9071 12.11 15.0579 12.0001 15.1701L11.9101 15.2601L6.91009 20.2601C6.58291 20.619 6.14752 20.8612 5.67008 20.9501L5.26009 21.0001ZM9.26009 13.2601L4.57008 17.9401L4.48009 18.0401C4.31816 18.1971 4.21953 18.408 4.20293 18.633C4.18634 18.8579 4.25294 19.081 4.39008 19.2601C4.49701 19.4529 4.66139 19.6076 4.86034 19.7025C5.0593 19.7975 5.28292 19.8281 5.50008 19.7901C5.69406 19.7392 5.86827 19.6312 6.00008 19.4801L10.6701 14.8101L9.26009 13.2601Z" fill="#1B4A52"/>
<path d="M14.1101 11.4799C14.0284 11.4814 13.9472 11.4663 13.8715 11.4353C13.7958 11.4044 13.7273 11.3583 13.6701 11.2999L12.6701 10.2299C12.5631 10.1182 12.5034 9.96953 12.5034 9.81489C12.5034 9.66025 12.5631 9.51158 12.6701 9.39989L13.5101 8.55989C14.0901 7.96989 14.6901 7.38989 15.2601 6.77989C15.4174 6.60327 15.558 6.41245 15.6801 6.20989L15.8201 5.98989L16.3201 5.20989L16.6801 4.63989C16.7669 4.4994 16.8871 4.38259 17.0301 4.29989L18.4801 3.41989L18.9001 3.15989L19.0201 3.09989C19.1332 3.05163 19.2574 3.03543 19.3791 3.05307C19.5008 3.07071 19.6153 3.12151 19.7101 3.19989L20.7101 4.19989C20.8072 4.29634 20.8697 4.4222 20.8878 4.55787C20.9059 4.69353 20.8785 4.83138 20.8101 4.94989L20.0901 6.10989L19.6101 6.88989C19.5086 7.05439 19.372 7.19441 19.2101 7.29989L18.5001 7.73989L17.5001 8.33989C17.3151 8.46104 17.1411 8.59824 16.9801 8.74989L15.1501 10.5699L14.6001 11.1299L14.4801 11.2699C14.4259 11.3334 14.3584 11.3843 14.2823 11.4188C14.2063 11.4534 14.1236 11.4708 14.0401 11.4699L14.1101 11.4799ZM13.9201 9.81989L14.1001 10.0199L14.3801 9.72989C14.9901 9.11989 15.6001 8.50989 16.2201 7.90989C16.4343 7.69349 16.6725 7.50225 16.9301 7.33989L17.9301 6.72989L18.6201 6.29989L19.1301 5.49989L19.5901 4.73989L19.2101 4.37989L19.1101 4.43989L17.6701 5.31989L17.3401 5.84989L16.8301 6.64989L16.7001 6.84989C16.5414 7.1227 16.3537 7.37753 16.1401 7.60989C15.5601 8.21989 14.9601 8.81989 14.3601 9.40989L13.9201 9.81989Z" fill="#1B4A52"/>
<path d="M17.2799 21C16.5085 20.9925 15.7573 20.7529 15.1241 20.3123C14.4909 19.8717 14.0051 19.2507 13.7299 18.53C13.4549 17.7935 13.4165 16.9895 13.6199 16.23L7.79991 10.4C7.22568 10.5535 6.62345 10.5701 6.04164 10.4485C5.45983 10.3269 4.91464 10.0706 4.4499 9.70003C3.95515 9.30966 3.56409 8.80351 3.31122 8.22625C3.05834 7.649 2.95142 7.01838 2.99991 6.39003C3.03587 6.12018 3.08932 5.85295 3.15991 5.59003L3.24991 5.24003C3.27441 5.13751 3.32505 5.0431 3.39691 4.96599C3.46876 4.88888 3.55938 4.8317 3.65991 4.80003C3.7602 4.76863 3.86713 4.76507 3.96929 4.78973C4.07145 4.81439 4.16498 4.86634 4.2399 4.94003L4.92991 5.61003C5.39991 6.08003 5.9299 6.55003 6.3399 7.02003C6.38882 7.08328 6.45306 7.13301 6.52656 7.1645C6.60005 7.196 6.68037 7.20823 6.75991 7.20003C6.84293 7.18524 6.92172 7.15253 6.9908 7.10417C7.05989 7.05581 7.1176 6.99297 7.15991 6.92003C7.21119 6.84863 7.23877 6.76294 7.23877 6.67503C7.23877 6.58712 7.21119 6.50143 7.15991 6.43003C7.11867 6.37218 7.07176 6.31858 7.0199 6.27003L5.1999 4.48003L5.0899 4.42003C4.99963 4.36107 4.92692 4.27888 4.87941 4.18209C4.83189 4.08531 4.81134 3.97751 4.81991 3.87003C4.82724 3.76405 4.86258 3.66192 4.92231 3.57407C4.98205 3.48622 5.06405 3.41581 5.15991 3.37003C5.95533 2.97251 6.8659 2.86976 7.72991 3.08003C8.44812 3.27216 9.09466 3.66971 9.59025 4.22391C10.0858 4.77811 10.4089 5.46489 10.5199 6.20003C10.6036 6.70599 10.5798 7.22391 10.4499 7.72003L16.2899 13.56C17.1209 13.3577 17.9956 13.4364 18.7772 13.7837C19.5587 14.1311 20.2032 14.7276 20.6099 15.48C20.8754 15.9832 21.0216 16.5408 21.0372 17.1095C21.0528 17.6783 20.9374 18.243 20.6999 18.76C20.6591 18.8459 20.5991 18.9212 20.5245 18.9801C20.45 19.0391 20.3628 19.0801 20.2699 19.1C20.1775 19.1183 20.0822 19.1143 19.9917 19.0882C19.9012 19.0621 19.8183 19.0147 19.7499 18.95L19.4099 18.65L18.6299 17.92L18.1599 17.45L17.5699 16.87C17.485 16.806 17.3789 16.7766 17.2731 16.7877C17.1673 16.7988 17.0697 16.8497 16.9999 16.93C16.9083 16.9946 16.8455 17.0925 16.8249 17.2027C16.8044 17.3129 16.8277 17.4268 16.8899 17.52C17.1199 17.79 17.3699 18.04 17.6299 18.3L19.0299 19.71C19.0945 19.7808 19.1425 19.8651 19.1702 19.9568C19.1979 20.0486 19.2046 20.1453 19.1899 20.24C19.1725 20.3338 19.1336 20.4223 19.0764 20.4986C19.0191 20.5749 18.9451 20.637 18.8599 20.68C18.4161 20.8828 17.9374 20.9983 17.4499 21.02L17.2799 21ZM7.9199 9.15003C8.03134 9.1531 8.14102 9.1786 8.24238 9.22499C8.34375 9.27138 8.43474 9.33771 8.50991 9.42003L14.5899 15.48C14.7153 15.5932 14.8042 15.7411 14.8451 15.905C14.8861 16.0688 14.8773 16.2412 14.8199 16.4C14.6255 16.95 14.6255 17.55 14.8199 18.1C15.0124 18.6099 15.3601 19.0464 15.8141 19.3478C16.2681 19.6493 16.8053 19.8005 17.3499 19.78L16.6899 19.1C16.4099 18.83 16.1399 18.56 15.8899 18.27C15.6207 17.9467 15.4897 17.5303 15.5252 17.111C15.5608 16.6918 15.7601 16.3034 16.0799 16.03C16.3671 15.7348 16.7572 15.5617 17.1689 15.5468C17.5805 15.5319 17.9821 15.6763 18.2899 15.95C18.5099 16.15 18.7199 16.36 18.9199 16.57L19.3599 17.01L19.7399 17.37C19.7746 16.8887 19.6742 16.4073 19.4499 15.98C19.1544 15.4736 18.7009 15.0781 18.159 14.8541C17.6171 14.6302 17.0167 14.5901 16.4499 14.74C16.2953 14.805 16.1247 14.8216 15.9604 14.7877C15.7962 14.7538 15.6461 14.6709 15.5299 14.55C13.5232 12.5034 11.4966 10.48 9.4499 8.48003C9.33558 8.37446 9.25546 8.23711 9.21982 8.08564C9.18418 7.93417 9.19465 7.7755 9.24991 7.63003C9.37378 7.24593 9.40126 6.83725 9.32991 6.44003C9.25574 5.94135 9.03873 5.47482 8.70511 5.09682C8.37148 4.71883 7.93551 4.44556 7.4499 4.31003C7.17901 4.24081 6.89794 4.2205 6.61991 4.25003L7.85991 5.46003L8.0999 5.72003C8.30967 5.97736 8.43476 6.29325 8.45804 6.62443C8.48131 6.95561 8.40163 7.28589 8.22991 7.57003C8.0966 7.80384 7.91058 8.00333 7.68664 8.15263C7.46269 8.30192 7.20701 8.39691 6.93991 8.43003C6.67809 8.46159 6.41252 8.42994 6.16545 8.33773C5.91838 8.24551 5.69701 8.09542 5.5199 7.90003L4.2399 6.61003C4.21519 7.0304 4.29334 7.45046 4.46759 7.83381C4.64184 8.21716 4.90693 8.55225 5.2399 8.81003C5.57998 9.07665 5.98053 9.25535 6.4061 9.33035C6.83168 9.40535 7.26917 9.37433 7.67991 9.24003C7.7544 9.197 7.83549 9.16659 7.9199 9.15003Z" fill="#FF6961"/>
</g>
<defs>
<clipPath id="clip0_2077_14666">
<rect width="24" height="24" fill="white"/>
</clipPath>
</defs>
</svg>
