<svg width="24" height="24" viewBox="0 0 24 24" fill="none" xmlns="http://www.w3.org/2000/svg">
<g clip-path="url(#clip0_2077_14687)">
<path d="M15.8599 21.1601C15.697 21.1548 15.5369 21.1166 15.3891 21.0479C15.2413 20.9792 15.1089 20.8813 14.9999 20.7601L12.8899 18.6401C12.7787 18.5246 12.7166 18.3705 12.7166 18.2101C12.7166 18.0498 12.7787 17.8956 12.8899 17.7801C12.9439 17.7248 13.0085 17.6808 13.0797 17.6508C13.151 17.6208 13.2276 17.6053 13.3049 17.6053C13.3822 17.6053 13.4588 17.6208 13.5301 17.6508C13.6013 17.6808 13.6659 17.7248 13.7199 17.7801L14.4999 18.5801L15.8299 19.9001L20.1399 15.6001L18.6599 14.1201L18.5299 14.0101C18.4193 13.8963 18.3575 13.7438 18.3575 13.5851C18.3575 13.4264 18.4193 13.274 18.5299 13.1601C18.5856 13.1042 18.6519 13.0598 18.7248 13.0295C18.7977 12.9992 18.8759 12.9836 18.9549 12.9836C19.0339 12.9836 19.1121 12.9992 19.185 13.0295C19.2579 13.0598 19.3242 13.1042 19.3799 13.1601L18.9999 13.5201L19.4599 13.1301L19.5699 13.2301L20.9999 14.7401C21.135 14.8458 21.2443 14.9809 21.3194 15.1351C21.3946 15.2893 21.4336 15.4586 21.4336 15.6301C21.4336 15.8017 21.3946 15.9709 21.3194 16.1251C21.2443 16.2793 21.135 16.4144 20.9999 16.5201L16.7099 20.8101C16.4836 21.0341 16.1782 21.1598 15.8599 21.1601Z" fill="#FF6961"/>
<path d="M8.0999 21.16C7.93445 21.1554 7.77175 21.1166 7.62203 21.046C7.47231 20.9754 7.3388 20.8747 7.2299 20.75L2.9999 16.52C2.93808 16.4615 2.88122 16.398 2.8299 16.33C2.71261 16.203 2.63902 16.0418 2.6199 15.87V15.43C2.61916 15.3523 2.6338 15.2751 2.66297 15.2031C2.69215 15.131 2.73528 15.0654 2.7899 15.01L4.5999 13.17C4.65479 13.1144 4.72018 13.0702 4.79228 13.0401C4.86438 13.0099 4.94175 12.9944 5.0199 12.9944C5.09805 12.9944 5.17542 13.0099 5.24752 13.0401C5.31962 13.0702 5.38501 13.1144 5.4399 13.17C5.49584 13.2258 5.54022 13.292 5.5705 13.3649C5.60078 13.4379 5.61637 13.5161 5.61637 13.595C5.61637 13.674 5.60078 13.7522 5.5705 13.8251C5.54022 13.8981 5.49584 13.9643 5.4399 14.02L3.7899 15.62L8.0599 19.89L10.5899 17.37L10.7199 17.22C10.8848 16.9944 11.1053 16.8153 11.3599 16.7C11.6294 16.6064 11.9175 16.579 12.1999 16.62H12.4099C12.7834 16.6342 13.1556 16.5673 13.5008 16.4241C13.846 16.2808 14.1562 16.0645 14.4099 15.79L15.3499 14.85L16.4499 13.75L17.8399 12.36C17.9271 12.2778 17.9965 12.1786 18.044 12.0685C18.0914 11.9585 18.1159 11.8399 18.1159 11.72C18.1159 11.6002 18.0914 11.4816 18.044 11.3715C17.9965 11.2615 17.9271 11.1623 17.8399 11.08C17.7643 11.0113 17.6842 10.9478 17.5999 10.89L17.4199 10.77C17.3169 10.6939 17.241 10.5869 17.2032 10.4645C17.1654 10.3422 17.1678 10.2109 17.2099 10.09C17.2999 9.87229 17.2999 9.62776 17.2099 9.41003C17.162 9.29719 17.0923 9.19493 17.0048 9.10912C16.9173 9.02331 16.8137 8.95565 16.6999 8.91003C16.5697 8.84527 16.4669 8.73613 16.4101 8.60228C16.3532 8.46844 16.3461 8.31868 16.3899 8.18003C16.4368 8.06457 16.4603 7.94093 16.459 7.8163C16.4577 7.69167 16.4317 7.56855 16.3824 7.45409C16.333 7.33963 16.2614 7.23612 16.1718 7.14959C16.0821 7.06305 15.9761 6.99521 15.8599 6.95003C15.7377 6.88989 15.64 6.78932 15.5835 6.66537C15.527 6.54142 15.5151 6.40174 15.5499 6.27003H16.1599L15.5799 6.12003C15.6423 5.92822 15.6377 5.72091 15.5669 5.53207C15.496 5.34322 15.3631 5.18404 15.19 5.0806C15.0168 4.97717 14.8136 4.93563 14.6138 4.96278C14.4139 4.98992 14.2292 5.08415 14.0899 5.23003L13.7799 5.53003L13.4799 5.83003L13.1799 6.10003L13.0399 6.22003C12.9197 6.32416 12.7635 6.3772 12.6047 6.36786C12.446 6.35852 12.2971 6.28754 12.1899 6.17003C12.1377 6.11043 12.0978 6.04108 12.0726 5.96599C12.0474 5.8909 12.0372 5.81155 12.0428 5.73252C12.0484 5.6535 12.0696 5.57636 12.1051 5.50557C12.1406 5.43477 12.1899 5.37171 12.2499 5.32003L12.3999 5.19003L12.6499 4.97003L12.9299 4.69003L13.2599 4.36003C13.572 4.06041 13.969 3.86449 14.3967 3.79906C14.8243 3.73363 15.2618 3.80188 15.6492 3.99449C16.0365 4.18709 16.355 4.49465 16.561 4.8751C16.767 5.25556 16.8504 5.69035 16.7999 6.12003C17.0982 6.34094 17.3329 6.63662 17.4804 6.97724C17.6279 7.31785 17.6829 7.69135 17.6399 8.06003C17.9401 8.28001 18.1751 8.5772 18.3199 8.92003C18.4708 9.26219 18.5228 9.63982 18.4699 10.01C18.551 10.0679 18.6278 10.1313 18.6999 10.2C18.9007 10.3948 19.0603 10.628 19.1693 10.8857C19.2784 11.1433 19.3345 11.4203 19.3345 11.7C19.3345 11.9798 19.2784 12.2567 19.1693 12.5144C19.0603 12.7721 18.9007 13.0052 18.6999 13.2C18.2399 13.67 17.7799 14.14 17.3099 14.6L16.2099 15.7L15.2799 16.64C14.9152 17.018 14.4767 17.3169 13.9915 17.5182C13.5064 17.7194 12.9851 17.8188 12.4599 17.81H11.8599C11.7957 17.8728 11.7356 17.9396 11.6799 18.01L11.4899 18.22L8.9999 20.75C8.88604 20.8765 8.74738 20.9781 8.59254 21.0486C8.43771 21.1192 8.27002 21.1571 8.0999 21.16Z" fill="#1B4A52"/>
<path d="M7.00012 14.26C6.57836 14.2616 6.17142 14.1045 5.86012 13.82C5.54012 13.52 5.24012 13.21 4.94012 12.9C4.66496 12.6159 4.49745 12.2448 4.46642 11.8506C4.4354 11.4563 4.54279 11.0636 4.77012 10.74C4.96865 10.4643 5.24315 10.2523 5.56012 10.13C5.43026 9.77136 5.43026 9.37857 5.56012 9.01997C5.63903 8.7878 5.77025 8.57687 5.94364 8.40348C6.11703 8.23009 6.32795 8.09888 6.56012 8.01997C6.47026 7.77175 6.44242 7.50534 6.47902 7.24391C6.51562 6.98248 6.61555 6.73396 6.77012 6.51997C7.0006 6.16433 7.35837 5.91031 7.77012 5.80997C7.76012 5.70019 7.76012 5.58974 7.77012 5.47996C7.79602 5.16083 7.91152 4.85549 8.10332 4.59911C8.29513 4.34273 8.55544 4.14573 8.85428 4.03079C9.15313 3.91585 9.47836 3.88765 9.79253 3.94942C10.1067 4.01119 10.397 4.16044 10.6301 4.37997C11.0801 4.79997 11.5101 5.23996 11.9401 5.67996L12.8701 6.60997C13.1687 6.89932 13.3509 7.28808 13.3822 7.70269C13.4136 8.11731 13.2918 8.52903 13.0401 8.85997C12.8988 9.05478 12.7162 9.21589 12.5052 9.33173C12.2943 9.44757 12.0603 9.51527 11.8201 9.52996C11.7831 9.96894 11.5791 10.377 11.2501 10.67C10.9778 10.928 10.6243 11.0835 10.2501 11.11C10.21 11.5144 10.0304 11.8923 9.74215 12.1788C9.45384 12.4653 9.07482 12.6425 8.67012 12.68C8.68052 12.773 8.68052 12.8669 8.67012 12.96C8.59662 13.2468 8.4503 13.5099 8.24533 13.7236C8.04035 13.9373 7.78366 14.0945 7.50012 14.18C7.33852 14.232 7.16989 14.259 7.00012 14.26ZM6.17012 11.26C6.08841 11.2588 6.0076 11.2772 5.93451 11.3138C5.86142 11.3503 5.79818 11.4039 5.75012 11.47C5.6813 11.566 5.64948 11.6836 5.66051 11.8012C5.67153 11.9188 5.72466 12.0284 5.81012 12.11C6.08012 12.4 6.37012 12.7 6.67012 12.97C6.73487 13.0278 6.81356 13.0677 6.89843 13.0859C6.9833 13.104 7.07145 13.0998 7.15418 13.0736C7.23692 13.0473 7.3114 13 7.3703 12.9363C7.4292 12.8725 7.4705 12.7945 7.49012 12.71C7.51001 12.632 7.51317 12.5507 7.49938 12.4714C7.48559 12.3921 7.45517 12.3166 7.41012 12.25C7.34071 12.1366 7.31091 12.0034 7.32539 11.8713C7.33987 11.7392 7.39781 11.6156 7.49012 11.52C7.58159 11.4289 7.69962 11.3691 7.8272 11.3493C7.95479 11.3296 8.08536 11.3508 8.20012 11.41C8.58012 11.61 8.75012 11.51 8.87012 11.41C8.99012 11.31 9.18012 11.1 8.94012 10.64C8.8814 10.5261 8.86134 10.3962 8.88299 10.2699C8.90464 10.1436 8.96682 10.0278 9.06012 9.93996C9.14945 9.84846 9.26652 9.78904 9.39312 9.77096C9.51971 9.75287 9.64874 9.77713 9.76012 9.83996C10.1601 10.05 10.3201 9.94997 10.4601 9.83996C10.6001 9.72996 10.7501 9.51997 10.4601 9.07997C10.402 8.96735 10.3804 8.83944 10.3983 8.714C10.4163 8.58855 10.4728 8.4718 10.5601 8.37997C10.6497 8.28939 10.7653 8.22911 10.8909 8.20759C11.0164 8.18607 11.1455 8.20438 11.2601 8.25997L11.3701 8.31996C11.424 8.36002 11.4852 8.38907 11.5502 8.40547C11.6153 8.42187 11.683 8.4253 11.7494 8.41555C11.8158 8.4058 11.8796 8.38306 11.9372 8.34865C11.9948 8.31423 12.0451 8.26881 12.0851 8.21496C12.1252 8.16112 12.1542 8.09992 12.1706 8.03485C12.187 7.96978 12.1904 7.90211 12.1807 7.83572C12.1709 7.76933 12.1482 7.7055 12.1138 7.64789C12.0794 7.59029 12.034 7.54002 11.9801 7.49996L11.1101 6.51997C10.6801 6.08997 10.2601 5.65997 9.82012 5.23997C9.75679 5.16778 9.67064 5.11947 9.57602 5.10309C9.4814 5.08672 9.38402 5.10326 9.30012 5.14997C9.20772 5.17785 9.12673 5.2347 9.06911 5.31213C9.01149 5.38955 8.98029 5.48345 8.98012 5.57997C8.98012 5.69997 8.98012 5.84997 9.22012 6.07997C9.31957 6.17286 9.38386 6.29727 9.40208 6.43213C9.42031 6.56699 9.39135 6.70401 9.32012 6.81996C9.2531 6.93659 9.14762 7.0263 9.02175 7.07373C8.89588 7.12116 8.75744 7.12336 8.63012 7.07997H8.48012C8.36373 7.01452 8.22751 6.99366 8.09687 7.02126C7.96623 7.04886 7.85009 7.12304 7.77012 7.22996C7.70211 7.34143 7.67679 7.47377 7.69885 7.60247C7.72091 7.73117 7.78886 7.84752 7.89012 7.92997L8.06012 8.06996L8.18012 8.17997C8.2784 8.26407 8.34631 8.37813 8.37342 8.50461C8.40052 8.63109 8.38531 8.76298 8.33012 8.87997C8.27829 8.99895 8.18805 9.09712 8.07383 9.15876C7.95962 9.2204 7.82803 9.24195 7.70012 9.21997H7.43012C7.32741 9.20385 7.22282 9.20385 7.12012 9.21997C7.02621 9.22121 6.93529 9.25317 6.86125 9.31095C6.78722 9.36873 6.73413 9.44917 6.71012 9.53997C6.66639 9.63199 6.65444 9.73592 6.67616 9.83546C6.69788 9.93501 6.75203 10.0245 6.83012 10.09L7.03012 10.26L7.16012 10.38C7.27697 10.4823 7.34955 10.626 7.36261 10.7808C7.37566 10.9356 7.32817 11.0895 7.23012 11.21C7.14193 11.3151 7.02476 11.3921 6.89319 11.4312C6.76162 11.4703 6.62145 11.4699 6.49012 11.43H6.37012C6.32202 11.341 6.24904 11.2681 6.16012 11.22L6.17012 11.26Z" fill="#FF6961"/>
<path d="M11.05 4.72991C10.9135 4.73187 10.7803 4.68719 10.6726 4.60325C10.5649 4.51931 10.489 4.40114 10.4576 4.26825C10.4261 4.13537 10.4409 3.99572 10.4995 3.87239C10.5581 3.74905 10.6571 3.64941 10.78 3.58991L12 2.97991C12.2203 2.85903 12.4746 2.81503 12.7227 2.85487C12.9709 2.89472 13.1986 3.01613 13.37 3.19991L13.55 3.35991L13.2 3.85991L12.8 4.29991C12.7072 4.22686 12.6202 4.14661 12.54 4.05991L12 4.31991H11.91L11.32 4.61991C11.2397 4.67686 11.1473 4.7145 11.05 4.72991Z" fill="#FF6961"/>
</g>
<defs>
<clipPath id="clip0_2077_14687">
<rect width="24" height="24" fill="white"/>
</clipPath>
</defs>
</svg>
