<svg width="48" height="48" viewBox="0 0 48 48" fill="none" xmlns="http://www.w3.org/2000/svg">
<g clip-path="url(#clip0_893_9730)">
<path d="M16.0999 20.44C15.2763 20.444 14.4701 20.2034 13.7833 19.7487C13.0966 19.294 12.5603 18.6457 12.2424 17.8859C11.9244 17.1261 11.8392 16.289 11.9974 15.4808C12.1557 14.6725 12.5503 13.9294 13.1313 13.3456C13.7123 12.7618 14.4535 12.3636 15.261 12.2015C16.0685 12.0393 16.9059 12.1205 17.6672 12.4348C18.4285 12.7491 19.0794 13.2822 19.5374 13.9668C19.9954 14.6513 20.2399 15.4564 20.2399 16.28C20.2399 17.3799 19.8044 18.4349 19.0286 19.2145C18.2527 19.9941 17.1998 20.4347 16.0999 20.44ZM16.0999 14.44C15.7502 14.4361 15.4071 14.5364 15.1147 14.7283C14.8222 14.9201 14.5935 15.1948 14.4578 15.5172C14.3222 15.8396 14.2856 16.1951 14.3529 16.5384C14.4202 16.8816 14.5882 17.1971 14.8355 17.4444C15.0829 17.6917 15.3983 17.8598 15.7416 17.927C16.0848 17.9943 16.4403 17.9578 16.7627 17.8221C17.0851 17.6864 17.3598 17.4577 17.5517 17.1653C17.7435 16.8728 17.8439 16.5298 17.8399 16.18C17.8144 15.7361 17.6198 15.3188 17.2962 15.0138C16.9727 14.7088 16.5446 14.5393 16.0999 14.54V14.44Z" fill="#FF6961"/>
<path d="M31.02 19.02C30.2289 19.02 29.4555 18.7854 28.7977 18.3459C28.1399 17.9064 27.6273 17.2817 27.3245 16.5508C27.0218 15.8198 26.9425 15.0156 27.0969 14.2397C27.2512 13.4637 27.6322 12.751 28.1916 12.1916C28.751 11.6322 29.4637 11.2512 30.2397 11.0969C31.0156 10.9425 31.8199 11.0218 32.5508 11.3245C33.2817 11.6273 33.9064 12.1399 34.3459 12.7977C34.7854 13.4555 35.02 14.2289 35.02 15.02C35.02 16.0809 34.5986 17.0983 33.8484 17.8485C33.0983 18.5986 32.0809 19.02 31.02 19.02ZM31.02 13.48C30.7059 13.4761 30.3977 13.5659 30.1348 13.738C29.8719 13.91 29.6663 14.1566 29.5442 14.4461C29.4222 14.7356 29.3892 15.0549 29.4495 15.3633C29.5099 15.6716 29.6608 15.955 29.8829 16.1771C30.1051 16.3993 30.3884 16.5502 30.6968 16.6105C31.0051 16.6708 31.3244 16.6379 31.614 16.5158C31.9035 16.3937 32.15 16.1881 32.3221 15.9253C32.4942 15.6624 32.584 15.3542 32.58 15.04C32.5937 14.8269 32.5635 14.6132 32.4913 14.4123C32.419 14.2113 32.3063 14.0273 32.16 13.8717C32.0138 13.7161 31.8371 13.5921 31.641 13.5076C31.4449 13.423 31.2336 13.3796 31.02 13.38V13.48Z" fill="#FF6961"/>
<path d="M32.1001 35.02C31.309 35.02 30.5356 34.7854 29.8778 34.3459C29.22 33.9064 28.7073 33.2817 28.4046 32.5508C28.1018 31.8198 28.0226 31.0156 28.177 30.2397C28.3313 29.4637 28.7123 28.751 29.2717 28.1916C29.8311 27.6322 30.5438 27.2512 31.3197 27.0969C32.0957 26.9425 32.8999 27.0218 33.6308 27.3245C34.3617 27.6273 34.9865 28.1399 35.426 28.7977C35.8655 29.4555 36.1001 30.2289 36.1001 31.02C36.1001 32.0809 35.6787 33.0983 34.9285 33.8485C34.1784 34.5986 33.161 35.02 32.1001 35.02ZM32.1001 29.48C31.7859 29.4761 31.4777 29.5659 31.2149 29.738C30.952 29.91 30.7464 30.1566 30.6243 30.4461C30.5023 30.7356 30.4693 31.0549 30.5296 31.3633C30.5899 31.6716 30.7408 31.955 30.963 32.1771C31.1852 32.3993 31.4685 32.5502 31.7769 32.6105C32.0852 32.6708 32.4045 32.6379 32.694 32.5158C32.9835 32.3937 33.2301 32.1881 33.4022 31.9253C33.5742 31.6624 33.6641 31.3542 33.6601 31.04C33.6627 30.8335 33.6244 30.6285 33.5471 30.4369C33.4699 30.2453 33.3554 30.071 33.2103 29.924C33.0652 29.777 32.8923 29.6603 32.7017 29.5807C32.5112 29.501 32.3067 29.46 32.1001 29.46V29.48Z" fill="#FF6961"/>
<path d="M13.9999 29.76C13.3353 29.76 12.6857 29.5629 12.1332 29.1937C11.5806 28.8245 11.15 28.2998 10.8957 27.6858C10.6413 27.0718 10.5748 26.3962 10.7045 25.7445C10.8341 25.0927 11.1541 24.494 11.624 24.0241C12.0939 23.5542 12.6926 23.2342 13.3444 23.1045C13.9962 22.9749 14.6718 23.0414 15.2857 23.2957C15.8997 23.5501 16.4244 23.9807 16.7936 24.5333C17.1628 25.0858 17.3599 25.7354 17.3599 26.4C17.3599 27.2911 17.0059 28.1457 16.3758 28.7759C15.7457 29.406 14.891 29.76 13.9999 29.76ZM13.9999 25.44C13.7453 25.44 13.5011 25.5411 13.3211 25.7212C13.141 25.9012 13.0399 26.1454 13.0399 26.4C13.0372 26.5268 13.0601 26.6529 13.1074 26.7706C13.1547 26.8883 13.2253 26.9952 13.315 27.0849C13.4047 27.1746 13.5116 27.2452 13.6293 27.2925C13.747 27.3397 13.8731 27.3627 13.9999 27.36C14.126 27.36 14.2508 27.3351 14.3673 27.2869C14.4837 27.2387 14.5896 27.1679 14.6787 27.0788C14.7679 26.9897 14.8386 26.8838 14.8868 26.7674C14.9351 26.6509 14.9599 26.526 14.9599 26.4C14.9548 26.147 14.852 25.9057 14.6731 25.7268C14.4941 25.5479 14.2529 25.4451 13.9999 25.44Z" fill="#FF6961"/>
<path d="M16.0999 27.6C15.808 27.5765 15.5346 27.4471 15.3315 27.236C15.1284 27.025 15.0094 26.7469 14.9972 26.4542C14.9849 26.1616 15.08 25.8745 15.2647 25.6472C15.4495 25.4198 15.711 25.2679 15.9999 25.22L22.3799 24.56C22.5366 24.5406 22.6956 24.5528 22.8474 24.5959C22.9993 24.639 23.1409 24.7121 23.264 24.811C23.3871 24.9098 23.4891 25.0323 23.564 25.1713C23.6388 25.3103 23.6851 25.4628 23.6999 25.62C23.7336 25.9355 23.641 26.2514 23.4424 26.4988C23.2437 26.7461 22.9552 26.9048 22.6399 26.94L16.2599 27.6H16.0999Z" fill="#FF6961"/>
<path d="M22.4599 23.02C22.2007 23.0172 21.949 22.9333 21.7399 22.78L17.3799 19.36C17.1147 19.1664 16.9373 18.8754 16.8866 18.5509C16.836 18.2265 16.9163 17.8952 17.1099 17.63C17.3035 17.3648 17.5946 17.1873 17.919 17.1367C18.2435 17.0861 18.5747 17.1664 18.8399 17.36L23.1999 20.82C23.4515 21.0139 23.6159 21.2996 23.6571 21.6145C23.6983 21.9294 23.613 22.2479 23.4199 22.5C23.3102 22.6542 23.1666 22.7812 23.0002 22.8713C22.8338 22.9615 22.649 23.0123 22.4599 23.02Z" fill="#FF6961"/>
<path d="M27.54 23.02C27.335 23.0262 27.1329 22.9704 26.96 22.86C26.8214 22.7832 26.6996 22.6793 26.602 22.5545C26.5044 22.4297 26.4329 22.2864 26.3919 22.1334C26.3508 21.9803 26.341 21.8206 26.363 21.6636C26.385 21.5067 26.4384 21.3558 26.52 21.22L28.96 17.02C29.0368 16.8813 29.1407 16.7596 29.2655 16.662C29.3904 16.5643 29.5336 16.4929 29.6866 16.4518C29.8397 16.4107 29.9994 16.4009 30.1564 16.4229C30.3133 16.445 30.4642 16.4984 30.6 16.58C30.872 16.7426 31.07 17.0048 31.1522 17.3109C31.2343 17.617 31.1941 17.943 31.04 18.22L28.6 22.36C28.4992 22.5553 28.3475 22.7197 28.1609 22.8359C27.9743 22.952 27.7598 23.0157 27.54 23.02Z" fill="#FF6961"/>
<path d="M30 30.44C29.8254 30.4412 29.6525 30.4042 29.4936 30.3317C29.3347 30.2591 29.1936 30.1528 29.08 30.02L26.64 27.2C26.4305 26.9587 26.3255 26.644 26.348 26.3252C26.3705 26.0064 26.5187 25.7096 26.76 25.5C27.0014 25.2905 27.3161 25.1854 27.6349 25.2079C27.9537 25.2305 28.2505 25.3787 28.46 25.62L30.9 28.46C31.0038 28.5776 31.0832 28.7146 31.1334 28.8632C31.1836 29.0117 31.2038 29.1688 31.1926 29.3252C31.1814 29.4816 31.1392 29.6342 31.0683 29.7742C30.9975 29.9141 30.8995 30.0384 30.78 30.14C30.5663 30.3335 30.2883 30.4404 30 30.44Z" fill="#FF6961"/>
<path d="M25.0201 28.2C24.1411 28.204 23.2807 27.947 22.5479 27.4615C21.8151 26.976 21.2429 26.284 20.9038 25.473C20.5647 24.6621 20.4739 23.7687 20.6429 22.9061C20.812 22.0436 21.2333 21.2506 21.8534 20.6276C22.4736 20.0047 23.2647 19.5798 24.1265 19.4069C24.9883 19.2339 25.8821 19.3207 26.6945 19.6561C27.507 19.9916 28.2016 20.5606 28.6904 21.2912C29.1791 22.0218 29.4401 22.881 29.4401 23.76C29.4401 24.9341 28.975 26.0604 28.1467 26.8925C27.3184 27.7246 26.1942 28.1947 25.0201 28.2ZM25.0201 21.72C24.6245 21.72 24.2378 21.8373 23.9089 22.0571C23.58 22.2769 23.3237 22.5892 23.1723 22.9547C23.0209 23.3201 22.9813 23.7222 23.0585 24.1102C23.1357 24.4982 23.3261 24.8545 23.6058 25.1342C23.8856 25.4139 24.2419 25.6044 24.6299 25.6816C25.0178 25.7588 25.42 25.7192 25.7854 25.5678C26.1509 25.4164 26.4632 25.1601 26.683 24.8312C26.9028 24.5023 27.0201 24.1156 27.0201 23.72C27.0201 23.1896 26.8093 22.6809 26.4343 22.3058C26.0592 21.9307 25.5505 21.72 25.0201 21.72Z" fill="#FF6961"/>
<path d="M24.0001 42.52C20.3055 42.52 16.6939 41.4244 13.622 39.3718C10.5501 37.3192 8.15585 34.4018 6.74201 30.9885C5.32816 27.5752 4.95824 23.8193 5.67901 20.1957C6.39978 16.5721 8.17888 13.2437 10.7913 10.6312C13.4038 8.01878 16.7322 6.23968 20.3558 5.51891C23.9794 4.79814 27.7353 5.16807 31.1486 6.58191C34.5619 7.99576 37.4793 10.39 39.5319 13.4619C41.5845 16.5338 42.6801 20.1454 42.6801 23.84C42.6748 28.7926 40.705 33.5409 37.203 37.0429C33.701 40.5449 28.9527 42.5147 24.0001 42.52ZM24.0001 7.55998C20.7802 7.55998 17.6326 8.51479 14.9554 10.3037C12.2782 12.0925 10.1915 14.6351 8.95932 17.6099C7.72712 20.5847 7.40473 23.858 8.03289 27.0161C8.66106 30.1741 10.2116 33.0749 12.4884 35.3517C14.7652 37.6285 17.666 39.179 20.824 39.8072C23.982 40.4353 27.2554 40.1129 30.2302 38.8807C33.2049 37.6485 35.7475 35.5619 37.5364 32.8847C39.3253 30.2074 40.2801 27.0599 40.2801 23.84C40.2748 19.5239 38.5579 15.3861 35.5059 12.3341C32.454 9.28218 28.3162 7.56527 24.0001 7.55998Z" fill="#1B4A52"/>
</g>
<defs>
<clipPath id="clip0_893_9730">
<rect width="48" height="48" fill="white"/>
</clipPath>
</defs>
</svg>
