<svg width="37" height="33" viewBox="0 0 37 33" fill="none" xmlns="http://www.w3.org/2000/svg">
<path opacity="0.4" d="M14.9534 31.1625L16.2827 28.3364C16.498 27.8866 16.5226 27.3713 16.3512 26.9037C16.1798 26.4361 15.8263 26.0545 15.3685 25.8428C13.3037 24.925 11.761 23.7628 10.7403 22.3562C9.4482 20.5754 8.76644 18.2063 8.69502 15.249H14.066C14.5616 15.2429 15.0344 15.0439 15.3806 14.6955C15.7268 14.3472 15.918 13.8781 15.9122 13.3913V2.09007C15.918 1.6036 15.727 1.13475 15.3812 0.786461C15.0354 0.438168 14.563 0.238892 14.0678 0.232384H2.84403C2.34853 0.238523 1.87578 0.437637 1.52966 0.785971C1.18354 1.1343 0.992378 1.60336 0.998173 2.09007L0.998173 10.9747C0.998173 15.3231 1.37862 18.7527 2.13952 21.2635C2.93506 23.8346 4.38766 26.1629 6.35891 28.0263C8.15438 29.7333 10.2526 31.1034 12.5499 32.0689C12.7818 32.1701 13.0328 32.2225 13.2867 32.2227C13.6386 32.221 13.9827 32.1203 14.2781 31.9323C14.5735 31.7444 14.8079 31.4773 14.9534 31.1625ZM35.4913 31.1546L36.8166 28.3364C37.032 27.8866 37.0566 27.3713 36.8852 26.9037C36.7137 26.436 36.3602 26.0545 35.9024 25.8428C33.838 24.925 32.2955 23.7628 31.275 22.3562C29.9829 20.5754 29.3012 18.2063 29.2297 15.249H34.6022C35.0975 15.2426 35.5701 15.0434 35.916 14.6951C36.2619 14.3468 36.453 13.8779 36.4472 13.3913L36.4472 2.09007C36.453 1.6035 36.2619 1.13457 35.916 0.786264C35.5701 0.437954 35.0975 0.238745 34.6022 0.232384H23.3785C22.8829 0.238449 22.4101 0.437531 22.0639 0.785872C21.7177 1.13421 21.5265 1.60331 21.5323 2.09007L21.5323 10.9747C21.5323 15.3573 21.9128 18.7956 22.6737 21.2896C23.4778 23.8546 24.9395 26.1737 26.9185 28.0244C28.7109 29.7209 30.7981 31.0883 33.0814 32.0619C33.3135 32.1642 33.565 32.2172 33.8194 32.2173C34.1723 32.2157 34.5174 32.1147 34.8137 31.9263C35.11 31.738 35.3451 31.4702 35.4913 31.1546Z" fill="#B1CBCF"/>
<path d="M17.4127 21.7359L17.8874 20.7195C17.9643 20.5577 17.9731 20.3724 17.9118 20.2042C17.8506 20.0361 17.7244 19.8988 17.5609 19.8227C16.8235 19.4926 16.2726 19.0746 15.9081 18.5687C15.4467 17.9283 15.2032 17.0762 15.1777 16.0126H17.0958C17.2727 16.0104 17.4416 15.9388 17.5652 15.8136C17.6888 15.6883 17.7571 15.5196 17.7551 15.3445V11.28C17.7571 11.1051 17.6889 10.9364 17.5654 10.8112C17.4419 10.6859 17.2732 10.6142 17.0964 10.6119H13.0882C12.9113 10.6141 12.7424 10.6857 12.6188 10.811C12.4952 10.9363 12.427 11.105 12.429 11.28V14.4754C12.429 16.0393 12.5649 17.2727 12.8366 18.1757C13.1207 19.1004 13.6395 19.9378 14.3434 20.608C14.9846 21.2219 15.7339 21.7146 16.5543 22.0619C16.6372 22.0983 16.7268 22.1171 16.8174 22.1172C16.9431 22.1166 17.066 22.0804 17.1715 22.0128C17.277 21.9452 17.3607 21.8491 17.4127 21.7359ZM24.7471 21.7331L25.2204 20.7195C25.2973 20.5577 25.3061 20.3724 25.2449 20.2042C25.1836 20.036 25.0574 19.8988 24.8939 19.8227C24.1566 19.4926 23.6058 19.0746 23.2414 18.5687C22.7799 17.9283 22.5365 17.0762 22.511 16.0126H24.4296C24.6065 16.0103 24.7752 15.9387 24.8987 15.8134C25.0223 15.6882 25.0905 15.5195 25.0884 15.3445V11.28C25.0905 11.105 25.0223 10.9364 24.8987 10.8111C24.7752 10.6858 24.6065 10.6142 24.4296 10.6119H20.4214C20.2444 10.6141 20.0756 10.6857 19.9519 10.811C19.8283 10.9363 19.76 11.105 19.7621 11.28V14.4754C19.7621 16.0516 19.898 17.2882 20.1697 18.1851C20.4569 19.1076 20.9789 19.9417 21.6856 20.6073C22.3257 21.2174 23.0711 21.7092 23.8865 22.0594C23.9694 22.0962 24.0592 22.1152 24.15 22.1153C24.276 22.1147 24.3993 22.0784 24.5051 22.0106C24.6109 21.9429 24.6949 21.8466 24.7471 21.7331Z" fill="#00B5D5"/>
</svg>
