<svg width="91" height="93" viewBox="0 0 91 93" fill="none" xmlns="http://www.w3.org/2000/svg">
<path d="M0.899689 46.3151C0.949994 21.2632 21.2921 0.901465 46.2936 0.901465C63.8752 0.901465 79.7401 11.0067 87.2607 26.8044C87.4431 27.1826 87.0595 27.5798 86.6759 27.4159L84.6763 26.5585C84.4499 26.464 84.1858 26.5648 84.0852 26.7981C83.9909 27.025 84.0915 27.2898 84.3242 27.3907L88.424 29.1495C88.6629 29.2503 88.9396 29.1305 89.0277 28.8847L90.4802 24.661C90.562 24.4278 90.4362 24.1693 90.2035 24.0874C89.9709 24.0054 89.7131 24.1315 89.6313 24.3648L88.927 26.4198C88.795 26.7981 88.2731 26.8296 88.097 26.4703C80.4255 10.3259 64.2336 0 46.2936 0C20.8016 0 0.0570813 20.7715 0.000488281 46.3151H0.899689Z" fill="black"/>
<path d="M89.0209 63.7579C88.9328 63.5121 88.6562 63.386 88.4172 63.4932L84.3174 65.252C84.091 65.3465 83.9841 65.6113 84.0784 65.8445C84.179 66.0715 84.4431 66.1786 84.6695 66.0841L86.6691 65.2268C87.0527 65.0628 87.43 65.46 87.2539 65.8382C79.7333 81.6359 63.8621 91.7412 46.2868 91.7412C21.2853 91.7412 0.943217 71.3794 0.892913 46.3275H0V46.3338C0.0565931 71.8774 20.8011 92.6426 46.2931 92.6426C64.2394 92.6426 80.4313 82.3167 88.0902 66.1849C88.26 65.8256 88.7882 65.8571 88.9203 66.2354L89.6245 68.2905C89.7063 68.5237 89.9641 68.6498 90.1967 68.5678C90.4294 68.4859 90.5552 68.2274 90.4734 67.9942L89.0209 63.7579Z" fill="black"/>
<g clip-path="url(#clip0)">
<path d="M71.6874 28.1675C70.9714 25.3917 69.9229 23.4979 68.5676 22.5381C68.2991 22.3435 67.9283 22.3565 67.6598 22.564C67.3913 22.7715 67.3018 23.1347 67.4169 23.446C67.6087 23.9519 67.6343 24.354 67.4808 24.6913C67.1228 25.4955 65.7547 26.0013 64.6551 26.4164C64.5656 26.4423 64.4761 26.4812 64.3738 26.5072C62.1619 27.3373 60.3207 29.0884 59.5535 31.06C58.9654 32.5906 59.0421 34.173 59.7837 35.6388C60.6787 37.4028 62.9162 38.6869 65.1154 38.6869C66.0104 38.6869 66.8415 38.4794 67.5192 38.0643C69.1302 37.1045 70.7157 35.9241 71.3805 33.7839C72.0582 31.6826 72.1477 29.9575 71.6874 28.1675ZM69.9613 33.317C69.4754 34.8735 68.3375 35.8074 66.7776 36.7413C66.3301 37.0137 65.7547 37.1434 65.1282 37.1434C63.4916 37.1434 61.7783 36.1965 61.139 34.9383C60.5892 33.8617 60.5381 32.7462 60.9728 31.6178C61.5737 30.0612 63.108 28.6215 64.8981 27.947C64.9876 27.9081 65.0899 27.8821 65.1794 27.8432C66.5475 27.3373 68.248 26.7018 68.8617 25.3139C68.8745 25.2749 68.9001 25.236 68.9129 25.1971C69.4243 26.0402 69.859 27.1687 70.217 28.5566C70.6134 30.0612 70.5367 31.488 69.9613 33.317Z" fill="#303030"/>
<path d="M67.3788 43.2398C67.366 43.123 67.3021 43.0193 67.2126 42.9414C67.1231 42.8766 67.008 42.8506 66.8929 42.8636C66.65 42.9025 66.4838 43.123 66.5221 43.3695C66.7523 44.9649 66.6883 46.4695 66.3559 47.9612C66.3175 48.1428 66.2664 48.3244 66.2153 48.506C65.5376 50.9445 63.7987 55.0174 59.7456 55.0174C59.6177 55.0434 59.4898 55.0174 59.3492 55.0044C58.825 54.9655 58.2368 54.8618 57.4952 54.6672L57.0733 54.5505L57.3035 54.1743C60.1036 49.5566 62.2644 44.5628 63.5813 41.1903C63.6197 41.0866 63.6197 40.9569 63.5813 40.8531C63.5302 40.7493 63.4535 40.6585 63.3384 40.6196C63.2361 40.5807 63.1083 40.5807 63.006 40.6196C62.9037 40.6715 62.8142 40.7493 62.7758 40.8661C62.0087 42.8247 61.1776 44.7703 60.3081 46.6382L60.1675 46.9365L59.8734 46.7938C59.8479 46.7808 59.8095 46.7679 59.7839 46.7549C58.4286 46.4177 57.866 45.9377 56.8432 45.0557L56.2934 44.5758L56.434 44.3423C57.4952 42.5004 58.646 40.5548 59.8734 38.5313C59.9374 38.4275 59.9501 38.3108 59.9246 38.1941C59.899 38.0773 59.8223 37.9865 59.7328 37.9217C59.5282 37.792 59.2597 37.8568 59.1318 38.0643C57.4057 40.892 54.1198 46.4436 51.4219 51.7487C51.2685 52.0471 51.1151 52.3454 50.9744 52.6437L50.8721 52.8383L50.6548 52.8253C48.9287 52.6826 47.5734 53.0977 46.4866 54.0835C44.3513 56.0162 44.0828 58.753 43.8527 61.1786C43.5841 63.8766 43.3412 66.4319 40.7073 67.7549C37.8561 69.1947 35.3372 69.5449 32.8184 68.8315C31.2202 68.3905 29.4046 67.8327 27.947 66.8599C22.5001 63.2151 19.5722 54.5375 19.5722 48.2466C19.5722 34.7957 30.5041 23.8871 43.8399 24.1724C48.6346 24.2762 53.2759 25.8716 57.2267 28.7771C57.4185 28.9198 57.687 28.8809 57.8405 28.6734C57.9044 28.5826 57.93 28.4658 57.9172 28.3491C57.9044 28.2323 57.8405 28.1286 57.7382 28.0637C53.6339 25.0545 48.8264 23.4071 43.8527 23.2904C43.6737 23.2904 43.4819 23.2904 43.3029 23.2904C36.7309 23.2904 30.5425 25.8846 25.9012 30.606C21.2599 35.3275 18.6899 41.5925 18.6899 48.2595C18.6899 51.645 19.4955 55.5362 20.9147 58.9346C22.0399 61.6585 24.0984 65.3682 27.4611 67.6122C29.021 68.6629 30.9261 69.2336 32.5755 69.7006C35.35 70.4788 37.9967 70.1156 41.0909 68.5591C44.1467 67.0156 44.4408 64.0971 44.7093 61.2694C44.9522 58.792 45.1824 56.4572 47.0619 54.745C47.8163 54.0576 48.7625 53.7073 49.926 53.6944L50.4502 53.6814L50.22 54.1613C47.8035 59.22 46.7039 62.6962 46.9852 64.4862C47.0108 64.6289 47.1003 64.7586 47.2281 64.8105C47.356 64.8754 47.5094 64.8624 47.6373 64.7975C50.6036 63.1243 53.5827 60.0112 56.4724 55.5362L56.6002 55.3417L56.8304 55.4065C57.8277 55.7049 58.6204 55.8605 59.2981 55.8994C61.3438 56.0162 63.0571 55.3157 64.4636 53.7852C65.576 52.5789 66.471 50.8408 67.0463 48.7524C67.0975 48.5579 67.1486 48.3633 67.187 48.1817C67.5578 46.5863 67.6217 44.926 67.3788 43.2398ZM55.4879 55.4065C53.148 58.9736 50.7443 61.6196 48.3789 63.2799L47.7652 63.708L47.8802 62.9686C48.1743 61.0489 49.2995 58.0396 51.2429 54.0316L51.3452 53.8111L51.5881 53.85C52.7133 54.0576 53.8896 54.4467 55.0276 54.8228L55.718 55.0434L55.4879 55.4065ZM56.3445 54.0705L56.2166 54.2781L55.3088 53.9797C54.2732 53.6425 53.212 53.2923 52.1763 53.0588L51.7671 52.968L51.9589 52.5918C53.0202 50.4646 54.2732 48.1428 55.6669 45.6913L55.8586 45.354L56.2934 45.7302C57.3162 46.6122 57.9939 47.1829 59.4515 47.5721L59.8351 47.6758L59.6561 48.039C58.7355 49.9068 57.7893 51.6709 56.8432 53.2663C56.6642 53.5387 56.4979 53.7981 56.3445 54.0705Z" fill="#303030" stroke="#303030" stroke-width="0.199375" stroke-miterlimit="10"/>
<path d="M34.2245 64.5381C36.4876 64.5381 38.3288 62.6702 38.3288 60.3744C38.3288 58.0785 36.4876 56.2107 34.2245 56.2107C31.9614 56.2107 30.1202 58.0785 30.1202 60.3744C30.1202 62.6702 31.9614 64.5381 34.2245 64.5381ZM34.2245 57.7542C35.6565 57.7542 36.8201 58.9346 36.8201 60.3873C36.8201 61.8401 35.6565 63.0205 34.2245 63.0205C32.7925 63.0205 31.629 61.8401 31.629 60.3873C31.6418 58.9216 32.7925 57.7542 34.2245 57.7542Z" fill="#303030"/>
<path d="M23.2927 48.9861C23.2927 51.4765 25.2873 53.5 27.7422 53.5C30.1971 53.5 32.1917 51.4765 32.1917 48.9861C32.1917 46.4956 30.1971 44.4722 27.7422 44.4722C25.2873 44.4722 23.2927 46.4956 23.2927 48.9861ZM27.7294 46.0027C29.3405 46.0027 30.6574 47.3388 30.6574 48.9731C30.6574 50.6074 29.3405 51.9434 27.7294 51.9434C26.1184 51.9434 24.8015 50.6074 24.8015 48.9731C24.8015 47.3388 26.1184 46.0027 27.7294 46.0027Z" fill="#303030"/>
<path d="M35.9126 36.7413C35.9126 34.0564 33.7518 31.8643 31.1051 31.8643C28.4584 31.8643 26.2976 34.0564 26.2976 36.7413C26.2976 39.4263 28.4584 41.6184 31.1051 41.6184C33.7518 41.6184 35.9126 39.4393 35.9126 36.7413ZM27.8063 36.7413C27.8063 34.8995 29.2895 33.3948 31.1051 33.3948C32.9207 33.3948 34.4039 34.8995 34.4039 36.7413C34.4039 38.5832 32.9207 40.0879 31.1051 40.0879C29.2895 40.0879 27.8063 38.5962 27.8063 36.7413Z" fill="#303030"/>
<path d="M38.9939 31.9422C38.9939 34.4067 40.9757 36.4042 43.3923 36.4042C45.8216 36.4042 47.7906 34.3937 47.7906 31.9422C47.7906 29.4907 45.8088 27.4802 43.3923 27.4802C40.9757 27.4672 38.9939 29.4777 38.9939 31.9422ZM46.2947 31.9422C46.2947 33.5636 45.0033 34.8736 43.405 34.8736C41.8068 34.8736 40.5154 33.5636 40.5154 31.9422C40.5154 30.3208 41.8068 29.0107 43.405 29.0107C44.9905 29.0107 46.2947 30.3208 46.2947 31.9422Z" fill="#303030"/>
<path d="M49.3888 35.7167C49.3888 37.6105 50.9103 39.154 52.7771 39.154C54.6438 39.154 56.1653 37.6105 56.1653 35.7167C56.1653 33.823 54.6438 32.2794 52.7771 32.2794C50.9103 32.2794 49.3888 33.823 49.3888 35.7167ZM54.6438 35.7167C54.6438 36.7674 53.7999 37.6235 52.7643 37.6235C51.7286 37.6235 50.8847 36.7674 50.8847 35.7167C50.8847 34.6661 51.7286 33.81 52.7643 33.81C53.7999 33.81 54.6438 34.6661 54.6438 35.7167Z" fill="#303030"/>
</g>
<defs>
<clipPath id="clip0">
<rect width="53.4324" height="47.8499" fill="white" transform="translate(18.5364 22.3955)"/>
</clipPath>
</defs>
</svg>
