<svg width="68" height="61" viewBox="0 0 68 61" fill="none" xmlns="http://www.w3.org/2000/svg">
<g clip-path="url(#clip0)">
<path d="M67.1383 7.52083C66.2404 4.04022 64.9258 1.66559 63.2263 0.462011C62.8896 0.218042 62.4247 0.234307 62.088 0.49454C61.7513 0.754773 61.6391 1.21018 61.7834 1.60053C62.0239 2.23485 62.056 2.73905 61.8636 3.16193C61.4146 4.17033 59.6992 4.80465 58.3204 5.32512C58.2081 5.35765 58.0959 5.40644 57.9677 5.43897C55.194 6.4799 52.8853 8.67562 51.9234 11.1478C51.1859 13.0671 51.2821 15.0513 52.212 16.8892C53.3342 19.1012 56.1399 20.7114 58.8975 20.7114C60.0198 20.7114 61.0619 20.4512 61.9117 19.9307C63.9318 18.7271 65.9198 17.247 66.7535 14.5634C67.6032 11.9285 67.7154 9.76534 67.1383 7.52083ZM64.9739 13.9779C64.3646 15.9296 62.9377 17.1007 60.9818 18.2717C60.4206 18.6133 59.6992 18.7759 58.9136 18.7759C56.8614 18.7759 54.713 17.5886 53.9114 16.0109C53.222 14.661 53.1579 13.2622 53.703 11.8472C54.4565 9.89546 56.3804 8.09009 58.625 7.24434C58.7372 7.19554 58.8655 7.16301 58.9777 7.11422C60.6932 6.4799 62.8255 5.68294 63.5951 3.94263C63.6111 3.89384 63.6432 3.84504 63.6592 3.79625C64.3005 4.85344 64.8456 6.26846 65.2945 8.00877C65.7915 9.89546 65.6953 11.6846 64.9739 13.9779Z" fill="#303030"/>
<path d="M61.7355 26.4204C61.7195 26.274 61.6393 26.1439 61.5271 26.0463C61.4149 25.965 61.2706 25.9324 61.1263 25.9487C60.8217 25.9975 60.6132 26.274 60.6613 26.583C60.9499 28.5836 60.8698 30.4702 60.4529 32.3407C60.4048 32.5684 60.3407 32.7961 60.2766 33.0238C59.4268 36.0815 57.2464 41.1886 52.1641 41.1886C52.0038 41.2211 51.8434 41.1886 51.6671 41.1723C51.0097 41.1235 50.2722 40.9934 49.3424 40.7495L48.8133 40.6031L49.1019 40.1314C52.613 34.3412 55.3225 28.0794 56.9739 23.8506C57.022 23.7204 57.022 23.5578 56.9739 23.4277C56.9097 23.2976 56.8135 23.1837 56.6692 23.1349C56.541 23.0861 56.3806 23.0861 56.2524 23.1349C56.1241 23.2 56.0119 23.2976 55.9638 23.444C55.0018 25.8999 53.9597 28.3396 52.8695 30.6817L52.6932 31.0558L52.3244 30.8769C52.2924 30.8606 52.2443 30.8443 52.2122 30.8281C50.5127 30.4052 49.8073 29.8034 48.5247 28.6974L47.8353 28.0956L48.0117 27.8029C49.3424 25.4933 50.7853 23.0536 52.3244 20.5163C52.4046 20.3862 52.4206 20.2398 52.3885 20.0934C52.3565 19.9471 52.2603 19.8332 52.1481 19.7519C51.8915 19.5892 51.5549 19.6706 51.3945 19.9308C49.2301 23.4765 45.1098 30.4377 41.7269 37.0899C41.5345 37.464 41.3421 37.8381 41.1658 38.2122L41.0375 38.4561L40.765 38.4399C38.6006 38.261 36.9011 38.7814 35.5383 40.0175C32.8609 42.441 32.5242 45.8728 32.2356 48.9143C31.899 52.2973 31.5943 55.5014 28.2916 57.1604C24.7164 58.9658 21.558 59.4049 18.3996 58.5104C16.3955 57.9574 14.1189 57.258 12.2912 56.0382C5.46129 51.4678 1.78984 40.5868 1.78984 32.6985C1.78984 15.8321 15.4977 2.15363 32.2196 2.51145C38.2318 2.64156 44.0516 4.64211 49.0057 8.28537C49.2462 8.46428 49.5828 8.41549 49.7752 8.15525C49.8554 8.0414 49.8875 7.89502 49.8714 7.74864C49.8554 7.60226 49.7752 7.47214 49.647 7.39082C44.5005 3.61744 38.4723 1.55184 32.2356 1.40546C32.0112 1.40546 31.7707 1.40546 31.5462 1.40546C23.3055 1.40546 15.5458 4.65837 9.72595 10.5787C3.90614 16.499 0.683594 24.3548 0.683594 32.7148C0.683594 36.9598 1.69364 41.8392 3.47326 46.1005C4.88412 49.5161 7.46536 54.1677 11.6819 56.9815C13.6379 58.2989 16.0267 59.0146 18.0949 59.6001C21.574 60.576 24.8927 60.1206 28.7726 58.1688C32.6044 56.2333 32.9731 52.5738 33.3098 49.0281C33.6144 45.9216 33.903 42.994 36.2598 40.847C37.2057 39.985 38.3921 39.5459 39.8511 39.5296L40.5084 39.5133L40.2198 40.1151C37.1897 46.4583 35.8109 50.8172 36.1636 53.0617C36.1957 53.2406 36.3079 53.4033 36.4682 53.4684C36.6286 53.5497 36.8209 53.5334 36.9813 53.4521C40.7008 51.354 44.4364 47.4505 48.0598 41.8392L48.2201 41.5952L48.5087 41.6765C49.7592 42.0506 50.7532 42.2458 51.6029 42.2946C54.1682 42.441 56.3165 41.5627 58.0801 39.6435C59.4749 38.1309 60.5972 35.9514 61.3187 33.3328C61.3828 33.0888 61.4469 32.8449 61.495 32.6172C61.96 30.6166 62.0401 28.5348 61.7355 26.4204ZM46.8253 41.6765C43.8913 46.1493 40.8772 49.4673 37.9112 51.5491L37.1416 52.0859L37.2859 51.1588C37.6546 48.7516 39.0655 44.9782 41.5024 39.9525L41.6307 39.676L41.9353 39.7248C43.3462 39.985 44.8212 40.473 46.2481 40.9446L47.1138 41.2211L46.8253 41.6765ZM47.8994 40.0013L47.7391 40.2615L46.6008 39.8874C45.3022 39.4646 43.9715 39.0254 42.6728 38.7326L42.1598 38.6188L42.4003 38.1471C43.731 35.4797 45.3022 32.5684 47.0497 29.4944L47.2902 29.0715L47.8353 29.5432C49.1179 30.6492 49.9676 31.3648 51.7953 31.8527L52.2763 31.9828L52.0519 32.4383C50.8975 34.7804 49.7111 36.9923 48.5247 38.9929C48.3002 39.3344 48.0918 39.6597 47.8994 40.0013Z" fill="#303030" stroke="#303030" stroke-width="0.25" stroke-miterlimit="10"/>
<path d="M20.163 53.1267C23.0008 53.1267 25.3095 50.7846 25.3095 47.9057C25.3095 45.0269 23.0008 42.6848 20.163 42.6848C17.3253 42.6848 15.0166 45.0269 15.0166 47.9057C15.0166 50.7846 17.3253 53.1267 20.163 53.1267ZM20.163 44.6203C21.9587 44.6203 23.4177 46.1004 23.4177 47.922C23.4177 49.7436 21.9587 51.2237 20.163 51.2237C18.3674 51.2237 16.9084 49.7436 16.9084 47.922C16.9245 46.0841 18.3674 44.6203 20.163 44.6203Z" fill="#303030"/>
<path d="M6.45508 33.6256C6.45508 36.7484 8.95616 39.2857 12.0344 39.2857C15.1127 39.2857 17.6137 36.7484 17.6137 33.6256C17.6137 30.5028 15.1127 27.9655 12.0344 27.9655C8.95616 27.9655 6.45508 30.5028 6.45508 33.6256ZM12.0184 29.8847C14.0385 29.8847 15.6898 31.56 15.6898 33.6093C15.6898 35.6587 14.0385 37.3339 12.0184 37.3339C9.99827 37.3339 8.34692 35.6587 8.34692 33.6093C8.34692 31.56 9.99827 29.8847 12.0184 29.8847Z" fill="#303030"/>
<path d="M22.2796 18.2717C22.2796 14.9049 19.5701 12.1562 16.2514 12.1562C12.9326 12.1562 10.2231 14.9049 10.2231 18.2717C10.2231 21.6384 12.9326 24.3871 16.2514 24.3871C19.5701 24.3871 22.2796 21.6547 22.2796 18.2717ZM12.115 18.2717C12.115 15.9621 13.9748 14.0754 16.2514 14.0754C18.528 14.0754 20.3878 15.9621 20.3878 18.2717C20.3878 20.5812 18.528 22.4679 16.2514 22.4679C13.9748 22.4679 12.115 20.5975 12.115 18.2717Z" fill="#303030"/>
<path d="M26.1431 12.2539C26.1431 15.3442 28.6281 17.8489 31.6583 17.8489C34.7044 17.8489 37.1735 15.3279 37.1735 12.2539C37.1735 9.1799 34.6884 6.65889 31.6583 6.65889C28.6281 6.64263 26.1431 9.16364 26.1431 12.2539ZM35.2976 12.2539C35.2976 14.287 33.6784 15.9297 31.6743 15.9297C29.6702 15.9297 28.0509 14.287 28.0509 12.2539C28.0509 10.2208 29.6702 8.57811 31.6743 8.57811C33.6623 8.57811 35.2976 10.2208 35.2976 12.2539Z" fill="#303030"/>
<path d="M39.1777 16.987C39.1777 19.3616 41.0856 21.2971 43.4264 21.2971C45.7671 21.2971 47.675 19.3616 47.675 16.987C47.675 14.6124 45.7671 12.6769 43.4264 12.6769C41.0856 12.6769 39.1777 14.6124 39.1777 16.987ZM45.7671 16.987C45.7671 18.3044 44.709 19.3779 43.4103 19.3779C42.1117 19.3779 41.0535 18.3044 41.0535 16.987C41.0535 15.6696 42.1117 14.5961 43.4103 14.5961C44.709 14.5961 45.7671 15.6696 45.7671 16.987Z" fill="#303030"/>
</g>
<defs>
<clipPath id="clip0">
<rect width="67" height="60" fill="white" transform="translate(0.491211 0.283203)"/>
</clipPath>
</defs>
</svg>
