<svg width="92" height="93" viewBox="0 0 92 93" fill="none" xmlns="http://www.w3.org/2000/svg">
<path d="M1.89676 46.3151C1.94706 21.2632 22.2891 0.901465 47.2907 0.901465C64.8723 0.901465 80.7372 11.0067 88.2578 26.8044C88.4401 27.1826 88.0565 27.5798 87.673 27.4159L85.6734 26.5585C85.447 26.464 85.1829 26.5648 85.0823 26.7981C84.9879 27.025 85.0886 27.2898 85.3212 27.3907L89.4211 29.1495C89.66 29.2503 89.9367 29.1305 90.0247 28.8847L91.4773 24.661C91.559 24.4278 91.4333 24.1693 91.2006 24.0874C90.9679 24.0054 90.7101 24.1315 90.6284 24.3648L89.9241 26.4198C89.7921 26.7981 89.2702 26.8296 89.0941 26.4703C81.4226 10.3259 65.2307 0 47.2907 0C21.7987 0 1.05415 20.7715 0.997559 46.3151H1.89676Z" fill="black"/>
<path d="M90.0177 63.7579C89.9297 63.5121 89.653 63.386 89.414 63.4932L85.3142 65.252C85.0878 65.3465 84.9809 65.6113 85.0752 65.8445C85.1758 66.0715 85.4399 66.1786 85.6663 66.0841L87.6659 65.2268C88.0495 65.0628 88.4268 65.46 88.2507 65.8382C80.7301 81.6359 64.8589 91.7412 47.2837 91.7412C22.2821 91.7412 1.94004 71.3794 1.88974 46.3275H0.996826V46.3338C1.05342 71.8774 21.7979 92.6426 47.2899 92.6426C65.2362 92.6426 81.4281 82.3168 89.087 66.1849C89.2568 65.8256 89.785 65.8571 89.9171 66.2354L90.6214 68.2905C90.7031 68.5237 90.9609 68.6498 91.1936 68.5678C91.4262 68.4859 91.552 68.2274 91.4703 67.9942L90.0177 63.7579Z" fill="black"/>
<g clip-path="url(#clip0)">
<path d="M64.5753 35.4168C67.7094 35.4168 70.3545 32.3486 70.3545 28.7266C70.3545 25.2265 67.765 22.3799 64.5753 22.3799C61.3856 22.3799 58.796 25.2265 58.796 28.7266C58.796 32.3486 61.4411 35.4168 64.5753 35.4168ZM64.5753 23.4321C67.1759 23.4321 69.2987 25.8025 69.2987 28.7156C69.2987 31.7173 67.0981 34.3534 64.5753 34.3534C62.0524 34.3534 59.8518 31.7173 59.8518 28.7156C59.8518 25.8025 61.9746 23.4321 64.5753 23.4321Z" fill="#010101"/>
<path d="M64.5753 36.7128C64.2864 36.7128 64.0419 36.9454 64.0419 37.2444C64.0419 37.5324 64.2753 37.7761 64.5753 37.7761C70.1545 37.7761 74.7001 42.2953 74.7001 47.8667V49.7275C74.7001 50.3367 74.2 50.8351 73.5887 50.8351H71.1103V45.8065C71.1103 45.5185 70.8769 45.2748 70.5768 45.2748C70.2879 45.2748 70.0434 45.5074 70.0434 45.8065V50.8351H62.8638C62.5748 50.8351 62.3303 51.0677 62.3303 51.3668C62.3303 51.6548 62.5637 51.8985 62.8638 51.8985H73.5776C74.7779 51.8985 75.7448 50.9238 75.7448 49.7386V47.8556C75.7559 41.7082 70.7436 36.7128 64.5753 36.7128Z" fill="#010101"/>
<path d="M29.6331 42.7714C29.6331 44.743 30.3443 46.7257 31.5891 48.2099C32.8894 49.7717 34.601 50.6357 36.4125 50.6357C38.2241 50.6357 39.9357 49.7717 41.236 48.2099C42.4807 46.7257 43.192 44.743 43.192 42.7714C43.192 38.6621 40.1468 35.3281 36.4125 35.3281C32.6783 35.3281 29.6331 38.6621 29.6331 42.7714ZM36.4125 36.3804C39.5689 36.3804 42.1362 39.2492 42.1362 42.7714C42.1362 46.3934 39.4689 49.5723 36.4125 49.5723C33.3562 49.5723 30.6889 46.3934 30.6889 42.7714C30.6889 39.2492 33.2562 36.3804 36.4125 36.3804Z" fill="#010101"/>
<path d="M36.4127 52.3748C29.1331 52.3748 23.2094 58.2785 23.2094 65.5335V67.7598C23.2094 69.1222 24.3207 70.2299 25.6878 70.2299H47.1376C48.5046 70.2299 49.616 69.1222 49.616 67.7598V65.5335C49.616 58.2785 43.6923 52.3748 36.4127 52.3748ZM43.5589 62.5539C43.27 62.5539 43.0255 62.7865 43.0255 63.0856V69.1776H29.7888V63.0856C29.7888 62.7976 29.5554 62.5539 29.2553 62.5539C28.9664 62.5539 28.7219 62.7865 28.7219 63.0856V69.1776H25.6766C24.8987 69.1776 24.2541 68.5463 24.2541 67.7598V65.5335C24.2541 58.8544 29.6999 53.427 36.4016 53.427C43.1033 53.427 48.5491 58.8544 48.5491 65.5335V67.7598C48.5491 68.5352 47.9156 69.1776 47.1265 69.1776H44.0813V63.0856C44.0924 62.7865 43.8479 62.5539 43.5589 62.5539Z" fill="#010101"/>
<path d="M49.0382 42.7714C49.0382 44.743 49.7495 46.7257 50.9943 48.2099C52.2946 49.7717 54.0061 50.6357 55.8177 50.6357C57.6293 50.6357 59.3408 49.7717 60.6411 48.2099C61.8859 46.7257 62.5972 44.743 62.5972 42.7714C62.5972 38.6621 59.552 35.3281 55.8177 35.3281C52.0834 35.3281 49.0382 38.6621 49.0382 42.7714ZM55.8177 36.3804C58.9741 36.3804 61.5414 39.2492 61.5414 42.7714C61.5414 46.3934 58.874 49.5723 55.8177 49.5723C52.7614 49.5723 50.094 46.3934 50.094 42.7714C50.094 39.2492 52.6613 36.3804 55.8177 36.3804Z" fill="#010101"/>
<path d="M55.8178 52.3748C53.3283 52.3748 50.9054 53.0726 48.8049 54.3796C48.6827 54.4571 48.6049 54.5679 48.5715 54.7119C48.5382 54.8559 48.5604 54.9888 48.6382 55.1106C48.7938 55.3543 49.1272 55.4318 49.3717 55.2768C51.3055 54.0694 53.5283 53.427 55.8289 53.427C62.5306 53.427 67.9764 58.8544 67.9764 65.5335V67.7598C67.9764 68.5352 67.3429 69.1776 66.5538 69.1776H63.5086V63.0856C63.5086 62.7976 63.2752 62.5539 62.9752 62.5539C62.6862 62.5539 62.4417 62.7865 62.4417 63.0856V69.1776H52.5281C52.2391 69.1776 51.9946 69.4102 51.9946 69.7093C51.9946 69.9973 52.228 70.2409 52.5281 70.2409H66.5427C67.9097 70.2409 69.0211 69.1333 69.0211 67.7709V65.5446C69.0211 58.2785 63.0974 52.3748 55.8178 52.3748Z" fill="#010101"/>
<path d="M27.9214 35.4168C31.0556 35.4168 33.7007 32.3486 33.7007 28.7266C33.7007 25.2265 31.1111 22.3799 27.9214 22.3799C24.7318 22.3799 22.1422 25.2265 22.1422 28.7266C22.1422 32.3486 24.7873 35.4168 27.9214 35.4168ZM27.9214 23.4321C30.5221 23.4321 32.6449 25.8025 32.6449 28.7156C32.6449 31.7173 30.4443 34.3534 27.9214 34.3534C25.3986 34.3534 23.198 31.7173 23.198 28.7266C23.198 25.8025 25.3208 23.4321 27.9214 23.4321Z" fill="#010101"/>
<path d="M30.1444 51.3557C30.1444 51.0677 29.911 50.824 29.6109 50.824H22.4424V45.7954C22.4424 45.5074 22.209 45.2637 21.9089 45.2637C21.62 45.2637 21.3755 45.4963 21.3755 45.7954V50.824H18.9082C18.2969 50.824 17.7968 50.3256 17.7968 49.7164V47.8556C17.7968 42.2952 22.3313 37.765 27.9216 37.765C28.2105 37.765 28.455 37.5324 28.455 37.2333C28.455 36.9453 28.2216 36.7017 27.9216 36.7017C21.7533 36.7127 16.741 41.7082 16.741 47.8556V49.7164C16.741 50.9126 17.719 51.8763 18.9082 51.8763H29.6109C29.911 51.8763 30.1444 51.6437 30.1444 51.3557Z" fill="#010101"/>
<path d="M46.1152 35.4168C49.2493 35.4168 51.8944 32.3486 51.8944 28.7266C51.8944 25.2265 49.3049 22.3799 46.1152 22.3799C42.9255 22.3799 40.3359 25.2265 40.3359 28.7266C40.3359 32.3486 42.9811 35.4168 46.1152 35.4168ZM46.1152 23.4321C48.7158 23.4321 50.8386 25.8025 50.8386 28.7156C50.8386 31.7173 48.638 34.3534 46.1152 34.3534C43.5923 34.3534 41.3918 31.7173 41.3918 28.7156C41.3918 25.8025 43.5145 23.4321 46.1152 23.4321Z" fill="#010101"/>
<path d="M44.4818 36.8569C44.1928 36.9012 43.9928 37.1781 44.0483 37.4661C44.0928 37.7208 44.3151 37.9091 44.5707 37.9091C44.604 37.9091 44.6263 37.9091 44.6596 37.898C45.6488 37.7319 46.6935 37.7208 47.6937 37.8537C47.8271 37.8759 47.9605 37.8427 48.0827 37.7541C48.1938 37.6654 48.2716 37.5436 48.2939 37.3996C48.3161 37.2667 48.2716 37.1227 48.1938 37.0119C48.1049 36.9012 47.9827 36.8236 47.8382 36.8126C46.7379 36.6575 45.571 36.6796 44.4818 36.8569Z" fill="#010101"/>
</g>
<defs>
<clipPath id="clip0">
<rect width="59.0149" height="47.8499" fill="white" transform="translate(16.7412 22.3799)"/>
</clipPath>
</defs>
</svg>
