<svg width="22" height="22" viewBox="0 0 22 22" fill="none" xmlns="http://www.w3.org/2000/svg">
<g clip-path="url(#clip0)">
<path d="M3.52451 19.9358H2.06359L3.09664 18.9027C3.65364 18.3457 4.00147 17.6212 4.09499 16.8353C2.6415 15.8815 1.57864 14.6266 1.00969 13.1874C0.441149 11.7493 0.369703 10.1662 0.8031 8.60926C1.32311 6.74105 2.54278 5.03825 4.23736 3.81446C6.07882 2.48466 8.37123 1.78174 10.8668 1.78174C14.0106 1.78174 16.6604 2.68496 18.5297 4.3937C20.2138 5.93312 21.1412 8.00958 21.1412 10.2406C21.1412 11.3245 20.9205 12.3792 20.4853 13.3753C20.0349 14.4061 19.3753 15.324 18.5249 16.1032C16.6531 17.8187 14.0049 18.7255 10.8668 18.7255C9.7018 18.7255 8.48616 18.57 7.40083 18.2846C6.37352 19.3384 4.98143 19.9358 3.52451 19.9358ZM10.8668 2.99201C5.86279 2.99201 2.7923 5.97624 1.96903 8.93382C1.19107 11.7287 2.33788 14.3697 5.03678 15.9984L5.33834 16.1803L5.32906 16.5324C5.31066 17.2293 5.14453 17.9005 4.84717 18.5072C5.57127 18.2622 6.22833 17.8181 6.74285 17.2102L6.9987 16.9079L7.37812 17.0214C8.44287 17.3399 9.68183 17.5152 10.8668 17.5152C17.0945 17.5152 19.931 13.7443 19.931 10.2406C19.931 8.35357 19.1433 6.59433 17.7131 5.287C16.0707 3.78562 13.7032 2.99201 10.8668 2.99201Z" fill="black"/>
</g>
<defs>
<clipPath id="clip0">
<rect width="20.6178" height="20.6178" fill="white" transform="translate(0.523438 0.549805)"/>
</clipPath>
</defs>
</svg>
