<svg width="91" height="93" viewBox="0 0 91 93" fill="none" xmlns="http://www.w3.org/2000/svg">
<g clip-path="url(#clip0)">
<path d="M31.9396 29.6287V56.3356C31.9396 56.6472 32.1943 56.892 32.5184 56.892C32.8425 56.892 33.0972 56.6472 33.0972 56.3356V29.6287C33.0972 29.3171 32.8425 29.0723 32.5184 29.0723C32.1943 29.0723 31.9396 29.3171 31.9396 29.6287Z" fill="#303030"/>
<path d="M32.5184 64.6815C32.1943 64.6815 31.9396 64.9263 31.9396 65.2379C31.9396 65.5495 32.1943 65.7943 32.5184 65.7943H60.3022C60.6264 65.7943 60.8811 65.5495 60.8811 65.2379C60.8811 64.9263 60.6264 64.6815 60.3022 64.6815H32.5184Z" fill="#303030"/>
<path d="M53.9351 40.7565C53.9351 40.4449 53.6804 40.2001 53.3562 40.2001H41.7796C41.4555 40.2001 41.2008 40.4449 41.2008 40.7565C41.2008 41.068 41.4555 41.3129 41.7796 41.3129H53.3562C53.6804 41.3129 53.9351 41.068 53.9351 40.7565Z" fill="#303030"/>
<path d="M44.0948 44.6512C43.7707 44.6512 43.516 44.8961 43.516 45.2076C43.516 45.5192 43.7707 45.764 44.0948 45.764H51.0408C51.3649 45.764 51.6196 45.5192 51.6196 45.2076C51.6196 44.8961 51.3649 44.6512 51.0408 44.6512H44.0948Z" fill="#303030"/>
<path d="M63.1963 58.5611V26.2903C63.1963 24.7546 61.8997 23.5083 60.3021 23.5083H58.5656V22.9519C58.5656 22.6403 58.311 22.3955 57.9868 22.3955H48.7255C48.4014 22.3955 48.1467 22.6403 48.1467 22.9519V31.8542C48.1467 32.0434 48.2509 32.2214 48.4245 32.3216C48.5982 32.4217 48.8066 32.4329 48.9918 32.3438L53.3562 30.2407L57.7321 32.3438C57.9174 32.4329 58.1257 32.4217 58.2994 32.3216C58.4614 32.2214 58.5656 32.0434 58.5656 31.8542V28.5158C58.5656 28.2043 58.311 27.9595 57.9868 27.9595C57.6627 27.9595 57.408 28.2043 57.408 28.5158V30.9529L53.6109 29.1279C53.4488 29.05 53.252 29.05 53.0899 29.1279L49.3044 30.9529V23.5083H57.408V24.0647C57.408 24.3763 57.6627 24.6211 57.9868 24.6211H60.3021C61.263 24.6211 62.0386 25.3667 62.0386 26.2903V58.5611C62.0386 59.4848 61.263 60.2303 60.3021 60.2303H32.5183C31.3954 60.2303 30.3188 60.5864 29.3926 61.2541L28.4665 61.9329V30.7414C28.4665 27.3697 31.3259 24.6211 34.8336 24.6211H44.0949C44.419 24.6211 44.6737 24.3763 44.6737 24.0647C44.6737 23.7531 44.419 23.5083 44.0949 23.5083H34.8336C30.6892 23.5083 27.3088 26.7576 27.3088 30.7414V65.2379C27.3088 67.9976 29.6473 70.2454 32.5183 70.2454H62.6174C62.9416 70.2454 63.1963 70.0006 63.1963 69.689C63.1963 69.3775 62.9416 69.1326 62.6174 69.1326H32.5183C30.284 69.1326 28.4665 67.3856 28.4665 65.2379C28.4665 63.0902 30.284 61.3431 32.5183 61.3431H60.3021C61.8997 61.3431 63.1963 60.0968 63.1963 58.5611Z" fill="#303030"/>
</g>
<path d="M0.899689 46.3151C0.949994 21.2632 21.2921 0.901465 46.2936 0.901465C63.8752 0.901465 79.7401 11.0067 87.2607 26.8044C87.4431 27.1826 87.0595 27.5798 86.6759 27.4159L84.6763 26.5585C84.4499 26.464 84.1858 26.5648 84.0852 26.7981C83.9909 27.025 84.0915 27.2898 84.3242 27.3907L88.424 29.1495C88.6629 29.2503 88.9396 29.1305 89.0277 28.8847L90.4802 24.661C90.562 24.4278 90.4362 24.1693 90.2035 24.0874C89.9709 24.0054 89.7131 24.1315 89.6313 24.3648L88.927 26.4198C88.795 26.7981 88.2731 26.8296 88.097 26.4703C80.4255 10.3259 64.2336 0 46.2936 0C20.8016 0 0.0570813 20.7715 0.000488281 46.3151H0.899689Z" fill="black"/>
<path d="M89.0209 63.7579C88.9328 63.5121 88.6562 63.386 88.4172 63.4932L84.3174 65.252C84.091 65.3465 83.9841 65.6113 84.0784 65.8445C84.179 66.0715 84.4431 66.1786 84.6695 66.0841L86.6691 65.2268C87.0527 65.0628 87.43 65.46 87.2539 65.8382C79.7333 81.6359 63.8621 91.7412 46.2868 91.7412C21.2853 91.7412 0.943217 71.3794 0.892913 46.3275H0V46.3338C0.0565931 71.8774 20.8011 92.6426 46.2931 92.6426C64.2394 92.6426 80.4313 82.3168 88.0902 66.1849C88.26 65.8256 88.7882 65.8571 88.9203 66.2354L89.6245 68.2905C89.7063 68.5237 89.9641 68.6498 90.1967 68.5678C90.4294 68.4859 90.5552 68.2274 90.4734 67.9942L89.0209 63.7579Z" fill="black"/>
<defs>
<clipPath id="clip0">
<rect width="35.8874" height="47.8499" fill="white" transform="translate(27.3088 22.3955)"/>
</clipPath>
</defs>
</svg>
