<svg width="91" height="93" viewBox="0 0 91 93" fill="none" xmlns="http://www.w3.org/2000/svg">
<path d="M0.899689 46.3151C0.949994 21.2632 21.2921 0.901465 46.2936 0.901465C63.8752 0.901465 79.7401 11.0067 87.2607 26.8044C87.4431 27.1826 87.0595 27.5798 86.6759 27.4159L84.6763 26.5585C84.4499 26.464 84.1858 26.5648 84.0852 26.7981C83.9909 27.025 84.0915 27.2898 84.3242 27.3907L88.424 29.1495C88.6629 29.2503 88.9396 29.1305 89.0277 28.8847L90.4802 24.661C90.562 24.4278 90.4362 24.1693 90.2035 24.0874C89.9709 24.0054 89.7131 24.1315 89.6313 24.3648L88.927 26.4198C88.795 26.7981 88.2731 26.8296 88.097 26.4703C80.4255 10.3259 64.2336 0 46.2936 0C20.8016 0 0.0570813 20.7715 0.000488281 46.3151H0.899689Z" fill="black"/>
<path d="M89.0209 63.7579C88.9328 63.5121 88.6562 63.386 88.4172 63.4932L84.3174 65.252C84.091 65.3465 83.9841 65.6113 84.0784 65.8445C84.179 66.0715 84.4431 66.1786 84.6695 66.0841L86.6691 65.2268C87.0527 65.0628 87.43 65.46 87.2539 65.8382C79.7333 81.6359 63.8621 91.7412 46.2868 91.7412C21.2853 91.7412 0.943217 71.3794 0.892913 46.3275H0V46.3338C0.0565931 71.8774 20.8011 92.6426 46.2931 92.6426C64.2394 92.6426 80.4313 82.3167 88.0902 66.1849C88.26 65.8256 88.7882 65.8571 88.9203 66.2354L89.6245 68.2905C89.7063 68.5237 89.9641 68.6498 90.1967 68.5678C90.4294 68.4859 90.5552 68.2274 90.4734 67.9942L89.0209 63.7579Z" fill="black"/>
<g clip-path="url(#clip0)">
<path d="M70.6807 27.1148C68.3081 24.0762 65.1261 22.3955 61.7114 22.3955C58.474 22.4066 55.8242 23.8091 53.6179 26.703C51.6666 29.2741 50.5358 32.5465 49.926 34.8283L49.6599 35.8411L49.3938 34.8283C48.7951 32.5465 47.6643 29.2741 45.7019 26.703C43.4956 23.8091 40.8569 22.4066 37.6084 22.3955C34.1937 22.3955 31.0117 24.0762 28.6502 27.1148C26.2665 30.1757 24.9583 34.3162 24.9583 38.7796C24.9583 39.1135 25.2243 39.3806 25.5569 39.3806C25.8896 39.3806 26.1556 39.1135 26.1556 38.7796C26.1556 34.6724 27.3309 30.8547 29.4485 28.0275C31.5882 25.167 34.4819 23.5976 37.6084 23.5976H37.6195C39.8369 23.5976 41.8215 24.4324 43.5067 26.0797C44.8482 27.382 46.0123 29.2074 46.9658 31.478C48.529 35.2289 49.0058 38.9688 49.0501 39.3917C49.0834 39.6923 49.3384 39.926 49.6488 39.926C49.9592 39.926 50.2143 39.6923 50.2475 39.3806C50.2919 38.991 50.5579 36.9208 51.3229 34.3496C52.4095 30.6988 53.9173 27.9162 55.8021 26.0797C57.4984 24.4324 59.4718 23.5976 61.6892 23.5976C61.7003 23.5976 61.7003 23.5976 61.7114 23.5976C64.8379 23.5976 67.7316 25.167 69.8713 28.0275C72 30.8547 73.1642 34.6836 73.1642 38.7796C73.1642 41.1058 72.6985 45.8474 69.5942 51.4238C65.7138 58.3915 59.0505 64.2684 49.7819 68.9098L49.6599 68.9766L49.5379 68.9098C36.8989 62.5877 31.2334 54.8631 28.7056 49.4871C28.6058 49.2756 28.4063 49.1532 28.118 49.1532H28.1069L27.9185 49.1977C27.7078 49.2979 27.5748 49.4982 27.5859 49.7987L27.6413 49.9991C30.2911 55.6089 36.2226 63.6673 49.4825 70.1898L49.6821 70.2343L49.9482 70.1675C59.6492 65.3814 66.6229 59.2596 70.6807 51.9581C73.907 46.1591 74.3837 41.206 74.3837 38.7684C74.3616 34.3162 73.0533 30.1757 70.6807 27.1148Z" fill="#010101"/>
<path d="M32.1314 44.5006L35.0251 36.2752L40.1694 53.7167C40.247 53.9727 40.4798 54.1507 40.7459 54.1507C41.012 54.1507 41.2448 53.9838 41.3224 53.7167L43.8946 44.9013H58.0082C58.3409 44.9013 58.6069 44.6342 58.6069 44.3003C58.6069 43.9664 58.3409 43.6992 58.0082 43.6992H43.429C43.1961 43.6992 42.9744 43.8439 42.8857 44.0554L40.7348 51.4238L35.6459 34.1604C35.5683 33.9044 35.3466 33.7374 35.0805 33.7263C34.8255 33.7263 34.5927 33.8933 34.5151 34.127L31.1446 43.6992H16.7427C16.4101 43.6992 16.144 43.9664 16.144 44.3003C16.144 44.6342 16.4101 44.9013 16.7427 44.9013H31.5659C31.8209 44.9013 32.0538 44.7455 32.1314 44.5006Z" fill="#010101"/>
</g>
<defs>
<clipPath id="clip0">
<rect width="58.2174" height="47.8499" fill="white" transform="translate(16.144 22.3955)"/>
</clipPath>
</defs>
</svg>
