<svg width="20" height="20" viewBox="0 0 20 20" fill="none" xmlns="http://www.w3.org/2000/svg">
<g opacity="0.7" clip-path="url(#clip0)">
<path d="M18.3017 3.20551C17.3772 2.15654 16.0947 1.57886 14.6905 1.57886C12.7156 1.57886 11.4652 2.75838 10.7641 3.7479C10.5822 4.00467 10.4274 4.26214 10.2975 4.50441C10.1676 4.26214 10.0129 4.00467 9.83094 3.7479C9.12981 2.75838 7.87946 1.57886 5.90451 1.57886C4.50029 1.57886 3.21779 2.15657 2.29328 3.20555C1.41146 4.2062 0.925781 5.54636 0.925781 6.97913C0.925781 8.53876 1.53469 9.98936 2.84204 11.5442C4.01047 12.9338 5.69141 14.3663 7.63792 16.0249C8.36324 16.643 9.1133 17.2822 9.91184 17.9809L9.93582 18.0019C10.0393 18.0925 10.1684 18.1378 10.2975 18.1378C10.4266 18.1378 10.5557 18.0925 10.6592 18.0019L10.6832 17.9809C11.4817 17.2822 12.2318 16.6431 12.9572 16.0249C14.9036 14.3663 16.5845 12.9339 17.753 11.5442C19.0603 9.98932 19.6692 8.53876 19.6692 6.97913C19.6692 5.54636 19.1836 4.2062 18.3017 3.20551ZM12.2448 15.189C11.6195 15.7218 10.976 16.2702 10.2975 16.86C9.61901 16.2703 8.97547 15.7219 8.35009 15.189C4.54067 11.9428 2.02403 9.79823 2.02403 6.97913C2.02403 5.81389 2.41226 4.7316 3.11723 3.93167C3.83028 3.12267 4.82014 2.67711 5.90451 2.67711C7.41017 2.67711 8.38348 3.60469 8.9348 4.38283C9.42934 5.08074 9.6874 5.78427 9.7754 6.05433C9.84902 6.28039 10.0598 6.43338 10.2975 6.43338C10.5352 6.43338 10.746 6.28039 10.8196 6.05433C10.9076 5.78427 11.1657 5.08074 11.6602 4.3828C12.2115 3.60469 13.1848 2.67711 14.6905 2.67711C15.7749 2.67711 16.7647 3.12267 17.4778 3.93167C18.1828 4.7316 18.571 5.81389 18.571 6.97913C18.571 9.79823 16.0543 11.9428 12.2448 15.189Z" fill="black"/>
</g>
<defs>
<clipPath id="clip0">
<rect width="18.7435" height="18.7435" fill="white" transform="translate(0.925781 0.486328)"/>
</clipPath>
</defs>
</svg>
