<svg width="171" height="100" viewBox="0 0 171 100" fill="none" xmlns="http://www.w3.org/2000/svg">
<g clip-path="url(#clip0)">
<path d="M51.2252 54.1921C50.7704 52.1845 49.5349 51.4223 47.5323 51.4223C44.7015 51.4223 43.4864 53.8518 43.4864 56.6217C43.4864 59.2486 44.4436 61.8891 47.6341 61.8891C49.6503 61.8891 50.9061 60.5212 51.3406 58.6633H52.4946C51.9719 60.9296 50.5599 62.8351 47.4237 62.8351C43.8122 62.8351 42.3799 59.9836 42.3799 56.6557C42.3799 52.1709 44.7219 50.4763 47.831 50.4763C50.2341 50.4763 51.9923 51.7626 52.3656 54.1921H51.2252Z" fill="white"/>
<path d="M59.1679 50.4763C62.8268 50.4763 64.68 53.2325 64.68 56.6693C64.68 60.0449 62.8268 62.8351 59.2154 62.8351C55.6039 62.8351 53.7711 60.0449 53.7711 56.6693C53.7575 53.2462 55.6718 50.4763 59.1679 50.4763ZM63.5735 56.6693C63.5735 53.4095 61.8968 51.4223 59.2018 51.4223C56.1945 51.4223 54.8776 53.9471 54.8776 56.6693C54.8776 59.4392 56.181 61.8891 59.2357 61.8891C62.277 61.8891 63.5735 59.4119 63.5735 56.6693Z" fill="white"/>
<path d="M66.3975 62.5222V50.7896H68.0878L71.9232 61.1407H71.9572L75.7315 50.7896H77.4015V62.5222H76.295V52.0554H76.2678L72.4256 62.5222H71.3869L67.5311 52.0554H67.4972V62.5222H66.3975Z" fill="white"/>
<path d="M79.5059 62.5222V50.7896H81.1962L85.0384 61.1407H85.0656L88.8399 50.7896H90.5167V62.5222H89.4102V52.0554H89.3762L85.5408 62.5222H84.5021L80.6463 52.0554H80.6124V62.5222H79.5059Z" fill="white"/>
<path d="M92.6821 50.7896H93.7886V57.7788C93.7886 60.6779 94.8273 61.8893 97.2168 61.8893C99.7353 61.8893 100.645 60.5554 100.645 57.7788V50.7896H101.751V58.1123C101.751 61.1611 100.238 62.8421 97.2168 62.8421C94.162 62.8421 92.6821 61.1135 92.6821 58.1123V50.7896Z" fill="white"/>
<path d="M105.085 52.2868H105.051V62.5222H103.944V50.7896H105.193L111.961 61.0386H111.995V50.7896H113.095V62.5222H111.812L105.085 52.2868Z" fill="white"/>
<path d="M116.781 50.7827H115.674V62.5222H116.781V50.7827Z" fill="white"/>
<path d="M118.309 50.7896H126.828V51.7287H123.122V62.5222H122.015V51.7287H118.309V50.7896Z" fill="white"/>
<path d="M131.566 56.4449L135.096 50.7896H136.379L132.136 57.4045V62.5222H131.03V57.4862L126.848 50.7896H128.118L131.566 56.4449Z" fill="white"/>
<path d="M149.868 54.1921C149.413 52.1845 148.177 51.4223 146.175 51.4223C143.344 51.4223 142.129 53.8518 142.129 56.6217C142.129 59.2486 143.086 61.8891 146.277 61.8891C148.293 61.8891 149.542 60.5212 149.983 58.6633H151.137C150.614 60.9296 149.202 62.8351 146.059 62.8351C142.448 62.8351 141.022 59.9836 141.022 56.6557C141.022 52.1709 143.364 50.4763 146.467 50.4763C148.877 50.4763 150.628 51.7626 151.001 54.1921H149.868Z" fill="white"/>
<path d="M153.316 59.0172C153.493 61.1201 154.891 61.8891 156.683 61.8891C158.781 61.8891 159.657 60.7458 159.657 59.4596C159.657 55.8254 152.515 58.2346 152.515 53.6205C152.515 51.9939 153.866 50.4763 156.48 50.4763C159.114 50.4763 160.43 52.0756 160.417 53.9812H159.358C159.358 52.1845 157.973 51.4223 156.48 51.4223C154.233 51.4223 153.425 52.8106 153.622 54.0152C154.124 57.0504 160.763 54.8659 160.763 59.4119C160.763 61.5625 159.181 62.8351 156.486 62.8351C154.049 62.8351 152.244 61.5625 152.244 59.0172H153.316Z" fill="white"/>
<path d="M163.451 57.1935V62.5222H162.345V50.7896H166.934C169.5 50.7896 170.918 51.7015 170.918 53.8724C170.918 55.356 170.369 56.1387 169.018 56.7444C170.403 57.2139 170.484 58.6839 170.511 59.9225C170.559 61.6988 170.708 62.1888 171 62.4202V62.5358H169.778C169.323 61.7396 169.439 59.5346 169.255 58.6363C168.997 57.3637 168.033 57.2003 166.934 57.2003H163.451V57.1935ZM166.9 56.2476C168.543 56.2476 169.812 55.5602 169.812 53.9133C169.812 52.1507 168.448 51.7287 166.968 51.7287H163.458V56.2476H166.9Z" fill="white"/>
<path d="M42.3666 37.0764H48.3065C51.4359 37.0764 52.0061 39.3903 52.0061 40.4111C52.0061 41.7042 51.3545 42.8203 50.1869 43.215C51.1508 43.6437 51.6735 44.0044 51.6735 46.2026C51.6735 47.9244 51.6735 48.3531 52.1962 48.5505V48.8635H49.4809C49.3179 48.3055 49.2161 47.6998 49.2161 46.4816C49.2161 44.8755 49.1211 44.2494 47.3018 44.2494H44.7629V48.8635H42.353V37.0764H42.3666ZM47.6548 42.2622C48.931 42.2622 49.5555 41.8198 49.5555 40.6561C49.5555 40.03 49.2772 39.1113 47.8381 39.1113H44.7765V42.2622H47.6548Z" fill="white"/>
<path d="M55.8549 48.8636H53.2686L57.457 37.0833H60.2878L64.4287 48.8636H61.7609L61.0073 46.434H56.6695L55.8549 48.8636ZM57.328 44.3992H60.3217L58.8622 39.7374H58.8283L57.328 44.3992Z" fill="white"/>
<path d="M77.2928 48.8635H74.9983V39.016H74.9643L72.7717 48.8635H70.3686L68.2234 39.016H68.1895V48.8635H65.895V37.0764H69.4793L71.6109 46.3659H71.6448L73.7356 37.0764H77.2928V48.8635Z" fill="white"/>
<path d="M87.1494 40.935C86.9526 40.2272 86.5724 38.9001 84.5495 38.9001C83.3683 38.9001 81.6372 39.6896 81.6372 43.0175C81.6372 45.134 82.4722 47.0395 84.5495 47.0395C85.9072 47.0395 86.8575 46.2705 87.1494 44.8277H89.6068C89.1181 47.3866 87.4481 49.1764 84.502 49.1764C81.3725 49.1764 79.1323 47.0599 79.1323 42.9902C79.1323 38.8729 81.5083 36.77 84.5359 36.77C88.0523 36.77 89.4778 39.1996 89.6136 40.935H87.1494Z" fill="white"/>
<path d="M96.5991 36.77C98.1537 36.77 102.247 37.4438 102.247 42.9766C102.247 48.5095 98.1537 49.1764 96.5991 49.1764C95.0446 49.1764 90.9512 48.5027 90.9512 42.9766C90.9512 37.4438 95.0446 36.77 96.5991 36.77ZM96.5991 47.0872C97.9229 47.0872 99.7897 46.2705 99.7897 42.9698C99.7897 39.6692 97.9229 38.8525 96.5991 38.8525C95.2754 38.8525 93.4086 39.676 93.4086 42.9698C93.4086 46.2705 95.2686 47.0872 96.5991 47.0872Z" fill="white"/>
<path d="M0.970742 50C1.02505 22.9549 22.9856 0.973186 49.9763 0.973186C68.9567 0.973186 86.0838 11.8824 94.2028 28.937C94.3996 29.3453 93.9855 29.7741 93.5714 29.5971L91.4127 28.6716C91.1683 28.5695 90.8832 28.6784 90.7746 28.9302C90.6728 29.1752 90.7814 29.461 91.0326 29.5699L95.4586 31.4686C95.7166 31.5775 96.0153 31.4482 96.1103 31.1828L97.6784 26.6231C97.7667 26.3713 97.6309 26.0923 97.3797 26.0038C97.1285 25.9153 96.8502 26.0514 96.762 26.3033L96.0017 28.5218C95.8591 28.9302 95.2957 28.9642 95.1056 28.5763C86.8238 11.1474 69.3436 0 49.9763 0C22.4561 0 0.0610957 22.4241 0 50H0.970742Z" fill="white"/>
<path d="M96.1035 68.8309C96.0085 68.5655 95.7098 68.4294 95.4518 68.545L91.0258 70.4438C90.7814 70.5459 90.666 70.8317 90.7678 71.0835C90.8764 71.3285 91.1615 71.4442 91.4059 71.3421L93.5646 70.4166C93.9787 70.2396 94.386 70.6684 94.1959 71.0767C86.077 88.1313 68.9431 99.0405 49.9695 99.0405C22.9788 99.0405 1.01826 77.0587 0.963954 50.0137H0V50.0205C0.0610957 77.5964 22.4561 100.014 49.9763 100.014C69.3504 100.014 86.8305 88.8663 95.0988 71.451C95.2821 71.0631 95.8523 71.0971 95.9949 71.5054L96.7552 73.724C96.8434 73.9758 97.1218 74.1119 97.3729 74.0235C97.6241 73.935 97.7599 73.656 97.6716 73.4042L96.1035 68.8309Z" fill="white"/>
</g>
<defs>
<clipPath id="clip0">
<rect width="171" height="100" fill="white"/>
</clipPath>
</defs>
</svg>
