<svg width="103" height="98" viewBox="0 0 103 98" fill="none" xmlns="http://www.w3.org/2000/svg">
<path opacity="0.1" d="M39.9941 18.2754C31.459 19.8835 25.4596 26.0684 21.9961 36.8301C20.2643 42.1491 19.3984 47.4062 19.3984 52.6016C19.3984 53.2201 19.3984 53.7767 19.3984 54.2715C19.5221 54.6426 19.6458 55.5703 19.7695 57.0547H39.9941V97.5039H0.472656V60.209C0.472656 41.9017 4.12174 27.8001 11.4199 17.9043C18.7181 8.00846 28.2428 2.31836 39.9941 0.833984V18.2754ZM102.523 18.2754C95.7201 19.3887 90.5247 23.2233 86.9375 29.7793C83.474 36.3353 81.7422 43.8809 81.7422 52.416C81.7422 53.1582 81.7422 53.9004 81.7422 54.6426C81.8659 55.3848 82.0514 56.1888 82.2988 57.0547H102.523V97.5039H62.8164V60.209C62.8164 45.4889 65.9089 32.377 72.0938 20.873C78.2786 9.24544 88.4219 2.56576 102.523 0.833984V18.2754Z" fill="black"/>
</svg>
