<svg width="56" height="56" viewBox="0 0 56 56" fill="none" xmlns="http://www.w3.org/2000/svg">
<g clip-path="url(#clip0)">
<path d="M45.9201 56.0001V38.3741C45.9201 38.3741 55.5101 9.63214 30.9961 5.78214C14.9661 3.79414 8.09209 16.2681 8.59609 23.5761L2.99609 35.8541H9.43609V47.1941H19.2361V56.1121L45.9201 56.0001Z" fill="#FFD0A4"/>
<path d="M26.4601 55.9869H25.0601V25.2569L18.6621 19.0549L19.6281 18.0469L26.4601 24.6689V55.9869Z" fill="#FF9530"/>
<path d="M17.9051 19.7262C19.351 19.7262 20.5231 18.5541 20.5231 17.1082C20.5231 15.6624 19.351 14.4902 17.9051 14.4902C16.4592 14.4902 15.2871 15.6624 15.2871 17.1082C15.2871 18.5541 16.4592 19.7262 17.9051 19.7262Z" fill="#FF9530"/>
<path d="M17.9062 20.4257C17.2466 20.4257 16.6018 20.2299 16.0536 19.8632C15.5053 19.4964 15.0783 18.9752 14.8265 18.3656C14.5747 17.7559 14.5096 17.0852 14.6393 16.4385C14.769 15.7918 15.0877 15.1981 15.5551 14.7327C16.0225 14.2673 16.6175 13.951 17.2648 13.824C17.912 13.6971 18.5824 13.7651 19.191 14.0194C19.7996 14.2737 20.319 14.703 20.6835 15.2528C21.0479 15.8025 21.241 16.4481 21.2382 17.1077C21.2345 17.989 20.8818 18.8329 20.2573 19.4548C19.6329 20.0766 18.7875 20.4257 17.9062 20.4257ZM17.9062 15.1757C17.5241 15.1757 17.1505 15.289 16.8328 15.5013C16.5151 15.7136 16.2675 16.0153 16.1213 16.3684C15.975 16.7214 15.9368 17.1099 16.0113 17.4846C16.0859 17.8594 16.2699 18.2037 16.5401 18.4739C16.8103 18.744 17.1545 18.9281 17.5293 19.0026C17.904 19.0771 18.2925 19.0389 18.6455 18.8927C18.9986 18.7464 19.3003 18.4988 19.5126 18.1811C19.7249 17.8634 19.8382 17.4898 19.8382 17.1077C19.8382 16.5953 19.6346 16.1039 19.2723 15.7416C18.91 15.3793 18.4186 15.1757 17.9062 15.1757Z" fill="#FF9530"/>
<path d="M47.7677 5.86552C49.1517 5.86552 50.2737 4.74354 50.2737 3.35952C50.2737 1.97549 49.1517 0.853516 47.7677 0.853516C46.3837 0.853516 45.2617 1.97549 45.2617 3.35952C45.2617 4.74354 46.3837 5.86552 47.7677 5.86552Z" fill="#FF9530"/>
<path d="M47.7692 6.5806C47.1317 6.58337 46.5078 6.39688 45.9764 6.04475C45.4451 5.69262 45.0302 5.1907 44.7843 4.60257C44.5384 4.01444 44.4727 3.36657 44.5953 2.74103C44.718 2.11549 45.0236 1.54044 45.4733 1.08871C45.9231 0.636982 46.4968 0.328913 47.1218 0.20353C47.7468 0.0781466 48.395 0.141091 48.9841 0.384388C49.5733 0.627685 50.0771 1.04039 50.4315 1.57021C50.7859 2.10004 50.9752 2.72315 50.9752 3.3606C50.977 3.78279 50.8954 4.20119 50.7352 4.59178C50.5749 4.98237 50.339 5.33745 50.0411 5.63664C49.7432 5.93583 49.3892 6.17323 48.9993 6.33522C48.6094 6.49721 48.1914 6.5806 47.7692 6.5806ZM47.7692 1.5546C47.408 1.55183 47.0542 1.65657 46.7528 1.85548C46.4514 2.0544 46.2159 2.33849 46.0764 2.67162C45.937 3.00475 45.8997 3.37184 45.9695 3.72619C46.0393 4.08053 46.2129 4.40611 46.4683 4.66148C46.7237 4.91685 47.0492 5.09047 47.4036 5.16025C47.7579 5.23003 48.125 5.19281 48.4581 5.05332C48.7913 4.91384 49.0754 4.6784 49.2743 4.37697C49.4732 4.07553 49.5779 3.72174 49.5752 3.3606C49.5752 2.88162 49.3849 2.42225 49.0462 2.08356C48.7075 1.74487 48.2481 1.5546 47.7692 1.5546Z" fill="#FF9530"/>
<path d="M40.3771 44.1409C41.7611 44.1409 42.8831 43.0189 42.8831 41.6349C42.8831 40.2509 41.7611 39.1289 40.3771 39.1289C38.9931 39.1289 37.8711 40.2509 37.8711 41.6349C37.8711 43.0189 38.9931 44.1409 40.3771 44.1409Z" fill="#FF9530"/>
<path d="M40.3759 44.8007C39.7418 44.8007 39.122 44.6126 38.5948 44.2604C38.0675 43.9081 37.6566 43.4074 37.414 42.8216C37.1713 42.2357 37.1078 41.5911 37.2315 40.9692C37.3552 40.3473 37.6606 39.7761 38.1089 39.3277C38.5573 38.8793 39.1286 38.574 39.7505 38.4503C40.3724 38.3266 41.017 38.3901 41.6028 38.6327C42.1886 38.8754 42.6893 39.2863 43.0416 39.8135C43.3939 40.3407 43.5819 40.9606 43.5819 41.5947C43.5819 42.445 43.2441 43.2604 42.6429 43.8617C42.0417 44.4629 41.2262 44.8007 40.3759 44.8007ZM40.3759 39.7887C40.0187 39.7887 39.6696 39.8946 39.3726 40.093C39.0756 40.2915 38.8441 40.5735 38.7074 40.9035C38.5707 41.2335 38.5349 41.5967 38.6046 41.947C38.6743 42.2973 38.8463 42.6191 39.0989 42.8717C39.3515 43.1243 39.6733 43.2963 40.0236 43.366C40.3739 43.4357 40.737 43.3999 41.067 43.2632C41.3971 43.1265 41.6791 42.895 41.8776 42.598C42.076 42.301 42.1819 41.9519 42.1819 41.5947C42.1709 41.123 41.9758 40.6744 41.6383 40.3447C41.3008 40.015 40.8477 39.8305 40.3759 39.8307V39.7887Z" fill="#FF9530"/>
<path d="M32.648 55.9855H31.248V40.9355H37.926V42.3355H32.648V55.9855Z" fill="#FF9530"/>
<path d="M38.1918 32.2147H25.7598V30.8147H36.7918V15.9467L45.7378 5.13867L46.8158 6.03467L38.1918 16.4507V32.2147Z" fill="#FF9530"/>
</g>
<defs>
<clipPath id="clip0">
<rect width="56" height="56" fill="white"/>
</clipPath>
</defs>
</svg>
