<svg width="56" height="56" viewBox="0 0 56 56" fill="none" xmlns="http://www.w3.org/2000/svg">
<path d="M52.6815 23.002L51.7575 23.926C49.362 26.3396 46.1635 27.7893 42.7695 28H13.2435C11.6832 28.0059 10.1373 27.7021 8.69536 27.1061C7.25342 26.5101 5.94415 25.6338 4.84345 24.528L4.10145 23.8C3.77091 24.0991 3.5067 24.4642 3.32586 24.8717C3.14501 25.2792 3.05153 25.7201 3.05145 26.166L2.93945 40.222C2.93945 40.9646 3.23445 41.6767 3.75955 42.2019C4.28466 42.727 4.99685 43.022 5.73945 43.022H50.3015C51.1447 42.9052 51.9221 42.502 52.5032 41.88C53.0844 41.258 53.434 40.4551 53.4935 39.606C53.4935 39.606 53.8015 25.284 53.3395 23.8C53.2942 23.6272 53.2119 23.4664 53.0983 23.3286C52.9846 23.1908 52.8424 23.0793 52.6815 23.002Z" fill="#FFD0A4"/>
<path d="M12.9773 46.7598H8.77734V53.0598H12.9773V46.7598Z" fill="#FF9530"/>
<path d="M47.2918 46.6055H43.0918V52.9055H47.2918V46.6055Z" fill="#FF9530"/>
<path d="M10.8776 38.78C10.1328 38.7828 9.40386 38.5646 8.78302 38.1531C8.16217 37.7416 7.6773 37.1552 7.3897 36.4681C7.10211 35.7811 7.02472 35.0241 7.16732 34.2931C7.30991 33.562 7.66609 32.8896 8.19081 32.361C8.71553 31.8324 9.38523 31.4712 10.1152 31.3232C10.8452 31.1751 11.6027 31.2469 12.2919 31.5294C12.9811 31.8119 13.571 32.2924 13.9872 32.9101C14.4033 33.5279 14.6269 34.2552 14.6296 35C14.6315 35.4946 14.5359 35.9847 14.3483 36.4423C14.1608 36.8999 13.8849 37.3161 13.5365 37.6671C13.1881 38.0181 12.774 38.297 12.3178 38.488C11.8615 38.679 11.3722 38.7782 10.8776 38.78ZM10.8776 32.662C10.4079 32.6593 9.948 32.7964 9.55649 33.056C9.16497 33.3155 8.85958 33.6857 8.6792 34.1194C8.49882 34.5531 8.45162 35.0307 8.54362 35.4914C8.63562 35.952 8.86264 36.3748 9.19578 36.706C9.52892 37.0371 9.9531 37.2616 10.4143 37.3509C10.8754 37.4401 11.3527 37.3901 11.7854 37.2071C12.218 37.0242 12.5864 36.7166 12.8436 36.3235C13.1008 35.9304 13.2352 35.4697 13.2296 35C13.2223 34.3798 12.9717 33.7873 12.5318 33.35C12.0919 32.9127 11.4979 32.6656 10.8776 32.662Z" fill="#FF9530"/>
<path d="M45.1908 38.7798C44.4484 38.7715 43.725 38.544 43.1115 38.1258C42.4981 37.7076 42.0219 37.1174 41.7429 36.4294C41.4638 35.7413 41.3944 34.9862 41.5433 34.2588C41.6922 33.5315 42.0528 32.8643 42.5797 32.3413C43.1066 31.8182 43.7764 31.4626 44.5048 31.3191C45.2333 31.1756 45.9879 31.2506 46.6738 31.5347C47.3598 31.8187 47.9464 32.2993 48.3601 32.9158C48.7738 33.5323 48.996 34.2574 48.9988 34.9998C49.0007 35.4991 48.9032 35.9938 48.7122 36.4551C48.5211 36.9164 48.2403 37.3351 47.8859 37.6868C47.5316 38.0386 47.1108 38.3163 46.6481 38.504C46.1854 38.6916 45.69 38.7854 45.1908 38.7798ZM45.1908 32.6618C44.7235 32.6701 44.2692 32.8167 43.8851 33.0829C43.501 33.3491 43.2044 33.7231 43.0326 34.1577C42.8608 34.5923 42.8216 35.0681 42.9198 35.525C43.0181 35.9819 43.2495 36.3994 43.5848 36.7249C43.9201 37.0505 44.3443 37.2694 44.8038 37.3542C45.2634 37.439 45.7378 37.3857 46.1672 37.2012C46.5965 37.0167 46.9616 36.7091 47.2164 36.3173C47.4712 35.9256 47.6042 35.4671 47.5988 34.9998C47.5951 34.6879 47.5298 34.3798 47.4067 34.0932C47.2835 33.8066 47.1049 33.5472 46.8811 33.3299C46.6573 33.1126 46.3927 32.9417 46.1026 32.8271C45.8126 32.7124 45.5027 32.6563 45.1908 32.6618Z" fill="#FF9530"/>
<path d="M33.8668 32.9277H22.1348V34.3277H33.8668V32.9277Z" fill="#FF9530"/>
<path d="M31.5287 36.5684H24.4727V37.9684H31.5287V36.5684Z" fill="#FF9530"/>
<path d="M50.2599 42.8965H5.75391V44.2965H50.2599V42.8965Z" fill="#FF9530"/>
<path d="M12.5995 23.8004H13.5795H42.7695C45.0408 23.596 47.1697 22.6058 48.7895 21.0004L49.7415 20.0484L45.0515 10.3744C44.7302 9.70783 44.2274 9.14535 43.6009 8.7516C42.9744 8.35785 42.2495 8.14879 41.5095 8.14844H14.3215C13.5711 8.1502 12.8367 8.36579 12.2044 8.76996C11.5721 9.17412 11.0681 9.75011 10.7515 10.4304L6.27148 20.0064L7.82548 21.5464C9.09276 22.8491 10.7883 23.6497 12.5995 23.8004Z" fill="#FF9530"/>
</svg>
