<svg width="53" height="53" viewBox="0 0 53 53" fill="none" xmlns="http://www.w3.org/2000/svg">
<path d="M16.063 12.9278C16.042 13.1012 16.1803 13.25 16.3549 13.25H19.1018C19.2511 13.25 19.3764 13.1398 19.4075 12.9938C19.7791 11.2474 21.3303 9.9375 23.1874 9.9375H29.8124C31.6695 9.9375 33.2207 11.2474 33.5923 12.9938C33.6234 13.1398 33.7487 13.25 33.898 13.25H36.6449C36.8195 13.25 36.9578 13.1012 36.9368 12.9278C36.5055 9.37636 33.4802 6.625 29.8124 6.625H23.1874C19.5196 6.625 16.4944 9.37636 16.063 12.9278Z" fill="#FF9530"/>
<rect x="6.625" y="14.9062" width="39.75" height="28.7083" rx="4" fill="#FFD0A4"/>
<path d="M45.2919 19.4981C45.8123 20.4469 46.1636 21.5016 46.3051 22.6218L29.2936 26.724C27.4804 27.1613 25.5201 27.1613 23.7069 26.724L6.69531 22.6217C6.83683 21.5016 7.1881 20.4468 7.70854 19.498L25.1036 23.6928C26.0102 23.9114 26.9903 23.9114 27.8969 23.6928L45.2919 19.4981Z" fill="#FF9530"/>
</svg>
