<svg width="17" height="18" viewBox="0 0 17 18" fill="none" xmlns="http://www.w3.org/2000/svg">
<path d="M3.79186 1.88307L4.26019 1.6232C5.00833 1.20806 5.38239 1.00049 5.75588 1.08606L5.76269 1.08765C6.13557 1.17583 6.37951 1.52726 6.86738 2.23014L7.29101 2.84046C7.47849 3.11056 7.57223 3.24562 7.61711 3.37384C7.74508 3.73942 7.65043 4.14602 7.37416 4.41749C7.27726 4.51271 7.13351 4.59247 6.84602 4.75201L6.84601 4.75201C6.70965 4.82767 6.64147 4.86551 6.55802 4.94013C6.35845 5.11857 6.20411 5.51143 6.22885 5.77799C6.23919 5.88947 6.25441 5.93607 6.28483 6.02928C6.53661 6.8006 7.08294 7.99637 8.2452 9.19291C9.36401 10.3447 10.4334 11.0695 11.1422 11.4782C11.2279 11.5277 11.2708 11.5524 11.3564 11.5829C11.6722 11.6952 12.1321 11.599 12.3764 11.3695C12.4426 11.3073 12.484 11.2511 12.5668 11.1388C12.7168 10.9354 12.7917 10.8337 12.8695 10.7644C13.1927 10.4764 13.6645 10.4291 14.0384 10.6471C14.1285 10.6996 14.2221 10.7843 14.4095 10.9538L15.0216 11.5077C15.656 12.0817 15.9733 12.3688 16.0129 12.7499L16.0136 12.7568C16.0505 13.1382 15.7966 13.4826 15.2889 14.1712L14.9711 14.6023L14.3586 15.4331C13.9845 15.9404 13.7975 16.1941 13.4542 16.2832C13.1109 16.3722 12.86 16.2578 12.3582 16.029C11.0542 15.4344 8.80151 14.1271 6.05625 11.3819C3.09185 8.41746 2.16523 5.64631 1.87608 4.15696C1.78559 3.69088 1.74034 3.45784 1.87755 3.16352C2.01475 2.86919 2.26001 2.7331 2.75053 2.46091L3.79186 1.88307Z" fill="#09183F" fill-opacity="0.4"/>
</svg>
