<svg width="56" height="56" viewBox="0 0 56 56" fill="none" xmlns="http://www.w3.org/2000/svg">
<g clip-path="url(#clip0)">
<path d="M56.07 54.8931H43.134H41.58H0V9.95312H56.07V42.6571V54.8931Z" fill="#FFD0A4"/>
<path d="M14.014 24.235C15.9083 24.235 17.444 22.6993 17.444 20.805C17.444 18.9107 15.9083 17.375 14.014 17.375C12.1196 17.375 10.584 18.9107 10.584 20.805C10.584 22.6993 12.1196 24.235 14.014 24.235Z" fill="#FF9530"/>
<path d="M45.0234 24.1923H38.2334V17.4023H45.0234V24.1923ZM39.6334 22.7923H43.6234V18.8023H39.6334V22.7923Z" fill="#FF9530"/>
<path d="M44.954 36.7363H38.29V30.0723H44.954V36.7363ZM39.69 35.3363H43.554V31.4723H39.69V35.3363Z" fill="#FF9530"/>
<path d="M38.9899 20.1035H16.2119V21.5035H38.9899V20.1035Z" fill="#FF9530"/>
<path d="M38.99 34.1036H26.418V21.5176H27.818V32.7036H38.99V34.1036Z" fill="#FF9530"/>
<path d="M17.3456 48.622H10.6816V42H17.3456V48.622ZM12.0816 47.222H15.9456V43.4H12.0816V47.222Z" fill="#FF9530"/>
<path d="M27.8175 45.9903H16.6455V44.5903H26.4175V33.4043H27.8175V45.9903Z" fill="#FF9530"/>
<path d="M56 1.66602H0V5.86602H56V1.66602Z" fill="#FF9530"/>
</g>
<defs>
<clipPath id="clip0">
<rect width="56" height="56" fill="white"/>
</clipPath>
</defs>
</svg>
