<svg width="57" height="56" viewBox="0 0 57 56" fill="none" xmlns="http://www.w3.org/2000/svg">
<path d="M24.15 38.9616H38.15V31.8496H15.75L7.462 39.7036V35.2236L0 35.2516V46.4516V55.9996H7.826V51.3796H37.8L56.154 32.0596L50.694 26.5996L38.094 38.7796C38.0941 38.8011 38.0897 38.8223 38.0811 38.842C38.0725 38.8616 38.0599 38.8793 38.0441 38.8938C38.0282 38.9083 38.0096 38.9193 37.9892 38.9262C37.9689 38.933 37.9474 38.9356 37.926 38.9336L24.15 38.9616Z" fill="#FFD0A4"/>
<path d="M23.4922 38.7096H37.9262V31.8496" stroke="#FF9530" stroke-miterlimit="10"/>
<path d="M32.6482 19.9641C34.7772 18.9106 36.4874 17.1681 37.5009 15.0198C38.5143 12.8714 38.7715 10.4435 38.2306 8.13051C37.6896 5.81752 36.3824 3.75545 34.5213 2.27938C32.6602 0.803306 30.3546 0 27.9792 0C25.6038 0 23.2982 0.803306 21.4371 2.27938C19.576 3.75545 18.2687 5.81752 17.7278 8.13051C17.1869 10.4435 17.444 12.8714 18.4575 15.0198C19.471 17.1681 21.1812 18.9106 23.3102 19.9641C23.4349 20.031 23.5747 20.0647 23.7162 20.0621H32.2002C32.3558 20.0731 32.5114 20.0391 32.6482 19.9641Z" fill="#FF9530"/>
<path d="M31.5277 22.4844H24.3457V27.5384H31.5277V22.4844Z" fill="#FF9530"/>
<path d="M25.0039 29.9746H30.8839" stroke="#FF9530" stroke-miterlimit="10"/>
<path d="M28 10.0234V20.0614" stroke="#FFD0A4" stroke-miterlimit="10"/>
</svg>
