<svg width="55" height="53" viewBox="0 0 55 53" fill="none" xmlns="http://www.w3.org/2000/svg">
<path d="M28.7599 24.93H6.1699C5.3299 24.93 4.6499 24.25 4.6499 23.41V13.27C4.6499 6.18996 10.3899 0.459961 17.4599 0.459961C24.5399 0.459961 30.2699 6.19996 30.2699 13.27V23.41C30.2799 24.25 29.5999 24.93 28.7599 24.93Z" fill="#FF9530"/>
<path d="M31.45 31.6201C31.48 31.3001 31.39 30.9801 31.19 30.7301C29.01 27.9901 25.96 26.5801 22.14 26.5801H13.06C6.37996 26.5801 0.959961 32.0001 0.959961 38.6801V50.9301C0.959961 51.6101 1.50996 52.1601 2.18996 52.1601H28.38C29.01 52.1601 29.54 51.6801 29.6 51.0501L31.45 31.6201Z" fill="#FF9530"/>
<path d="M17.5999 26.8503C22.841 26.8503 27.0899 21.7418 27.0899 15.4403C27.0899 9.1387 22.841 4.03027 17.5999 4.03027C12.3587 4.03027 8.10986 9.1387 8.10986 15.4403C8.10986 21.7418 12.3587 26.8503 17.5999 26.8503Z" fill="#FFD0A4"/>
<path d="M17.6 31.5302C15.47 31.5302 13.75 29.8102 13.75 27.6802V26.3002C13.75 24.1702 15.47 22.4502 17.6 22.4502C19.73 22.4502 21.45 24.1702 21.45 26.3002V27.6702C21.45 29.8102 19.73 31.5302 17.6 31.5302Z" fill="#FFD0A4"/>
<path d="M4.6499 16.0002V13.2602C4.6499 6.1802 10.3899 0.450195 17.4599 0.450195C21.8299 0.450195 25.6899 2.6402 27.9999 5.9802" fill="#FF9530"/>
<path d="M53.72 52.1504H32.06C31.39 52.1504 30.86 51.5704 30.93 50.9004L33.45 25.9604C33.51 25.3804 34 24.9404 34.58 24.9404H50.82C51.4 24.9404 51.88 25.3704 51.95 25.9504L54.85 50.8904C54.93 51.5604 54.4 52.1504 53.72 52.1504Z" fill="#FFD0A4"/>
<path d="M39.46 28.8503V21.2903C39.46 19.3503 41.03 17.7803 42.97 17.7803C44.91 17.7803 46.48 19.3503 46.48 21.2903V28.8503" stroke="#FF9530" stroke-width="2" stroke-miterlimit="10" stroke-linecap="round"/>
</svg>
