<svg width="18" height="19" viewBox="0 0 18 19" fill="none" xmlns="http://www.w3.org/2000/svg">
<path opacity="0.3" fill-rule="evenodd" clip-rule="evenodd" d="M14.312 12.9033L17.707 16.301C18.098 16.6921 18.098 17.3245 17.707 17.7156C17.512 17.9107 17.256 18.0088 17 18.0088C16.744 18.0088 16.488 17.9107 16.293 17.7156L12.897 14.319C11.543 15.3725 9.846 16.0078 8 16.0078C3.589 16.0078 0 12.4171 0 8.00391C0 3.59075 3.589 0 8 0C12.411 0 16 3.59075 16 8.00391C16 9.85081 15.365 11.5486 14.312 12.9033ZM8 1C4.1395 1 1 4.1395 1 8C1 11.8605 4.1395 15 8 15C11.8605 15 15 11.8605 15 8C15 4.1395 11.8605 1 8 1Z" fill="#1D1919"/>
</svg>
