<svg width="55" height="49" viewBox="0 0 55 49" fill="none" xmlns="http://www.w3.org/2000/svg">
<path d="M27.4601 47.6101C40.2234 47.6101 50.5701 37.2634 50.5701 24.5001C50.5701 11.7368 40.2234 1.39014 27.4601 1.39014C14.6968 1.39014 4.3501 11.7368 4.3501 24.5001C4.3501 37.2634 14.6968 47.6101 27.4601 47.6101Z" fill="#FFD0A4"/>
<path d="M18.0601 27.2801L31.3301 8.90013C31.5901 8.54013 32.1601 8.80013 32.0501 9.24013L29.1201 21.0001C29.0601 21.2601 29.2501 21.5001 29.5101 21.5001H37.0601C37.3901 21.5001 37.5901 21.8801 37.3901 22.1501L23.2601 41.1501C22.9901 41.5101 22.4301 41.2401 22.5401 40.8101L25.6301 28.5201C25.6901 28.2701 25.5001 28.0201 25.2401 28.0101L18.3901 27.9101C18.0501 27.9201 17.8701 27.5401 18.0601 27.2801Z" fill="#FF9530"/>
<path d="M26.5898 42.4L36.2898 29.5" stroke="#FF9530" stroke-width="2" stroke-miterlimit="10" stroke-linecap="round"/>
<path d="M38.1099 27.0598L39.0499 25.8198" stroke="#FF9530" stroke-width="2" stroke-miterlimit="10" stroke-linecap="round"/>
<path d="M28.4197 7.41992L18.7197 20.3199" stroke="#FF9530" stroke-width="2" stroke-miterlimit="10" stroke-linecap="round"/>
<path d="M16.5999 22.7798L15.6899 23.9998" stroke="#FF9530" stroke-width="2" stroke-miterlimit="10" stroke-linecap="round"/>
<path d="M4.53027 21.5801C5.97027 10.1901 15.6803 1.39014 27.4603 1.39014C39.1103 1.39014 48.7403 10.0101 50.3403 21.2101" stroke="#FF9530" stroke-width="2" stroke-miterlimit="10" stroke-linecap="round"/>
<path d="M50.4403 26.8604C49.2603 38.5104 39.4203 47.6003 27.4503 47.6003C15.6403 47.6003 5.91025 38.7504 4.51025 27.3204" stroke="#FF9530" stroke-width="2" stroke-miterlimit="10" stroke-linecap="round"/>
<path d="M1.83008 30.9801L4.58008 26.8501L8.83008 29.6101" stroke="#FF9530" stroke-width="2" stroke-miterlimit="10" stroke-linecap="round"/>
<path d="M53.5599 17.79L50.2799 21.51L46.4399 18.2" stroke="#FF9530" stroke-width="2" stroke-miterlimit="10" stroke-linecap="round"/>
</svg>
