<svg width="53" height="53" viewBox="0 0 53 53" fill="none" xmlns="http://www.w3.org/2000/svg">
<g clip-path="url(#clip0_491_9109)">
<path d="M19.41 15.72C23.3368 15.72 26.52 12.5367 26.52 8.61C26.52 4.68326 23.3368 1.5 19.41 1.5C15.4833 1.5 12.3 4.68326 12.3 8.61C12.3 12.5367 15.4833 15.72 19.41 15.72Z" stroke="#1B4A52" stroke-width="3" stroke-linecap="round" stroke-linejoin="round"/>
<path d="M40 35.83C42.8553 35.83 45.17 33.5153 45.17 30.66C45.17 27.8047 42.8553 25.49 40 25.49C37.1446 25.49 34.83 27.8047 34.83 30.66C34.83 33.5153 37.1446 35.83 40 35.83Z" stroke="#E2504B" stroke-width="3" stroke-linecap="round" stroke-linejoin="round"/>
<path d="M30.49 51.24C29.9476 51.2405 29.4132 51.1089 28.9331 50.8566C28.453 50.6042 28.0415 50.2387 27.7343 49.7917C27.4271 49.3447 27.2334 48.8296 27.1699 48.2909C27.1064 47.7522 27.1751 47.2062 27.37 46.7C28.2822 44.3674 29.8767 42.3641 31.9453 40.9519C34.0139 39.5396 36.4603 38.7842 38.965 38.7842C41.4697 38.7842 43.9161 39.5396 45.9847 40.9519C48.0533 42.3641 49.6478 44.3674 50.56 46.7C50.7549 47.2062 50.8236 47.7522 50.7601 48.2909C50.6966 48.8296 50.5029 49.3447 50.1957 49.7917C49.8885 50.2387 49.477 50.6042 48.9969 50.8566C48.5168 51.1089 47.9824 51.2405 47.44 51.24H30.49Z" stroke="#E2504B" stroke-width="3" stroke-linecap="round" stroke-linejoin="round"/>
<path d="M28.95 37.67H5.3C4.71756 37.6698 4.14298 37.5357 3.62062 37.2781C3.09825 37.0204 2.6421 36.6462 2.2874 36.1842C1.9327 35.7222 1.68892 35.1849 1.57493 34.6137C1.46095 34.0425 1.47981 33.4528 1.63002 32.89C2.46782 29.7762 4.10877 26.9371 6.38866 24.6567C8.66854 22.3764 11.5074 20.7349 14.621 19.8965C17.7347 19.0581 21.014 19.0522 24.1306 19.8794C27.2472 20.7066 30.092 22.3379 32.38 24.61" stroke="#1B4A52" stroke-width="3" stroke-linecap="round" stroke-linejoin="round"/>
</g>
<defs>
<clipPath id="clip0_491_9109">
<rect width="52.3" height="52.74" fill="white"/>
</clipPath>
</defs>
</svg>
