<svg width="49" height="54" viewBox="0 0 49 54" fill="none" xmlns="http://www.w3.org/2000/svg">
<g clip-path="url(#clip0_491_9081)">
<path d="M1.5 24.9L14.2 16.4" stroke="#1B4A52" stroke-width="3" stroke-linecap="round" stroke-linejoin="round"/>
<path d="M46.51 24.9L41 18.59" stroke="#1B4A52" stroke-width="3" stroke-linecap="round" stroke-linejoin="round"/>
<path d="M10.98 28.2L19.28 6.08997L37.02 12.74L28.96 34.23" stroke="#E2504B" stroke-width="3" stroke-linecap="round" stroke-linejoin="round"/>
<path d="M25.33 7.75L30.68 1.5L45.07 13.83L30.1 31.3" stroke="#E2504B" stroke-width="3" stroke-linecap="round" stroke-linejoin="round"/>
<path d="M46.51 51.73H1.5V24.9L24 38.31L46.51 24.9V51.73Z" stroke="#1B4A52" stroke-width="3" stroke-linecap="round" stroke-linejoin="round"/>
<path d="M20.48 16.91L22.08 12.71L30.18 15.8L28.41 20.09" stroke="#E2504B" stroke-width="3" stroke-linecap="round" stroke-linejoin="round"/>
<path d="M21.4201 30.84C23.7617 30.84 25.6601 28.9417 25.6601 26.6C25.6601 24.2583 23.7617 22.36 21.4201 22.36C19.0784 22.36 17.1801 24.2583 17.1801 26.6C17.1801 28.9417 19.0784 30.84 21.4201 30.84Z" stroke="#E2504B" stroke-width="3" stroke-linecap="round" stroke-linejoin="round"/>
<path d="M1.5 51.73L18.11 34.8" stroke="#1B4A52" stroke-width="3" stroke-linecap="round" stroke-linejoin="round"/>
<path d="M46.51 51.73L31.53 33.83" stroke="#1B4A52" stroke-width="3" stroke-linecap="round" stroke-linejoin="round"/>
</g>
<defs>
<clipPath id="clip0_491_9081">
<rect width="48.01" height="53.23" fill="white"/>
</clipPath>
</defs>
</svg>
