<svg width="52" height="53" viewBox="0 0 52 53" fill="none" xmlns="http://www.w3.org/2000/svg">
<g clip-path="url(#clip0_491_9095)">
<path d="M17.33 40.38H49" stroke="#1B4A52" stroke-width="3" stroke-linecap="round" stroke-linejoin="round"/>
<path d="M1.5 36.1299C1.5 36.1299 18.02 33.4999 20.77 51.4299" stroke="#1B4A52" stroke-width="3" stroke-linecap="round" stroke-linejoin="round"/>
<path d="M22.67 46.3H43.66" stroke="#1B4A52" stroke-width="3" stroke-linecap="round" stroke-linejoin="round"/>
<path d="M20.77 13.9399C20.08 30.6399 9.07001 36.1199 9.07001 36.1199" stroke="#1B4A52" stroke-width="3" stroke-linecap="round" stroke-linejoin="round"/>
<path d="M20.77 13.94C11.14 10.76 7.66998 20.57 7.66998 20.57" stroke="#1B4A52" stroke-width="3" stroke-linecap="round" stroke-linejoin="round"/>
<path d="M20.77 13.94C16.21 4.86996 6.84998 9.36996 6.84998 9.36996" stroke="#1B4A52" stroke-width="3" stroke-linecap="round" stroke-linejoin="round"/>
<path d="M20.18 13.5201C30.32 12.9101 31.13 23.2701 31.13 23.2701" stroke="#1B4A52" stroke-width="3" stroke-linecap="round" stroke-linejoin="round"/>
<path d="M34.81 12.67C34.81 12.67 26.92 5.92002 20.18 13.52C20.18 13.52 20.36 3.45002 25.33 1.52002" stroke="#1B4A52" stroke-width="3" stroke-linecap="round" stroke-linejoin="round"/>
<path d="M43.66 31.6399C47.3051 31.6399 50.26 28.685 50.26 25.0399C50.26 21.3949 47.3051 18.4399 43.66 18.4399C40.0149 18.4399 37.06 21.3949 37.06 25.0399C37.06 28.685 40.0149 31.6399 43.66 31.6399Z" stroke="#E2504B" stroke-width="3" stroke-linecap="round" stroke-linejoin="round"/>
</g>
<defs>
<clipPath id="clip0_491_9095">
<rect width="51.76" height="52.93" fill="white"/>
</clipPath>
</defs>
</svg>
