<svg width="56" height="56" viewBox="0 0 56 56" fill="none" xmlns="http://www.w3.org/2000/svg">
<path d="M28.0003 18.9844C26.2753 18.9844 24.589 19.4959 23.1546 20.4543C21.7203 21.4127 20.6024 22.7749 19.9422 24.3686C19.2821 25.9623 19.1094 27.7161 19.4459 29.408C19.7825 31.0999 20.6131 32.654 21.8329 33.8738C23.0527 35.0936 24.6068 35.9242 26.2987 36.2608C27.9906 36.5973 29.7444 36.4246 31.3381 35.7645C32.9318 35.1043 34.294 33.9864 35.2524 32.5521C36.2108 31.1177 36.7223 29.4314 36.7223 27.7064C36.7223 25.3932 35.8034 23.1747 34.1677 21.539C32.532 19.9033 30.3135 18.9844 28.0003 18.9844Z" fill="#FFD0A4"/>
<path d="M42.4057 22.3995L39.8857 24.7515L24.3317 9.60352H23.0437V13.4115C23.0465 13.5098 23.0293 13.6076 22.9932 13.699C22.9571 13.7904 22.9029 13.8736 22.8337 13.9435C22.7634 14.0151 22.6795 14.0719 22.587 14.1107C22.4944 14.1494 22.3951 14.1694 22.2947 14.1694C22.1944 14.1694 22.0951 14.1494 22.0025 14.1107C21.91 14.0719 21.8261 14.0151 21.7557 13.9435L18.9557 11.1435L11.5357 18.5495L14.0977 21.2095C14.2237 21.3635 13.9577 22.4975 13.5377 22.4975H10.0938V32.7875H13.5237C13.7234 32.7904 13.9142 32.8707 14.0557 33.0115C14.1273 33.0819 14.1841 33.1658 14.2229 33.2583C14.2617 33.3508 14.2816 33.4502 14.2816 33.5505C14.2816 33.6509 14.2617 33.7502 14.2229 33.8427C14.1841 33.9353 14.1273 34.0192 14.0557 34.0895L11.5357 36.7215L18.3397 43.5395L14.2657 53.0175L20.2437 52.2335L23.9397 55.9995L27.9997 47.0395L31.9757 55.9995L35.6717 52.2335L41.6497 53.0175L37.6037 43.5815L44.4777 36.7355L41.9997 34.1455C41.858 33.9988 41.7779 33.8035 41.7757 33.5995C41.7794 33.3977 41.8622 33.2055 42.0062 33.0641C42.1502 32.9227 42.3439 32.8435 42.5457 32.8435H45.9757V22.5535L42.8117 22.4835C42.6726 22.4792 42.5352 22.4508 42.4057 22.3995ZM37.0437 44.1135L36.5397 44.6455C36.3157 44.4355 34.4537 42.7135 33.6697 42.0695V46.4935H22.3997V41.9995C21.6577 42.6155 19.7117 44.3935 19.4877 44.6175L18.7037 43.8055L18.5077 43.6095C20.5797 41.5655 21.8677 40.5995 22.2737 40.5995C22.4708 40.596 22.6664 40.6342 22.8477 40.7115C23.1191 40.8031 23.3559 40.9756 23.5261 41.2059C23.6964 41.4362 23.7919 41.7132 23.7997 41.9995V45.1075H32.1997V41.9995C32.1789 41.7027 32.2532 41.407 32.4118 41.1553C32.5704 40.9035 32.805 40.7089 33.0817 40.5995C33.2631 40.5222 33.4587 40.484 33.6557 40.4875C34.0617 40.4875 35.3497 41.5235 37.4917 43.5955L37.0437 44.1135ZM27.9997 37.7995C25.9978 37.7995 24.0408 37.2059 22.3763 36.0937C20.7117 34.9814 19.4143 33.4006 18.6482 31.551C17.8821 29.7015 17.6817 27.6663 18.0722 25.7028C18.4628 23.7393 19.4268 21.9358 20.8424 20.5202C22.258 19.1046 24.0616 18.1406 26.025 17.75C27.9885 17.3594 30.0237 17.5599 31.8733 18.326C33.7228 19.0921 35.3037 20.3895 36.4159 22.054C37.5281 23.7186 38.1217 25.6756 38.1217 27.6775C38.118 30.3609 37.0504 32.9333 35.153 34.8308C33.2555 36.7282 30.6831 37.7958 27.9997 37.7995Z" fill="#FFD0A4"/>
<path d="M33.0958 40.6005C32.8165 40.7075 32.5788 40.9012 32.4176 41.1531C32.2563 41.4051 32.18 41.702 32.1998 42.0005V45.1085H23.7998V42.0005C23.8206 41.7037 23.7464 41.408 23.5878 41.1563C23.4292 40.9045 23.1945 40.7099 22.9178 40.6005C22.7365 40.5232 22.5409 40.485 22.3438 40.4885C21.9378 40.4885 20.6498 41.5245 18.5078 43.5965L18.7038 43.7925L19.4878 44.6045C19.5998 44.4225 21.5878 42.6445 22.3998 42.0005V46.4665H33.5998V42.0425C34.3838 42.6865 36.2458 44.4085 36.4698 44.6185L36.9738 44.0865L37.4358 43.6105C35.3638 41.5665 34.0758 40.6005 33.6698 40.6005C33.4805 40.5609 33.2851 40.5609 33.0958 40.6005Z" fill="#FF9530"/>
<path d="M27.9999 17.584C25.998 17.584 24.041 18.1776 22.3765 19.2898C20.7119 20.4021 19.4145 21.9829 18.6484 23.8325C17.8823 25.682 17.6819 27.7172 18.0724 29.6807C18.463 31.6442 19.427 33.4477 20.8426 34.8633C22.2582 36.2789 24.0618 37.2429 26.0252 37.6335C27.9887 38.0241 30.0239 37.8236 31.8735 37.0575C33.723 36.2914 35.3039 34.994 36.4161 33.3295C37.5283 31.6649 38.1219 29.7079 38.1219 27.706C38.1219 25.0215 37.0555 22.4469 35.1573 20.5486C33.259 18.6504 30.6845 17.584 27.9999 17.584ZM27.9999 36.4C26.2749 36.4 24.5886 35.8885 23.1543 34.9301C21.7199 33.9717 20.602 32.6095 19.9419 31.0158C19.2817 29.422 19.109 27.6683 19.4455 25.9764C19.7821 24.2845 20.6128 22.7304 21.8325 21.5106C23.0523 20.2908 24.6065 19.4601 26.2984 19.1236C27.9903 18.787 29.744 18.9598 31.3377 19.6199C32.9314 20.2801 34.2936 21.398 35.252 22.8323C36.2104 24.2666 36.7219 25.9529 36.7219 27.678C36.7182 29.9901 35.7981 32.2064 34.1632 33.8413C32.5283 35.4762 30.312 36.3963 27.9999 36.4Z" fill="#FF9530"/>
<path d="M55.72 3.58323L52.752 0.615234L39.816 13.5512L32.9 6.35523L29.876 9.26723L39.76 19.5572L55.72 3.58323Z" fill="#FF9530"/>
</svg>
