<svg width="40" height="40" viewBox="0 0 40 40" fill="none" xmlns="http://www.w3.org/2000/svg">
<g clip-path="url(#clip0)">
<path d="M3.22969 40.0007L3.17969 19.2607L20.0097 7.4707L37.0597 19.4607L37.2397 40.0007H3.22969Z" fill="#FFD0A4"/>
<path d="M15.6192 25.34C15.609 25.3326 15.5968 25.3287 15.5842 25.3287C15.5716 25.3287 15.5594 25.3326 15.5492 25.34C15.0924 25.5132 14.6077 25.6014 14.1192 25.6C13.3128 25.5633 12.5332 25.2998 11.8698 24.8399C11.2065 24.38 10.6864 23.7422 10.3692 23C10.1559 22.6122 10.0261 22.1842 9.9882 21.7433C9.95031 21.3023 10.0052 20.8584 10.1492 20.44C10.1558 20.4316 10.1641 20.4249 10.1736 20.4203C10.1832 20.4157 10.1936 20.4133 10.2042 20.4133C10.2148 20.4133 10.2252 20.4157 10.2348 20.4203C10.2443 20.4249 10.2527 20.4316 10.2592 20.44L12.6392 22.82C12.6486 22.8244 12.6588 22.8267 12.6692 22.8267C12.6796 22.8267 12.6898 22.8244 12.6992 22.82L14.8692 22.55C14.8835 22.5502 14.8974 22.5452 14.9085 22.5361C14.9195 22.5269 14.9268 22.5141 14.9292 22.5L15.4892 20.25C15.4945 20.2391 15.4973 20.2271 15.4973 20.215C15.4973 20.2028 15.4945 20.1909 15.4892 20.18L13.3792 17.76C13.3709 17.7534 13.3642 17.7451 13.3595 17.7355C13.3549 17.726 13.3525 17.7156 13.3525 17.705C13.3525 17.6944 13.3549 17.6839 13.3595 17.6744C13.3642 17.6649 13.3709 17.6565 13.3792 17.65C14.1384 17.4016 14.9615 17.4335 15.6992 17.74C16.4496 18.0411 17.0911 18.5625 17.5392 19.2355C17.9873 19.9085 18.2209 20.7015 18.2092 21.51C18.2078 22.1705 18.0963 22.8261 17.8792 23.45C17.8719 23.4602 17.8679 23.4724 17.8679 23.485C17.8679 23.4975 17.8719 23.5098 17.8792 23.52L28.1492 33.92C28.1559 33.9265 28.1611 33.9343 28.1647 33.9428C28.1684 33.9514 28.1702 33.9607 28.1702 33.97C28.1702 33.9793 28.1684 33.9885 28.1647 33.9971C28.1611 34.0057 28.1559 34.0134 28.1492 34.02L26.2392 35.93C26.2327 35.9366 26.2249 35.9419 26.2163 35.9455C26.2077 35.9491 26.1985 35.951 26.1892 35.951C26.1799 35.951 26.1707 35.9491 26.1621 35.9455C26.1535 35.9419 26.1457 35.9366 26.1392 35.93L15.6192 25.34Z" fill="#FF9530"/>
<path d="M26.1905 36.2002C26.1054 36.1992 26.0237 36.1672 25.9605 36.1102L15.5205 25.6002C15.0693 25.7518 14.5965 25.8294 14.1205 25.8302C13.2623 25.8063 12.429 25.5363 11.7198 25.0523C11.0107 24.5683 10.4556 23.8907 10.1205 23.1002C9.89507 22.6788 9.75756 22.216 9.7163 21.7399C9.67505 21.2637 9.73091 20.7841 9.88051 20.3302C9.90038 20.2806 9.93201 20.2365 9.97268 20.2018C10.0134 20.1671 10.0618 20.1428 10.114 20.131C10.1661 20.1192 10.2204 20.1203 10.272 20.1341C10.3237 20.1479 10.3712 20.174 10.4105 20.2102L12.7305 22.5302L14.7305 22.2902L15.2405 20.2902L13.1905 17.9302C13.1599 17.8891 13.1379 17.8422 13.1259 17.7924C13.1138 17.7425 13.112 17.6908 13.1205 17.6402V17.5202L13.2805 17.4302C14.0932 17.157 14.977 17.1854 15.7705 17.5102C16.5699 17.8258 17.2539 18.3779 17.7311 19.0927C18.2082 19.8075 18.4557 20.6509 18.4405 21.5102C18.4361 22.1623 18.3315 22.8099 18.1305 23.4302L28.4005 33.8202V33.9702C28.4015 34.0126 28.394 34.0548 28.3786 34.0943C28.3631 34.1337 28.34 34.1698 28.3105 34.2002L26.3905 36.1102C26.337 36.1636 26.2659 36.1956 26.1905 36.2002ZM15.8005 25.2002L26.1905 35.6302L27.8505 34.0002L17.7205 23.6602C17.6774 23.6163 17.6478 23.5609 17.6354 23.5005C17.623 23.4402 17.6282 23.3776 17.6505 23.3202C17.8727 22.7317 17.9911 22.1092 18.0005 21.4802C18.0193 20.7217 17.805 19.9756 17.3866 19.3426C16.9682 18.7097 16.3657 18.2202 15.6605 17.9402C15.0633 17.7028 14.4092 17.6471 13.7805 17.7802L15.6705 20.0002C15.7024 20.0406 15.7244 20.0878 15.7349 20.1381C15.7453 20.1885 15.7438 20.2406 15.7305 20.2902L15.1705 22.5402C15.1562 22.6034 15.1225 22.6606 15.0741 22.7036C15.0256 22.7467 14.9649 22.7735 14.9005 22.7802L12.6105 23.0702L12.4605 23.0002L10.3005 20.7902C10.1434 21.4959 10.2464 22.2345 10.5905 22.8702C10.8942 23.5664 11.3848 24.1648 12.0079 24.5991C12.631 25.0333 13.3623 25.2864 14.1205 25.3302C14.5779 25.3309 15.0318 25.2496 15.4605 25.0902C15.5177 25.0666 15.5806 25.0607 15.6412 25.0732C15.7018 25.0857 15.7573 25.116 15.8005 25.1602V25.2002Z" fill="#FF9530"/>
<path d="M10.7988 36.2697L11.9488 32.2697L12.0388 32.1797L27.3188 17.1797L30.7588 20.1297L14.8188 35.3797L10.7988 36.2697ZM12.7988 32.7997L12.1888 34.9297L14.3088 34.4697L29.2688 20.1997L27.3688 18.5597L12.7988 32.7997Z" fill="#FF9530"/>
<path d="M38.2298 16.9998L20.0298 3.82984L1.74977 16.8598L0.00976562 14.4098L20.0998 0.0898438L21.5398 1.20984L39.9898 14.5698L38.2298 16.9998Z" fill="#FF9530"/>
</g>
<defs>
<clipPath id="clip0">
<rect width="40" height="40" fill="white"/>
</clipPath>
</defs>
</svg>
