<svg width="54" height="52" viewBox="0 0 54 52" fill="none" xmlns="http://www.w3.org/2000/svg">
<path d="M47.14 13.6702L40.83 19.0602C40.49 19.3502 39.96 19.0902 39.99 18.6402L41.04 0.890156C41.06 0.620156 41.28 0.410156 41.55 0.410156H46.07C46.34 0.410156 46.57 0.620156 46.58 0.890156L47.32 13.2502C47.33 13.4102 47.26 13.5602 47.14 13.6702Z" fill="#FF9530"/>
<path d="M1.20996 51.5701V27.5401L16.56 13.8301V27.5401L34.62 13.2801V28.1601L52.75 12.3501V51.5701H1.20996Z" fill="#FFD0A4"/>
<path d="M15.3199 33.3203H5.8999V36.7003H15.3199V33.3203Z" stroke="#FF9530" stroke-width="2" stroke-miterlimit="10" stroke-linecap="round" stroke-linejoin="round"/>
<path d="M31.6397 33.3203H22.2197V36.7003H31.6397V33.3203Z" stroke="#FF9530" stroke-width="2" stroke-miterlimit="10" stroke-linecap="round" stroke-linejoin="round"/>
<path d="M48.0997 33.3203H38.6797V36.7003H48.0997V33.3203Z" stroke="#FF9530" stroke-width="2" stroke-miterlimit="10" stroke-linecap="round" stroke-linejoin="round"/>
<path d="M29.96 51.3202H22.79V41.1202C22.79 40.6102 23.2 40.2002 23.71 40.2002H29.05C29.56 40.2002 29.97 40.6102 29.97 41.1202V51.3202H29.96Z" fill="#FF9530"/>
<path d="M1.20996 27.54L15.75 14.5" stroke="#FF9530" stroke-width="2" stroke-miterlimit="10" stroke-linecap="round"/>
<path d="M16.5601 27.54L33.8801 13.75" stroke="#FF9530" stroke-width="2" stroke-miterlimit="10" stroke-linecap="round"/>
<path d="M34.6201 28.1604L52.1301 12.6304" stroke="#FF9530" stroke-width="2" stroke-miterlimit="10" stroke-linecap="round"/>
</svg>
