<svg width="53" height="53" viewBox="0 0 53 53" fill="none" xmlns="http://www.w3.org/2000/svg">
<path d="M7.72949 35.2559C7.72949 33.3702 7.72949 32.4274 8.31528 31.8416C8.90107 31.2559 9.84387 31.2559 11.7295 31.2559H41.5036C43.3892 31.2559 44.332 31.2559 44.9178 31.8416C45.5036 32.4274 45.5036 33.3702 45.5036 35.2559V37.9458C45.5036 41.717 45.5036 43.6026 44.332 44.7742C43.1605 45.9458 41.2748 45.9458 37.5036 45.9458H15.7295C11.9583 45.9458 10.0726 45.9458 8.90107 44.7742C7.72949 43.6026 7.72949 41.717 7.72949 37.9458V35.2559Z" fill="#FF9530"/>
<path fill-rule="evenodd" clip-rule="evenodd" d="M22.2943 23.8551C19.8785 22.7029 17.9951 20.6146 17.1131 18.0596C14.0647 18.0766 11.4192 20.1727 10.7079 23.1402L9.93978 26.3447C9.60696 27.7332 10.6595 29.0678 12.0873 29.0678H41.144C42.5719 29.0678 43.6243 27.7332 43.2915 26.3447L42.5234 23.1402C41.8121 20.1728 39.1668 18.0767 36.1186 18.0596C35.2366 20.6146 33.3531 22.7029 30.9374 23.8551H35.0101C35.2862 23.8551 35.5101 24.079 35.5101 24.3551C35.5101 24.6312 35.2862 24.8551 35.0101 24.8551H18.2216C17.9454 24.8551 17.7216 24.6312 17.7216 24.3551C17.7216 24.079 17.9454 23.8551 18.2216 23.8551H22.2943Z" fill="#FFD0A4"/>
<path fill-rule="evenodd" clip-rule="evenodd" d="M17.9102 14.8566C17.9102 10.0483 21.8081 6.15039 26.6164 6.15039C31.4247 6.15039 35.3227 10.0483 35.3227 14.8566C35.3227 19.665 31.4247 23.5629 26.6164 23.5629C21.8081 23.5629 17.9102 19.665 17.9102 14.8566ZM27.1245 10.7109V11.8176C27.3829 11.844 27.6385 11.9016 27.8787 12.0129C28.2226 12.1722 28.5125 12.4314 28.7336 12.817C28.8367 12.9969 28.7745 13.2263 28.5946 13.3295C28.4147 13.4326 28.1852 13.3704 28.0821 13.1905C27.935 12.9339 27.7597 12.7854 27.563 12.6942C27.3583 12.5994 27.1081 12.5564 26.7996 12.5501C26.3477 12.5407 26.0538 12.6646 25.8778 12.8209C25.703 12.9761 25.6114 13.1917 25.6114 13.4376C25.6114 13.7113 25.6919 13.9717 25.879 14.1627C26.0627 14.3504 26.3991 14.5219 27.0146 14.5219C27.457 14.5219 27.933 14.6048 28.3059 14.8836C28.699 15.1774 28.9157 15.6412 28.9157 16.2625C28.9157 16.7899 28.6383 17.2459 28.2528 17.559C27.949 17.8058 27.5642 17.977 27.1494 18.0387V19.0978C27.1494 19.3052 26.9813 19.4733 26.774 19.4733C26.5666 19.4733 26.3985 19.3052 26.3985 19.0978V18.0337C26.0416 17.9789 25.7239 17.8501 25.4489 17.652C25.0758 17.3833 24.804 17.0038 24.6132 16.5621C24.531 16.3717 24.6187 16.1507 24.809 16.0685C24.9994 15.9863 25.2204 16.074 25.3026 16.2644C25.4531 16.6129 25.6496 16.8712 25.8877 17.0426C26.1227 17.2119 26.4211 17.3131 26.8073 17.3131C27.1776 17.3131 27.5272 17.181 27.7794 16.9761C28.0321 16.7709 28.1647 16.5139 28.1647 16.2625C28.1647 15.8289 28.0236 15.6101 27.8563 15.4851C27.6689 15.345 27.3821 15.2728 27.0146 15.2728C26.2579 15.2728 25.705 15.0584 25.3424 14.6881C24.9832 14.3213 24.8605 13.8518 24.8605 13.4376C24.8605 12.9958 25.0304 12.5691 25.3792 12.2593C25.6368 12.0306 25.9736 11.8815 26.3735 11.8246V10.7109C26.3735 10.5036 26.5416 10.3355 26.749 10.3355C26.9564 10.3355 27.1245 10.5036 27.1245 10.7109Z" fill="#FF9530"/>
<path d="M28.4079 13.0035C28.0397 12.3612 27.4777 12.1882 26.8075 12.1744C25.759 12.1528 25.2361 12.7495 25.2361 13.4374C25.2361 14.1252 25.6426 14.8971 27.0147 14.8971C27.8247 14.8971 28.5403 15.2073 28.5403 16.2623C28.5403 17.041 27.7204 17.6883 26.8075 17.6883C25.8946 17.6883 25.2993 17.2033 24.958 16.4129" stroke="#FFD0A4" stroke-width="0.750944" stroke-linecap="round" stroke-linejoin="round"/>
<path d="M26.749 10.7109V12.0352" stroke="#FFD0A4" stroke-width="0.750944" stroke-linecap="round"/>
<path d="M26.7744 17.7734V19.0977" stroke="#FFD0A4" stroke-width="0.750944" stroke-linecap="round"/>
</svg>
