<svg width="53" height="53" viewBox="0 0 53 53" fill="none" xmlns="http://www.w3.org/2000/svg">
<path d="M38.1826 12.7889V5.97589C38.1826 5.65403 38.1826 5.4931 38.2864 5.43615C38.3902 5.37919 38.5259 5.46562 38.7974 5.63846L40.9318 6.99717L40.9318 6.99717C42.0602 7.71554 42.6244 8.07472 43.0927 8.54461C43.5609 9.01449 43.9182 9.57995 44.6326 10.7109L45.9368 12.7753C46.1081 13.0464 46.1938 13.182 46.1367 13.2855C46.0797 13.3889 45.9194 13.3889 45.5987 13.3889H38.7826C38.4998 13.3889 38.3584 13.3889 38.2705 13.3011C38.1826 13.2132 38.1826 13.0718 38.1826 12.7889Z" fill="#FF9530"/>
<path fill-rule="evenodd" clip-rule="evenodd" d="M14.7744 14.6665C14.7744 9.32677 19.1031 4.99805 24.4429 4.99805H32.5848C34.552 4.99805 36.1468 6.59284 36.1468 8.56012V14.6665C36.1468 14.9476 36.3747 15.1754 36.6557 15.1754H42.7621C44.7294 15.1754 46.3242 16.7702 46.3242 18.7375V31.968C46.3242 37.3078 41.9955 41.6365 36.6557 41.6365H24.4429C19.1031 41.6365 14.7744 37.3078 14.7744 31.968V14.6665ZM21.8501 13.9752C21.4683 13.9752 21.1588 14.2847 21.1588 14.6665C21.1588 15.0483 21.4683 15.3578 21.8501 15.3578H28.9742C29.356 15.3578 29.6655 15.0483 29.6655 14.6665C29.6655 14.2847 29.356 13.9752 28.9742 13.9752H21.8501ZM21.1588 22.8082C21.1588 22.4265 21.4683 22.117 21.8501 22.117H35.0806C35.4624 22.117 35.7719 22.4265 35.7719 22.8082C35.7719 23.19 35.4624 23.4995 35.0806 23.4995H21.8501C21.4683 23.4995 21.1588 23.19 21.1588 22.8082ZM21.8501 30.259C21.4683 30.259 21.1588 30.5685 21.1588 30.9503C21.1588 31.3321 21.4683 31.6416 21.8501 31.6416H35.0806C35.4624 31.6416 35.7719 31.3321 35.7719 30.9503C35.7719 30.5685 35.4624 30.259 35.0806 30.259H21.8501Z" fill="#FFD0A4"/>
<path fill-rule="evenodd" clip-rule="evenodd" d="M12.2765 12.7255C12.4734 12.6435 12.684 12.798 12.684 13.0113V32.6056C12.684 38.653 17.5864 43.5554 23.6338 43.5554H36.0336C36.34 43.5554 36.4351 43.9354 36.1543 44.0579C35.7153 44.2493 35.2566 44.4105 34.7799 44.5383L22.9833 47.6992C17.8254 49.0812 12.5239 46.0203 11.1418 40.8625L6.66388 24.1506C5.39506 19.4153 7.87105 14.5588 12.2765 12.7255Z" fill="#FF9530"/>
<path d="M21.8496 14.667H28.9738" stroke="#FF9530" stroke-width="1.38258" stroke-linecap="round" stroke-linejoin="round"/>
<path d="M21.8496 22.8086H35.0802" stroke="#FF9530" stroke-width="1.38258" stroke-linecap="round" stroke-linejoin="round"/>
<path d="M21.8496 30.9512H35.0802" stroke="#FF9530" stroke-width="1.38258" stroke-linecap="round" stroke-linejoin="round"/>
</svg>
