<svg width="12" height="10" viewBox="0 0 12 10" fill="none" xmlns="http://www.w3.org/2000/svg">
<path fill-rule="evenodd" clip-rule="evenodd" d="M6.33258 0.270694C6.59388 -0.0579614 7.0487 -0.0921188 7.34843 0.194401L11.7531 4.40492C11.91 4.55485 12 4.77185 12 5C12 5.22816 11.91 5.44515 11.7531 5.59508L7.34843 9.8056C7.0487 10.0921 6.59388 10.058 6.33258 9.72931C6.07127 9.40065 6.10242 8.90195 6.40216 8.61543L9.35845 5.78947H0.72C0.322355 5.78947 0 5.43601 0 5C0 4.56399 0.322355 4.21053 0.72 4.21053H9.35845L6.40216 1.38457C6.10242 1.09805 6.07127 0.599348 6.33258 0.270694Z" fill="white"/>
</svg>
