<svg width="19" height="18" viewBox="0 0 19 18" fill="none" xmlns="http://www.w3.org/2000/svg">
<path fill-rule="evenodd" clip-rule="evenodd" d="M4.01282 1.91967C4.01282 2.96621 3.21607 3.81315 1.97009 3.81315C0.772649 3.81315 -0.0241011 2.96621 0.000556575 1.91967C-0.0241011 0.822276 0.77263 0 1.99395 0C3.21605 0 3.98893 0.822276 4.01282 1.91967ZM0.100732 17.499V5.30896H3.88875V17.4982H0.100732V17.499Z" fill="white"/>
<path fill-rule="evenodd" clip-rule="evenodd" d="M6.92537 9.19814C6.92537 7.67739 6.87528 6.38093 6.8252 5.30878H10.1155L10.2904 6.97906H10.3651C10.8637 6.20597 12.1097 5.03516 14.1285 5.03516C16.6205 5.03516 18.4899 6.68077 18.4899 10.2695V17.501H14.7018V10.7443C14.7018 9.1727 14.1539 8.10131 12.7831 8.10131C11.7359 8.10131 11.1133 8.82431 10.8645 9.52186C10.7643 9.7716 10.715 10.12 10.715 10.4699V17.501H6.9269V9.19814H6.92537Z" fill="white"/>
</svg>
