<svg width="18" height="17" viewBox="0 0 18 17" fill="none" xmlns="http://www.w3.org/2000/svg">
<path d="M12.2091 0.265625C12.3781 0.265625 12.5467 0.282471 12.713 0.31323C12.9512 0.357309 13.1898 0.400132 13.4242 0.462153C15.8222 1.08436 17.6151 3.24814 17.8913 5.84428C18.0693 7.47705 17.6364 9.1187 16.6852 10.4186C15.734 11.7185 14.3398 12.5737 12.8004 12.8014C12.5491 12.8378 12.2954 12.8538 12.0417 12.8493C11.8852 12.8493 11.8001 12.8993 11.7224 13.0431C11.0712 14.2514 10.4121 15.4553 9.75523 16.6592C9.7266 16.7116 9.64669 16.6904 9.64669 16.6307V11.0866C9.64669 10.9817 9.73173 10.8966 9.83664 10.8966C10.567 10.8966 11.298 10.8966 12.0298 10.8966C14.0316 10.8935 15.8152 9.2112 16.0397 7.11503C16.2943 4.73468 14.813 2.66366 12.5744 2.27729C12.3787 2.24519 12.181 2.22916 11.983 2.22934C11.5308 2.22635 11.0786 2.22618 10.622 2.22656C10.0803 2.22701 9.64111 1.78822 9.64111 1.2465C9.64111 0.704777 10.0803 0.265625 10.622 0.265625H12.2091Z" fill="#1B4A52"/>
<path d="M7.32124 0.265625C7.86296 0.265625 8.30211 0.704776 8.30211 1.2465C8.30211 1.78821 7.86296 2.22737 7.32124 2.22737H5.97137C3.8633 2.22737 2.05223 3.95367 1.87455 6.13159C1.68868 8.40502 3.11315 10.4084 5.21379 10.8196C5.45705 10.8664 5.70367 10.891 5.95093 10.8931C6.27694 10.897 6.60295 10.8983 6.93019 10.8984C7.67946 10.8987 8.28687 11.504 8.28687 12.2533V12.8027C8.28687 12.8187 8.28496 12.846 8.26903 12.8446C7.10217 12.8214 5.92714 12.9692 4.7692 12.7318C2.29981 12.2255 0.366815 10.0338 0.0497301 7.3933C-0.356941 4.02284 1.77158 0.955831 4.93276 0.3576C5.04262 0.336891 5.15289 0.318777 5.26315 0.3009C5.40648 0.277663 5.55144 0.265625 5.69664 0.265625H7.32124Z" fill="#1B4A52"/>
</svg>
