<svg width="18" height="14" viewBox="0 0 18 14" fill="none" xmlns="http://www.w3.org/2000/svg">
<path fill-rule="evenodd" clip-rule="evenodd" d="M0.674122 1.77772C0 2.78661 0 4.19108 0 7C0 9.80892 0 11.2134 0.674122 12.2223C0.965956 12.659 1.34096 13.034 1.77772 13.3259C2.78661 14 4.19108 14 7 14H11C13.8089 14 15.2134 14 16.2223 13.3259C16.659 13.034 17.034 12.659 17.3259 12.2223C18 11.2134 18 9.80892 18 7C18 4.19108 18 2.78661 17.3259 1.77772C17.034 1.34096 16.659 0.965956 16.2223 0.674122C15.2134 0 13.8089 0 11 0H7C4.19108 0 2.78661 0 1.77772 0.674122C1.34096 0.965956 0.965956 1.34096 0.674122 1.77772ZM3.33541 3.32918C2.96493 3.14394 2.51442 3.29411 2.32918 3.66459C2.14394 4.03507 2.29411 4.48558 2.66459 4.67082L8.66459 7.67082C8.87574 7.77639 9.12426 7.77639 9.33541 7.67082L15.3354 4.67082C15.7059 4.48558 15.8561 4.03507 15.6708 3.66459C15.4856 3.29411 15.0351 3.14394 14.6646 3.32918L9 6.16147L3.33541 3.32918Z" fill="#09183F" fill-opacity="0.4"/>
</svg>
