<svg width="56" height="56" viewBox="0 0 56 56" fill="none" xmlns="http://www.w3.org/2000/svg">
<path d="M40.6004 19.9224C42.4134 21.2131 43.9003 22.9089 44.9429 24.8751C45.9855 26.8412 46.5551 29.0235 46.6064 31.2484C46.6079 34.1087 45.6562 36.8879 43.9017 39.1469C42.1473 41.4059 39.6901 43.0159 36.9184 43.7224L36.5684 42.3224C39.0391 41.6936 41.2298 40.2592 42.7942 38.2461C44.3585 36.233 45.2073 33.7559 45.2064 31.2064C45.1612 29.1961 44.6434 27.2246 43.6948 25.4515C42.7463 23.6785 41.3937 22.1536 39.7464 21.0004C39.4794 20.8198 39.1985 20.6607 38.9064 20.5244L29.1064 30.3244L18.2004 19.3484C15.5243 22.8302 14.126 27.1259 14.2398 31.5158C14.3536 35.9057 15.9726 40.1232 18.8254 43.4616C21.6783 46.8001 25.5918 49.0568 29.9103 49.8536C34.2288 50.6504 38.69 49.9389 42.5464 47.8384L50.4004 55.6924L55.3704 50.7504L47.9784 43.4004C49.6775 41.3573 50.9331 38.9832 51.6656 36.4289C52.3981 33.8745 52.5915 31.1958 52.2334 28.5628C51.8753 25.9297 50.9736 23.3999 49.5855 21.134C48.1975 18.8681 46.3534 16.9155 44.1704 15.4004L39.9704 19.6004C40.3344 19.7544 40.6004 19.9084 40.6004 19.9224ZM26.6004 41.9164C24.8559 40.7365 23.4271 39.1472 22.4387 37.2875C21.4502 35.4279 20.9324 33.3544 20.9304 31.2484C20.9266 30.3064 21.03 29.367 21.2384 28.4484L22.6384 28.7564C22.1311 31.0044 22.3156 33.3533 23.1676 35.4946C24.0196 37.6359 25.4993 39.4694 27.4124 40.7544L26.6004 41.9164Z" fill="#FFD0A4"/>
<path d="M40.292 13.2581C37.0991 11.9847 33.6219 11.5961 30.2266 12.1332C26.8314 12.6703 23.6439 14.1133 21 16.3101L29.092 24.4021L40.292 13.2581Z" fill="#FFD0A4"/>
<path d="M19.5998 17.6264L19.7958 17.4304C20.1878 17.0384 20.5938 16.6744 21.0278 16.3104L13.1738 8.40039L1.0918 20.5244L4.0598 23.4924L13.1738 14.3784L18.1998 19.3484C18.6295 18.7453 19.0971 18.1701 19.5998 17.6264Z" fill="#FF9530"/>
<path d="M29.148 24.4019L21.056 16.3099L21 16.2539L21.056 16.3099L29.148 24.4019Z" fill="white"/>
<path d="M55.706 12.3625V0.560547H43.568V4.76055H48.79L40.292 13.2585C41.6571 13.7984 42.9577 14.4887 44.17 15.3165L51.506 7.98055V12.3625H55.706Z" fill="#FF9530"/>
<path d="M22.2465 31.2473C22.2481 30.4088 22.342 29.5731 22.5265 28.7553L21.1265 28.4473C20.918 29.3659 20.8147 30.3053 20.8185 31.2473C20.8205 33.3533 21.3383 35.4268 22.3267 37.2864C23.3151 39.1461 24.744 40.7353 26.4885 41.9153L27.2725 40.7533C25.7223 39.6995 24.4538 38.2822 23.5777 36.6251C22.7015 34.968 22.2445 33.1217 22.2465 31.2473Z" fill="#FF9530"/>
<path d="M45.178 31.2489C45.179 33.7984 44.3302 36.2755 42.7658 38.2886C41.2015 40.3018 39.0108 41.7361 36.54 42.3649L36.89 43.7649C39.6617 43.0584 42.1189 41.4484 43.8734 39.1894C45.6278 36.9304 46.5795 34.1512 46.578 31.2909C46.5364 29.0613 45.9742 26.8722 44.9363 24.8984C43.8984 22.9247 42.4135 21.2208 40.6 19.9229C40.6 19.9229 40.362 19.7549 39.984 19.5449L38.934 20.5809C39.2261 20.7172 39.507 20.8764 39.774 21.0569C41.4091 22.2148 42.7497 23.7401 43.6883 25.5102C44.6268 27.2803 45.1371 29.2458 45.178 31.2489Z" fill="#FF9530"/>
</svg>
