<svg width="56" height="56" viewBox="0 0 56 56" fill="none" xmlns="http://www.w3.org/2000/svg">
<g clip-path="url(#clip0)">
<path d="M20.2302 37.7437C21.4674 37.7437 22.4702 36.7408 22.4702 35.5037C22.4702 34.2666 21.4674 33.2637 20.2302 33.2637C18.9931 33.2637 17.9902 34.2666 17.9902 35.5037C17.9902 36.7408 18.9931 37.7437 20.2302 37.7437Z" fill="#FFD0A4"/>
<path d="M37.282 35.7558C37.282 35.6718 37.282 35.5878 37.282 35.5038C37.2754 34.3466 37.1535 33.1929 36.918 32.0598H31.318C31.4591 32.4082 31.567 32.7691 31.64 33.1378C32.0995 35.3519 31.9062 37.6518 31.0835 39.7582C30.2608 41.8645 28.8442 43.6866 27.0057 45.0032C25.1672 46.3198 22.986 47.0742 20.7269 47.1748C18.4679 47.2754 16.2282 46.7178 14.28 45.5698C13.1808 44.9193 12.193 44.0969 11.354 43.1338L12.306 42.3078C13.0564 43.1671 13.9404 43.8999 14.924 44.4778C16.6625 45.4943 18.6582 45.9857 20.6699 45.8927C22.6816 45.7997 24.6234 45.1263 26.2608 43.9538C27.8981 42.7813 29.161 41.1598 29.897 39.2852C30.6329 37.4106 30.8104 35.3631 30.408 33.3898C30.2936 32.9388 30.1533 32.4947 29.988 32.0598H25.074V26.3058L24.738 26.1238C24.4201 25.9682 24.0928 25.8326 23.758 25.7178C22.4307 25.2317 21.0178 25.0232 19.6066 25.1051C18.1955 25.1869 16.8162 25.5575 15.554 26.1938C15.1498 26.3874 14.7613 26.612 14.392 26.8658C13.7396 27.3114 13.1386 27.8279 12.6 28.4058C11.8724 29.1892 11.2724 30.0821 10.822 31.0518C10.0326 32.6788 9.68035 34.4833 9.8 36.2878L8.54 36.3858C8.38735 34.3642 8.7637 32.3378 9.632 30.5058C10.5306 28.6088 11.9233 26.9888 13.664 25.8158C14.0851 25.5422 14.5196 25.2899 14.966 25.0598C16.3809 24.3455 17.9274 23.9297 19.5097 23.8382C21.092 23.7467 22.6762 23.9814 24.164 24.5278C24.542 24.6678 24.696 24.7238 25.06 24.8918V15.0918H20.79H14.84V19.9778C13.9947 20.2849 13.1754 20.6595 12.39 21.0978C11.5265 21.5863 10.7068 22.1484 9.94 22.7778L4.998 20.4258L0 29.6098L4.2 32.3118C3.79888 33.3268 3.60835 34.4128 3.64 35.5038C3.65965 36.6533 3.79567 37.7978 4.046 38.9198L0.616 41.4398L5.964 49.8398L9.506 47.7678C11.326 49.374 13.4627 50.5806 15.778 51.3098L15.876 55.9998H25.2V51.6598C27.4208 51.0083 29.4841 49.9076 31.262 48.4258L34.608 50.5678L40.46 41.7198L36.708 38.9898C36.708 38.9898 37.268 38.3178 37.282 35.7558ZM20.23 31.8638C20.9499 31.8638 21.6537 32.0773 22.2523 32.4772C22.8509 32.8772 23.3174 33.4457 23.5929 34.1108C23.8684 34.776 23.9405 35.5078 23.8001 36.2139C23.6596 36.92 23.3129 37.5686 22.8039 38.0777C22.2948 38.5867 21.6462 38.9334 20.9401 39.0739C20.234 39.2143 19.5022 39.1422 18.837 38.8667C18.1719 38.5912 17.6034 38.1247 17.2035 37.5261C16.8035 36.9275 16.59 36.2237 16.59 35.5038C16.59 34.5384 16.9735 33.6126 17.6561 32.9299C18.3388 32.2473 19.2646 31.8638 20.23 31.8638Z" fill="#FFD0A4"/>
<path d="M20.2299 39.1999C20.9498 39.1999 21.6536 38.9864 22.2521 38.5865C22.8507 38.1865 23.3173 37.618 23.5928 36.9529C23.8683 36.2878 23.9404 35.5559 23.7999 34.8498C23.6595 34.1437 23.3128 33.4951 22.8037 32.9861C22.2947 32.477 21.6461 32.1303 20.94 31.9899C20.2339 31.8494 19.502 31.9215 18.8369 32.197C18.1718 32.4725 17.6033 32.9391 17.2033 33.5376C16.8034 34.1362 16.5899 34.84 16.5899 35.5599C16.588 36.0385 16.6809 36.5126 16.8632 36.9551C17.0455 37.3975 17.3135 37.7995 17.6519 38.1379C17.9902 38.4763 18.3923 38.7443 18.8347 38.9266C19.2772 39.1089 19.7513 39.2018 20.2299 39.1999ZM20.2299 33.3199C20.6729 33.3199 21.106 33.4513 21.4743 33.6974C21.8427 33.9436 22.1298 34.2934 22.2994 34.7027C22.4689 35.112 22.5133 35.5624 22.4268 35.9969C22.3404 36.4314 22.1271 36.8306 21.8138 37.1438C21.5005 37.4571 21.1014 37.6705 20.6669 37.7569C20.2324 37.8433 19.782 37.799 19.3727 37.6294C18.9634 37.4599 18.6135 37.1728 18.3674 36.8044C18.1212 36.436 17.9899 36.003 17.9899 35.5599C17.9824 35.2611 18.0348 34.9638 18.144 34.6855C18.2533 34.4072 18.4171 34.1536 18.6258 33.9397C18.8346 33.7257 19.084 33.5557 19.3595 33.4396C19.635 33.3236 19.9309 33.2638 20.2299 33.2639V33.3199Z" fill="#FF9530"/>
<path d="M14.9796 25.0601C14.5332 25.2902 14.0987 25.5425 13.6776 25.8161C11.9369 26.9891 10.5442 28.6091 9.6456 30.5061C8.77489 32.3423 8.39849 34.3739 8.5536 36.4001L9.8136 36.3021C9.6809 34.5013 10.0186 32.697 10.7936 31.0661C11.2513 30.0896 11.8608 29.1918 12.5996 28.4061C13.147 27.8266 13.7574 27.31 14.4196 26.8661C14.7889 26.6124 15.1774 26.3877 15.5816 26.1941C16.8457 25.5558 18.2274 25.1842 19.6411 25.1023C21.0548 25.0205 22.4703 25.2301 23.7996 25.7181C24.1344 25.8329 24.4617 25.9685 24.7796 26.1241L25.1156 26.3061V24.9061C24.7516 24.7381 24.5976 24.6821 24.2196 24.5421C22.7268 23.9876 21.1355 23.7474 19.5455 23.8365C17.9555 23.9256 16.4011 24.3422 14.9796 25.0601Z" fill="#FF9530"/>
<path d="M30.4222 33.4179C30.8246 35.3912 30.6471 37.4387 29.9111 39.3133C29.1752 41.1879 27.9123 42.8094 26.275 43.9819C24.6376 45.1544 22.6958 45.8278 20.6841 45.9208C18.6723 46.0138 16.6767 45.5224 14.9382 44.5059C13.9545 43.928 13.0705 43.1952 12.3202 42.3359L11.3682 43.1619C12.2071 44.125 13.195 44.9474 14.2942 45.5979C16.2432 46.7393 18.4811 47.2916 20.7374 47.1881C22.9937 47.0846 25.1716 46.3297 27.008 45.0147C28.8443 43.6996 30.2603 41.8807 31.0849 39.778C31.9094 37.6752 32.1071 35.3786 31.6542 33.1659C31.5811 32.7972 31.4733 32.4362 31.3322 32.0879H30.0022C30.1675 32.5228 30.3077 32.9669 30.4222 33.4179Z" fill="#FF9530"/>
<path d="M35.3776 12.3203H30.2256V27.1183H35.3776V12.3203Z" fill="#FF9530"/>
<path d="M45.7096 6.16016H40.5576V27.1182H45.7096V6.16016Z" fill="#FF9530"/>
<path d="M55.9997 0H50.8477V27.118H55.9997V0Z" fill="#FF9530"/>
</g>
<defs>
<clipPath id="clip0">
<rect width="56" height="56" fill="white"/>
</clipPath>
</defs>
</svg>
