<svg width="21" height="17" viewBox="0 0 21 17" fill="none" xmlns="http://www.w3.org/2000/svg">
<path fill-rule="evenodd" clip-rule="evenodd" d="M20.1703 1.94044C19.4287 2.2699 18.6307 2.49177 17.7937 2.59196C18.6482 2.07962 19.3044 1.26875 19.613 0.302561C18.8143 0.777249 17.9275 1.12083 16.9856 1.30707C16.2306 0.502928 15.1543 0 13.965 0C11.6798 0 9.82698 1.85303 9.82698 4.13839C9.82698 4.46247 9.86396 4.77848 9.93455 5.08172C6.49507 4.90959 3.4462 3.26163 1.4051 0.757752C1.04879 1.36893 0.845079 2.07962 0.845079 2.83805C0.845079 4.27354 1.57452 5.54028 2.68583 6.28257C2.00681 6.26105 1.36947 6.0748 0.81079 5.76484V5.81661C0.81079 7.82227 2.23808 9.49444 4.12993 9.87567C3.78302 9.9698 3.41729 10.0209 3.04013 10.0209C2.77323 10.0209 2.51372 9.99467 2.26094 9.94626C2.78735 11.5902 4.31615 12.787 6.12665 12.8206C4.71079 13.93 2.92651 14.5923 0.987605 14.5923C0.6528 14.5923 0.323375 14.5728 0 14.5338C1.83134 15.7077 4.00622 16.3936 6.34313 16.3936C13.9542 16.3936 18.1164 10.0875 18.1164 4.61913C18.1164 4.43961 18.1131 4.26077 18.1043 4.08394C18.9138 3.49898 19.6156 2.77014 20.1703 1.94044Z" fill="white"/>
</svg>
