<svg width="56" height="56" viewBox="0 0 56 56" fill="none" xmlns="http://www.w3.org/2000/svg">
<g clip-path="url(#clip0)">
<path d="M24.08 38.9616H38.08V31.8496H15.68L7.392 39.7036V35.2236L0 35.2516V46.4516V55.9996H7.742V51.3796H37.716L56.07 32.0596L50.624 26.5996L38.024 38.7796C38.024 38.8205 38.0078 38.8596 37.9789 38.8885C37.95 38.9174 37.9108 38.9336 37.87 38.9336L24.08 38.9616Z" fill="#FFD0A4"/>
<path d="M39.508 39.4096H24.374V38.0096H38.108V31.8496H39.508V39.4096Z" fill="#FF9530"/>
<path d="M36.0923 27.4257L32.5503 26.9497L30.3663 29.1898L26.5723 20.7758L32.4103 18.8438L36.0923 27.4257Z" fill="#FFD0A4"/>
<path d="M23.5336 18.8438L29.3716 20.7758L25.5916 29.1898L23.3936 26.9497L19.8516 27.4257L23.5336 18.8438Z" fill="#FFD0A4"/>
<path d="M38.626 15.3997H36.582C36.4632 15.3997 36.3493 15.4469 36.2652 15.5309C36.1812 15.6149 36.134 15.7289 36.134 15.8477C36.1326 15.907 36.1431 15.9661 36.1647 16.0213C36.1863 16.0766 36.2187 16.127 36.26 16.1697L37.8 17.7657L33.39 22.1477L31.724 20.5517C31.6402 20.4688 31.527 20.4222 31.409 20.4222C31.2911 20.4222 31.1779 20.4688 31.094 20.5517C31.0538 20.5922 31.0219 20.6403 31.0003 20.6931C30.9787 20.746 30.9677 20.8026 30.968 20.8597V23.1277H25.06V20.8737C25.0612 20.7872 25.0365 20.7024 24.9891 20.63C24.9417 20.5577 24.8738 20.5012 24.794 20.4677C24.7136 20.4298 24.6234 20.4176 24.5358 20.4326C24.4482 20.4476 24.3673 20.4892 24.304 20.5517L22.624 22.1617L18.2 17.7657L19.712 16.2257C19.7958 16.1395 19.8427 16.0239 19.8427 15.9037C19.8427 15.7834 19.7958 15.6679 19.712 15.5817C19.6715 15.5415 19.6234 15.5096 19.5706 15.488C19.5177 15.4664 19.4611 15.4554 19.404 15.4557H17.374V9.35169H19.418C19.67 9.35169 19.824 8.67969 19.74 8.59569L18.2 6.99969L22.596 2.60369L24.29 4.19969C24.3763 4.2835 24.4918 4.33039 24.612 4.33039C24.7323 4.33039 24.8478 4.2835 24.934 4.19969C25.0161 4.11271 25.0613 3.99728 25.06 3.87769V1.67969H30.94V3.93369C30.9442 4.02097 30.973 4.10529 31.0231 4.17686C31.0732 4.24843 31.1426 4.30432 31.2233 4.33803C31.3039 4.37174 31.3924 4.3819 31.4786 4.36733C31.5647 4.35275 31.645 4.31404 31.71 4.25569L33.376 2.61769L37.8 6.99969L36.4 8.30169C36.3165 8.37947 36.258 8.4804 36.2321 8.59159C36.2062 8.70277 36.214 8.81916 36.2546 8.92586C36.2952 9.03257 36.3666 9.12475 36.4599 9.19063C36.5531 9.25651 36.6639 9.29308 36.778 9.29569H38.668L38.626 15.3997Z" fill="#FF9530"/>
<path d="M31.6118 23.8009H24.3598V21.5329C23.8698 21.9529 23.2398 22.5409 23.0998 22.6669L22.1338 21.6589C24.1358 19.7409 24.3738 19.7269 24.5978 19.7269C24.7574 19.7226 24.9157 19.7561 25.0598 19.8249C25.2663 19.9125 25.4426 20.0585 25.567 20.2451C25.6914 20.4317 25.7584 20.6507 25.7598 20.8749V22.4009H30.2118V20.8749C30.2149 20.6511 30.2826 20.4329 30.4068 20.2466C30.531 20.0604 30.7064 19.9139 30.9118 19.8249C31.0559 19.7561 31.2142 19.7226 31.3738 19.7269C31.6118 19.7269 31.8218 19.7269 33.8378 21.6449L32.8718 22.6669C32.7318 22.5269 32.1018 21.9529 31.6118 21.5329V23.8009Z" fill="#FF9530"/>
<path d="M27.9995 18.6892C26.7569 18.6864 25.5429 18.3154 24.5111 17.623C23.4792 16.9306 22.6757 15.9479 22.202 14.799C21.7284 13.6502 21.6059 12.3867 21.85 11.1683C22.0942 9.94984 22.6939 8.83109 23.5736 7.95338C24.4533 7.07566 25.5734 6.47837 26.7923 6.23695C28.0113 5.99554 29.2745 6.12084 30.4223 6.59702C31.5701 7.0732 32.551 7.8789 33.2411 8.91232C33.9312 9.94574 34.2995 11.1605 34.2995 12.4032C34.2958 14.0716 33.6304 15.6704 32.4494 16.8489C31.2683 18.0274 29.668 18.6892 27.9995 18.6892ZM27.9995 7.48917C27.0338 7.49194 26.0905 7.78085 25.2888 8.31941C24.4872 8.85797 23.8631 9.62202 23.4955 10.5151C23.1278 11.4081 23.033 12.3901 23.2231 13.3369C23.4132 14.2838 23.8797 15.1531 24.5636 15.835C25.2474 16.5169 26.1181 16.9809 27.0655 17.1683C28.0129 17.3557 28.9946 17.2581 29.8866 16.8879C30.7785 16.5177 31.5408 15.8914 32.0771 15.0882C32.6133 14.285 32.8995 13.3409 32.8995 12.3752C32.8885 11.0829 32.3673 9.84733 31.4496 8.93747C30.5319 8.02761 29.2919 7.51713 27.9995 7.51717V7.48917Z" fill="#FFD0A4"/>
</g>
<defs>
<clipPath id="clip0">
<rect width="56" height="56" fill="white"/>
</clipPath>
</defs>
</svg>
