<svg width="66" height="66" viewBox="0 0 66 66" fill="none" xmlns="http://www.w3.org/2000/svg">
<g clip-path="url(#clip0_706_5642)">
<path d="M39.655 56.045C37.467 56.045 35.3685 55.1758 33.8214 53.6287C32.2742 52.0815 31.405 49.9831 31.405 47.795V44.7975C31.4187 44.3789 31.5912 43.9811 31.8874 43.6849C32.1836 43.3887 32.5813 43.2163 33 43.2025C33.4376 43.2025 33.8573 43.3764 34.1667 43.6858C34.4762 43.9952 34.65 44.4149 34.65 44.8525V47.85C34.65 49.1774 35.1773 50.4505 36.1159 51.3891C37.0545 52.3277 38.3276 52.855 39.655 52.855C43.6459 52.8466 47.5188 51.5007 50.655 49.0325C51.2939 48.5592 51.8592 47.9939 52.3325 47.355C55.3989 43.24 57.0489 38.2419 57.035 33.11C57.031 29.7317 56.3165 26.3919 54.9378 23.3077C53.5591 20.2234 51.5471 17.4636 49.0325 15.2075C46.5163 12.9135 43.5385 11.1843 40.299 10.1361C37.0594 9.08787 33.6331 8.74484 30.25 9.13004C24.8683 9.75769 19.8566 12.1853 16.0279 16.019C12.1992 19.8527 9.77814 24.8676 9.15749 30.25C8.75592 33.6274 9.08326 37.0515 10.1174 40.2916C11.1516 43.5317 12.8686 46.5124 15.1525 49.0325C15.3063 49.1858 15.4284 49.368 15.5116 49.5685C15.5949 49.7691 15.6378 49.9841 15.6378 50.2013C15.6378 50.4184 15.5949 50.6335 15.5116 50.834C15.4284 51.0346 15.3063 51.2167 15.1525 51.37C14.8441 51.6724 14.4294 51.8417 13.9975 51.8417C13.5656 51.8417 13.1509 51.6724 12.8425 51.37C10.2632 48.4899 8.32024 45.0982 7.14035 41.4164C5.96047 37.7346 5.57019 33.8454 5.99499 30.0025C6.73368 23.8872 9.50411 18.1969 13.8622 13.8438C18.2204 9.49064 23.9138 6.72672 30.03 5.99504C33.8612 5.54612 37.7441 5.91981 41.4193 7.09115C45.0946 8.26249 48.4776 10.2045 51.3425 12.7875C54.1963 15.3562 56.4806 18.4939 58.0483 21.9988C59.616 25.5037 60.4324 29.298 60.445 33.1375C60.4035 38.937 58.4941 44.5687 55 49.1975C54.3469 50.067 53.5791 50.8441 52.7175 51.5075C48.9928 54.4373 44.3939 56.0348 39.655 56.045Z" fill="#1B4A52"/>
<path d="M34.7875 45.9525H33C29.7253 45.9525 26.5846 44.6516 24.269 42.336C21.9534 40.0204 20.6525 36.8798 20.6525 33.605V21.2025C20.6525 20.7649 20.8264 20.3452 21.1358 20.0358C21.4452 19.7263 21.8649 19.5525 22.3025 19.5525H28.3525C28.7901 19.5525 29.2098 19.7263 29.5193 20.0358C29.8287 20.3452 30.0025 20.7649 30.0025 21.2025C30.0025 21.6401 29.8287 22.0598 29.5193 22.3692C29.2098 22.6787 28.7901 22.8525 28.3525 22.8525H24.0625V33.5775C24.0551 35.9629 24.99 38.2546 26.6638 39.9542C28.3376 41.6537 30.6148 42.6235 33 42.6525H34.6775C37.0771 42.6525 39.3783 41.6993 41.0751 40.0025C42.7718 38.3058 43.725 36.0045 43.725 33.605V22.88H38.995C38.5574 22.88 38.1377 22.7062 37.8283 22.3967C37.5189 22.0873 37.345 21.6676 37.345 21.23C37.345 20.7924 37.5189 20.3727 37.8283 20.0633C38.1377 19.7538 38.5574 19.58 38.995 19.58H45.485C45.7017 19.58 45.9163 19.6227 46.1165 19.7056C46.3166 19.7885 46.4985 19.91 46.6518 20.0633C46.805 20.2165 46.9265 20.3984 47.0094 20.5986C47.0923 20.7988 47.135 21.0133 47.135 21.23V33.605C47.1278 36.8775 45.8245 40.0139 43.5105 42.328C41.1965 44.642 38.0601 45.9452 34.7875 45.9525Z" fill="#1B4A52"/>
<path d="M18.7275 59.7024C17.8295 59.6988 16.9411 59.5179 16.1133 59.1701C15.2854 58.8223 14.5344 58.3145 13.9033 57.6757C13.2722 57.0369 12.7734 56.2798 12.4356 55.4478C12.0979 54.6158 11.9277 53.7253 11.935 52.8274C11.9277 51.9295 12.0979 51.039 12.4356 50.2069C12.7734 49.3749 13.2722 48.6178 13.9033 47.9791C14.5344 47.3403 15.2854 46.8324 16.1133 46.4847C16.9411 46.1369 17.8295 45.956 18.7275 45.9524C19.6277 45.9524 20.5191 46.1306 21.3501 46.4767C22.1812 46.8229 22.9355 47.3302 23.5695 47.9693C24.2035 48.6085 24.7047 49.3668 25.0442 50.2006C25.3837 51.0344 25.5547 51.9272 25.5475 52.8274C25.5547 53.7276 25.3837 54.6204 25.0442 55.4542C24.7047 56.288 24.2035 57.0463 23.5695 57.6854C22.9355 58.3246 22.1812 58.8319 21.3501 59.178C20.5191 59.5242 19.6277 59.7024 18.7275 59.7024ZM18.7275 49.3899C17.8107 49.3898 16.9306 49.7502 16.2771 50.3933C15.6237 51.0364 15.2494 51.9107 15.235 52.8274C15.235 53.286 15.3253 53.7402 15.5008 54.1639C15.6763 54.5876 15.9336 54.9727 16.2579 55.297C16.5822 55.6213 16.9672 55.8785 17.391 56.054C17.8147 56.2296 18.2688 56.3199 18.7275 56.3199C19.1884 56.3235 19.6455 56.2359 20.0724 56.062C20.4994 55.8881 20.8876 55.6314 21.2148 55.3067C21.5421 54.9821 21.8018 54.5958 21.979 54.1703C22.1563 53.7448 22.2475 53.2884 22.2475 52.8274C22.2475 51.8938 21.8766 50.9985 21.2165 50.3384C20.5564 49.6782 19.661 49.3074 18.7275 49.3074V49.3899Z" fill="#E2504B"/>
</g>
<defs>
<clipPath id="clip0_706_5642">
<rect width="66" height="66" fill="white"/>
</clipPath>
</defs>
</svg>
