<svg width="56" height="56" viewBox="0 0 56 56" fill="none" xmlns="http://www.w3.org/2000/svg">
<path d="M26.5023 34.7902C26.7762 34.7899 27.0439 34.7092 27.2724 34.5583C27.5008 34.4073 27.68 34.1927 27.7877 33.9409C27.8954 33.6892 27.927 33.4113 27.8784 33.1418C27.8298 32.8723 27.7032 32.623 27.5144 32.4247C27.3255 32.2264 27.0827 32.0879 26.8159 32.0262C26.5491 31.9645 26.27 31.9825 26.0133 32.0778C25.7566 32.1731 25.5335 32.3416 25.3715 32.5624C25.2096 32.7833 25.116 33.0467 25.1023 33.3202C25.0928 33.5099 25.122 33.6995 25.1881 33.8775C25.2542 34.0555 25.3558 34.2182 25.4868 34.3558C25.6178 34.4933 25.7753 34.6027 25.9499 34.6774C26.1245 34.7521 26.3124 34.7905 26.5023 34.7902Z" fill="#FFD0A4"/>
<path d="M13.51 25.1724C14.3219 25.1724 14.98 24.5143 14.98 23.7024C14.98 22.8906 14.3219 22.2324 13.51 22.2324C12.6982 22.2324 12.04 22.8906 12.04 23.7024C12.04 24.5143 12.6982 25.1724 13.51 25.1724Z" fill="#FFD0A4"/>
<path d="M13.552 38.5845C14.3639 38.5845 15.022 37.9264 15.022 37.1145C15.022 36.3027 14.3639 35.6445 13.552 35.6445C12.7402 35.6445 12.082 36.3027 12.082 37.1145C12.082 37.9264 12.7402 38.5845 13.552 38.5845Z" fill="#FFD0A4"/>
<path d="M34.86 23.0852H21.756L26.698 14.3632C22.6107 12.6036 17.9971 12.5129 13.8438 14.1106C9.69045 15.7082 6.32702 18.8674 4.47265 22.9127C2.61828 26.9579 2.42015 31.5681 3.92062 35.7575C5.42109 39.9469 8.50107 43.3831 12.502 45.3312C12.7075 45.4297 12.9321 45.4823 13.16 45.4852H19.236V43.9452L14.826 39.6612C14.4329 39.8681 13.9962 39.9784 13.552 39.9832C12.9786 39.997 12.4143 39.8387 11.9317 39.5288C11.4492 39.2188 11.0706 38.7714 10.8447 38.2442C10.6189 37.717 10.5562 37.1343 10.6647 36.5711C10.7732 36.0079 11.0479 35.4902 11.4534 35.0846C11.859 34.6791 12.3767 34.4043 12.9399 34.2958C13.5031 34.1873 14.0858 34.2501 14.613 34.4759C15.1402 34.7018 15.5876 35.0804 15.8976 35.5629C16.2075 36.0455 16.3658 36.6098 16.352 37.1832C16.3552 37.77 16.174 38.343 15.834 38.8212L19.236 41.9992V30.3792L14.924 26.1792C14.3921 26.4861 13.7741 26.6097 13.1651 26.5309C12.5561 26.452 11.9899 26.1752 11.5537 25.7429C11.1174 25.3107 10.8354 24.747 10.7511 24.1388C10.6667 23.5305 10.7846 22.9114 11.0867 22.3767C11.3887 21.8421 11.8582 21.4215 12.4227 21.1799C12.9873 20.9383 13.6156 20.8889 14.211 21.0395C14.8063 21.19 15.3357 21.5321 15.7175 22.0131C16.0993 22.4941 16.3124 23.0872 16.324 23.7012C16.3367 24.2274 16.2009 24.7466 15.932 25.1992L20.636 29.7632V38.0232L24.024 34.7192C23.86 34.3483 23.7785 33.9463 23.7852 33.5408C23.7919 33.1354 23.8865 32.7362 24.0626 32.3709C24.2387 32.0057 24.492 31.683 24.8051 31.4252C25.1181 31.1675 25.4834 30.9808 25.8757 30.8781C26.268 30.7754 26.6779 30.7592 27.0771 30.8305C27.4763 30.9018 27.8552 31.0589 28.1877 31.2911C28.5202 31.5232 28.7983 31.8248 29.0028 32.175C29.2073 32.5251 29.3332 32.9155 29.372 33.3192C29.393 33.8384 29.2692 34.3532 29.0143 34.806C28.7594 35.2588 28.3835 35.6317 27.9288 35.8831C27.474 36.1345 26.9583 36.2543 26.4392 36.2292C25.9202 36.2042 25.4184 36.0352 24.99 35.7412L20.636 39.9412V45.4152H26.964C27.1926 45.4184 27.4185 45.3655 27.622 45.2612C31.0845 43.5315 33.8582 40.6789 35.49 37.1692H29.582L34.86 23.0852Z" fill="#FFD0A4"/>
<path d="M34.65 34.6773L52.15 13.7893H39.396V0.363281L27.832 19.8373H38.92L34.65 34.6773Z" fill="#FF9530"/>
<path d="M27.3559 49.6445H12.7119V55.8745H27.3559V49.6445Z" fill="#FFD0A4"/>
<path d="M20.6356 39.9843L24.9896 35.7843C25.5826 36.1569 26.2913 36.2998 26.9823 36.1862C27.6732 36.0725 28.2988 35.7102 28.7412 35.1674C29.1836 34.6245 29.4123 33.9387 29.3842 33.239C29.3561 32.5393 29.0731 31.874 28.5886 31.3684C28.1041 30.8628 27.4515 30.5519 26.7536 30.494C26.0557 30.4362 25.3608 30.6355 24.7996 31.0544C24.2385 31.4733 23.8499 32.0829 23.7069 32.7684C23.564 33.454 23.6767 34.1681 24.0236 34.7763L20.6356 38.0803V29.8203L15.9316 25.2003C16.2228 24.7497 16.3783 24.2248 16.3796 23.6883C16.382 23.0441 16.1707 22.4172 15.7787 21.9059C15.3867 21.3946 14.8362 21.0277 14.2134 20.8627C13.5906 20.6977 12.9307 20.7439 12.337 20.9941C11.7432 21.2443 11.2492 21.6843 10.9323 22.2452C10.6154 22.8062 10.4935 23.4564 10.5856 24.094C10.6777 24.7317 10.9787 25.3208 11.4414 25.7691C11.9042 26.2174 12.5025 26.4996 13.1428 26.5714C13.783 26.6433 14.429 26.5009 14.9796 26.1663L19.2916 30.3663V42.0003L15.9456 38.7663C16.2857 38.2881 16.4669 37.7151 16.4636 37.1283C16.4636 36.5745 16.2994 36.0332 15.9918 35.5727C15.6841 35.1123 15.2468 34.7534 14.7352 34.5415C14.2235 34.3295 13.6605 34.2741 13.1174 34.3821C12.5742 34.4902 12.0753 34.7568 11.6837 35.1484C11.2922 35.54 11.0255 36.0389 10.9175 36.5821C10.8094 37.1252 10.8649 37.6882 11.0768 38.1998C11.2887 38.7115 11.6476 39.1488 12.1081 39.4564C12.5685 39.7641 13.1099 39.9283 13.6636 39.9283C14.1078 39.9236 14.5445 39.8132 14.9376 39.6063L19.3476 43.8903V45.4163H20.7476V39.9843H20.6356ZM26.5016 31.8643C26.7785 31.8643 27.0492 31.9464 27.2794 32.1003C27.5097 32.2541 27.6891 32.4728 27.7951 32.7286C27.901 32.9844 27.9288 33.2659 27.8748 33.5375C27.8207 33.809 27.6874 34.0585 27.4916 34.2543C27.2958 34.4501 27.0463 34.5834 26.7748 34.6374C26.5032 34.6915 26.2217 34.6637 25.9659 34.5578C25.7101 34.4518 25.4914 34.2724 25.3376 34.0421C25.1838 33.8119 25.1016 33.5412 25.1016 33.2643C25.1016 32.893 25.2491 32.5369 25.5117 32.2744C25.7743 32.0118 26.1303 31.8643 26.5016 31.8643ZM13.5096 25.2003C13.2163 25.2143 12.9255 25.1401 12.6748 24.9873C12.424 24.8345 12.2247 24.6102 12.1027 24.3431C11.9806 24.076 11.9413 23.7785 11.9899 23.4889C12.0385 23.1993 12.1726 22.9308 12.3752 22.7182C12.5777 22.5056 12.8392 22.3584 13.1261 22.2958C13.413 22.2332 13.7121 22.2579 13.9848 22.3668C14.2575 22.4757 14.4914 22.6638 14.6562 22.9068C14.821 23.1499 14.9093 23.4367 14.9096 23.7303C14.9191 23.92 14.89 24.1096 14.8239 24.2876C14.7578 24.4656 14.6562 24.6283 14.5252 24.7659C14.3942 24.9034 14.2367 25.0128 14.0621 25.0875C13.8875 25.1622 13.6995 25.2006 13.5096 25.2003ZM13.5096 38.6123C13.2134 38.6261 12.9199 38.55 12.6677 38.3939C12.4155 38.2379 12.2164 38.0092 12.0966 37.7379C11.9768 37.4666 11.9418 37.1655 11.9962 36.8739C12.0507 36.5824 12.1921 36.3142 12.4018 36.1045C12.6115 35.8948 12.8797 35.7534 13.1713 35.6989C13.4628 35.6445 13.764 35.6794 14.0352 35.7993C14.3065 35.9191 14.5352 36.1182 14.6913 36.3704C14.8473 36.6226 14.9234 36.9161 14.9096 37.2123C14.9026 37.5716 14.7577 37.9144 14.5049 38.1698C14.2521 38.4252 13.9108 38.5736 13.5516 38.5843L13.5096 38.6123Z" fill="#FF9530"/>
</svg>
