<svg width="49" height="56" viewBox="0 0 49 56" fill="none" xmlns="http://www.w3.org/2000/svg">
<path d="M28.5267 16.7118C27.394 15.0072 26.7383 13.0304 26.6277 10.9868C26.6336 10.4696 26.6664 9.95316 26.7262 9.43945C25.6427 9.26692 24.545 9.20096 23.4487 9.24252C18.4587 9.22753 13.5948 10.8096 9.56848 13.7572C5.54213 16.7049 2.56457 20.8636 1.07131 25.6249C-0.421942 30.3863 -0.352542 35.5005 1.26936 40.2196C2.89127 44.9387 5.98057 49.015 10.0854 51.8523C14.1903 54.6896 19.0953 56.1391 24.083 55.9887C29.0708 55.8383 33.8796 54.096 37.806 51.0165C41.7325 47.937 44.5706 43.6819 45.9052 38.8737C47.2399 34.0655 47.001 28.9564 45.2236 24.2936C43.5919 26.5443 39.9346 31.5379 39.9346 31.5379C39.9346 31.5379 31.0305 20.6926 28.5267 16.7118Z" fill="#FFD0A4"/>
<path d="M37.9089 38.5299C35.7849 47.7716 29.2299 55.0158 23.4486 55.0158C16.4154 55.0158 8.62254 44.9583 8.62254 32.5095C8.54806 26.2227 10.6224 20.0988 14.5023 15.1515C15.2197 14.2934 18.5957 10.2142 22.8719 9.89062" stroke="#FF9530" stroke-miterlimit="10"/>
<path d="M23.5469 54.5925V9.24219" stroke="#FF9530" stroke-miterlimit="10"/>
<path d="M48.0086 5.42967C47.6061 4.31154 46.9609 3.29647 46.1194 2.45738C45.2779 1.61829 44.2609 0.976025 43.1417 0.57674C42.1129 0.204606 41.0285 0.00960036 39.9345 1.48562e-05C37.7921 -0.00395663 35.7247 0.788466 34.1338 2.22338C32.5429 3.65829 31.5422 5.63326 31.3258 7.7647C31.3258 8.0601 31.3258 8.35549 31.3258 8.66496C31.3179 10.0301 31.6413 11.3768 32.2683 12.5895C34.6227 16.4338 37.1965 20.1394 39.9767 23.6879C41.0036 22.2813 42.6071 20.1432 44.1122 18.0614C45.6174 15.9795 46.9255 13.9539 47.6007 12.8146C48.1966 11.6856 48.5415 10.4413 48.6119 9.16671C48.6823 7.89212 48.4766 6.61736 48.0086 5.42967Z" fill="#FF9530"/>
<path d="M39.9347 11.7034C41.7448 11.7034 43.2122 10.236 43.2122 8.42592C43.2122 6.61582 41.7448 5.14844 39.9347 5.14844C38.1246 5.14844 36.6572 6.61582 36.6572 8.42592C36.6572 10.236 38.1246 11.7034 39.9347 11.7034Z" stroke="#FFD0A4" stroke-miterlimit="10"/>
<path d="M29.9053 26.432H0.956543L1.3926 25.0254H29.9053V26.432Z" fill="#FF9530"/>
<path d="M45.8423 39.0063H17.3296V37.5996H46.208L45.8423 39.0063Z" fill="#FF9530"/>
<path d="M9.49506 39.0063H1.04112L0.689453 37.5996H9.49506V39.0063Z" fill="#FF9530"/>
</svg>
