<svg width="48" height="48" viewBox="0 0 48 48" fill="none" xmlns="http://www.w3.org/2000/svg">
<g clip-path="url(#clip0_893_9610)">
<path d="M34 42.7H14C12.5554 42.7 11.1697 42.1275 10.1463 41.1079C9.12291 40.0882 8.54533 38.7046 8.54004 37.26V18.7C8.54019 18.5255 8.57776 18.3531 8.65022 18.1944C8.72267 18.0357 8.82832 17.8944 8.96004 17.78L23.16 5.61999C23.3774 5.43407 23.654 5.33191 23.94 5.33191C24.2261 5.33191 24.5027 5.43407 24.72 5.61999L38.92 17.78C39.0518 17.8944 39.1574 18.0357 39.2299 18.1944C39.3023 18.3531 39.3399 18.5255 39.34 18.7V37.16C39.3615 38.6013 38.8121 39.9926 37.8118 41.0305C36.8114 42.0683 35.4412 42.6685 34 42.7ZM11 19.26V37.26C11.0253 38.0457 11.3501 38.7921 11.9079 39.3461C12.4656 39.9002 13.2141 40.22 14 40.24H34C34.81 40.2347 35.5853 39.9107 36.158 39.3379C36.7307 38.7652 37.0548 37.9899 37.06 37.18V19.18L24 8.13999L11 19.26Z" fill="#1B4A52"/>
<path d="M5.37979 23.78C5.21021 23.7795 5.04259 23.7437 4.88763 23.6749C4.73267 23.606 4.59377 23.5056 4.47979 23.38C4.37542 23.2608 4.29568 23.1221 4.24519 22.9719C4.1947 22.8217 4.17444 22.6631 4.1856 22.505C4.19675 22.347 4.2391 22.1927 4.31019 22.0511C4.38128 21.9095 4.4797 21.7834 4.59979 21.68L23.2198 5.68001C23.4653 5.47661 23.7806 5.37737 24.0983 5.40353C24.416 5.4297 24.7109 5.57919 24.9198 5.82001C25.122 6.06221 25.2207 6.3743 25.1945 6.68873C25.1683 7.00315 25.0193 7.29462 24.7798 7.50001L6.15979 23.5C5.94413 23.6879 5.66571 23.7878 5.37979 23.78Z" fill="#1B4A52"/>
<path d="M42.6202 23.78C42.3343 23.7878 42.0559 23.6879 41.8402 23.5L23.2202 7.49997C23.1008 7.39838 23.0028 7.274 22.9319 7.13409C22.8611 6.99419 22.8189 6.84157 22.8077 6.68516C22.7965 6.52874 22.8166 6.37166 22.8669 6.22311C22.9171 6.07456 22.9964 5.93751 23.1002 5.81997C23.3056 5.58046 23.5971 5.43147 23.9115 5.40527C24.2259 5.37907 24.538 5.47776 24.7802 5.67997L43.4002 21.68C43.5203 21.7833 43.6187 21.9094 43.6898 22.051C43.7609 22.1926 43.8033 22.3469 43.8144 22.505C43.8256 22.663 43.8053 22.8217 43.7548 22.9719C43.7043 23.1221 43.6246 23.2608 43.5202 23.38C43.4055 23.5046 43.2664 23.6044 43.1116 23.6732C42.9569 23.742 42.7896 23.7783 42.6202 23.78Z" fill="#1B4A52"/>
<path d="M26.3799 36.06H22.1199C21.8016 36.06 21.4964 35.9336 21.2713 35.7085C21.0463 35.4835 20.9199 35.1782 20.9199 34.86V29.82H15.8799C15.7215 29.8227 15.5643 29.7935 15.4175 29.7342C15.2706 29.6748 15.1373 29.5865 15.0253 29.4745C14.9133 29.3626 14.825 29.2292 14.7657 29.0824C14.7063 28.9356 14.6772 28.7783 14.6799 28.62V24.36C14.6799 24.2024 14.7109 24.0464 14.7712 23.9008C14.8315 23.7552 14.9199 23.6229 15.0313 23.5115C15.1428 23.4 15.275 23.3116 15.4206 23.2513C15.5662 23.191 15.7223 23.16 15.8799 23.16H20.9199V18.12C20.9199 17.8017 21.0463 17.4965 21.2713 17.2715C21.4964 17.0464 21.8016 16.92 22.1199 16.92H26.3799C26.5374 16.92 26.6935 16.951 26.8391 17.0113C26.9847 17.0716 27.117 17.16 27.2284 17.2715C27.3398 17.3829 27.4282 17.5152 27.4885 17.6608C27.5488 17.8063 27.5799 17.9624 27.5799 18.12V23.16H32.6199C32.9381 23.16 33.2433 23.2864 33.4684 23.5115C33.6934 23.7365 33.8199 24.0417 33.8199 24.36V28.7C33.8226 28.8583 33.7934 29.0156 33.734 29.1624C33.6747 29.3092 33.5864 29.4426 33.4744 29.5545C33.3624 29.6665 33.2291 29.7548 33.0823 29.8142C32.9354 29.8735 32.7782 29.9027 32.6199 29.9H27.5799V34.94C27.5595 35.2442 27.4242 35.5292 27.2013 35.7373C26.9784 35.9453 26.6847 36.0607 26.3799 36.06ZM23.3199 33.68H25.1799V28.7C25.1798 28.5433 25.211 28.3882 25.2716 28.2437C25.3321 28.0993 25.4208 27.9683 25.5325 27.8584C25.6442 27.7486 25.7767 27.6621 25.9221 27.604C26.0676 27.5459 26.2232 27.5173 26.3799 27.52H31.4399V25.64H26.3799C26.0616 25.64 25.7564 25.5136 25.5313 25.2885C25.3063 25.0635 25.1799 24.7582 25.1799 24.44V19.32H23.3199V24.36C23.3199 24.5176 23.2888 24.6736 23.2285 24.8192C23.1682 24.9648 23.0798 25.0971 22.9684 25.2085C22.857 25.3199 22.7247 25.4083 22.5791 25.4686C22.4335 25.5289 22.2774 25.56 22.1199 25.56H17.0799V27.44H22.1199C22.2765 27.4373 22.4321 27.4659 22.5776 27.524C22.7231 27.5821 22.8555 27.6686 22.9672 27.7784C23.0789 27.8883 23.1676 28.0193 23.2282 28.1637C23.2887 28.3082 23.3199 28.4633 23.3199 28.62V33.68Z" fill="#FF6961"/>
</g>
<defs>
<clipPath id="clip0_893_9610">
<rect width="48" height="48" fill="white"/>
</clipPath>
</defs>
</svg>
