<svg width="48" height="48" viewBox="0 0 48 48" fill="none" xmlns="http://www.w3.org/2000/svg">
<g clip-path="url(#clip0_893_9655)">
<path d="M17.5999 26.72C16.0845 26.7147 14.6326 26.1104 13.5611 25.0388C12.4895 23.9673 11.8852 22.5154 11.8799 21C11.8852 19.4846 12.4895 18.0327 13.5611 16.9612C14.6326 15.8896 16.0845 15.2853 17.5999 15.28C19.1153 15.2853 20.5671 15.8896 21.6387 16.9612C22.7103 18.0327 23.3146 19.4846 23.3199 21C23.3199 22.517 22.7172 23.9719 21.6445 25.0446C20.5718 26.1174 19.1169 26.72 17.5999 26.72ZM17.5999 17.68C16.721 17.6852 15.8796 18.0367 15.2581 18.6582C14.6366 19.2797 14.2851 20.1211 14.2799 21C14.2719 21.441 14.3519 21.8792 14.5152 22.2889C14.6784 22.6987 14.9217 23.0718 15.2308 23.3865C15.5399 23.7011 15.9086 23.9511 16.3154 24.1217C16.7221 24.2923 17.1588 24.3801 17.5999 24.38C18.4804 24.38 19.3249 24.0302 19.9475 23.4076C20.5701 22.785 20.9199 21.9405 20.9199 21.06C20.9279 20.619 20.8479 20.1808 20.6846 19.7711C20.5213 19.3613 20.278 18.9882 19.9689 18.6735C19.6599 18.3588 19.2912 18.1089 18.8844 17.9383C18.4776 17.7677 18.041 17.6799 17.5999 17.68Z" fill="#1B4A52"/>
<path d="M17.6001 43.76C15.2351 43.7632 12.8927 43.3003 10.7067 42.3977C8.52066 41.4952 6.53395 40.1707 4.86007 38.5C4.70025 38.3372 4.58929 38.1328 4.53979 37.9101C4.4903 37.6873 4.50425 37.4552 4.58007 37.24C5.22362 34.2692 6.86394 31.6078 9.22868 29.6978C11.5934 27.7878 14.5403 26.7441 17.5801 26.74C20.1183 26.7263 22.6075 27.4382 24.7547 28.7917C26.902 30.1452 28.6177 32.0841 29.7001 34.38V34.5L30.5801 37.2C30.6477 37.4112 30.6554 37.637 30.6025 37.8524C30.5495 38.0678 30.4379 38.2642 30.2801 38.42C26.9273 41.8089 22.3671 43.7293 17.6001 43.76ZM7.04007 37.26C9.92334 39.8839 13.6816 41.3379 17.5801 41.3379C21.4785 41.3379 25.2368 39.8839 28.1201 37.26L27.5001 35.26C26.6135 33.361 25.1992 31.7573 23.4261 30.6402C21.6529 29.5231 19.5957 28.9398 17.5001 28.96C15.0849 28.9947 12.749 29.8276 10.8569 31.3291C8.96476 32.8305 7.62271 34.9159 7.04007 37.26Z" fill="#1B4A52"/>
<path d="M21.42 39.44C21.1017 39.44 20.7965 39.3136 20.5714 39.0885C20.3464 38.8635 20.22 38.5583 20.22 38.24V32.24C20.22 31.9217 20.3464 31.6165 20.5714 31.3915C20.7965 31.1664 21.1017 31.04 21.42 31.04C21.7382 31.04 22.0435 31.1664 22.2685 31.3915C22.4935 31.6165 22.62 31.9217 22.62 32.24V38.24C22.62 38.5583 22.4935 38.8635 22.2685 39.0885C22.0435 39.3136 21.7382 39.44 21.42 39.44Z" fill="#1B4A52"/>
<path d="M24.42 36.38H18.42C18.1017 36.38 17.7965 36.2536 17.5714 36.0285C17.3464 35.8035 17.22 35.4983 17.22 35.18C17.22 34.8618 17.3464 34.5565 17.5714 34.3315C17.7965 34.1064 18.1017 33.98 18.42 33.98H24.42C24.7382 33.98 25.0435 34.1064 25.2685 34.3315C25.4935 34.5565 25.62 34.8618 25.62 35.18C25.62 35.4983 25.4935 35.8035 25.2685 36.0285C25.0435 36.2536 24.7382 36.38 24.42 36.38Z" fill="#1B4A52"/>
<path d="M27.6199 24.2H27.2599C27.0171 24.1236 26.8048 23.972 26.6538 23.7671C26.5028 23.5622 26.4209 23.3146 26.4199 23.06V5.68002C26.4199 5.52243 26.451 5.36639 26.5113 5.22079C26.5716 5.0752 26.66 4.94291 26.7714 4.83148C26.8828 4.72005 27.0151 4.63166 27.1607 4.57136C27.3063 4.51105 27.4623 4.48001 27.6199 4.48001H42.6199C42.7775 4.48001 42.9336 4.51105 43.0791 4.57136C43.2247 4.63166 43.357 4.72005 43.4685 4.83148C43.5799 4.94291 43.6683 5.0752 43.7286 5.22079C43.7889 5.36639 43.8199 5.52243 43.8199 5.68002V17.4C43.8199 17.7183 43.6935 18.0235 43.4685 18.2485C43.2434 18.4736 42.9382 18.6 42.6199 18.6H32.3599L28.5999 23.72C28.4861 23.8718 28.338 23.9944 28.1676 24.0779C27.9973 24.1613 27.8096 24.2032 27.6199 24.2ZM28.8199 6.88001V19.36L30.8199 16.68C30.9368 16.5317 31.0856 16.4115 31.2553 16.3284C31.4249 16.2453 31.611 16.2014 31.7999 16.2H41.4599V6.88001H28.8199Z" fill="#FF6961"/>
<path d="M38.7001 11.2H31.5401C31.2218 11.2 30.9166 11.0736 30.6916 10.8485C30.4665 10.6235 30.3401 10.3183 30.3401 9.99999C30.3401 9.84241 30.3711 9.68636 30.4314 9.54077C30.4917 9.39518 30.5801 9.26289 30.6916 9.15146C30.803 9.04003 30.9353 8.95164 31.0809 8.89133C31.2265 8.83103 31.3825 8.79999 31.5401 8.79999H38.7001C38.8577 8.79999 39.0137 8.83103 39.1593 8.89133C39.3049 8.95164 39.4372 9.04003 39.5486 9.15146C39.66 9.26289 39.7484 9.39518 39.8087 9.54077C39.869 9.68636 39.9001 9.84241 39.9001 9.99999C39.9001 10.1576 39.869 10.3136 39.8087 10.4592C39.7484 10.6048 39.66 10.7371 39.5486 10.8485C39.4372 10.9599 39.3049 11.0483 39.1593 11.1086C39.0137 11.1689 38.8577 11.2 38.7001 11.2Z" fill="#FF6961"/>
<path d="M38.7001 14.38H31.5401C31.2218 14.38 30.9166 14.2536 30.6916 14.0285C30.4665 13.8035 30.3401 13.4983 30.3401 13.18C30.3401 13.0224 30.3711 12.8664 30.4314 12.7208C30.4917 12.5752 30.5801 12.4429 30.6916 12.3315C30.803 12.2201 30.9353 12.1317 31.0809 12.0714C31.2265 12.0111 31.3825 11.98 31.5401 11.98H38.7001C38.8577 11.98 39.0137 12.0111 39.1593 12.0714C39.3049 12.1317 39.4372 12.2201 39.5486 12.3315C39.66 12.4429 39.7484 12.5752 39.8087 12.7208C39.869 12.8664 39.9001 13.0224 39.9001 13.18C39.9001 13.3376 39.869 13.4936 39.8087 13.6392C39.7484 13.7848 39.66 13.9171 39.5486 14.0285C39.4372 14.14 39.3049 14.2284 39.1593 14.2887C39.0137 14.349 38.8577 14.38 38.7001 14.38Z" fill="#FF6961"/>
</g>
<defs>
<clipPath id="clip0_893_9655">
<rect width="48" height="48" fill="white"/>
</clipPath>
</defs>
</svg>
