<svg width="48" height="48" viewBox="0 0 48 48" fill="none" xmlns="http://www.w3.org/2000/svg">
<path d="M24.0003 22C22.978 22.004 21.9776 21.7042 21.126 21.1387C20.2744 20.5733 19.61 19.7676 19.2169 18.8239C18.8239 17.8802 18.72 16.8411 18.9185 15.8383C19.1169 14.8355 19.6088 13.9142 20.3316 13.1914C21.0545 12.4685 21.9757 11.9767 22.9785 11.7782C23.9813 11.5798 25.0205 11.6836 25.9642 12.0767C26.9079 12.4697 27.7136 13.1342 28.279 13.9858C28.8445 14.8374 29.1442 15.8378 29.1403 16.86C29.135 18.2216 28.5918 19.5259 27.629 20.4887C26.6662 21.4515 25.3619 21.9948 24.0003 22ZM24.0003 14.1C23.4536 14.0961 22.918 14.2546 22.4615 14.5554C22.005 14.8563 21.6481 15.2859 21.4361 15.7899C21.2242 16.2938 21.1667 16.8494 21.2709 17.3861C21.3751 17.9228 21.6364 18.4165 22.0216 18.8045C22.4068 19.1925 22.8985 19.4573 23.4344 19.5654C23.9703 19.6736 24.5263 19.6201 25.0318 19.4118C25.5373 19.2035 25.9695 18.8498 26.2737 18.3955C26.5779 17.9411 26.7402 17.4067 26.7403 16.86C26.735 16.1349 26.4447 15.4411 25.932 14.9283C25.4193 14.4156 24.7253 14.1253 24.0003 14.12V14.1Z" fill="#FC6B72"/>
<path d="M14 31.76H13.7C13.3926 31.68 13.1295 31.4814 12.9683 31.2078C12.8071 30.9341 12.761 30.6077 12.84 30.3C13.4511 27.8319 14.8521 25.6311 16.8298 24.0329C18.8075 22.4348 21.2534 21.527 23.7948 21.4477C26.3362 21.3684 28.8339 22.1221 30.9073 23.5938C32.9808 25.0656 34.5164 27.1747 35.28 29.6C35.3273 29.7511 35.3443 29.9099 35.3302 30.0675C35.3161 30.2251 35.2711 30.3784 35.1978 30.5186C35.1244 30.6589 35.0241 30.7833 34.9027 30.8847C34.7813 30.9862 34.641 31.0628 34.49 31.11C34.339 31.1573 34.1801 31.1744 34.0225 31.1603C33.8649 31.1461 33.7116 31.1011 33.5714 31.0278C33.4312 30.9544 33.3068 30.8541 33.2053 30.7327C33.1038 30.6113 33.0273 30.4711 32.98 30.32C32.3728 28.3945 31.1529 26.7202 29.5061 25.5521C27.8593 24.384 25.8758 23.7862 23.8578 23.8496C21.8398 23.913 19.8979 24.6342 18.3277 25.9034C16.7575 27.1726 15.6451 28.9202 15.16 30.88C15.0898 31.1336 14.9383 31.3571 14.7287 31.5161C14.5191 31.6751 14.2631 31.7608 14 31.76Z" fill="#FC6B72"/>
<path d="M42.4399 31.76H5.65991C5.34165 31.76 5.03645 31.6336 4.8114 31.4085C4.58636 31.1835 4.45996 30.8782 4.45996 30.56V8.67998C4.45996 8.36172 4.58636 8.0565 4.8114 7.83145C5.03645 7.60641 5.34165 7.47998 5.65991 7.47998H42.4399C42.5975 7.47998 42.7536 7.51101 42.8992 7.57132C43.0448 7.63163 43.177 7.72002 43.2885 7.83145C43.3999 7.94288 43.4883 8.07517 43.5486 8.22076C43.6089 8.36635 43.64 8.52239 43.64 8.67998V30.56C43.64 30.8782 43.5135 31.1835 43.2885 31.4085C43.0634 31.6336 42.7582 31.76 42.4399 31.76ZM6.85992 29.38H41.2399V9.87997H6.85992V29.38Z" fill="#1B4A52"/>
<path d="M21.4998 42C21.1816 42 20.8763 41.8736 20.6513 41.6485C20.4263 41.4235 20.2998 41.1182 20.2998 40.8V30.56C20.2998 30.2417 20.4263 29.9365 20.6513 29.7115C20.8763 29.4864 21.1816 29.36 21.4998 29.36C21.8181 29.36 22.1233 29.4864 22.3483 29.7115C22.5734 29.9365 22.6998 30.2417 22.6998 30.56V40.8C22.6998 41.1182 22.5734 41.4235 22.3483 41.6485C22.1233 41.8736 21.8181 42 21.4998 42Z" fill="#1B4A52"/>
<path d="M26.5999 42C26.2816 42 25.9764 41.8736 25.7513 41.6485C25.5263 41.4235 25.3999 41.1182 25.3999 40.8V30.56C25.3999 30.2417 25.5263 29.9365 25.7513 29.7115C25.9764 29.4864 26.2816 29.36 26.5999 29.36C26.9181 29.36 27.2234 29.4864 27.4484 29.7115C27.6735 29.9365 27.7999 30.2417 27.7999 30.56V40.8C27.7999 41.1182 27.6735 41.4235 27.4484 41.6485C27.2234 41.8736 26.9181 42 26.5999 42Z" fill="#1B4A52"/>
<path d="M32.2198 42.44H15.9998C15.6816 42.44 15.3763 42.3136 15.1513 42.0885C14.9263 41.8635 14.7998 41.5582 14.7998 41.24C14.7998 40.9217 14.9263 40.6165 15.1513 40.3914C15.3763 40.1664 15.6816 40.04 15.9998 40.04H32.2798C32.5981 40.04 32.9033 40.1664 33.1284 40.3914C33.3534 40.6165 33.4798 40.9217 33.4798 41.24C33.4798 41.5582 33.3534 41.8635 33.1284 42.0885C32.9033 42.3136 32.5981 42.44 32.2798 42.44H32.2198Z" fill="#1B4A52"/>
</svg>
