<svg width="24" height="24" viewBox="0 0 24 24" fill="none" xmlns="http://www.w3.org/2000/svg">
<g clip-path="url(#clip0_1518_12844)">
<path d="M17 21.3501H7.00002C6.27771 21.3501 5.58483 21.0638 5.07314 20.554C4.56146 20.0442 4.27267 19.3524 4.27002 18.6301V9.35005C4.2701 9.26282 4.28888 9.17662 4.32511 9.09727C4.36133 9.01792 4.41416 8.94726 4.48002 8.89006L11.58 2.81005C11.6887 2.7171 11.827 2.66602 11.97 2.66602C12.113 2.66602 12.2513 2.7171 12.36 2.81005L19.46 8.89006C19.5259 8.94726 19.5787 9.01792 19.6149 9.09727C19.6512 9.17662 19.6699 9.26282 19.67 9.35005V18.5801C19.6808 19.3007 19.4061 19.9964 18.9059 20.5153C18.4057 21.0342 17.7206 21.3343 17 21.3501ZM5.50002 9.63005V18.6301C5.51265 19.0229 5.67505 19.3961 5.95393 19.6731C6.23281 19.9502 6.60706 20.11 7.00002 20.1201H17C17.405 20.1174 17.7926 19.9554 18.079 19.669C18.3654 19.3827 18.5274 18.995 18.53 18.5901V9.59006L12 4.07006L5.50002 9.63005Z" fill="#1B4A52"/>
<path d="M2.68989 11.89C2.6051 11.8898 2.5213 11.8719 2.44381 11.8374C2.36633 11.803 2.29689 11.7528 2.2399 11.69C2.18771 11.6304 2.14784 11.5611 2.12259 11.486C2.09735 11.4109 2.08722 11.3315 2.0928 11.2525C2.09838 11.1735 2.11955 11.0963 2.1551 11.0255C2.19064 10.9547 2.23985 10.8917 2.29989 10.84L11.6099 2.84C11.7326 2.7383 11.8903 2.68868 12.0492 2.70177C12.208 2.71485 12.3554 2.78959 12.4599 2.91C12.561 3.0311 12.6103 3.18715 12.5972 3.34436C12.5841 3.50158 12.5096 3.64731 12.3899 3.75L3.0799 11.75C2.97206 11.8439 2.83285 11.8939 2.68989 11.89Z" fill="#1B4A52"/>
<path d="M21.3101 11.89C21.1672 11.8939 21.0279 11.8439 20.9201 11.75L11.6101 3.74999C11.5504 3.69919 11.5014 3.637 11.466 3.56705C11.4305 3.49709 11.4094 3.42079 11.4038 3.34258C11.3983 3.26437 11.4083 3.18583 11.4334 3.11156C11.4585 3.03728 11.4982 2.96876 11.5501 2.90999C11.6528 2.79023 11.7985 2.71574 11.9558 2.70264C12.113 2.68953 12.269 2.73888 12.3901 2.83999L21.7001 10.84C21.7602 10.8917 21.8094 10.9547 21.8449 11.0255C21.8805 11.0963 21.9016 11.1735 21.9072 11.2525C21.9128 11.3315 21.9027 11.4109 21.8774 11.4859C21.8522 11.561 21.8123 11.6304 21.7601 11.69C21.7027 11.7523 21.6332 11.8022 21.5558 11.8366C21.4784 11.871 21.3948 11.8892 21.3101 11.89Z" fill="#1B4A52"/>
<path d="M13.1899 18.03H11.0599C10.9008 18.03 10.7482 17.9667 10.6357 17.8542C10.5231 17.7417 10.4599 17.5891 10.4599 17.43V14.91H7.93993C7.86076 14.9113 7.78213 14.8967 7.70873 14.867C7.63532 14.8374 7.56864 14.7932 7.51265 14.7372C7.45666 14.6813 7.41252 14.6146 7.38285 14.5412C7.35317 14.4678 7.33858 14.3891 7.33993 14.31V12.18C7.33993 12.1012 7.35545 12.0231 7.3856 11.9504C7.41576 11.8776 7.45995 11.8114 7.51567 11.7557C7.57138 11.7 7.63752 11.6558 7.71032 11.6256C7.78311 11.5955 7.86114 11.58 7.93993 11.58H10.4599V9.05996C10.4599 8.90083 10.5231 8.74822 10.6357 8.6357C10.7482 8.52317 10.9008 8.45996 11.0599 8.45996H13.1899C13.2687 8.45996 13.3467 8.47548 13.4195 8.50563C13.4923 8.53579 13.5585 8.57998 13.6142 8.6357C13.6699 8.69141 13.7141 8.75755 13.7443 8.83035C13.7744 8.90314 13.7899 8.98117 13.7899 9.05996V11.58H16.3099C16.4691 11.58 16.6217 11.6432 16.7342 11.7557C16.8467 11.8682 16.9099 12.0208 16.9099 12.18V14.35C16.9113 14.4291 16.8967 14.5078 16.867 14.5812C16.8373 14.6546 16.7932 14.7213 16.7372 14.7772C16.6812 14.8332 16.6145 14.8774 16.5411 14.907C16.4677 14.9367 16.3891 14.9513 16.3099 14.95H13.7899V17.47C13.7798 17.6221 13.7121 17.7646 13.6007 17.8686C13.4892 17.9726 13.3424 18.0303 13.1899 18.03ZM11.6599 16.84H12.5899V14.35C12.5899 14.2716 12.6055 14.1941 12.6358 14.1218C12.6661 14.0496 12.7104 13.9841 12.7663 13.9292C12.8221 13.8743 12.8883 13.831 12.9611 13.802C13.0338 13.7729 13.1116 13.7586 13.1899 13.76H15.7199V12.82H13.1899C13.0308 12.82 12.8782 12.7567 12.7657 12.6442C12.6531 12.5317 12.5899 12.3791 12.5899 12.22V9.65996H11.6599V12.18C11.6599 12.2588 11.6444 12.3368 11.6143 12.4096C11.5841 12.4824 11.5399 12.5485 11.4842 12.6042C11.4285 12.6599 11.3623 12.7041 11.2895 12.7343C11.2167 12.7644 11.1387 12.78 11.0599 12.78H8.53993V13.72H11.0599C11.1382 13.7186 11.216 13.7329 11.2888 13.762C11.3615 13.791 11.4278 13.8343 11.4836 13.8892C11.5395 13.9441 11.5838 14.0096 11.6141 14.0818C11.6444 14.1541 11.6599 14.2316 11.6599 14.31V16.84Z" fill="#FF6961"/>
</g>
<defs>
<clipPath id="clip0_1518_12844">
<rect width="24" height="24" fill="white"/>
</clipPath>
</defs>
</svg>
