<svg width="24" height="24" viewBox="0 0 24 24" fill="none" xmlns="http://www.w3.org/2000/svg">
<path d="M17.8301 10.89H16.0701C15.911 10.89 15.7584 10.8268 15.6459 10.7142C15.5333 10.6017 15.4701 10.4491 15.4701 10.29V8.24998H13.4701C13.311 8.24998 13.1584 8.18677 13.0459 8.07425C12.9333 7.96172 12.8701 7.80911 12.8701 7.64998V5.75998C12.8701 5.60085 12.9333 5.44824 13.0459 5.33572C13.1584 5.22319 13.311 5.15998 13.4701 5.15998H15.4701V3.07998C15.4701 2.92085 15.5333 2.76824 15.6459 2.65572C15.7584 2.54319 15.911 2.47998 16.0701 2.47998H17.8301C17.9892 2.47998 18.1419 2.54319 18.2544 2.65572C18.3669 2.76824 18.4301 2.92085 18.4301 3.07998V5.15998H20.4301C20.5089 5.15998 20.5869 5.1755 20.6597 5.20565C20.7325 5.23581 20.7987 5.28 20.8544 5.33572C20.9101 5.39143 20.9543 5.45758 20.9844 5.53037C21.0146 5.60317 21.0301 5.68119 21.0301 5.75998V7.59998C21.0301 7.67877 21.0146 7.75679 20.9844 7.82959C20.9543 7.90239 20.9101 7.96853 20.8544 8.02425C20.7987 8.07996 20.7325 8.12416 20.6597 8.15431C20.5869 8.18446 20.5089 8.19998 20.4301 8.19998H18.4301V10.25C18.4356 10.3321 18.4241 10.4144 18.3965 10.4919C18.3688 10.5694 18.3254 10.6403 18.2692 10.7003C18.2129 10.7604 18.1449 10.8082 18.0694 10.8408C17.9938 10.8734 17.9124 10.8902 17.8301 10.89ZM16.6701 9.68998H17.2301V7.59998C17.2301 7.52119 17.2456 7.44317 17.2758 7.37037C17.3059 7.29758 17.3501 7.23143 17.4059 7.17572C17.4616 7.12 17.5277 7.07581 17.6005 7.04565C17.6733 7.0155 17.7513 6.99998 17.8301 6.99998H19.8301V6.35998H17.8301C17.7513 6.35998 17.6733 6.34446 17.6005 6.31431C17.5277 6.28416 17.4616 6.23996 17.4059 6.18425C17.3501 6.12853 17.3059 6.06239 17.2758 5.98959C17.2456 5.91679 17.2301 5.83877 17.2301 5.75998V3.66998H16.6701V5.75998C16.6701 5.83877 16.6546 5.91679 16.6244 5.98959C16.5943 6.06239 16.5501 6.12853 16.4944 6.18425C16.4387 6.23996 16.3725 6.28416 16.2997 6.31431C16.2269 6.34446 16.1489 6.35998 16.0701 6.35998H14.0701V6.99998H16.0701C16.1489 6.99998 16.2269 7.0155 16.2997 7.04565C16.3725 7.07581 16.4387 7.12 16.4944 7.17572C16.5501 7.23143 16.5943 7.29758 16.6244 7.37037C16.6546 7.44317 16.6701 7.52119 16.6701 7.59998V9.68998Z" fill="#FF6961"/>
<path d="M10.8 18.7501C6.64999 18.7501 3.38999 14.8801 3.25999 14.7501C3.16852 14.6446 3.11816 14.5097 3.11816 14.3701C3.11816 14.2305 3.16852 14.0956 3.25999 13.9901C3.38999 13.8201 6.64999 9.99011 10.8 9.99011C14.95 9.99011 18.21 13.8601 18.35 13.9901C18.4377 14.0973 18.4857 14.2316 18.4857 14.3701C18.4857 14.5086 18.4377 14.6429 18.35 14.7501C18.21 14.8801 15 18.7501 10.8 18.7501ZM4.52999 14.3301C5.42999 15.2601 7.92999 17.5501 10.8 17.5501C13.67 17.5501 16.17 15.2601 17.07 14.3301C16.17 13.4001 13.67 11.1101 10.8 11.1101C7.92999 11.1101 5.42999 13.4001 4.52999 14.3301Z" fill="#1B4A52"/>
<path d="M10.8002 16.39C10.2286 16.39 9.66982 16.2205 9.19456 15.9029C8.7193 15.5854 8.34888 15.134 8.13015 14.6059C7.91141 14.0779 7.85418 13.4968 7.96569 12.9362C8.0772 12.3756 8.35245 11.8606 8.75662 11.4564C9.16079 11.0523 9.67574 10.777 10.2363 10.6655C10.797 10.554 11.378 10.6112 11.9061 10.83C12.4342 11.0487 12.8855 11.4191 13.2031 11.8944C13.5207 12.3696 13.6902 12.9284 13.6902 13.5C13.6875 14.2657 13.3822 14.9992 12.8408 15.5406C12.2994 16.082 11.5658 16.3873 10.8002 16.39ZM10.8002 11.81C10.4659 11.81 10.1392 11.9091 9.86124 12.0948C9.58332 12.2805 9.36671 12.5444 9.2388 12.8533C9.11089 13.1621 9.07742 13.5019 9.14263 13.8297C9.20784 14.1575 9.3688 14.4586 9.60515 14.695C9.8415 14.9313 10.1426 15.0923 10.4705 15.1575C10.7983 15.2227 11.1381 15.1893 11.4469 15.0613C11.7557 14.9334 12.0196 14.7168 12.2053 14.4389C12.391 14.161 12.4902 13.8342 12.4902 13.5C12.4902 13.0518 12.3121 12.6219 11.9952 12.305C11.6782 11.988 11.2484 11.81 10.8002 11.81Z" fill="#1B4A52"/>
</svg>
