<svg width="26" height="27" viewBox="0 0 26 27" fill="none" xmlns="http://www.w3.org/2000/svg">
<path d="M11.1113 18.1926C15.3739 18.1926 17.7053 14.6611 17.7053 11.5985C17.7053 11.4982 17.7053 11.3984 17.6986 11.299C18.1521 10.9709 18.5437 10.5647 18.8548 10.0994C18.4318 10.2868 17.9831 10.4097 17.5237 10.464C18.0074 10.1744 18.3696 9.71869 18.5426 9.18214C18.0877 9.45207 17.5899 9.64233 17.071 9.74468C16.6328 9.27871 16.0208 9.01416 15.3812 9.01416C14.1086 9.01416 13.0614 10.0613 13.0614 11.3339C13.0614 11.5104 13.0816 11.6864 13.1215 11.8583C11.2591 11.765 9.52141 10.8841 8.34519 9.43698C7.73354 10.4899 8.05002 11.8545 9.06269 12.5307C8.69392 12.5197 8.33308 12.4202 8.01084 12.2406V12.27C8.01115 13.369 8.79287 14.3242 9.87012 14.5418C9.52895 14.6348 9.17091 14.6484 8.82369 14.5815C9.12654 15.5232 9.99985 16.1724 10.9889 16.191C10.1684 16.8358 9.15425 17.186 8.11069 17.185C7.9263 17.1846 7.74208 17.1735 7.55901 17.1515C8.61874 17.8316 9.85214 18.1924 11.1113 18.1908" fill="#505050"/>
<circle cx="12.9577" cy="13.8733" r="12.5528" stroke="#505050" stroke-width="0.809859"/>
</svg>
