<svg width="21" height="19" viewBox="0 0 21 19" fill="none" xmlns="http://www.w3.org/2000/svg">
<path d="M19.657 4.65H14.1967C14.1014 4.65 14.0117 4.57413 14.0117 4.45C14.0117 4.32587 14.1014 4.25 14.1967 4.25H19.657C19.7524 4.25 19.842 4.32587 19.842 4.45C19.842 4.57413 19.7524 4.65 19.657 4.65Z" fill="#1B4A52" stroke="#1B4A52"/>
<path d="M5.09666 4.65H1.45647C1.36114 4.65 1.27148 4.57413 1.27148 4.45C1.27148 4.32587 1.36114 4.25 1.45647 4.25H5.09666C5.19199 4.25 5.28165 4.32587 5.28165 4.45C5.28165 4.56945 5.18681 4.65 5.09666 4.65Z" fill="#1B4A52" stroke="#1B4A52"/>
<mask id="path-3-inside-1_2283_19206" fill="white">
<path fill-rule="evenodd" clip-rule="evenodd" d="M12.5139 4.75262C12.5139 6.96753 10.7615 8.76306 8.59973 8.76306C6.43799 8.76306 4.68555 6.96753 4.68555 4.75262C4.68555 2.53772 6.43799 0.742188 8.59973 0.742188C10.7615 0.742188 12.5139 2.53772 12.5139 4.75262Z"/>
</mask>
<path fill-rule="evenodd" clip-rule="evenodd" d="M12.5139 4.75262C12.5139 6.96753 10.7615 8.76306 8.59973 8.76306C6.43799 8.76306 4.68555 6.96753 4.68555 4.75262C4.68555 2.53772 6.43799 0.742188 8.59973 0.742188C10.7615 0.742188 12.5139 2.53772 12.5139 4.75262Z" fill="#1B4A52"/>
<path d="M8.59973 9.76306C11.3365 9.76306 13.5139 7.49677 13.5139 4.75262H11.5139C11.5139 6.43828 10.1864 7.76306 8.59973 7.76306V9.76306ZM3.68555 4.75262C3.68555 7.49677 5.86294 9.76306 8.59973 9.76306V7.76306C7.01303 7.76306 5.68555 6.43828 5.68555 4.75262H3.68555ZM8.59973 -0.257812C5.86294 -0.257812 3.68555 2.00848 3.68555 4.75262H5.68555C5.68555 3.06697 7.01303 1.74219 8.59973 1.74219V-0.257812ZM13.5139 4.75262C13.5139 2.00848 11.3365 -0.257812 8.59973 -0.257812V1.74219C10.1864 1.74219 11.5139 3.06697 11.5139 4.75262H13.5139Z" fill="#1B4A52" mask="url(#path-3-inside-1_2283_19206)"/>
<path d="M1.45626 14.6764H6.91658C7.0119 14.6764 7.10156 14.6005 7.10156 14.4764C7.10156 14.3522 7.0119 14.2764 6.91658 14.2764H1.45626C1.36093 14.2764 1.27127 14.3522 1.27127 14.4764C1.27127 14.6005 1.36093 14.6764 1.45626 14.6764Z" fill="#1B4A52" stroke="#1B4A52"/>
<path d="M16.0185 14.6764H19.6588C19.7541 14.6764 19.8438 14.6005 19.8438 14.4764C19.8438 14.3522 19.7541 14.2764 19.6588 14.2764H16.0185C15.9232 14.2764 15.8336 14.3522 15.8336 14.4764C15.8336 14.5958 15.9284 14.6764 16.0185 14.6764Z" fill="#1B4A52" stroke="#1B4A52"/>
<mask id="path-7-inside-2_2283_19206" fill="white">
<path fill-rule="evenodd" clip-rule="evenodd" d="M8.99976 14.7789C8.99976 16.9938 10.7522 18.7893 12.9139 18.7893C15.0757 18.7893 16.8281 16.9938 16.8281 14.7789C16.8281 12.5641 15.0757 10.7686 12.9139 10.7686C10.7522 10.7686 8.99976 12.5641 8.99976 14.7789Z"/>
</mask>
<path fill-rule="evenodd" clip-rule="evenodd" d="M8.99976 14.7789C8.99976 16.9938 10.7522 18.7893 12.9139 18.7893C15.0757 18.7893 16.8281 16.9938 16.8281 14.7789C16.8281 12.5641 15.0757 10.7686 12.9139 10.7686C10.7522 10.7686 8.99976 12.5641 8.99976 14.7789Z" fill="#1B4A52"/>
<path d="M12.9139 19.7893C10.1772 19.7893 7.99976 17.5231 7.99976 14.7789H9.99976C9.99976 16.4645 11.3272 17.7893 12.9139 17.7893V19.7893ZM17.8281 14.7789C17.8281 17.5231 15.6507 19.7893 12.9139 19.7893V17.7893C14.5007 17.7893 15.8281 16.4645 15.8281 14.7789H17.8281ZM12.9139 9.76855C15.6507 9.76855 17.8281 12.0348 17.8281 14.7789H15.8281C15.8281 13.0933 14.5007 11.7686 12.9139 11.7686V9.76855ZM7.99976 14.7789C7.99976 12.0348 10.1772 9.76855 12.9139 9.76855V11.7686C11.3272 11.7686 9.99976 13.0933 9.99976 14.7789H7.99976Z" fill="#1B4A52" mask="url(#path-7-inside-2_2283_19206)"/>
</svg>
