<svg width="16" height="14" viewBox="0 0 16 14" fill="none" xmlns="http://www.w3.org/2000/svg">
<path d="M16 1.83379C15.3981 2.09629 14.7616 2.27075 14.11 2.35179C14.7967 1.94442 15.3101 1.29935 15.553 0.538789C14.91 0.920126 14.2065 1.18867 13.473 1.33279C13.0232 0.852568 12.4395 0.518708 11.7975 0.374584C11.1555 0.230459 10.485 0.282733 9.87318 0.524613C9.2613 0.766494 8.73632 1.1868 8.36642 1.73093C7.99653 2.27505 7.79883 2.91784 7.799 3.57579C7.799 3.83579 7.821 4.08579 7.875 4.32379C6.57008 4.25981 5.29336 3.92114 4.1283 3.32991C2.96325 2.73868 1.93609 1.90821 1.114 0.892789C0.692819 1.61465 0.562609 2.4699 0.749883 3.28439C0.937158 4.09889 1.42783 4.81138 2.122 5.27679C1.60276 5.26286 1.09447 5.1243 0.64 4.87279V4.90879C0.64087 5.66622 0.902665 6.40023 1.38132 6.98725C1.85997 7.57427 2.52625 7.97846 3.268 8.13179C2.98739 8.20574 2.69819 8.24206 2.408 8.23979C2.19959 8.24349 1.99139 8.22472 1.787 8.18379C1.99894 8.83481 2.40749 9.40413 2.95639 9.81334C3.5053 10.2226 4.16756 10.4516 4.852 10.4688C3.69094 11.3768 2.25897 11.8694 0.785 11.8678C0.516 11.8678 0.258 11.8558 0 11.8228C1.49988 12.7893 3.24768 13.3006 5.032 13.2948C11.068 13.2948 14.368 8.29479 14.368 3.96079C14.368 3.81579 14.363 3.67579 14.356 3.53679C15.003 3.07378 15.5601 2.49667 16 1.83379Z" fill="#03A9F4"/>
</svg>
