<svg width="160" height="160" viewBox="0 0 160 160" fill="none" xmlns="http://www.w3.org/2000/svg">
<path d="M23.9272 47.8523C25.5024 47.3403 26.3643 45.6482 25.8523 44.0729C25.3404 42.4977 23.6482 41.6356 22.0729 42.1477C20.4976 42.6596 19.6357 44.3517 20.1477 45.9271C20.6597 47.5024 22.3517 48.3643 23.9272 47.8523Z" fill="#EAEEF9"/>
<path d="M28.618 37.9016C29.6682 37.5602 30.2429 36.4321 29.9015 35.3819C29.5602 34.3317 28.4322 33.7572 27.382 34.0984C26.3318 34.4398 25.7571 35.5679 26.0985 36.6181C26.4398 37.6683 27.5679 38.2428 28.618 37.9016Z" fill="#EAEEF9"/>
<path d="M144.536 54.8218C146.37 53.1452 146.498 50.299 144.821 48.4644C143.146 46.6297 140.299 46.5016 138.464 48.1782C136.63 49.8548 136.502 52.701 138.179 54.5356C139.854 56.3703 142.701 56.4984 144.536 54.8218Z" fill="#EAEEF9"/>
<path d="M145.349 37.4764C146.165 36.7313 146.221 35.4662 145.477 34.6508C144.731 33.8355 143.465 33.7785 142.651 34.5236C141.836 35.2687 141.778 36.5338 142.524 37.3492C143.268 38.1645 144.534 38.2215 145.349 37.4764Z" fill="#EAEEF9"/>
<path opacity="0.1" d="M79.9999 140C110.928 140 136 114.928 136 84C136 53.0721 110.928 28 79.9999 28C49.072 28 24 53.0721 24 84C24 114.928 49.072 140 79.9999 140Z" fill="#1B4A52"/>
<path d="M49.8398 61.1745V67.3892V117.107C49.8398 119.409 51.6706 121.25 53.8446 121.25H133.942C136.23 121.25 137.946 119.409 137.946 117.107V67.3892V61.4045C137.946 58.9878 136.002 57.0312 133.598 57.0312H53.8446L49.8398 61.1745Z" fill="white"/>
<g filter="url(#filter0_d_2648_24494)">
<path d="M27.1836 55.6501V63.0158V121.71C27.1836 124.358 29.3577 126.544 31.9894 126.544H126.618C129.251 126.544 131.425 124.358 131.425 121.71V63.0158V55.8803C131.425 53.0031 129.136 50.8164 126.39 50.8164H31.9894L27.1836 55.6501Z" fill="white"/>
</g>
<path d="M100.415 60.714H27.1836V55.6501C27.1836 53.0031 29.3577 50.8164 31.9894 50.8164H126.618C129.251 50.8164 131.425 53.0031 131.425 55.6501V60.714H115.29H100.415Z" fill="#1B4A52"/>
<path d="M33.3637 57.6092C34.2484 57.6092 34.9656 56.8879 34.9656 55.9979C34.9656 55.1081 34.2484 54.3867 33.3637 54.3867C32.479 54.3867 31.7617 55.1081 31.7617 55.9979C31.7617 56.8879 32.479 57.6092 33.3637 57.6092Z" fill="white"/>
<path d="M37.9418 57.6092C38.8264 57.6092 39.5437 56.8879 39.5437 55.9979C39.5437 55.1081 38.8264 54.3867 37.9418 54.3867C37.057 54.3867 36.3398 55.1081 36.3398 55.9979C36.3398 56.8879 37.057 57.6092 37.9418 57.6092Z" fill="white"/>
<path d="M42.6332 57.6092C43.518 57.6092 44.2351 56.8879 44.2351 55.9979C44.2351 55.1081 43.518 54.3867 42.6332 54.3867C41.7484 54.3867 41.0312 55.1081 41.0312 55.9979C41.0312 56.8879 41.7484 57.6092 42.6332 57.6092Z" fill="white"/>
<path d="M115 26C116.105 26 117 25.1046 117 24C117 22.8955 116.105 22 115 22C113.895 22 113 22.8955 113 24C113 25.1046 113.895 26 115 26Z" fill="url(#paint0_linear_2648_24494)"/>
<path d="M18.0625 109.168C19.1671 109.168 20.0625 108.272 20.0625 107.168C20.0625 106.063 19.1671 105.168 18.0625 105.168C16.958 105.168 16.0625 106.063 16.0625 107.168C16.0625 108.272 16.958 109.168 18.0625 109.168Z" fill="url(#paint1_linear_2648_24494)"/>
<path fill-rule="evenodd" clip-rule="evenodd" d="M37.0992 67.5969C36.8815 67.5969 36.675 67.6401 36.4869 67.7181C36.2828 67.8027 36.0488 67.7059 35.9642 67.5019C35.8795 67.2978 35.9764 67.0638 36.1804 66.9791C36.464 66.8616 36.7745 66.7969 37.0992 66.7969H38.1021C38.323 66.7969 38.5021 66.976 38.5021 67.1969C38.5021 67.4178 38.323 67.5969 38.1021 67.5969H37.0992ZM39.7078 67.1969C39.7078 66.976 39.8869 66.7969 40.1078 66.7969H42.1135C42.3344 66.7969 42.5135 66.976 42.5135 67.1969C42.5135 67.4178 42.3344 67.5969 42.1135 67.5969H40.1078C39.8869 67.5969 39.7078 67.4178 39.7078 67.1969ZM43.7192 67.1969C43.7192 66.976 43.8983 66.7969 44.1192 66.7969H46.1249C46.3458 66.7969 46.5249 66.976 46.5249 67.1969C46.5249 67.4178 46.3458 67.5969 46.1249 67.5969H44.1192C43.8983 67.5969 43.7192 67.4178 43.7192 67.1969ZM47.7306 67.1969C47.7306 66.976 47.9097 66.7969 48.1306 66.7969H50.1364C50.3573 66.7969 50.5364 66.976 50.5364 67.1969C50.5364 67.4178 50.3573 67.5969 50.1364 67.5969H48.1306C47.9097 67.5969 47.7306 67.4178 47.7306 67.1969ZM51.7421 67.1969C51.7421 66.976 51.9212 66.7969 52.1421 66.7969H54.1478C54.3687 66.7969 54.5478 66.976 54.5478 67.1969C54.5478 67.4178 54.3687 67.5969 54.1478 67.5969H52.1421C51.9212 67.5969 51.7421 67.4178 51.7421 67.1969ZM55.7535 67.1969C55.7535 66.976 55.9326 66.7969 56.1535 66.7969H58.1592C58.3801 66.7969 58.5592 66.976 58.5592 67.1969C58.5592 67.4178 58.3801 67.5969 58.1592 67.5969H56.1535C55.9326 67.5969 55.7535 67.4178 55.7535 67.1969ZM59.7649 67.1969C59.7649 66.976 59.944 66.7969 60.1649 66.7969H62.1706C62.3916 66.7969 62.5706 66.976 62.5706 67.1969C62.5706 67.4178 62.3916 67.5969 62.1706 67.5969H60.1649C59.944 67.5969 59.7649 67.4178 59.7649 67.1969ZM63.7764 67.1969C63.7764 66.976 63.9554 66.7969 64.1764 66.7969H66.1821C66.403 66.7969 66.5821 66.976 66.5821 67.1969C66.5821 67.4178 66.403 67.5969 66.1821 67.5969H64.1764C63.9554 67.5969 63.7764 67.4178 63.7764 67.1969ZM67.7878 67.1969C67.7878 66.976 67.9669 66.7969 68.1878 66.7969H70.1935C70.4144 66.7969 70.5935 66.976 70.5935 67.1969C70.5935 67.4178 70.4144 67.5969 70.1935 67.5969H68.1878C67.9669 67.5969 67.7878 67.4178 67.7878 67.1969ZM71.7992 67.1969C71.7992 66.976 71.9783 66.7969 72.1992 66.7969H74.2049C74.4258 66.7969 74.6049 66.976 74.6049 67.1969C74.6049 67.4178 74.4258 67.5969 74.2049 67.5969H72.1992C71.9783 67.5969 71.7992 67.4178 71.7992 67.1969ZM75.8106 67.1969C75.8106 66.976 75.9897 66.7969 76.2106 66.7969H78.2164C78.4373 66.7969 78.6164 66.976 78.6164 67.1969C78.6164 67.4178 78.4373 67.5969 78.2164 67.5969H76.2106C75.9897 67.5969 75.8106 67.4178 75.8106 67.1969ZM79.8221 67.1969C79.8221 66.976 80.0012 66.7969 80.2221 66.7969H82.2278C82.4487 66.7969 82.6278 66.976 82.6278 67.1969C82.6278 67.4178 82.4487 67.5969 82.2278 67.5969H80.2221C80.0012 67.5969 79.8221 67.4178 79.8221 67.1969ZM83.8335 67.1969C83.8335 66.976 84.0126 66.7969 84.2335 66.7969H86.2392C86.4601 66.7969 86.6392 66.976 86.6392 67.1969C86.6392 67.4178 86.4601 67.5969 86.2392 67.5969H84.2335C84.0126 67.5969 83.8335 67.4178 83.8335 67.1969ZM87.8449 67.1969C87.8449 66.976 88.024 66.7969 88.2449 66.7969H90.2507C90.4716 66.7969 90.6507 66.976 90.6507 67.1969C90.6507 67.4178 90.4716 67.5969 90.2507 67.5969H88.2449C88.024 67.5969 87.8449 67.4178 87.8449 67.1969ZM91.8564 67.1969C91.8564 66.976 92.0354 66.7969 92.2564 66.7969H94.2621C94.483 66.7969 94.6621 66.976 94.6621 67.1969C94.6621 67.4178 94.483 67.5969 94.2621 67.5969H92.2564C92.0354 67.5969 91.8564 67.4178 91.8564 67.1969ZM95.8678 67.1969C95.8678 66.976 96.0469 66.7969 96.2678 66.7969H98.2735C98.4944 66.7969 98.6735 66.976 98.6735 67.1969C98.6735 67.4178 98.4944 67.5969 98.2735 67.5969H96.2678C96.0469 67.5969 95.8678 67.4178 95.8678 67.1969ZM99.8792 67.1969C99.8792 66.976 100.058 66.7969 100.279 66.7969H102.285C102.506 66.7969 102.685 66.976 102.685 67.1969C102.685 67.4178 102.506 67.5969 102.285 67.5969H100.279C100.058 67.5969 99.8792 67.4178 99.8792 67.1969ZM103.891 67.1969C103.891 66.976 104.07 66.7969 104.291 66.7969H106.296C106.517 66.7969 106.696 66.976 106.696 67.1969C106.696 67.4178 106.517 67.5969 106.296 67.5969H104.291C104.07 67.5969 103.891 67.4178 103.891 67.1969ZM107.902 67.1969C107.902 66.976 108.081 66.7969 108.302 66.7969H110.308C110.529 66.7969 110.708 66.976 110.708 67.1969C110.708 67.4178 110.529 67.5969 110.308 67.5969H108.302C108.081 67.5969 107.902 67.4178 107.902 67.1969ZM111.914 67.1969C111.914 66.976 112.093 66.7969 112.314 66.7969H114.319C114.54 66.7969 114.719 66.976 114.719 67.1969C114.719 67.4178 114.54 67.5969 114.319 67.5969H112.314C112.093 67.5969 111.914 67.4178 111.914 67.1969ZM115.925 67.1969C115.925 66.976 116.104 66.7969 116.325 66.7969H118.331C118.552 66.7969 118.731 66.976 118.731 67.1969C118.731 67.4178 118.552 67.5969 118.331 67.5969H116.325C116.104 67.5969 115.925 67.4178 115.925 67.1969ZM119.936 67.1969C119.936 66.976 120.115 66.7969 120.336 66.7969H121.339C121.664 66.7969 121.974 66.8616 122.258 66.9791C122.462 67.0638 122.559 67.2978 122.474 67.5019C122.39 67.7059 122.156 67.8027 121.952 67.7181C121.763 67.6401 121.557 67.5969 121.339 67.5969H120.336C120.115 67.5969 119.936 67.4178 119.936 67.1969ZM35.4042 68.0618C35.6083 68.1464 35.7051 68.3805 35.6205 68.5845C35.5425 68.7726 35.4992 68.9792 35.4992 69.1969V70.1242C35.4992 70.3451 35.3201 70.5242 35.0992 70.5242C34.8783 70.5242 34.6992 70.3451 34.6992 70.1242V69.1969C34.6992 68.8722 34.7639 68.5616 34.8815 68.2781C34.9661 68.074 35.2001 67.9772 35.4042 68.0618ZM123.034 68.0618C123.238 67.9772 123.472 68.074 123.557 68.2781C123.675 68.5616 123.739 68.8722 123.739 69.1969V70.1242C123.739 70.3451 123.56 70.5242 123.339 70.5242C123.118 70.5242 122.939 70.3451 122.939 70.1242V69.1969C122.939 68.9792 122.896 68.7726 122.818 68.5845C122.733 68.3805 122.83 68.1464 123.034 68.0618ZM123.339 71.5788C123.56 71.5788 123.739 71.7578 123.739 71.9788V73.8333C123.739 74.0543 123.56 74.2333 123.339 74.2333C123.118 74.2333 122.939 74.0543 122.939 73.8333V71.9788C122.939 71.7578 123.118 71.5788 123.339 71.5788ZM35.0992 71.5788C35.3201 71.5788 35.4992 71.7578 35.4992 71.9788V73.8334C35.4992 74.0543 35.3201 74.2334 35.0992 74.2334C34.8783 74.2334 34.6992 74.0543 34.6992 73.8334V71.9788C34.6992 71.7578 34.8783 71.5788 35.0992 71.5788ZM35.0992 75.2879C35.3201 75.2879 35.4992 75.467 35.4992 75.6879V77.5425C35.4992 77.7634 35.3201 77.9425 35.0992 77.9425C34.8783 77.9425 34.6992 77.7634 34.6992 77.5425V75.6879C34.6992 75.467 34.8783 75.2879 35.0992 75.2879ZM123.339 75.2879C123.56 75.2879 123.739 75.467 123.739 75.6879V77.5425C123.739 77.7634 123.56 77.9425 123.339 77.9425C123.118 77.9425 122.939 77.7634 122.939 77.5425V75.6879C122.939 75.467 123.118 75.2879 123.339 75.2879ZM35.0992 78.9971C35.3201 78.9971 35.4992 79.1762 35.4992 79.3971V81.2517C35.4992 81.4726 35.3201 81.6517 35.0992 81.6517C34.8783 81.6517 34.6992 81.4726 34.6992 81.2517V79.3971C34.6992 79.1762 34.8783 78.9971 35.0992 78.9971ZM123.339 78.9971C123.56 78.9971 123.739 79.1762 123.739 79.3971V81.2517C123.739 81.4726 123.56 81.6517 123.339 81.6517C123.118 81.6517 122.939 81.4726 122.939 81.2517V79.3971C122.939 79.1762 123.118 78.9971 123.339 78.9971ZM123.339 82.7063C123.56 82.7063 123.739 82.8854 123.739 83.1063V84.9609C123.739 85.1818 123.56 85.3609 123.339 85.3609C123.118 85.3609 122.939 85.1818 122.939 84.9609V83.1063C122.939 82.8854 123.118 82.7063 123.339 82.7063ZM35.0992 82.7063C35.3201 82.7063 35.4992 82.8854 35.4992 83.1063V84.9609C35.4992 85.1818 35.3201 85.3609 35.0992 85.3609C34.8783 85.3609 34.6992 85.1818 34.6992 84.9609V83.1063C34.6992 82.8854 34.8783 82.7063 35.0992 82.7063ZM35.0992 86.4155C35.3201 86.4155 35.4992 86.5946 35.4992 86.8155V87.7428C35.4992 87.9605 35.5425 88.167 35.6205 88.3551C35.7051 88.5592 35.6083 88.7932 35.4042 88.8778C35.2001 88.9625 34.9661 88.8656 34.8815 88.6616C34.7639 88.378 34.6992 88.0675 34.6992 87.7428V86.8155C34.6992 86.5946 34.8783 86.4155 35.0992 86.4155ZM123.339 86.4155C123.56 86.4155 123.739 86.5946 123.739 86.8155V87.7428C123.739 88.0675 123.675 88.378 123.557 88.6616C123.472 88.8656 123.238 88.9625 123.034 88.8778C122.83 88.7932 122.733 88.5592 122.818 88.3551C122.896 88.167 122.939 87.9605 122.939 87.7428V86.8155C122.939 86.5946 123.118 86.4155 123.339 86.4155ZM35.9642 89.4378C36.0488 89.2337 36.2828 89.1369 36.4869 89.2215C36.675 89.2995 36.8815 89.3428 37.0992 89.3428H38.1021C38.323 89.3428 38.5021 89.5219 38.5021 89.7428C38.5021 89.9637 38.323 90.1428 38.1021 90.1428H37.0992C36.7745 90.1428 36.464 90.0781 36.1804 89.9605C35.9764 89.8759 35.8795 89.6419 35.9642 89.4378ZM122.474 89.4378C122.559 89.6419 122.462 89.8759 122.258 89.9605C121.974 90.0781 121.664 90.1428 121.339 90.1428H120.336C120.115 90.1428 119.936 89.9637 119.936 89.7428C119.936 89.5219 120.115 89.3428 120.336 89.3428H121.339C121.557 89.3428 121.763 89.2995 121.952 89.2215C122.156 89.1369 122.39 89.2337 122.474 89.4378ZM39.7078 89.7428C39.7078 89.5219 39.8869 89.3428 40.1078 89.3428H42.1135C42.3344 89.3428 42.5135 89.5219 42.5135 89.7428C42.5135 89.9637 42.3344 90.1428 42.1135 90.1428H40.1078C39.8869 90.1428 39.7078 89.9637 39.7078 89.7428ZM43.7192 89.7428C43.7192 89.5219 43.8983 89.3428 44.1192 89.3428H46.1249C46.3458 89.3428 46.5249 89.5219 46.5249 89.7428C46.5249 89.9637 46.3458 90.1428 46.1249 90.1428H44.1192C43.8983 90.1428 43.7192 89.9637 43.7192 89.7428ZM47.7306 89.7428C47.7306 89.5219 47.9097 89.3428 48.1306 89.3428H50.1364C50.3573 89.3428 50.5364 89.5219 50.5364 89.7428C50.5364 89.9637 50.3573 90.1428 50.1364 90.1428H48.1306C47.9097 90.1428 47.7306 89.9637 47.7306 89.7428ZM51.7421 89.7428C51.7421 89.5219 51.9212 89.3428 52.1421 89.3428H54.1478C54.3687 89.3428 54.5478 89.5219 54.5478 89.7428C54.5478 89.9637 54.3687 90.1428 54.1478 90.1428H52.1421C51.9212 90.1428 51.7421 89.9637 51.7421 89.7428ZM55.7535 89.7428C55.7535 89.5219 55.9326 89.3428 56.1535 89.3428H58.1592C58.3801 89.3428 58.5592 89.5219 58.5592 89.7428C58.5592 89.9637 58.3801 90.1428 58.1592 90.1428H56.1535C55.9326 90.1428 55.7535 89.9637 55.7535 89.7428ZM59.7649 89.7428C59.7649 89.5219 59.944 89.3428 60.1649 89.3428H62.1706C62.3916 89.3428 62.5706 89.5219 62.5706 89.7428C62.5706 89.9637 62.3916 90.1428 62.1706 90.1428H60.1649C59.944 90.1428 59.7649 89.9637 59.7649 89.7428ZM63.7764 89.7428C63.7764 89.5219 63.9554 89.3428 64.1764 89.3428H66.1821C66.403 89.3428 66.5821 89.5219 66.5821 89.7428C66.5821 89.9637 66.403 90.1428 66.1821 90.1428H64.1764C63.9554 90.1428 63.7764 89.9637 63.7764 89.7428ZM67.7878 89.7428C67.7878 89.5219 67.9669 89.3428 68.1878 89.3428H70.1935C70.4144 89.3428 70.5935 89.5219 70.5935 89.7428C70.5935 89.9637 70.4144 90.1428 70.1935 90.1428H68.1878C67.9669 90.1428 67.7878 89.9637 67.7878 89.7428ZM71.7992 89.7428C71.7992 89.5219 71.9783 89.3428 72.1992 89.3428H74.2049C74.4258 89.3428 74.6049 89.5219 74.6049 89.7428C74.6049 89.9637 74.4258 90.1428 74.2049 90.1428H72.1992C71.9783 90.1428 71.7992 89.9637 71.7992 89.7428ZM75.8106 89.7428C75.8106 89.5219 75.9897 89.3428 76.2106 89.3428H78.2164C78.4373 89.3428 78.6164 89.5219 78.6164 89.7428C78.6164 89.9637 78.4373 90.1428 78.2164 90.1428H76.2106C75.9897 90.1428 75.8106 89.9637 75.8106 89.7428ZM79.8221 89.7428C79.8221 89.5219 80.0012 89.3428 80.2221 89.3428H82.2278C82.4487 89.3428 82.6278 89.5219 82.6278 89.7428C82.6278 89.9637 82.4487 90.1428 82.2278 90.1428H80.2221C80.0012 90.1428 79.8221 89.9637 79.8221 89.7428ZM83.8335 89.7428C83.8335 89.5219 84.0126 89.3428 84.2335 89.3428H86.2392C86.4601 89.3428 86.6392 89.5219 86.6392 89.7428C86.6392 89.9637 86.4601 90.1428 86.2392 90.1428H84.2335C84.0126 90.1428 83.8335 89.9637 83.8335 89.7428ZM87.8449 89.7428C87.8449 89.5219 88.024 89.3428 88.2449 89.3428H90.2506C90.4716 89.3428 90.6506 89.5219 90.6506 89.7428C90.6506 89.9637 90.4716 90.1428 90.2506 90.1428H88.2449C88.024 90.1428 87.8449 89.9637 87.8449 89.7428ZM91.8564 89.7428C91.8564 89.5219 92.0354 89.3428 92.2564 89.3428H94.2621C94.483 89.3428 94.6621 89.5219 94.6621 89.7428C94.6621 89.9637 94.483 90.1428 94.2621 90.1428H92.2564C92.0354 90.1428 91.8564 89.9637 91.8564 89.7428ZM95.8678 89.7428C95.8678 89.5219 96.0469 89.3428 96.2678 89.3428H98.2735C98.4944 89.3428 98.6735 89.5219 98.6735 89.7428C98.6735 89.9637 98.4944 90.1428 98.2735 90.1428H96.2678C96.0469 90.1428 95.8678 89.9637 95.8678 89.7428ZM99.8792 89.7428C99.8792 89.5219 100.058 89.3428 100.279 89.3428H102.285C102.506 89.3428 102.685 89.5219 102.685 89.7428C102.685 89.9637 102.506 90.1428 102.285 90.1428H100.279C100.058 90.1428 99.8792 89.9637 99.8792 89.7428ZM103.891 89.7428C103.891 89.5219 104.07 89.3428 104.291 89.3428H106.296C106.517 89.3428 106.696 89.5219 106.696 89.7428C106.696 89.9637 106.517 90.1428 106.296 90.1428H104.291C104.07 90.1428 103.891 89.9637 103.891 89.7428ZM107.902 89.7428C107.902 89.5219 108.081 89.3428 108.302 89.3428H110.308C110.529 89.3428 110.708 89.5219 110.708 89.7428C110.708 89.9637 110.529 90.1428 110.308 90.1428H108.302C108.081 90.1428 107.902 89.9637 107.902 89.7428ZM111.914 89.7428C111.914 89.5219 112.093 89.3428 112.314 89.3428H114.319C114.54 89.3428 114.719 89.5219 114.719 89.7428C114.719 89.9637 114.54 90.1428 114.319 90.1428H112.314C112.093 90.1428 111.914 89.9637 111.914 89.7428ZM115.925 89.7428C115.925 89.5219 116.104 89.3428 116.325 89.3428H118.331C118.552 89.3428 118.731 89.5219 118.731 89.7428C118.731 89.9637 118.552 90.1428 118.331 90.1428H116.325C116.104 90.1428 115.925 89.9637 115.925 89.7428Z" fill="#CED7E2"/>
<path d="M34.9648 98.2227C34.9648 97.1181 35.8603 96.2227 36.9648 96.2227H121.205C122.309 96.2227 123.205 97.1181 123.205 98.2227V116.769C123.205 117.873 122.309 118.769 121.205 118.769H36.9648C35.8603 118.769 34.9648 117.873 34.9648 116.769V98.2227Z" fill="#E3EAF2"/>
<g filter="url(#filter1_d_2648_24494)">
<path d="M56.0732 99.9898H19.7578C18.6723 99.9898 17.8828 99.1025 17.8828 98.1166V75.342C17.8828 74.2575 18.771 73.4688 19.7578 73.4688H56.0732C57.1592 73.4688 57.9482 74.3561 57.9482 75.342V98.1166C57.9482 99.2011 57.0602 99.9898 56.0732 99.9898Z" fill="#00B5D5"/>
</g>
<path d="M37.9171 85.5962C40.1516 85.5962 41.9636 83.7865 41.9636 81.554C41.9636 79.3215 40.1516 77.5117 37.9171 77.5117C35.6826 77.5117 33.8711 79.3215 33.8711 81.554C33.8711 83.7865 35.6826 85.5962 37.9171 85.5962Z" fill="white"/>
<path d="M50.6466 90.3294H25.2846C24.8898 90.3294 24.5938 90.0337 24.5938 89.6393C24.5938 89.2449 24.8898 88.9492 25.2846 88.9492H50.5476C50.9426 88.9492 51.2385 89.2449 51.2385 89.6393C51.3375 90.0337 51.0416 90.3294 50.6466 90.3294Z" fill="white"/>
<path d="M50.6466 95.6537H25.2846C24.8898 95.6537 24.5938 95.3579 24.5938 94.9636C24.5938 94.5692 24.8898 94.2734 25.2846 94.2734H50.5476C50.9426 94.2734 51.2385 94.5692 51.2385 94.9636C51.3375 95.3579 51.0416 95.6537 50.6466 95.6537Z" fill="white"/>
<defs>
<filter id="filter0_d_2648_24494" x="25.1836" y="50.8164" width="112.242" height="83.7275" filterUnits="userSpaceOnUse" color-interpolation-filters="sRGB">
<feFlood flood-opacity="0" result="BackgroundImageFix"/>
<feColorMatrix in="SourceAlpha" type="matrix" values="0 0 0 0 0 0 0 0 0 0 0 0 0 0 0 0 0 0 127 0" result="hardAlpha"/>
<feOffset dx="2" dy="4"/>
<feGaussianBlur stdDeviation="2"/>
<feComposite in2="hardAlpha" operator="out"/>
<feColorMatrix type="matrix" values="0 0 0 0 0.0666667 0 0 0 0 0.0941176 0 0 0 0 0.152941 0 0 0 0.08 0"/>
<feBlend mode="normal" in2="BackgroundImageFix" result="effect1_dropShadow_2648_24494"/>
<feBlend mode="normal" in="SourceGraphic" in2="effect1_dropShadow_2648_24494" result="shape"/>
</filter>
<filter id="filter1_d_2648_24494" x="9.88281" y="70.4688" width="56.0664" height="42.5215" filterUnits="userSpaceOnUse" color-interpolation-filters="sRGB">
<feFlood flood-opacity="0" result="BackgroundImageFix"/>
<feColorMatrix in="SourceAlpha" type="matrix" values="0 0 0 0 0 0 0 0 0 0 0 0 0 0 0 0 0 0 127 0" result="hardAlpha"/>
<feOffset dy="5"/>
<feGaussianBlur stdDeviation="4"/>
<feColorMatrix type="matrix" values="0 0 0 0 0.1125 0 0 0 0 0.295916 0 0 0 0 1 0 0 0 0.22 0"/>
<feBlend mode="normal" in2="BackgroundImageFix" result="effect1_dropShadow_2648_24494"/>
<feBlend mode="normal" in="SourceGraphic" in2="effect1_dropShadow_2648_24494" result="shape"/>
</filter>
<linearGradient id="paint0_linear_2648_24494" x1="113.101" y1="23.9714" x2="116.982" y2="23.9714" gradientUnits="userSpaceOnUse">
<stop stop-color="#FF66A9"/>
<stop offset="1" stop-color="#F53689"/>
</linearGradient>
<linearGradient id="paint1_linear_2648_24494" x1="16.1618" y1="107.157" x2="20.0421" y2="107.157" gradientUnits="userSpaceOnUse">
<stop stop-color="#FF66A9"/>
<stop offset="1" stop-color="#F53689"/>
</linearGradient>
</defs>
</svg>
