<svg width="25" height="26" viewBox="0 0 25 26" fill="none" xmlns="http://www.w3.org/2000/svg">
<path d="M8.76912 0.980482C7.60727 0.943857 6.44428 0.969172 5.28513 1.05632C4.08601 1.26701 2.97243 1.81594 2.07609 2.6382C1.17975 3.46046 0.538136 4.52166 0.227125 5.6963C0.00212479 6.55744 -0.0128746 7.06235 0.012125 13.7459C0.0271254 19.8837 0.0331249 20.0263 0.134125 20.5043C0.385808 21.7264 0.990399 22.8483 1.87336 23.7317C2.75632 24.615 3.87905 25.2212 5.10313 25.4756C6.27646 25.604 7.45812 25.6401 8.63713 25.5833C11.4971 25.6033 11.7941 25.5983 11.8711 25.5215C11.9481 25.4446 11.9531 24.4618 11.9531 13.3069C11.9531 5.03772 11.9381 1.14213 11.9021 1.07129C11.8661 1.00044 11.7911 0.978489 9.99713 0.978489L8.76912 0.980482Z" fill="white"/>
<path d="M5.72307 6.07846C5.33002 6.17498 4.96347 6.35769 4.65007 6.61331C4.38206 6.8472 4.1731 7.14086 4.04018 7.47045C3.90726 7.80005 3.85412 8.15628 3.88507 8.51021C3.87701 8.80275 3.94928 9.09191 4.09407 9.34641C4.32369 9.82737 4.71207 10.2149 5.19407 10.444C5.46004 10.5932 5.76355 10.6625 6.06807 10.6436C6.34348 10.6759 6.62264 10.6462 6.88507 10.5568C7.41191 10.3927 7.8623 10.0455 8.15442 9.57819C8.44654 9.11093 8.56102 8.55461 8.47707 8.01029C8.42758 7.70101 8.31642 7.40478 8.15017 7.13912C7.98392 6.87346 7.76596 6.64378 7.50918 6.46366C7.2524 6.28354 6.96203 6.15665 6.65524 6.09048C6.34844 6.02432 6.03147 6.02023 5.72307 6.07846Z" fill="white"/>
<path d="M14.4388 1.01094C14.4178 1.02591 14.4028 6.55297 14.4028 13.2914C14.4028 24.4104 14.4078 25.538 14.4848 25.5679C14.6228 25.6198 18.5868 25.5978 19.0778 25.5479C20.107 25.4268 21.0911 25.0571 21.9449 24.471C22.7987 23.8849 23.4965 23.1 23.9778 22.1842C24.1243 21.8949 24.2522 21.5966 24.3608 21.2911C24.6828 20.3332 24.6718 20.5926 24.6718 13.2615C24.6718 7.41411 24.6618 6.54199 24.5898 6.17079C24.3575 4.8869 23.7332 3.70604 22.8023 2.78987C21.8714 1.8737 20.6796 1.26701 19.3898 1.05285C18.4969 0.966454 17.5992 0.940783 16.7028 0.976013C15.4758 0.975016 14.4538 0.989983 14.4388 1.01094Z" fill="white"/>
</svg>
