<svg width="53" height="53" viewBox="0 0 53 53" fill="none" xmlns="http://www.w3.org/2000/svg">
<g clip-path="url(#clip0_1360_11081)">
<path d="M19.41 15.72C23.3368 15.72 26.52 12.5367 26.52 8.61C26.52 4.68326 23.3368 1.5 19.41 1.5C15.4833 1.5 12.3 4.68326 12.3 8.61C12.3 12.5367 15.4833 15.72 19.41 15.72Z" stroke="#1B4A52" stroke-width="3" stroke-linecap="round" stroke-linejoin="round"/>
<path d="M40.0001 35.8302C42.8554 35.8302 45.1701 33.5155 45.1701 30.6602C45.1701 27.8049 42.8554 25.4902 40.0001 25.4902C37.1448 25.4902 34.8301 27.8049 34.8301 30.6602C34.8301 33.5155 37.1448 35.8302 40.0001 35.8302Z" stroke="#E2504B" stroke-width="3" stroke-linecap="round" stroke-linejoin="round"/>
<path d="M30.49 51.24C29.9476 51.2405 29.4132 51.1089 28.9331 50.8566C28.453 50.6042 28.0415 50.2387 27.7343 49.7917C27.4271 49.3447 27.2334 48.8296 27.1699 48.2909C27.1064 47.7522 27.1751 47.2062 27.37 46.7C28.2822 44.3674 29.8767 42.3641 31.9453 40.9519C34.0139 39.5396 36.4603 38.7842 38.965 38.7842C41.4697 38.7842 43.9161 39.5396 45.9847 40.9519C48.0533 42.3641 49.6478 44.3674 50.56 46.7C50.7549 47.2062 50.8236 47.7522 50.7601 48.2909C50.6966 48.8296 50.5029 49.3447 50.1957 49.7917C49.8885 50.2387 49.477 50.6042 48.9969 50.8566C48.5168 51.1089 47.9824 51.2405 47.44 51.24H30.49Z" stroke="#E2504B" stroke-width="3" stroke-linecap="round" stroke-linejoin="round"/>
<path d="M28.95 37.6704H5.3C4.71756 37.6702 4.14298 37.5361 3.62062 37.2784C3.09825 37.0208 2.6421 36.6465 2.2874 36.1846C1.9327 35.7226 1.68892 35.1852 1.57493 34.6141C1.46095 34.0429 1.47981 33.4531 1.63002 32.8904C2.46782 29.7766 4.10877 26.9374 6.38866 24.6571C8.66854 22.3768 11.5074 20.7353 14.621 19.8969C17.7347 19.0584 21.014 19.0526 24.1306 19.8798C27.2472 20.707 30.092 22.3383 32.38 24.6104" stroke="#1B4A52" stroke-width="3" stroke-linecap="round" stroke-linejoin="round"/>
</g>
<defs>
<clipPath id="clip0_1360_11081">
<rect width="52.3" height="52.74" fill="white"/>
</clipPath>
</defs>
</svg>
