<svg width="55" height="50" viewBox="0 0 55 50" fill="none" xmlns="http://www.w3.org/2000/svg">
<g clip-path="url(#clip0_1360_11011)">
<path d="M37.15 48.1502H8.18L1.5 24.2002H30.48L37.15 48.1502Z" stroke="#1B4A52" stroke-width="3" stroke-linecap="round" stroke-linejoin="round"/>
<path d="M35.78 43.2305H51.59L52.96 48.1505H37.15" stroke="#1B4A52" stroke-width="3" stroke-linecap="round" stroke-linejoin="round"/>
<path d="M20.7258 37.6273C21.8789 36.4763 21.754 34.4817 20.4468 33.1723C19.1397 31.8629 17.1454 31.7345 15.9923 32.8856C14.8393 34.0366 14.9642 36.0312 16.2713 37.3406C17.5784 38.65 19.5728 38.7784 20.7258 37.6273Z" stroke="#1B4A52" stroke-width="3" stroke-linecap="round" stroke-linejoin="round"/>
<path d="M7.6001 20.11V14.35L26.2301 1.5L44.8501 14.35V39.22" stroke="#E2504B" stroke-width="3" stroke-linecap="round" stroke-linejoin="round"/>
<path d="M7.60007 14.3496L3.82007 16.8396" stroke="#E2504B" stroke-width="3" stroke-linecap="round" stroke-linejoin="round"/>
<path d="M44.8501 14.3496L48.7201 17.0996" stroke="#E2504B" stroke-width="3" stroke-linecap="round" stroke-linejoin="round"/>
</g>
<defs>
<clipPath id="clip0_1360_11011">
<rect width="54.46" height="49.65" fill="white"/>
</clipPath>
</defs>
</svg>
