<svg width="49" height="54" viewBox="0 0 49 54" fill="none" xmlns="http://www.w3.org/2000/svg">
<g clip-path="url(#clip0_1360_11053)">
<path d="M1.5 24.9004L14.2 16.4004" stroke="#1B4A52" stroke-width="3" stroke-linecap="round" stroke-linejoin="round"/>
<path d="M46.51 24.8998L41 18.5898" stroke="#1B4A52" stroke-width="3" stroke-linecap="round" stroke-linejoin="round"/>
<path d="M10.98 28.1998L19.28 6.08984L37.02 12.7398L28.96 34.2298" stroke="#E2504B" stroke-width="3" stroke-linecap="round" stroke-linejoin="round"/>
<path d="M25.3301 7.75L30.6801 1.5L45.0701 13.83L30.1001 31.3" stroke="#E2504B" stroke-width="3" stroke-linecap="round" stroke-linejoin="round"/>
<path d="M46.51 51.7304H1.5V24.9004L24 38.3104L46.51 24.9004V51.7304Z" stroke="#1B4A52" stroke-width="3" stroke-linecap="round" stroke-linejoin="round"/>
<path d="M20.48 16.91L22.08 12.71L30.18 15.8L28.41 20.09" stroke="#E2504B" stroke-width="3" stroke-linecap="round" stroke-linejoin="round"/>
<path d="M21.4199 30.8404C23.7616 30.8404 25.6599 28.942 25.6599 26.6004C25.6599 24.2587 23.7616 22.3604 21.4199 22.3604C19.0782 22.3604 17.1799 24.2587 17.1799 26.6004C17.1799 28.942 19.0782 30.8404 21.4199 30.8404Z" stroke="#E2504B" stroke-width="3" stroke-linecap="round" stroke-linejoin="round"/>
<path d="M1.5 51.7298L18.11 34.7998" stroke="#1B4A52" stroke-width="3" stroke-linecap="round" stroke-linejoin="round"/>
<path d="M46.51 51.7301L31.53 33.8301" stroke="#1B4A52" stroke-width="3" stroke-linecap="round" stroke-linejoin="round"/>
</g>
<defs>
<clipPath id="clip0_1360_11053">
<rect width="48.01" height="53.23" fill="white"/>
</clipPath>
</defs>
</svg>
