<svg width="91" height="93" viewBox="0 0 91 93" fill="none" xmlns="http://www.w3.org/2000/svg">
<path d="M0.899567 46.3151C0.949872 21.2632 21.2919 0.901465 46.2935 0.901465C63.8751 0.901465 79.74 11.0067 87.2606 26.8044C87.4429 27.1826 87.0594 27.5798 86.6758 27.4159L84.6762 26.5585C84.4498 26.464 84.1857 26.5648 84.0851 26.7981C83.9908 27.025 84.0914 27.2898 84.324 27.3907L88.4239 29.1495C88.6628 29.2503 88.9395 29.1305 89.0275 28.8847L90.4801 24.661C90.5618 24.4278 90.4361 24.1693 90.2034 24.0874C89.9708 24.0054 89.7129 24.1315 89.6312 24.3648L88.9269 26.4198C88.7949 26.7981 88.273 26.8296 88.0969 26.4703C80.4254 10.3259 64.2335 0 46.2935 0C20.8015 0 0.0569593 20.7715 0.000366211 46.3151H0.899567Z" fill="black"/>
<path d="M89.0209 63.7579C88.9328 63.5121 88.6562 63.386 88.4172 63.4932L84.3174 65.252C84.091 65.3465 83.9841 65.6113 84.0784 65.8445C84.179 66.0715 84.4431 66.1786 84.6695 66.0841L86.6691 65.2268C87.0527 65.0628 87.43 65.46 87.2539 65.8382C79.7333 81.6359 63.8621 91.7412 46.2868 91.7412C21.2853 91.7412 0.943217 71.3794 0.892913 46.3275H0V46.3338C0.0565931 71.8774 20.8011 92.6426 46.2931 92.6426C64.2394 92.6426 80.4313 82.3167 88.0902 66.1849C88.26 65.8256 88.7882 65.8571 88.9203 66.2354L89.6245 68.2905C89.7063 68.5237 89.9641 68.6498 90.1967 68.5678C90.4294 68.4859 90.5552 68.2274 90.4734 67.9942L89.0209 63.7579Z" fill="black"/>
<g clip-path="url(#clip0)">
<path d="M30.3649 44.6965C29.944 43.6376 29.0302 42.8944 27.9317 42.6908L27.5107 29.0383C27.4697 27.501 26.2274 26.2997 24.6771 26.2997C23.291 26.2997 22.1206 27.277 21.8845 28.6311L18.2192 49.3796C17.9214 51.2529 18.4348 53.1771 19.6257 54.6533L28.6196 65.8828V69.6191C28.6196 69.9551 28.8968 70.23 29.2356 70.23C29.5744 70.23 29.8516 69.9551 29.8516 69.6191V65.6792C29.8516 65.5366 29.8003 65.4043 29.7181 65.3025L20.5908 53.8999C19.6155 52.6884 19.1945 51.1104 19.4409 49.5833L23.096 28.8347C23.2294 28.0711 23.8968 27.5112 24.6771 27.5112C25.56 27.5112 26.2582 28.1933 26.289 29.0689L26.7202 42.6908C26.0426 42.8232 25.4163 43.1693 24.944 43.6784C24.328 44.3503 24.0303 45.2462 24.1124 46.1421C24.4101 49.3287 25.4676 53.8287 28.8044 57.1476C29.0405 57.3818 29.4307 57.3818 29.6771 57.1476C29.9132 56.9135 29.9132 56.5266 29.6771 56.2822C26.597 53.228 25.6114 49.0233 25.3342 46.0301C25.2828 45.46 25.4676 44.9102 25.8578 44.4928C26.2479 44.0652 26.7818 43.8413 27.3567 43.8413C28.1884 43.8413 28.9276 44.3503 29.2356 45.1342C31.0836 49.8174 35.2007 55.6918 37.4902 58.7765C38.3013 59.8761 38.8352 63.0321 37.4183 64.4575C37.3054 64.5694 37.2438 64.7222 37.2438 64.8851V69.6191C37.2438 69.9551 37.521 70.23 37.8598 70.23C38.1986 70.23 38.4758 69.9551 38.4758 69.6191V65.1192C40.1185 63.2052 39.6565 59.6317 38.4861 58.0537C36.2171 55.0198 32.1719 49.2473 30.3649 44.6965Z" fill="#010101"/>
<path d="M72.285 49.3695L68.6197 28.6311C68.3835 27.277 67.2131 26.2997 65.8271 26.2997C64.2768 26.2997 63.0345 27.501 62.9934 29.0383L62.5622 42.6908C61.4739 42.8944 60.5499 43.6376 60.1289 44.6964C58.3322 49.2473 54.2768 55.03 52.0283 58.0639C50.8579 59.6419 50.3959 63.2052 52.0386 65.1294V69.6293C52.0386 69.9653 52.3158 70.2402 52.6546 70.2402C52.9934 70.2402 53.2706 69.9653 53.2706 69.6293V64.8952C53.2706 64.7323 53.209 64.5796 53.0961 64.4676C51.6792 63.0423 52.2131 59.8862 53.0242 58.7867C55.3137 55.7019 59.4308 49.8276 61.2788 45.1444C61.5868 44.3605 62.3158 43.8616 63.1474 43.8616C63.1782 43.8616 63.2193 43.8616 63.2501 43.8616C63.7942 43.882 64.2973 44.1161 64.6669 44.5132C65.057 44.9306 65.2418 45.4804 65.1905 46.0505C64.9133 49.0437 63.9379 53.2483 60.8476 56.3026C60.6115 56.5368 60.6115 56.9236 60.8476 57.168C61.0837 57.4021 61.4739 57.4123 61.7203 57.168C65.0673 53.849 66.1145 49.3593 66.4123 46.1625C66.4944 45.2564 66.1864 44.3605 65.5807 43.6987C65.1084 43.1897 64.4821 42.8435 63.8045 42.7112L64.2357 29.0791C64.2562 28.2137 64.9646 27.5214 65.8476 27.5214C66.6279 27.5214 67.2952 28.0813 67.4287 28.8449L71.0837 49.5731C71.3301 51.1104 70.9092 52.6884 69.9338 53.8999L60.8065 65.3025C60.7244 65.4144 60.6731 65.5468 60.6731 65.6791V69.6191C60.6731 69.9551 60.9503 70.23 61.2891 70.23C61.6279 70.23 61.9051 69.9551 61.9051 69.6191V65.8828L70.8989 54.6533C72.0694 53.1771 72.5724 51.2529 72.285 49.3695Z" fill="#010101"/>
<path d="M52.4594 43.0573V46.6918C52.4594 47.0278 52.7366 47.3027 53.0754 47.3027C53.4142 47.3027 53.6914 47.0278 53.6914 46.6918V43.0573C53.6914 40.115 51.2787 37.7225 48.3115 37.7225H48.2089C49.0508 36.9488 49.5949 35.8594 49.6565 34.6479C49.6565 34.6174 49.6668 34.597 49.6668 34.5665V34.4137V32.4387V32.2452C49.6668 30.9217 50.7551 29.8426 52.0898 29.8426H56.5354C57.8701 29.8426 58.9583 30.9217 58.9583 32.2452V34.5665C58.9583 34.9024 59.2356 35.1773 59.5744 35.1773C59.9132 35.1773 60.1904 34.9024 60.1904 34.5665V32.2452C60.1904 30.3821 58.7735 28.855 56.9563 28.6514C57.3772 28.122 57.6236 27.4602 57.6236 26.7476V25.4852C57.6031 23.7748 56.1965 22.38 54.482 22.38C52.7571 22.38 51.3506 23.7748 51.3506 25.4852V26.7476C51.3506 27.4602 51.597 28.1118 51.9974 28.631C50.7756 28.6616 49.7079 29.2826 49.061 30.2192C48.2807 28.855 46.792 27.9286 45.098 27.9286C43.404 27.9286 41.9152 28.855 41.135 30.2192C40.5497 29.3742 39.6155 28.7837 38.5272 28.6616C38.9481 28.1322 39.1945 27.4704 39.1945 26.7578V25.4852C39.1945 23.7748 37.7879 22.38 36.0631 22.38C34.3383 22.38 32.9317 23.7748 32.9317 25.4852V26.7476C32.9317 27.4602 33.1781 28.1118 33.5785 28.631C31.6073 28.6718 30.0056 30.2803 30.0056 32.2554V34.5766C30.0056 34.9126 30.2828 35.1875 30.6216 35.1875C30.9604 35.1875 31.2376 34.9126 31.2376 34.5766V32.2452C31.2376 30.9217 32.3259 29.8426 33.6606 29.8426H38.1062C39.4409 29.8426 40.5292 30.9217 40.5292 32.2452V32.4387V34.4137V34.5665C40.5292 34.597 40.5292 34.6174 40.5395 34.6479C40.6011 35.8594 41.1452 36.9488 41.9871 37.7225H41.3403C38.3732 37.7225 35.9604 40.115 35.9604 43.0573V46.6918C35.9604 47.0278 36.2376 47.3027 36.5764 47.3027C36.9153 47.3027 37.1925 47.0278 37.1925 46.6918V43.0573C37.1925 40.787 39.061 38.934 41.3506 38.934H48.3218C50.6011 38.934 52.4594 40.787 52.4594 43.0573ZM52.5723 25.4852C52.5723 24.4467 53.4245 23.6017 54.4717 23.6017C55.5189 23.6017 56.3711 24.4467 56.3711 25.4852V26.7476C56.3711 27.786 55.5189 28.631 54.4717 28.631C53.4245 28.631 52.5723 27.786 52.5723 26.7476V25.4852ZM34.1637 25.4852C34.1637 24.4467 35.0159 23.6017 36.0631 23.6017C37.1103 23.6017 37.9625 24.4467 37.9625 25.4852V26.7476C37.9625 27.786 37.1103 28.631 36.0631 28.631C35.0159 28.631 34.1637 27.786 34.1637 26.7476V25.4852ZM41.7612 34.4137V32.4387C41.7612 30.6163 43.2602 29.1299 45.0877 29.1299C46.9255 29.1299 48.4142 30.6163 48.4142 32.4387V34.4137C48.4142 36.2361 46.9152 37.7225 45.0877 37.7225C43.2602 37.7225 41.7612 36.2361 41.7612 34.4137Z" fill="#010101"/>
</g>
<defs>
<clipPath id="clip0">
<rect width="54.2299" height="47.8499" fill="white" transform="translate(18.1367 22.3799)"/>
</clipPath>
</defs>
</svg>
