<svg width="91" height="93" viewBox="0 0 91 93" fill="none" xmlns="http://www.w3.org/2000/svg">
<path d="M0.899811 46.3151C0.950116 21.2632 21.2922 0.901465 46.2937 0.901465C63.8753 0.901465 79.7402 11.0067 87.2608 26.8044C87.4432 27.1826 87.0596 27.5798 86.676 27.4159L84.6764 26.5585C84.45 26.464 84.1859 26.5648 84.0853 26.7981C83.991 27.025 84.0916 27.2898 84.3243 27.3907L88.4241 29.1495C88.6631 29.2503 88.9398 29.1305 89.0278 28.8847L90.4803 24.661C90.5621 24.4278 90.4363 24.1693 90.2037 24.0874C89.971 24.0054 89.7132 24.1315 89.6314 24.3648L88.9272 26.4198C88.7951 26.7981 88.2732 26.8296 88.0971 26.4703C80.4256 10.3259 64.2337 0 46.2937 0C20.8017 0 0.0572034 20.7715 0.000610352 46.3151H0.899811Z" fill="black"/>
<path d="M89.0209 63.7579C88.9328 63.5121 88.6562 63.386 88.4172 63.4932L84.3174 65.252C84.091 65.3465 83.9841 65.6113 84.0784 65.8445C84.179 66.0715 84.4431 66.1786 84.6695 66.0841L86.6691 65.2268C87.0527 65.0628 87.43 65.46 87.2539 65.8382C79.7333 81.6359 63.8621 91.7412 46.2868 91.7412C21.2853 91.7412 0.943217 71.3794 0.892913 46.3275H0V46.3338C0.0565931 71.8774 20.8011 92.6426 46.2931 92.6426C64.2394 92.6426 80.4313 82.3167 88.0902 66.1849C88.26 65.8256 88.7882 65.8571 88.9203 66.2354L89.6245 68.2905C89.7063 68.5237 89.9641 68.6498 90.1967 68.5678C90.4294 68.4859 90.5552 68.2274 90.4734 67.9942L89.0209 63.7579Z" fill="black"/>
<g clip-path="url(#clip0)">
<path d="M50.1514 36.5398H47.9426C47.7249 36.5398 47.5486 36.7181 47.5486 36.9384C47.5486 37.1586 47.7249 37.3474 47.9426 37.3474H49.3529L47.9634 39.7494C47.6004 40.3787 47.6004 41.1234 47.9634 41.7527C48.3263 42.3821 48.9692 42.7597 49.6847 42.7597H51.095C51.3127 42.7597 51.489 42.5813 51.489 42.3506C51.489 42.1303 51.3127 41.952 51.095 41.952H49.6847C49.2492 41.952 48.8655 41.7318 48.6581 41.3542C48.4404 40.9766 48.4404 40.5255 48.6581 40.1584L50.0165 37.8089L50.5039 39.2983C50.5558 39.4662 50.7113 39.5815 50.8772 39.5815L50.9394 39.5711C51.0639 39.5396 51.1676 39.4557 51.2194 39.3508C51.2713 39.2564 51.2816 39.141 51.2505 39.0466L50.5143 36.8125C50.4728 36.6552 50.3276 36.5398 50.1514 36.5398Z" fill="#1C1C1C"/>
<path d="M58.6649 41.7737C59.0278 41.1444 59.0278 40.3997 58.6649 39.7599L57.9597 38.5222C57.9079 38.4383 57.8249 38.3648 57.7212 38.3439C57.6175 38.3124 57.5035 38.3229 57.4101 38.3753C57.2339 38.4802 57.1613 38.7424 57.265 38.9208L57.9701 40.1584C58.1879 40.536 58.1879 40.9871 57.9701 41.3646C57.7523 41.7422 57.3687 41.9625 56.9435 41.9625L54.2578 41.9415L55.2947 40.7668C55.3673 40.6829 55.3984 40.5885 55.3984 40.4731C55.3984 40.3682 55.3466 40.2633 55.2636 40.1899C55.1081 40.0431 54.8488 40.064 54.7037 40.2214L53.1586 41.9835C53.0445 42.1094 53.0238 42.2981 53.1171 42.4555L54.2059 44.4064C54.2785 44.5323 54.4133 44.6057 54.5481 44.6057H54.6L54.6518 44.5847C54.8281 44.5113 54.9007 44.3959 54.9318 44.312C54.9629 44.2071 54.9525 44.1022 54.9007 43.9973L54.1956 42.7597L56.9435 42.7701C57.659 42.7806 58.3019 42.403 58.6649 41.7737Z" fill="#1C1C1C"/>
<path d="M57.6383 34.4211C57.462 34.3267 57.2131 34.4001 57.0991 34.5784L56.3939 35.8161L55.0355 33.3932C54.6726 32.7638 54.04 32.3862 53.3142 32.3862C52.5987 32.3862 51.9557 32.7638 51.5928 33.3932L50.8877 34.6308C50.8358 34.7147 50.8255 34.8301 50.8462 34.935C50.8773 35.0399 50.9395 35.1238 51.0328 35.1867C51.2091 35.2811 51.4684 35.2182 51.5721 35.0399L52.2772 33.7917C52.4742 33.4456 52.8579 33.2358 53.3038 33.2358C53.7497 33.2358 54.1334 33.4456 54.3304 33.7917L55.6577 36.1517L54.1541 35.8475L54.0504 35.837C53.8637 35.837 53.6875 35.9839 53.6564 36.1622C53.6356 36.2671 53.6564 36.372 53.7186 36.4664C53.7808 36.5608 53.8741 36.6237 53.9674 36.6447L56.2695 37.1272C56.2902 37.1272 56.311 37.1272 56.3213 37.1272C56.4665 37.1272 56.591 37.0537 56.6635 36.9279L57.7627 34.9979C57.8146 34.914 57.8249 34.7987 57.8042 34.6938C57.8042 34.5679 57.7316 34.484 57.6383 34.4211Z" fill="#1C1C1C"/>
<path d="M39.3464 47.4167C39.419 47.6475 39.6368 47.8153 39.8856 47.8153H39.9271L39.9686 47.8048C40.1863 47.7524 40.3211 47.6475 40.4041 47.4902C40.4663 47.3538 40.4767 47.1965 40.4352 47.0601L39.6575 44.7106C39.6264 44.6057 39.5642 44.5218 39.4812 44.4484L34.8356 40.5256C34.5971 40.3263 34.2446 40.3578 34.0372 40.599C33.8402 40.8403 33.8713 41.2074 34.1098 41.4067L38.6309 45.2141L39.3464 47.4167Z" fill="#1C1C1C"/>
<path d="M66.1413 49.4515C65.3946 48.7382 64.4199 48.3082 63.3933 48.2453L63.0719 48.2243L63.217 47.9411C64.534 45.4448 65.2184 42.6233 65.2184 39.8018C65.2391 30.194 57.5137 22.3799 48.0152 22.3799C38.5167 22.3799 30.7913 30.194 30.7913 39.8018C30.7913 42.4869 31.3927 45.0777 32.5749 47.5006C32.6371 47.6369 32.7615 47.7418 32.8963 47.7943C33.0415 47.8467 33.2074 47.8362 33.3319 47.7628C33.4667 47.6999 33.5704 47.574 33.6118 47.4376C33.6637 47.2908 33.6533 47.1335 33.5807 46.9971C32.4815 44.742 31.9216 42.3191 31.9216 39.8123C31.9216 30.8443 39.1388 23.5441 48.0048 23.5441C49.6121 23.5441 51.209 23.7854 52.7334 24.2679L53.7081 24.572L48.5129 25.0965L45.0288 26.481C44.9043 26.5334 44.8006 26.6278 44.728 26.7537L43.4629 29.3025C43.1208 29.9843 42.4467 30.4353 41.6897 30.4668H41.6586L40.7772 30.236C40.5595 30.1731 40.3106 30.257 40.1654 30.4563C40.0306 30.6451 40.0306 30.9073 40.155 31.1066L42.5504 34.7357C42.82 35.1343 42.7578 35.6692 42.4052 35.9943L40.3728 37.8823C39.8647 38.4907 39.1699 38.8263 38.4026 38.8263C38.0396 38.8263 37.7389 39.1305 37.7389 39.4976V40.966C37.7389 41.1129 37.8011 41.2597 37.9048 41.3751L40.2276 43.7246C40.3106 43.8085 40.4039 43.861 40.518 43.8819L42.9134 44.3644C43.5044 44.4798 43.9296 45.0147 43.9296 45.6231V47.2383C43.9296 47.5425 44.1681 47.7628 44.4999 47.7628C44.8214 47.7628 45.0702 47.532 45.0702 47.2383V45.6231C45.0702 44.4693 44.2614 43.4729 43.1415 43.2421L40.912 42.7911L38.8796 40.7353V39.9591L39.0559 39.9277C39.8854 39.7808 40.6424 39.3403 41.1713 38.7214L43.183 36.8439C43.9503 36.1307 44.0955 34.9769 43.5148 34.0959L41.8764 31.6205L42.1875 31.5681C43.1933 31.3898 44.0333 30.7499 44.4895 29.8164L45.6509 27.4565L48.7826 26.2083L55.2947 25.5475L55.5228 25.4531L55.668 25.4951C60.8631 28.3585 64.0881 33.8337 64.0881 39.7913C64.0881 42.854 63.2378 45.8433 61.6201 48.4341L61.5786 48.497L61.5164 48.518C61.029 48.7068 60.5728 48.9795 60.1787 49.3256L57.8871 51.3604L54.3407 52.6086L51.3749 52.5981L51.3335 52.4303C50.9498 50.7101 49.3944 49.4515 47.6523 49.4515H37.293C35.4887 49.4515 33.7881 50.1647 32.5127 51.4548L28.3856 55.7238L27.7841 55.1259C27.5664 54.9057 27.1931 54.9057 26.9857 55.1259L23.8852 58.2621C23.7815 58.367 23.7192 58.5138 23.7192 58.6711C23.7192 58.8285 23.7815 58.9648 23.8852 59.0697C24.1029 59.29 24.4762 59.29 24.694 59.0697L27.3901 56.3426L37.4278 66.4958L34.7317 69.2229C34.6281 69.3278 34.5658 69.4746 34.5658 69.6319C34.5658 69.7893 34.6281 69.9256 34.7317 70.041C34.8562 70.1669 34.991 70.2298 35.1362 70.2298C35.2813 70.2298 35.4058 70.1669 35.5406 70.041L38.6411 66.9049C38.8588 66.6846 38.8588 66.3175 38.6411 66.0972L37.8011 65.2476L40.7565 62.4156L48.1707 63.5694C49.8299 63.8316 51.5305 63.454 52.9304 62.51L61.1846 57.36L66.1516 52.4513C66.556 52.0632 66.7945 51.5073 66.7945 50.9514C66.7842 50.385 66.5457 49.8396 66.1413 49.4515ZM65.3635 51.6227L60.4483 56.479L52.3186 61.5451C51.1364 62.3422 49.7262 62.6569 48.3367 62.4366L40.6424 61.2409C40.4661 61.2199 40.3002 61.2724 40.1654 61.3877L36.982 64.4295L29.1425 56.5L33.3422 52.294C34.4103 51.2136 35.8206 50.6262 37.3241 50.6262H47.6834C49.1351 50.6262 50.3276 51.822 50.3276 53.3009C50.3276 53.8148 49.9336 54.2554 49.4151 54.2973L40.5284 54.9686C40.3728 54.9791 40.2276 55.0525 40.1343 55.1679C40.0306 55.2833 39.9891 55.4301 39.9995 55.5769C40.0202 55.8811 40.2691 56.1014 40.6113 56.1119L49.4981 55.4406C50.3587 55.3777 51.1157 54.7693 51.3646 53.9197L51.4061 53.7729L54.548 53.7834L58.4885 52.3883L60.9461 50.2067C61.2364 49.9549 61.5579 49.7557 61.869 49.6298L61.983 49.5983C62.0764 49.5878 62.1801 49.5564 62.2112 49.5354L62.3252 49.483C63.414 49.2102 64.5547 49.5144 65.3739 50.3011C65.5606 50.4794 65.6539 50.7101 65.6539 50.9619C65.6539 51.2031 65.5502 51.4444 65.3635 51.6227Z" fill="#1C1C1C"/>
</g>
<defs>
<clipPath id="clip0">
<rect width="43.0649" height="47.8499" fill="white" transform="translate(23.7192 22.3799)"/>
</clipPath>
</defs>
</svg>
