<svg width="120" height="70" class="logoSvg" viewBox="0 0 120 70" fill="none" xmlns="http://www.w3.org/2000/svg">
<g clip-path="url(#clip0)">
<path d="M35.7792 37.9361C35.4613 36.5296 34.5974 35.9948 33.2013 35.9948C31.2247 35.9948 30.3712 37.6965 30.3712 39.6343C30.3712 41.4713 31.0416 43.3223 33.267 43.3223C34.6769 43.3223 35.5511 42.3638 35.8587 41.0616H36.6638C36.301 42.6486 35.3127 43.9821 33.1218 43.9821C30.5993 43.9821 29.6006 41.9853 29.6006 39.6586C29.6006 36.5331 31.2351 35.3315 33.4017 35.3315C35.0812 35.3315 36.3079 36.2345 36.5705 37.9361H35.7792Z" fill="#C37125"/>
<path d="M41.308 35.3315C43.8651 35.3315 45.1575 37.2624 45.1575 39.669C45.1575 42.0756 43.8651 43.9821 41.3563 43.9821C38.8476 43.9821 37.5552 42.0304 37.5552 39.669C37.5552 37.3075 38.889 35.3315 41.308 35.3315ZM44.3869 39.669C44.3869 37.3874 43.2155 35.9948 41.3322 35.9948C39.2311 35.9948 38.312 37.7625 38.312 39.669C38.312 41.5755 39.2208 43.3223 41.3563 43.3223C43.4919 43.3223 44.3973 41.5859 44.3973 39.669H44.3869Z" fill="#C37125"/>
<path d="M46.3672 43.7668V35.5503H47.5455L50.2271 42.7979H50.2478L52.8844 35.5503H54.0524V43.7668H53.2818V36.4393H53.2576L50.5796 43.7668H49.8504L47.162 36.4393H47.1378V43.7668H46.3672Z" fill="#C37125"/>
<path d="M55.521 43.7668V35.5503H56.7028L59.3844 42.7979H59.4051L62.0417 35.5503H63.2097V43.7668H62.4391V36.4393H62.4149L59.7368 43.7668H59.0077L56.3158 36.4393H56.295V43.7668H55.521Z" fill="#C37125"/>
<path d="M64.7236 35.5503H65.4977V40.4469C65.4977 42.4784 66.2234 43.3223 67.8924 43.3223C69.6513 43.3223 70.2906 42.3846 70.2906 40.4469V35.5503H71.0612V40.6726C71.0612 42.8083 70.0038 43.9821 67.8924 43.9821C65.781 43.9821 64.7236 42.7736 64.7236 40.6726V35.5503Z" fill="#C37125"/>
<path d="M73.3798 36.5991H73.359V43.7668H72.585V35.5503H73.4454L78.1692 42.7284H78.1934V35.5503H78.9744V43.7668H78.0794L73.3798 36.5991Z" fill="#C37125"/>
<path d="M80.7783 43.7668V35.5503H81.5489V43.7668H80.7783Z" fill="#C37125"/>
<path d="M82.6203 35.5503H88.5708V36.2101H85.9791V43.7668H85.1947V36.2101H82.6064L82.6203 35.5503Z" fill="#C37125"/>
<path d="M91.8777 39.5092L94.3415 35.5503H95.2365L92.2751 40.1829V43.7668H91.501V40.2385L88.5845 35.5503H89.4691L91.8777 39.5092Z" fill="#C37125"/>
<path d="M104.656 37.9361C104.338 36.5296 103.474 35.9948 102.078 35.9948C100.102 35.9948 99.2481 37.6965 99.2481 39.6343C99.2481 41.4713 99.9185 43.3223 102.147 43.3223C103.554 43.3223 104.428 42.3638 104.736 41.0616H105.541C105.178 42.6486 104.19 43.9821 101.999 43.9821C99.4762 43.9821 98.4775 41.9853 98.4775 39.6586C98.4775 36.5331 100.112 35.3315 102.279 35.3315C103.958 35.3315 105.185 36.2345 105.447 37.9361H104.656Z" fill="#4F7D3D"/>
<path d="M107.065 41.3116C107.189 42.784 108.167 43.3223 109.418 43.3223C110.883 43.3223 111.492 42.5236 111.492 41.6207C111.492 39.0751 106.505 40.7664 106.505 37.5367C106.505 36.3942 107.448 35.3315 109.27 35.3315C111.091 35.3315 112.034 36.4498 112.017 37.7868H111.281C111.281 36.5296 110.317 35.9948 109.27 35.9948C107.704 35.9948 107.134 36.9637 107.272 37.8111C107.618 39.9329 112.259 38.4014 112.259 41.5859C112.259 43.0931 111.156 43.9821 109.27 43.9821C107.566 43.9821 106.305 43.0931 106.305 41.3116H107.065Z" fill="#4F7D3D"/>
<path d="M114.146 40.0336V43.7668H113.372V35.5503H116.575C118.368 35.5503 119.357 36.1893 119.357 37.7069C119.357 38.7487 118.97 39.2939 118.03 39.7141C118.994 40.0614 119.066 41.0719 119.066 41.9401C119.101 43.1834 119.201 43.5272 119.412 43.6765V43.7564H118.562C118.244 43.1973 118.323 41.6554 118.199 41.0268C118.016 40.1378 117.346 40.0232 116.575 40.0232L114.146 40.0336ZM116.565 39.3738C117.712 39.3738 118.596 38.8945 118.596 37.7416C118.596 36.5088 117.643 36.2101 116.609 36.2101H114.159V39.3738H116.565Z" fill="#4F7D3D"/>
<path d="M29.587 25.9551H33.7337C35.9176 25.9551 36.3185 27.5734 36.3185 28.2853C36.3449 28.7063 36.236 29.1247 36.0076 29.4787C35.7792 29.8326 35.4435 30.1034 35.0503 30.2509C35.7414 30.5495 36.0869 30.803 36.0869 32.3345C36.0869 33.5395 36.0869 33.8382 36.4532 33.9771V34.1959H34.5561C34.4092 33.6532 34.3474 33.0908 34.373 32.529C34.373 31.4038 34.3038 30.9662 33.0356 30.9662H31.2629V34.1959H29.5835L29.587 25.9551ZM33.2775 29.5841C34.1691 29.5841 34.6045 29.275 34.6045 28.4589C34.6045 28.0214 34.411 27.3789 33.4019 27.3789H31.2664V29.5841H33.2775Z" fill="#023F88"/>
<path d="M39.0069 34.2028H37.2031L40.1266 25.9551H42.1066L44.999 34.2028H43.1329L42.6077 32.5012H39.5806L39.0069 34.2028ZM40.0436 31.0774H42.1343L41.1183 27.8165H41.0941L40.0436 31.0774Z" fill="#023F88"/>
<path d="M53.9732 34.2028H52.3663V27.3094L50.8355 34.2028H49.1561L47.6598 27.3094H47.6356V34.2028H46.0356V25.9551H48.5375L50.0234 32.456H50.0476L51.5093 25.9551H53.9904L53.9732 34.2028Z" fill="#023F88"/>
<path d="M60.8602 28.6708C60.722 28.1776 60.4593 27.2469 59.0425 27.2469C58.2201 27.2469 57.0072 27.7991 57.0072 30.1293C57.0072 31.6122 57.5912 32.9457 59.0425 32.9457C59.4844 32.9646 59.917 32.8152 60.254 32.5275C60.591 32.2397 60.8075 31.8346 60.8602 31.3934H62.588C62.2424 33.1853 61.0779 34.439 59.0218 34.439C56.8378 34.439 55.2725 32.9561 55.2725 30.1085C55.2725 27.2608 56.9277 25.7537 59.0425 25.7537C61.5029 25.7537 62.4981 27.4553 62.588 28.6708H60.8602Z" fill="#023F88"/>
<path d="M67.457 25.7366C68.5421 25.7366 71.3998 26.2089 71.3998 30.0775C71.3998 33.9461 68.5421 34.4219 67.457 34.4219C66.3719 34.4219 63.5142 33.9496 63.5142 30.0775C63.5142 26.2054 66.3719 25.7366 67.457 25.7366ZM67.457 32.9633C68.3831 32.9633 69.6859 32.3869 69.6859 30.0775C69.6859 27.7681 68.3831 27.1951 67.457 27.1951C66.5309 27.1951 65.2281 27.7681 65.2281 30.0775C65.2281 32.3869 66.5344 32.9633 67.457 32.9633Z" fill="#023F88"/>
<path d="M0.677298 34.9992C0.680988 27.1973 3.32512 19.6286 8.17529 13.5367C13.0255 7.44472 19.7932 3.19178 27.3667 1.47656C34.9402 -0.238664 42.869 0.685843 49.8505 4.09819C56.832 7.51055 62.451 13.2078 65.7843 20.254C65.8109 20.3165 65.8187 20.3855 65.8067 20.4524C65.7946 20.5194 65.7633 20.5813 65.7165 20.6304C65.6698 20.6796 65.6097 20.7139 65.5437 20.7291C65.4778 20.7443 65.4088 20.7397 65.3454 20.7158L63.8353 20.0664C63.7522 20.0325 63.6593 20.0324 63.5761 20.0661C63.4929 20.0998 63.426 20.1647 63.3896 20.247C63.3568 20.3301 63.3573 20.4227 63.3907 20.5055C63.4242 20.5883 63.4881 20.6549 63.5692 20.6915L66.6586 22.0216C66.7014 22.0389 66.7472 22.0473 66.7933 22.0465C66.8395 22.0457 66.885 22.0356 66.9272 22.0168C66.9694 21.9981 67.0074 21.971 67.039 21.9372C67.0706 21.9034 67.0952 21.8636 67.1112 21.8202L68.2067 18.6252C68.2345 18.5395 68.228 18.4463 68.1887 18.3653C68.1493 18.2843 68.0802 18.2219 67.9959 18.1912C67.9106 18.1632 67.8179 18.1697 67.7372 18.2092C67.6566 18.2488 67.5945 18.3182 67.5639 18.403L67.0318 19.9588C67.0069 20.0192 66.9655 20.0714 66.9124 20.1092C66.8593 20.1471 66.7966 20.1691 66.7316 20.1727C66.6666 20.1764 66.6019 20.1615 66.545 20.1298C66.488 20.098 66.4412 20.0508 66.4097 19.9935C63.0065 12.815 57.2772 7.01166 50.1612 3.53506C43.0452 0.0584509 34.9649 -0.885061 27.2453 0.859237C19.5257 2.60353 12.6249 6.93211 7.67458 13.1352C2.72424 19.3383 0.0181315 27.0477 0 34.9992H0.677298Z" fill="#C37125"/>
<path d="M67.1114 48.1808C67.0953 48.1373 67.0708 48.0975 67.0392 48.0638C67.0075 48.03 66.9695 48.0029 66.9273 47.9841C66.8851 47.9653 66.8396 47.9553 66.7935 47.9544C66.7474 47.9536 66.7015 47.9621 66.6587 47.9794L63.5694 49.306C63.4874 49.3426 63.4229 49.4098 63.3894 49.4934C63.3558 49.577 63.3559 49.6705 63.3897 49.754C63.4268 49.8357 63.4939 49.8998 63.5771 49.9328C63.6602 49.9658 63.7528 49.9652 63.8355 49.9311L65.3456 49.2817C65.409 49.2578 65.4779 49.2532 65.5439 49.2684C65.6098 49.2836 65.6699 49.3179 65.7167 49.3671C65.7634 49.4162 65.7948 49.4781 65.8068 49.5451C65.8188 49.612 65.8111 49.681 65.7844 49.7435C62.4511 56.7897 56.8321 62.487 49.8506 65.8993C42.8691 69.3117 34.9404 70.2362 27.3669 68.5209C19.7934 66.8057 13.0256 62.5528 8.17544 56.4608C3.32527 50.3689 0.681139 42.8002 0.677448 34.9983H-0.0136719C0.00601714 42.9493 2.71324 50.6576 7.66413 56.8595C12.615 63.0613 19.5158 67.3887 27.235 69.1321C34.9542 70.8755 43.0338 69.9315 50.1491 66.4548C57.2644 62.9781 62.9931 57.175 66.3961 49.9971C66.4278 49.9399 66.4749 49.8928 66.5321 49.8614C66.5892 49.83 66.654 49.8154 66.719 49.8194C66.7841 49.8234 66.8466 49.8458 66.8995 49.884C66.9525 49.9222 66.9935 49.9746 67.0181 50.0353L67.571 51.591C67.6015 51.6758 67.6637 51.7453 67.7443 51.7848C67.8249 51.8243 67.9177 51.8308 68.0029 51.8029C68.0865 51.7722 68.155 51.7103 68.1942 51.63C68.2335 51.5498 68.2405 51.4575 68.2137 51.3723L67.1114 48.1808Z" fill="#023F88"/>
</g>
<defs>
<clipPath id="clip0">
<rect width="119.412" height="70" fill="white"/>
</clipPath>
</defs>
</svg>
