<svg width="45" height="50" viewBox="0 0 45 50" fill="none" xmlns="http://www.w3.org/2000/svg">
<g clip-path="url(#clip0_1360_11043)">
<path d="M1.5 27.2499C1.5 27.2499 22.5 24.8399 22.5 48.2499C22.5 48.2599 1.5 49.2999 1.5 27.2499Z" stroke="#1B4A52" stroke-width="3" stroke-linecap="round" stroke-linejoin="round"/>
<path d="M5.63992 27.1699C4.91988 23.5207 5.06371 19.7536 6.05992 16.1699C6.05992 16.1699 25.6599 18.7399 21.8099 39.4499" stroke="#1B4A52" stroke-width="3" stroke-linecap="round" stroke-linejoin="round"/>
<path d="M43.51 27.2499C43.51 27.2499 22.51 24.8399 22.51 48.2499C22.5 48.2599 43.51 49.2999 43.51 27.2499Z" stroke="#1B4A52" stroke-width="3" stroke-linecap="round" stroke-linejoin="round"/>
<path d="M39.1401 27.3501C39.9154 23.6299 39.7816 19.7776 38.7501 16.1201C38.7501 16.1201 19.0701 18.7101 23.0301 39.5901" stroke="#1B4A52" stroke-width="3" stroke-linecap="round" stroke-linejoin="round"/>
<path d="M31.2699 3.21966C30.7247 2.6733 30.0771 2.23983 29.3641 1.94408C28.6511 1.64833 27.8868 1.49609 27.1149 1.49609C26.343 1.49609 25.5788 1.64833 24.8658 1.94408C24.1528 2.23983 23.5052 2.6733 22.9599 3.21966L22.4999 3.66966L22.0499 3.21966C21.5047 2.6733 20.8571 2.23983 20.1441 1.94408C19.4311 1.64833 18.6668 1.49609 17.8949 1.49609C17.123 1.49609 16.3588 1.64833 15.6458 1.94408C14.9328 2.23983 14.2852 2.6733 13.7399 3.21966V3.21966C13.1936 3.7649 12.7601 4.41254 12.4644 5.12551C12.1686 5.83848 12.0164 6.60279 12.0164 7.37466C12.0164 8.14654 12.1686 8.91084 12.4644 9.62382C12.7601 10.3368 13.1936 10.9844 13.7399 11.5297L22.4499 20.2497V20.1997L22.5099 20.2497L31.2199 11.5297C31.7696 10.9877 32.207 10.3427 32.507 9.6315C32.8071 8.92031 32.9639 8.15692 32.9686 7.38504C32.9732 6.61315 32.8255 5.84793 32.5341 5.13318C32.2426 4.41843 31.813 3.76818 31.2699 3.21966V3.21966Z" stroke="#E2504B" stroke-width="3" stroke-linecap="round" stroke-linejoin="round"/>
</g>
<defs>
<clipPath id="clip0_1360_11043">
<rect width="45" height="49.77" fill="white"/>
</clipPath>
</defs>
</svg>
