<svg width="55" height="50" viewBox="0 0 55 50" fill="none" xmlns="http://www.w3.org/2000/svg">
<g clip-path="url(#clip0_1360_11033)">
<path d="M49.77 47.9404H4.83C3.94683 47.9404 3.09983 47.5896 2.47533 46.9651C1.85084 46.3406 1.5 45.4936 1.5 44.6104V39.4004H18.89L21.89 41.7404H31.89L35.51 39.4004H53.08V44.6104C53.08 45.4901 52.7319 46.3341 52.1117 46.958C51.4916 47.5819 50.6497 47.9351 49.77 47.9404V47.9404Z" stroke="#1B4A52" stroke-width="3" stroke-linecap="round" stroke-linejoin="round"/>
<path d="M12.3599 13.7002H10.4299C9.10385 13.7002 7.83208 14.227 6.8944 15.1647C5.95672 16.1023 5.42993 17.3741 5.42993 18.7002V39.4002" stroke="#1B4A52" stroke-width="3" stroke-linecap="round" stroke-linejoin="round"/>
<path d="M49.67 39.4002V18.6602C49.67 18.0035 49.5407 17.3534 49.2894 16.7467C49.0381 16.1401 48.6698 15.5889 48.2056 15.1246C47.7413 14.6603 47.1901 14.292 46.5834 14.0408C45.9768 13.7895 45.3266 13.6602 44.67 13.6602H41.77" stroke="#1B4A52" stroke-width="3" stroke-linecap="round" stroke-linejoin="round"/>
<path d="M37.46 13.7C37.46 13.51 37.46 13.33 37.46 13.14C37.4434 12.8704 37.5019 12.6015 37.629 12.3631C37.7562 12.1248 37.9469 11.9264 38.18 11.79L39.59 10.98L35.67 4.21L34.26 5.02C34.0304 5.16264 33.7654 5.23822 33.495 5.23822C33.2247 5.23822 32.9597 5.16264 32.73 5.02C32.42 4.82 32.1 4.63 31.73 4.46C31.4908 4.33518 31.2906 4.14693 31.1512 3.91586C31.0119 3.68479 30.9388 3.41983 30.94 3.15V1.5H23.15V3.12C23.1513 3.38983 23.0782 3.65479 22.9389 3.88586C22.7995 4.11693 22.5993 4.30518 22.36 4.43C22.03 4.6 21.7 4.79 21.36 4.99C21.1319 5.13176 20.8686 5.20689 20.6 5.20689C20.3314 5.20689 20.0682 5.13176 19.84 4.99L18.43 4.18L14.54 10.99L15.95 11.8C16.1838 11.9347 16.3763 12.1307 16.5067 12.3669C16.6372 12.6031 16.7005 12.8704 16.69 13.14C16.69 13.33 16.69 13.51 16.69 13.7C16.69 13.89 16.69 14.07 16.69 14.25C16.7017 14.5198 16.6388 14.7875 16.5082 15.0239C16.3777 15.2603 16.1846 15.4562 15.95 15.59L14.54 16.41L18.46 23.19L19.87 22.37C20.099 22.2304 20.3619 22.1566 20.63 22.1566C20.8982 22.1566 21.1611 22.2304 21.39 22.37C21.7118 22.5737 22.0457 22.7573 22.39 22.92C22.6293 23.0448 22.8295 23.2331 22.9689 23.4641C23.1082 23.6952 23.1813 23.9602 23.18 24.23V25.86H30.98V24.27C30.9788 24.0002 31.0519 23.7352 31.1912 23.5041C31.3306 23.2731 31.5308 23.0848 31.77 22.96C32.1145 22.7977 32.4485 22.614 32.77 22.41C33.0009 22.2706 33.2654 22.197 33.535 22.197C33.8047 22.197 34.0692 22.2706 34.3 22.41L35.71 23.23L39.63 16.45L38.18 15.59C37.944 15.4579 37.7496 15.2624 37.6188 15.0256C37.488 14.7888 37.4261 14.5201 37.44 14.25C37.45 14.07 37.46 13.88 37.46 13.7Z" stroke="#E2504B" stroke-width="3" stroke-linecap="round" stroke-linejoin="round"/>
<path d="M27.0601 18.2002C29.5453 18.2002 31.5601 16.1855 31.5601 13.7002C31.5601 11.2149 29.5453 9.2002 27.0601 9.2002C24.5748 9.2002 22.5601 11.2149 22.5601 13.7002C22.5601 16.1855 24.5748 18.2002 27.0601 18.2002Z" stroke="#E2504B" stroke-width="3" stroke-linecap="round" stroke-linejoin="round"/>
</g>
<defs>
<clipPath id="clip0_1360_11033">
<rect width="54.6" height="49.44" fill="white"/>
</clipPath>
</defs>
</svg>
