<svg width="52" height="53" viewBox="0 0 52 53" fill="none" xmlns="http://www.w3.org/2000/svg">
<g clip-path="url(#clip0_1360_11067)">
<path d="M17.3301 40.3799H49.0001" stroke="#1B4A52" stroke-width="3" stroke-linecap="round" stroke-linejoin="round"/>
<path d="M1.5 36.1304C1.5 36.1304 18.02 33.5004 20.77 51.4304" stroke="#1B4A52" stroke-width="3" stroke-linecap="round" stroke-linejoin="round"/>
<path d="M22.6699 46.2998H43.6599" stroke="#1B4A52" stroke-width="3" stroke-linecap="round" stroke-linejoin="round"/>
<path d="M20.7701 13.9404C20.0801 30.6404 9.07007 36.1204 9.07007 36.1204" stroke="#1B4A52" stroke-width="3" stroke-linecap="round" stroke-linejoin="round"/>
<path d="M20.7699 13.94C11.1399 10.76 7.66992 20.57 7.66992 20.57" stroke="#1B4A52" stroke-width="3" stroke-linecap="round" stroke-linejoin="round"/>
<path d="M20.7701 13.9402C16.2101 4.87021 6.8501 9.37021 6.8501 9.37021" stroke="#1B4A52" stroke-width="3" stroke-linecap="round" stroke-linejoin="round"/>
<path d="M20.1799 13.5201C30.3199 12.9101 31.1299 23.2701 31.1299 23.2701" stroke="#1B4A52" stroke-width="3" stroke-linecap="round" stroke-linejoin="round"/>
<path d="M34.8099 12.6695C34.8099 12.6695 26.9199 5.91953 20.1799 13.5195C20.1799 13.5195 20.3599 3.44953 25.3299 1.51953" stroke="#1B4A52" stroke-width="3" stroke-linecap="round" stroke-linejoin="round"/>
<path d="M43.6601 31.6404C47.3051 31.6404 50.2601 28.6855 50.2601 25.0404C50.2601 21.3954 47.3051 18.4404 43.6601 18.4404C40.015 18.4404 37.0601 21.3954 37.0601 25.0404C37.0601 28.6855 40.015 31.6404 43.6601 31.6404Z" stroke="#E2504B" stroke-width="3" stroke-linecap="round" stroke-linejoin="round"/>
</g>
<defs>
<clipPath id="clip0_1360_11067">
<rect width="51.76" height="52.93" fill="white"/>
</clipPath>
</defs>
</svg>
