<svg width="51" height="51" viewBox="0 0 51 51" fill="none" xmlns="http://www.w3.org/2000/svg">
<g clip-path="url(#clip0_1360_10999)">
<path d="M18.8 1.5H7.74C4.29374 1.5 1.5 4.29374 1.5 7.74V14.66C1.5 18.1063 4.29374 20.9 7.74 20.9H18.8C22.2463 20.9 25.04 18.1063 25.04 14.66V7.74C25.04 4.29374 22.2463 1.5 18.8 1.5Z" stroke="#E2504B" stroke-width="3" stroke-linecap="round" stroke-linejoin="round"/>
<path d="M3.02002 4.42969L5.02002 9.52969C5.21247 10.0206 5.54803 10.4422 5.98312 10.74C6.41822 11.0378 6.93278 11.198 7.46002 11.1997H19.08C19.6193 11.1981 20.1449 11.0301 20.5852 10.7187C21.0254 10.4073 21.3589 9.96763 21.54 9.45969L23.34 4.45969" stroke="#E2504B" stroke-width="3" stroke-linecap="round" stroke-linejoin="round"/>
<path d="M30.32 11.2002C32.7954 11.2002 35.2466 11.6878 37.5335 12.6351C39.8205 13.5824 41.8985 14.9708 43.6489 16.7212C45.3993 18.4716 46.7878 20.5496 47.7351 22.8366C48.6824 25.1236 49.17 27.5748 49.17 30.0502C49.1673 35.0478 47.1802 39.8398 43.6454 43.3727C40.1106 46.9056 35.3176 48.8902 30.32 48.8902C25.3224 48.8902 20.5293 46.9056 16.9945 43.3727C13.4598 39.8398 11.4726 35.0478 11.47 30.0502C11.4685 28.3782 11.6905 26.7134 12.13 25.1002" stroke="#1B4A52" stroke-width="3" stroke-linecap="round" stroke-linejoin="round"/>
<path d="M47.37 31.2402H13.27" stroke="#1B4A52" stroke-width="3" stroke-linecap="round" stroke-linejoin="round"/>
<path d="M30.32 11.2002C30.6437 11.2172 30.9604 11.3016 31.2497 11.4479C31.5389 11.5943 31.7945 11.7994 32 12.0502C34.29 14.4302 36 21.5902 36 30.0502C36 40.4502 33.47 48.8902 30.36 48.8902C27.25 48.8902 24.73 40.4502 24.73 30.0502C24.73 28.6202 24.73 27.2402 24.86 25.9102" stroke="#1B4A52" stroke-width="3" stroke-linecap="round" stroke-linejoin="round"/>
</g>
<defs>
<clipPath id="clip0_1360_10999">
<rect width="50.67" height="50.4" fill="white"/>
</clipPath>
</defs>
</svg>
