<svg width="56" height="57" viewBox="0 0 56 57" fill="none" xmlns="http://www.w3.org/2000/svg">
<path d="M7.5971 41.6433C9.15509 42.2333 12.9351 43.6456 12.9309 43.6915C11.1001 43.1151 9.11079 43.7684 8.21485 45.4859L8.19505 45.5239C7.36278 47.1193 7.77257 49.0354 9.08278 50.1636C9.08224 50.2619 9.09438 50.7438 9.10269 50.8912C7.23807 50.0948 5.61334 49.2622 4.19931 48.5083C2.35514 47.5252 1.65053 45.2422 2.61594 43.3916L2.63574 43.3536C3.57183 41.5592 5.70162 40.9254 7.5971 41.6433ZM23.4256 36.5903C22.6231 36.4814 21.8255 36.5118 21.0937 36.7154C16.9054 37.9621 16.8092 43.5852 21.2086 45.0633C22.7173 45.6138 24.5055 45.8408 26.3535 45.8815C26.3769 45.5 26.4097 45.1191 26.4532 44.7391C23.571 43.2915 24.0175 39.2189 27.0255 38.3921C27.0783 38.3774 27.2717 36.8398 27.2717 36.8398C26.0721 36.8515 24.7944 36.7761 23.4256 36.5903Z" fill="#B1CBCF"/>
<path d="M54.3799 44.9835C53.7352 44.843 50.9636 44.4129 47.4432 46.319C42.4699 49.0116 34.7918 52.2215 26.456 52.2215C17.0925 52.2215 10.7205 49.5127 5.22936 46.5854C4.44752 46.1686 4.1655 45.1506 4.57551 44.3645C5.03256 43.4882 6.05933 43.399 6.81984 43.6871C11.3564 45.4054 18.4825 48.0362 26.7964 48.0734C29.185 48.0734 31.7154 47.786 33.8068 47.2376C34.9754 46.9311 35.6738 45.7374 35.3667 44.5712C35.0597 43.4051 33.8634 42.7079 32.6947 43.0145C30.9087 43.4828 28.7688 43.7217 26.6875 43.706C24.7483 43.6848 23.1571 43.4528 21.9589 43.0156C21.1285 42.7127 20.5254 42.2153 20.2608 41.615C20.0451 41.1257 20.057 40.5842 20.2962 40.0055C20.6048 39.2593 21.2193 38.9496 21.6806 38.8212C22.0936 38.7063 22.5947 38.6839 23.1298 38.7564C24.496 38.9419 25.7836 39.0252 27 39.0252C33.7624 39.0251 38.313 36.4466 41.7779 34.4832C44.092 33.1718 45.9198 32.136 47.6908 32.136C49.9933 32.136 51.4397 32.5886 53.1633 33.1279C55.9681 33.8829 57.2045 29.9346 54.4703 28.9608C52.6146 28.3801 50.6633 27.7695 47.6907 27.7695C44.7639 27.7695 42.2638 29.1863 39.617 30.6862C35.6789 32.9178 31.2152 35.4472 23.7194 34.4298C22.5828 34.2756 21.5013 34.338 20.5051 34.6154C18.5563 35.1577 17.0059 36.5153 16.2513 38.3402C15.7338 39.5918 15.6048 40.9082 15.8636 42.1513C13.0579 41.3792 10.4805 40.4034 8.37247 39.6049C5.35002 38.4606 2.10057 39.6529 0.674395 42.3863C-0.838419 45.2861 0.280138 48.8975 3.16749 50.4368C16.5175 58.201 34.1224 58.9696 49.5301 50.157C51.7985 48.9287 53.2534 49.2006 53.2534 49.2006C56.0948 49.8252 57.152 45.8455 54.3799 44.9835Z" fill="#1B4A52"/>
<path d="M35.0403 10.4807C33.793 9.04625 31.986 8.22349 30.0827 8.22349H27.6457V7.2454C27.2841 -1.44586 14.8768 -1.43909 14.5184 7.2454V8.22349H12.0193C8.10831 8.16029 4.9071 11.8427 5.52113 15.6968L6.50065 22.5589C6.79787 24.6404 7.838 26.5456 9.42935 27.9235C11.0208 29.3015 13.0576 30.0604 15.1647 30.0604H26.9369C31.1847 30.1287 35.0697 26.7648 35.6011 22.5589L36.5806 15.6969C36.8491 13.8165 36.2877 11.9154 35.0403 10.4807ZM18.8943 7.2454C19.0148 4.34835 23.1506 4.35053 23.27 7.2454V8.22349H18.8943V7.2454ZM32.2487 15.0811L31.2692 21.943C30.9639 24.0812 29.1016 25.6937 26.9371 25.6937H15.1649C13.0004 25.6937 11.1381 24.0812 10.8329 21.943L9.85337 15.0811C9.64136 13.8019 10.7205 12.5609 12.0194 12.59H14.5185V15.3234C14.634 18.2201 18.7797 18.2179 18.8943 15.3234V12.59H23.27V15.3234C23.3855 18.2201 27.5313 18.2179 27.6458 15.3234V12.59H30.0828C30.7266 12.59 31.3135 12.8572 31.7353 13.3424C32.1571 13.8275 32.3395 14.4451 32.2487 15.0811Z" fill="#E2504B"/>
</svg>
