<svg width="18" height="19" viewBox="0 0 18 19" fill="none" xmlns="http://www.w3.org/2000/svg">
<path fill-rule="evenodd" clip-rule="evenodd" d="M14.312 13.7108L17.707 17.1043C18.098 17.495 18.098 18.1265 17.707 18.5172C17.512 18.7121 17.256 18.81 17 18.81C16.744 18.81 16.488 18.7121 16.293 18.5172L12.897 15.1247C11.543 16.177 9.846 16.8115 8 16.8115C3.589 16.8115 0 13.2251 0 8.81737C0 4.40961 3.589 0.823242 8 0.823242C12.411 0.823242 16 4.40961 16 8.81737C16 10.662 15.365 12.3578 14.312 13.7108ZM8 2.82172C4.691 2.82172 2 5.51066 2 8.81714C2 12.1236 4.691 14.8126 8 14.8126C11.309 14.8126 14 12.1236 14 8.81714C14 5.51066 11.309 2.82172 8 2.82172Z" fill="white"/>
</svg>
